<?xml version="1.0" standalone="no"?>
<!DOCTYPE svg PUBLIC "-//W3C//DTD SVG 1.1//EN" "http://www.w3.org/Graphics/SVG/1.1/DTD/svg11.dtd" >
<svg xmlns="http://www.w3.org/2000/svg" xmlns:xlink="http://www.w3.org/1999/xlink" version="1.1">
<metadata></metadata>
<defs>
<font id="zabal_demomedium" horiz-adv-x="1269" >
<font-face units-per-em="2048" ascent="1638" descent="-410" />
<missing-glyph horiz-adv-x="487" />
<glyph unicode="&#xfb01;" horiz-adv-x="1257" d="M41 862v166h184v105q0 198 90 294.5t279 96.5q65 0 111 -11v-165q-48 10 -103 10q-51 0 -82 -8t-58.5 -33t-39.5 -76t-12 -133v-80h286v-166h-286v-862h-185v862h-184zM877 1350q0 51 35 84.5t89 33.5t89.5 -33.5t35.5 -84.5q0 -53 -35.5 -88t-89.5 -35t-89 35t-35 88z M909 0v1028h185v-1028h-185z" />
<glyph unicode="&#xfb02;" horiz-adv-x="1257" d="M41 862v166h184v105q0 198 90 294.5t279 96.5q65 0 111 -11v-165q-48 10 -103 10q-51 0 -82 -8t-58.5 -33t-39.5 -76t-12 -133v-80h286v-166h-286v-862h-185v862h-184zM909 0v1501h185v-1501h-185z" />
<glyph horiz-adv-x="0" />
<glyph horiz-adv-x="682" />
<glyph horiz-adv-x="0" />
<glyph horiz-adv-x="0" />
<glyph unicode="&#xd;" horiz-adv-x="681" />
<glyph unicode=" "  horiz-adv-x="487" />
<glyph unicode="&#x09;" horiz-adv-x="487" />
<glyph unicode="&#xa0;" horiz-adv-x="487" />
<glyph unicode="!" horiz-adv-x="516" d="M123 121q0 57 38 93t97 36t97 -36t38 -93q0 -58 -38 -95.5t-97 -37.5t-97 37.5t-38 95.5zM147 1446h222l-39 -1028h-144z" />
<glyph unicode="&#x22;" horiz-adv-x="808" d="M123 889v612h172v-612h-172zM514 889v612h172v-612h-172z" />
<glyph unicode="#" horiz-adv-x="1413" d="M41 369v155h293l84 383h-262v156h295l84 383h167l-84 -383h324l84 383h168l-84 -383h262v-156h-295l-84 -383h264v-155h-299l-79 -369h-168l80 369h-324l-80 -369h-168l80 369h-258zM502 524h323l84 383h-323z" />
<glyph unicode="$" horiz-adv-x="1173" d="M70 291l170 86q66 -176 272 -211v475q-72 17 -125.5 35.5t-108 51t-88.5 74t-55.5 104.5t-21.5 143q0 194 122 303.5t318 115.5v162h139v-172q124 -23 215.5 -92.5t141.5 -177.5l-172 -90q-62 129 -185 170v-465q91 -20 159 -48.5t125 -74.5t86.5 -116.5t29.5 -164.5 q0 -194 -116 -301t-325 -118v-164h-139v166q-167 19 -281 98.5t-161 210.5zM315 1053q0 -56 14 -94t46.5 -63t72.5 -39t105 -28v457q-110 -6 -174 -67.5t-64 -165.5zM651 162q116 9 177 68.5t61 168.5q0 96 -52.5 139t-185.5 74v-450z" />
<glyph unicode="%" horiz-adv-x="2043" d="M61 1022q0 213 104 329.5t273 116.5q171 0 273 -116.5t102 -329.5q0 -211 -103 -330t-272 -119t-273 118t-104 331zM238 1022q0 -134 54 -213.5t146 -79.5q91 0 145 79.5t54 213.5q0 133 -54 212t-145 79q-92 0 -146 -78.5t-54 -212.5zM506 0l848 1446h184l-848 -1446 h-184zM1231 426q0 213 104 329.5t273 116.5q171 0 272.5 -116.5t101.5 -329.5q0 -211 -102.5 -330t-271.5 -119t-273 118t-104 331zM1407 426q0 -134 54.5 -213.5t146.5 -79.5q91 0 144.5 79.5t53.5 213.5q0 133 -53.5 212t-144.5 79q-92 0 -146.5 -78.5t-54.5 -212.5z" />
<glyph unicode="&#x26;" horiz-adv-x="1423" d="M117 379q0 78 26 143.5t75.5 116.5t101.5 87.5t124 74.5q-77 90 -117 168.5t-40 165.5q0 149 106.5 241t272.5 92q158 0 264 -93.5t106 -233.5q0 -70 -25 -127.5t-75.5 -103.5t-99 -77t-123.5 -69l342 -361q93 161 96 375h188q-15 -299 -159 -506l166 -176l-127 -119 l-156 164q-188 -164 -451 -164q-138 0 -249 46t-178.5 138.5t-67.5 217.5zM307 393q0 -119 90.5 -183.5t227.5 -64.5q181 0 321 121l-395 418q-116 -61 -180 -128t-64 -163zM473 1124q0 -57 31.5 -112.5t99.5 -130.5q48 25 79.5 42.5t67 42.5t56 48t34 53t13.5 63 q0 75 -53 125t-133 50q-83 0 -139 -52t-56 -129z" />
<glyph unicode="'" horiz-adv-x="417" d="M123 889v612h172v-612h-172z" />
<glyph unicode="(" horiz-adv-x="720" d="M106 580q0 304 136 538t374 361l84 -148q-190 -99 -297.5 -296.5t-107.5 -454.5q0 -258 107.5 -457.5t297.5 -296.5l-84 -148q-238 128 -374 363t-136 539z" />
<glyph unicode=")" horiz-adv-x="720" d="M20 -174q190 97 298 296.5t108 457.5q0 256 -108 454t-298 297l84 148q238 -127 374 -361t136 -538t-136 -539t-374 -363z" />
<glyph unicode="*" horiz-adv-x="933" d="M72 973l301 129l-301 129l82 141l266 -190l-35 319h164l-35 -319l266 190l82 -141l-301 -129l301 -131l-82 -142l-266 193l35 -320h-164l35 320l-266 -193z" />
<glyph unicode="+" horiz-adv-x="1146" d="M102 555v172h383v395h177v-395h382v-172h-382v-395h-177v395h-383z" />
<glyph unicode="," horiz-adv-x="516" d="M115 -299l67 612h219l-139 -612h-147z" />
<glyph unicode="-" horiz-adv-x="966" d="M123 428v172h721v-172h-721z" />
<glyph unicode="." horiz-adv-x="516" d="M123 121q0 57 38 93t97 36t97 -36t38 -93q0 -58 -38 -95.5t-97 -37.5t-97 37.5t-38 95.5z" />
<glyph unicode="/" horiz-adv-x="702" d="M-53 -258l561 1759h180l-561 -1759h-180z" />
<glyph unicode="0" horiz-adv-x="1474" d="M113 723q0 355 171.5 550t452.5 195q137 0 251.5 -49t198 -141.5t129.5 -234.5t46 -320q0 -171 -46.5 -312t-129 -236t-198 -146.5t-251.5 -51.5t-251 51.5t-197.5 146.5t-129 236t-46.5 312zM309 723q0 -266 117 -416.5t311 -150.5t311 150.5t117 416.5 q0 278 -115.5 422.5t-312.5 144.5t-312.5 -144.5t-115.5 -422.5z" />
<glyph unicode="1" horiz-adv-x="819" d="M45 1208l543 252h53v-1460h-190v1212l-347 -159z" />
<glyph unicode="2" horiz-adv-x="1210" d="M72 1186q49 127 182.5 204.5t323.5 77.5q227 0 352 -109.5t125 -285.5q0 -60 -12.5 -116.5t-30.5 -104.5t-56 -102.5t-71.5 -96t-95 -101.5t-109 -103.5t-129.5 -116.5l-178 -158h723v-174h-1004v150l246 225q231 212 284 264q165 166 212 285q24 63 24 127 q0 108 -74.5 173.5t-214.5 65.5q-264 0 -344 -205z" />
<glyph unicode="3" horiz-adv-x="1222" d="M61 276l164 95q41 -104 135 -160.5t224 -56.5q156 0 248 79t92 213q0 135 -100.5 210t-266.5 75q-99 0 -172 -31l-90 119l463 453h-594v174h897v-135l-469 -420h10q246 0 382 -116.5t136 -330.5q0 -222 -142 -344.5t-386 -122.5q-195 0 -333.5 78t-197.5 221z" />
<glyph unicode="4" horiz-adv-x="1271" d="M82 303v137l453 1006h208l-442 -977h514v395h182v-395h213v-166h-213v-303h-182v303h-733z" />
<glyph unicode="5" horiz-adv-x="1222" d="M57 276l164 95q41 -105 136 -161t231 -56q155 0 245.5 81.5t90.5 225.5q0 150 -95 226.5t-264 76.5q-95 0 -169.5 -27.5t-162.5 -95.5l-102 27l68 778h870v-174h-698l-35 -393q115 59 274 59q237 0 373.5 -123.5t136.5 -355.5q0 -231 -141 -356.5t-383 -125.5 q-200 0 -340 78t-199 221z" />
<glyph unicode="6" horiz-adv-x="1329" d="M123 504q0 106 29.5 210t77.5 194t127 190.5t159 185t193 191.5l184 -76q-131 -131 -179.5 -180.5t-127 -139t-133.5 -168.5q121 72 272 72q221 0 361.5 -140.5t140.5 -357.5t-153.5 -362.5t-397.5 -145.5q-166 0 -293 69t-193.5 188.5t-66.5 269.5zM319 475 q0 -129 98.5 -224t256.5 -95q159 0 257.5 97t98.5 236q0 140 -98 232t-252 92q-162 0 -261.5 -99t-99.5 -239z" />
<glyph unicode="7" horiz-adv-x="1124" d="M92 1272v174h971v-137l-637 -1309h-211l621 1272h-744z" />
<glyph unicode="8" horiz-adv-x="1271" d="M92 403q0 129 66.5 224t187.5 145q-98 48 -150.5 128t-52.5 185q0 174 131.5 277.5t360.5 103.5q230 0 360.5 -103t130.5 -278q0 -105 -52.5 -185t-149.5 -128q122 -50 189 -145t67 -224q0 -196 -144.5 -309.5t-400.5 -113.5q-255 0 -399 113.5t-144 309.5zM289 416 q0 -120 92 -189t254 -69q163 0 255.5 69.5t92.5 188.5q0 120 -93 190t-255 70q-163 0 -254.5 -69.5t-91.5 -190.5zM336 1069q0 -100 79 -157.5t218 -57.5q141 0 221 57.5t80 157.5q0 99 -80 159t-219 60q-138 0 -218.5 -60t-80.5 -159z" />
<glyph unicode="9" horiz-adv-x="1329" d="M102 961q0 217 153.5 362t397.5 145q251 0 402 -148t151 -378q0 -106 -29.5 -210t-77.5 -194t-126.5 -190.5t-159 -185t-192.5 -191.5l-185 76q221 221 293 302q85 95 148 186q-121 -72 -273 -72q-221 0 -361.5 140.5t-140.5 357.5zM299 956q0 -140 98 -231.5t252 -91.5 q162 0 261.5 99t99.5 239q0 129 -98.5 224t-256.5 95t-257 -97.5t-99 -236.5z" />
<glyph unicode=":" horiz-adv-x="516" d="M123 121q0 57 38 93t97 36t97 -36t38 -93q0 -58 -38 -95.5t-97 -37.5t-97 37.5t-38 95.5zM123 913q0 57 38 93t97 36t97 -36t38 -93q0 -58 -38 -95.5t-97 -37.5t-97 37.5t-38 95.5z" />
<glyph unicode=";" horiz-adv-x="532" d="M115 -299l67 612h219l-139 -612h-147zM123 913q0 57 38 93t97 36t97 -36t38 -93q0 -58 -38 -95.5t-97 -37.5t-97 37.5t-38 95.5z" />
<glyph unicode="&#x3c;" horiz-adv-x="1044" d="M82 559v164l860 385v-188l-631 -279l631 -279v-188z" />
<glyph unicode="=" horiz-adv-x="1105" d="M102 299v172h902v-172h-902zM102 809v172h902v-172h-902z" />
<glyph unicode="&#x3e;" horiz-adv-x="1044" d="M102 174v188l631 279l-631 279v188l861 -385v-164z" />
<glyph unicode="?" horiz-adv-x="1030" d="M31 1157q54 151 178 230t283 79q118 0 218.5 -42.5t165 -131t64.5 -207.5q0 -66 -21 -126.5t-54 -106.5t-73 -89.5t-80.5 -83.5t-73.5 -79.5t-54 -86t-21 -95.5h-162q0 86 35 163t84.5 133t99 109.5t84.5 115.5t35 128q0 99 -71 161t-189 62q-99 0 -174.5 -54 t-103.5 -144zM360 121q0 57 38.5 93t97.5 36t97 -36t38 -93q0 -58 -38 -95.5t-97 -37.5t-97.5 37.5t-38.5 95.5z" />
<glyph unicode="@" horiz-adv-x="1736" d="M86 522q0 168 59.5 313t164 248t253 161.5t320.5 58.5q170 0 314 -56.5t243.5 -156.5t155 -239.5t55.5 -301.5q0 -196 -97 -315t-251 -119q-109 0 -183 53.5t-96 146.5q-69 -104 -197 -104q-121 0 -205.5 92t-84.5 232t81 230.5t197 90.5q127 0 191 -104v90h172v-398 q0 -184 120 -184q90 0 133.5 77.5t43.5 211.5q0 259 -164 422.5t-428 163.5q-175 0 -316.5 -77t-223 -217.5t-81.5 -318.5q0 -177 86 -318.5t232.5 -218.5t324.5 -77q198 0 332 80l61 -158q-75 -40 -180.5 -63t-212.5 -23q-234 0 -421.5 100t-292.5 277.5t-105 400.5z M713 535q0 -74 39.5 -121t109.5 -47q67 0 107.5 47t40.5 121t-40.5 120.5t-107.5 46.5q-69 0 -109 -46.5t-40 -120.5z" />
<glyph unicode="A" horiz-adv-x="1333" d="M16 0l541 1446h221l539 -1446h-209l-129 350h-625l-129 -350h-209zM420 532h493l-247 691z" />
<glyph unicode="B" horiz-adv-x="1259" d="M178 0v1446h486q121 0 210.5 -27t142.5 -76.5t78 -114t25 -145.5q0 -127 -66.5 -216.5t-189.5 -127.5q152 -30 227.5 -114.5t75.5 -233.5q0 -391 -485 -391h-504zM375 180h270q178 0 249 51.5t71 174.5q0 129 -77.5 179t-244.5 50h-268v-455zM375 815h248q142 0 218.5 53 t76.5 183q0 118 -65.5 166.5t-229.5 48.5h-248v-451z" />
<glyph unicode="C" horiz-adv-x="1560" d="M115 723q0 161 57 300.5t156 236.5t234.5 152.5t289.5 55.5q210 0 378.5 -98.5t244.5 -269.5l-185 -88q-46 128 -166 201t-272 73q-111 0 -209.5 -41.5t-170.5 -115t-113.5 -179t-41.5 -227.5q0 -247 155.5 -405t391.5 -158q161 0 284 76.5t175 226.5l184 -80 q-77 -197 -249.5 -301.5t-393.5 -104.5q-212 0 -383 94.5t-268.5 265.5t-97.5 386z" />
<glyph unicode="D" horiz-adv-x="1478" d="M178 0v1446h455q178 0 318 -53.5t230 -150.5t136.5 -228.5t46.5 -290.5t-44.5 -290t-131.5 -228t-224.5 -151t-314.5 -54h-471zM375 180h278q132 0 231 40.5t158.5 114.5t89 171.5t29.5 216.5t-31.5 217t-94 171.5t-164 114t-234.5 40.5h-262v-1086z" />
<glyph unicode="E" horiz-adv-x="1157" d="M178 0v1446h858v-180h-661v-451h577v-180h-577v-455h680v-180h-877z" />
<glyph unicode="F" horiz-adv-x="1097" d="M178 0v1446h838v-180h-641v-451h575v-180h-575v-635h-197z" />
<glyph unicode="G" horiz-adv-x="1650" d="M115 723q0 161 57 300.5t156 236.5t234.5 152.5t289.5 55.5q210 0 378.5 -98.5t244.5 -269.5l-185 -88q-46 128 -166 201t-272 73q-111 0 -209.5 -41.5t-170.5 -115t-113.5 -179t-41.5 -227.5q0 -249 155 -406t400 -157q206 0 331.5 113.5t160.5 308.5h-512v180h717v-41 q0 -340 -186.5 -542t-510.5 -202q-218 0 -390.5 94.5t-269.5 265t-97 386.5z" />
<glyph unicode="H" horiz-adv-x="1472" d="M178 0v1446h197v-631h723v631h196v-1446h-196v635h-723v-635h-197z" />
<glyph unicode="I" horiz-adv-x="573" d="M188 0v1446h197v-1446h-197z" />
<glyph unicode="J" horiz-adv-x="1101" d="M59 291l168 86q41 -110 111 -163.5t184 -53.5q74 0 122 23t73.5 71t35 107.5t9.5 148.5v936h196v-932q0 -96 -10 -171t-38 -146t-74.5 -117.5t-123.5 -74.5t-180 -28q-361 0 -473 314z" />
<glyph unicode="K" horiz-adv-x="1318" d="M178 0v1446h197v-666l598 666h256l-621 -690l680 -756h-262l-651 723v-723h-197z" />
<glyph unicode="L" horiz-adv-x="1114" d="M178 0v1446h197v-1266h674v-180h-871z" />
<glyph unicode="M" horiz-adv-x="1800" d="M178 0v1446h199l524 -991l520 991h201v-1446h-197v1051l-454 -856h-142l-454 856v-1051h-197z" />
<glyph unicode="N" horiz-adv-x="1488" d="M178 0v1446h180l756 -1084v1084h197v-1446h-181l-755 1083v-1083h-197z" />
<glyph unicode="O" horiz-adv-x="1724" d="M115 723q0 215 99 386t269.5 265t378.5 94q156 0 294 -55.5t238 -152.5t158 -236.5t58 -300.5t-58 -300.5t-158 -237t-238 -153t-294 -55.5t-293.5 55.5t-237.5 153t-158 237t-58 300.5zM317 723q0 -122 42.5 -227.5t115.5 -179t173.5 -115t213.5 -41.5t213.5 41.5 t173.5 115t115.5 179t42.5 227.5t-42.5 227.5t-115.5 179t-173.5 115t-213.5 41.5t-213.5 -41.5t-173.5 -115t-115.5 -179t-42.5 -227.5z" />
<glyph unicode="P" horiz-adv-x="1232" d="M178 0v1446h510q459 0 459 -430q0 -218 -123 -333.5t-344 -115.5h-305v-567h-197zM375 748h270q155 0 227 56.5t72 211.5q0 142 -64.5 196t-232.5 54h-272v-518z" />
<glyph unicode="Q" horiz-adv-x="1724" d="M115 723q0 215 99 386t269.5 265t378.5 94q156 0 294 -55.5t238 -152.5t158 -236.5t58 -300.5q0 -265 -150 -461l146 -196l-152 -113l-125 176q-201 -152 -467 -152q-156 0 -293.5 55.5t-237.5 153t-158 237t-58 300.5zM317 723q0 -122 42.5 -227.5t115.5 -179 t173.5 -115t213.5 -41.5q193 0 334 110l-283 377l152 111l256 -348q86 138 86 313q0 122 -42.5 227.5t-115.5 179t-173.5 115t-213.5 41.5t-213.5 -41.5t-173.5 -115t-115.5 -179t-42.5 -227.5z" />
<glyph unicode="R" horiz-adv-x="1310" d="M178 0v1446h492q458 0 458 -420q0 -172 -81.5 -275.5t-233.5 -129.5l467 -621h-244l-440 588h-221v-588h-197zM375 768h252q57 0 98.5 5.5t81.5 22t64.5 45t39.5 75t15 110.5q0 74 -17.5 121.5t-56.5 73.5t-91 35.5t-132 9.5h-254v-498z" />
<glyph unicode="S" horiz-adv-x="1173" d="M70 291l170 86q40 -105 133 -161t229 -56q139 0 213 59.5t74 179.5q0 45 -12.5 78t-33.5 55.5t-63.5 40t-87 29.5t-119.5 27q-58 12 -102 23t-94.5 29.5t-86.5 39.5t-71.5 52.5t-57 70t-35 90.5t-13.5 115q0 199 128 309t332 110q167 0 291.5 -73.5t184.5 -206.5 l-172 -90q-43 92 -119.5 140t-179.5 48q-122 0 -192.5 -61t-70.5 -172q0 -38 7.5 -67.5t19 -51t36 -39t46 -28.5t62.5 -22t72.5 -17.5t88.5 -16.5q102 -18 176.5 -45.5t138.5 -74t97 -120t33 -172.5q0 -204 -129 -313t-359 -109q-201 0 -340.5 82.5t-193.5 231.5z" />
<glyph unicode="T" horiz-adv-x="1204" d="M66 1266v180h1073v-180h-439v-1266h-196v1266h-438z" />
<glyph unicode="U" horiz-adv-x="1421" d="M143 592v854h197v-846q0 -224 84.5 -332t286.5 -108t286 108t84 332v846h197v-854q0 -615 -567 -615q-568 0 -568 615z" />
<glyph unicode="V" horiz-adv-x="1284" d="M16 1446h209l418 -1206l416 1206h209l-514 -1446h-222z" />
<glyph unicode="W" horiz-adv-x="1953" d="M16 1446h205l307 -1186l346 1186h203l348 -1186l308 1186h204l-401 -1446h-209l-350 1153l-350 -1153h-209z" />
<glyph unicode="X" horiz-adv-x="1284" d="M31 0l481 750l-442 696h233l338 -545l340 545h233l-442 -694l481 -752h-233l-379 604l-377 -604h-233z" />
<glyph unicode="Y" horiz-adv-x="1224" d="M8 1446h228l376 -682l377 682h228l-508 -889v-557h-197v559z" />
<glyph unicode="Z" horiz-adv-x="1165" d="M80 0v152l743 1114h-717v180h971v-150l-743 -1116h788v-180h-1042z" />
<glyph unicode="[" horiz-adv-x="686" d="M172 -301v1747h473v-166h-289v-1415h289v-166h-473z" />
<glyph unicode="\" horiz-adv-x="702" d="M14 1501h181l561 -1759h-181z" />
<glyph unicode="]" horiz-adv-x="686" d="M41 -135h289v1415h-289v166h473v-1747h-473v166z" />
<glyph unicode="^" horiz-adv-x="1114" d="M111 774l383 672h127l383 -672h-199l-248 440l-248 -440h-198z" />
<glyph unicode="_" horiz-adv-x="921" d="M-20 -102h962v-172h-962v172z" />
<glyph unicode="`" horiz-adv-x="696" d="M162 1501h211l159 -317h-163z" />
<glyph unicode="a" d="M86 514q0 237 137 387t355 150q127 0 220 -53.5t144 -147.5v178h184v-1028h-184v178q-52 -92 -146 -146.5t-221 -54.5q-215 0 -352 150.5t-137 386.5zM274 514q0 -163 94 -266t242 -103q143 0 237.5 102t94.5 267t-94.5 267t-237.5 102q-148 0 -242 -103t-94 -266z" />
<glyph unicode="b" horiz-adv-x="1277" d="M152 0v1501h184v-651q51 94 144 147.5t220 53.5q218 0 355 -150t137 -387q0 -236 -137.5 -386.5t-352.5 -150.5q-127 0 -220.5 54.5t-145.5 146.5v-178h-184zM336 514q0 -165 94.5 -267t237.5 -102q148 0 242 103t94 266t-94 266t-242 103q-143 0 -237.5 -102t-94.5 -267 z" />
<glyph unicode="c" horiz-adv-x="1118" d="M86 514q0 155 71 278t193 191t271 68t266.5 -67.5t179.5 -192.5l-168 -78q-41 80 -114.5 125t-163.5 45q-148 0 -247.5 -104t-99.5 -265t99.5 -265t247.5 -104q97 0 174 46.5t118 138.5l170 -74q-60 -138 -185.5 -208.5t-276.5 -70.5q-149 0 -271 68t-193 191t-71 278z " />
<glyph unicode="d" d="M86 514q0 237 137 387t355 150q127 0 220 -53.5t144 -147.5v651h184v-1501h-184v178q-52 -92 -146 -146.5t-221 -54.5q-215 0 -352 150.5t-137 386.5zM274 514q0 -163 94 -266t242 -103q143 0 237.5 102t94.5 267t-94.5 267t-237.5 102q-148 0 -242 -103t-94 -266z" />
<glyph unicode="e" horiz-adv-x="1202" d="M86 514q0 235 149 386t377 151t369 -150t141 -387q0 -28 -4 -78h-842q22 -134 117 -212.5t244 -78.5q202 0 289 150l170 -74q-64 -122 -186.5 -183t-276.5 -61q-247 0 -397 149.5t-150 387.5zM279 596h661q-20 132 -105 209.5t-214 77.5q-132 0 -225.5 -79t-116.5 -208z " />
<glyph unicode="f" horiz-adv-x="745" d="M41 862v166h184v105q0 198 90 294.5t279 96.5q65 0 111 -11v-165q-48 10 -103 10q-51 0 -82 -8t-58.5 -33t-39.5 -76t-12 -133v-80h286v-166h-286v-862h-185v862h-184z" />
<glyph unicode="g" d="M86 526q0 231 137 378t355 147q126 0 219.5 -51.5t144.5 -143.5v172h184v-942q0 -237 -136 -373.5t-376 -136.5q-336 0 -464 244l174 74q45 -78 112.5 -114t173.5 -36q162 0 247 83.5t85 248.5v119q-52 -89 -146 -142t-221 -53q-215 0 -352 147t-137 379zM274 526 q0 -158 94 -258t242 -100q143 0 237.5 99t94.5 259q0 159 -94.5 258t-237.5 99q-148 0 -242 -100t-94 -257z" />
<glyph unicode="h" horiz-adv-x="1208" d="M152 0v1501h184v-645q52 99 144.5 147t207.5 48q189 0 289 -111t100 -326v-614h-184v588q0 151 -61.5 224t-190.5 73q-136 0 -220.5 -97t-84.5 -241v-547h-184z" />
<glyph unicode="i" horiz-adv-x="512" d="M131 1350q0 51 35.5 84.5t89.5 33.5t89.5 -33.5t35.5 -84.5q0 -53 -35.5 -88t-89.5 -35t-89.5 35t-35.5 88zM164 0v1028h184v-1028h-184z" />
<glyph unicode="j" horiz-adv-x="512" d="M-96 -250q70 -8 106 -8q55 0 86.5 15.5t49.5 62.5t18 133v1075h184v-1094q0 -358 -325 -358q-71 0 -119 10v164zM131 1350q0 51 35.5 84.5t89.5 33.5t89.5 -33.5t35.5 -84.5q0 -53 -35.5 -88t-89.5 -35t-89.5 35t-35.5 88z" />
<glyph unicode="k" horiz-adv-x="1089" d="M152 0v1501h184v-934l452 461h238l-481 -487l524 -541h-240l-493 512v-512h-184z" />
<glyph unicode="l" horiz-adv-x="512" d="M164 0v1501h184v-1501h-184z" />
<glyph unicode="m" horiz-adv-x="1814" d="M152 0v1028h184v-172q48 99 131 147t188 48q234 0 314 -201q127 201 354 201q177 0 268.5 -110.5t91.5 -326.5v-614h-184v588q0 151 -54.5 224t-166.5 73q-118 0 -193 -90.5t-75 -208.5v-586h-185v588q0 151 -54.5 224t-166.5 73q-120 0 -194 -97t-74 -241v-547h-184z " />
<glyph unicode="n" horiz-adv-x="1198" d="M152 0v1028h184v-172q52 99 143 147t205 48q185 0 284 -111t99 -326v-614h-184v588q0 151 -60.5 224t-185.5 73q-135 0 -218 -97t-83 -241v-547h-184z" />
<glyph unicode="o" horiz-adv-x="1253" d="M86 514q0 155 71.5 278t195 191t274.5 68q231 0 385.5 -151.5t154.5 -385.5t-154.5 -385.5t-385.5 -151.5q-151 0 -274.5 68t-195 191t-71.5 278zM274 514q0 -161 101 -265t252 -104t251.5 104t100.5 265t-100.5 265t-251.5 104t-252 -104t-101 -265z" />
<glyph unicode="p" horiz-adv-x="1277" d="M152 -401v1429h184v-178q51 94 144 147.5t220 53.5q218 0 355 -150t137 -387q0 -236 -137.5 -386.5t-352.5 -150.5q-127 0 -220.5 54.5t-145.5 146.5v-579h-184zM336 514q0 -165 94.5 -267t237.5 -102q148 0 242 103t94 266t-94 266t-242 103q-143 0 -237.5 -102 t-94.5 -267z" />
<glyph unicode="q" d="M86 514q0 237 137 387t355 150q127 0 220 -53.5t144 -147.5v178h184v-1429h-184v579q-52 -92 -146 -146.5t-221 -54.5q-215 0 -352 150.5t-137 386.5zM274 514q0 -163 94 -266t242 -103q143 0 237.5 102t94.5 267t-94.5 267t-237.5 102q-148 0 -242 -103t-94 -266z" />
<glyph unicode="r" horiz-adv-x="770" d="M152 0v1028h184v-190q100 213 348 213q31 0 45 -2v-191q-41 6 -88 6q-136 0 -220.5 -107t-84.5 -268v-489h-184z" />
<glyph unicode="s" horiz-adv-x="972" d="M57 244l170 73q75 -172 295 -172q105 0 154 35.5t49 112.5q0 62 -51 94.5t-195 56.5q-185 31 -277.5 98t-92.5 195q0 79 31.5 141t86 99t123 55.5t148.5 18.5q138 0 240 -55t153 -156l-168 -78q-30 60 -81.5 90.5t-143.5 30.5q-203 0 -203 -135q0 -55 54.5 -87t176.5 -51 q78 -12 134.5 -26.5t106 -38.5t80 -57t47.5 -80t17 -109q0 -160 -101 -241t-292 -81q-173 0 -292.5 72.5t-168.5 194.5z" />
<glyph unicode="t" horiz-adv-x="761" d="M41 862v166h186v279h185v-279h280v-166h-280v-540q0 -94 31 -132t114 -38q77 0 135 20v-168q-18 -8 -69.5 -14t-94.5 -6q-87 0 -148 25t-93 71.5t-46 101t-14 125.5v555h-186z" />
<glyph unicode="u" horiz-adv-x="1177" d="M123 422v606h184v-579q0 -306 252 -306q136 0 213.5 95.5t77.5 242.5v547h184v-1028h-184v172q-102 -195 -338 -195q-187 0 -288 114.5t-101 330.5z" />
<glyph unicode="v" horiz-adv-x="1083" d="M31 1028h205l311 -827l303 827h203l-400 -1028h-207z" />
<glyph unicode="w" horiz-adv-x="1540" d="M31 1028h194l205 -792l248 792h184l248 -795l205 795h194l-299 -1028h-192l-248 768l-250 -768h-192z" />
<glyph unicode="x" horiz-adv-x="1060" d="M20 0l383 532l-368 496h229l264 -377l263 377h229l-367 -493l387 -535h-227l-285 408l-280 -408h-228z" />
<glyph unicode="y" horiz-adv-x="1083" d="M33 1028h205l313 -815l299 815h203l-547 -1429h-205l164 391z" />
<glyph unicode="z" horiz-adv-x="991" d="M98 0v125l535 737h-531v166h781v-125l-533 -737h568v-166h-820z" />
<glyph unicode="{" horiz-adv-x="759" d="M14 492v159h39q80 0 120 43.5t40 122.5v336q0 136 77 214.5t214 78.5h215v-166h-174q-67 0 -107.5 -41.5t-40.5 -110.5v-301q0 -206 -172 -258q172 -49 172 -256v-297q0 -69 40 -110t108 -41h174v-166h-215q-137 0 -214 78.5t-77 214.5v332q0 79 -40 123.5t-120 44.5h-39 z" />
<glyph unicode="|" horiz-adv-x="561" d="M193 -401v2048h176v-2048h-176z" />
<glyph unicode="}" horiz-adv-x="759" d="M41 -135h174q67 0 107 41t40 110v297q0 207 173 256q-173 52 -173 258v301q0 69 -40 110.5t-107 41.5h-174v166h215q137 0 214 -78.5t77 -214.5v-336q0 -79 40 -122.5t120 -43.5h38v-159h-38q-80 0 -120 -44.5t-40 -123.5v-332q0 -136 -77 -214.5t-214 -78.5h-215v166z " />
<glyph unicode="~" horiz-adv-x="1220" d="M123 545q26 122 107 188t194 66q52 0 108 -21t96 -46.5t88 -46.5t87 -21q75 0 112 35t66 102l117 -64q-27 -122 -107.5 -187t-195.5 -65q-52 0 -108 21.5t-95.5 47.5t-87 47.5t-86.5 21.5q-71 0 -111 -37t-69 -105z" />
<glyph unicode="&#xa1;" horiz-adv-x="516" d="M123 924q0 58 38 95.5t97 37.5t97 -37.5t38 -95.5q0 -57 -38 -93t-97 -36t-97 36t-38 93zM147 -401l39 1028h144l39 -1028h-222z" />
<glyph unicode="&#xa2;" horiz-adv-x="1118" d="M86 725q0 155 71 278t193 191t271 68q36 0 90 -7l61 191h137l-73 -225q154 -66 231 -220l-168 -77q-43 82 -119 127l-225 -689q30 -6 66 -6q97 0 174 46.5t118 138.5l170 -74q-60 -138 -185.5 -208.5t-276.5 -70.5q-56 0 -119 13l-64 -197h-137l78 238 q-135 64 -214 191.5t-79 291.5zM274 725q0 -102 43 -184.5t117 -130.5l223 682q-12 2 -36 2q-148 0 -247.5 -104t-99.5 -265z" />
<glyph unicode="&#xa3;" horiz-adv-x="1220" d="M78 0v180h184v414h-164v166h164v172q0 247 121 391.5t334 144.5q155 0 267.5 -76t158.5 -208l-146 -99q-36 99 -97.5 150t-168.5 51q-272 0 -272 -350v-176h463v-166h-463v-414h696v-180h-1077z" />
<glyph unicode="&#xa4;" horiz-adv-x="1171" d="M70 322l141 141q-78 115 -78 258q0 145 78 260l-141 143l114 115l146 -143q110 69 254 69t258 -71l145 145l115 -115l-144 -143q76 -115 76 -260q0 -144 -76 -256l144 -143l-115 -115l-143 143q-113 -74 -260 -74q-141 0 -256 72l-144 -141zM309 721q0 -120 76 -200.5 t199 -80.5q126 0 200 80t74 201t-74 200.5t-200 79.5q-123 0 -199 -80t-76 -200z" />
<glyph unicode="&#xa5;" horiz-adv-x="1224" d="M8 1446h228l376 -682l377 682h228l-392 -686h230v-148h-316l-30 -55v-125h346v-147h-346v-285h-197v285h-342v147h342v127l-31 53h-311v148h227z" />
<glyph unicode="&#xa6;" horiz-adv-x="561" d="M193 -401v819h176v-819h-176zM193 827v820h176v-820h-176z" />
<glyph unicode="&#xa7;" horiz-adv-x="1122" d="M115 -4l170 74q75 -172 284 -172q114 0 179 48.5t65 131.5q0 84 -65 125t-211 76q-68 16 -116 31.5t-101 42.5t-85 60.5t-53.5 85.5t-21.5 117q0 93 41.5 168.5t120.5 120.5q-160 92 -160 275q0 154 104 249t285 95q151 0 261 -63.5t146 -164.5l-159 -75 q-79 137 -240 137q-96 0 -153.5 -49t-57.5 -133q0 -37 14 -65t34 -46t59.5 -34.5t73 -26t92.5 -23.5q70 -17 121 -34t101 -44.5t81 -62t50 -85.5t19 -116q0 -195 -168 -277q174 -90 174 -278q0 -163 -111 -258.5t-308 -95.5q-180 0 -298 71.5t-167 194.5zM340 643 q0 -51 14.5 -85t51.5 -58t85.5 -39.5t129.5 -32.5q96 12 143 60.5t47 127.5q0 89 -60 136t-219 79q-7 1 -20 4.5t-20 4.5q-68 -18 -110 -74t-42 -123z" />
<glyph unicode="&#xa8;" horiz-adv-x="696" d="M37 1350q0 50 34.5 83t86.5 33t86.5 -33t34.5 -83q0 -51 -34.5 -86t-86.5 -35t-86.5 35t-34.5 86zM418 1350q0 48 35 82t86 34t85.5 -34t34.5 -82q0 -50 -34.5 -85.5t-85.5 -35.5t-86 35.5t-35 85.5z" />
<glyph unicode="&#xa9;" horiz-adv-x="1728" d="M115 723q0 160 56.5 298.5t155 236.5t238 154t299.5 56q214 0 385.5 -95.5t268 -266t96.5 -383.5t-96.5 -383.5t-268 -266.5t-385.5 -96t-385.5 96t-267.5 266.5t-96 383.5zM260 723q0 -174 77.5 -312.5t215.5 -216t311 -77.5t311 77.5t215.5 216t77.5 312.5t-77.5 312.5 t-215.5 216t-311 77.5t-311 -77.5t-215.5 -216t-77.5 -312.5zM481 719q0 175 113.5 286t284.5 111q114 0 204 -51t134 -141l-150 -76q-27 53 -76 84t-110 31q-98 0 -163 -69t-65 -175q0 -107 65.5 -175.5t164.5 -68.5q138 0 194 129l150 -76q-42 -103 -134.5 -154.5 t-209.5 -51.5q-174 0 -288 111t-114 286z" />
<glyph unicode="&#xaa;" horiz-adv-x="864" d="M66 1118q0 147 95 243.5t238 96.5q79 0 135.5 -30t88.5 -72v90h151v-658h-151v93q-83 -103 -224 -103q-144 0 -238.5 96.5t-94.5 243.5zM231 1118q0 -90 54.5 -147.5t144.5 -57.5q89 0 143 57t54 148t-54 148t-143 57q-90 0 -144.5 -57t-54.5 -148z" />
<glyph unicode="&#xab;" horiz-adv-x="1097" d="M57 506l324 477l141 -98l-258 -379l258 -377l-141 -98zM555 506l324 477l141 -98l-258 -379l258 -377l-141 -98z" />
<glyph unicode="&#xac;" horiz-adv-x="1083" d="M102 698v172h879v-471h-184v299h-695z" />
<glyph unicode="&#xad;" horiz-adv-x="966" d="M123 428v172h721v-172h-721z" />
<glyph unicode="&#xae;" horiz-adv-x="1058" d="M78 1022q0 195 125.5 320.5t326.5 125.5t326 -125.5t125 -320.5q0 -196 -125.5 -321.5t-325.5 -125.5q-201 0 -326.5 125.5t-125.5 321.5zM145 1022q0 -167 107.5 -276t277.5 -109q169 0 276 109t107 276q0 166 -106.5 275.5t-276.5 109.5t-277.5 -109.5t-107.5 -275.5z M354 788v472h205q77 0 116.5 -39t39.5 -105q0 -98 -88 -125l125 -203h-121l-101 175h-77v-175h-99zM453 1040h79q37 0 58.5 19t21.5 53q0 33 -20.5 51.5t-56.5 18.5h-82v-142z" />
<glyph unicode="&#xaf;" horiz-adv-x="696" d="M72 1268v149h553v-149h-553z" />
<glyph unicode="&#xb0;" horiz-adv-x="892" d="M78 1169q0 152 105.5 253.5t265.5 101.5q158 0 262 -101t104 -254q0 -152 -104 -252t-262 -100q-161 0 -266 100t-105 252zM248 1171q0 -85 56 -140.5t145 -55.5q87 0 141.5 55t54.5 139t-54.5 140.5t-141.5 56.5q-88 0 -144.5 -55.5t-56.5 -139.5z" />
<glyph unicode="&#xb1;" horiz-adv-x="1146" d="M102 0v172h942v-172h-942zM102 739v172h383v396h177v-396h382v-172h-382v-395h-177v395h-383z" />
<glyph unicode="&#xb2;" horiz-adv-x="737" d="M35 1483q32 71 118.5 117.5t200.5 46.5q138 0 218.5 -67t80.5 -189q0 -95 -54 -172.5t-185 -190.5l-115 -98h377v-156h-625v119l191 172q131 116 184 182t53 135q0 109 -131 109q-124 0 -174 -102z" />
<glyph unicode="&#xb3;" horiz-adv-x="747" d="M33 899l114 111q27 -45 83 -74t124 -29q70 0 113 38.5t43 103.5q0 69 -43.5 109t-116.5 40q-67 0 -98 -16l-55 75l227 216h-340v151h561v-121l-201 -196q108 -15 173 -91t65 -184q0 -133 -87 -206.5t-228 -73.5q-122 0 -207.5 41t-126.5 106z" />
<glyph unicode="&#xb4;" horiz-adv-x="696" d="M162 1184l160 317h210l-206 -317h-164z" />
<glyph unicode="&#xb5;" horiz-adv-x="1161" d="M106 -401v1429h185v-579q0 -306 252 -306q136 0 213.5 95.5t77.5 242.5v547h184v-1028h-184v172q-94 -195 -314 -195q-147 0 -229 82v-460h-185z" />
<glyph unicode="&#xb6;" horiz-adv-x="964" d="M86 1057q0 179 124 284t335 105h231v-1847h-184v1050h-39q-215 0 -341 110t-126 298z" />
<glyph unicode="&#xb7;" horiz-adv-x="516" d="M123 516q0 57 38 93t97 36t97 -36t38 -93q0 -58 -38 -95.5t-97 -37.5t-97 37.5t-38 95.5z" />
<glyph unicode="&#xb8;" horiz-adv-x="696" d="M127 -313q108 -31 178 -31q94 0 94 72q0 36 -30.5 54.5t-116.5 18.5h-39v213h147v-114q95 -11 152 -59.5t57 -127.5q0 -93 -65.5 -145.5t-190.5 -52.5q-91 0 -186 28v144z" />
<glyph unicode="&#xb9;" horiz-adv-x="589" d="M29 1491l368 143h58v-860h-168v653l-207 -79z" />
<glyph unicode="&#xba;" horiz-adv-x="845" d="M66 1118q0 155 98 247.5t260 92.5t259 -93.5t97 -246.5q0 -154 -97 -248t-259 -94t-260 94t-98 248zM231 1118q0 -86 54 -140t139 -54q86 0 138 53.5t52 140.5t-52 140t-138 53t-139.5 -53.5t-53.5 -139.5z" />
<glyph unicode="&#xbb;" horiz-adv-x="1097" d="M78 129l258 377l-258 379l141 98l324 -477l-324 -475zM575 129l259 377l-259 379l142 98l323 -477l-323 -475z" />
<glyph unicode="&#xbc;" horiz-adv-x="1708" d="M29 1313l368 143h58v-860h-168v653l-207 -80zM283 0l847 1446h185l-848 -1446h-184zM958 158v135l248 557h178l-243 -555h266v252h154v-252h104v-137h-104v-158h-154v158h-449z" />
<glyph unicode="&#xbd;" horiz-adv-x="1744" d="M29 1313l368 143h58v-860h-168v653l-207 -80zM283 0l847 1446h185l-848 -1446h-184zM1042 709q32 71 119 117t201 46q138 0 218.5 -67t80.5 -189q0 -95 -54 -172t-186 -190l-114 -98h376v-156h-624v119l190 172q89 79 132.5 122.5t74.5 95t31 99.5q0 109 -131 109 q-124 0 -174 -103z" />
<glyph unicode="&#xbe;" horiz-adv-x="1835" d="M33 721l114 110q27 -45 83 -73.5t124 -28.5q70 0 113 38t43 103q0 69 -44 109.5t-116 40.5q-67 0 -98 -16l-55 75l227 215h-340v152h561v-121l-201 -197q108 -15 173 -90.5t65 -183.5q0 -133 -87 -207t-228 -74q-122 0 -207 41.5t-127 106.5zM410 0l847 1446h185 l-848 -1446h-184zM1085 158v135l248 557h178l-243 -555h266v252h154v-252h104v-137h-104v-158h-154v158h-449z" />
<glyph unicode="&#xbf;" horiz-adv-x="968" d="M90 -43q0 66 21 126.5t54 107t73 89.5t80.5 83.5t73.5 80t54 86t21 95.5h162q0 -86 -35 -163t-84.5 -133.5t-99 -109.5t-84.5 -115.5t-35 -128.5q0 -99 71 -161t189 -62q99 0 174.5 54.5t103.5 144.5l170 -66q-54 -151 -177.5 -230t-282.5 -79q-119 0 -219 42.5t-165 131 t-65 207.5zM399 922q0 58 38.5 95.5t97.5 37.5t97 -37.5t38 -95.5q0 -57 -38 -93t-97 -36t-97.5 36t-38.5 93z" />
<glyph unicode="&#xc0;" horiz-adv-x="1333" d="M16 0l541 1446h221l539 -1446h-209l-129 350h-625l-129 -350h-209zM371 1866h217l164 -301h-166zM420 532h493l-247 691z" />
<glyph unicode="&#xc1;" horiz-adv-x="1333" d="M16 0l541 1446h221l539 -1446h-209l-129 350h-625l-129 -350h-209zM420 532h493l-247 691zM584 1565l164 301h217l-215 -301h-166z" />
<glyph unicode="&#xc2;" horiz-adv-x="1333" d="M16 0l541 1446h221l539 -1446h-209l-129 350h-625l-129 -350h-209zM344 1565l250 301h149l248 -301h-174l-147 178l-150 -178h-176zM420 532h493l-247 691z" />
<glyph unicode="&#xc3;" horiz-adv-x="1333" d="M16 0l541 1446h221l539 -1446h-209l-129 350h-625l-129 -350h-209zM340 1577q0 120 54.5 190t144.5 70q44 0 83.5 -19t63.5 -42.5t51.5 -42.5t50.5 -19q60 0 60 115h147q0 -121 -53 -190.5t-143 -69.5q-43 0 -82.5 19t-63 41.5t-51.5 41.5t-51 19q-32 0 -49 -30t-17 -83 h-145zM420 532h493l-247 691z" />
<glyph unicode="&#xc4;" horiz-adv-x="1333" d="M16 0l541 1446h221l539 -1446h-209l-129 350h-625l-129 -350h-209zM356 1714q0 50 34.5 83.5t86.5 33.5t86.5 -33.5t34.5 -83.5q0 -51 -34.5 -86t-86.5 -35t-86.5 35t-34.5 86zM420 532h493l-247 691zM737 1714q0 48 35 82.5t86 34.5t86 -34.5t35 -82.5q0 -50 -35 -85.5 t-86 -35.5t-86 35.5t-35 85.5z" />
<glyph unicode="&#xc5;" horiz-adv-x="1333" d="M16 0l541 1446h221l539 -1446h-209l-129 350h-625l-129 -350h-209zM420 532h493l-247 691zM438 1733q0 95 66 155t166 60t164.5 -60t64.5 -155t-64.5 -155t-164.5 -60q-102 0 -167 60t-65 155zM555 1733q0 -50 32.5 -81.5t80.5 -31.5q50 0 82 31t32 82q0 50 -31.5 81 t-82.5 31q-47 0 -80 -31t-33 -81z" />
<glyph unicode="&#xc6;" horiz-adv-x="1923" d="M16 0l818 1446h968v-180h-661v-451h577v-180h-577v-455h680v-180h-877v338h-516l-192 -338h-220zM530 520h414v746h-6z" />
<glyph unicode="&#xc7;" horiz-adv-x="1560" d="M115 723q0 161 57 300.5t156 236.5t234.5 152.5t289.5 55.5q210 0 378.5 -98.5t244.5 -269.5l-185 -88q-46 128 -166 201t-272 73q-111 0 -209.5 -41.5t-170.5 -115t-113.5 -179t-41.5 -227.5q0 -247 155.5 -405t391.5 -158q161 0 284 76.5t175 226.5l184 -80 q-73 -186 -230.5 -289t-361.5 -114v-80q95 -11 152 -59.5t57 -127.5q0 -93 -65.5 -145.5t-190.5 -52.5q-91 0 -186 28v144q108 -31 178 -31q94 0 94 72q0 36 -30.5 54.5t-116.5 18.5h-39v183q-287 31 -470 234.5t-183 504.5z" />
<glyph unicode="&#xc8;" horiz-adv-x="1157" d="M178 0v1446h858v-180h-661v-451h577v-180h-577v-455h680v-180h-877zM311 1866h217l164 -301h-166z" />
<glyph unicode="&#xc9;" horiz-adv-x="1157" d="M178 0v1446h858v-180h-661v-451h577v-180h-577v-455h680v-180h-877zM524 1565l164 301h217l-215 -301h-166z" />
<glyph unicode="&#xca;" horiz-adv-x="1157" d="M178 0v1446h858v-180h-661v-451h577v-180h-577v-455h680v-180h-877zM285 1565l250 301h149l248 -301h-174l-148 178l-149 -178h-176z" />
<glyph unicode="&#xcb;" horiz-adv-x="1157" d="M178 0v1446h858v-180h-661v-451h577v-180h-577v-455h680v-180h-877zM297 1714q0 50 34.5 83.5t86.5 33.5t86.5 -33.5t34.5 -83.5q0 -51 -34.5 -86t-86.5 -35t-86.5 35t-34.5 86zM678 1714q0 48 35 82.5t86 34.5t86 -34.5t35 -82.5q0 -50 -35 -85.5t-86 -35.5t-86 35.5 t-35 85.5z" />
<glyph unicode="&#xcc;" horiz-adv-x="573" d="M-10 1866h217l164 -301h-166zM188 0v1446h197v-1446h-197z" />
<glyph unicode="&#xcd;" horiz-adv-x="573" d="M188 0v1446h197v-1446h-197zM203 1565l164 301h217l-215 -301h-166z" />
<glyph unicode="&#xce;" horiz-adv-x="573" d="M-37 1565l250 301h149l248 -301h-174l-147 178l-150 -178h-176zM188 0v1446h197v-1446h-197z" />
<glyph unicode="&#xcf;" horiz-adv-x="573" d="M-25 1714q0 50 34.5 83.5t86.5 33.5t86.5 -33.5t34.5 -83.5q0 -51 -34.5 -86t-86.5 -35t-86.5 35t-34.5 86zM188 0v1446h197v-1446h-197zM356 1714q0 48 35 82.5t86 34.5t86 -34.5t35 -82.5q0 -50 -35 -85.5t-86 -35.5t-86 35.5t-35 85.5z" />
<glyph unicode="&#xd0;" horiz-adv-x="1519" d="M-2 637v166h221v643h455q178 0 318 -53.5t230 -150.5t136.5 -228.5t46.5 -290.5t-44.5 -290t-131.5 -228t-224.5 -151t-314.5 -54h-471v637h-221zM416 180h278q132 0 231 40.5t158.5 114.5t89 171.5t29.5 216.5t-31.5 217t-94 171.5t-164 114t-234.5 40.5h-262v-463h399 v-166h-399v-457z" />
<glyph unicode="&#xd1;" horiz-adv-x="1488" d="M178 0v1446h180l756 -1084v1084h197v-1446h-181l-755 1083v-1083h-197zM410 1577q0 120 54 190t144 70q36 0 68.5 -12.5t56 -30.5t44 -36.5t41.5 -31t40 -12.5q60 0 60 115h147q0 -121 -53.5 -190.5t-143.5 -69.5q-43 0 -82 19t-63 41.5t-51.5 41.5t-50.5 19 q-32 0 -49 -30t-17 -83h-145z" />
<glyph unicode="&#xd2;" horiz-adv-x="1724" d="M115 723q0 215 99 386t269.5 265t378.5 94q156 0 294 -55.5t238 -152.5t158 -236.5t58 -300.5t-58 -300.5t-158 -237t-238 -153t-294 -55.5t-293.5 55.5t-237.5 153t-158 237t-58 300.5zM317 723q0 -122 42.5 -227.5t115.5 -179t173.5 -115t213.5 -41.5t213.5 41.5 t173.5 115t115.5 179t42.5 227.5t-42.5 227.5t-115.5 179t-173.5 115t-213.5 41.5t-213.5 -41.5t-173.5 -115t-115.5 -179t-42.5 -227.5zM565 1866h217l164 -301h-166z" />
<glyph unicode="&#xd3;" horiz-adv-x="1724" d="M115 723q0 215 99 386t269.5 265t378.5 94q156 0 294 -55.5t238 -152.5t158 -236.5t58 -300.5t-58 -300.5t-158 -237t-238 -153t-294 -55.5t-293.5 55.5t-237.5 153t-158 237t-58 300.5zM317 723q0 -122 42.5 -227.5t115.5 -179t173.5 -115t213.5 -41.5t213.5 41.5 t173.5 115t115.5 179t42.5 227.5t-42.5 227.5t-115.5 179t-173.5 115t-213.5 41.5t-213.5 -41.5t-173.5 -115t-115.5 -179t-42.5 -227.5zM778 1565l164 301h217l-215 -301h-166z" />
<glyph unicode="&#xd4;" horiz-adv-x="1724" d="M115 723q0 215 99 386t269.5 265t378.5 94q156 0 294 -55.5t238 -152.5t158 -236.5t58 -300.5t-58 -300.5t-158 -237t-238 -153t-294 -55.5t-293.5 55.5t-237.5 153t-158 237t-58 300.5zM317 723q0 -122 42.5 -227.5t115.5 -179t173.5 -115t213.5 -41.5t213.5 41.5 t173.5 115t115.5 179t42.5 227.5t-42.5 227.5t-115.5 179t-173.5 115t-213.5 41.5t-213.5 -41.5t-173.5 -115t-115.5 -179t-42.5 -227.5zM539 1565l249 301h150l248 -301h-174l-148 178l-149 -178h-176z" />
<glyph unicode="&#xd5;" horiz-adv-x="1724" d="M115 723q0 215 99 386t269.5 265t378.5 94q156 0 294 -55.5t238 -152.5t158 -236.5t58 -300.5t-58 -300.5t-158 -237t-238 -153t-294 -55.5t-293.5 55.5t-237.5 153t-158 237t-58 300.5zM317 723q0 -122 42.5 -227.5t115.5 -179t173.5 -115t213.5 -41.5t213.5 41.5 t173.5 115t115.5 179t42.5 227.5t-42.5 227.5t-115.5 179t-173.5 115t-213.5 41.5t-213.5 -41.5t-173.5 -115t-115.5 -179t-42.5 -227.5zM535 1577q0 120 54 190t144 70q36 0 68.5 -12.5t56 -30.5t44 -36.5t41.5 -31t40 -12.5q59 0 59 115h148q0 -121 -53.5 -190.5 t-143.5 -69.5q-43 0 -82.5 19t-63 41.5t-51.5 41.5t-51 19q-65 0 -65 -113h-145z" />
<glyph unicode="&#xd6;" horiz-adv-x="1724" d="M115 723q0 215 99 386t269.5 265t378.5 94q156 0 294 -55.5t238 -152.5t158 -236.5t58 -300.5t-58 -300.5t-158 -237t-238 -153t-294 -55.5t-293.5 55.5t-237.5 153t-158 237t-58 300.5zM317 723q0 -122 42.5 -227.5t115.5 -179t173.5 -115t213.5 -41.5t213.5 41.5 t173.5 115t115.5 179t42.5 227.5t-42.5 227.5t-115.5 179t-173.5 115t-213.5 41.5t-213.5 -41.5t-173.5 -115t-115.5 -179t-42.5 -227.5zM551 1714q0 50 34.5 83.5t86.5 33.5t86.5 -33.5t34.5 -83.5q0 -51 -34.5 -86t-86.5 -35t-86.5 35t-34.5 86zM932 1714q0 48 35 82.5 t86 34.5t86 -34.5t35 -82.5q0 -50 -35 -85.5t-86 -35.5t-86 35.5t-35 85.5z" />
<glyph unicode="&#xd7;" horiz-adv-x="1150" d="M102 289l353 352l-353 352l121 121l352 -352l353 352l121 -121l-353 -352l353 -352l-121 -121l-353 352l-352 -352z" />
<glyph unicode="&#xd8;" horiz-adv-x="1724" d="M115 723q0 215 99 386t269.5 265t378.5 94q194 0 359 -84l69 101h201l-131 -193q118 -102 184 -248t66 -321q0 -161 -58 -300.5t-158 -237t-238 -153t-294 -55.5q-184 0 -346 78l-78 -112h-200l139 202q-124 102 -193 251t-69 327zM317 723q0 -127 44 -234t124 -182 l629 920q-112 59 -252 59q-113 0 -213.5 -41.5t-173.5 -115t-115.5 -179t-42.5 -227.5zM623 213q109 -53 239 -53q113 0 213.5 41.5t173.5 115t115.5 179t42.5 227.5q0 246 -158 407z" />
<glyph unicode="&#xd9;" horiz-adv-x="1421" d="M143 592v854h197v-846q0 -224 84.5 -332t286.5 -108t286 108t84 332v846h197v-854q0 -615 -567 -615q-568 0 -568 615zM414 1866h217l164 -301h-166z" />
<glyph unicode="&#xda;" horiz-adv-x="1421" d="M143 592v854h197v-846q0 -224 84.5 -332t286.5 -108t286 108t84 332v846h197v-854q0 -615 -567 -615q-568 0 -568 615zM627 1565l164 301h217l-215 -301h-166z" />
<glyph unicode="&#xdb;" horiz-adv-x="1421" d="M143 592v854h197v-846q0 -224 84.5 -332t286.5 -108t286 108t84 332v846h197v-854q0 -615 -567 -615q-568 0 -568 615zM387 1565l250 301h149l248 -301h-174l-147 178l-150 -178h-176z" />
<glyph unicode="&#xdc;" horiz-adv-x="1421" d="M143 592v854h197v-846q0 -224 84.5 -332t286.5 -108t286 108t84 332v846h197v-854q0 -615 -567 -615q-568 0 -568 615zM399 1714q0 50 34.5 83.5t86.5 33.5t86.5 -33.5t34.5 -83.5q0 -51 -34.5 -86t-86.5 -35t-86.5 35t-34.5 86zM780 1714q0 48 35 82.5t86 34.5t86 -34.5 t35 -82.5q0 -50 -35 -85.5t-86 -35.5t-86 35.5t-35 85.5z" />
<glyph unicode="&#xdd;" horiz-adv-x="1224" d="M8 1446h228l376 -682l377 682h228l-508 -889v-557h-197v559zM528 1565l164 301h217l-215 -301h-166z" />
<glyph unicode="&#xde;" horiz-adv-x="1232" d="M178 0v1446h197v-264h313q459 0 459 -430q0 -218 -123 -333.5t-344 -115.5h-305v-303h-197zM375 483h270q155 0 227 57t72 212q0 142 -64.5 195.5t-232.5 53.5h-272v-518z" />
<glyph unicode="&#xdf;" horiz-adv-x="1239" d="M41 862v166h184v105q0 198 90 294.5t279 96.5q65 0 111 -11v-165q-48 10 -103 10q-51 0 -82 -8t-58.5 -33t-39.5 -76t-12 -133v-80h684v-139l-308 -400q191 -2 299.5 -119.5t108.5 -324.5q0 -220 -136 -340.5t-358 -120.5q-123 0 -211 31l50 164q67 -27 168 -27 q138 0 218.5 82.5t80.5 224.5q0 134 -74 208.5t-205 74.5q-51 0 -119 -20l-76 77l340 463h-462v-862h-185v862h-184z" />
<glyph unicode="&#xe0;" d="M86 514q0 237 137 387t355 150q127 0 220 -53.5t144 -147.5v178h184v-1028h-184v178q-52 -92 -146 -146.5t-221 -54.5q-215 0 -352 150.5t-137 386.5zM274 514q0 -163 94 -266t242 -103q143 0 237.5 102t94.5 267t-94.5 267t-237.5 102q-148 0 -242 -103t-94 -266z M330 1501h211l159 -317h-163z" />
<glyph unicode="&#xe1;" d="M86 514q0 237 137 387t355 150q127 0 220 -53.5t144 -147.5v178h184v-1028h-184v178q-52 -92 -146 -146.5t-221 -54.5q-215 0 -352 150.5t-137 386.5zM274 514q0 -163 94 -266t242 -103q143 0 237.5 102t94.5 267t-94.5 267t-237.5 102q-148 0 -242 -103t-94 -266z M537 1184l159 317h211l-207 -317h-163z" />
<glyph unicode="&#xe2;" d="M86 514q0 237 137 387t355 150q127 0 220 -53.5t144 -147.5v178h184v-1028h-184v178q-52 -92 -146 -146.5t-221 -54.5q-215 0 -352 150.5t-137 386.5zM274 514q0 -163 94 -266t242 -103q143 0 237.5 102t94.5 267t-94.5 267t-237.5 102q-148 0 -242 -103t-94 -266z M279 1184l264 317h149l262 -317h-178l-160 190l-159 -190h-178z" />
<glyph unicode="&#xe3;" d="M86 514q0 237 137 387t355 150q127 0 220 -53.5t144 -147.5v178h184v-1028h-184v178q-52 -92 -146 -146.5t-221 -54.5q-215 0 -352 150.5t-137 386.5zM274 514q0 -163 94 -266t242 -103q143 0 237.5 102t94.5 267t-94.5 267t-237.5 102q-148 0 -242 -103t-94 -266z M293 1196q0 120 54.5 190t144.5 70q44 0 83.5 -19t63.5 -42.5t51.5 -42.5t50.5 -19q60 0 60 115h147q0 -121 -53 -190.5t-143 -69.5q-43 0 -82.5 19t-63.5 41.5t-51.5 41.5t-50.5 19q-32 0 -49 -30t-17 -83h-145z" />
<glyph unicode="&#xe4;" d="M86 514q0 237 137 387t355 150q127 0 220 -53.5t144 -147.5v178h184v-1028h-184v178q-52 -92 -146 -146.5t-221 -54.5q-215 0 -352 150.5t-137 386.5zM274 514q0 -163 94 -266t242 -103q143 0 237.5 102t94.5 267t-94.5 267t-237.5 102q-148 0 -242 -103t-94 -266z M307 1350q0 50 34.5 83t86.5 33t86.5 -33t34.5 -83q0 -51 -34.5 -86t-86.5 -35t-86.5 35t-34.5 86zM688 1350q0 48 35 82t86 34t86 -34t35 -82q0 -50 -35 -85.5t-86 -35.5t-86 35.5t-35 85.5z" />
<glyph unicode="&#xe5;" d="M86 514q0 237 137 387t355 150q127 0 220 -53.5t144 -147.5v178h184v-1028h-184v178q-52 -92 -146 -146.5t-221 -54.5q-215 0 -352 150.5t-137 386.5zM274 514q0 -163 94 -266t242 -103q143 0 237.5 102t94.5 267t-94.5 267t-237.5 102q-148 0 -242 -103t-94 -266z M387 1389q0 95 65.5 155t165.5 60t165 -60t65 -155t-65 -155t-165 -60q-102 0 -166.5 60t-64.5 155zM504 1389q0 -50 32 -81.5t80 -31.5q50 0 82.5 31.5t32.5 81.5t-32 81t-83 31q-47 0 -79.5 -31t-32.5 -81z" />
<glyph unicode="&#xe6;" horiz-adv-x="1875" d="M57 324q0 156 100 249t275 93q101 0 200.5 -29.5t143.5 -69.5v80q0 63 -22.5 110.5t-60.5 74t-82.5 39t-94.5 12.5q-179 0 -262 -109l-168 78q59 92 171 145.5t259 53.5q118 0 219 -46.5t156 -136.5q69 88 170 135.5t225 47.5q228 0 369 -150t141 -387q0 -28 -4 -78h-842 q22 -134 117 -212.5t244 -78.5q201 0 288 150l170 -74q-64 -122 -186 -183t-276 -61q-138 0 -245.5 49.5t-176.5 139.5q-54 -89 -155 -139t-243 -50q-191 0 -310.5 91.5t-119.5 255.5zM244 332q0 -94 62.5 -140.5t170.5 -46.5q134 0 216.5 64.5t82.5 179.5q-34 49 -107.5 83 t-185.5 34q-74 0 -124 -15t-73.5 -42t-32.5 -54.5t-9 -62.5zM952 596h662q-20 132 -105.5 209.5t-214.5 77.5q-132 0 -225.5 -79t-116.5 -208z" />
<glyph unicode="&#xe7;" horiz-adv-x="1118" d="M86 514q0 155 71 278t193 191t271 68t266.5 -67.5t179.5 -192.5l-168 -78q-41 80 -114.5 125t-163.5 45q-148 0 -247.5 -104t-99.5 -265t99.5 -265t247.5 -104q97 0 174 46.5t118 138.5l170 -74q-55 -125 -164 -195t-245 -81v-80q95 -11 152 -59.5t57 -127.5 q0 -93 -65.5 -145.5t-190.5 -52.5q-92 0 -187 28v144q109 -31 178 -31q95 0 95 72q0 36 -31 54.5t-117 18.5h-39v185q-194 31 -317 175t-123 353z" />
<glyph unicode="&#xe8;" horiz-adv-x="1202" d="M86 514q0 235 149 386t377 151t369 -150t141 -387q0 -28 -4 -78h-842q22 -134 117 -212.5t244 -78.5q202 0 289 150l170 -74q-64 -122 -186.5 -183t-276.5 -61q-247 0 -397 149.5t-150 387.5zM279 596h661q-20 132 -105 209.5t-214 77.5q-132 0 -225.5 -79t-116.5 -208z M324 1501h211l159 -317h-164z" />
<glyph unicode="&#xe9;" horiz-adv-x="1202" d="M86 514q0 235 149 386t377 151t369 -150t141 -387q0 -28 -4 -78h-842q22 -134 117 -212.5t244 -78.5q202 0 289 150l170 -74q-64 -122 -186.5 -183t-276.5 -61q-247 0 -397 149.5t-150 387.5zM279 596h661q-20 132 -105 209.5t-214 77.5q-132 0 -225.5 -79t-116.5 -208z M530 1184l160 317h211l-207 -317h-164z" />
<glyph unicode="&#xea;" horiz-adv-x="1202" d="M86 514q0 235 149 386t377 151t369 -150t141 -387q0 -28 -4 -78h-842q22 -134 117 -212.5t244 -78.5q202 0 289 150l170 -74q-64 -122 -186.5 -183t-276.5 -61q-247 0 -397 149.5t-150 387.5zM272 1184l265 317h149l262 -317h-178l-160 190l-159 -190h-179zM279 596h661 q-20 132 -105 209.5t-214 77.5q-132 0 -225.5 -79t-116.5 -208z" />
<glyph unicode="&#xeb;" horiz-adv-x="1202" d="M86 514q0 235 149 386t377 151t369 -150t141 -387q0 -28 -4 -78h-842q22 -134 117 -212.5t244 -78.5q202 0 289 150l170 -74q-64 -122 -186.5 -183t-276.5 -61q-247 0 -397 149.5t-150 387.5zM279 596h661q-20 132 -105 209.5t-214 77.5q-132 0 -225.5 -79t-116.5 -208z M301 1350q0 50 34.5 83t86.5 33t86.5 -33t34.5 -83q0 -51 -34.5 -86t-86.5 -35t-86.5 35t-34.5 86zM682 1350q0 48 35 82t86 34t86 -34t35 -82q0 -50 -35 -85.5t-86 -35.5t-86 35.5t-35 85.5z" />
<glyph unicode="&#xec;" horiz-adv-x="512" d="M-10 1501h205l151 -317h-164zM164 0v1028h184v-1028h-184z" />
<glyph unicode="&#xed;" horiz-adv-x="512" d="M164 0v1028h184v-1028h-184zM166 1184l151 317h205l-192 -317h-164z" />
<glyph unicode="&#xee;" horiz-adv-x="512" d="M0 1184l186 317h144l184 -317h-154l-104 182l-102 -182h-154zM164 0v1028h184v-1028h-184z" />
<glyph unicode="&#xef;" horiz-adv-x="512" d="M-35 1350q0 50 34.5 83t86.5 33t86.5 -33t34.5 -83q0 -51 -34.5 -86t-86.5 -35t-86.5 35t-34.5 86zM164 0v1028h184v-1028h-184zM305 1350q0 48 35 82t86 34t86 -34t35 -82q0 -50 -35 -85.5t-86 -35.5t-86 35.5t-35 85.5z" />
<glyph unicode="&#xf0;" horiz-adv-x="1249" d="M86 506q0 149 69.5 269.5t185.5 186.5t253 66q206 0 332 -137q-58 137 -252 315l-260 -127l-66 142l197 96q-31 25 -86.5 68t-73.5 57l117 114q102 -74 207 -159l288 141l68 -139l-234 -115q332 -332 332 -704q0 -146 -40.5 -262t-112.5 -190t-168.5 -112.5t-210.5 -38.5 q-153 0 -277.5 67.5t-196 189t-71.5 272.5zM274 506q0 -156 101.5 -258.5t251.5 -102.5q151 0 251.5 104t100.5 265q0 159 -99.5 254.5t-252.5 95.5q-150 0 -251.5 -102t-101.5 -256z" />
<glyph unicode="&#xf1;" horiz-adv-x="1198" d="M152 0v1028h184v-172q52 99 143 147t205 48q185 0 284 -111t99 -326v-614h-184v588q0 151 -60.5 224t-185.5 73q-135 0 -218 -97t-83 -241v-547h-184zM285 1196q0 120 54 190t144 70q36 0 68.5 -12.5t56 -31t44 -36.5t41.5 -30.5t40 -12.5q60 0 60 115h147 q0 -121 -53.5 -190.5t-143.5 -69.5q-43 0 -82 19t-63 41.5t-51.5 41.5t-50.5 19q-32 0 -49 -30t-17 -83h-145z" />
<glyph unicode="&#xf2;" horiz-adv-x="1253" d="M86 514q0 155 71.5 278t195 191t274.5 68q231 0 385.5 -151.5t154.5 -385.5t-154.5 -385.5t-385.5 -151.5q-151 0 -274.5 68t-195 191t-71.5 278zM274 514q0 -161 101 -265t252 -104t251.5 104t100.5 265t-100.5 265t-251.5 104t-252 -104t-101 -265zM338 1501h211 l160 -317h-164z" />
<glyph unicode="&#xf3;" horiz-adv-x="1253" d="M86 514q0 155 71.5 278t195 191t274.5 68q231 0 385.5 -151.5t154.5 -385.5t-154.5 -385.5t-385.5 -151.5q-151 0 -274.5 68t-195 191t-71.5 278zM274 514q0 -161 101 -265t252 -104t251.5 104t100.5 265t-100.5 265t-251.5 104t-252 -104t-101 -265zM545 1184l160 317 h210l-206 -317h-164z" />
<glyph unicode="&#xf4;" horiz-adv-x="1253" d="M86 514q0 155 71.5 278t195 191t274.5 68q231 0 385.5 -151.5t154.5 -385.5t-154.5 -385.5t-385.5 -151.5q-151 0 -274.5 68t-195 191t-71.5 278zM274 514q0 -161 101 -265t252 -104t251.5 104t100.5 265t-100.5 265t-251.5 104t-252 -104t-101 -265zM287 1184l264 317 h149l263 -317h-179l-159 190l-160 -190h-178z" />
<glyph unicode="&#xf5;" horiz-adv-x="1253" d="M86 514q0 155 71.5 278t195 191t274.5 68q231 0 385.5 -151.5t154.5 -385.5t-154.5 -385.5t-385.5 -151.5q-151 0 -274.5 68t-195 191t-71.5 278zM274 514q0 -161 101 -265t252 -104t251.5 104t100.5 265t-100.5 265t-251.5 104t-252 -104t-101 -265zM301 1196 q0 120 54.5 190t144.5 70q36 0 68.5 -12.5t56 -31t44 -36.5t41.5 -30.5t40 -12.5q59 0 59 115h147q0 -121 -53 -190.5t-143 -69.5q-43 0 -82.5 19t-63.5 41.5t-51.5 41.5t-50.5 19q-32 0 -49 -30t-17 -83h-145z" />
<glyph unicode="&#xf6;" horiz-adv-x="1253" d="M86 514q0 155 71.5 278t195 191t274.5 68q231 0 385.5 -151.5t154.5 -385.5t-154.5 -385.5t-385.5 -151.5q-151 0 -274.5 68t-195 191t-71.5 278zM274 514q0 -161 101 -265t252 -104t251.5 104t100.5 265t-100.5 265t-251.5 104t-252 -104t-101 -265zM315 1350 q0 50 34.5 83t86.5 33t86.5 -33t34.5 -83q0 -51 -34.5 -86t-86.5 -35t-86.5 35t-34.5 86zM696 1350q0 48 35 82t86 34t86 -34t35 -82q0 -50 -35 -85.5t-86 -35.5t-86 35.5t-35 85.5z" />
<glyph unicode="&#xf7;" horiz-adv-x="1105" d="M102 555v172h902v-172h-902zM418 250q0 57 38 93t97 36t97 -36t38 -93q0 -58 -38 -95.5t-97 -37.5t-97 37.5t-38 95.5zM418 1036q0 57 38 93t97 36t97 -36t38 -93q0 -58 -38 -95.5t-97 -37.5t-97 37.5t-38 95.5z" />
<glyph unicode="&#xf8;" horiz-adv-x="1253" d="M86 514q0 155 71.5 278t195 191t274.5 68q135 0 247 -56l64 95h186l-123 -181q78 -72 122 -173.5t44 -221.5q0 -234 -154.5 -385.5t-385.5 -151.5q-124 0 -232 48l-63 -93h-187l119 174q-84 72 -131 177t-47 231zM274 514q0 -152 95 -258l405 596q-70 31 -147 31 q-151 0 -252 -104t-101 -265zM494 170q64 -25 133 -25q151 0 251.5 104t100.5 265q0 143 -82 244z" />
<glyph unicode="&#xf9;" horiz-adv-x="1177" d="M123 422v606h184v-579q0 -306 252 -306q136 0 213.5 95.5t77.5 242.5v547h184v-1028h-184v172q-102 -195 -338 -195q-187 0 -288 114.5t-101 330.5zM291 1501h211l160 -317h-164z" />
<glyph unicode="&#xfa;" horiz-adv-x="1177" d="M123 422v606h184v-579q0 -306 252 -306q136 0 213.5 95.5t77.5 242.5v547h184v-1028h-184v172q-102 -195 -338 -195q-187 0 -288 114.5t-101 330.5zM498 1184l159 317h211l-206 -317h-164z" />
<glyph unicode="&#xfb;" horiz-adv-x="1177" d="M123 422v606h184v-579q0 -306 252 -306q136 0 213.5 95.5t77.5 242.5v547h184v-1028h-184v172q-102 -195 -338 -195q-187 0 -288 114.5t-101 330.5zM240 1184l264 317h149l262 -317h-178l-159 190l-160 -190h-178z" />
<glyph unicode="&#xfc;" horiz-adv-x="1177" d="M123 422v606h184v-579q0 -306 252 -306q136 0 213.5 95.5t77.5 242.5v547h184v-1028h-184v172q-102 -195 -338 -195q-187 0 -288 114.5t-101 330.5zM268 1350q0 50 34.5 83t86.5 33t86.5 -33t34.5 -83q0 -51 -34.5 -86t-86.5 -35t-86.5 35t-34.5 86zM649 1350q0 48 35 82 t86 34t86 -34t35 -82q0 -50 -35 -85.5t-86 -35.5t-86 35.5t-35 85.5z" />
<glyph unicode="&#xfd;" horiz-adv-x="1083" d="M33 1028h205l313 -815l299 815h203l-547 -1429h-205l164 391zM463 1184l160 317h211l-207 -317h-164z" />
<glyph unicode="&#xfe;" horiz-adv-x="1277" d="M152 -401v1902h184v-651q51 94 144 147.5t220 53.5q218 0 355 -150t137 -387q0 -236 -137.5 -386.5t-352.5 -150.5q-127 0 -220.5 54.5t-145.5 146.5v-579h-184zM336 514q0 -165 94.5 -267t237.5 -102q148 0 242 103t94 266t-94 266t-242 103q-143 0 -237.5 -102 t-94.5 -267z" />
<glyph unicode="&#xff;" horiz-adv-x="1083" d="M33 1028h205l313 -815l299 815h203l-547 -1429h-205l164 391zM233 1350q0 50 34.5 83t86.5 33t86.5 -33t34.5 -83q0 -51 -34.5 -86t-86.5 -35t-86.5 35t-34.5 86zM614 1350q0 48 35 82t86 34t86 -34t35 -82q0 -50 -35 -85.5t-86 -35.5t-86 35.5t-35 85.5z" />
<glyph unicode="&#x152;" horiz-adv-x="1882" d="M115 723q0 160 51 292t148 228.5t247.5 149.5t341.5 53h858v-180h-661v-451h577v-180h-577v-455h680v-180h-877q-369 0 -578.5 196.5t-209.5 526.5zM317 723q0 -251 152 -396t434 -145v1082q-148 0 -261 -39.5t-183.5 -112.5t-106 -170.5t-35.5 -218.5z" />
<glyph unicode="&#x153;" horiz-adv-x="2097" d="M86 514q0 155 71.5 278t195 191t274.5 68q145 0 261 -64t185 -176q66 113 178 176.5t256 63.5q228 0 369 -150t141 -387q0 -28 -4 -78h-842q22 -134 117 -212.5t244 -78.5q202 0 289 150l170 -74q-64 -122 -186.5 -183t-276.5 -61q-157 0 -274 63t-181 177 q-68 -114 -184 -177t-262 -63q-151 0 -274.5 68t-195 191t-71.5 278zM274 514q0 -161 101 -265t252 -104t251.5 104t100.5 265t-100.5 265t-251.5 104t-252 -104t-101 -265zM1174 596h661q-20 132 -105 209.5t-214 77.5q-132 0 -225.5 -79t-116.5 -208z" />
<glyph unicode="&#x178;" horiz-adv-x="1224" d="M8 1446h228l376 -682l377 682h228l-508 -889v-557h-197v559zM301 1714q0 50 34.5 83.5t86.5 33.5t86.5 -33.5t34.5 -83.5q0 -51 -34.5 -86t-86.5 -35t-86.5 35t-34.5 86zM682 1714q0 48 35 82.5t86 34.5t86 -34.5t35 -82.5q0 -50 -35 -85.5t-86 -35.5t-86 35.5t-35 85.5z " />
<glyph unicode="&#x2c6;" horiz-adv-x="696" d="M10 1184l264 317h150l262 -317h-178l-160 190l-160 -190h-178z" />
<glyph unicode="&#x2dc;" horiz-adv-x="696" d="M20 1196q0 120 54.5 190t144.5 70q36 0 68.5 -12.5t56 -31t44 -36.5t41.5 -30.5t40 -12.5q59 0 59 115h148q0 -121 -53.5 -190.5t-143.5 -69.5q-43 0 -82.5 19t-63 41.5t-51.5 41.5t-51 19q-65 0 -65 -113h-146z" />
<glyph unicode="&#x2000;" horiz-adv-x="974" />
<glyph unicode="&#x2001;" horiz-adv-x="1948" />
<glyph unicode="&#x2002;" horiz-adv-x="974" />
<glyph unicode="&#x2003;" horiz-adv-x="1948" />
<glyph unicode="&#x2004;" horiz-adv-x="649" />
<glyph unicode="&#x2005;" horiz-adv-x="487" />
<glyph unicode="&#x2006;" horiz-adv-x="324" />
<glyph unicode="&#x2007;" horiz-adv-x="324" />
<glyph unicode="&#x2008;" horiz-adv-x="243" />
<glyph unicode="&#x2009;" horiz-adv-x="389" />
<glyph unicode="&#x200a;" horiz-adv-x="108" />
<glyph unicode="&#x2010;" horiz-adv-x="966" d="M123 428v172h721v-172h-721z" />
<glyph unicode="&#x2011;" horiz-adv-x="966" d="M123 428v172h721v-172h-721z" />
<glyph unicode="&#x2012;" horiz-adv-x="966" d="M123 428v172h721v-172h-721z" />
<glyph unicode="&#x2013;" horiz-adv-x="1249" d="M102 428v172h1045v-172h-1045z" />
<glyph unicode="&#x2014;" horiz-adv-x="2007" d="M102 428v172h1803v-172h-1803z" />
<glyph unicode="&#x2018;" horiz-adv-x="516" d="M115 889l139 612h147l-67 -612h-219z" />
<glyph unicode="&#x2019;" horiz-adv-x="516" d="M115 889l67 612h219l-139 -612h-147z" />
<glyph unicode="&#x201a;" horiz-adv-x="516" d="M115 -299l67 612h219l-139 -612h-147z" />
<glyph unicode="&#x201c;" horiz-adv-x="929" d="M115 889l118 612h148l-47 -612h-219zM549 889l119 612h147l-47 -612h-219z" />
<glyph unicode="&#x201d;" horiz-adv-x="929" d="M115 889l47 612h219l-119 -612h-147zM549 889l47 612h219l-119 -612h-147z" />
<glyph unicode="&#x201e;" horiz-adv-x="929" d="M115 -299l47 612h219l-119 -612h-147zM549 -299l47 612h219l-119 -612h-147z" />
<glyph unicode="&#x2022;" horiz-adv-x="786" d="M123 518q0 113 76 185.5t194 72.5t194.5 -72.5t76.5 -185.5q0 -116 -76.5 -191t-194.5 -75q-117 0 -193.5 74.5t-76.5 191.5z" />
<glyph unicode="&#x2026;" horiz-adv-x="1548" d="M123 121q0 57 38 93t97 36t97 -36t38 -93q0 -58 -38 -95.5t-97 -37.5t-97 37.5t-38 95.5zM639 121q0 57 38 93t97 36t97 -36t38 -93q0 -58 -38 -95.5t-97 -37.5t-97 37.5t-38 95.5zM1155 121q0 57 38 93t97 36t97 -36t38 -93q0 -58 -38 -95.5t-97 -37.5t-97 37.5 t-38 95.5z" />
<glyph unicode="&#x202f;" horiz-adv-x="389" />
<glyph unicode="&#x2039;" horiz-adv-x="600" d="M57 506l324 477l141 -98l-258 -379l258 -377l-141 -98z" />
<glyph unicode="&#x203a;" horiz-adv-x="600" d="M78 129l258 377l-258 379l141 98l324 -477l-324 -475z" />
<glyph unicode="&#x205f;" horiz-adv-x="487" />
<glyph unicode="&#x20ac;" horiz-adv-x="1404" d="M78 487v148h172q-4 58 -4 88t4 92h-172v148h194q56 234 213 368.5t379 134.5q159 0 291 -71t197 -199l-150 -96q-44 89 -130.5 140.5t-201.5 51.5q-142 0 -245 -84.5t-148 -244.5h471v-148h-495q-4 -58 -4 -92q0 -30 4 -88h495v-148h-471q44 -162 147.5 -247.5 t245.5 -85.5q115 0 202 51.5t130 142.5l150 -98q-65 -128 -197 -199t-291 -71q-222 0 -380 135t-214 372h-192z" />
<glyph unicode="&#x2122;" horiz-adv-x="1468" d="M51 1317v129h516v-129h-186v-522h-143v522h-187zM682 795v651h172l182 -342l178 342h183v-651h-135v475l-191 -350h-74l-180 333v-458h-135z" />
<glyph unicode="&#x25fc;" horiz-adv-x="1024" d="M0 0v1024h1024v-1024h-1024z" />
</font>
</defs>
</svg>
