<?xml version="1.0" standalone="no"?>
<!DOCTYPE svg PUBLIC "-//W3C//DTD SVG 1.1//EN" "http://www.w3.org/Graphics/SVG/1.1/DTD/svg11.dtd" >
<svg xmlns="http://www.w3.org/2000/svg" xmlns:xlink="http://www.w3.org/1999/xlink" version="1.1">
<metadata></metadata>
<defs>
<font id="zabal_demobold" horiz-adv-x="1247" >
<font-face units-per-em="2048" ascent="1638" descent="-410" />
<missing-glyph horiz-adv-x="448" />
<glyph unicode="&#xfb01;" horiz-adv-x="1302" d="M37 799v231h168v100q0 201 96 297.5t297 96.5q81 0 127 -11l-2 -217q-46 11 -94 11q-46 0 -73 -7t-49 -28t-31 -61.5t-9 -106.5v-74h248v-231h-248v-799h-262v799h-168zM872 1339q0 64 46 108t114 44q69 0 115.5 -43.5t46.5 -108.5t-46.5 -110t-115.5 -45 q-67 0 -113.5 45t-46.5 110zM899 0v1030h266v-1030h-266z" />
<glyph unicode="&#xfb02;" horiz-adv-x="1296" d="M37 799v231h168v100q0 201 96 297.5t297 96.5q81 0 127 -11l-2 -217q-46 11 -94 11q-46 0 -73 -7t-49 -28t-31 -61.5t-9 -106.5v-74h248v-231h-248v-799h-262v799h-168zM895 0v1501h268v-1501h-268z" />
<glyph horiz-adv-x="0" />
<glyph horiz-adv-x="682" />
<glyph horiz-adv-x="0" />
<glyph horiz-adv-x="0" />
<glyph unicode="&#xd;" horiz-adv-x="681" />
<glyph unicode=" "  horiz-adv-x="448" />
<glyph unicode="&#x09;" horiz-adv-x="448" />
<glyph unicode="&#xa0;" horiz-adv-x="448" />
<glyph unicode="!" horiz-adv-x="546" d="M100 154q0 73 49 119t123 46q76 0 125 -46t49 -119t-49.5 -121.5t-124.5 -48.5q-74 0 -123 48.5t-49 121.5zM125 1446h295l-43 -981h-209z" />
<glyph unicode="&#x22;" horiz-adv-x="878" d="M106 848v653h238v-653h-238zM532 848v653h238v-653h-238z" />
<glyph unicode="#" horiz-adv-x="1460" d="M41 348v199h291l74 334h-254v198h297l79 367h217l-79 -367h284l80 367h215l-80 -367h254v-198h-297l-73 -334h260v-199h-303l-76 -348h-215l76 348h-285l-76 -348h-217l76 348h-248zM549 547h285l73 334h-284z" />
<glyph unicode="$" horiz-adv-x="1177" d="M51 266l211 137q73 -153 240 -184v395q-73 18 -129 39t-110.5 55t-89 77.5t-56 107.5t-21.5 143q0 196 128.5 311t330.5 121v162h150v-172q132 -24 227.5 -94.5t138.5 -171.5l-213 -131q-56 109 -153 149v-385q94 -20 163 -49.5t126.5 -77t87.5 -118.5t30 -166 q0 -199 -122 -312t-341 -122v-164h-147v168q-166 17 -283 90.5t-168 191.5zM367 1042q0 -83 42 -121.5t146 -64.5v375q-87 -6 -137.5 -55.5t-50.5 -133.5zM649 213q93 11 143 58.5t50 131.5q0 75 -43.5 113.5t-149.5 63.5v-367z" />
<glyph unicode="%" horiz-adv-x="2136" d="M53 1018q0 216 108.5 333t284.5 117q179 0 285.5 -117t106.5 -333q0 -219 -107 -336t-285 -117q-177 0 -285 116t-108 337zM287 1018q0 -113 43 -179.5t116 -66.5q72 0 115 67t43 179t-43 178t-115 66q-73 0 -116 -65.5t-43 -178.5zM522 0l846 1446h246l-844 -1446h-248z M1298 430q0 216 109 333.5t285 117.5q179 0 285 -117t106 -334q0 -219 -106.5 -336t-284.5 -117q-177 0 -285.5 116t-108.5 337zM1532 430q0 -113 43.5 -179.5t116.5 -66.5q72 0 114.5 66.5t42.5 179.5q0 112 -42.5 178t-114.5 66q-74 0 -117 -66t-43 -178z" />
<glyph unicode="&#x26;" horiz-adv-x="1423" d="M94 387q0 77 25 141t72 113.5t97.5 85t119.5 70.5q-150 170 -150 331q0 151 109 245.5t286 94.5q173 0 283.5 -95.5t110.5 -242.5q0 -68 -23 -125t-68 -102t-90.5 -76t-111.5 -67l276 -293q65 136 68 305h254q-17 -271 -154 -479l164 -172l-166 -158l-154 162 q-191 -148 -440 -148q-144 0 -258 47.5t-182 141.5t-68 221zM365 410q0 -99 74.5 -153t189.5 -54q144 0 260 86l-344 360q-86 -50 -133 -106t-47 -133zM506 1110q0 -47 26.5 -94.5t85.5 -114.5q93 49 143 98.5t50 114.5q0 61 -43.5 100t-108.5 39q-66 0 -109.5 -40.5 t-43.5 -102.5z" />
<glyph unicode="'" horiz-adv-x="450" d="M106 848v653h238v-653h-238z" />
<glyph unicode="(" horiz-adv-x="768" d="M88 573q0 310 145 549.5t400 374.5l119 -199q-184 -103 -287 -293t-103 -432q0 -244 103 -434.5t287 -290.5l-119 -200q-255 137 -400 376t-145 549z" />
<glyph unicode=")" horiz-adv-x="768" d="M16 -152q184 100 287 290.5t103 434.5q0 242 -103 432t-287 293l119 199q255 -135 400 -374.5t145 -549.5t-145 -549t-400 -376z" />
<glyph unicode="*" horiz-adv-x="925" d="M55 987l299 113l-299 110l105 181l250 -201l-50 311h207l-51 -311l252 201l104 -181l-301 -112l301 -113l-106 -178l-250 201l51 -312h-207l50 312l-250 -201z" />
<glyph unicode="+" horiz-adv-x="1155" d="M86 526v238h371v379h241v-379h371v-238h-371v-379h-241v379h-371z" />
<glyph unicode="," horiz-adv-x="546" d="M98 -299l62 653h289l-150 -653h-201z" />
<glyph unicode="-" horiz-adv-x="925" d="M98 395v238h727v-238h-727z" />
<glyph unicode="." horiz-adv-x="546" d="M100 154q0 73 49 119t123 46q76 0 125 -46t49 -119t-49.5 -121.5t-124.5 -48.5q-74 0 -123 48.5t-49 121.5z" />
<glyph unicode="/" horiz-adv-x="772" d="M-61 -258l573 1759h256l-573 -1759h-256z" />
<glyph unicode="0" horiz-adv-x="1464" d="M92 723q0 178 47.5 320t132.5 234.5t202.5 141.5t258.5 49q142 0 258.5 -48.5t201 -141.5t131 -234.5t46.5 -320.5q0 -233 -81.5 -403t-224.5 -256.5t-331 -86.5q-140 0 -257.5 50t-203 143.5t-133 235t-47.5 317.5zM373 723q0 -231 98 -361.5t262 -130.5q165 0 261 130 t96 362q0 238 -95 364.5t-262 126.5q-165 0 -262.5 -127.5t-97.5 -363.5z" />
<glyph unicode="1" horiz-adv-x="845" d="M35 1206l588 254h73v-1460h-268v1126l-311 -139z" />
<glyph unicode="2" horiz-adv-x="1218" d="M59 1176q48 130 186.5 211t338.5 81q233 0 366 -111t133 -302q0 -61 -12.5 -118t-31 -104t-55 -99.5t-69 -92t-89.5 -93.5t-101 -92t-117 -100l-129 -106h641v-250h-1036v199l238 213q220 199 285 265q158 162 188 280q8 34 8 67q0 88 -62 142.5t-172 54.5 q-228 0 -297 -195z" />
<glyph unicode="3" horiz-adv-x="1218" d="M41 254l217 156q44 -92 128.5 -140.5t197.5 -48.5q126 0 200 63t74 171q0 112 -81.5 173.5t-223.5 61.5q-91 0 -168 -33l-109 158l410 383h-530v248h915v-197l-438 -366q236 0 369 -111t133 -323q0 -227 -152 -349.5t-401 -122.5q-201 0 -339.5 73t-201.5 204z" />
<glyph unicode="4" horiz-adv-x="1288" d="M74 279v194l436 973h295l-420 -934h399v356h256v-356h195v-233h-195v-279h-256v279h-710z" />
<glyph unicode="5" horiz-adv-x="1226" d="M43 254l215 156q46 -92 130 -140.5t198 -48.5q127 0 203.5 66.5t76.5 181.5q0 119 -80 182.5t-221 63.5q-75 0 -138.5 -22t-147.5 -81l-152 37l66 797h890v-248h-651l-24 -307q103 47 235 47q231 0 365.5 -121.5t134.5 -351.5q0 -160 -71.5 -271.5t-193.5 -164 t-284 -52.5q-209 0 -348.5 73t-202.5 204z" />
<glyph unicode="6" horiz-adv-x="1318" d="M98 514q0 126 38.5 247.5t116 241.5t178.5 233.5t241 242.5l286 -88q-162 -151 -259 -251t-179 -206q100 43 219 43q224 0 361 -136t137 -352q0 -225 -157 -368.5t-410 -143.5q-255 0 -413.5 150t-158.5 387zM373 485q0 -109 81.5 -186.5t211.5 -77.5q131 0 213 79 t82 194q0 117 -82 193.5t-209 76.5q-133 0 -215 -81t-82 -198z" />
<glyph unicode="7" horiz-adv-x="1134" d="M80 1194v252h997v-195l-604 -1251h-299l580 1194h-674z" />
<glyph unicode="8" horiz-adv-x="1277" d="M78 410q0 120 62.5 211.5t176.5 146.5q-92 48 -142 127.5t-50 179.5q0 181 138.5 286t375.5 105t374.5 -105t137.5 -286q0 -101 -50 -180.5t-143 -126.5q115 -55 178.5 -147t63.5 -211q0 -202 -149.5 -316t-411.5 -114t-411.5 114t-149.5 316zM352 434q0 -98 76.5 -154.5 t210.5 -56.5q133 0 210 57t77 154q0 99 -78 157t-211 58q-134 0 -209.5 -58t-75.5 -157zM393 1051q0 -85 64.5 -133t177.5 -48q115 0 181.5 48.5t66.5 132.5q0 82 -66.5 132t-179.5 50q-112 0 -178 -50t-66 -132z" />
<glyph unicode="9" horiz-adv-x="1318" d="M84 956q0 225 156 368.5t409 143.5q255 0 413.5 -149.5t158.5 -386.5q0 -126 -38.5 -247.5t-116 -241.5t-178.5 -233.5t-241 -242.5l-287 88q170 159 264.5 255.5t174.5 201.5q-100 -43 -219 -43q-223 0 -359.5 136t-136.5 351zM358 952q0 -117 82 -193.5t211 -76.5 q132 0 214.5 81t82.5 198q0 109 -82.5 186.5t-212.5 77.5t-212.5 -79t-82.5 -194z" />
<glyph unicode=":" horiz-adv-x="546" d="M100 154q0 73 49 119t123 46q76 0 125 -46t49 -119t-49.5 -121.5t-124.5 -48.5q-74 0 -123 48.5t-49 121.5zM100 881q0 73 49 119.5t123 46.5q75 0 124.5 -46.5t49.5 -119.5t-49.5 -121.5t-124.5 -48.5q-74 0 -123 48.5t-49 121.5z" />
<glyph unicode=";" horiz-adv-x="557" d="M102 881q0 73 49.5 119.5t124.5 46.5q74 0 123.5 -46.5t49.5 -119.5t-49.5 -121.5t-123.5 -48.5q-75 0 -124.5 48.5t-49.5 121.5zM104 -299l62 653h289l-150 -653h-201z" />
<glyph unicode="&#x3c;" horiz-adv-x="1032" d="M70 528v236l876 391v-260l-581 -248l581 -250v-260z" />
<glyph unicode="=" horiz-adv-x="1097" d="M86 266v238h926v-238h-926zM86 784v238h926v-238h-926z" />
<glyph unicode="&#x3e;" horiz-adv-x="1032" d="M86 137v260l582 250l-582 248v260l877 -391v-236z" />
<glyph unicode="?" horiz-adv-x="1032" d="M29 1161q49 141 176.5 222t296.5 81q127 0 230.5 -44.5t166 -132t62.5 -204.5q0 -62 -19 -119.5t-49 -102t-66.5 -86.5t-73.5 -79.5t-68 -74t-51 -77.5t-22 -83h-229q0 80 31 150.5t75.5 121.5t88.5 99t75 103.5t31 113.5q0 79 -55.5 126.5t-145.5 47.5q-78 0 -140 -44 t-95 -130zM332 154q0 73 49 119t125 46q74 0 123 -46t49 -119t-49 -121.5t-123 -48.5q-75 0 -124.5 48.5t-49.5 121.5z" />
<glyph unicode="@" horiz-adv-x="1732" d="M70 526q0 231 102.5 412t286.5 281t418 100q178 0 327 -58.5t249.5 -160.5t156 -241t55.5 -300q0 -214 -100 -337.5t-267 -123.5q-121 0 -195 58t-95 161q-63 -102 -189 -102q-120 0 -203.5 90.5t-83.5 233.5t81 233t192 90q108 0 168 -82v68h211v-393q0 -89 27.5 -129.5 t82.5 -40.5q148 0 148 264q0 245 -152 401t-413 156q-253 0 -418.5 -159.5t-165.5 -420.5q0 -128 48 -237.5t130.5 -184t193.5 -116t236 -41.5q188 0 291 59l76 -201q-66 -31 -165 -49t-196 -18q-180 0 -335 58.5t-265.5 161.5t-173.5 250t-63 318zM745 539 q0 -65 30.5 -103.5t88.5 -38.5q57 0 88 38t31 104q0 65 -31.5 103t-87.5 38q-58 0 -88.5 -37t-30.5 -104z" />
<glyph unicode="A" horiz-adv-x="1366" d="M10 0l514 1446h320l512 -1446h-293l-102 307h-555l-103 -307h-293zM489 555h388l-195 600z" />
<glyph unicode="B" horiz-adv-x="1269" d="M150 0v1446h538q238 0 350.5 -96.5t112.5 -266.5q0 -125 -62 -212.5t-180 -127.5q285 -66 285 -352q0 -391 -489 -391h-555zM430 244h225q136 0 193 43.5t57 138.5q0 99 -61.5 139.5t-188.5 40.5h-225v-362zM430 840h201q114 0 174.5 43.5t60.5 142.5q0 93 -53 134.5 t-182 41.5h-201v-362z" />
<glyph unicode="C" horiz-adv-x="1538" d="M92 723q0 217 97 387.5t268 264t385 93.5q222 0 391 -100.5t237 -271.5l-251 -133q-40 115 -141.5 181t-239.5 66q-199 0 -329 -136.5t-130 -350.5q0 -215 130 -351t337 -136q145 0 251 71.5t150 204.5l252 -123q-75 -201 -244.5 -306.5t-400.5 -105.5 q-220 0 -393.5 93.5t-271 264t-97.5 388.5z" />
<glyph unicode="D" horiz-adv-x="1464" d="M150 0v1446h491q232 0 398.5 -91.5t249.5 -253.5t83 -378q0 -162 -46.5 -294.5t-136 -228t-227 -148t-311.5 -52.5h-501zM430 256h219q222 0 328 125t106 342q0 216 -110.5 341.5t-333.5 125.5h-209v-934z" />
<glyph unicode="E" horiz-adv-x="1161" d="M150 0v1446h907v-256h-631v-344h545v-248h-545v-342h647v-256h-923z" />
<glyph unicode="F" horiz-adv-x="1093" d="M150 0v1446h876v-258h-596v-352h528v-256h-528v-580h-280z" />
<glyph unicode="G" horiz-adv-x="1632" d="M92 723q0 217 97 387.5t268 264t385 93.5q219 0 387.5 -98t240.5 -266l-256 -129q-43 110 -143.5 172.5t-232.5 62.5q-199 0 -329 -136.5t-130 -350.5q0 -219 129.5 -353t351.5 -134q177 0 281.5 87.5t140.5 237.5h-455v234h742v-58q0 -351 -188.5 -555.5t-522.5 -204.5 q-223 0 -397.5 93.5t-271.5 264t-97 388.5z" />
<glyph unicode="H" horiz-adv-x="1462" d="M150 0v1446h280v-594h602v594h281v-1446h-281v594h-602v-594h-280z" />
<glyph unicode="I" horiz-adv-x="600" d="M158 0v1446h284v-1446h-284z" />
<glyph unicode="J" horiz-adv-x="1112" d="M37 266l211 152q77 -185 260 -185q112 0 157.5 71t45.5 224v918h280v-903q0 -284 -108.5 -425t-350.5 -141q-188 0 -313 78t-182 211z" />
<glyph unicode="K" horiz-adv-x="1345" d="M150 0v1446h280v-647l502 647h346l-533 -682l582 -764h-348l-549 713v-713h-280z" />
<glyph unicode="L" horiz-adv-x="1097" d="M150 0v1446h280v-1184h614v-262h-894z" />
<glyph unicode="M" horiz-adv-x="1798" d="M150 0v1446h317l432 -891l430 891h320v-1446h-277v942l-377 -758h-192l-377 758v-942h-276z" />
<glyph unicode="N" horiz-adv-x="1480" d="M150 0v1446h270l635 -950v950h276v-1446h-270l-635 950v-950h-276z" />
<glyph unicode="O" horiz-adv-x="1695" d="M92 723q0 163 58.5 302.5t159.5 236t240.5 151.5t297.5 55q160 0 299.5 -54.5t240 -151.5t158.5 -236.5t58 -302.5q0 -217 -99 -388t-271 -264.5t-386 -93.5q-212 0 -384 93.5t-272 264.5t-100 388zM379 723q0 -214 133.5 -350.5t335.5 -136.5q205 0 337 136.5t132 350.5 t-132 350.5t-337 136.5q-202 0 -335.5 -136.5t-133.5 -350.5z" />
<glyph unicode="P" horiz-adv-x="1239" d="M150 0v1446h552q240 0 353.5 -118t113.5 -331q0 -226 -123 -347.5t-356 -121.5h-260v-528h-280zM430 776h215q123 0 180.5 47.5t57.5 165.5q0 112 -52 158.5t-184 46.5h-217v-418z" />
<glyph unicode="Q" horiz-adv-x="1695" d="M92 723q0 163 58.5 302.5t159.5 236t240.5 151.5t297.5 55q160 0 299.5 -54.5t240 -151.5t158.5 -236.5t58 -302.5q0 -261 -144 -455l139 -188l-194 -141l-119 165q-187 -127 -438 -127q-212 0 -384 93.5t-272 264.5t-100 388zM379 723q0 -214 133.5 -350.5t335.5 -136.5 q144 0 254 69l-250 338l190 137l218 -303q57 108 57 246q0 214 -132 350.5t-337 136.5q-202 0 -335.5 -136.5t-133.5 -350.5z" />
<glyph unicode="R" horiz-adv-x="1320" d="M150 0v1446h534q240 0 354.5 -115t114.5 -319q0 -159 -71 -258.5t-203 -135.5l430 -618h-336l-381 557h-162v-557h-280zM430 788h197q118 0 177.5 45.5t59.5 161.5q0 111 -54.5 155t-180.5 44h-199v-406z" />
<glyph unicode="S" horiz-adv-x="1177" d="M51 260l219 152q91 -187 322 -187q111 0 172 45t61 136q0 81 -57.5 118t-210.5 70q-83 18 -145 38.5t-124.5 55.5t-102 79.5t-64.5 112.5t-25 154q0 202 134.5 318t347.5 116q181 0 312 -75.5t183 -200.5l-225 -141q-82 170 -260 170q-95 0 -150 -47t-55 -134 q0 -41 11.5 -70t30.5 -48.5t59 -35t80 -25.5t110 -23q78 -15 140.5 -35.5t119.5 -54.5t95 -78.5t60.5 -109t22.5 -144.5q0 -212 -135 -325.5t-375 -113.5q-202 0 -346 75t-205 208z" />
<glyph unicode="T" horiz-adv-x="1212" d="M53 1188v258h1106v-258h-414v-1188h-278v1188h-414z" />
<glyph unicode="U" horiz-adv-x="1404" d="M121 584v862h280v-852q0 -177 68.5 -267.5t232.5 -90.5t233 90.5t69 267.5v852h280v-862q0 -294 -143 -450.5t-439 -156.5q-581 0 -581 607z" />
<glyph unicode="V" horiz-adv-x="1318" d="M10 1446h303l346 -1122l349 1122h301l-486 -1446h-327z" />
<glyph unicode="W" horiz-adv-x="1988" d="M10 1446h301l258 -1081l293 1081h262l297 -1081l256 1081h301l-395 -1446h-293l-297 991l-297 -991h-290z" />
<glyph unicode="X" horiz-adv-x="1331" d="M18 0l461 756l-422 690h326l283 -490l282 490h326l-420 -690l459 -756h-326l-321 545l-322 -545h-326z" />
<glyph unicode="Y" horiz-adv-x="1277" d="M4 1446h322l313 -627l311 627h322l-494 -916v-530h-280v532z" />
<glyph unicode="Z" horiz-adv-x="1183" d="M72 0v213l663 975h-641v258h1010v-211l-664 -977h701v-258h-1069z" />
<glyph unicode="[" horiz-adv-x="706" d="M147 -326v1794h527v-231h-266v-1333h266v-230h-527z" />
<glyph unicode="\" horiz-adv-x="772" d="M2 1501h256l576 -1759h-256z" />
<glyph unicode="]" horiz-adv-x="706" d="M33 -96h266v1333h-266v231h526v-1794h-526v230z" />
<glyph unicode="^" horiz-adv-x="1142" d="M84 741l397 705h181l397 -705h-273l-215 400l-213 -400h-274z" />
<glyph unicode="_" horiz-adv-x="929" d="M-20 -86h970v-238h-970v238z" />
<glyph unicode="`" horiz-adv-x="759" d="M158 1501h286l158 -340h-229z" />
<glyph unicode="a" d="M70 514q0 239 131 389t338 150q224 0 327 -174v151h262v-1030h-262v152q-106 -175 -329 -175q-206 0 -336.5 149t-130.5 388zM334 514q0 -132 75.5 -215.5t194.5 -83.5q118 0 192 82.5t74 216.5t-74 216.5t-192 82.5q-119 0 -194.5 -83t-75.5 -216z" />
<glyph unicode="b" horiz-adv-x="1255" d="M127 0v1501h262v-622q103 174 326 174q209 0 340 -150t131 -389t-131 -388t-338 -149q-110 0 -193.5 46t-134.5 129v-152h-262zM385 514q0 -134 73 -216.5t191 -82.5q120 0 195.5 83.5t75.5 215.5q0 133 -75.5 216t-195.5 83q-118 0 -191 -82.5t-73 -216.5z" />
<glyph unicode="c" horiz-adv-x="1107" d="M70 514q0 237 153 388t387 151q159 0 281.5 -69.5t179.5 -190.5l-227 -123q-35 70 -95.5 107.5t-136.5 37.5q-121 0 -199.5 -83.5t-78.5 -217.5q0 -131 80 -215t202 -84q172 0 242 164l229 -119q-40 -96 -111.5 -160.5t-161 -93.5t-196.5 -29q-240 0 -394 149.5 t-154 387.5z" />
<glyph unicode="d" d="M70 514q0 239 131 389t338 150q224 0 327 -174v622h262v-1501h-262v152q-106 -175 -329 -175q-206 0 -336.5 149t-130.5 388zM334 514q0 -132 75.5 -215.5t194.5 -83.5q118 0 192 82.5t74 216.5t-74 216.5t-192 82.5q-119 0 -194.5 -83t-75.5 -216z" />
<glyph unicode="e" horiz-adv-x="1185" d="M70 514q0 238 151.5 388.5t386.5 150.5q229 0 370.5 -147.5t141.5 -391.5q0 -42 -6 -86h-778q18 -101 96 -162t205 -61q172 0 266 123l201 -133q-64 -106 -191.5 -162t-281.5 -56q-257 0 -409 149t-152 388zM338 614h524q-19 104 -86.5 165t-167.5 61q-105 0 -178 -61.5 t-92 -164.5z" />
<glyph unicode="f" horiz-adv-x="761" d="M37 799v231h168v100q0 201 96 297.5t297 96.5q81 0 127 -11l-2 -217q-46 11 -94 11q-46 0 -73 -7t-49 -28t-31 -61.5t-9 -106.5v-74h248v-231h-248v-799h-262v799h-168z" />
<glyph unicode="g" d="M70 530q0 232 131 377.5t338 145.5q224 0 327 -166v143h262v-936q0 -249 -139 -383.5t-385 -134.5q-343 0 -479 236l221 112q40 -65 100.5 -95t151.5 -30q130 0 199 65.5t69 194.5v113q-109 -168 -329 -168q-206 0 -336.5 146.5t-130.5 379.5zM334 526 q0 -127 75.5 -207.5t194.5 -80.5q118 0 192 79t74 209q0 129 -74 208t-192 79q-119 0 -194.5 -79.5t-75.5 -207.5z" />
<glyph unicode="h" horiz-adv-x="1204" d="M127 0v1501h262v-618q50 83 137 126.5t195 43.5q181 0 278 -112t97 -331v-610h-262v561q0 134 -50 195t-153 61q-108 0 -175 -78t-67 -198v-541h-262z" />
<glyph unicode="i" horiz-adv-x="540" d="M111 1339q0 65 46 108.5t113 43.5q69 0 115.5 -43.5t46.5 -108.5t-46.5 -110t-115.5 -45q-67 0 -113 45t-46 110zM137 0v1030h266v-1030h-266z" />
<glyph unicode="j" horiz-adv-x="540" d="M-96 -412l4 219q54 -8 88 -8q74 0 107.5 41t33.5 152v1038h266v-1065q0 -187 -91.5 -288t-272.5 -101q-69 0 -135 12zM111 1339q0 65 46 108.5t113 43.5q69 0 115.5 -43.5t46.5 -108.5t-46.5 -110t-115.5 -45q-67 0 -113 45t-46 110z" />
<glyph unicode="k" horiz-adv-x="1122" d="M127 0v1501h262v-919l369 448h321l-420 -481l457 -549h-321l-406 500v-500h-262z" />
<glyph unicode="l" horiz-adv-x="534" d="M133 0v1501h268v-1501h-268z" />
<glyph unicode="m" horiz-adv-x="1796" d="M127 0v1030h258v-151q46 86 126 130t181 44q215 0 293 -187q132 187 346 187q175 0 266 -112t91 -331v-610h-263v561q0 132 -43.5 194t-134.5 62q-93 0 -151 -74.5t-58 -179.5v-563h-262v561q0 131 -44 193.5t-134 62.5q-95 0 -152 -77.5t-57 -198.5v-541h-262z" />
<glyph unicode="n" horiz-adv-x="1193" d="M127 0v1030h258v-151q52 86 137 130t193 44q179 0 274.5 -112t95.5 -331v-610h-262v561q0 134 -49 195t-149 61q-107 0 -171.5 -77.5t-64.5 -198.5v-541h-262z" />
<glyph unicode="o" horiz-adv-x="1234" d="M70 514q0 156 72.5 280t197 191.5t278.5 67.5t279.5 -67.5t197.5 -191t72 -280.5q0 -156 -72 -279.5t-197 -190.5t-280 -67q-235 0 -391.5 150.5t-156.5 386.5zM334 514q0 -131 80 -215t204 -84q123 0 203 83.5t80 215.5q0 133 -79.5 216t-203.5 83t-204 -83t-80 -216z " />
<glyph unicode="p" horiz-adv-x="1255" d="M127 -401v1431h262v-151q103 174 326 174q209 0 340 -150t131 -389t-131 -388t-338 -149q-110 0 -193.5 46t-134.5 129v-553h-262zM385 514q0 -134 73 -216.5t191 -82.5q120 0 195.5 83.5t75.5 215.5q0 133 -75.5 216t-195.5 83q-118 0 -191 -82.5t-73 -216.5z" />
<glyph unicode="q" d="M70 514q0 239 131 389t338 150q224 0 327 -174v151h262v-1431h-262v553q-106 -175 -329 -175q-206 0 -336.5 149t-130.5 388zM334 514q0 -132 75.5 -215.5t194.5 -83.5q118 0 192 82.5t74 216.5t-74 216.5t-192 82.5q-119 0 -194.5 -83t-75.5 -216z" />
<glyph unicode="r" horiz-adv-x="792" d="M127 0v1030h258v-176q46 95 130 147t190 52q23 0 47 -4l-4 -275q-55 8 -103 8q-119 0 -187.5 -85.5t-68.5 -217.5v-479h-262z" />
<glyph unicode="s" horiz-adv-x="976" d="M47 215l195 121q90 -150 268 -150q149 0 149 111q0 48 -41.5 73.5t-166.5 49.5q-81 14 -142.5 35.5t-113.5 56t-79.5 89t-27.5 126.5q0 109 54.5 184t143 108.5t203.5 33.5q151 0 258.5 -53.5t159.5 -143.5l-198 -127q-37 56 -86 81.5t-121 25.5t-114 -24.5t-42 -76.5 q0 -43 49.5 -69t157.5 -45q75 -14 127.5 -29t101.5 -39t78 -56t46.5 -78.5t17.5 -107.5q0 -334 -416 -334q-171 0 -289.5 62t-171.5 176z" />
<glyph unicode="t" horiz-adv-x="790" d="M37 799v231h170v258h262v-258h258v-231h-258v-422q0 -91 29.5 -129.5t99.5 -38.5t127 24l8 -221q-67 -30 -192 -30q-95 0 -161.5 25t-103.5 73.5t-53 110.5t-16 145v463h-170z" />
<glyph unicode="u" horiz-adv-x="1177" d="M102 426v604h263v-557q0 -260 202 -260q107 0 167.5 77t60.5 199v541h262v-1030h-258v150q-105 -173 -324 -173q-179 0 -276 114.5t-97 334.5z" />
<glyph unicode="v" horiz-adv-x="1112" d="M18 1030h293l250 -758l242 758h291l-389 -1030h-287z" />
<glyph unicode="w" horiz-adv-x="1570" d="M18 1030h277l166 -725l209 725h231l211 -725l164 725h276l-292 -1030h-265l-209 680l-211 -680h-262z" />
<glyph unicode="x" horiz-adv-x="1095" d="M12 0l348 535l-335 495h307l213 -342l211 342h309l-334 -500l352 -530h-307l-233 362l-224 -362h-307z" />
<glyph unicode="y" horiz-adv-x="1112" d="M20 1030h291l252 -754l240 754h291l-533 -1431h-278l157 401z" />
<glyph unicode="z" horiz-adv-x="997" d="M80 0v164l467 635h-461v231h815v-164l-469 -635h502v-231h-854z" />
<glyph unicode="{" horiz-adv-x="782" d="M8 465v209h37q76 0 117 46.5t41 129.5v283q0 157 85.5 246t243.5 89h216v-231h-158q-58 0 -92.5 -38t-34.5 -101v-248q0 -221 -197 -283q197 -62 197 -280v-244q0 -63 34.5 -101t92.5 -38h158v-230h-216q-158 0 -243.5 88.5t-85.5 245.5v279q0 83 -41 130.5t-117 47.5 h-37z" />
<glyph unicode="|" horiz-adv-x="575" d="M166 -401v2048h246v-2048h-246z" />
<glyph unicode="}" horiz-adv-x="782" d="M33 -96h157q60 0 94.5 38t34.5 101v244q0 218 197 280q-197 62 -197 283v248q0 63 -34.5 101t-94.5 38h-157v231h215q159 0 245.5 -89t86.5 -246v-283q0 -83 40.5 -129.5t116.5 -46.5h35v-209h-35q-75 0 -116 -47.5t-41 -130.5v-279q0 -157 -86 -245.5t-246 -88.5h-215 v230z" />
<glyph unicode="~" horiz-adv-x="1202" d="M100 547q29 139 114.5 214t203.5 75q55 0 111.5 -20.5t95.5 -45t85.5 -45t82.5 -20.5q38 0 67 9.5t50.5 29.5t34 37t28.5 46l129 -84q-30 -138 -115.5 -212t-204.5 -74q-55 0 -111 20.5t-94.5 45t-85 45t-83.5 20.5q-69 0 -108 -32t-73 -93z" />
<glyph unicode="&#xa1;" horiz-adv-x="546" d="M100 891q0 73 49 121.5t123 48.5q75 0 124.5 -48.5t49.5 -121.5t-49.5 -119.5t-124.5 -46.5q-74 0 -123 46.5t-49 119.5zM125 -401l43 981h209l43 -981h-295z" />
<glyph unicode="&#xa2;" horiz-adv-x="1103" d="M70 727q0 236 153.5 386.5t386.5 150.5q41 0 95 -7l61 189h147l-73 -227q156 -70 227 -215l-215 -113q-35 66 -86 102l-188 -577q12 -2 36 -2q180 0 252 168l217 -111q-61 -141 -184 -212t-283 -71q-46 0 -110 11l-64 -197h-145l76 236q-140 62 -221.5 191t-81.5 298z M319 727q0 -86 33.5 -155t93.5 -109l189 577h-23q-127 0 -210 -87.5t-83 -225.5z" />
<glyph unicode="&#xa3;" horiz-adv-x="1230" d="M70 0v246h170v336h-156v221h156v129q0 252 128.5 394t352.5 142q160 0 274.5 -71.5t171.5 -198.5l-202 -145q-33 79 -85 119t-141 40q-119 0 -173 -73t-54 -213v-123h430v-221h-430v-336h666v-246h-1108z" />
<glyph unicode="&#xa4;" horiz-adv-x="1165" d="M59 334l136 137q-72 112 -72 248q0 140 72 252l-136 137l136 137l143 -141q106 61 242 61q134 0 247 -61l142 141l137 -137l-137 -139q69 -107 69 -250q0 -139 -69 -246l137 -137l-137 -139l-140 141q-107 -66 -249 -66q-135 0 -244 64l-139 -139zM360 719 q0 -98 61 -162.5t159 -64.5q102 0 161.5 64t59.5 163t-59.5 163t-161.5 64q-98 0 -159 -64.5t-61 -162.5z" />
<glyph unicode="&#xa5;" horiz-adv-x="1277" d="M4 1446h322l313 -627l311 627h322l-377 -698h215v-162h-301l-31 -56v-94h332v-162h-332v-274h-280v274h-330v162h330v96l-29 54h-301v162h213z" />
<glyph unicode="&#xa6;" horiz-adv-x="575" d="M166 -401v819h246v-819h-246zM166 827v820h246v-820h-246z" />
<glyph unicode="&#xa7;" horiz-adv-x="1118" d="M88 -47l213 139q81 -149 262 -149q89 0 141 35.5t52 99.5q0 63 -54 96.5t-182 65.5q-71 18 -121.5 35t-104.5 46t-87 63.5t-54.5 86.5t-21.5 117q0 92 40.5 164.5t113.5 117.5q-154 93 -154 283q0 167 113.5 269t306.5 102q162 0 280 -67t152 -165l-209 -129 q-73 131 -213 131q-73 0 -118.5 -37t-45.5 -102q0 -67 56 -100t188 -64q70 -17 121.5 -34t102 -45t81.5 -62.5t50.5 -85t19.5 -113.5q0 -187 -160 -280q166 -88 166 -285q0 -173 -119 -273t-330 -100q-180 0 -305 65t-180 175zM362 635q0 -79 56.5 -118.5t218.5 -74.5 q70 14 107.5 54t37.5 102q0 48 -20.5 80t-79.5 59.5t-166 48.5q-20 3 -37 9q-52 -19 -84.5 -64t-32.5 -96z" />
<glyph unicode="&#xa8;" horiz-adv-x="759" d="M20 1339q0 62 43 104t109 42q64 0 108 -42t44 -104t-44 -104.5t-108 -42.5q-65 0 -108.5 42.5t-43.5 104.5zM436 1339q0 62 44 104t108 42t107.5 -42t43.5 -104q0 -61 -43.5 -104t-107.5 -43t-108 43t-44 104z" />
<glyph unicode="&#xa9;" horiz-adv-x="1681" d="M92 723q0 213 96.5 383.5t268 266t385.5 95.5q160 0 299.5 -56t238 -154t155 -236.5t56.5 -298.5q0 -213 -96 -383.5t-267.5 -266.5t-385.5 -96t-385.5 96t-268 266.5t-96.5 383.5zM250 723q0 -170 76 -305.5t211 -212t305 -76.5q169 0 304.5 76.5t211.5 212t76 305.5 t-76 305.5t-211.5 212t-304.5 76.5q-170 0 -305 -76.5t-211 -212t-76 -305.5zM449 719q0 178 115 289.5t290 111.5q119 0 213 -52t135 -140l-190 -101q-23 43 -63 69t-91 26q-80 0 -133 -56.5t-53 -146.5t53 -146.5t135 -56.5q116 0 164 111l188 -99q-43 -106 -136.5 -159.5 t-217.5 -53.5q-182 0 -295.5 111.5t-113.5 292.5z" />
<glyph unicode="&#xaa;" horiz-adv-x="880" d="M57 1104q0 157 92.5 256.5t233.5 99.5q135 0 211 -96v82h213v-684h-213v84q-78 -96 -211 -96q-142 0 -234 99t-92 255zM272 1104q0 -77 45.5 -125.5t120.5 -48.5q73 0 117.5 48.5t44.5 125.5q0 78 -44.5 126t-117.5 48q-75 0 -120.5 -48t-45.5 -126z" />
<glyph unicode="&#xab;" horiz-adv-x="1163" d="M41 510l338 496l194 -136l-245 -360l245 -356l-194 -138zM567 510l338 496l195 -136l-248 -360l248 -356l-195 -138z" />
<glyph unicode="&#xac;" horiz-adv-x="1132" d="M86 684v238h961v-560h-259v322h-702z" />
<glyph unicode="&#xad;" horiz-adv-x="925" d="M98 395v238h727v-238h-727z" />
<glyph unicode="&#xae;" horiz-adv-x="1034" d="M63 1022q0 195 126 320.5t327 125.5q202 0 328.5 -125.5t126.5 -320.5q0 -196 -126.5 -321.5t-328.5 -125.5q-201 0 -327 125.5t-126 321.5zM147 1022q0 -161 103 -265t266 -104q165 0 268 104t103 265q0 160 -103.5 264.5t-267.5 104.5t-266.5 -104.5t-102.5 -264.5z M330 793v469h223q77 0 116.5 -39t39.5 -103q0 -95 -82 -121l118 -206h-141l-92 170h-59v-170h-123zM449 1047h67q70 0 70 59q0 30 -19.5 44.5t-50.5 14.5h-67v-118z" />
<glyph unicode="&#xaf;" horiz-adv-x="759" d="M84 1227v203h592v-203h-592z" />
<glyph unicode="&#xb0;" horiz-adv-x="901" d="M63 1153q0 160 110 265.5t280 105.5q167 0 276 -105.5t109 -265.5q0 -159 -108.5 -264t-276.5 -105q-170 0 -280 105t-110 264zM279 1155q0 -74 48.5 -123t125.5 -49q75 0 122.5 48.5t47.5 121.5q0 74 -47 123t-123 49q-77 0 -125.5 -48t-48.5 -122z" />
<glyph unicode="&#xb1;" horiz-adv-x="1155" d="M86 0v238h983v-238h-983zM86 745v238h371v371h241v-371h371v-238h-371v-370h-241v370h-371z" />
<glyph unicode="&#xb2;" horiz-adv-x="761" d="M27 1489q41 72 130 119t210 47q150 0 233.5 -69t83.5 -193q0 -103 -54 -177.5t-186 -177.5l-77 -61h340v-203h-658v154l170 145q46 39 66 57t54 49t49.5 49.5t33.5 43.5t24.5 46.5t6.5 43.5q0 86 -111 86q-104 0 -160 -92z" />
<glyph unicode="&#xb3;" horiz-adv-x="768" d="M25 897l139 143q28 -41 78 -65.5t108 -24.5q59 0 94 30.5t35 82.5q0 55 -35.5 87t-95.5 32q-56 0 -92 -19l-68 92l201 185h-309v192h590v-162l-193 -174q107 -17 170.5 -87t63.5 -175q0 -136 -94.5 -209t-243.5 -73q-241 0 -348 145z" />
<glyph unicode="&#xb4;" horiz-adv-x="759" d="M158 1161l155 340h289l-217 -340h-227z" />
<glyph unicode="&#xb5;" horiz-adv-x="1167" d="M92 -401v1431h262v-557q0 -260 203 -260q109 0 168 76.5t59 199.5v541h263v-1030h-250v158q-40 -85 -107 -130.5t-155 -45.5q-110 0 -181 65v-448h-262z" />
<glyph unicode="&#xb6;" horiz-adv-x="1013" d="M70 1038q0 186 126 297t341 111h319v-1847h-272v1011h-35q-220 0 -349.5 116t-129.5 312z" />
<glyph unicode="&#xb7;" horiz-adv-x="546" d="M100 516q0 73 49 119.5t123 46.5q75 0 124.5 -46.5t49.5 -119.5t-49.5 -121.5t-124.5 -48.5q-74 0 -123 48.5t-49 121.5z" />
<glyph unicode="&#xb8;" horiz-adv-x="759" d="M139 -295q106 -27 170 -27q88 0 88 64q0 68 -133 68h-31v213h179v-117q98 -15 153.5 -64t55.5 -127q0 -100 -73.5 -155.5t-213.5 -55.5q-97 0 -195 29v172z" />
<glyph unicode="&#xb9;" horiz-adv-x="626" d="M25 1491l413 154h78v-871h-233v600l-193 -69z" />
<glyph unicode="&#xba;" horiz-adv-x="874" d="M57 1104q0 162 104.5 259t276.5 97t275.5 -97.5t103.5 -258.5q0 -160 -103.5 -258t-275.5 -98q-173 0 -277 98t-104 258zM274 1104q0 -74 45.5 -121t118.5 -47q72 0 117 47t45 121q0 75 -45 121.5t-117 46.5q-73 0 -118.5 -46.5t-45.5 -121.5z" />
<glyph unicode="&#xbb;" horiz-adv-x="1163" d="M66 154l245 356l-245 360l194 136l338 -496l-338 -494zM590 154l248 356l-248 360l194 136l338 -496l-338 -494z" />
<glyph unicode="&#xbc;" horiz-adv-x="1806" d="M25 1305l413 153h78v-870h-233v600l-193 -70zM311 0l846 1446h246l-844 -1446h-248zM1034 145v170l230 543h235l-221 -534h209v231h190v-231h92v-179h-92v-145h-207v145h-436z" />
<glyph unicode="&#xbd;" horiz-adv-x="1849" d="M25 1305l413 153h78v-870h-233v600l-193 -70zM311 0l846 1446h246l-844 -1446h-248zM1114 715q41 72 130 119t210 47q150 0 234 -69.5t84 -193.5q0 -71 -28 -129.5t-75.5 -106.5t-136.5 -118l-78 -61h340v-203h-657v154l170 145q53 45 78 67.5t61.5 58t52.5 58t28.5 51 t12.5 54.5q0 86 -110 86q-104 0 -160 -92z" />
<glyph unicode="&#xbe;" horiz-adv-x="1929" d="M25 711l139 143q28 -41 78 -65.5t108 -24.5q59 0 94 30.5t35 82.5q0 55 -35.5 86.5t-95.5 31.5q-58 0 -92 -18l-68 92l201 184h-309v193h590v-162l-193 -174q107 -17 170.5 -87t63.5 -175q0 -136 -94.5 -209.5t-243.5 -73.5q-240 0 -348 146zM434 0l846 1446h246 l-844 -1446h-248zM1157 145v170l229 543h236l-221 -534h209v231h190v-231h92v-179h-92v-145h-207v145h-436z" />
<glyph unicode="&#xbf;" horiz-adv-x="931" d="M72 -43q0 62 19 119.5t49 102.5t66.5 86.5t73.5 79.5t67.5 74t50.5 77.5t22 83.5h229q0 -80 -31 -151t-75.5 -122t-88.5 -98.5t-75 -103t-31 -113.5q0 -79 56 -126.5t147 -47.5q76 0 138.5 44t96.5 130l218 -113q-47 -140 -175.5 -221.5t-298.5 -81.5q-127 0 -230 44.5 t-165.5 132t-62.5 204.5zM348 889q0 73 49 121.5t123 48.5q75 0 124.5 -48.5t49.5 -121.5t-49.5 -119.5t-124.5 -46.5q-74 0 -123 46.5t-49 119.5z" />
<glyph unicode="&#xc0;" horiz-adv-x="1366" d="M10 0l514 1446h320l512 -1446h-293l-102 307h-555l-103 -307h-293zM356 1882h287l160 -330h-232zM489 555h388l-195 600z" />
<glyph unicode="&#xc1;" horiz-adv-x="1366" d="M10 0l514 1446h320l512 -1446h-293l-102 307h-555l-103 -307h-293zM489 555h388l-195 600zM565 1552l160 330h287l-215 -330h-232z" />
<glyph unicode="&#xc2;" horiz-adv-x="1366" d="M10 0l514 1446h320l512 -1446h-293l-102 307h-555l-103 -307h-293zM319 1552l252 330h228l252 -330h-240l-125 179l-127 -179h-240zM489 555h388l-195 600z" />
<glyph unicode="&#xc3;" horiz-adv-x="1366" d="M10 0l514 1446h320l512 -1446h-293l-102 307h-555l-103 -307h-293zM330 1567q0 138 60 217.5t161 79.5q44 0 85 -17t65.5 -37.5t50 -37.5t43.5 -17q49 0 49 98h194q0 -138 -59.5 -217.5t-161.5 -79.5q-43 0 -83 17t-64.5 37.5t-50.5 37.5t-44 17q-53 0 -53 -98h-192z M489 555h388l-195 600z" />
<glyph unicode="&#xc4;" horiz-adv-x="1366" d="M10 0l514 1446h320l512 -1446h-293l-102 307h-555l-103 -307h-293zM324 1716q0 62 43 104t108 42q64 0 108 -42t44 -104t-44 -104.5t-108 -42.5q-65 0 -108 42.5t-43 104.5zM489 555h388l-195 600zM741 1716q0 61 43 103.5t107 42.5t108.5 -43t44.5 -103 q0 -62 -44.5 -104.5t-108.5 -42.5t-107 42.5t-43 104.5z" />
<glyph unicode="&#xc5;" horiz-adv-x="1366" d="M10 0l514 1446h320l512 -1446h-293l-102 307h-555l-103 -307h-293zM440 1743q0 98 69.5 160.5t174.5 62.5q106 0 174 -62.5t68 -160.5t-68 -161.5t-174 -63.5t-175 63.5t-69 161.5zM489 555h388l-195 600zM582 1743q0 -43 29 -70.5t71 -27.5q45 0 73.5 27t28.5 71 q0 43 -28.5 70.5t-73.5 27.5q-42 0 -71 -28t-29 -70z" />
<glyph unicode="&#xc6;" horiz-adv-x="1937" d="M10 0l756 1446h1067v-256h-631v-344h545v-248h-545v-342h647v-256h-919v301h-457l-154 -301h-309zM598 547h332v649h-2z" />
<glyph unicode="&#xc7;" horiz-adv-x="1538" d="M92 723q0 217 97 387.5t268 264t385 93.5q222 0 391 -100.5t237 -271.5l-251 -133q-40 115 -141.5 181t-239.5 66q-199 0 -329 -136.5t-130 -350.5q0 -215 130 -351t337 -136q145 0 251 71.5t150 204.5l252 -123q-69 -186 -220.5 -290.5t-358.5 -118.5v-74 q96 -15 151 -64t55 -127q0 -100 -72 -155.5t-214 -55.5q-97 0 -195 29v172q106 -27 170 -27q88 0 88 64q0 68 -133 68h-31v174q-290 37 -468.5 238t-178.5 501z" />
<glyph unicode="&#xc8;" horiz-adv-x="1161" d="M150 0v1446h907v-256h-631v-344h545v-248h-545v-342h647v-256h-923zM276 1882h287l160 -330h-231z" />
<glyph unicode="&#xc9;" horiz-adv-x="1161" d="M150 0v1446h907v-256h-631v-344h545v-248h-545v-342h647v-256h-923zM483 1552l160 330h287l-215 -330h-232z" />
<glyph unicode="&#xca;" horiz-adv-x="1161" d="M150 0v1446h907v-256h-631v-344h545v-248h-545v-342h647v-256h-923zM238 1552l251 330h228l252 -330h-240l-125 179l-127 -179h-239z" />
<glyph unicode="&#xcb;" horiz-adv-x="1161" d="M150 0v1446h907v-256h-631v-344h545v-248h-545v-342h647v-256h-923zM244 1716q0 62 43 104t108 42q64 0 108 -42t44 -104t-44 -104.5t-108 -42.5q-65 0 -108 42.5t-43 104.5zM662 1716q0 61 42.5 103.5t106.5 42.5t109 -43t45 -103q0 -62 -45 -104.5t-109 -42.5 t-106.5 42.5t-42.5 104.5z" />
<glyph unicode="&#xcc;" horiz-adv-x="600" d="M-27 1882h287l160 -330h-232zM158 0v1446h284v-1446h-284z" />
<glyph unicode="&#xcd;" horiz-adv-x="600" d="M158 0v1446h284v-1446h-284zM180 1552l160 330h287l-215 -330h-232z" />
<glyph unicode="&#xce;" horiz-adv-x="600" d="M-66 1552l252 330h228l252 -330h-240l-125 179l-127 -179h-240zM158 0v1446h284v-1446h-284z" />
<glyph unicode="&#xcf;" horiz-adv-x="600" d="M-59 1716q0 62 43 104t108 42q64 0 108 -42t44 -104t-44 -104.5t-108 -42.5q-65 0 -108 42.5t-43 104.5zM158 0v1446h284v-1446h-284zM358 1716q0 61 43 103.5t107 42.5t109 -43t45 -103q0 -62 -45 -104.5t-109 -42.5t-107 42.5t-43 104.5z" />
<glyph unicode="&#xd0;" horiz-adv-x="1505" d="M-2 604v234h192v608h492q232 0 398.5 -91.5t249.5 -253.5t83 -378q0 -162 -46.5 -294.5t-136 -228t-227 -148t-311.5 -52.5h-502v604h-192zM471 256h219q222 0 328 125t106 342q0 216 -110.5 341.5t-333.5 125.5h-209v-352h344v-234h-344v-348z" />
<glyph unicode="&#xd1;" horiz-adv-x="1480" d="M150 0v1446h270l635 -950v950h276v-1446h-270l-635 950v-950h-276zM383 1567q0 138 60 217.5t161 79.5q44 0 85 -17t65.5 -37.5t50 -37.5t43.5 -17q49 0 49 98h195q0 -137 -60 -217t-162 -80q-43 0 -83 17t-64 37.5t-50 37.5t-44 17q-54 0 -54 -98h-192z" />
<glyph unicode="&#xd2;" horiz-adv-x="1695" d="M92 723q0 163 58.5 302.5t159.5 236t240.5 151.5t297.5 55q160 0 299.5 -54.5t240 -151.5t158.5 -236.5t58 -302.5q0 -217 -99 -388t-271 -264.5t-386 -93.5q-212 0 -384 93.5t-272 264.5t-100 388zM379 723q0 -214 133.5 -350.5t335.5 -136.5q205 0 337 136.5t132 350.5 t-132 350.5t-337 136.5q-202 0 -335.5 -136.5t-133.5 -350.5zM520 1882h287l160 -330h-232z" />
<glyph unicode="&#xd3;" horiz-adv-x="1695" d="M92 723q0 163 58.5 302.5t159.5 236t240.5 151.5t297.5 55q160 0 299.5 -54.5t240 -151.5t158.5 -236.5t58 -302.5q0 -217 -99 -388t-271 -264.5t-386 -93.5q-212 0 -384 93.5t-272 264.5t-100 388zM379 723q0 -214 133.5 -350.5t335.5 -136.5q205 0 337 136.5t132 350.5 t-132 350.5t-337 136.5q-202 0 -335.5 -136.5t-133.5 -350.5zM729 1552l160 330h287l-215 -330h-232z" />
<glyph unicode="&#xd4;" horiz-adv-x="1695" d="M92 723q0 163 58.5 302.5t159.5 236t240.5 151.5t297.5 55q160 0 299.5 -54.5t240 -151.5t158.5 -236.5t58 -302.5q0 -217 -99 -388t-271 -264.5t-386 -93.5q-212 0 -384 93.5t-272 264.5t-100 388zM379 723q0 -214 133.5 -350.5t335.5 -136.5q205 0 337 136.5t132 350.5 t-132 350.5t-337 136.5q-202 0 -335.5 -136.5t-133.5 -350.5zM483 1552l252 330h228l251 -330h-239l-125 179l-127 -179h-240z" />
<glyph unicode="&#xd5;" horiz-adv-x="1695" d="M92 723q0 163 58.5 302.5t159.5 236t240.5 151.5t297.5 55q160 0 299.5 -54.5t240 -151.5t158.5 -236.5t58 -302.5q0 -217 -99 -388t-271 -264.5t-386 -93.5q-212 0 -384 93.5t-272 264.5t-100 388zM379 723q0 -214 133.5 -350.5t335.5 -136.5q205 0 337 136.5t132 350.5 t-132 350.5t-337 136.5q-202 0 -335.5 -136.5t-133.5 -350.5zM494 1567q0 138 60 217.5t161 79.5q44 0 85 -17t65.5 -37.5t49.5 -37.5t43 -17q50 0 50 98h194q0 -138 -59.5 -217.5t-161.5 -79.5q-43 0 -83 17t-64.5 37.5t-50.5 37.5t-44 17q-53 0 -53 -98h-192z" />
<glyph unicode="&#xd6;" horiz-adv-x="1695" d="M92 723q0 163 58.5 302.5t159.5 236t240.5 151.5t297.5 55q160 0 299.5 -54.5t240 -151.5t158.5 -236.5t58 -302.5q0 -217 -99 -388t-271 -264.5t-386 -93.5q-212 0 -384 93.5t-272 264.5t-100 388zM379 723q0 -214 133.5 -350.5t335.5 -136.5q205 0 337 136.5t132 350.5 t-132 350.5t-337 136.5q-202 0 -335.5 -136.5t-133.5 -350.5zM487 1716q0 62 43 104t109 42q64 0 108 -42t44 -104t-44 -104.5t-108 -42.5q-65 0 -108.5 42.5t-43.5 104.5zM905 1716q0 61 43 103.5t107 42.5t108.5 -43t44.5 -103q0 -62 -44.5 -104.5t-108.5 -42.5t-107 42.5 t-43 104.5z" />
<glyph unicode="&#xd7;" horiz-adv-x="1171" d="M86 313l332 332l-330 332l166 166l332 -330l332 332l167 -168l-331 -332l331 -332l-167 -168l-332 332l-332 -332z" />
<glyph unicode="&#xd8;" horiz-adv-x="1695" d="M92 723q0 163 58.5 302.5t159.5 236t240.5 151.5t297.5 55q182 0 338 -69l57 86h254l-135 -201q115 -100 178.5 -243.5t63.5 -317.5q0 -217 -99 -388t-271 -264.5t-386 -93.5q-172 0 -330 68l-69 -104h-248l143 213q-119 100 -185.5 246t-66.5 323zM379 723 q0 -204 121 -338l534 791q-81 34 -186 34q-202 0 -335.5 -136.5t-133.5 -350.5zM670 268q77 -32 178 -32q205 0 337 136.5t132 350.5q0 198 -113 330z" />
<glyph unicode="&#xd9;" horiz-adv-x="1404" d="M121 584v862h280v-852q0 -177 68.5 -267.5t232.5 -90.5t233 90.5t69 267.5v852h280v-862q0 -294 -143 -450.5t-439 -156.5q-581 0 -581 607zM375 1882h287l159 -330h-231z" />
<glyph unicode="&#xda;" horiz-adv-x="1404" d="M121 584v862h280v-852q0 -177 68.5 -267.5t232.5 -90.5t233 90.5t69 267.5v852h280v-862q0 -294 -143 -450.5t-439 -156.5q-581 0 -581 607zM584 1552l159 330h287l-215 -330h-231z" />
<glyph unicode="&#xdb;" horiz-adv-x="1404" d="M121 584v862h280v-852q0 -177 68.5 -267.5t232.5 -90.5t233 90.5t69 267.5v852h280v-862q0 -294 -143 -450.5t-439 -156.5q-581 0 -581 607zM338 1552l252 330h227l252 -330h-240l-124 179l-127 -179h-240z" />
<glyph unicode="&#xdc;" horiz-adv-x="1404" d="M121 584v862h280v-852q0 -177 68.5 -267.5t232.5 -90.5t233 90.5t69 267.5v852h280v-862q0 -294 -143 -450.5t-439 -156.5q-581 0 -581 607zM342 1716q0 62 43 104t109 42q64 0 107.5 -42t43.5 -104t-43.5 -104.5t-107.5 -42.5q-65 0 -108.5 42.5t-43.5 104.5zM760 1716 q0 61 42.5 103.5t106.5 42.5t109 -43t45 -103q0 -62 -45 -104.5t-109 -42.5t-106.5 42.5t-42.5 104.5z" />
<glyph unicode="&#xdd;" horiz-adv-x="1277" d="M4 1446h322l313 -627l311 627h322l-494 -916v-530h-280v532zM520 1552l160 330h287l-215 -330h-232z" />
<glyph unicode="&#xde;" horiz-adv-x="1239" d="M150 0v1446h280v-248h272q240 0 353.5 -117.5t113.5 -330.5q0 -226 -123 -347.5t-356 -121.5h-260v-281h-280zM430 528h215q123 0 180.5 47.5t57.5 165.5q0 112 -52 158.5t-184 46.5h-217v-418z" />
<glyph unicode="&#xdf;" horiz-adv-x="1294" d="M37 799v231h168v100q0 201 96 297.5t297 96.5q81 0 127 -11l-2 -217q-46 11 -94 11q-46 0 -73 -7t-49 -28t-31 -61.5t-9 -106.5v-74h690v-196l-278 -353q176 -5 278.5 -117.5t102.5 -310.5q0 -228 -142.5 -348.5t-380.5 -120.5q-112 0 -205 27l62 233q64 -22 147 -22 q119 0 186.5 68t67.5 184q0 104 -59.5 163.5t-165.5 59.5q-41 0 -115 -18l-90 129l293 391h-391v-799h-262v799h-168z" />
<glyph unicode="&#xe0;" d="M70 514q0 239 131 389t338 150q224 0 327 -174v151h262v-1030h-262v152q-106 -175 -329 -175q-206 0 -336.5 149t-130.5 388zM289 1501h286l158 -340h-229zM334 514q0 -132 75.5 -215.5t194.5 -83.5q118 0 192 82.5t74 216.5t-74 216.5t-192 82.5q-119 0 -194.5 -83 t-75.5 -216z" />
<glyph unicode="&#xe1;" d="M70 514q0 239 131 389t338 150q224 0 327 -174v151h262v-1030h-262v152q-106 -175 -329 -175q-206 0 -336.5 149t-130.5 388zM334 514q0 -132 75.5 -215.5t194.5 -83.5q118 0 192 82.5t74 216.5t-74 216.5t-192 82.5q-119 0 -194.5 -83t-75.5 -216zM496 1161l157 340h287 l-217 -340h-227z" />
<glyph unicode="&#xe2;" d="M70 514q0 239 131 389t338 150q224 0 327 -174v151h262v-1030h-262v152q-106 -175 -329 -175q-206 0 -336.5 149t-130.5 388zM242 1161l258 340h227l258 -340h-242l-129 182l-131 -182h-241zM334 514q0 -132 75.5 -215.5t194.5 -83.5q118 0 192 82.5t74 216.5t-74 216.5 t-192 82.5q-119 0 -194.5 -83t-75.5 -216z" />
<glyph unicode="&#xe3;" d="M70 514q0 239 131 389t338 150q224 0 327 -174v151h262v-1030h-262v152q-106 -175 -329 -175q-206 0 -336.5 149t-130.5 388zM260 1178q0 138 60.5 217.5t162.5 79.5q56 0 104.5 -27.5t83 -54.5t56.5 -27q49 0 49 100h195q0 -138 -60 -218.5t-161 -80.5q-44 0 -84.5 17 t-64.5 37.5t-49.5 37.5t-43.5 17q-55 0 -55 -98h-193zM334 514q0 -132 75.5 -215.5t194.5 -83.5q118 0 192 82.5t74 216.5t-74 216.5t-192 82.5q-119 0 -194.5 -83t-75.5 -216z" />
<glyph unicode="&#xe4;" d="M70 514q0 239 131 389t338 150q224 0 327 -174v151h262v-1030h-262v152q-106 -175 -329 -175q-206 0 -336.5 149t-130.5 388zM254 1339q0 62 43 104t109 42q64 0 107.5 -42t43.5 -104t-43.5 -104.5t-107.5 -42.5q-65 0 -108.5 42.5t-43.5 104.5zM334 514 q0 -132 75.5 -215.5t194.5 -83.5q118 0 192 82.5t74 216.5t-74 216.5t-192 82.5q-119 0 -194.5 -83t-75.5 -216zM672 1339q0 62 42.5 104t106.5 42q65 0 109.5 -42.5t44.5 -103.5q0 -60 -45 -103.5t-109 -43.5t-106.5 43t-42.5 104z" />
<glyph unicode="&#xe5;" d="M70 514q0 239 131 389t338 150q224 0 327 -174v151h262v-1030h-262v152q-106 -175 -329 -175q-206 0 -336.5 149t-130.5 388zM334 514q0 -132 75.5 -215.5t194.5 -83.5q118 0 192 82.5t74 216.5t-74 216.5t-192 82.5q-119 0 -194.5 -83t-75.5 -216zM371 1378 q0 98 68.5 162t174.5 64q104 0 173 -64t69 -162t-68.5 -160.5t-173.5 -62.5q-106 0 -174.5 62.5t-68.5 160.5zM512 1378q0 -43 28.5 -70.5t71.5 -27.5q44 0 73.5 27.5t29.5 70.5t-29.5 72t-73.5 29q-42 0 -71 -28.5t-29 -72.5z" />
<glyph unicode="&#xe6;" horiz-adv-x="1837" d="M51 332q0 155 100.5 242.5t272.5 87.5q94 0 181.5 -25.5t131.5 -61.5v58q0 99 -65.5 151t-163.5 52q-142 0 -242 -97l-180 138q64 83 176 129.5t246 46.5q113 0 211 -38.5t158 -119.5q142 158 383 158q229 0 370.5 -147.5t141.5 -391.5q0 -13 -5 -86h-780 q18 -101 96 -162t205 -61q172 0 268 123l199 -133q-64 -106 -191.5 -162t-281.5 -56q-263 0 -405 158q-124 -158 -385 -158q-198 0 -319.5 92t-121.5 263zM307 338q0 -73 52 -109t137 -36q102 0 169.5 49.5t71.5 142.5q-77 88 -241 88q-189 0 -189 -135zM989 616h524 q-20 102 -87 162t-166 60q-104 0 -177.5 -61t-93.5 -161z" />
<glyph unicode="&#xe7;" horiz-adv-x="1107" d="M70 514q0 237 153 388t387 151q159 0 281.5 -69.5t179.5 -190.5l-227 -123q-35 70 -95.5 107.5t-136.5 37.5q-121 0 -199.5 -83.5t-78.5 -217.5q0 -131 80 -215t202 -84q172 0 242 164l229 -119q-54 -127 -158 -196.5t-243 -81.5v-76q96 -15 151.5 -64t55.5 -127 q0 -100 -72.5 -155.5t-214.5 -55.5q-96 0 -194 29v172q106 -27 170 -27q88 0 88 64q0 68 -133 68h-31v178q-197 34 -316.5 175.5t-119.5 350.5z" />
<glyph unicode="&#xe8;" horiz-adv-x="1185" d="M70 514q0 238 151.5 388.5t386.5 150.5q229 0 370.5 -147.5t141.5 -391.5q0 -42 -6 -86h-778q18 -101 96 -162t205 -61q172 0 266 123l201 -133q-64 -106 -191.5 -162t-281.5 -56q-257 0 -409 149t-152 388zM283 1501h286l158 -340h-229zM338 614h524q-19 104 -86.5 165 t-167.5 61q-105 0 -178 -61.5t-92 -164.5z" />
<glyph unicode="&#xe9;" horiz-adv-x="1185" d="M70 514q0 238 151.5 388.5t386.5 150.5q229 0 370.5 -147.5t141.5 -391.5q0 -42 -6 -86h-778q18 -101 96 -162t205 -61q172 0 266 123l201 -133q-64 -106 -191.5 -162t-281.5 -56q-257 0 -409 149t-152 388zM338 614h524q-19 104 -86.5 165t-167.5 61q-105 0 -178 -61.5 t-92 -164.5zM489 1161l158 340h287l-217 -340h-228z" />
<glyph unicode="&#xea;" horiz-adv-x="1185" d="M70 514q0 238 151.5 388.5t386.5 150.5q229 0 370.5 -147.5t141.5 -391.5q0 -42 -6 -86h-778q18 -101 96 -162t205 -61q172 0 266 123l201 -133q-64 -106 -191.5 -162t-281.5 -56q-257 0 -409 149t-152 388zM236 1161l258 340h227l258 -340h-242l-129 182l-131 -182h-241 zM338 614h524q-19 104 -86.5 165t-167.5 61q-105 0 -178 -61.5t-92 -164.5z" />
<glyph unicode="&#xeb;" horiz-adv-x="1185" d="M70 514q0 238 151.5 388.5t386.5 150.5q229 0 370.5 -147.5t141.5 -391.5q0 -42 -6 -86h-778q18 -101 96 -162t205 -61q172 0 266 123l201 -133q-64 -106 -191.5 -162t-281.5 -56q-257 0 -409 149t-152 388zM248 1339q0 62 43 104t108 42q64 0 108 -42t44 -104 t-44 -104.5t-108 -42.5q-65 0 -108 42.5t-43 104.5zM338 614h524q-19 104 -86.5 165t-167.5 61q-105 0 -178 -61.5t-92 -164.5zM666 1339q0 62 42.5 104t106.5 42q65 0 109.5 -42.5t44.5 -103.5q0 -60 -45 -103.5t-109 -43.5t-106.5 43t-42.5 104z" />
<glyph unicode="&#xec;" horiz-adv-x="540" d="M-31 1501h279l153 -340h-229zM137 0v1030h266v-1030h-266z" />
<glyph unicode="&#xed;" horiz-adv-x="540" d="M137 0v1030h266v-1030h-266zM139 1161l152 340h280l-202 -340h-230z" />
<glyph unicode="&#xee;" horiz-adv-x="540" d="M-23 1161l189 340h213l186 -340h-211l-82 182l-84 -182h-211zM137 0v1030h266v-1030h-266z" />
<glyph unicode="&#xef;" horiz-adv-x="540" d="M-53 1339q0 62 40.5 104t102.5 42q61 0 102 -42t41 -104t-41 -104.5t-102 -42.5q-62 0 -102.5 42.5t-40.5 104.5zM137 0v1030h266v-1030h-266zM307 1339q0 62 41 104t101 42q61 0 103 -42t42 -104q0 -61 -42 -104t-103 -43q-60 0 -101 43.5t-41 103.5z" />
<glyph unicode="&#xf0;" horiz-adv-x="1232" d="M70 504q0 147 66 266t176 184.5t239 65.5q155 0 264 -84q-54 102 -176 221l-244 -119l-84 176l168 82q-30 25 -137 107l160 153q104 -74 196 -151l275 133l86 -176l-207 -100q311 -325 311 -691q0 -143 -41 -257t-114 -187t-171.5 -111.5t-215.5 -38.5q-154 0 -280 66.5 t-198.5 187.5t-72.5 273zM334 510q0 -129 80.5 -212t203.5 -83t203 83.5t80 215.5t-79 210.5t-204 78.5q-123 0 -203.5 -83t-80.5 -210z" />
<glyph unicode="&#xf1;" horiz-adv-x="1193" d="M127 0v1030h258v-151q52 86 137 130t193 44q179 0 274.5 -112t95.5 -331v-610h-262v561q0 134 -49 195t-149 61q-107 0 -171.5 -77.5t-64.5 -198.5v-541h-262zM254 1178q0 138 60.5 217.5t162.5 79.5q56 0 104.5 -27.5t83 -54.5t56.5 -27q49 0 49 100h195 q0 -138 -60.5 -218.5t-161.5 -80.5q-56 0 -104 27.5t-82 54.5t-55 27q-56 0 -56 -98h-192z" />
<glyph unicode="&#xf2;" horiz-adv-x="1234" d="M70 514q0 156 72.5 280t197 191.5t278.5 67.5t279.5 -67.5t197.5 -191t72 -280.5q0 -156 -72 -279.5t-197 -190.5t-280 -67q-235 0 -391.5 150.5t-156.5 386.5zM293 1501h287l157 -340h-229zM334 514q0 -131 80 -215t204 -84q123 0 203 83.5t80 215.5q0 133 -79.5 216 t-203.5 83t-204 -83t-80 -216z" />
<glyph unicode="&#xf3;" horiz-adv-x="1234" d="M70 514q0 156 72.5 280t197 191.5t278.5 67.5t279.5 -67.5t197.5 -191t72 -280.5q0 -156 -72 -279.5t-197 -190.5t-280 -67q-235 0 -391.5 150.5t-156.5 386.5zM334 514q0 -131 80 -215t204 -84q123 0 203 83.5t80 215.5q0 133 -79.5 216t-203.5 83t-204 -83t-80 -216z M500 1161l157 340h287l-217 -340h-227z" />
<glyph unicode="&#xf4;" horiz-adv-x="1234" d="M70 514q0 156 72.5 280t197 191.5t278.5 67.5t279.5 -67.5t197.5 -191t72 -280.5q0 -156 -72 -279.5t-197 -190.5t-280 -67q-235 0 -391.5 150.5t-156.5 386.5zM246 1161l258 340h227l258 -340h-241l-130 182l-131 -182h-241zM334 514q0 -131 80 -215t204 -84 q123 0 203 83.5t80 215.5q0 133 -79.5 216t-203.5 83t-204 -83t-80 -216z" />
<glyph unicode="&#xf5;" horiz-adv-x="1234" d="M70 514q0 156 72.5 280t197 191.5t278.5 67.5t279.5 -67.5t197.5 -191t72 -280.5q0 -156 -72 -279.5t-197 -190.5t-280 -67q-235 0 -391.5 150.5t-156.5 386.5zM264 1178q0 138 60.5 217.5t162.5 79.5q56 0 104.5 -27.5t83 -54.5t56.5 -27q49 0 49 100h195 q0 -138 -60 -218.5t-161 -80.5q-44 0 -84.5 17t-64.5 37.5t-49.5 37.5t-43.5 17q-55 0 -55 -98h-193zM334 514q0 -131 80 -215t204 -84q123 0 203 83.5t80 215.5q0 133 -79.5 216t-203.5 83t-204 -83t-80 -216z" />
<glyph unicode="&#xf6;" horiz-adv-x="1234" d="M70 514q0 156 72.5 280t197 191.5t278.5 67.5t279.5 -67.5t197.5 -191t72 -280.5q0 -156 -72 -279.5t-197 -190.5t-280 -67q-235 0 -391.5 150.5t-156.5 386.5zM258 1339q0 62 43 104t109 42q64 0 107.5 -42t43.5 -104t-43.5 -104.5t-107.5 -42.5q-65 0 -108.5 42.5 t-43.5 104.5zM334 514q0 -131 80 -215t204 -84q123 0 203 83.5t80 215.5q0 133 -79.5 216t-203.5 83t-204 -83t-80 -216zM676 1339q0 62 42.5 104t106.5 42q65 0 109.5 -42.5t44.5 -103.5q0 -60 -45 -103.5t-109 -43.5t-106.5 43t-42.5 104z" />
<glyph unicode="&#xf7;" horiz-adv-x="1097" d="M86 526v238h926v-238h-926zM383 233q0 70 47.5 115t118.5 45q72 0 119 -45t47 -115t-47 -115.5t-119 -45.5q-71 0 -118.5 45.5t-47.5 115.5zM383 1063q0 70 47.5 115t118.5 45q72 0 119 -45t47 -115t-47 -116t-119 -46q-71 0 -118.5 46t-47.5 116z" />
<glyph unicode="&#xf8;" horiz-adv-x="1234" d="M70 514q0 156 72.5 280t197 191.5t278.5 67.5q123 0 232 -45l55 82h211l-119 -175q80 -74 125 -177t45 -224q0 -156 -72 -279.5t-197 -190.5t-280 -67q-113 0 -219 39l-57 -84h-209l119 172q-87 74 -134.5 178.5t-47.5 231.5zM334 514q0 -118 65 -199l326 480 q-50 18 -107 18q-124 0 -204 -83t-80 -216zM524 229q43 -14 94 -14q123 0 203 83.5t80 215.5q0 106 -55 186z" />
<glyph unicode="&#xf9;" horiz-adv-x="1177" d="M102 426v604h263v-557q0 -260 202 -260q107 0 167.5 77t60.5 199v541h262v-1030h-258v150q-105 -173 -324 -173q-179 0 -276 114.5t-97 334.5zM254 1501h287l157 -340h-229z" />
<glyph unicode="&#xfa;" horiz-adv-x="1177" d="M102 426v604h263v-557q0 -260 202 -260q107 0 167.5 77t60.5 199v541h262v-1030h-258v150q-105 -173 -324 -173q-179 0 -276 114.5t-97 334.5zM463 1161l158 340h286l-217 -340h-227z" />
<glyph unicode="&#xfb;" horiz-adv-x="1177" d="M102 426v604h263v-557q0 -260 202 -260q107 0 167.5 77t60.5 199v541h262v-1030h-258v150q-105 -173 -324 -173q-179 0 -276 114.5t-97 334.5zM207 1161l258 340h227l258 -340h-241l-129 182l-131 -182h-242z" />
<glyph unicode="&#xfc;" horiz-adv-x="1177" d="M102 426v604h263v-557q0 -260 202 -260q107 0 167.5 77t60.5 199v541h262v-1030h-258v150q-105 -173 -324 -173q-179 0 -276 114.5t-97 334.5zM221 1339q0 62 43 104t109 42q64 0 107.5 -42t43.5 -104t-43.5 -104.5t-107.5 -42.5q-65 0 -108.5 42.5t-43.5 104.5z M639 1339q0 62 42.5 104t106.5 42q65 0 109.5 -42.5t44.5 -103.5q0 -60 -45 -103.5t-109 -43.5t-106.5 43t-42.5 104z" />
<glyph unicode="&#xfd;" horiz-adv-x="1112" d="M20 1030h291l252 -754l240 754h291l-533 -1431h-278l157 401zM440 1161l158 340h287l-217 -340h-228z" />
<glyph unicode="&#xfe;" horiz-adv-x="1255" d="M127 -401v1902h262v-622q103 174 326 174q209 0 340 -150t131 -389t-131 -388t-338 -149q-110 0 -193.5 46t-134.5 129v-553h-262zM385 514q0 -134 73 -216.5t191 -82.5q120 0 195.5 83.5t75.5 215.5q0 133 -75.5 216t-195.5 83q-118 0 -191 -82.5t-73 -216.5z" />
<glyph unicode="&#xff;" horiz-adv-x="1112" d="M20 1030h291l252 -754l240 754h291l-533 -1431h-278l157 401zM197 1339q0 62 43 104t108 42q64 0 108 -42t44 -104t-44 -104.5t-108 -42.5q-65 0 -108 42.5t-43 104.5zM614 1339q0 62 43 104t107 42q65 0 109.5 -42.5t44.5 -103.5q0 -60 -45 -103.5t-109 -43.5t-107 43 t-43 104z" />
<glyph unicode="&#x152;" horiz-adv-x="1886" d="M92 723q0 160 52.5 293.5t150.5 228.5t245.5 148t331.5 53h2h906v-256h-629v-344h545v-248h-545v-342h647v-256h-924h-2q-359 0 -569.5 196.5t-210.5 526.5zM379 723q0 -216 127 -340.5t366 -124.5h2v930h-2q-246 0 -369.5 -126t-123.5 -339z" />
<glyph unicode="&#x153;" horiz-adv-x="2019" d="M70 514q0 156 72.5 280t197 191.5t278.5 67.5q131 0 238 -49.5t178 -139.5q68 90 173.5 139.5t234.5 49.5q230 0 372 -147t142 -392q0 -12 -1 -26.5t-2.5 -32t-2.5 -27.5h-781q18 -101 97 -162t207 -61q172 0 266 123l200 -133q-66 -106 -192.5 -162t-280.5 -56 q-288 0 -432 187q-72 -89 -179 -138t-237 -49q-235 0 -391.5 150.5t-156.5 386.5zM334 514q0 -131 80 -215t204 -84q123 0 203 83.5t80 215.5q0 133 -79.5 216t-203.5 83t-204 -83t-80 -216zM1171 616h525q-21 103 -87.5 162.5t-166.5 59.5q-104 0 -177.5 -61t-93.5 -161z " />
<glyph unicode="&#x178;" horiz-adv-x="1277" d="M4 1446h322l313 -627l311 627h322l-494 -916v-530h-280v532zM279 1716q0 62 43 104t108 42q64 0 108 -42t44 -104t-44 -104.5t-108 -42.5q-65 0 -108 42.5t-43 104.5zM696 1716q0 61 43 103.5t107 42.5t108.5 -43t44.5 -103q0 -62 -44.5 -104.5t-108.5 -42.5t-107 42.5 t-43 104.5z" />
<glyph unicode="&#x2c6;" horiz-adv-x="759" d="M8 1161l258 340h228l258 -340h-242l-129 182l-131 -182h-242z" />
<glyph unicode="&#x2dc;" horiz-adv-x="759" d="M25 1178q0 138 60.5 217.5t162.5 79.5q56 0 104.5 -27.5t83 -54.5t56.5 -27q47 0 47 100h194q0 -139 -59.5 -219t-159.5 -80q-44 0 -84.5 17t-64.5 37.5t-49.5 37.5t-43.5 17q-55 0 -55 -98h-192z" />
<glyph unicode="&#x2000;" horiz-adv-x="983" />
<glyph unicode="&#x2001;" horiz-adv-x="1966" />
<glyph unicode="&#x2002;" horiz-adv-x="983" />
<glyph unicode="&#x2003;" horiz-adv-x="1966" />
<glyph unicode="&#x2004;" horiz-adv-x="655" />
<glyph unicode="&#x2005;" horiz-adv-x="491" />
<glyph unicode="&#x2006;" horiz-adv-x="327" />
<glyph unicode="&#x2007;" horiz-adv-x="327" />
<glyph unicode="&#x2008;" horiz-adv-x="245" />
<glyph unicode="&#x2009;" horiz-adv-x="393" />
<glyph unicode="&#x200a;" horiz-adv-x="109" />
<glyph unicode="&#x2010;" horiz-adv-x="925" d="M98 395v238h727v-238h-727z" />
<glyph unicode="&#x2011;" horiz-adv-x="925" d="M98 395v238h727v-238h-727z" />
<glyph unicode="&#x2012;" horiz-adv-x="925" d="M98 395v238h727v-238h-727z" />
<glyph unicode="&#x2013;" horiz-adv-x="1234" d="M86 395v238h1063v-238h-1063z" />
<glyph unicode="&#x2014;" horiz-adv-x="2019" d="M86 395v238h1847v-238h-1847z" />
<glyph unicode="&#x2018;" horiz-adv-x="546" d="M96 848l150 653h203l-62 -653h-291z" />
<glyph unicode="&#x2019;" horiz-adv-x="546" d="M98 848l62 653h289l-150 -653h-201z" />
<glyph unicode="&#x201a;" horiz-adv-x="546" d="M98 -299l62 653h289l-150 -653h-201z" />
<glyph unicode="&#x201c;" horiz-adv-x="993" d="M96 848l133 653h203l-45 -653h-291zM561 848l133 653h201l-43 -653h-291z" />
<glyph unicode="&#x201d;" horiz-adv-x="993" d="M98 848l45 653h289l-133 -653h-201zM563 848l43 653h291l-133 -653h-201z" />
<glyph unicode="&#x201e;" horiz-adv-x="993" d="M98 -299l45 653h289l-133 -653h-201zM563 -299l43 653h291l-133 -653h-201z" />
<glyph unicode="&#x2022;" horiz-adv-x="819" d="M94 518q0 134 91.5 220.5t228.5 86.5t228 -86.5t91 -220.5q0 -135 -91 -224t-228 -89t-228.5 89t-91.5 224z" />
<glyph unicode="&#x2026;" horiz-adv-x="1638" d="M100 154q0 73 49 119t123 46q76 0 125 -46t49 -119t-49.5 -121.5t-124.5 -48.5q-74 0 -123 48.5t-49 121.5zM647 154q0 73 49 119t123 46q76 0 125 -46t49 -119t-49.5 -121.5t-124.5 -48.5q-74 0 -123 48.5t-49 121.5zM1194 154q0 73 49 119t123 46q76 0 125 -46t49 -119 t-49.5 -121.5t-124.5 -48.5q-74 0 -123 48.5t-49 121.5z" />
<glyph unicode="&#x202f;" horiz-adv-x="393" />
<glyph unicode="&#x2039;" horiz-adv-x="638" d="M41 510l338 496l194 -136l-245 -360l245 -356l-194 -138z" />
<glyph unicode="&#x203a;" horiz-adv-x="638" d="M66 154l245 356l-245 360l194 136l338 -496l-338 -494z" />
<glyph unicode="&#x205f;" horiz-adv-x="491" />
<glyph unicode="&#x20ac;" horiz-adv-x="1402" d="M76 492v161h157q-2 23 -2 70q0 49 2 72h-157v161h180q56 237 217 373.5t389 136.5q160 0 296 -71.5t204 -206.5l-211 -139q-37 81 -108.5 125.5t-170.5 44.5q-115 0 -199.5 -66.5t-123.5 -196.5h418v-161h-447q-2 -23 -2 -72q0 -47 2 -70h447v-161h-420 q39 -132 123.5 -198.5t201.5 -66.5q99 0 170.5 44.5t108.5 125.5l211 -139q-68 -135 -204 -206.5t-296 -71.5q-228 0 -389 137t-217 375h-180z" />
<glyph unicode="&#x2122;" horiz-adv-x="1466" d="M47 1292v154h528v-154h-176v-489h-172v489h-180zM674 803v643h203l157 -326l154 326h211v-643h-162v424l-158 -316h-92l-151 299v-407h-162z" />
<glyph unicode="&#x25fc;" horiz-adv-x="1034" d="M0 0v1034h1034v-1034h-1034z" />
</font>
</defs>
</svg>
