<?xml version="1.0" standalone="no"?>
<!DOCTYPE svg PUBLIC "-//W3C//DTD SVG 1.1//EN" "http://www.w3.org/Graphics/SVG/1.1/DTD/svg11.dtd" >
<svg xmlns="http://www.w3.org/2000/svg" xmlns:xlink="http://www.w3.org/1999/xlink" version="1.1">
<metadata></metadata>
<defs>
<font id="zabal_demobold_italic" horiz-adv-x="546" >
<font-face units-per-em="2048" ascent="1638" descent="-410" />
<missing-glyph horiz-adv-x="448" />
<glyph unicode="&#xfb01;" horiz-adv-x="1308" d="M92 0l170 799h-166l51 231h164l31 139q38 181 134 268t261 87q43 0 106 -8.5t91 -18.5l-47 -211q-55 21 -133 21q-62 0 -96 -39t-58 -148l-18 -90h243l-51 -231h-244l-170 -799h-268zM788 0l220 1030h272l-217 -1030h-275zM1049 1323q0 71 52.5 119.5t123.5 48.5 q66 0 107.5 -38.5t41.5 -96.5q0 -70 -54 -121t-126 -51q-65 0 -105 39.5t-40 99.5z" />
<glyph unicode="&#xfb02;" horiz-adv-x="1302" d="M92 0l170 799h-166l51 231h164l31 139q38 181 134 268t261 87q43 0 106 -8.5t91 -18.5l-47 -211q-55 21 -133 21q-62 0 -96 -39t-58 -148l-18 -90h243l-51 -231h-244l-170 -799h-268zM786 0l318 1501h274l-319 -1501h-273z" />
<glyph horiz-adv-x="0" />
<glyph horiz-adv-x="682" />
<glyph horiz-adv-x="0" />
<glyph horiz-adv-x="0" />
<glyph unicode="&#xd;" horiz-adv-x="681" />
<glyph unicode=" "  horiz-adv-x="448" />
<glyph unicode="&#x09;" horiz-adv-x="448" />
<glyph unicode="&#xa0;" horiz-adv-x="448" />
<glyph unicode="!" d="M25 131q0 82 53 135t129 53q74 0 118 -40.5t44 -104.5q0 -84 -51.5 -137t-135.5 -53q-71 0 -114 41.5t-43 105.5zM160 465l164 981h305l-256 -981h-213z" />
<glyph unicode="&#x22;" horiz-adv-x="878" d="M178 848l137 653h244l-137 -653h-244zM598 848l139 653h242l-137 -653h-244z" />
<glyph unicode="#" horiz-adv-x="1460" d="M6 348l41 199h289l143 334h-250l41 198h295l158 367h231l-157 -367h262l158 367h231l-158 -367h248l-41 -198h-293l-143 -334h254l-41 -199h-299l-150 -348h-231l149 348h-262l-149 -348h-232l150 348h-244zM567 547h262l144 334h-262z" />
<glyph unicode="$" horiz-adv-x="1177" d="M0 272l242 129q61 -125 186 -168l82 383q-74 29 -127 59.5t-99.5 73t-70 100.5t-23.5 130q0 214 146 351.5t369 137.5h36l35 162h154l-39 -186q109 -32 188.5 -99t110.5 -163l-250 -115q-39 85 -102 125l-82 -383q76 -25 133 -55t104.5 -71t72 -97t24.5 -125 q0 -219 -146 -351.5t-379 -132.5h-37l-34 -161h-154l39 182q-131 29 -230.5 98t-148.5 176zM459 1018q0 -57 36.5 -93t116.5 -67l80 375h-10q-98 0 -160.5 -60t-62.5 -155zM578 211q99 3 160 59.5t61 147.5q0 54 -34.5 86.5t-111.5 62.5z" />
<glyph unicode="%" horiz-adv-x="2136" d="M156 913q0 110 29 209t83 176.5t138.5 123.5t187.5 46q165 0 259.5 -91.5t94.5 -256.5q0 -110 -29 -209t-83 -176.5t-138.5 -123.5t-187.5 -46q-166 0 -260 91.5t-94 256.5zM389 936q0 -77 33.5 -120.5t99.5 -43.5q47 0 85.5 31t60.5 80.5t33.5 104.5t11.5 108 q0 79 -32.5 122.5t-98.5 43.5q-48 0 -86.5 -31t-61 -81t-34 -105t-11.5 -109zM414 0l1128 1446h270l-1130 -1446h-268zM1276 326q0 110 29 209t83 176.5t138.5 123.5t187.5 46q165 0 259.5 -92t94.5 -257q0 -110 -29 -209t-83 -176.5t-138.5 -123.5t-187.5 -46 q-166 0 -260 92t-94 257zM1509 348q0 -77 33.5 -120.5t99.5 -43.5q47 0 85.5 31t60.5 80.5t33.5 104.5t11.5 108q0 79 -32.5 122.5t-98.5 43.5q-48 0 -86.5 -31t-61 -81t-34 -105t-11.5 -109z" />
<glyph unicode="&#x26;" horiz-adv-x="1423" d="M74 365q0 75 22 139.5t57 110t89 85.5t105.5 67t119.5 54q-86 138 -86 262q0 167 124.5 276t301.5 109q167 0 269 -85.5t102 -223.5q0 -65 -22 -121t-55 -95.5t-87.5 -76.5t-103.5 -61.5t-117 -52.5l227 -310q94 135 133 328h262q-70 -303 -256 -514l109 -150l-178 -139 l-101 139q-194 -129 -420 -129q-214 0 -354.5 106.5t-140.5 281.5zM342 401q0 -89 74 -143.5t194 -54.5q129 0 250 78l-280 383q-115 -52 -176.5 -112.5t-61.5 -150.5zM631 1087q0 -88 57 -184q59 22 100 42t78 47t55.5 61t18.5 75q0 54 -40 89.5t-103 35.5q-68 0 -117 -48 t-49 -118z" />
<glyph unicode="'" horiz-adv-x="456" d="M178 848l137 653h244l-137 -653h-244z" />
<glyph unicode="(" horiz-adv-x="768" d="M80 360q0 229 93.5 450t265 400t395.5 287l75 -223q-167 -86 -293.5 -227.5t-194 -313t-67.5 -348.5q0 -194 64 -340t184 -233l-162 -164q-360 235 -360 712z" />
<glyph unicode=")" horiz-adv-x="768" d="M-117 -129q253 131 404 375.5t151 513.5q0 196 -64 341.5t-184 231.5l162 164q359 -235 359 -713q0 -348 -206.5 -660t-545.5 -476z" />
<glyph unicode="*" horiz-adv-x="925" d="M170 1061l324 57l-238 166l102 180l197 -262l14 299h207l-119 -317l244 133l103 -180l-320 -58l236 -166l-103 -180l-196 262l-15 -299h-207l119 320l-244 -135z" />
<glyph unicode="+" horiz-adv-x="1155" d="M88 526l51 238h367l80 379h250l-80 -379h366l-51 -238h-366l-80 -379h-250l80 379h-367z" />
<glyph unicode="," d="M-76 -299l185 653h307l-279 -653h-213z" />
<glyph unicode="-" horiz-adv-x="925" d="M78 395l45 238h725l-47 -238h-723z" />
<glyph unicode="." d="M25 131q0 82 53 135t129 53q74 0 118 -40.5t44 -104.5q0 -84 -51.5 -137t-135.5 -53q-71 0 -114 41.5t-43 105.5z" />
<glyph unicode="/" horiz-adv-x="772" d="M-225 -258l925 1759h277l-928 -1759h-274z" />
<glyph unicode="0" horiz-adv-x="1464" d="M129 565q0 177 50.5 338t142 285t231 198t305.5 74q267 0 417 -151.5t150 -421.5q0 -177 -51 -339.5t-142.5 -287.5t-231.5 -199.5t-306 -74.5q-264 0 -414.5 155t-150.5 424zM410 588q0 -166 78.5 -257t222.5 -91q103 0 187.5 55.5t137 146.5t81 200.5t28.5 223.5 q0 165 -78 252.5t-225 87.5q-103 0 -187 -54.5t-136.5 -144t-80.5 -198t-28 -221.5z" />
<glyph unicode="1" horiz-adv-x="845" d="M182 1206l641 254h74l-311 -1460h-275l236 1104l-332 -135z" />
<glyph unicode="2" horiz-adv-x="1222" d="M-14 0l43 199l280 188q84 55 144 97t128.5 93.5t116 93.5t93.5 91t73.5 93.5t44.5 93.5t17 98q0 79 -58 126.5t-161 47.5q-215 0 -326 -201l-176 178q65 116 204.5 193t331.5 77q98 0 180.5 -24t147.5 -71.5t102 -127.5t37 -184q0 -211 -141.5 -379.5t-462.5 -368.5 l-100 -63h565l-53 -250h-1030z" />
<glyph unicode="3" horiz-adv-x="1218" d="M-12 260l248 137q35 -86 119 -132t200 -46q127 0 207 72.5t80 185.5q0 100 -80 155.5t-203 55.5q-81 0 -158 -31l-84 158l478 383h-508l51 248h915l-41 -197l-497 -372q185 -20 294 -113.5t109 -257.5q0 -159 -73 -280t-203 -185t-297 -64q-194 0 -347.5 72t-209.5 211z " />
<glyph unicode="4" horiz-adv-x="1286" d="M23 279l43 194l643 973h323l-618 -934h374l76 356h262l-75 -356h182l-51 -233h-181l-59 -279h-262l59 279h-716z" />
<glyph unicode="5" horiz-adv-x="1226" d="M-8 274l239 127q39 -86 123 -133t201 -47q131 0 215 79t84 196q0 112 -80 167.5t-209 55.5q-161 0 -301 -107l-145 37l235 797h891l-53 -248h-651l-88 -301q89 39 206 39q96 0 180 -26t149.5 -76t103.5 -131t38 -183q0 -236 -158.5 -389.5t-408.5 -153.5q-199 0 -354 76 t-217 221z" />
<glyph unicode="6" horiz-adv-x="1320" d="M102 459q0 115 42 228t110 209.5t176.5 200.5t218.5 189.5t258 188.5l287 -125q-293 -180 -504 -377q46 4 72 4q208 0 337.5 -121.5t129.5 -314.5q0 -246 -163 -405t-415 -159q-242 0 -395.5 130t-153.5 352zM375 461q0 -105 75 -172.5t203 -67.5q134 0 216.5 86 t82.5 219q0 105 -73 171.5t-201 66.5q-134 0 -218.5 -86.5t-84.5 -216.5z" />
<glyph unicode="7" horiz-adv-x="1134" d="M33 0l835 1194h-643l54 252h995l-41 -195l-868 -1251h-332z" />
<glyph unicode="8" horiz-adv-x="1277" d="M57 367q0 160 93 267t251 152q-81 47 -124.5 116t-43.5 149q0 188 146 301.5t369 113.5q224 0 366.5 -94t142.5 -266q0 -134 -76 -228t-204 -137q92 -53 143 -133.5t51 -175.5q0 -211 -152.5 -331.5t-406.5 -120.5q-153 0 -276.5 42.5t-201 132t-77.5 212.5zM332 416 q0 -93 83 -144t210 -51q126 0 202 61.5t76 166.5q0 96 -78 148t-202 52q-125 0 -208 -65t-83 -168zM496 1038q0 -76 65 -122t182 -46q106 0 174 54.5t68 144.5q0 81 -65 123.5t-170 42.5q-111 0 -182.5 -54t-71.5 -143z" />
<glyph unicode="9" horiz-adv-x="1320" d="M180 905q0 246 163 404.5t415 158.5q243 0 397 -130t154 -351q0 -115 -42 -228t-110.5 -209.5t-177 -200.5t-218.5 -189.5t-259 -188.5l-287 125q293 180 504 377q-46 -4 -70 -4q-209 0 -339 121.5t-130 314.5zM457 920q0 -105 74 -171.5t200 -66.5q134 0 218.5 86.5 t84.5 216.5q0 105 -75 172.5t-201 67.5q-134 0 -217.5 -86t-83.5 -219z" />
<glyph unicode=":" d="M25 131q0 82 53 135t129 53q74 0 118 -40.5t44 -104.5q0 -84 -51.5 -137t-135.5 -53q-71 0 -114 41.5t-43 105.5zM178 856q0 83 53.5 137t130.5 54q73 0 117.5 -41t44.5 -105q0 -84 -52 -137t-136 -53q-71 0 -114.5 41t-43.5 104z" />
<glyph unicode=";" horiz-adv-x="555" d="M-74 -299l185 653h305l-277 -653h-213zM180 856q0 83 53.5 137t131.5 54q72 0 115.5 -41t43.5 -105q0 -84 -51 -137t-135 -53q-71 0 -114.5 41t-43.5 104z" />
<glyph unicode="&#x3c;" horiz-adv-x="1032" d="M72 528l51 236l954 391l-57 -278l-633 -252l528 -250l-55 -238z" />
<glyph unicode="=" horiz-adv-x="1097" d="M37 266l49 238h922l-50 -238h-921zM147 784l48 238h921l-47 -238h-922z" />
<glyph unicode="&#x3e;" horiz-adv-x="1032" d="M12 137l56 279l632 252l-528 250l55 237l789 -391l-51 -236z" />
<glyph unicode="?" horiz-adv-x="1046" d="M168 1169q68 137 197 216t288 79q192 0 309 -92.5t117 -255.5q0 -69 -26.5 -135t-69 -118t-94 -100t-103.5 -88.5t-95 -76.5t-70.5 -71t-28.5 -64h-238q-3 47 20 93.5t62.5 85.5t88 78t98 79t90.5 79.5t66.5 87.5t25.5 97q0 78 -50.5 120t-129.5 42q-80 0 -152 -48.5 t-108 -140.5zM256 131q0 82 53 135t131 53q73 0 117.5 -40.5t44.5 -104.5q0 -84 -52 -137t-136 -53q-71 0 -114.5 41.5t-43.5 105.5z" />
<glyph unicode="@" horiz-adv-x="1732" d="M76 430q0 253 109.5 456t306 318t442.5 115q214 0 381.5 -80t263.5 -231.5t96 -350.5q0 -156 -50 -281.5t-150 -201.5t-234 -76q-123 0 -197 60.5t-83 156.5q-74 -100 -193 -100q-109 0 -179.5 76t-70.5 194q0 151 96 264t228 113q123 0 170 -96l18 82h215l-82 -424 q-28 -141 94 -141q62 0 108 54.5t66.5 132t20.5 161.5q0 148 -72 257.5t-191.5 163.5t-268.5 54q-182 0 -324.5 -84.5t-219.5 -232.5t-77 -334q0 -155 80 -271.5t215 -176.5t305 -60q122 0 203 35l35 -205q-119 -39 -256 -39q-173 0 -321 48.5t-255 136.5t-168 218.5 t-61 288.5zM731 504q0 -49 28.5 -77t82.5 -28q61 0 99 52t38 124q0 48 -28 76.5t-81 28.5q-62 0 -100.5 -51.5t-38.5 -124.5z" />
<glyph unicode="A" horiz-adv-x="1366" d="M-100 0l821 1446h321l205 -1446h-280l-37 307h-543l-168 -307h-319zM522 555h377l-65 580z" />
<glyph unicode="B" horiz-adv-x="1269" d="M41 0l307 1446h498q107 0 187.5 -27t127 -73.5t69.5 -102.5t23 -121q0 -160 -91 -258t-251 -133q123 -30 187.5 -107t64.5 -188q0 -120 -40 -205t-118.5 -135.5t-185 -73t-250.5 -22.5h-528zM379 244h203q67 0 117 9.5t91 32t62.5 65t21.5 104.5q0 151 -223 151h-194z M506 840h186q148 0 215.5 53.5t67.5 173.5q0 135 -221 135h-172z" />
<glyph unicode="C" horiz-adv-x="1538" d="M137 623q0 177 59 332.5t163 268.5t255 178.5t326 65.5q146 0 270 -44.5t214 -132.5t128 -210l-280 -108q-33 110 -125 173.5t-227 63.5q-146 0 -260.5 -77.5t-175 -205.5t-60.5 -282q0 -187 109 -298t303 -111q273 0 411 276l219 -145q-111 -198 -275.5 -294t-399.5 -96 q-189 0 -336 75t-232.5 223t-85.5 348z" />
<glyph unicode="D" horiz-adv-x="1464" d="M41 0l307 1446h404q200 0 350.5 -69.5t234.5 -205t84 -319.5q0 -139 -34.5 -264.5t-107 -233t-176.5 -186t-251.5 -123.5t-323.5 -45h-487zM381 256h203q105 0 194.5 30.5t154 84t110 126t68 157.5t22.5 177q0 168 -100.5 263.5t-262.5 95.5h-190z" />
<glyph unicode="E" horiz-adv-x="1161" d="M41 0l307 1446h905l-55 -256h-623l-71 -344h536l-53 -248h-536l-72 -342h639l-55 -256h-922z" />
<glyph unicode="F" horiz-adv-x="1093" d="M41 0l307 1446h877l-56 -258h-589l-74 -352h522l-55 -256h-524l-123 -580h-285z" />
<glyph unicode="G" horiz-adv-x="1632" d="M135 623q0 176 63 332t172.5 269t264 178.5t330.5 65.5q224 0 394.5 -102.5t229.5 -284.5l-282 -108q-31 109 -129.5 173t-233.5 64q-148 0 -268.5 -77t-187 -206t-66.5 -282q0 -185 117 -297t313 -112q170 0 280 85.5t156 239.5h-461l50 234h741l-19 -131 q-60 -340 -260 -513.5t-532 -173.5q-141 0 -263.5 44t-213.5 125t-143 204t-52 273z" />
<glyph unicode="H" horiz-adv-x="1462" d="M41 0l307 1446h287l-127 -594h592l125 594h286l-307 -1446h-286l126 594h-591l-127 -594h-285z" />
<glyph unicode="I" horiz-adv-x="606" d="M49 0l307 1446h291l-307 -1446h-291z" />
<glyph unicode="J" horiz-adv-x="1110" d="M-12 281l239 129q25 -87 84.5 -132t147.5 -45q106 0 159 65.5t84 209.5l199 938h287l-203 -952q-54 -256 -179.5 -386.5t-336.5 -130.5q-179 0 -309 87t-172 217z" />
<glyph unicode="K" horiz-adv-x="1345" d="M41 0l307 1446h285l-137 -645l596 645h381l-685 -719l429 -727h-322l-418 717l-151 -717h-285z" />
<glyph unicode="L" horiz-adv-x="1097" d="M41 0l307 1446h287l-252 -1184h606l-55 -262h-893z" />
<glyph unicode="M" horiz-adv-x="1798" d="M41 0l307 1446h318l231 -868l629 868h319l-307 -1446h-281l193 907l-524 -723h-193l-205 783l-204 -967h-283z" />
<glyph unicode="N" horiz-adv-x="1480" d="M41 0l307 1446h270l422 -967l207 967h281l-307 -1446h-271l-422 969l-204 -969h-283z" />
<glyph unicode="O" horiz-adv-x="1695" d="M135 621q0 232 108.5 426t299.5 307.5t422 113.5q197 0 353 -79.5t244.5 -226.5t88.5 -337q0 -174 -64 -330.5t-174 -270.5t-264.5 -180.5t-327.5 -66.5q-302 0 -494 178.5t-192 465.5zM422 645q0 -183 114.5 -296t307.5 -113q148 0 268 79t185 208.5t65 279.5 q0 183 -116 295t-302 112q-148 0 -268.5 -77t-187 -206t-66.5 -282z" />
<glyph unicode="P" horiz-adv-x="1239" d="M41 0l307 1446h471q225 0 340 -92t115 -258q0 -127 -35.5 -229.5t-106.5 -179t-185.5 -118t-264.5 -41.5h-244l-112 -528h-285zM492 776h202q291 0 291 268q0 150 -225 150h-180z" />
<glyph unicode="Q" horiz-adv-x="1695" d="M135 621q0 232 108.5 426t299.5 307.5t422 113.5q197 0 353 -79.5t244.5 -226.5t88.5 -337q0 -179 -65.5 -337t-184.5 -275l90 -166l-213 -117l-74 140q-178 -93 -383 -93q-302 0 -494 178.5t-192 465.5zM422 645q0 -183 114.5 -296t307.5 -113q115 0 211 47l-201 381 l205 116l178 -350q125 156 125 373q0 183 -116 295t-302 112q-148 0 -268.5 -77t-187 -206t-66.5 -282z" />
<glyph unicode="R" horiz-adv-x="1320" d="M41 0l307 1446h475q219 0 331 -93t112 -257q0 -115 -37 -210.5t-120.5 -168t-205.5 -101.5l297 -616h-309l-260 557h-187l-118 -557h-285zM494 788h192q289 0 289 267q0 139 -201 139h-194z" />
<glyph unicode="S" horiz-adv-x="1177" d="M0 272l250 131q37 -91 121.5 -134.5t189.5 -43.5q106 0 171 52.5t65 144.5q0 59 -56 98.5t-182 79.5q-67 23 -118 46t-100 56t-80.5 71t-51 90.5t-19.5 115.5q0 214 146 351.5t369 137.5q172 0 307 -76t178 -210l-256 -119q-31 82 -95.5 120t-148.5 38q-97 0 -157 -58.5 t-60 -152.5q0 -68 57.5 -108t196.5 -83q83 -27 144 -57t112 -72.5t77.5 -101t26.5 -131.5q0 -219 -144.5 -349.5t-377.5 -130.5q-193 0 -345.5 75.5t-219.5 219.5z" />
<glyph unicode="T" horiz-adv-x="1212" d="M197 1188l55 258h1106l-55 -258h-412l-250 -1188h-287l252 1188h-409z" />
<glyph unicode="U" horiz-adv-x="1404" d="M147 635l172 811h285l-174 -828q-16 -77 -15 -138q1 -94 37 -150q62 -94 242 -94q138 0 209 80t105 243l188 887h285l-195 -924q-59 -268 -206.5 -406.5t-401.5 -138.5q-322 -1 -458 177q-93 121 -93 300q0 84 20 181z" />
<glyph unicode="V" horiz-adv-x="1318" d="M209 1446h289l108 -1110l576 1110h325l-792 -1446h-328z" />
<glyph unicode="W" horiz-adv-x="1988" d="M209 1446h291l28 -1063l533 1063h262l59 -1051l473 1051h322l-702 -1446h-293l-76 989l-518 -989h-291z" />
<glyph unicode="X" horiz-adv-x="1331" d="M-90 0l625 778l-279 668h301l188 -483l369 483h359l-572 -711l301 -735h-301l-213 539l-420 -539h-358z" />
<glyph unicode="Y" horiz-adv-x="1277" d="M203 1446h299l178 -617l438 617h352l-684 -909l-114 -537h-285l113 539z" />
<glyph unicode="Z" horiz-adv-x="1183" d="M-37 0l45 213l840 975h-612l55 258h1009l-45 -211l-839 -977h671l-57 -258h-1067z" />
<glyph unicode="[" horiz-adv-x="706" d="M-33 -326l381 1794h529l-52 -231h-258l-284 -1333h262l-51 -230h-527z" />
<glyph unicode="\" horiz-adv-x="772" d="M211 1501h246l213 -1759h-246z" />
<glyph unicode="]" horiz-adv-x="706" d="M-145 -326l49 230h260l285 1333h-263l50 231h528l-383 -1794h-526z" />
<glyph unicode="^" horiz-adv-x="1142" d="M131 741l549 705h180l248 -705h-254l-127 396l-293 -396h-303z" />
<glyph unicode="_" horiz-adv-x="929" d="M-197 -324l50 238h966l-47 -238h-969z" />
<glyph unicode="`" horiz-adv-x="759" d="M379 1501h262l88 -340h-211z" />
<glyph unicode="a" horiz-adv-x="1247" d="M70 432q0 124 37 236.5t102 198t162 136t211 50.5q129 0 217.5 -53t132.5 -148l39 178h268l-221 -1030h-266l30 139q-126 -162 -317 -162q-173 0 -284 125.5t-111 329.5zM336 473q0 -113 64.5 -185.5t174.5 -72.5q135 0 215 101t80 245q0 112 -63.5 182t-169.5 70 q-136 0 -218.5 -98.5t-82.5 -241.5z" />
<glyph unicode="b" horiz-adv-x="1255" d="M16 0l320 1501h268l-125 -586q125 138 307 138q183 0 291.5 -124t108.5 -331q0 -123 -36.5 -236t-102 -198.5t-162 -136t-209.5 -50.5q-128 0 -218.5 53t-135.5 148l-37 -178h-269zM387 469q0 -111 65 -182.5t171 -71.5q133 0 215 99.5t82 242.5q0 112 -64.5 184 t-171.5 72q-134 0 -215.5 -100.5t-81.5 -243.5z" />
<glyph unicode="c" horiz-adv-x="1107" d="M68 436q0 127 44 240.5t120.5 196.5t186 131.5t234.5 48.5q158 0 276.5 -73.5t168.5 -201.5l-254 -102q-58 139 -203 139q-136 0 -221.5 -104.5t-85.5 -247.5q0 -112 64 -180t175 -68q161 0 250 168l205 -141q-76 -133 -196 -199t-269 -66q-222 0 -358.5 126.5 t-136.5 332.5z" />
<glyph unicode="d" horiz-adv-x="1247" d="M70 432q0 166 61 306.5t178.5 227.5t268.5 87q129 0 218.5 -53t133.5 -148l139 649h268l-319 -1501h-268l30 139q-126 -162 -319 -162q-172 0 -281.5 125t-109.5 330zM336 473q0 -113 62.5 -185.5t172.5 -72.5q135 0 216 101t81 245q0 112 -64 182t-171 70 q-134 0 -215.5 -98.5t-81.5 -241.5z" />
<glyph unicode="e" horiz-adv-x="1185" d="M70 442q0 170 70 308.5t202.5 220.5t304.5 82q213 0 340 -124t127 -321q0 -85 -22 -180h-762q6 -103 78 -163t202 -60q153 0 262 123l170 -150q-156 -201 -448 -201q-230 0 -377 129.5t-147 335.5zM350 614h512q-6 104 -63 165t-162 61q-106 0 -180.5 -62t-106.5 -164z " />
<glyph unicode="f" horiz-adv-x="761" d="M92 0l170 799h-166l51 231h164l31 139q38 181 134 268t261 87q43 0 106 -8.5t91 -18.5l-47 -211q-55 21 -133 21q-62 0 -96 -39t-58 -148l-18 -90h243l-51 -231h-244l-170 -799h-268z" />
<glyph unicode="g" horiz-adv-x="1249" d="M-25 -188l244 112q71 -125 266 -125q110 0 182 65.5t99 194.5l18 99q-126 -154 -309 -154q-176 0 -287.5 123.5t-111.5 329.5q0 165 61 299.5t178 215.5t269 81q127 0 215.5 -53t134.5 -148l37 178h268l-199 -936q-56 -261 -192 -389.5t-385 -128.5q-172 0 -302 61.5 t-186 174.5zM342 496q0 -111 64.5 -181.5t171.5 -70.5q135 0 213.5 88t78.5 229q0 111 -64 181.5t-169 70.5q-135 0 -215 -88.5t-80 -228.5z" />
<glyph unicode="h" horiz-adv-x="1204" d="M16 0l320 1501h270l-133 -616q132 168 340 168q95 0 164 -36t103 -99q34 -64 44 -150q3 -25 3 -51q0 -65 -17 -137l-125 -580h-268l117 532q14 66 14 117q0 168 -158 168q-113 0 -189.5 -81.5t-107.5 -229.5l-108 -506h-269z" />
<glyph unicode="i" d="M27 0l219 1030h272l-217 -1030h-274zM287 1323q0 71 52.5 119.5t123.5 48.5q66 0 107.5 -38.5t41.5 -96.5q0 -70 -54 -121t-126 -51q-65 0 -105 39.5t-40 99.5z" />
<glyph unicode="j" horiz-adv-x="544" d="M-287 -397l54 215q63 -19 110 -19q58 0 91.5 39t54.5 139l225 1053h272l-235 -1104q-36 -173 -128.5 -261.5t-256.5 -88.5q-89 0 -187 27zM287 1323q0 71 52.5 119.5t123.5 48.5q66 0 107.5 -38.5t41.5 -96.5q0 -70 -54 -121t-126 -51q-65 0 -105 39.5t-40 99.5z" />
<glyph unicode="k" horiz-adv-x="1122" d="M16 0l320 1501h268l-194 -915l434 444h354l-530 -504l340 -526h-295l-322 500l-106 -500h-269z" />
<glyph unicode="l" horiz-adv-x="540" d="M25 0l317 1501h274l-319 -1501h-272z" />
<glyph unicode="m" horiz-adv-x="1800" d="M18 0l220 1030h264l-25 -121q117 144 283 144q231 0 284 -174q155 174 353 174q199 0 277 -126q48 -78 48 -192q0 -71 -18 -155l-123 -580h-268l117 547q13 61 13 109q0 161 -155 161q-81 0 -141.5 -61t-87.5 -162v-2l-127 -592h-268l116 549q13 61 13 108 q0 160 -154 160q-85 0 -146 -69t-87 -183l-119 -565h-269z" />
<glyph unicode="n" horiz-adv-x="1193" d="M18 0l220 1030h264l-31 -145q64 79 154 123.5t194 44.5q190 1 259 -125q41 -75 42 -184q0 -74 -20 -164l-125 -580h-268l116 532q16 71 16 124q0 56 -18 92q-34 70 -133 69q-109 0 -184.5 -81.5t-108.5 -229.5l-108 -506h-269z" />
<glyph unicode="o" horiz-adv-x="1234" d="M68 440q0 171 79 312t216.5 221t304.5 80q220 0 359.5 -129t139.5 -334q0 -171 -78.5 -311.5t-216.5 -221t-305 -80.5q-220 0 -359.5 129t-139.5 334zM334 465q0 -111 69.5 -180.5t184.5 -69.5q137 0 225 103.5t88 246.5q0 111 -69 179.5t-185 68.5q-135 0 -224 -101.5 t-89 -246.5z" />
<glyph unicode="p" horiz-adv-x="1255" d="M-68 -401l304 1431h268l-25 -115q122 138 309 138q184 0 291 -123.5t107 -331.5q0 -166 -61 -306.5t-178.5 -227.5t-268.5 -87q-129 0 -219.5 53t-134.5 148l-123 -579h-269zM387 469q0 -112 64.5 -183t171.5 -71q135 0 216 99.5t81 242.5q0 113 -63 184.5t-173 71.5 q-135 0 -216 -100t-81 -244z" />
<glyph unicode="q" horiz-adv-x="1247" d="M70 432q0 166 61.5 306.5t179.5 227.5t269 87q129 0 218.5 -53t133.5 -148l39 178h268l-305 -1431h-268l116 540q-126 -162 -319 -162q-172 0 -282.5 125t-110.5 330zM336 473q0 -113 63.5 -185.5t173.5 -72.5q135 0 216 101t81 245q0 112 -64 182t-171 70 q-134 0 -216.5 -98.5t-82.5 -241.5z" />
<glyph unicode="r" horiz-adv-x="792" d="M18 0l220 1030h264l-31 -143q125 166 307 166q31 0 86 -11l-63 -272q-68 21 -129 21q-107 0 -178.5 -78.5t-100.5 -214.5l-106 -498h-269z" />
<glyph unicode="s" horiz-adv-x="976" d="M-14 229l219 99q73 -142 262 -142q66 0 105.5 31.5t39.5 85.5q0 37 -40 63t-146 62q-68 21 -119.5 46t-95 59.5t-66 80.5t-22.5 103q0 150 115.5 243t291.5 93q137 0 254.5 -54t167.5 -155l-223 -109q-30 53 -80 77t-127 24q-64 0 -103.5 -26.5t-39.5 -74.5 q0 -19 11.5 -34t42 -32t56.5 -28t82 -33q54 -22 88 -37t73 -36t61.5 -41t43 -46t29 -57t8.5 -69q0 -159 -118 -252t-307 -93q-162 0 -286.5 63t-176.5 189z" />
<glyph unicode="t" horiz-adv-x="790" d="M96 799l49 231h166l56 258h268l-55 -258h251l-49 -231h-252l-90 -418q-9 -41 -9 -72q0 -41 16 -65q28 -41 120 -41q53 0 97 12l-41 -219q-58 -14 -119 -14q-214 0 -296 96q-54 63 -55 168q0 55 15 121l92 432h-164z" />
<glyph unicode="u" horiz-adv-x="1177" d="M72 262q-2 23 -2 47q0 67 18 142l125 579h268l-116 -532q-16 -72 -16 -126q0 -55 17 -90q33 -69 132 -69q111 0 185.5 81t107.5 228l106 508h268l-219 -1030h-266l35 143q-134 -166 -338 -166q-95 0 -162.5 36t-101 99t-41.5 150z" />
<glyph unicode="v" horiz-adv-x="1112" d="M129 1030h277l90 -747l391 747h315l-606 -1030h-287z" />
<glyph unicode="w" horiz-adv-x="1570" d="M129 1030h264l17 -704l368 704h234l49 -692l303 692h297l-510 -1030h-264l-60 680l-360 -680h-264z" />
<glyph unicode="x" horiz-adv-x="1095" d="M-96 0l465 551l-238 479h287l147 -342l269 342h340l-447 -518l248 -512h-285l-164 360l-284 -360h-338z" />
<glyph unicode="y" horiz-adv-x="1112" d="M92 -401l232 397l-195 1034h277l90 -768l391 768h315l-813 -1431h-297z" />
<glyph unicode="z" horiz-adv-x="997" d="M-31 0l37 164l578 635h-437l50 231h813l-35 -164l-580 -635h477l-49 -231h-854z" />
<glyph unicode="{" horiz-adv-x="782" d="M-2 465l45 209h35q87 0 131 42t63 134l60 283q38 181 130.5 258t272.5 77h215l-49 -231h-145q-134 0 -164 -139l-55 -256q-30 -137 -91 -204t-170 -89q176 -83 134 -301l-41 -199q-12 -64 17.5 -104.5t84.5 -40.5h147l-49 -230h-131q-206 0 -288.5 96t-49.5 265l54 252 q14 75 -18.5 126.5t-108.5 51.5h-29z" />
<glyph unicode="|" horiz-adv-x="583" d="M-29 -401l435 2048h251l-434 -2048h-252z" />
<glyph unicode="}" horiz-adv-x="782" d="M-145 -326l49 230h145q134 0 164 139l55 256q30 139 90.5 205t169.5 88q-175 82 -133 301l39 199q13 65 -16 105t-86 40h-146l50 231h131q206 0 288.5 -96.5t49.5 -265.5l-54 -252q-14 -75 17.5 -126.5t109.5 -51.5h29l-45 -209h-35q-87 0 -131.5 -42t-63.5 -134 l-59 -283q-40 -182 -132 -258t-273 -76h-213z" />
<glyph unicode="~" horiz-adv-x="1202" d="M117 598q54 123 143 187.5t191 64.5q57 0 114.5 -25.5t97.5 -56.5t91 -56.5t96 -25.5q61 0 101.5 27t76.5 75l111 -94q-52 -124 -133.5 -188t-184.5 -64q-47 0 -94.5 17.5t-87 42t-77 49t-78 42t-76.5 17.5q-102 0 -181 -106z" />
<glyph unicode="&#xa1;" d="M-78 -401l256 981h213l-166 -981h-303zM182 870q0 84 51.5 137.5t135.5 53.5q71 0 114 -42t43 -106q0 -82 -53 -135t-131 -53q-73 0 -116.5 40.5t-43.5 104.5z" />
<glyph unicode="&#xa2;" horiz-adv-x="1103" d="M115 659q0 168 73.5 306.5t205 218.5t294.5 80q84 0 158 -21l108 203h160l-139 -260q106 -67 158 -189l-240 -94q-18 41 -39 62l-293 -547q32 -4 53 -4q172 0 260 174l197 -129q-150 -271 -471 -271q-80 0 -154 19l-110 -205h-160l139 260q-96 61 -148 163t-52 234z M365 676q0 -124 69 -193l299 553q-32 4 -55 4q-140 0 -226.5 -106t-86.5 -258z" />
<glyph unicode="&#xa3;" horiz-adv-x="1230" d="M-39 0l53 246h168l72 336h-158l49 221h154l39 180q49 231 189 358t341 127q166 0 283 -74.5t158 -207.5l-232 -125q-20 75 -70 113t-147 38q-197 0 -250 -262l-30 -147h424l-48 -221h-426l-71 -336h659l-51 -246h-1106z" />
<glyph unicode="&#xa4;" horiz-adv-x="1165" d="M23 344l174 143q-39 80 -39 172q0 207 141 351l-94 118l153 123l103 -131q90 43 205 43q149 0 252 -65l188 155l125 -151l-178 -146q39 -83 39 -176q0 -196 -136 -342l93 -116l-154 -125l-98 127q-98 -48 -213 -48q-143 0 -252 66l-185 -149zM395 684q0 -85 56 -137.5 t151 -52.5q109 0 180.5 79t71.5 185q0 82 -57 135t-154 53q-101 0 -174.5 -77.5t-73.5 -184.5z" />
<glyph unicode="&#xa5;" horiz-adv-x="1277" d="M119 274l35 162h325l21 103l-17 47h-299l35 162h213l-229 698h299l178 -617l438 617h352l-526 -698h215l-35 -162h-301l-37 -49l-20 -101h328l-35 -162h-328l-59 -274h-285l57 274h-325z" />
<glyph unicode="&#xa6;" horiz-adv-x="583" d="M-29 -401l174 819h252l-174 -819h-252zM231 827l175 820h251l-174 -820h-252z" />
<glyph unicode="&#xa7;" horiz-adv-x="1118" d="M-29 -31l242 117q65 -143 252 -143q83 0 135.5 38.5t52.5 104.5q0 50 -49 83.5t-164 78.5q-73 30 -122.5 57.5t-93 65t-64.5 85t-21 107.5q0 122 67.5 212.5t178.5 129.5q-109 82 -109 219q0 170 123.5 285t311.5 115q164 0 280.5 -67t155.5 -175l-242 -108 q-54 120 -194 120q-75 0 -123.5 -41t-48.5 -108q0 -51 48 -83.5t163 -76.5q155 -61 226 -128.5t71 -182.5q0 -123 -66 -211.5t-176 -128.5q104 -87 104 -219q0 -176 -120.5 -289t-321.5 -113q-175 0 -308 64.5t-188 191.5zM371 608q0 -56 50.5 -94.5t178.5 -81.5 q94 5 152.5 49.5t58.5 134.5q0 54 -51 99.5t-174 89.5q-95 -6 -155 -62t-60 -135z" />
<glyph unicode="&#xa8;" horiz-adv-x="759" d="M193 1323q0 71 49 116.5t118 45.5q62 0 101 -36.5t39 -92.5q0 -71 -50 -117.5t-120 -46.5q-63 0 -100 37.5t-37 93.5zM610 1323q0 70 49 116t117 46q64 0 103 -36.5t39 -92.5q0 -70 -50.5 -117t-119.5 -47q-63 0 -100.5 37.5t-37.5 93.5z" />
<glyph unicode="&#xa9;" horiz-adv-x="1681" d="M135 621q0 171 60 326t166 270t259.5 183t331.5 68q150 0 278 -49.5t216.5 -135t138 -204t49.5 -254.5q0 -171 -60 -326t-165 -270.5t-258.5 -183.5t-331.5 -68q-150 0 -278.5 49.5t-217 135.5t-138.5 204.5t-50 254.5zM293 639q0 -229 149 -369.5t385 -140.5 q137 0 259 55.5t207 148t134.5 216.5t49.5 258q0 229 -149.5 369.5t-385.5 140.5q-182 0 -332 -94t-233.5 -249t-83.5 -335zM483 659q0 190 131.5 325.5t319.5 135.5q130 0 223.5 -57t124.5 -150l-209 -82q-48 91 -149 91q-90 0 -153.5 -70.5t-63.5 -169.5 q0 -73 48.5 -119.5t127.5 -46.5q114 0 176 113l166 -113q-110 -201 -355 -201q-176 0 -281.5 95.5t-105.5 248.5z" />
<glyph unicode="&#xaa;" horiz-adv-x="884" d="M182 1049q0 176 104 293.5t263 117.5q153 0 219 -114l20 100h218l-144 -684h-217l21 90q-78 -102 -213 -102q-127 0 -199 84.5t-72 214.5zM399 1075q0 -66 38 -105.5t110 -39.5q78 0 130 60t52 145q0 66 -37 104.5t-110 38.5q-82 0 -132.5 -60t-50.5 -143z" />
<glyph unicode="&#xab;" horiz-adv-x="1163" d="M41 510l422 496l182 -152l-326 -377l140 -344l-207 -117zM565 510l422 496l182 -152l-323 -377l139 -344l-207 -117z" />
<glyph unicode="&#xac;" horiz-adv-x="1132" d="M123 684l49 238h961l-121 -560h-260l67 322h-696z" />
<glyph unicode="&#xad;" horiz-adv-x="925" d="M78 395l45 238h725l-47 -238h-723z" />
<glyph unicode="&#xae;" horiz-adv-x="1034" d="M170 956q0 142 63.5 259t177.5 185t255 68q189 0 301 -107t112 -274q0 -215 -142.5 -363.5t-354.5 -148.5q-189 0 -300.5 107t-111.5 274zM254 967q0 -139 89.5 -226.5t248.5 -87.5q115 0 208.5 59.5t144 156.5t50.5 208q0 138 -90 226t-250 88q-113 0 -206 -59.5 t-144 -156.5t-51 -208zM387 793l98 469h203q74 0 113 -33t39 -86q0 -54 -29.5 -95t-81.5 -53l74 -202h-131l-58 170h-65l-37 -170h-125zM561 1047h68q38 0 61 19t23 50q0 25 -18.5 37t-45.5 12h-63z" />
<glyph unicode="&#xaf;" horiz-adv-x="759" d="M236 1227l43 203h593l-45 -203h-591z" />
<glyph unicode="&#xb0;" horiz-adv-x="901" d="M201 1112q0 175 112.5 293.5t294.5 118.5q168 0 266.5 -94.5t98.5 -233.5q0 -173 -113.5 -292.5t-296.5 -119.5q-166 0 -264 94.5t-98 233.5zM416 1128q0 -64 41.5 -104.5t115.5 -40.5q81 0 133 57t52 140q0 65 -41.5 105t-116.5 40q-81 0 -132.5 -56.5t-51.5 -140.5z " />
<glyph unicode="&#xb1;" horiz-adv-x="1155" d="M-23 0l52 238h979l-50 -238h-981zM137 745l51 238h365l80 371h248l-78 -371h364l-51 -238h-364l-78 -370h-250l80 370h-367z" />
<glyph unicode="&#xb2;" horiz-adv-x="761" d="M117 774l30 154l209 135q139 88 208 159.5t69 143.5q0 42 -27.5 64t-77.5 22q-45 0 -89 -24t-77 -68l-126 145q56 65 144 107.5t195 42.5q138 0 218.5 -65.5t80.5 -184.5q0 -229 -303 -406l-39 -22h273l-43 -203h-645z" />
<glyph unicode="&#xb3;" horiz-adv-x="768" d="M109 913l167 127q26 -42 73.5 -66t103.5 -24q58 0 97.5 35.5t39.5 95.5q0 47 -34 74t-91 27q-44 0 -80 -19l-47 92l223 185h-293l41 192h588l-33 -162l-223 -184q81 -21 129.5 -79.5t48.5 -141.5q0 -141 -100 -227t-254 -86q-113 0 -209 40t-147 121z" />
<glyph unicode="&#xb4;" horiz-adv-x="759" d="M293 1161l227 340h295l-287 -340h-235z" />
<glyph unicode="&#xb5;" horiz-adv-x="1167" d="M-102 -401l305 1431h268l-113 -532q-62 -285 142 -285q102 0 175.5 81.5t104.5 227.5l107 508h268l-219 -1030h-264l28 129q-112 -152 -260 -152q-111 0 -178 76l-96 -454h-268z" />
<glyph unicode="&#xb6;" horiz-adv-x="1013" d="M172 936q0 148 74 265t202.5 181t286.5 64h320l-393 -1847h-279l215 1011h-29q-189 0 -293 87t-104 239z" />
<glyph unicode="&#xb7;" d="M100 494q0 82 54 135t131 53q74 0 117.5 -40.5t43.5 -104.5q0 -84 -52 -137.5t-136 -53.5q-71 0 -114.5 42t-43.5 106z" />
<glyph unicode="&#xb8;" horiz-adv-x="759" d="M-70 -446l37 170q91 -43 172 -43q41 0 64.5 19.5t23.5 51.5q0 28 -29 47t-89 19h-27l47 221h184l-30 -143q79 -15 123.5 -60.5t44.5 -109.5q0 -103 -74.5 -162.5t-200.5 -59.5q-143 0 -246 50z" />
<glyph unicode="&#xb9;" horiz-adv-x="626" d="M231 1491l447 154h78l-187 -871h-239l125 584l-195 -68z" />
<glyph unicode="&#xba;" horiz-adv-x="874" d="M184 1059q0 176 108.5 288.5t285.5 112.5q168 0 266 -85.5t98 -219.5q0 -176 -109 -288.5t-286 -112.5q-168 0 -265.5 85.5t-97.5 219.5zM401 1081q0 -62 41 -100.5t111 -38.5q78 0 125 53t47 138q0 62 -41.5 100.5t-110.5 38.5q-79 0 -125.5 -52.5t-46.5 -138.5z" />
<glyph unicode="&#xbb;" horiz-adv-x="1163" d="M-8 168l323 377l-139 344l207 117l213 -494l-422 -496zM516 168l326 377l-140 344l207 117l213 -494l-424 -496z" />
<glyph unicode="&#xbc;" horiz-adv-x="1806" d="M193 1305l446 153h78l-187 -870h-239l125 583l-195 -67zM203 0l1128 1446h271l-1131 -1446h-268zM954 145l37 170l346 543h256l-333 -534h184l49 231h197l-50 -231h89l-39 -179h-86l-31 -145h-213l31 145h-437z" />
<glyph unicode="&#xbd;" horiz-adv-x="1849" d="M193 1305l446 153h78l-187 -870h-239l125 583l-195 -67zM203 0l1128 1446h271l-1131 -1446h-268zM1040 0l31 154l209 135q139 88 207.5 159.5t68.5 143.5q0 86 -104 86q-45 0 -89 -24t-77 -68l-127 145q56 65 144.5 107.5t195.5 42.5q138 0 218.5 -65.5t80.5 -184.5 q0 -229 -303 -406l-39 -22h273l-43 -203h-646z" />
<glyph unicode="&#xbe;" horiz-adv-x="1929" d="M70 727l168 127q27 -42 73.5 -66t102.5 -24q58 0 97.5 35.5t39.5 95.5q0 47 -33.5 73.5t-91.5 26.5q-46 0 -80 -18l-47 92l223 184h-293l41 193h588l-33 -162l-223 -184q81 -21 129.5 -79.5t48.5 -141.5q0 -141 -100 -227.5t-254 -86.5q-113 0 -209 40.5t-147 121.5z M326 0l1128 1446h270l-1130 -1446h-268zM1077 145l37 170l346 543h256l-334 -534h185l49 231h196l-49 -231h88l-39 -179h-86l-30 -145h-213l30 145h-436z" />
<glyph unicode="&#xbf;" horiz-adv-x="931" d="M-33 -76q0 69 26.5 135t69.5 118t94.5 100.5t103.5 89t95.5 76.5t71 71t29.5 64h237q3 -47 -20.5 -93.5t-63 -86t-88.5 -78.5t-98 -79t-90 -80t-66.5 -88.5t-25.5 -97.5q0 -76 51 -117.5t129 -41.5q81 0 152.5 48t107.5 140l197 -135q-68 -136 -197.5 -214.5 t-288.5 -78.5q-192 0 -309 92.5t-117 255.5zM440 868q0 84 51.5 137.5t135.5 53.5q71 0 114 -41.5t43 -104.5q0 -83 -53 -136.5t-131 -53.5q-73 0 -116.5 40.5t-43.5 104.5z" />
<glyph unicode="&#xc0;" horiz-adv-x="1366" d="M-100 0l821 1446h321l205 -1446h-280l-37 307h-543l-168 -307h-319zM522 555h377l-65 580zM659 1882h263l90 -330h-215z" />
<glyph unicode="&#xc1;" horiz-adv-x="1366" d="M-100 0l821 1446h321l205 -1446h-280l-37 307h-543l-168 -307h-319zM522 555h377l-65 580zM780 1552l232 330h291l-285 -330h-238z" />
<glyph unicode="&#xc2;" horiz-adv-x="1366" d="M-100 0l821 1446h321l205 -1446h-280l-37 307h-543l-168 -307h-319zM522 555h377l-65 580zM526 1552l322 330h227l180 -330h-225l-88 179l-164 -179h-252z" />
<glyph unicode="&#xc3;" horiz-adv-x="1366" d="M-100 0l821 1446h321l205 -1446h-280l-37 307h-543l-168 -307h-319zM522 555h377l-65 580zM553 1567q20 142 88 219.5t176 77.5q43 0 80.5 -17t59 -37.5t47.5 -37.5t49 -17q51 0 75 98h195q-22 -142 -89 -218t-175 -76q-43 0 -80 17t-58.5 37t-48 37t-49.5 17 q-29 0 -46 -25.5t-29 -74.5h-195z" />
<glyph unicode="&#xc4;" horiz-adv-x="1366" d="M-100 0l821 1446h321l205 -1446h-280l-37 307h-543l-168 -307h-319zM522 555h377l-65 580zM561 1700q0 68 49.5 114t118.5 46q62 0 100.5 -36t38.5 -91q0 -68 -50 -116t-120 -48q-63 0 -100 37t-37 94zM979 1700q0 68 49.5 114t116.5 46q63 0 102 -36t39 -91 q0 -68 -51 -116t-119 -48q-63 0 -100 37t-37 94z" />
<glyph unicode="&#xc5;" horiz-adv-x="1366" d="M-100 0l821 1446h321l205 -1446h-280l-37 307h-543l-168 -307h-319zM522 555h377l-65 580zM694 1714q0 109 76.5 180.5t185.5 71.5q105 0 168.5 -55t63.5 -142q0 -107 -76.5 -179t-185.5 -72q-104 0 -168 55t-64 141zM836 1729q0 -38 27.5 -61t70.5 -23q46 0 79.5 33 t33.5 79q0 37 -27 60.5t-70 23.5q-46 0 -80 -32t-34 -80z" />
<glyph unicode="&#xc6;" horiz-adv-x="1937" d="M-100 0l1030 1446h1100l-56 -256h-624l-72 -344h541l-54 -248h-540l-72 -342h641l-55 -256h-916l64 301h-451l-196 -301h-340zM602 547h338l137 649h-8z" />
<glyph unicode="&#xc7;" horiz-adv-x="1538" d="M137 623q0 177 59 332.5t163 268.5t255 178.5t326 65.5q146 0 270 -44.5t214 -132.5t128 -210l-280 -108q-33 110 -125 173.5t-227 63.5q-146 0 -260.5 -77.5t-175 -205.5t-60.5 -282q0 -187 109 -298t303 -111q273 0 411 276l219 -145q-108 -192 -265 -288t-380 -102 l-18 -81q79 -15 124.5 -61t45.5 -109q0 -103 -74.5 -162.5t-200.5 -59.5q-145 0 -245 50l34 170q94 -43 175 -43q40 0 64 19.5t24 51.5q0 28 -29.5 47t-89.5 19h-29l39 174q-229 42 -366.5 207.5t-137.5 423.5z" />
<glyph unicode="&#xc8;" horiz-adv-x="1161" d="M41 0l307 1446h905l-55 -256h-623l-71 -344h536l-53 -248h-536l-72 -342h639l-55 -256h-922zM580 1882h262l90 -330h-215z" />
<glyph unicode="&#xc9;" horiz-adv-x="1161" d="M41 0l307 1446h905l-55 -256h-623l-71 -344h536l-53 -248h-536l-72 -342h639l-55 -256h-922zM702 1552l232 330h291l-285 -330h-238z" />
<glyph unicode="&#xca;" horiz-adv-x="1161" d="M41 0l307 1446h905l-55 -256h-623l-71 -344h536l-53 -248h-536l-72 -342h639l-55 -256h-922zM446 1552l322 330h227l181 -330h-226l-88 179l-164 -179h-252z" />
<glyph unicode="&#xcb;" horiz-adv-x="1161" d="M41 0l307 1446h905l-55 -256h-623l-71 -344h536l-53 -248h-536l-72 -342h639l-55 -256h-922zM483 1700q0 68 49.5 114t118.5 46q62 0 101 -36t39 -91q0 -68 -50 -116t-120 -48q-63 0 -100.5 37t-37.5 94zM901 1700q0 68 49.5 114t116.5 46q63 0 102 -36t39 -91 q0 -68 -51 -116t-119 -48q-63 0 -100 37t-37 94z" />
<glyph unicode="&#xcc;" horiz-adv-x="606" d="M49 0l307 1446h291l-307 -1446h-291zM281 1882h262l90 -330h-215z" />
<glyph unicode="&#xcd;" horiz-adv-x="606" d="M49 0l307 1446h291l-307 -1446h-291zM401 1552l232 330h291l-285 -330h-238z" />
<glyph unicode="&#xce;" horiz-adv-x="606" d="M49 0l307 1446h291l-307 -1446h-291zM147 1552l322 330h227l181 -330h-226l-88 179l-164 -179h-252z" />
<glyph unicode="&#xcf;" horiz-adv-x="606" d="M49 0l307 1446h291l-307 -1446h-291zM182 1700q0 68 49.5 114t118.5 46q62 0 100.5 -36t38.5 -91q0 -68 -50 -116t-120 -48q-63 0 -100 37t-37 94zM600 1700q0 68 49.5 114t116.5 46q63 0 102 -36t39 -91q0 -68 -51 -116t-119 -48q-63 0 -100 37t-37 94z" />
<glyph unicode="&#xd0;" horiz-adv-x="1505" d="M16 604l54 234h190l129 608h404q200 0 350.5 -69.5t234.5 -205t84 -319.5q0 -139 -34.5 -264.5t-107 -233t-176.5 -186t-251.5 -123.5t-323.5 -45h-487l129 604h-195zM422 256h203q105 0 194.5 30.5t154 84t110 126t68 157.5t22.5 177q0 168 -100.5 263.5t-262.5 95.5 h-190l-76 -352h342l-51 -234h-340z" />
<glyph unicode="&#xd1;" horiz-adv-x="1480" d="M41 0l307 1446h270l422 -967l207 967h281l-307 -1446h-271l-422 969l-204 -969h-283zM608 1567q20 142 88 219.5t176 77.5q43 0 80.5 -17t59 -37.5t47.5 -37.5t49 -17q52 0 76 98h194q-22 -142 -89 -218t-175 -76q-43 0 -80 17t-58.5 37t-47.5 37t-49 17q-52 0 -76 -100 h-195z" />
<glyph unicode="&#xd2;" horiz-adv-x="1695" d="M135 621q0 232 108.5 426t299.5 307.5t422 113.5q197 0 353 -79.5t244.5 -226.5t88.5 -337q0 -174 -64 -330.5t-174 -270.5t-264.5 -180.5t-327.5 -66.5q-302 0 -494 178.5t-192 465.5zM422 645q0 -183 114.5 -296t307.5 -113q148 0 268 79t185 208.5t65 279.5 q0 183 -116 295t-302 112q-148 0 -268.5 -77t-187 -206t-66.5 -282zM795 1876h262l90 -330h-215z" />
<glyph unicode="&#xd3;" horiz-adv-x="1695" d="M135 621q0 232 108.5 426t299.5 307.5t422 113.5q197 0 353 -79.5t244.5 -226.5t88.5 -337q0 -174 -64 -330.5t-174 -270.5t-264.5 -180.5t-327.5 -66.5q-302 0 -494 178.5t-192 465.5zM422 645q0 -183 114.5 -296t307.5 -113q148 0 268 79t185 208.5t65 279.5 q0 183 -116 295t-302 112q-148 0 -268.5 -77t-187 -206t-66.5 -282zM918 1546l231 330h291l-285 -330h-237z" />
<glyph unicode="&#xd4;" horiz-adv-x="1695" d="M135 621q0 232 108.5 426t299.5 307.5t422 113.5q197 0 353 -79.5t244.5 -226.5t88.5 -337q0 -174 -64 -330.5t-174 -270.5t-264.5 -180.5t-327.5 -66.5q-302 0 -494 178.5t-192 465.5zM422 645q0 -183 114.5 -296t307.5 -113q148 0 268 79t185 208.5t65 279.5 q0 183 -116 295t-302 112q-148 0 -268.5 -77t-187 -206t-66.5 -282zM664 1546l321 330h227l181 -330h-226l-88 178l-164 -178h-251z" />
<glyph unicode="&#xd5;" horiz-adv-x="1695" d="M135 621q0 232 108.5 426t299.5 307.5t422 113.5q197 0 353 -79.5t244.5 -226.5t88.5 -337q0 -174 -64 -330.5t-174 -270.5t-264.5 -180.5t-327.5 -66.5q-302 0 -494 178.5t-192 465.5zM422 645q0 -183 114.5 -296t307.5 -113q148 0 268 79t185 208.5t65 279.5 q0 183 -116 295t-302 112q-148 0 -268.5 -77t-187 -206t-66.5 -282zM690 1561q20 142 88 219.5t176 77.5q43 0 80.5 -17t59 -37.5t47.5 -37.5t49 -17q52 0 76 98h194q-22 -142 -89 -218.5t-175 -76.5q-43 0 -80 17t-58.5 37.5t-47.5 37.5t-49 17q-52 0 -76 -100h-195z" />
<glyph unicode="&#xd6;" horiz-adv-x="1695" d="M135 621q0 232 108.5 426t299.5 307.5t422 113.5q197 0 353 -79.5t244.5 -226.5t88.5 -337q0 -174 -64 -330.5t-174 -270.5t-264.5 -180.5t-327.5 -66.5q-302 0 -494 178.5t-192 465.5zM422 645q0 -183 114.5 -296t307.5 -113q148 0 268 79t185 208.5t65 279.5 q0 183 -116 295t-302 112q-148 0 -268.5 -77t-187 -206t-66.5 -282zM698 1694q0 68 49.5 113.5t118.5 45.5q62 0 101 -36t39 -91q0 -68 -50 -115.5t-120 -47.5q-63 0 -100.5 37t-37.5 94zM1116 1694q0 68 49.5 113.5t116.5 45.5q63 0 102 -36t39 -91q0 -68 -50.5 -115.5 t-119.5 -47.5q-63 0 -100 37t-37 94z" />
<glyph unicode="&#xd7;" horiz-adv-x="1171" d="M45 315l412 351l-246 327l180 150l246 -326l387 330l158 -178l-402 -340l238 -316l-180 -151l-238 315l-399 -338z" />
<glyph unicode="&#xd8;" horiz-adv-x="1695" d="M43 -61l236 268q-144 166 -144 414q0 232 108.5 426t299.5 307.5t422 113.5q197 0 352 -79l84 94h278l-192 -219q164 -178 164 -439q0 -174 -64 -330.5t-174 -270.5t-264.5 -180.5t-327.5 -66.5q-214 0 -383 97l-119 -135h-276zM422 645q0 -123 53 -215l655 746 q-81 34 -186 34q-148 0 -268.5 -77t-187 -206t-66.5 -282zM625 285q96 -49 219 -49q148 0 268 79t185 208.5t65 279.5q0 136 -70 239z" />
<glyph unicode="&#xd9;" horiz-adv-x="1404" d="M147 635l172 811h285l-174 -828q-40 -195 21.5 -288.5t242.5 -93.5q138 0 209 80t105 243l188 887h285l-195 -924q-59 -268 -206.5 -406.5t-401.5 -138.5q-322 0 -458.5 177.5t-72.5 480.5zM678 1882h262l90 -330h-215z" />
<glyph unicode="&#xda;" horiz-adv-x="1404" d="M147 635l172 811h285l-174 -828q-40 -195 21.5 -288.5t242.5 -93.5q138 0 209 80t105 243l188 887h285l-195 -924q-59 -268 -206.5 -406.5t-401.5 -138.5q-322 0 -458.5 177.5t-72.5 480.5zM801 1552l231 330h291l-285 -330h-237z" />
<glyph unicode="&#xdb;" horiz-adv-x="1404" d="M147 635l172 811h285l-174 -828q-40 -195 21.5 -288.5t242.5 -93.5q138 0 209 80t105 243l188 887h285l-195 -924q-59 -268 -206.5 -406.5t-401.5 -138.5q-322 0 -458.5 177.5t-72.5 480.5zM547 1552l321 330h228l180 -330h-225l-88 179l-164 -179h-252z" />
<glyph unicode="&#xdc;" horiz-adv-x="1404" d="M147 635l172 811h285l-174 -828q-40 -195 21.5 -288.5t242.5 -93.5q138 0 209 80t105 243l188 887h285l-195 -924q-59 -268 -206.5 -406.5t-401.5 -138.5q-322 0 -458.5 177.5t-72.5 480.5zM582 1700q0 68 49.5 114t118.5 46q62 0 100.5 -36t38.5 -91q0 -68 -50 -116 t-120 -48q-63 0 -100 37t-37 94zM999 1700q0 68 49.5 114t116.5 46q64 0 103 -36t39 -91q0 -68 -51 -116t-119 -48q-63 0 -100.5 37t-37.5 94z" />
<glyph unicode="&#xdd;" horiz-adv-x="1277" d="M203 1446h299l178 -617l438 617h352l-684 -909l-114 -537h-285l113 539zM711 1552l231 330h291l-285 -330h-237z" />
<glyph unicode="&#xde;" horiz-adv-x="1239" d="M41 0l307 1446h285l-51 -248h184q226 0 341.5 -92t115.5 -258q0 -127 -35.5 -229t-106.5 -178.5t-186 -118t-266 -41.5h-244l-59 -281h-285zM438 528h203q291 0 291 269q0 149 -225 149h-181z" />
<glyph unicode="&#xdf;" horiz-adv-x="1294" d="M92 0l170 799h-166l51 231h164l31 139q38 181 134 268t261 87q43 0 106 -8.5t91 -18.5l-47 -211q-55 21 -133 21q-62 0 -96 -39t-58 -148l-18 -90h669l-41 -196l-356 -375q137 -17 221 -110t84 -230q0 -245 -144 -390t-403 -145q-171 0 -282 49l112 228q76 -39 174 -39 q136 0 207.5 81.5t71.5 205.5q0 85 -55.5 132.5t-149.5 47.5q-46 0 -98 -10l-64 129l359 391h-357l-170 -799h-268z" />
<glyph unicode="&#xe0;" horiz-adv-x="1247" d="M70 432q0 124 37 236.5t102 198t162 136t211 50.5q129 0 217.5 -53t132.5 -148l39 178h268l-221 -1030h-266l30 139q-126 -162 -317 -162q-173 0 -284 125.5t-111 329.5zM336 473q0 -113 64.5 -185.5t174.5 -72.5q135 0 215 101t80 245q0 112 -63.5 182t-169.5 70 q-136 0 -218.5 -98.5t-82.5 -241.5zM532 1501h263l86 -340h-209z" />
<glyph unicode="&#xe1;" horiz-adv-x="1247" d="M70 432q0 124 37 236.5t102 198t162 136t211 50.5q129 0 217.5 -53t132.5 -148l39 178h268l-221 -1030h-266l30 139q-126 -162 -317 -162q-173 0 -284 125.5t-111 329.5zM336 473q0 -113 64.5 -185.5t174.5 -72.5q135 0 215 101t80 245q0 112 -63.5 182t-169.5 70 q-136 0 -218.5 -98.5t-82.5 -241.5zM659 1161l228 340h295l-287 -340h-236z" />
<glyph unicode="&#xe2;" horiz-adv-x="1247" d="M70 432q0 124 37 236.5t102 198t162 136t211 50.5q129 0 217.5 -53t132.5 -148l39 178h268l-221 -1030h-266l30 139q-126 -162 -317 -162q-173 0 -284 125.5t-111 329.5zM336 473q0 -113 64.5 -185.5t174.5 -72.5q135 0 215 101t80 245q0 112 -63.5 182t-169.5 70 q-136 0 -218.5 -98.5t-82.5 -241.5zM406 1161l327 340h228l188 -340h-227l-93 185l-170 -185h-253z" />
<glyph unicode="&#xe3;" horiz-adv-x="1247" d="M70 432q0 124 37 236.5t102 198t162 136t211 50.5q129 0 217.5 -53t132.5 -148l39 178h268l-221 -1030h-266l30 139q-126 -162 -317 -162q-173 0 -284 125.5t-111 329.5zM336 473q0 -113 64.5 -185.5t174.5 -72.5q135 0 215 101t80 245q0 112 -63.5 182t-169.5 70 q-136 0 -218.5 -98.5t-82.5 -241.5zM426 1178q22 143 89.5 220t174.5 77q43 0 80.5 -17t59.5 -37.5t48.5 -37.5t49.5 -17q49 0 73 100h195q-20 -143 -88 -220t-176 -77q-42 0 -79 17t-59 37.5t-48.5 37.5t-49.5 17q-29 0 -46 -25.5t-29 -74.5h-195z" />
<glyph unicode="&#xe4;" horiz-adv-x="1247" d="M70 432q0 124 37 236.5t102 198t162 136t211 50.5q129 0 217.5 -53t132.5 -148l39 178h268l-221 -1030h-266l30 139q-126 -162 -317 -162q-173 0 -284 125.5t-111 329.5zM336 473q0 -113 64.5 -185.5t174.5 -72.5q135 0 215 101t80 245q0 112 -63.5 182t-169.5 70 q-136 0 -218.5 -98.5t-82.5 -241.5zM434 1323q0 70 49.5 116t118.5 46q62 0 100.5 -36.5t38.5 -92.5q0 -71 -50 -117.5t-120 -46.5q-63 0 -100 37.5t-37 93.5zM852 1323q0 70 49 116t117 46q64 0 102.5 -36.5t38.5 -92.5q0 -70 -50.5 -117t-119.5 -47q-63 0 -100 37.5 t-37 93.5z" />
<glyph unicode="&#xe5;" horiz-adv-x="1247" d="M70 432q0 124 37 236.5t102 198t162 136t211 50.5q129 0 217.5 -53t132.5 -148l39 178h268l-221 -1030h-266l30 139q-126 -162 -317 -162q-173 0 -284 125.5t-111 329.5zM336 473q0 -113 64.5 -185.5t174.5 -72.5q135 0 215 101t80 245q0 112 -63.5 182t-169.5 70 q-136 0 -218.5 -98.5t-82.5 -241.5zM573 1352q0 109 77 180.5t186 71.5q104 0 167.5 -55.5t63.5 -141.5q0 -109 -75.5 -180.5t-184.5 -71.5q-105 0 -169.5 55.5t-64.5 141.5zM715 1366q0 -38 27 -62t69 -24q48 0 81.5 34t33.5 79q0 37 -27.5 61.5t-69.5 24.5 q-46 0 -80 -32.5t-34 -80.5z" />
<glyph unicode="&#xe6;" horiz-adv-x="1837" d="M14 297q0 166 106.5 265.5t280.5 99.5q98 0 194 -31t140 -78l13 55q24 114 -35.5 171t-173.5 57q-117 0 -238 -97l-154 150q72 76 180 120t232 44q118 0 208.5 -39t143.5 -111q150 150 387 150q213 0 340 -124t127 -321q0 -85 -22 -180h-768q6 -102 80.5 -162.5 t206.5 -60.5q153 0 262 123l168 -150q-156 -201 -447 -201q-136 0 -242.5 47.5t-173.5 133.5q-130 -181 -374 -181q-187 0 -314 84.5t-127 235.5zM272 324q0 -64 54.5 -97.5t142.5 -33.5q87 0 145.5 43.5t79.5 128.5q-30 55 -96.5 81.5t-146.5 26.5q-85 0 -132 -37t-47 -112 zM997 614h516q-6 104 -63 165t-162 61q-107 0 -184 -62.5t-107 -163.5z" />
<glyph unicode="&#xe7;" horiz-adv-x="1107" d="M68 436q0 127 44 240.5t120.5 196.5t186 131.5t234.5 48.5q158 0 276.5 -73.5t168.5 -201.5l-254 -102q-58 139 -203 139q-136 0 -221.5 -104.5t-85.5 -247.5q0 -112 64 -180t175 -68q161 0 250 168l205 -141q-74 -130 -190 -196t-258 -69l-19 -81q79 -15 124.5 -61 t45.5 -109q0 -103 -74 -162.5t-200 -59.5q-146 0 -246 50l35 170q94 -43 174 -43q40 0 64 19.5t24 51.5q0 28 -29.5 47t-89.5 19h-29l41 180q-155 42 -244 157.5t-89 280.5z" />
<glyph unicode="&#xe8;" horiz-adv-x="1185" d="M70 442q0 170 70 308.5t202.5 220.5t304.5 82q213 0 340 -124t127 -321q0 -85 -22 -180h-762q6 -103 78 -163t202 -60q153 0 262 123l170 -150q-156 -201 -448 -201q-230 0 -377 129.5t-147 335.5zM350 614h512q-6 104 -63 165t-162 61q-106 0 -180.5 -62t-106.5 -164z M453 1501h262l86 -340h-209z" />
<glyph unicode="&#xe9;" horiz-adv-x="1185" d="M70 442q0 170 70 308.5t202.5 220.5t304.5 82q213 0 340 -124t127 -321q0 -85 -22 -180h-762q6 -103 78 -163t202 -60q153 0 262 123l170 -150q-156 -201 -448 -201q-230 0 -377 129.5t-147 335.5zM350 614h512q-6 104 -63 165t-162 61q-106 0 -180.5 -62t-106.5 -164z M580 1161l227 340h295l-287 -340h-235z" />
<glyph unicode="&#xea;" horiz-adv-x="1185" d="M70 442q0 170 70 308.5t202.5 220.5t304.5 82q213 0 340 -124t127 -321q0 -85 -22 -180h-762q6 -103 78 -163t202 -60q153 0 262 123l170 -150q-156 -201 -448 -201q-230 0 -377 129.5t-147 335.5zM326 1161l327 340h228l188 -340h-227l-92 185l-170 -185h-254zM350 614 h512q-6 104 -63 165t-162 61q-106 0 -180.5 -62t-106.5 -164z" />
<glyph unicode="&#xeb;" horiz-adv-x="1185" d="M70 442q0 170 70 308.5t202.5 220.5t304.5 82q213 0 340 -124t127 -321q0 -85 -22 -180h-762q6 -103 78 -163t202 -60q153 0 262 123l170 -150q-156 -201 -448 -201q-230 0 -377 129.5t-147 335.5zM350 614h512q-6 104 -63 165t-162 61q-106 0 -180.5 -62t-106.5 -164z M354 1323q0 70 49.5 116t118.5 46q62 0 101 -36.5t39 -92.5q0 -71 -50 -117.5t-120 -46.5q-63 0 -100.5 37.5t-37.5 93.5zM772 1323q0 70 49 116t117 46q64 0 102.5 -36.5t38.5 -92.5q0 -70 -50.5 -117t-119.5 -47q-63 0 -100 37.5t-37 93.5z" />
<glyph unicode="&#xec;" d="M27 0l219 1030h272l-217 -1030h-274zM180 1501h256l82 -340h-215z" />
<glyph unicode="&#xed;" d="M27 0l219 1030h272l-217 -1030h-274zM281 1161l223 340h287l-275 -340h-235z" />
<glyph unicode="&#xee;" d="M27 0l219 1030h272l-217 -1030h-274zM104 1161l261 340h213l116 -340h-200l-43 185l-123 -185h-224z" />
<glyph unicode="&#xef;" d="M27 0l219 1030h272l-217 -1030h-274zM123 1321q0 69 47 116.5t115 47.5q59 0 94 -36t35 -91q0 -69 -48 -117.5t-116 -48.5q-58 0 -92.5 36.5t-34.5 92.5zM483 1321q0 69 47.5 116.5t114.5 47.5q60 0 95.5 -36t35.5 -91q0 -68 -49 -117t-115 -49q-60 0 -94.5 36.5 t-34.5 92.5z" />
<glyph unicode="&#xf0;" horiz-adv-x="1232" d="M70 438q0 165 67.5 297.5t190.5 208.5t278 76q192 0 299 -131q-25 112 -139 268l-270 -119l-45 193l182 82q-20 23 -57 61t-46 47l175 131q95 -91 143 -145l334 149l49 -194l-256 -113q201 -283 201 -590q0 -133 -41 -254.5t-116 -217.5t-192 -153t-258 -57 q-226 0 -362.5 126t-136.5 335zM334 463q0 -110 65.5 -179t180.5 -69q136 0 228.5 104t92.5 244q0 109 -68.5 174.5t-185.5 65.5q-136 0 -224.5 -99t-88.5 -241z" />
<glyph unicode="&#xf1;" horiz-adv-x="1193" d="M18 0l220 1030h264l-31 -145q64 79 154 123.5t194 44.5q190 0 259 -125.5t22 -347.5l-125 -580h-268l116 532q32 146 -2 215.5t-133 69.5q-109 0 -184.5 -81.5t-108.5 -229.5l-108 -506h-269zM393 1178q22 143 89.5 220t174.5 77q43 0 80.5 -17t59.5 -37.5t48.5 -37.5 t49.5 -17q50 0 74 100h194q-20 -143 -88 -220t-176 -77q-42 0 -79 17t-58.5 37.5t-48 37.5t-49.5 17q-52 0 -76 -100h-195z" />
<glyph unicode="&#xf2;" horiz-adv-x="1234" d="M68 440q0 171 79 312t216.5 221t304.5 80q220 0 359.5 -129t139.5 -334q0 -171 -78.5 -311.5t-216.5 -221t-305 -80.5q-220 0 -359.5 129t-139.5 334zM334 465q0 -111 69.5 -180.5t184.5 -69.5q137 0 225 103.5t88 246.5q0 111 -69 179.5t-185 68.5q-135 0 -224 -101.5 t-89 -246.5zM479 1493h262l86 -340h-209z" />
<glyph unicode="&#xf3;" horiz-adv-x="1234" d="M68 440q0 171 79 312t216.5 221t304.5 80q220 0 359.5 -129t139.5 -334q0 -171 -78.5 -311.5t-216.5 -221t-305 -80.5q-220 0 -359.5 129t-139.5 334zM334 465q0 -111 69.5 -180.5t184.5 -69.5q137 0 225 103.5t88 246.5q0 111 -69 179.5t-185 68.5q-135 0 -224 -101.5 t-89 -246.5zM604 1153l227 340h295l-286 -340h-236z" />
<glyph unicode="&#xf4;" horiz-adv-x="1234" d="M68 440q0 171 79 312t216.5 221t304.5 80q220 0 359.5 -129t139.5 -334q0 -171 -78.5 -311.5t-216.5 -221t-305 -80.5q-220 0 -359.5 129t-139.5 334zM334 465q0 -111 69.5 -180.5t184.5 -69.5q137 0 225 103.5t88 246.5q0 111 -69 179.5t-185 68.5q-135 0 -224 -101.5 t-89 -246.5zM350 1153l328 340h227l189 -340h-228l-92 184l-170 -184h-254z" />
<glyph unicode="&#xf5;" horiz-adv-x="1234" d="M68 440q0 171 79 312t216.5 221t304.5 80q220 0 359.5 -129t139.5 -334q0 -171 -78.5 -311.5t-216.5 -221t-305 -80.5q-220 0 -359.5 129t-139.5 334zM334 465q0 -111 69.5 -180.5t184.5 -69.5q137 0 225 103.5t88 246.5q0 111 -69 179.5t-185 68.5q-135 0 -224 -101.5 t-89 -246.5zM371 1169q22 143 89.5 220t174.5 77q43 0 80.5 -17t59 -37t48 -37t49.5 -17q50 0 74 100h195q-20 -143 -88 -220t-176 -77q-42 0 -79 17t-59 37.5t-48.5 37.5t-49.5 17q-52 0 -76 -101h-194z" />
<glyph unicode="&#xf6;" horiz-adv-x="1234" d="M68 440q0 171 79 312t216.5 221t304.5 80q220 0 359.5 -129t139.5 -334q0 -171 -78.5 -311.5t-216.5 -221t-305 -80.5q-220 0 -359.5 129t-139.5 334zM334 465q0 -111 69.5 -180.5t184.5 -69.5q137 0 225 103.5t88 246.5q0 111 -69 179.5t-185 68.5q-135 0 -224 -101.5 t-89 -246.5zM381 1315q0 70 49.5 116t118.5 46q62 0 100.5 -36.5t38.5 -92.5q0 -71 -50 -117.5t-120 -46.5q-63 0 -100 37.5t-37 93.5zM799 1315q0 70 49 116t117 46q64 0 102.5 -36.5t38.5 -92.5q0 -70 -50.5 -117t-119.5 -47q-63 0 -100 37.5t-37 93.5z" />
<glyph unicode="&#xf7;" horiz-adv-x="1097" d="M92 526l47 238h922l-47 -238h-922zM291 211q0 80 51 131t125 51q71 0 113.5 -39t42.5 -100q0 -80 -50 -131t-131 -51q-68 0 -109.5 39t-41.5 100zM467 1040q0 80 51 131.5t125 51.5q71 0 113.5 -39t42.5 -101q0 -80 -50 -131t-131 -51q-68 0 -109.5 39t-41.5 100z" />
<glyph unicode="&#xf8;" horiz-adv-x="1234" d="M-2 -59l178 198q-108 120 -108 301q0 171 79 312t216.5 221t304.5 80q142 0 258 -58l92 103h231l-186 -211q104 -123 104 -297q0 -171 -78.5 -311.5t-216.5 -221t-305 -80.5q-136 0 -254 56l-82 -92h-233zM334 465q0 -69 28 -123l404 449q-55 22 -119 22 q-135 0 -224 -101.5t-89 -246.5zM473 238q58 -23 115 -23q137 0 225 103.5t88 246.5q0 67 -24 119z" />
<glyph unicode="&#xf9;" horiz-adv-x="1177" d="M72.5 262q-8.5 87 15.5 189l125 579h268l-116 -532q-32 -147 1 -216t132 -69q111 0 185.5 81t107.5 228l106 508h268l-219 -1030h-266l35 143q-134 -166 -338 -166q-95 0 -162.5 36t-100.5 99t-41.5 150zM469 1501h262l86 -340h-209z" />
<glyph unicode="&#xfa;" horiz-adv-x="1177" d="M72.5 262q-8.5 87 15.5 189l125 579h268l-116 -532q-32 -147 1 -216t132 -69q111 0 185.5 81t107.5 228l106 508h268l-219 -1030h-266l35 143q-134 -166 -338 -166q-95 0 -162.5 36t-100.5 99t-41.5 150zM596 1161l227 340h295l-287 -340h-235z" />
<glyph unicode="&#xfb;" horiz-adv-x="1177" d="M72.5 262q-8.5 87 15.5 189l125 579h268l-116 -532q-32 -147 1 -216t132 -69q111 0 185.5 81t107.5 228l106 508h268l-219 -1030h-266l35 143q-134 -166 -338 -166q-95 0 -162.5 36t-100.5 99t-41.5 150zM342 1161l328 340h227l188 -340h-227l-92 185l-170 -185h-254z " />
<glyph unicode="&#xfc;" horiz-adv-x="1177" d="M72.5 262q-8.5 87 15.5 189l125 579h268l-116 -532q-32 -147 1 -216t132 -69q111 0 185.5 81t107.5 228l106 508h268l-219 -1030h-266l35 143q-134 -166 -338 -166q-95 0 -162.5 36t-100.5 99t-41.5 150zM371 1323q0 70 49.5 116t118.5 46q62 0 100.5 -36.5t38.5 -92.5 q0 -71 -50 -117.5t-120 -46.5q-63 0 -100 37.5t-37 93.5zM788 1323q0 70 49 116t117 46q64 0 103 -36.5t39 -92.5q0 -70 -50.5 -117t-119.5 -47q-63 0 -100.5 37.5t-37.5 93.5z" />
<glyph unicode="&#xfd;" horiz-adv-x="1112" d="M92 -401l232 397l-195 1034h277l90 -768l391 768h315l-813 -1431h-297zM557 1161l227 340h295l-286 -340h-236z" />
<glyph unicode="&#xfe;" horiz-adv-x="1255" d="M-68 -401l404 1902h268l-125 -586q122 138 303 138q185 0 293.5 -123.5t108.5 -331.5q0 -124 -37 -236.5t-102 -198t-162 -136t-211 -50.5q-128 0 -216 53t-132 148l-123 -579h-269zM387 469q0 -113 62 -183.5t169 -70.5q134 0 217 99.5t83 242.5q0 113 -65 184.5 t-175 71.5q-134 0 -212.5 -99.5t-78.5 -244.5z" />
<glyph unicode="&#xff;" horiz-adv-x="1112" d="M92 -401l232 397l-195 1034h277l90 -768l391 768h315l-813 -1431h-297zM334 1323q0 70 49.5 116t118.5 46q62 0 100.5 -36.5t38.5 -92.5q0 -71 -50 -117.5t-120 -46.5q-63 0 -100 37.5t-37 93.5zM752 1323q0 70 49 116t117 46q64 0 102.5 -36.5t38.5 -92.5 q0 -70 -50.5 -117t-119.5 -47q-63 0 -100 37.5t-37 93.5z" />
<glyph unicode="&#x152;" horiz-adv-x="1886" d="M135 623q0 176 61.5 328.5t169.5 261.5t261 171t329 62h125h146h751l-55 -256h-614l-74 -344h530l-53 -248h-530l-72 -342h633l-55 -256h-914q-136 5 -251.5 47.5t-202 119t-136 194t-49.5 262.5zM422 645q0 -178 108.5 -279.5t298.5 -107.5l197 930h-90 q-149 0 -267 -71.5t-182.5 -195.5t-64.5 -276z" />
<glyph unicode="&#x153;" horiz-adv-x="2019" d="M70 440q0 129 45 242.5t122.5 195t187 128.5t234.5 47q127 0 230 -49.5t168 -139.5q75 90 183.5 139.5t242.5 49.5q213 0 339 -123.5t126 -321.5q0 -90 -23 -180h-766q6 -102 80 -162.5t205 -60.5q152 0 264 123l168 -150q-156 -201 -449 -201q-141 0 -253 52t-179 145 q-78 -92 -188.5 -144.5t-237.5 -52.5q-220 0 -359.5 129t-139.5 334zM334 465q0 -111 69.5 -180.5t184.5 -69.5q136 0 220.5 103t84.5 247q0 111 -69 179.5t-185 68.5q-134 0 -219.5 -101t-85.5 -247zM1182 614h516q-6 103 -64.5 164.5t-163.5 61.5q-106 0 -181.5 -62.5 t-106.5 -163.5z" />
<glyph unicode="&#x178;" horiz-adv-x="1277" d="M203 1446h299l178 -617l438 617h352l-684 -909l-114 -537h-285l113 539zM492 1700q0 68 49 114t118 46q62 0 101 -36t39 -91q0 -68 -50 -116t-120 -48q-63 0 -100 37t-37 94zM909 1700q0 68 49.5 114t116.5 46q64 0 103 -36t39 -91q0 -68 -51 -116t-119 -48 q-63 0 -100.5 37t-37.5 94z" />
<glyph unicode="&#x2c6;" horiz-adv-x="759" d="M145 1161l330 340h227l187 -340h-227l-91 182l-170 -182h-256z" />
<glyph unicode="&#x2dc;" horiz-adv-x="759" d="M166 1178q22 143 89.5 220t174.5 77q43 0 80.5 -17t59.5 -37.5t48.5 -37.5t49.5 -17q49 0 73 100h195q-20 -143 -88 -220t-176 -77q-42 0 -79 17t-59 37.5t-48.5 37.5t-49.5 17q-52 0 -76 -100h-194z" />
<glyph unicode="&#x2000;" horiz-adv-x="983" />
<glyph unicode="&#x2001;" horiz-adv-x="1966" />
<glyph unicode="&#x2002;" horiz-adv-x="983" />
<glyph unicode="&#x2003;" horiz-adv-x="1966" />
<glyph unicode="&#x2004;" horiz-adv-x="655" />
<glyph unicode="&#x2005;" horiz-adv-x="491" />
<glyph unicode="&#x2006;" horiz-adv-x="327" />
<glyph unicode="&#x2007;" horiz-adv-x="327" />
<glyph unicode="&#x2008;" horiz-adv-x="245" />
<glyph unicode="&#x2009;" horiz-adv-x="393" />
<glyph unicode="&#x200a;" horiz-adv-x="109" />
<glyph unicode="&#x2010;" horiz-adv-x="925" d="M78 395l45 238h725l-47 -238h-723z" />
<glyph unicode="&#x2011;" horiz-adv-x="925" d="M78 395l45 238h725l-47 -238h-723z" />
<glyph unicode="&#x2012;" horiz-adv-x="925" d="M78 395l45 238h725l-47 -238h-723z" />
<glyph unicode="&#x2013;" horiz-adv-x="1234" d="M66 395l45 238h1058l-45 -238h-1058z" />
<glyph unicode="&#x2014;" horiz-adv-x="2019" d="M63 395l48 238h1845l-47 -238h-1846z" />
<glyph unicode="&#x2018;" d="M168 848l278 653h211l-182 -653h-307z" />
<glyph unicode="&#x2019;" d="M170 848l180 653h307l-278 -653h-209z" />
<glyph unicode="&#x201a;" d="M-76 -299l185 653h307l-279 -653h-213z" />
<glyph unicode="&#x201c;" horiz-adv-x="993" d="M168 848l285 653h209l-185 -653h-309zM612 848l285 653h209l-184 -653h-310z" />
<glyph unicode="&#x201d;" horiz-adv-x="993" d="M170 848l184 653h308l-283 -653h-209zM612 848l187 653h307l-285 -653h-209z" />
<glyph unicode="&#x201e;" horiz-adv-x="993" d="M-76 -299l187 653h307l-283 -653h-211zM369 -299l184 653h309l-284 -653h-209z" />
<glyph unicode="&#x2022;" horiz-adv-x="821" d="M94 475q0 153 99 251.5t241 98.5q136 0 217.5 -75t81.5 -195q0 -153 -96 -251.5t-250 -98.5q-132 0 -212.5 76.5t-80.5 193.5z" />
<glyph unicode="&#x2026;" horiz-adv-x="1638" d="M25 131q0 82 53 135t129 53q74 0 118 -40.5t44 -104.5q0 -84 -51.5 -137t-135.5 -53q-71 0 -114 41.5t-43 105.5zM571 131q0 82 53.5 135t129.5 53q74 0 117.5 -40.5t43.5 -104.5q0 -84 -51 -137t-135 -53q-71 0 -114.5 41.5t-43.5 105.5zM1118 131q0 82 53 135t129 53 q74 0 118 -40.5t44 -104.5q0 -84 -51 -137t-135 -53q-71 0 -114.5 41.5t-43.5 105.5z" />
<glyph unicode="&#x202f;" horiz-adv-x="393" />
<glyph unicode="&#x2039;" horiz-adv-x="638" d="M41 510l422 496l182 -152l-326 -377l140 -344l-207 -117z" />
<glyph unicode="&#x203a;" horiz-adv-x="638" d="M-8 168l323 377l-139 344l207 117l213 -494l-422 -496z" />
<glyph unicode="&#x205f;" horiz-adv-x="491" />
<glyph unicode="&#x20ac;" horiz-adv-x="1402" d="M72 492l34 161h125q7 77 21 142h-117l35 161h129q88 229 264 369.5t404 140.5q174 0 305 -75t192 -213l-239 -117q-30 71 -100.5 114.5t-166.5 43.5q-122 0 -214.5 -71t-151.5 -192h469l-35 -161h-489q-14 -65 -21 -142h481l-34 -161h-443q19 -142 96.5 -203.5 t208.5 -61.5q97 0 173 47.5t124 133.5l183 -164q-85 -129 -221.5 -196.5t-290.5 -67.5q-240 0 -391 139t-171 373h-159z" />
<glyph unicode="&#x2122;" horiz-adv-x="1466" d="M213 1292l33 154h528l-33 -154h-176l-104 -489h-176l104 489h-176zM735 803l137 643h203l82 -318l229 318h211l-137 -643h-166l82 393l-213 -285h-90l-82 310l-90 -418h-166z" />
<glyph unicode="&#x25fc;" horiz-adv-x="1034" d="M0 0v1034h1034v-1034h-1034z" />
</font>
</defs>
</svg>
