<?xml version="1.0" standalone="no"?>
<!DOCTYPE svg PUBLIC "-//W3C//DTD SVG 1.1//EN" "http://www.w3.org/Graphics/SVG/1.1/DTD/svg11.dtd" >
<svg xmlns="http://www.w3.org/2000/svg" xmlns:xlink="http://www.w3.org/1999/xlink" version="1.1">
<metadata></metadata>
<defs>
<font id="zabal_demothin_italic" horiz-adv-x="1269" >
<font-face units-per-em="2048" ascent="1638" descent="-410" />
<missing-glyph horiz-adv-x="430" />
<glyph unicode="&#xfb01;" horiz-adv-x="1075" d="M125 0l207 975h-203l10 45h203l43 203q11 54 25 94.5t38.5 81t57 66t81 41.5t109.5 16q46 0 138 -15l-11 -45q-84 15 -133 15q-66 0 -113 -19.5t-75 -59t-43.5 -80.5t-28.5 -104l-41 -194h336l-10 -45h-336l-207 -975h-47zM737 0l217 1020h45l-217 -1020h-45zM997 1382 q0 28 20 45t46 17q22 0 35.5 -13t13.5 -36q0 -28 -19.5 -45t-45.5 -17q-22 0 -36 13t-14 36z" />
<glyph unicode="&#xfb02;" horiz-adv-x="1075" d="M125 0l207 975h-203l10 45h203l43 203q11 54 25 94.5t38.5 81t57 66t81 41.5t109.5 16q46 0 138 -15l-11 -45q-84 15 -133 15q-66 0 -113 -19.5t-75 -59t-43.5 -80.5t-28.5 -104l-41 -194h336l-10 -45h-336l-207 -975h-47zM737 0l320 1501h45l-320 -1501h-45z" />
<glyph horiz-adv-x="0" />
<glyph horiz-adv-x="682" />
<glyph horiz-adv-x="0" />
<glyph horiz-adv-x="0" />
<glyph unicode="&#xd;" horiz-adv-x="681" />
<glyph unicode=" "  horiz-adv-x="430" />
<glyph unicode="&#x09;" horiz-adv-x="430" />
<glyph unicode="&#xa0;" horiz-adv-x="430" />
<glyph unicode="!" horiz-adv-x="389" d="M37 41q0 31 19.5 49.5t47.5 18.5q24 0 38 -14t14 -38q0 -31 -20 -49t-48 -18q-24 0 -37.5 13.5t-13.5 37.5zM139 338l219 1108h72l-250 -1108h-41z" />
<glyph unicode="&#x22;" horiz-adv-x="585" d="M233 1036l101 465h43l-101 -465h-43zM532 1036l101 465h43l-101 -465h-43z" />
<glyph unicode="#" horiz-adv-x="1331" d="M23 428l10 45h307l217 502h-295l10 45h303l185 426h49l-184 -426h426l184 426h49l-184 -426h299l-10 -45h-308l-217 -502h295l-10 -45h-303l-184 -428h-50l185 428h-426l-185 -428h-49l185 428h-299zM389 473h426l217 502h-426z" />
<glyph unicode="$" horiz-adv-x="1150" d="M51 313l47 15q27 -127 128.5 -202t248.5 -93l146 682l-9 2q-62 20 -107 38t-95 46.5t-81.5 61.5t-52 80.5t-20.5 103.5q0 181 120.5 300t315.5 119q46 0 86 -6l37 170h43l-37 -176q112 -25 189.5 -90.5t107.5 -163.5l-47 -10q-29 86 -96 141.5t-164 75.5l-141 -662 q83 -30 141 -58.5t107 -68t73.5 -91.5t24.5 -117q0 -192 -125.5 -311t-337.5 -119q-31 0 -45 2l-35 -166h-43l35 170q-160 19 -272 104t-142 223zM305 1051q0 -36 10 -68t24.5 -55.5t41.5 -45.5t49.5 -36.5t61.5 -31.5t65 -27t70 -25q2 0 4 -2l139 653q-40 6 -84 6 q-170 0 -275.5 -104t-105.5 -264zM518 29q14 -2 45 -2q181 0 292.5 106.5t111.5 272.5q0 108 -77 175t-228 119z" />
<glyph unicode="%" horiz-adv-x="1910" d="M184 907q0 104 26.5 202.5t75.5 178.5t127.5 129t174.5 49q130 0 213.5 -91t83.5 -242q0 -104 -26.5 -202.5t-75.5 -179t-127.5 -129.5t-174.5 -49q-130 0 -213.5 91.5t-83.5 242.5zM229 913q0 -137 68.5 -217t189.5 -80q83 0 152 46t111.5 120t66 163.5t23.5 180.5 q0 137 -68.5 217t-189.5 80q-83 0 -152 -46t-111.5 -120t-66 -163.5t-23.5 -180.5zM393 0l1159 1446h56l-1159 -1446h-56zM1116 313q0 104 26.5 202.5t75.5 178.5t127.5 129t174.5 49q130 0 213.5 -91t83.5 -242q0 -104 -26.5 -202.5t-75.5 -178.5t-127.5 -129t-174.5 -49 q-130 0 -213.5 91t-83.5 242zM1161 319q0 -137 68.5 -216.5t189.5 -79.5q83 0 152 45.5t111.5 120t66 163.5t23.5 180q0 137 -69 217t-190 80q-83 0 -152 -46t-111.5 -120t-65.5 -163.5t-23 -180.5z" />
<glyph unicode="&#x26;" horiz-adv-x="1431" d="M94 350q0 56 14.5 106t37 87.5t60.5 73t74.5 60t90 50.5t95.5 43t103 39q-62 87 -94.5 162t-32.5 155q0 146 106.5 243t260.5 97q145 0 228 -73.5t83 -182.5q0 -41 -9.5 -77.5t-22.5 -65.5t-39.5 -57.5t-48.5 -48.5t-62 -43t-66.5 -36.5t-76 -33.5t-77 -30t-81.5 -30 l399 -559q111 107 188.5 253t106.5 311h47q-30 -179 -112.5 -333.5t-204.5 -266.5l123 -173l-35 -30l-123 172q-217 -182 -471 -182q-127 0 -232.5 47t-167 132.5t-61.5 190.5zM141 356q0 -99 62 -176.5t157 -116t203 -38.5q232 0 438 174l-407 573q-58 -21 -98.5 -36.5 t-92 -39.5t-85.5 -46.5t-70.5 -54t-58 -65.5t-35 -78.5t-13.5 -95.5zM489 1135q0 -134 123 -312q198 72 272 113q160 87 185 213q6 27 6 57q0 95 -72 155t-200 60t-221 -82.5t-93 -203.5z" />
<glyph unicode="'" horiz-adv-x="286" d="M233 1036l101 465h43l-101 -465h-43z" />
<glyph unicode="(" horiz-adv-x="618" d="M92 332q0 224 81 447.5t234 404t347 262.5l14 -43q-184 -77 -329.5 -251t-222.5 -389t-77 -427q0 -200 73 -350t208 -217l-31 -35q-143 74 -220 231.5t-77 366.5z" />
<glyph unicode=")" horiz-adv-x="618" d="M-115 -223q184 77 329.5 251t222.5 389t77 427q0 200 -73 350t-208 217l31 35q143 -74 220 -231.5t77 -366.5q0 -167 -48 -339t-132.5 -322t-209.5 -271t-271 -182z" />
<glyph unicode="*" horiz-adv-x="817" d="M188 1034l320 105l-244 225l23 39l243 -238l66 336h45l-76 -342l305 111l23 -39l-320 -107l244 -223l-22 -39l-242 236l-68 -334h-45l78 340l-307 -109z" />
<glyph unicode="+" horiz-adv-x="1024" d="M104 614l11 45h405l92 428h45l-92 -428h410l-10 -45h-408l-92 -428h-45l92 428h-408z" />
<glyph unicode="," horiz-adv-x="389" d="M-57 -311l176 465h61l-194 -465h-43z" />
<glyph unicode="-" horiz-adv-x="802" d="M90 492l10 45h615l-10 -45h-615z" />
<glyph unicode="." horiz-adv-x="389" d="M37 41q0 31 19.5 49.5t47.5 18.5q24 0 38 -14t14 -38q0 -31 -20 -49t-48 -18q-24 0 -37.5 13.5t-13.5 37.5z" />
<glyph unicode="/" horiz-adv-x="577" d="M-168 -258l885 1759h51l-885 -1759h-51z" />
<glyph unicode="0" horiz-adv-x="1413" d="M158 547q0 137 30 269.5t89 248t140.5 203.5t192.5 139t236 51q240 0 371 -148.5t131 -406.5q0 -137 -30 -270t-89.5 -249t-141 -204.5t-192.5 -140t-236 -51.5q-239 0 -370 150.5t-131 408.5zM207 547q0 -241 118 -376.5t337 -135.5q119 0 222.5 49t178 133.5 t128.5 195.5t80.5 235.5t26.5 252.5q0 239 -118.5 374.5t-335.5 135.5q-119 0 -222.5 -49t-178.5 -133t-129 -194.5t-80.5 -235t-26.5 -252.5z" />
<glyph unicode="1" horiz-adv-x="729" d="M203 1249l522 201h10l-307 -1450h-49l293 1380l-463 -178z" />
<glyph unicode="2" horiz-adv-x="1157" d="M8 0l8 37l379 274q264 192 363 275q267 223 331 406q23 66 23 130q0 72 -30.5 130t-82 93.5t-116.5 54.5t-138 19q-150 0 -267.5 -59t-188.5 -174l-39 20q68 126 199.5 193t304.5 67q175 0 291 -92.5t116 -253.5q0 -65 -24 -132.5t-57 -124t-96 -125t-113 -116t-138 -117 t-140 -108t-149 -108.5l-333 -242h876l-10 -47h-969z" />
<glyph unicode="3" horiz-adv-x="1163" d="M39 248l49 8q45 -112 167 -170.5t269 -58.5q134 0 239.5 60.5t162.5 163.5t57 230q0 67 -24 122.5t-65.5 93.5t-97.5 64t-118 38t-129 12q-60 0 -137 -25l-23 27l705 586h-748l10 47h830l-8 -37l-664 -555q14 2 57 2q124 0 227.5 -42.5t168.5 -129.5t65 -203 q0 -216 -144 -358.5t-372 -142.5q-105 0 -200 29t-170 91t-107 148z" />
<glyph unicode="4" horiz-adv-x="1208" d="M63 348l9 37l698 1061h59l-692 -1051h701l98 463h45l-98 -463h245l-10 -47h-246l-73 -348h-45l73 348h-764z" />
<glyph unicode="5" horiz-adv-x="1148" d="M41 248l49 10q43 -114 155.5 -172.5t262.5 -58.5q139 0 246 64t162 169.5t55 233.5q0 90 -31.5 159t-85.5 109t-118.5 60t-137.5 20q-218 0 -373 -152l-18 10l229 746h774l-10 -47h-729l-188 -613q131 103 327 103q80 0 152 -24t130.5 -71t93 -124.5t34.5 -175.5 q0 -142 -64 -259t-183 -186t-269 -69q-164 0 -291.5 69.5t-171.5 198.5z" />
<glyph unicode="6" horiz-adv-x="1247" d="M115 406q0 101 31 200t98 195.5t132 174.5t173.5 173t180 152.5t192.5 150.5l53 -18q-112 -86 -171 -132.5t-153.5 -125.5t-153 -137.5t-124.5 -135t-113 -151.5q78 89 181.5 141.5t222.5 52.5q204 0 333 -115t129 -301q0 -113 -41 -214.5t-112 -175.5t-173.5 -117 t-219.5 -43q-214 0 -339.5 120t-125.5 306zM162 410q0 -161 114 -272t312 -111q141 0 254.5 68.5t175 182.5t61.5 250q0 174 -120 272.5t-304 98.5q-135 0 -249 -68t-179 -180.5t-65 -240.5z" />
<glyph unicode="7" horiz-adv-x="1075" d="M156 0l985 1399h-842l10 47h903l-8 -37l-991 -1409h-57z" />
<glyph unicode="8" horiz-adv-x="1249" d="M88 348q0 180 130 295t339 141q-116 34 -188 110.5t-72 184.5q0 178 126.5 282.5t336.5 104.5q121 0 219 -34.5t159.5 -108.5t61.5 -178q0 -154 -97.5 -254.5t-260.5 -124.5q126 -39 196 -131t70 -209q0 -204 -141.5 -325t-378.5 -121q-97 0 -185 23t-159 67t-113.5 116 t-42.5 162zM137 352q0 -83 38 -147t103 -102t146 -57t174 -19q196 0 328.5 108t132.5 283q0 161 -114 247.5t-302 86.5q-135 0 -249.5 -48.5t-185.5 -141.5t-71 -210zM346 1083q0 -95 60.5 -161t150.5 -94.5t199 -28.5q177 0 286 93.5t109 246.5q0 91 -55.5 156t-142.5 94.5 t-195 29.5q-183 0 -297.5 -92t-114.5 -244z" />
<glyph unicode="9" horiz-adv-x="1249" d="M213 915q0 151 69.5 277t195.5 200t282 74q214 0 339.5 -120t125.5 -306q0 -101 -31 -200t-98 -195.5t-132 -174.5t-173.5 -173t-180 -152.5t-192.5 -150.5l-53 18q139 107 214.5 167.5t182 154t182.5 181t135 179.5q-78 -89 -181 -141.5t-222 -52.5q-204 0 -333.5 114.5 t-129.5 300.5zM260 918q0 -174 120 -272.5t304 -98.5q101 0 193 40.5t157.5 107t104.5 156.5t39 185q0 161 -114 272t-312 111q-141 0 -254.5 -68.5t-175.5 -182.5t-62 -250z" />
<glyph unicode=":" horiz-adv-x="389" d="M37 41q0 31 19.5 49.5t47.5 18.5q24 0 38 -14t14 -38q0 -31 -20 -49t-48 -18q-24 0 -37.5 13.5t-13.5 37.5zM233 967q0 31 20 49t48 18q24 0 37.5 -13.5t13.5 -37.5q0 -31 -19.5 -49.5t-47.5 -18.5q-24 0 -38 14t-14 38z" />
<glyph unicode=";" horiz-adv-x="389" d="M-57 -311l176 465h61l-194 -465h-43zM225 967q0 31 20 49t48 18q24 0 37.5 -13.5t13.5 -37.5q0 -31 -20 -49.5t-48 -18.5q-24 0 -37.5 13.5t-13.5 38.5z" />
<glyph unicode="&#x3c;" horiz-adv-x="937" d="M59 618l9 37l897 375l-11 -53l-829 -344l682 -344l-10 -45z" />
<glyph unicode="=" horiz-adv-x="985" d="M55 379l8 45h818l-9 -45h-817zM158 848l8 45h817l-8 -45h-817z" />
<glyph unicode="&#x3e;" horiz-adv-x="937" d="M27 244l10 53l829 344l-682 344l11 45l737 -375l-8 -37z" />
<glyph unicode="?" horiz-adv-x="1024" d="M201 1204q61 126 179 192t259 66q173 0 281 -85t108 -232q0 -76 -33 -149t-86.5 -132.5t-117.5 -115.5t-128 -107.5t-117.5 -100t-86.5 -100.5t-33 -102h-45q0 54 33 110.5t85.5 107t116.5 103t128 108t116.5 111.5t85.5 123.5t33 135.5q0 124 -89.5 201t-256.5 77 q-130 0 -233.5 -60.5t-155.5 -168.5zM309 41q0 31 20 49.5t48 18.5q23 0 37 -13.5t14 -38.5q0 -31 -20 -49t-48 -18q-24 0 -37.5 13.5t-13.5 37.5z" />
<glyph unicode="@" horiz-adv-x="1667" d="M102 418q0 168 61.5 320t167 263.5t256 177.5t320.5 66q189 0 340.5 -73.5t239.5 -212.5t88 -320q0 -134 -39.5 -246.5t-119.5 -183t-187 -70.5q-105 0 -156.5 62t-36.5 164q-41 -71 -113.5 -116.5t-156.5 -45.5q-124 0 -196 74t-72 190q0 150 97.5 260.5t238.5 110.5 q108 0 177 -58.5t79 -136.5l36 182h45l-84 -428q-21 -105 17 -160t121 -55q79 0 140 39.5t96 106t52 144.5t17 163q0 168 -83.5 298.5t-226 199.5t-319.5 69q-161 0 -302 -62t-239.5 -167.5t-155.5 -249t-57 -301.5q0 -182 93 -321.5t250 -212t352 -72.5q210 0 385 90 l14 -39q-190 -94 -405 -94q-155 0 -290 46.5t-233 129.5t-154.5 204.5t-56.5 264.5zM543 475q0 -101 60.5 -166t170.5 -65q125 0 211 98t86 221q0 100 -64 166t-171 66q-123 0 -208 -95.5t-85 -224.5z" />
<glyph unicode="A" horiz-adv-x="1290" d="M-57 0l872 1446h57l258 -1446h-47l-77 426h-752l-256 -426h-55zM283 473h714l-161 916z" />
<glyph unicode="B" horiz-adv-x="1198" d="M84 0l307 1446h377q110 0 189.5 -24.5t123 -68.5t63 -95.5t19.5 -114.5q0 -180 -101 -285t-292 -133q140 -30 212.5 -111t72.5 -188q0 -426 -555 -426h-416zM141 47h369q113 0 200 19t155.5 60.5t104.5 114.5t36 175q0 135 -105.5 209.5t-325.5 74.5h-294zM291 748h295 q247 0 387.5 96t140.5 295q0 118 -86 189t-246 71h-352z" />
<glyph unicode="C" horiz-adv-x="1585" d="M178 621q0 168 57.5 322t158.5 269.5t249 184.5t318 69q204 0 351.5 -95t213.5 -267l-47 -14q-63 162 -201 245.5t-326 83.5q-158 0 -295.5 -65.5t-230.5 -175.5t-146 -254t-53 -299q0 -276 156.5 -437t427.5 -161q409 0 612 374l39 -24q-111 -197 -279 -297t-376 -100 q-292 0 -460.5 174t-168.5 467z" />
<glyph unicode="D" horiz-adv-x="1460" d="M84 0l307 1446h338q301 0 474 -165t173 -437q0 -134 -34.5 -255.5t-109.5 -229.5t-185 -187.5t-270 -125.5t-355 -46h-338zM143 47h289q182 0 332.5 43.5t253.5 119t173.5 177.5t103 217.5t32.5 241.5q0 252 -161.5 402.5t-446.5 150.5h-289z" />
<glyph unicode="E" horiz-adv-x="1116" d="M84 0l307 1446h801l-10 -47h-754l-137 -651h655l-10 -48h-655l-140 -653h779l-11 -47h-825z" />
<glyph unicode="F" horiz-adv-x="1013" d="M84 0l307 1446h760l-10 -47h-713l-137 -651h635l-11 -48h-634l-150 -700h-47z" />
<glyph unicode="G" horiz-adv-x="1658" d="M176 621q0 167 62.5 322t170 270t260 184t322.5 69q206 0 362.5 -96t221.5 -266l-47 -14q-63 161 -209 245t-336 84q-159 0 -301 -66t-241.5 -175t-157.5 -254t-58 -299q0 -272 171 -435t446 -163q257 0 440 158.5t256 469.5h-672l8 45h721v-2q-69 -353 -270.5 -535.5 t-486.5 -182.5q-296 0 -479 176t-183 465z" />
<glyph unicode="H" horiz-adv-x="1411" d="M84 0l307 1446h47l-147 -698h930l147 698h49l-307 -1446h-49l149 700h-929l-150 -700h-47z" />
<glyph unicode="I" horiz-adv-x="462" d="M98 0l308 1446h49l-308 -1446h-49z" />
<glyph unicode="J" horiz-adv-x="1097" d="M35 285l47 16q40 -139 143.5 -207.5t249.5 -68.5q326 0 428 473l201 948h49l-203 -952q-54 -251 -171.5 -382.5t-309.5 -131.5q-163 0 -277.5 77t-156.5 228z" />
<glyph unicode="K" horiz-adv-x="1232" d="M84 0l307 1446h49l-149 -703l921 703h78l-930 -709l687 -737h-64l-692 743l-158 -743h-49z" />
<glyph unicode="L" horiz-adv-x="1058" d="M84 0l307 1446h47l-297 -1399h768l-10 -47h-815z" />
<glyph unicode="M" horiz-adv-x="1742" d="M84 0l307 1446h55l383 -1104l865 1104h55l-307 -1446h-47l288 1358l-843 -1079h-39l-377 1093l-293 -1372h-47z" />
<glyph unicode="N" horiz-adv-x="1427" d="M84 0l307 1446h47l658 -1368l290 1368h48l-308 -1446h-47l-657 1368l-291 -1368h-47z" />
<glyph unicode="O" horiz-adv-x="1740" d="M178 627q0 169 62 323t168.5 267.5t259 181t323.5 67.5q295 0 479.5 -179.5t184.5 -463.5q0 -167 -61.5 -321.5t-167.5 -269.5t-257.5 -183.5t-322.5 -68.5q-298 0 -483 180t-185 467zM227 627q0 -273 172.5 -436.5t454.5 -163.5q159 0 300.5 65.5t239.5 174t155 254 t57 302.5q0 270 -173.5 433t-453.5 163q-159 0 -300 -64.5t-239.5 -172.5t-155.5 -253t-57 -302z" />
<glyph unicode="P" horiz-adv-x="1153" d="M84 0l307 1446h369q204 0 306.5 -83.5t102.5 -244.5q0 -233 -142 -368.5t-429 -135.5h-336l-131 -614h-47zM272 662h338q256 0 383 121.5t127 330.5q0 75 -30 130.5t-84.5 89t-126 49.5t-160.5 16h-291z" />
<glyph unicode="Q" horiz-adv-x="1740" d="M178 627q0 169 62 323t168.5 267.5t259 181t323.5 67.5q295 0 479.5 -179.5t184.5 -463.5q0 -198 -83.5 -374t-230.5 -295l95 -164l-41 -27l-90 162q-208 -145 -459 -145q-298 0 -483 180t-185 467zM227 627q0 -273 172.5 -436.5t454.5 -163.5q233 0 424 135l-277 491 l37 27l277 -487q136 111 213.5 277.5t77.5 352.5q0 270 -173.5 433t-453.5 163q-159 0 -300 -64.5t-239.5 -172.5t-155.5 -253t-57 -302z" />
<glyph unicode="R" horiz-adv-x="1222" d="M84 0l307 1446h344q211 0 317.5 -91.5t106.5 -234.5q0 -203 -124 -331.5t-351 -135.5l354 -653h-53l-352 647h-363l-137 -647h-49zM281 694h354q238 0 356.5 116t118.5 308q0 128 -99.5 204.5t-285.5 76.5h-295z" />
<glyph unicode="S" horiz-adv-x="1150" d="M51 313l47 15q31 -146 159.5 -223.5t305.5 -77.5q181 0 292.5 106.5t111.5 272.5q0 49 -17 89.5t-46 71.5t-76 58.5t-97 48t-119 43.5q-62 20 -107 38t-95 46.5t-81.5 61.5t-52 80.5t-20.5 103.5q0 181 120.5 300t315.5 119q161 0 273.5 -70t152.5 -196l-47 -10 q-38 112 -137 170.5t-248 58.5q-170 0 -275.5 -104t-105.5 -264q0 -50 19 -91.5t45.5 -69t74.5 -53.5t85 -40.5t98 -34.5q95 -33 157.5 -62t119.5 -70t84.5 -95.5t27.5 -124.5q0 -192 -125.5 -311t-337.5 -119q-124 0 -228 37.5t-177.5 113.5t-96.5 182z" />
<glyph unicode="T" horiz-adv-x="1165" d="M246 1399l10 47h1051l-11 -47h-499l-297 -1399h-49l297 1399h-502z" />
<glyph unicode="U" horiz-adv-x="1337" d="M166 616l176 830h47l-176 -834q-23 -107 -22 -194q0 -391 452 -391q398 0 504 493l196 926h50l-199 -930q-114 -536 -559 -536q-300 0 -417 168q-75 108 -75 271q0 90 23 197z" />
<glyph unicode="V" d="M250 1446h47l238 -1387l827 1387h55l-862 -1446h-57z" />
<glyph unicode="W" horiz-adv-x="1916" d="M250 1446h47l94 -1372l737 1372h58l147 -1376l678 1376h53l-712 -1446h-58l-149 1378l-739 -1378h-58z" />
<glyph unicode="X" horiz-adv-x="1204" d="M-37 0l662 750l-326 696h53l307 -660l588 660h62l-627 -705l342 -741h-53l-324 705l-620 -705h-64z" />
<glyph unicode="Y" horiz-adv-x="1179" d="M240 1446h51l323 -795l662 795h61l-704 -846l-127 -600h-49l127 600z" />
<glyph unicode="Z" horiz-adv-x="1146" d="M-6 0l8 37l1157 1362h-848l11 47h915l-8 -37l-1157 -1362h915l-10 -47h-983z" />
<glyph unicode="[" horiz-adv-x="577" d="M8 -266l365 1712h372l-10 -43h-325l-347 -1626h328l-10 -43h-373z" />
<glyph unicode="\" horiz-adv-x="577" d="M231 1501h45l142 -1759h-45z" />
<glyph unicode="]" horiz-adv-x="577" d="M-133 -266l10 43h326l346 1626h-328l10 43h373l-364 -1712h-373z" />
<glyph unicode="^" horiz-adv-x="1036" d="M211 831l489 615h33l228 -615h-48l-204 558l-441 -558h-57z" />
<glyph unicode="_" horiz-adv-x="880" d="M-172 -209l8 45h920l-8 -45h-920z" />
<glyph unicode="`" horiz-adv-x="614" d="M414 1501h45l104 -278h-41z" />
<glyph unicode="a" d="M98 422q0 159 72 300.5t202.5 229.5t286.5 88q186 0 298.5 -102.5t136.5 -265.5l75 348h45l-217 -1020h-47l56 256q-76 -128 -195 -202t-268 -74q-209 0 -327 125.5t-118 316.5zM145 426q0 -174 107 -287.5t299 -113.5q144 0 264 79t186 206t66 270q0 177 -109.5 296 t-302.5 119q-143 0 -261.5 -81.5t-183.5 -212t-65 -275.5z" />
<glyph unicode="b" horiz-adv-x="1280" d="M66 0l319 1501h45l-156 -737q78 128 198.5 202t272.5 74q103 0 187 -34.5t138 -95t83 -140.5t29 -172q0 -159 -71 -300.5t-199.5 -229.5t-282.5 -88q-189 0 -304 102.5t-139 265.5l-75 -348h-45zM215 440q0 -177 110.5 -296t307.5 -119q106 0 200.5 48t160 127 t103.5 182.5t38 211.5q0 173 -105 287t-293 114q-146 0 -267.5 -79t-188 -206t-66.5 -270z" />
<glyph unicode="c" horiz-adv-x="1159" d="M100 438q0 160 74 298.5t205.5 221t288.5 82.5q155 0 256 -68t147 -190l-43 -14q-93 227 -364 227q-111 0 -208.5 -45.5t-164.5 -122t-105.5 -177.5t-38.5 -210q0 -115 45.5 -206t142.5 -148t234 -57q252 0 400 219l37 -25q-158 -239 -435 -239q-217 0 -344 124t-127 330 z" />
<glyph unicode="d" d="M98 422q0 119 41.5 231t113.5 197.5t176.5 137.5t221.5 52q187 0 303 -103t140 -265l178 829h45l-320 -1501h-45l54 256q-76 -127 -198.5 -201.5t-272.5 -74.5q-106 0 -190 34.5t-137.5 95t-81.5 140t-28 172.5zM145 426q0 -175 103.5 -288t294.5 -113q144 0 265.5 79 t189 206t67.5 270q0 176 -112 295.5t-306 119.5q-143 0 -259.5 -81.5t-179.5 -211.5t-63 -276z" />
<glyph unicode="e" horiz-adv-x="1204" d="M100 430q0 119 44 230.5t119 195t181.5 134t225.5 50.5q138 0 239.5 -61.5t151 -161t49.5 -221.5q0 -67 -6 -100h-952q-5 -50 -5 -64q0 -190 120.5 -298.5t316.5 -108.5q138 0 233.5 59.5t171.5 173.5l37 -22q-162 -256 -446 -256q-215 0 -347.5 124t-132.5 326zM158 539 h903q3 30 3 59q0 162 -92 270q-108 127 -308 127q-188 0 -329.5 -132t-176.5 -324z" />
<glyph unicode="f" horiz-adv-x="661" d="M125 0l207 975h-203l10 45h203l43 203q11 54 25 94.5t38.5 81t57 66t81 41.5t109.5 16q46 0 138 -15l-11 -45q-84 15 -133 15q-66 0 -113 -19.5t-75 -59t-43.5 -80.5t-28.5 -104l-41 -194h336l-10 -45h-336l-207 -975h-47z" />
<glyph unicode="g" d="M51 -164l45 21q37 -111 134.5 -172.5t256.5 -61.5q177 0 304.5 116.5t175.5 338.5l39 178q-74 -124 -194 -190t-273 -66q-106 0 -190 34.5t-137.5 95t-81.5 140t-28 172.5q0 116 41.5 224.5t113.5 191t176 132.5t222 50q186 0 300.5 -102.5t138.5 -265.5l75 348h45 l-200 -942q-54 -251 -193.5 -375.5t-343.5 -124.5q-175 0 -282 69.5t-144 188.5zM150 446q0 -175 103 -288t294 -113q109 0 206 43.5t165.5 116t108.5 171t40 204.5q0 114 -47 207t-143 150.5t-226 57.5q-108 0 -202.5 -46t-159 -122t-102 -175.5t-37.5 -205.5z" />
<glyph unicode="h" horiz-adv-x="1165" d="M66 0l319 1501h45l-156 -737q65 117 184.5 196.5t264.5 79.5q186 0 270 -126q52 -79 52 -202q0 -74 -19 -165l-117 -547h-45l117 549q19 88 19 158q0 109 -45 177q-74 112 -242 111q-167 0 -306 -132.5t-192 -377.5l-104 -485h-45z" />
<glyph unicode="i" horiz-adv-x="413" d="M76 0l217 1020h45l-217 -1020h-45zM336 1382q0 28 19.5 45t45.5 17q22 0 36 -13t14 -36q0 -28 -20 -45t-46 -17q-22 0 -35.5 13t-13.5 36z" />
<glyph unicode="j" horiz-adv-x="413" d="M-293 -403l8 47q46 -21 115 -21q164 0 219 258l244 1139h45l-246 -1153q-62 -289 -266 -289q-68 0 -119 19zM336 1382q0 28 19.5 45t45.5 17q22 0 36 -13t14 -36q0 -28 -20 -45t-46 -17q-22 0 -35.5 13t-13.5 36z" />
<glyph unicode="k" horiz-adv-x="1019" d="M66 0l319 1501h45l-207 -971l713 490h76l-721 -496l553 -524h-64l-557 530l-112 -530h-45z" />
<glyph unicode="l" horiz-adv-x="413" d="M76 0l319 1501h45l-319 -1501h-45z" />
<glyph unicode="m" horiz-adv-x="1828" d="M66 0l217 1020h47l-51 -238q59 111 160.5 184.5t238.5 73.5q299 0 305 -303q49 126 163 214.5t257 88.5q195 0 267 -120q46 -76 45 -184q0 -63 -15 -136l-127 -600h-45l127 602q16 77 16 138q0 255 -272 255q-160 0 -276 -120.5t-167 -342.5l-110 -532h-47l127 600 q16 77 16 139q0 256 -274 256q-161 0 -278.5 -121t-166.5 -348l-110 -526h-47z" />
<glyph unicode="n" horiz-adv-x="1155" d="M66 0l217 1020h43l-54 -256q65 118 181.5 197t261.5 79q186 0 269 -126q51 -78 51 -200q0 -75 -19 -167l-117 -547h-45l117 549q19 89 19 160q0 108 -44 175q-73 111 -241 111q-167 0 -303.5 -132t-188.5 -378l-102 -485h-45z" />
<glyph unicode="o" horiz-adv-x="1261" d="M100 438q0 163 77.5 301.5t211.5 219.5t293 81q224 0 351.5 -130t127.5 -328q0 -122 -45.5 -233t-122.5 -192t-185 -129t-228 -48q-150 0 -260.5 62.5t-165 165t-54.5 230.5zM147 440q0 -179 115.5 -297t321.5 -118q147 0 269.5 75.5t191.5 203t69 276.5 q0 180 -115 297.5t-321 117.5q-110 0 -209.5 -44.5t-169.5 -119.5t-111 -177.5t-41 -213.5z" />
<glyph unicode="p" horiz-adv-x="1280" d="M-20 -401l303 1421h45l-54 -256q75 126 202 201t278 75q140 0 238.5 -60.5t144 -158.5t45.5 -223q0 -119 -40.5 -231t-110.5 -197.5t-173.5 -137.5t-220.5 -52q-187 0 -307 103.5t-144 264.5l-161 -749h-45zM215 440q0 -85 29.5 -160t83 -132t134.5 -90t179 -33 q142 0 257 82t176 211.5t61 275.5q0 84 -24 156t-71 127t-122.5 86.5t-172.5 31.5q-109 0 -208 -46.5t-169 -123t-111.5 -178t-41.5 -207.5z" />
<glyph unicode="q" d="M98 422q0 159 70.5 300.5t199.5 229.5t285 88q186 0 301.5 -102.5t139.5 -265.5l75 348h45l-303 -1421h-47l142 657q-76 -127 -198 -201.5t-271 -74.5q-106 0 -190.5 34.5t-138 95t-82 140.5t-28.5 172zM145 426q0 -113 43.5 -202t135.5 -144t221 -55q144 0 265.5 79 t189 206t67.5 270q0 176 -112 295.5t-306 119.5q-143 0 -260 -81.5t-180.5 -211.5t-63.5 -276z" />
<glyph unicode="r" horiz-adv-x="667" d="M66 0l217 1020h47l-51 -234q140 254 401 254l74 -4l-11 -45q-16 4 -73 4q-169 0 -284 -122.5t-161 -342.5l-112 -530h-47z" />
<glyph unicode="s" horiz-adv-x="925" d="M31 221l45 15q30 -100 131.5 -155.5t230.5 -55.5q135 0 218 73.5t83 190.5q0 80 -64.5 125t-201.5 82q-45 12 -68.5 19.5t-65.5 22.5t-66 31.5t-50.5 40.5t-38.5 55.5t-12 69.5q0 133 98 219t254 86q131 0 217.5 -49.5t118.5 -140.5l-45 -14q-61 159 -299 159 q-128 0 -213.5 -72t-85.5 -182q0 -27 9 -49.5t20.5 -39t36.5 -33t42.5 -26t53 -21.5t54 -17.5t59.5 -17.5q147 -41 219.5 -94.5t72.5 -147.5q0 -141 -97 -228t-251 -87q-142 0 -257 64.5t-148 176.5z" />
<glyph unicode="t" horiz-adv-x="716" d="M129 975l10 45h211l66 307h45l-66 -307h346l-10 -45h-346l-141 -662q-13 -61 -12 -107q0 -75 32 -113q53 -62 205 -62q46 0 76 6l-10 -47q-40 -4 -64 -4q-177 0 -243 80q-43 51 -42 140q0 50 13 111l141 658h-211z" />
<glyph unicode="u" horiz-adv-x="1144" d="M139 473l117 547h45l-117 -549q-19 -89 -20 -160q0 -107 44 -175q72 -112 241 -111q167 0 304 132t189 378l102 485h46l-218 -1020h-45l52 256q-65 -119 -180.5 -197.5t-260.5 -78.5q-186 0 -268 126q-51 78 -51 199q0 76 20 168z" />
<glyph unicode="v" horiz-adv-x="1032" d="M152 1020h47l219 -957l626 957h54l-668 -1020h-45z" />
<glyph unicode="w" horiz-adv-x="1499" d="M152 1020h45l104 -942l528 942h58l123 -942l503 942h52l-547 -1020h-45l-125 963l-539 -963h-45z" />
<glyph unicode="x" horiz-adv-x="1024" d="M-47 0l532 532l-286 488h53l266 -455l455 455h63l-495 -496l313 -524h-53l-293 492l-492 -492h-63z" />
<glyph unicode="y" horiz-adv-x="1032" d="M117 -401l264 405l-229 1016h47l217 -963l628 963h54l-928 -1421h-53z" />
<glyph unicode="z" horiz-adv-x="956" d="M-16 0l8 35l860 940h-639l10 45h707l-8 -35l-861 -940h709l-10 -45h-776z" />
<glyph unicode="{" horiz-adv-x="649" d="M35 567l8 45h35q92 0 138.5 33t64.5 117l98 463q26 121 88.5 171t179.5 50h170l-10 -43h-164q-94 0 -145.5 -41.5t-71.5 -134.5l-100 -471q-17 -80 -58 -122t-114 -54q59 -23 83 -74t9 -121l-92 -432q-14 -68 28 -122t123 -54h158l-10 -43h-158q-97 0 -151.5 65 t-34.5 156l90 422q20 91 -22 140.5t-128 49.5h-14z" />
<glyph unicode="|" horiz-adv-x="460" d="M12 -401l434 2048h48l-433 -2048h-49z" />
<glyph unicode="}" horiz-adv-x="649" d="M-133 -266l10 43h164q94 0 145.5 41.5t71.5 134.5l100 471q17 80 58 122t114 54q-59 23 -83 74t-9 121l92 432q14 68 -28 122t-123 54h-158l10 43h158q97 0 151.5 -65t34.5 -156l-90 -422q-20 -91 22 -141t128 -50h14l-8 -45h-35q-92 0 -138.5 -32.5t-64.5 -116.5 l-98 -463q-26 -121 -88.5 -171t-179.5 -50h-170z" />
<glyph unicode="~" horiz-adv-x="1157" d="M152 588q42 85 96.5 132.5t138.5 47.5q48 0 96 -22t88 -54t80 -63.5t86 -53.5t92 -22q56 0 104.5 41t84.5 113l41 -19q-42 -85 -97 -132.5t-139 -47.5q-48 0 -96 22t-88 54t-80 63.5t-86 53.5t-92 22q-111 0 -188 -154z" />
<glyph unicode="&#xa1;" horiz-adv-x="389" d="M-37 -401l250 1108h41l-219 -1108h-72zM238 987q0 31 19.5 49.5t47.5 18.5q24 0 37.5 -13.5t13.5 -37.5q0 -31 -19.5 -49.5t-47.5 -18.5q-24 0 -37.5 13.5t-13.5 37.5z" />
<glyph unicode="&#xa2;" horiz-adv-x="1159" d="M150 659q0 162 67.5 300t195 222.5t287.5 84.5q113 0 205 -39l107 194h49l-117 -213q121 -66 172 -200l-43 -15q-49 117 -151 174l-488 -891q76 -26 168 -26q134 0 240 59t176 164l37 -22q-74 -115 -190 -180.5t-261 -65.5q-113 0 -192 33l-117 -213h-49l127 229 q-108 54 -165.5 158.5t-57.5 246.5zM197 662q0 -124 49 -221t147 -146l490 891q-81 35 -187 35q-147 0 -262.5 -79t-176 -205.5t-60.5 -274.5z" />
<glyph unicode="&#xa3;" horiz-adv-x="1179" d="M-47 0l10 47h232l122 586h-188l8 47h191l67 321q49 228 168.5 346.5t290.5 118.5q316 0 367 -309l-45 -14q-25 135 -100.5 205.5t-225.5 70.5q-154 0 -258.5 -106.5t-149.5 -317.5l-67 -315h540l-8 -47h-540l-125 -586h788l-10 -47h-1067z" />
<glyph unicode="&#xa4;" horiz-adv-x="1181" d="M61 274l197 162q-72 97 -72 232q0 110 45 208t125 168l-98 127l31 31l100 -131q127 94 291 94q194 0 307 -123l193 160l30 -31l-196 -161q69 -97 69 -230q0 -108 -43.5 -205t-119.5 -167l102 -132l-31 -30l-106 133q-132 -98 -295 -98q-193 0 -305 122l-193 -159z M229 670q0 -149 97.5 -247.5t269.5 -98.5q125 0 227.5 63t159.5 167t57 224q0 150 -98 247t-270 97q-187 0 -315 -134.5t-128 -317.5z" />
<glyph unicode="&#xa5;" horiz-adv-x="1179" d="M158 301l10 45h362l54 254l-6 16h-353l11 46h323l-319 784h51l323 -795l662 795h61l-653 -784h326l-11 -46h-352l-14 -16l-53 -254h362l-10 -45h-363l-63 -301h-49l63 301h-362z" />
<glyph unicode="&#xa6;" horiz-adv-x="460" d="M12 -401l174 819h50l-175 -819h-49zM272 827l174 820h50l-174 -820h-50z" />
<glyph unicode="&#xa7;" horiz-adv-x="1042" d="M29 63l45 17q10 -91 62.5 -154t132 -92t180.5 -29q146 0 235.5 83.5t89.5 215.5q0 92 -71 146t-218 102q-60 20 -105 42t-88.5 55t-67 79t-23.5 103q0 132 81.5 223.5t204.5 112.5q-78 37 -121.5 89t-43.5 130q0 141 102 238.5t252 97.5q147 0 242 -66t118 -182l-45 -10 q-25 102 -106.5 157.5t-206.5 55.5q-135 0 -222 -81t-87 -204q0 -39 15.5 -71.5t37 -53.5t61 -42t70 -32.5t82.5 -29.5q73 -25 125.5 -50t96.5 -59.5t66.5 -78.5t22.5 -99q0 -137 -86.5 -226t-226.5 -104q93 -44 140.5 -99.5t47.5 -137.5q0 -150 -108.5 -249.5t-270.5 -99.5 q-57 0 -111 10t-106.5 33t-92.5 57t-68 86t-35 117zM248 635q0 -48 20.5 -86.5t61.5 -67.5t81.5 -47.5t100.5 -40.5l33 -12q156 -9 255 70.5t99 218.5q0 91 -74 149t-219 103l-39 12q-137 6 -228 -80.5t-91 -218.5z" />
<glyph unicode="&#xa8;" horiz-adv-x="614" d="M281 1380q0 27 16.5 44.5t42.5 17.5q47 0 47 -45q0 -27 -16.5 -44.5t-42.5 -17.5q-47 0 -47 45zM600 1380q0 27 16.5 44.5t42.5 17.5q22 0 35 -12t13 -33q0 -26 -17 -44t-43 -18q-47 0 -47 45z" />
<glyph unicode="&#xa9;" horiz-adv-x="1748" d="M176 614q0 170 62.5 326.5t169.5 272t259.5 184.5t323.5 69q299 0 486.5 -174.5t187.5 -460.5q0 -170 -62.5 -326t-169.5 -271.5t-259.5 -184.5t-323.5 -69q-193 0 -346.5 78.5t-240.5 223.5t-87 332zM221 618q0 -268 176.5 -431.5t456.5 -163.5q162 0 305.5 65.5 t244 175.5t158.5 257t58 306q0 269 -176 432.5t-457 163.5q-162 0 -305.5 -66t-244 -176.5t-158.5 -257.5t-58 -305zM541 657q0 115 57 218.5t157.5 167t217.5 63.5q115 0 197 -52t118 -143l-45 -12q-31 74 -102 119t-170 45q-106 0 -195.5 -56.5t-139.5 -148t-50 -194.5 q0 -128 85 -215t232 -87q94 0 171.5 43t127.5 121l35 -28q-57 -83 -146 -131t-196 -48q-163 0 -258.5 97t-95.5 241z" />
<glyph unicode="&#xaa;" horiz-adv-x="778" d="M213 1106q0 151 94.5 252.5t235.5 101.5q102 0 170 -53t86 -137l37 176h43l-125 -590h-43l28 129q-41 -68 -111 -105.5t-155 -37.5q-115 0 -187.5 74t-72.5 190zM256 1114q0 -99 60 -165t169 -66q120 0 205.5 91.5t85.5 215.5q0 98 -63 163.5t-170 65.5 q-122 0 -204.5 -89.5t-82.5 -215.5z" />
<glyph unicode="&#xab;" horiz-adv-x="888" d="M74 510l387 442l41 -22l-375 -426l184 -414l-39 -22zM457 510l387 442l41 -22l-375 -426l184 -414l-39 -22z" />
<glyph unicode="&#xac;" horiz-adv-x="942" d="M131 737l10 45h777l-70 -327h-45l59 282h-731z" />
<glyph unicode="&#xad;" horiz-adv-x="802" d="M90 492l10 45h615l-10 -45h-615z" />
<glyph unicode="&#xae;" horiz-adv-x="940" d="M221 1042q0 173 119 298.5t289 125.5q149 0 243.5 -90t94.5 -229q0 -173 -120 -298.5t-290 -125.5q-149 0 -242.5 90t-93.5 229zM258 1047q0 -127 82 -207t221 -80q155 0 262 115.5t107 269.5q0 125 -83.5 205t-223.5 80q-153 0 -259 -115t-106 -268zM426 899l86 399h119 q62 0 94.5 -28.5t32.5 -69.5q0 -50 -31.5 -85.5t-91.5 -41.5l78 -174h-45l-72 166h-94l-35 -166h-41zM512 1104h88q117 0 117 90q0 66 -107 66h-65z" />
<glyph unicode="&#xaf;" horiz-adv-x="614" d="M240 1352l10 43h491l-10 -43h-491z" />
<glyph unicode="&#xb0;" horiz-adv-x="770" d="M252 1194q0 135 90.5 231.5t222.5 96.5q116 0 189 -69.5t73 -176.5q0 -135 -90.5 -231.5t-222.5 -96.5q-116 0 -189 69.5t-73 176.5zM295 1198q0 -92 61 -150.5t162 -58.5q111 0 188.5 82.5t77.5 200.5q0 92 -61 150.5t-162 58.5q-111 0 -188.5 -82.5t-77.5 -200.5z" />
<glyph unicode="&#xb1;" horiz-adv-x="1024" d="M-27 0l11 45h860l-10 -45h-861zM119 686l10 45h408l90 428h45l-90 -428h407l-10 -45h-408l-90 -428h-45l90 428h-407z" />
<glyph unicode="&#xb2;" horiz-adv-x="692" d="M133 774l8 37l211 154q82 59 136 101.5t110.5 93.5t89 93t53.5 90t21 95q0 72 -54 119t-149 47q-89 0 -148 -34t-104 -106l-35 27q89 156 293 156q114 0 178 -58t64 -141q0 -54 -22.5 -108.5t-56 -100t-92 -99.5t-110.5 -95t-131 -99l-176 -129h486l-9 -43h-563z" />
<glyph unicode="&#xb3;" horiz-adv-x="694" d="M123 918l43 14q25 -61 88.5 -96t148.5 -35q117 0 196 74t79 178q0 190 -225 190q-64 0 -119 -22l-21 34l402 328h-424l8 43h496l-7 -35l-382 -313q24 6 55 6q117 0 188.5 -59t71.5 -164q0 -131 -93 -217t-229 -86q-104 0 -177.5 43.5t-98.5 116.5z" />
<glyph unicode="&#xb4;" horiz-adv-x="614" d="M352 1223l219 278h56l-226 -278h-49z" />
<glyph unicode="&#xb5;" horiz-adv-x="1142" d="M-47 -401l303 1421h45l-117 -549q-48 -223 23.5 -334.5t238.5 -111.5t304.5 132t189.5 378l102 485h45l-217 -1020h-45l52 256q-65 -119 -180.5 -197.5t-260.5 -78.5q-256 0 -305 239l-133 -620h-45z" />
<glyph unicode="&#xb6;" horiz-adv-x="860" d="M211 995q0 135 72.5 238.5t194.5 158t272 54.5h102l-393 -1847h-45l233 1097h-43q-186 0 -289.5 79.5t-103.5 219.5z" />
<glyph unicode="&#xb7;" horiz-adv-x="389" d="M135 504q0 31 20 49t48 18q24 0 37.5 -13.5t13.5 -37.5q0 -31 -20 -49t-48 -18q-24 0 -37.5 13.5t-13.5 37.5z" />
<glyph unicode="&#xb8;" horiz-adv-x="614" d="M-55 -377l8 43q73 -47 178 -47q67 0 102 32t35 87q0 44 -37 72t-94 28h-26l39 187h45l-33 -150q66 -3 108.5 -38t42.5 -99q0 -72 -47 -116t-139 -44q-108 0 -182 45z" />
<glyph unicode="&#xb9;" horiz-adv-x="466" d="M248 1505l317 127h10l-184 -858h-43l170 795l-264 -107z" />
<glyph unicode="&#xba;" horiz-adv-x="770" d="M213 1108q0 143 97.5 246.5t240.5 103.5q129 0 203.5 -77t74.5 -189q0 -143 -97 -246.5t-240 -103.5q-129 0 -204 77t-75 189zM256 1114q0 -100 64 -165.5t176 -65.5q121 0 205.5 90t84.5 213q0 100 -63 165.5t-174 65.5q-123 0 -208 -90t-85 -213z" />
<glyph unicode="&#xbb;" horiz-adv-x="888" d="M4 90l375 426l-184 414l38 22l199 -442l-387 -442zM387 90l375 426l-184 414l38 22l199 -442l-387 -442z" />
<glyph unicode="&#xbc;" horiz-adv-x="1413" d="M70 0l1159 1446h55l-1159 -1446h-55zM211 1325l317 127h11l-185 -858h-43l170 795l-264 -107zM680 203l6 35l401 614h52l-396 -606h392l61 291h43l-61 -291h139l-8 -43h-140l-43 -203h-43l41 203h-444z" />
<glyph unicode="&#xbd;" horiz-adv-x="1488" d="M70 0l1159 1446h55l-1159 -1446h-55zM211 1325l317 127h11l-185 -858h-43l170 795l-264 -107zM766 0l8 37l211 153q103 75 167.5 127t125.5 113.5t89 118.5t28 115q0 72 -54 118.5t-149 46.5q-89 0 -148 -33.5t-104 -105.5l-35 27q89 155 293 155q114 0 178 -57.5 t64 -140.5q0 -54 -22.5 -108.5t-56 -100t-92 -99.5t-110.5 -95t-131 -99l-176 -129h485l-8 -43h-563z" />
<glyph unicode="&#xbe;" horiz-adv-x="1579" d="M86 737l43 15q25 -61 89 -96t149 -35q117 0 195.5 73.5t78.5 177.5q0 191 -225 191q-62 0 -119 -23l-21 35l402 328h-424l8 43h496l-6 -35l-383 -313q24 6 55 6q117 0 188.5 -59t71.5 -164q0 -131 -93 -217t-229 -86q-104 0 -177.5 43t-98.5 116zM236 0l1159 1446h55 l-1159 -1446h-55zM846 203l6 35l401 614h52l-396 -606h391l62 291h43l-62 -291h140l-8 -43h-140l-43 -203h-43l41 203h-444z" />
<glyph unicode="&#xbf;" horiz-adv-x="854" d="M0 -102q0 76 33 149t86.5 132.5t117.5 115.5t128 107.5t117.5 100t86.5 100.5t33 102h45q0 -54 -33 -110.5t-85.5 -107t-116.5 -103t-128 -108t-116.5 -111.5t-85.5 -123.5t-33 -135.5q0 -125 90 -202t256 -77q130 0 233.5 61t155.5 169l43 -19q-61 -126 -179 -192 t-259 -66q-173 0 -281 85.5t-108 232.5zM584 987q0 31 19.5 49.5t47.5 18.5q24 0 37.5 -13.5t13.5 -37.5q0 -31 -19.5 -49.5t-47.5 -18.5q-24 0 -37.5 13.5t-13.5 37.5z" />
<glyph unicode="&#xc0;" horiz-adv-x="1290" d="M-57 0l872 1446h57l258 -1446h-47l-77 426h-752l-256 -426h-55zM283 473h714l-161 916zM725 1823h49l115 -238h-43z" />
<glyph unicode="&#xc1;" horiz-adv-x="1290" d="M-57 0l872 1446h57l258 -1446h-47l-77 426h-752l-256 -426h-55zM283 473h714l-161 916zM856 1585l213 238h55l-219 -238h-49z" />
<glyph unicode="&#xc2;" horiz-adv-x="1290" d="M-57 0l872 1446h57l258 -1446h-47l-77 426h-752l-256 -426h-55zM283 473h714l-161 916zM616 1585l279 238h45l180 -238h-51l-154 205l-235 -205h-64z" />
<glyph unicode="&#xc3;" horiz-adv-x="1290" d="M-57 0l872 1446h57l258 -1446h-47l-77 426h-752l-256 -426h-55zM283 473h714l-161 916zM610 1606q11 85 55 135.5t111 50.5q40 0 75 -24t57 -52t53 -52t63 -24q41 0 72 39.5t45 108.5h43q-11 -85 -55 -135.5t-111 -50.5q-33 0 -61.5 15.5t-49.5 38t-41 44.5t-44.5 37.5 t-51.5 15.5q-41 0 -72.5 -39t-44.5 -108h-43z" />
<glyph unicode="&#xc4;" horiz-adv-x="1290" d="M-57 0l872 1446h57l258 -1446h-47l-77 426h-752l-256 -426h-55zM283 473h714l-161 916zM678 1694q0 26 17.5 43.5t43.5 17.5q22 0 35.5 -12t13.5 -33q0 -26 -17.5 -43.5t-43.5 -17.5q-22 0 -35.5 12t-13.5 33zM999 1694q0 26 18 43.5t44 17.5q22 0 35.5 -12t13.5 -33 q0 -26 -17.5 -43.5t-43.5 -17.5q-22 0 -36 12t-14 33z" />
<glyph unicode="&#xc5;" horiz-adv-x="1290" d="M-57 0l872 1446h57l258 -1446h-47l-77 426h-752l-256 -426h-55zM283 473h714l-161 916zM721 1688q0 83 55.5 135.5t138.5 52.5q73 0 118.5 -41t45.5 -104q0 -80 -55.5 -135.5t-136.5 -55.5q-73 0 -119.5 42t-46.5 106zM762 1694q0 -51 36 -83t93 -32q60 0 103.5 41.5 t43.5 105.5q0 49 -36 80t-93 31q-62 0 -104.5 -40t-42.5 -103z" />
<glyph unicode="&#xc6;" horiz-adv-x="1894" d="M-39 0l1145 1446h864l-10 -47h-754l-137 -651h655l-10 -48h-655l-139 -653h778l-10 -47h-826l86 403h-606l-322 -403h-59zM379 451h579l201 948h-31z" />
<glyph unicode="&#xc7;" horiz-adv-x="1585" d="M178 621q0 168 57.5 322t158.5 269.5t249 184.5t318 69q204 0 351.5 -95t213.5 -267l-47 -14q-63 162 -201 245.5t-326 83.5q-158 0 -295.5 -65.5t-230.5 -175.5t-146 -254t-53 -299q0 -276 156.5 -437t427.5 -161q409 0 612 374l39 -24q-111 -197 -279 -297t-376 -100 h-27l-22 -105q66 -3 108.5 -38t42.5 -99q0 -72 -47 -116t-139 -44q-108 0 -182 45l8 43q73 -47 178 -47q67 0 102 32t35 87q0 44 -37 72t-94 28h-26l30 144q-262 22 -410.5 193.5t-148.5 445.5z" />
<glyph unicode="&#xc8;" horiz-adv-x="1116" d="M84 0l307 1446h801l-10 -47h-754l-137 -651h655l-10 -48h-655l-140 -653h779l-11 -47h-825zM674 1823h49l115 -238h-43z" />
<glyph unicode="&#xc9;" horiz-adv-x="1116" d="M84 0l307 1446h801l-10 -47h-754l-137 -651h655l-10 -48h-655l-140 -653h779l-11 -47h-825zM805 1585l213 238h55l-219 -238h-49z" />
<glyph unicode="&#xca;" horiz-adv-x="1116" d="M84 0l307 1446h801l-10 -47h-754l-137 -651h655l-10 -48h-655l-140 -653h779l-11 -47h-825zM565 1585l279 238h45l180 -238h-51l-154 205l-235 -205h-64z" />
<glyph unicode="&#xcb;" horiz-adv-x="1116" d="M84 0l307 1446h801l-10 -47h-754l-137 -651h655l-10 -48h-655l-140 -653h779l-11 -47h-825zM627 1694q0 26 17.5 43.5t43.5 17.5q22 0 35.5 -12t13.5 -33q0 -26 -17.5 -43.5t-43.5 -17.5q-22 0 -35.5 12t-13.5 33zM948 1694q0 26 18 43.5t44 17.5q22 0 35.5 -12t13.5 -33 q0 -26 -18 -43.5t-44 -17.5q-22 0 -35.5 12t-13.5 33z" />
<glyph unicode="&#xcc;" horiz-adv-x="462" d="M98 0l308 1446h49l-308 -1446h-49zM311 1823h49l115 -238h-43z" />
<glyph unicode="&#xcd;" horiz-adv-x="462" d="M98 0l308 1446h49l-308 -1446h-49zM442 1585l213 238h56l-219 -238h-50z" />
<glyph unicode="&#xce;" horiz-adv-x="462" d="M98 0l308 1446h49l-308 -1446h-49zM203 1585l278 238h45l181 -238h-52l-153 205l-236 -205h-63z" />
<glyph unicode="&#xcf;" horiz-adv-x="462" d="M98 0l308 1446h49l-308 -1446h-49zM264 1694q0 26 18 43.5t44 17.5q22 0 35.5 -12t13.5 -33q0 -26 -18 -43.5t-44 -17.5q-22 0 -35.5 12t-13.5 33zM586 1694q0 26 17.5 43.5t43.5 17.5q22 0 35.5 -12t13.5 -33q0 -26 -17.5 -43.5t-43.5 -17.5q-22 0 -35.5 12t-13.5 33z " />
<glyph unicode="&#xd0;" horiz-adv-x="1501" d="M41 698l8 47h234l149 701h338q301 0 474 -165t173 -437q0 -134 -34.5 -255.5t-109.5 -229.5t-185 -187.5t-270 -125.5t-355 -46h-338l147 698h-231zM184 47h289q182 0 332.5 43.5t253.5 119t173.5 177.5t103 217.5t32.5 241.5q0 252 -161.5 402.5t-446.5 150.5h-289 l-139 -654h536l-8 -47h-538z" />
<glyph unicode="&#xd1;" horiz-adv-x="1427" d="M84 0l307 1446h47l658 -1368l290 1368h48l-308 -1446h-47l-657 1368l-291 -1368h-47zM680 1606q11 85 55 135.5t111 50.5q40 0 75 -24t57 -52t53 -52t63 -24q41 0 71.5 39.5t44.5 108.5h43q-11 -85 -55 -135.5t-111 -50.5q-33 0 -61.5 15.5t-49.5 38t-40.5 44.5t-44 37.5 t-51.5 15.5q-41 0 -72.5 -39t-44.5 -108h-43z" />
<glyph unicode="&#xd2;" horiz-adv-x="1740" d="M178 627q0 169 62 323t168.5 267.5t259 181t323.5 67.5q295 0 479.5 -179.5t184.5 -463.5q0 -167 -61.5 -321.5t-167.5 -269.5t-257.5 -183.5t-322.5 -68.5q-298 0 -483 180t-185 467zM227 627q0 -273 172.5 -436.5t454.5 -163.5q159 0 300.5 65.5t239.5 174t155 254 t57 302.5q0 270 -173.5 433t-453.5 163q-159 0 -300 -64.5t-239.5 -172.5t-155.5 -253t-57 -302zM950 1808h49l115 -237h-43z" />
<glyph unicode="&#xd3;" horiz-adv-x="1740" d="M178 627q0 169 62 323t168.5 267.5t259 181t323.5 67.5q295 0 479.5 -179.5t184.5 -463.5q0 -167 -61.5 -321.5t-167.5 -269.5t-257.5 -183.5t-322.5 -68.5q-298 0 -483 180t-185 467zM227 627q0 -273 172.5 -436.5t454.5 -163.5q159 0 300.5 65.5t239.5 174t155 254 t57 302.5q0 270 -173.5 433t-453.5 163q-159 0 -300 -64.5t-239.5 -172.5t-155.5 -253t-57 -302zM1081 1571l213 237h56l-220 -237h-49z" />
<glyph unicode="&#xd4;" horiz-adv-x="1740" d="M178 627q0 169 62 323t168.5 267.5t259 181t323.5 67.5q295 0 479.5 -179.5t184.5 -463.5q0 -167 -61.5 -321.5t-167.5 -269.5t-257.5 -183.5t-322.5 -68.5q-298 0 -483 180t-185 467zM227 627q0 -273 172.5 -436.5t454.5 -163.5q159 0 300.5 65.5t239.5 174t155 254 t57 302.5q0 270 -173.5 433t-453.5 163q-159 0 -300 -64.5t-239.5 -172.5t-155.5 -253t-57 -302zM842 1571l278 237h45l181 -237h-52l-153 205l-236 -205h-63z" />
<glyph unicode="&#xd5;" horiz-adv-x="1740" d="M178 627q0 169 62 323t168.5 267.5t259 181t323.5 67.5q295 0 479.5 -179.5t184.5 -463.5q0 -167 -61.5 -321.5t-167.5 -269.5t-257.5 -183.5t-322.5 -68.5q-298 0 -483 180t-185 467zM227 627q0 -273 172.5 -436.5t454.5 -163.5q159 0 300.5 65.5t239.5 174t155 254 t57 302.5q0 270 -173.5 433t-453.5 163q-159 0 -300 -64.5t-239.5 -172.5t-155.5 -253t-57 -302zM836 1591q11 86 54.5 136.5t110.5 50.5q40 0 75 -24t57 -52t53 -52t63 -24q41 0 72 39.5t45 108.5h43q-11 -86 -55 -136.5t-111 -50.5q-33 0 -61.5 15.5t-49.5 38t-41 45 t-44.5 38t-51.5 15.5q-41 0 -71.5 -39.5t-44.5 -108.5h-43z" />
<glyph unicode="&#xd6;" horiz-adv-x="1740" d="M178 627q0 169 62 323t168.5 267.5t259 181t323.5 67.5q295 0 479.5 -179.5t184.5 -463.5q0 -167 -61.5 -321.5t-167.5 -269.5t-257.5 -183.5t-322.5 -68.5q-298 0 -483 180t-185 467zM227 627q0 -273 172.5 -436.5t454.5 -163.5q159 0 300.5 65.5t239.5 174t155 254 t57 302.5q0 270 -173.5 433t-453.5 163q-159 0 -300 -64.5t-239.5 -172.5t-155.5 -253t-57 -302zM903 1679q0 26 18 44t44 18q22 0 35.5 -12t13.5 -33q0 -26 -18 -44t-44 -18q-22 0 -35.5 12t-13.5 33zM1225 1679q0 26 17.5 44t43.5 18q22 0 35.5 -12t13.5 -33 q0 -26 -17.5 -44t-43.5 -18q-22 0 -35.5 12t-13.5 33z" />
<glyph unicode="&#xd7;" horiz-adv-x="950" d="M33 276l440 365l-283 360l37 29l281 -358l434 358l31 -33l-436 -362l280 -359l-37 -28l-280 358l-437 -362z" />
<glyph unicode="&#xd8;" horiz-adv-x="1740" d="M178 627q0 169 62 323t168.5 267.5t259 181t323.5 67.5q259 0 439 -143l112 129h60l-138 -158q191 -182 191 -471q0 -167 -61.5 -321.5t-167.5 -269.5t-257.5 -183.5t-322.5 -68.5q-246 0 -418 124l-152 -174h-59l176 203q-103 88 -159 214.5t-56 279.5zM227 627 q0 -295 197 -459l973 1118q-164 133 -418 133q-159 0 -300 -64.5t-239.5 -172.5t-155.5 -253t-57 -302zM461 141q157 -114 393 -114q159 0 300.5 65.5t239.5 174t155 254t57 302.5q0 271 -174 434z" />
<glyph unicode="&#xd9;" horiz-adv-x="1337" d="M166 616l176 830h47l-176 -834q-124 -585 430 -585q398 0 504 493l196 926h50l-199 -930q-114 -536 -559 -536q-300 0 -417 168t-52 468zM748 1823h49l114 -238h-43z" />
<glyph unicode="&#xda;" horiz-adv-x="1337" d="M166 616l176 830h47l-176 -834q-124 -585 430 -585q398 0 504 493l196 926h50l-199 -930q-114 -536 -559 -536q-300 0 -417 168t-52 468zM879 1585l213 238h55l-219 -238h-49z" />
<glyph unicode="&#xdb;" horiz-adv-x="1337" d="M166 616l176 830h47l-176 -834q-124 -585 430 -585q398 0 504 493l196 926h50l-199 -930q-114 -536 -559 -536q-300 0 -417 168t-52 468zM639 1585l279 238h45l180 -238h-51l-154 205l-236 -205h-63z" />
<glyph unicode="&#xdc;" horiz-adv-x="1337" d="M166 616l176 830h47l-176 -834q-124 -585 430 -585q398 0 504 493l196 926h50l-199 -930q-114 -536 -559 -536q-300 0 -417 168t-52 468zM700 1694q0 26 18 43.5t44 17.5q22 0 35.5 -12t13.5 -33q0 -26 -17.5 -43.5t-43.5 -17.5q-22 0 -36 12t-14 33zM1022 1694 q0 26 17.5 43.5t43.5 17.5q22 0 36 -12t14 -33q0 -26 -18 -43.5t-44 -17.5q-22 0 -35.5 12t-13.5 33z" />
<glyph unicode="&#xdd;" horiz-adv-x="1179" d="M240 1446h51l323 -795l662 795h61l-704 -846l-127 -600h-49l127 600zM797 1585l213 238h55l-219 -238h-49z" />
<glyph unicode="&#xde;" horiz-adv-x="1153" d="M84 0l307 1446h49l-59 -279h319q204 0 307 -83t103 -244q0 -233 -142 -368.5t-429 -135.5h-334l-72 -336h-49zM215 383h336q256 0 383 122t127 331q0 146 -108.5 215t-293.5 69h-288z" />
<glyph unicode="&#xdf;" horiz-adv-x="1128" d="M125 0l207 975h-203l10 45h203l43 203q11 54 25 94.5t38.5 81t57 66t81 41.5t109.5 16q46 0 138 -15l-11 -45q-84 15 -133 15q-66 0 -113 -19.5t-75 -59t-43.5 -80.5t-28.5 -104l-41 -194h701l-9 -35l-518 -549q10 2 29 2q182 0 281.5 -95t99.5 -267q0 -101 -34 -191 t-95 -158.5t-153.5 -108.5t-203.5 -40q-68 0 -145.5 15.5t-124.5 41.5l25 46q43 -26 113 -41t132 -15q103 0 188 36.5t139.5 99t84 143t29.5 170.5q0 156 -89.5 238.5t-250.5 82.5q-42 0 -103 -14l-14 20l541 574h-633l-207 -975h-47z" />
<glyph unicode="&#xe0;" d="M98 422q0 159 72 300.5t202.5 229.5t286.5 88q186 0 298.5 -102.5t136.5 -265.5l75 348h45l-217 -1020h-47l56 256q-76 -128 -195 -202t-268 -74q-209 0 -327 125.5t-118 316.5zM145 426q0 -174 107 -287.5t299 -113.5q144 0 264 79t186 206t66 270q0 177 -109.5 296 t-302.5 119q-143 0 -261.5 -81.5t-183.5 -212t-65 -275.5zM639 1501h45l104 -278h-40z" />
<glyph unicode="&#xe1;" d="M98 422q0 159 72 300.5t202.5 229.5t286.5 88q186 0 298.5 -102.5t136.5 -265.5l75 348h45l-217 -1020h-47l56 256q-76 -128 -195 -202t-268 -74q-209 0 -327 125.5t-118 316.5zM145 426q0 -174 107 -287.5t299 -113.5q144 0 264 79t186 206t66 270q0 177 -109.5 296 t-302.5 119q-143 0 -261.5 -81.5t-183.5 -212t-65 -275.5zM743 1223l220 278h55l-225 -278h-50z" />
<glyph unicode="&#xe2;" d="M98 422q0 159 72 300.5t202.5 229.5t286.5 88q186 0 298.5 -102.5t136.5 -265.5l75 348h45l-217 -1020h-47l56 256q-76 -128 -195 -202t-268 -74q-209 0 -327 125.5t-118 316.5zM145 426q0 -174 107 -287.5t299 -113.5q144 0 264 79t186 206t66 270q0 177 -109.5 296 t-302.5 119q-143 0 -261.5 -81.5t-183.5 -212t-65 -275.5zM516 1223l287 278h45l172 -278h-47l-150 243l-248 -243h-59z" />
<glyph unicode="&#xe3;" d="M98 422q0 159 72 300.5t202.5 229.5t286.5 88q186 0 298.5 -102.5t136.5 -265.5l75 348h45l-217 -1020h-47l56 256q-76 -128 -195 -202t-268 -74q-209 0 -327 125.5t-118 316.5zM145 426q0 -174 107 -287.5t299 -113.5q144 0 264 79t186 206t66 270q0 177 -109.5 296 t-302.5 119q-143 0 -261.5 -81.5t-183.5 -212t-65 -275.5zM510 1262q11 85 55 135.5t111 50.5q40 0 75 -24t57 -52t53 -52t63 -24q41 0 71.5 39.5t44.5 108.5h43q-11 -86 -54.5 -136.5t-110.5 -50.5q-33 0 -61.5 15.5t-49.5 38t-41 45t-44.5 38t-51.5 15.5q-41 0 -72.5 -39 t-44.5 -108h-43z" />
<glyph unicode="&#xe4;" d="M98 422q0 159 72 300.5t202.5 229.5t286.5 88q186 0 298.5 -102.5t136.5 -265.5l75 348h45l-217 -1020h-47l56 256q-76 -128 -195 -202t-268 -74q-209 0 -327 125.5t-118 316.5zM145 426q0 -174 107 -287.5t299 -113.5q144 0 264 79t186 206t66 270q0 177 -109.5 296 t-302.5 119q-143 0 -261.5 -81.5t-183.5 -212t-65 -275.5zM586 1380q0 27 16.5 44.5t42.5 17.5q47 0 47 -45q0 -27 -16.5 -44.5t-42.5 -17.5q-47 0 -47 45zM905 1380q0 26 17 44t43 18q47 0 47 -45q0 -26 -17 -44t-43 -18q-47 0 -47 45z" />
<glyph unicode="&#xe5;" d="M98 422q0 159 72 300.5t202.5 229.5t286.5 88q186 0 298.5 -102.5t136.5 -265.5l75 348h45l-217 -1020h-47l56 256q-76 -128 -195 -202t-268 -74q-209 0 -327 125.5t-118 316.5zM145 426q0 -174 107 -287.5t299 -113.5q144 0 264 79t186 206t66 270q0 177 -109.5 296 t-302.5 119q-143 0 -261.5 -81.5t-183.5 -212t-65 -275.5zM623 1354q0 84 55 137t139 53q69 0 116.5 -42t47.5 -105q0 -81 -54.5 -136t-138.5 -55q-69 0 -117 42.5t-48 105.5zM664 1360q0 -51 36 -83t93 -32q60 0 103.5 42t43.5 106q0 49 -36 80.5t-93 31.5q-61 0 -104 -41 t-43 -104z" />
<glyph unicode="&#xe6;" horiz-adv-x="1937" d="M47 276q0 166 108 271.5t277 105.5q123 0 242.5 -62.5t165.5 -160.5l28 143q39 193 -42.5 307.5t-264.5 114.5q-107 0 -197 -47t-147 -133l-39 23q66 96 167 149t220 53q161 0 257.5 -84.5t105.5 -228.5q73 141 200.5 227t280.5 86q102 0 185 -35.5t137 -96.5t83 -141 t29 -171q0 -67 -6 -100h-934q-4 -40 -4 -64q0 -190 115.5 -298.5t304.5 -108.5q137 0 232 59.5t171 173.5l37 -22q-162 -256 -444 -256q-184 0 -305.5 97.5t-149.5 264.5q-128 -362 -432 -362q-173 0 -277 79t-104 217zM94 283q0 -118 89.5 -188t246.5 -70q140 0 236 83 t155 248q-19 103 -131 177.5t-264 74.5q-148 0 -240 -93.5t-92 -231.5zM909 539h885q19 201 -88.5 328.5t-302.5 127.5q-180 0 -320 -132.5t-174 -323.5z" />
<glyph unicode="&#xe7;" horiz-adv-x="1159" d="M100 438q0 160 74 298.5t205.5 221t288.5 82.5q155 0 256 -68t147 -190l-43 -14q-93 227 -364 227q-111 0 -208.5 -45.5t-164.5 -122t-105.5 -177.5t-38.5 -210q0 -115 45.5 -206t142.5 -148t234 -57q252 0 400 219l37 -25q-158 -239 -435 -239h-34l-25 -109 q66 -3 109 -38t43 -99q0 -72 -47.5 -116t-139.5 -44q-108 0 -182 45l8 43q73 -47 178 -47q67 0 102 32t35 87q0 44 -37 72t-94 28h-26l31 150q-182 23 -287 144t-105 306z" />
<glyph unicode="&#xe8;" horiz-adv-x="1204" d="M100 430q0 119 44 230.5t119 195t181.5 134t225.5 50.5q138 0 239.5 -61.5t151 -161t49.5 -221.5q0 -67 -6 -100h-952q-5 -50 -5 -64q0 -190 120.5 -298.5t316.5 -108.5q138 0 233.5 59.5t171.5 173.5l37 -22q-162 -256 -446 -256q-215 0 -347.5 124t-132.5 326zM158 539 h903q19 202 -89.5 329t-307.5 127q-188 0 -329.5 -132t-176.5 -324zM592 1501h45l104 -278h-41z" />
<glyph unicode="&#xe9;" horiz-adv-x="1204" d="M100 430q0 119 44 230.5t119 195t181.5 134t225.5 50.5q138 0 239.5 -61.5t151 -161t49.5 -221.5q0 -67 -6 -100h-952q-5 -50 -5 -64q0 -190 120.5 -298.5t316.5 -108.5q138 0 233.5 59.5t171.5 173.5l37 -22q-162 -256 -446 -256q-215 0 -347.5 124t-132.5 326zM158 539 h903q19 202 -89.5 329t-307.5 127q-188 0 -329.5 -132t-176.5 -324zM696 1223l219 278h56l-226 -278h-49z" />
<glyph unicode="&#xea;" horiz-adv-x="1204" d="M100 430q0 119 44 230.5t119 195t181.5 134t225.5 50.5q138 0 239.5 -61.5t151 -161t49.5 -221.5q0 -67 -6 -100h-952q-5 -50 -5 -64q0 -190 120.5 -298.5t316.5 -108.5q138 0 233.5 59.5t171.5 173.5l37 -22q-162 -256 -446 -256q-215 0 -347.5 124t-132.5 326zM158 539 h903q19 202 -89.5 329t-307.5 127q-188 0 -329.5 -132t-176.5 -324zM469 1223l287 278h45l172 -278h-47l-150 243l-248 -243h-59z" />
<glyph unicode="&#xeb;" horiz-adv-x="1204" d="M100 430q0 119 44 230.5t119 195t181.5 134t225.5 50.5q138 0 239.5 -61.5t151 -161t49.5 -221.5q0 -67 -6 -100h-952q-5 -50 -5 -64q0 -190 120.5 -298.5t316.5 -108.5q138 0 233.5 59.5t171.5 173.5l37 -22q-162 -256 -446 -256q-215 0 -347.5 124t-132.5 326zM158 539 h903q19 202 -89.5 329t-307.5 127q-188 0 -329.5 -132t-176.5 -324zM539 1380q0 27 16.5 44.5t42.5 17.5q47 0 47 -45q0 -27 -16.5 -44.5t-42.5 -17.5q-47 0 -47 45zM858 1380q0 26 17 44t43 18q47 0 47 -45q0 -26 -17 -44t-43 -18q-47 0 -47 45z" />
<glyph unicode="&#xec;" horiz-adv-x="413" d="M76 0l217 1020h45l-217 -1020h-45zM229 1501h45l105 -278h-41z" />
<glyph unicode="&#xed;" horiz-adv-x="413" d="M76 0l217 1020h45l-217 -1020h-45zM332 1223l219 278h55l-225 -278h-49z" />
<glyph unicode="&#xee;" horiz-adv-x="413" d="M76 0l217 1020h45l-217 -1020h-45zM147 1223l242 278h45l127 -278h-45l-106 243l-209 -243h-54z" />
<glyph unicode="&#xef;" horiz-adv-x="413" d="M76 0l217 1020h45l-217 -1020h-45zM190 1378q0 25 18 44.5t44 19.5q22 0 35.5 -11.5t13.5 -31.5q0 -25 -17.5 -44.5t-43.5 -19.5q-22 0 -36 11.5t-14 31.5zM487 1378q0 25 18 44.5t44 19.5q22 0 35.5 -11.5t13.5 -31.5q0 -25 -17.5 -44.5t-43.5 -19.5q-22 0 -36 11.5 t-14 31.5z" />
<glyph unicode="&#xf0;" horiz-adv-x="1261" d="M100 436q0 159 77.5 298t213 222.5t293.5 83.5q178 0 292.5 -85t158.5 -226q-21 173 -87 317.5t-178 278.5l-346 -151l-12 40l328 144q-66 75 -156 155l31 33q79 -71 168 -170l280 123l13 -41l-267 -117q267 -322 267 -659q0 -143 -41.5 -270.5t-116.5 -223.5 t-187.5 -152t-246.5 -56q-217 0 -350.5 127t-133.5 329zM147 438q0 -117 49 -209.5t150 -149t240 -56.5q95 0 180.5 33.5t149 90t111 128.5t71.5 150.5t24 154.5q0 86 -29.5 161.5t-84 132t-139.5 89t-189 32.5q-111 0 -211 -46.5t-170 -123t-111 -178t-41 -209.5z" />
<glyph unicode="&#xf1;" horiz-adv-x="1155" d="M66 0l217 1020h43l-54 -256q65 118 181.5 197t261.5 79q186 0 269 -126t32 -367l-117 -547h-45l117 549q48 224 -25 335t-241 111q-167 0 -303.5 -132t-188.5 -378l-102 -485h-45zM483 1262q11 85 55 135.5t111 50.5q40 0 75 -24t57 -52t53 -52t63 -24q41 0 72 39.5 t45 108.5h43q-11 -86 -55 -136.5t-111 -50.5q-33 0 -61.5 15.5t-49.5 38t-41 45t-44.5 38t-51.5 15.5q-41 0 -72.5 -39t-44.5 -108h-43z" />
<glyph unicode="&#xf2;" horiz-adv-x="1261" d="M100 438q0 163 77.5 301.5t211.5 219.5t293 81q224 0 351.5 -130t127.5 -328q0 -122 -45.5 -233t-122.5 -192t-185 -129t-228 -48q-150 0 -260.5 62.5t-165 165t-54.5 230.5zM147 440q0 -179 115.5 -297t321.5 -118q147 0 269.5 75.5t191.5 203t69 276.5 q0 180 -115 297.5t-321 117.5q-110 0 -209.5 -44.5t-169.5 -119.5t-111 -177.5t-41 -213.5zM627 1493h45l104 -279h-41z" />
<glyph unicode="&#xf3;" horiz-adv-x="1261" d="M100 438q0 163 77.5 301.5t211.5 219.5t293 81q224 0 351.5 -130t127.5 -328q0 -122 -45.5 -233t-122.5 -192t-185 -129t-228 -48q-150 0 -260.5 62.5t-165 165t-54.5 230.5zM147 440q0 -179 115.5 -297t321.5 -118q147 0 269.5 75.5t191.5 203t69 276.5 q0 180 -115 297.5t-321 117.5q-110 0 -209.5 -44.5t-169.5 -119.5t-111 -177.5t-41 -213.5zM731 1214l219 279h56l-226 -279h-49z" />
<glyph unicode="&#xf4;" horiz-adv-x="1261" d="M100 438q0 163 77.5 301.5t211.5 219.5t293 81q224 0 351.5 -130t127.5 -328q0 -122 -45.5 -233t-122.5 -192t-185 -129t-228 -48q-150 0 -260.5 62.5t-165 165t-54.5 230.5zM147 440q0 -179 115.5 -297t321.5 -118q147 0 269.5 75.5t191.5 203t69 276.5 q0 180 -115 297.5t-321 117.5q-110 0 -209.5 -44.5t-169.5 -119.5t-111 -177.5t-41 -213.5zM504 1214l287 279h45l172 -279h-47l-150 244l-248 -244h-59z" />
<glyph unicode="&#xf5;" horiz-adv-x="1261" d="M100 438q0 163 77.5 301.5t211.5 219.5t293 81q224 0 351.5 -130t127.5 -328q0 -122 -45.5 -233t-122.5 -192t-185 -129t-228 -48q-150 0 -260.5 62.5t-165 165t-54.5 230.5zM147 440q0 -179 115.5 -297t321.5 -118q147 0 269.5 75.5t191.5 203t69 276.5 q0 180 -115 297.5t-321 117.5q-110 0 -209.5 -44.5t-169.5 -119.5t-111 -177.5t-41 -213.5zM498 1253q11 86 55 136.5t111 50.5q40 0 75 -24t56.5 -52t52.5 -52t63 -24q41 0 72 39.5t45 108.5h43q-11 -86 -55 -136.5t-111 -50.5q-33 0 -61.5 15.5t-49.5 38t-41 45t-44.5 38 t-51.5 15.5q-41 0 -71.5 -39.5t-44.5 -108.5h-43z" />
<glyph unicode="&#xf6;" horiz-adv-x="1261" d="M100 438q0 163 77.5 301.5t211.5 219.5t293 81q224 0 351.5 -130t127.5 -328q0 -122 -45.5 -233t-122.5 -192t-185 -129t-228 -48q-150 0 -260.5 62.5t-165 165t-54.5 230.5zM147 440q0 -179 115.5 -297t321.5 -118q147 0 269.5 75.5t191.5 203t69 276.5 q0 180 -115 297.5t-321 117.5q-110 0 -209.5 -44.5t-169.5 -119.5t-111 -177.5t-41 -213.5zM573 1372q0 26 17 44t43 18q47 0 47 -45q0 -27 -16.5 -44.5t-42.5 -17.5q-22 0 -35 12t-13 33zM893 1372q0 27 16.5 44.5t42.5 17.5q47 0 47 -45q0 -27 -16.5 -44.5t-42.5 -17.5 q-47 0 -47 45z" />
<glyph unicode="&#xf7;" horiz-adv-x="983" d="M106 614l9 45h817l-8 -45h-818zM354 264q0 31 20 49.5t48 18.5q24 0 37.5 -13.5t13.5 -37.5q0 -31 -19.5 -49.5t-47.5 -18.5q-24 0 -38 13.5t-14 37.5zM508 993q0 31 19.5 49.5t47.5 18.5q24 0 38 -13.5t14 -37.5q0 -31 -20 -49.5t-48 -18.5q-24 0 -37.5 13.5t-13.5 37.5 z" />
<glyph unicode="&#xf8;" horiz-adv-x="1261" d="M61 -80l166 180l4 6q-131 128 -131 332q0 163 77.5 301.5t211.5 219.5t293 81q190 0 315 -98l15 16l141 154h57l-163 -178l-17 -19q131 -128 131 -333q0 -122 -45.5 -233t-122.5 -192t-185 -129t-228 -48q-187 0 -316 98l-145 -158h-58zM147 440q0 -185 117 -299l701 766 q-115 88 -287 88q-110 0 -209.5 -44.5t-169.5 -119.5t-111 -177.5t-41 -213.5zM295 113q115 -88 289 -88q147 0 269.5 75.5t191.5 203t69 276.5q0 185 -117 299z" />
<glyph unicode="&#xf9;" horiz-adv-x="1144" d="M139 473l117 547h45l-117 -549q-48 -223 24.5 -334.5t240.5 -111.5q167 0 304 132t189 378l102 485h46l-218 -1020h-45l52 256q-65 -119 -180.5 -197.5t-260.5 -78.5q-186 0 -268 126t-31 367zM582 1501h45l104 -278h-41z" />
<glyph unicode="&#xfa;" horiz-adv-x="1144" d="M139 473l117 547h45l-117 -549q-48 -223 24.5 -334.5t240.5 -111.5q167 0 304 132t189 378l102 485h46l-218 -1020h-45l52 256q-65 -119 -180.5 -197.5t-260.5 -78.5q-186 0 -268 126t-31 367zM686 1223l219 278h56l-226 -278h-49z" />
<glyph unicode="&#xfb;" horiz-adv-x="1144" d="M139 473l117 547h45l-117 -549q-48 -223 24.5 -334.5t240.5 -111.5q167 0 304 132t189 378l102 485h46l-218 -1020h-45l52 256q-65 -119 -180.5 -197.5t-260.5 -78.5q-186 0 -268 126t-31 367zM459 1223l286 278h46l172 -278h-48l-149 243l-248 -243h-59z" />
<glyph unicode="&#xfc;" horiz-adv-x="1144" d="M139 473l117 547h45l-117 -549q-48 -223 24.5 -334.5t240.5 -111.5q167 0 304 132t189 378l102 485h46l-218 -1020h-45l52 256q-65 -119 -180.5 -197.5t-260.5 -78.5q-186 0 -268 126t-31 367zM528 1380q0 26 17 44t43 18q47 0 47 -45q0 -26 -17 -44t-43 -18 q-47 0 -47 45zM848 1380q0 27 16.5 44.5t42.5 17.5q47 0 47 -45q0 -27 -16.5 -44.5t-42.5 -17.5q-47 0 -47 45z" />
<glyph unicode="&#xfd;" horiz-adv-x="1032" d="M117 -401l264 405l-229 1016h47l217 -963l628 963h54l-928 -1421h-53zM641 1223l219 278h55l-225 -278h-49z" />
<glyph unicode="&#xfe;" horiz-adv-x="1280" d="M-20 -401l405 1902h45l-156 -737q76 127 198 201.5t271 74.5q106 0 190.5 -34.5t138 -95t82 -140.5t28.5 -172q0 -159 -70.5 -300.5t-199.5 -229.5t-285 -88q-186 0 -301.5 102.5t-139.5 265.5l-161 -749h-45zM215 440q0 -114 47 -207t143 -150.5t226 -57.5 q143 0 260 81.5t180.5 211.5t63.5 276q0 113 -43.5 202t-135.5 144t-221 55q-144 0 -265 -79t-188 -206t-67 -270z" />
<glyph unicode="&#xff;" horiz-adv-x="1032" d="M117 -401l264 405l-229 1016h47l217 -963l628 963h54l-928 -1421h-53zM483 1380q0 26 17 44t43 18q47 0 47 -45q0 -26 -17 -44t-43 -18q-47 0 -47 45zM803 1380q0 27 16.5 44.5t42.5 17.5q47 0 47 -45q0 -27 -16.5 -44.5t-42.5 -17.5q-47 0 -47 45z" />
<glyph unicode="&#x152;" horiz-adv-x="1849" d="M176 621q0 167 61 318.5t166.5 263t256 177.5t321.5 66h154h22h768l-10 -47h-744l-137 -651h645l-10 -48h-645l-139 -653h768l-11 -47h-815q-297 0 -474 166.5t-177 454.5zM225 625q0 -271 165 -424.5t441 -153.5h7l286 1352h-151q-159 0 -299.5 -62.5t-238 -168 t-154 -247.5t-56.5 -296z" />
<glyph unicode="&#x153;" horiz-adv-x="2191" d="M102 438q0 163 74 301t205.5 219.5t290.5 81.5q204 0 331 -108.5t150 -280.5q62 170 199 279.5t305 109.5q138 0 239.5 -61.5t151 -161t49.5 -221.5q0 -67 -6 -100h-928q-4 -40 -4 -64q0 -191 113 -299t301 -108q138 0 233.5 59.5t171.5 173.5l37 -22 q-162 -256 -446 -256q-188 0 -308.5 102.5t-142.5 275.5q-61 -169 -203 -273.5t-325 -104.5q-113 0 -206 36t-154 98.5t-94.5 145.5t-33.5 178zM150 440q0 -86 29.5 -161.5t85 -132t140.5 -89t189 -32.5q147 0 266.5 76t185.5 202.5t66 276.5q0 86 -29.5 161.5t-85 132 t-140.5 89t-189 32.5q-147 0 -266.5 -76t-185.5 -202.5t-66 -276.5zM1169 539h879q19 202 -89.5 329t-307.5 127q-172 0 -310 -133t-172 -323z" />
<glyph unicode="&#x178;" horiz-adv-x="1179" d="M240 1446h51l323 -795l662 795h61l-704 -846l-127 -600h-49l127 600zM618 1694q0 26 18 43.5t44 17.5q22 0 35.5 -12t13.5 -33q0 -26 -17.5 -43.5t-43.5 -17.5q-22 0 -36 12t-14 33zM940 1694q0 26 17.5 43.5t43.5 17.5q22 0 36 -12t14 -33q0 -26 -18 -43.5t-44 -17.5 q-22 0 -35.5 12t-13.5 33z" />
<glyph unicode="&#x2c6;" horiz-adv-x="614" d="M207 1223l287 278h45l172 -278h-47l-150 243l-248 -243h-59z" />
<glyph unicode="&#x2dc;" horiz-adv-x="614" d="M201 1262q11 85 55 135.5t111 50.5q40 0 75 -24t56.5 -52t52.5 -52t63 -24q41 0 72 39.5t45 108.5h43q-11 -86 -55 -136.5t-111 -50.5q-33 0 -61.5 15.5t-49.5 38t-41 45t-44.5 38t-51.5 15.5q-41 0 -71.5 -39t-44.5 -108h-43z" />
<glyph unicode="&#x2000;" horiz-adv-x="938" />
<glyph unicode="&#x2001;" horiz-adv-x="1876" />
<glyph unicode="&#x2002;" horiz-adv-x="938" />
<glyph unicode="&#x2003;" horiz-adv-x="1876" />
<glyph unicode="&#x2004;" horiz-adv-x="625" />
<glyph unicode="&#x2005;" horiz-adv-x="469" />
<glyph unicode="&#x2006;" horiz-adv-x="312" />
<glyph unicode="&#x2007;" horiz-adv-x="312" />
<glyph unicode="&#x2008;" horiz-adv-x="234" />
<glyph unicode="&#x2009;" horiz-adv-x="375" />
<glyph unicode="&#x200a;" horiz-adv-x="104" />
<glyph unicode="&#x2010;" horiz-adv-x="802" d="M90 492l10 45h615l-10 -45h-615z" />
<glyph unicode="&#x2011;" horiz-adv-x="802" d="M90 492l10 45h615l-10 -45h-615z" />
<glyph unicode="&#x2012;" horiz-adv-x="802" d="M90 492l10 45h615l-10 -45h-615z" />
<glyph unicode="&#x2013;" horiz-adv-x="1101" d="M78 492l10 45h938l-10 -45h-938z" />
<glyph unicode="&#x2014;" horiz-adv-x="1941" d="M78 492l10 45h1778l-11 -45h-1777z" />
<glyph unicode="&#x2018;" horiz-adv-x="389" d="M246 1036l194 465h43l-176 -465h-61z" />
<glyph unicode="&#x2019;" horiz-adv-x="389" d="M229 1036l177 465h61l-195 -465h-43z" />
<glyph unicode="&#x201a;" horiz-adv-x="389" d="M-57 -311l176 465h61l-194 -465h-43z" />
<glyph unicode="&#x201c;" horiz-adv-x="675" d="M246 1036l178 465h43l-160 -465h-61zM549 1036l178 465h43l-160 -465h-61z" />
<glyph unicode="&#x201d;" horiz-adv-x="675" d="M229 1036l160 465h62l-179 -465h-43zM532 1036l160 465h62l-179 -465h-43z" />
<glyph unicode="&#x201e;" horiz-adv-x="675" d="M-57 -311l159 465h62l-178 -465h-43zM246 -311l160 465h61l-178 -465h-43z" />
<glyph unicode="&#x2022;" horiz-adv-x="557" d="M135 489q0 75 48.5 119.5t115.5 44.5q56 0 89.5 -32.5t33.5 -90.5q0 -75 -48.5 -119t-115.5 -44q-56 0 -89.5 32t-33.5 90z" />
<glyph unicode="&#x2026;" horiz-adv-x="1167" d="M37 41q0 31 19.5 49.5t47.5 18.5q24 0 38 -14t14 -38q0 -31 -20 -49t-48 -18q-24 0 -37.5 13.5t-13.5 37.5zM426 41q0 31 20 49.5t48 18.5q24 0 37.5 -13.5t13.5 -38.5q0 -31 -20 -49t-48 -18q-24 0 -37.5 13.5t-13.5 37.5zM815 41q0 31 20 49.5t48 18.5q23 0 37 -13.5 t14 -38.5q0 -31 -20 -49t-48 -18q-24 0 -37.5 13.5t-13.5 37.5z" />
<glyph unicode="&#x202f;" horiz-adv-x="375" />
<glyph unicode="&#x2039;" horiz-adv-x="505" d="M74 510l387 442l41 -22l-375 -426l184 -414l-39 -22z" />
<glyph unicode="&#x203a;" horiz-adv-x="505" d="M4 90l375 426l-184 414l38 22l199 -442l-387 -442z" />
<glyph unicode="&#x205f;" horiz-adv-x="469" />
<glyph unicode="&#x20ac;" horiz-adv-x="1427" d="M92 555l10 45h168q6 145 45 268h-155l10 45h160q40 117 102 216t143.5 175t185.5 119t218 43q158 0 280 -71.5t173 -186.5l-46 -20q-47 104 -157 167.5t-256 63.5q-137 0 -257 -69.5t-202 -181t-133 -255.5h625l-11 -45h-628q-42 -138 -48 -268h619l-10 -45h-611v-6 q0 -244 127.5 -383t346.5 -139q142 0 264 63.5t186 173.5l35 -26q-70 -118 -203.5 -188t-286.5 -70q-235 0 -376.5 153.5t-141.5 411.5v10h-176z" />
<glyph unicode="&#x2122;" horiz-adv-x="1191" d="M221 1407l8 39h443l-8 -39h-203l-115 -541h-41l115 541h-199zM668 866l123 580h40l134 -373l299 373h45l-123 -580h-41l106 502l-282 -350h-27l-125 354l-108 -506h-41z" />
<glyph unicode="&#x25fc;" horiz-adv-x="1024" d="M0 0v1024h1024v-1024h-1024z" />
</font>
</defs>
</svg>
