<?xml version="1.0" standalone="no"?>
<!DOCTYPE svg PUBLIC "-//W3C//DTD SVG 1.1//EN" "http://www.w3.org/Graphics/SVG/1.1/DTD/svg11.dtd" >
<svg xmlns="http://www.w3.org/2000/svg" xmlns:xlink="http://www.w3.org/1999/xlink" version="1.1">
<metadata></metadata>
<defs>
<font id="zabal_demomedium_italic" horiz-adv-x="516" >
<font-face units-per-em="2048" ascent="1638" descent="-410" />
<missing-glyph horiz-adv-x="487" />
<glyph unicode="&#xfb01;" horiz-adv-x="1261" d="M115 0l182 862h-182l37 166h180l30 141q37 179 129 267t250 88q33 0 90.5 -8t81.5 -17l-34 -164q-59 23 -148 23q-73 0 -116 -47.5t-72 -182.5l-21 -100h285l-37 -166h-285l-182 -862h-188zM801 0l217 1028h188l-217 -1028h-188zM1055 1335q0 56 42 94.5t97 38.5 q51 0 83 -30.5t32 -75.5q0 -56 -42.5 -95.5t-99.5 -39.5q-50 0 -81 30.5t-31 77.5z" />
<glyph unicode="&#xfb02;" horiz-adv-x="1261" d="M115 0l182 862h-182l37 166h180l30 141q37 179 129 267t250 88q33 0 90.5 -8t81.5 -17l-34 -164q-59 23 -148 23q-73 0 -116 -47.5t-72 -182.5l-21 -100h285l-37 -166h-285l-182 -862h-188zM801 0l317 1501h189l-318 -1501h-188z" />
<glyph horiz-adv-x="0" />
<glyph horiz-adv-x="682" />
<glyph horiz-adv-x="0" />
<glyph horiz-adv-x="0" />
<glyph unicode="&#xd;" horiz-adv-x="681" />
<glyph unicode=" "  horiz-adv-x="487" />
<glyph unicode="&#x09;" horiz-adv-x="487" />
<glyph unicode="&#xa0;" horiz-adv-x="487" />
<glyph unicode="!" horiz-adv-x="518" d="M39 102q0 65 41.5 106.5t101.5 41.5q58 0 92.5 -32.5t34.5 -82.5q0 -68 -40.5 -107.5t-106.5 -39.5q-55 0 -89 32t-34 82zM168 418l178 1028h227l-258 -1028h-147z" />
<glyph unicode="&#x22;" horiz-adv-x="808" d="M203 889l129 612h176l-129 -612h-176zM590 889l129 612h176l-129 -612h-176z" />
<glyph unicode="#" horiz-adv-x="1413" d="M10 369l33 155h293l166 383h-262l32 156h295l166 383h178l-166 -383h304l165 383h179l-166 -383h262l-33 -156h-295l-166 -383h265l-33 -155h-297l-160 -369h-178l160 369h-303l-160 -369h-178l159 369h-260zM514 524h303l166 383h-303z" />
<glyph unicode="$" horiz-adv-x="1173" d="M23 295l188 70q25 -72 83 -120t138 -69l100 471q-73 25 -127 53t-101.5 68.5t-72 97.5t-24.5 129q0 209 137.5 341t351.5 132q31 0 47 -2l35 164h144l-41 -190q101 -32 176 -97.5t106 -158.5l-190 -74q-37 97 -131 145l-101 -473q76 -26 130.5 -53t101.5 -65.5t70.5 -91 t23.5 -119.5q0 -213 -140 -344.5t-362 -131.5h-30l-35 -161h-144l39 178q-135 28 -232 104.5t-140 196.5zM408 1018q0 -72 47.5 -114t150.5 -79l99 461h-17q-126 0 -203 -76t-77 -192zM573 160q132 1 212.5 75t80.5 193q0 63 -47 101.5t-151 74.5z" />
<glyph unicode="%" horiz-adv-x="2043" d="M164 918q0 107 28.5 205t80.5 175.5t134 123.5t181 46q158 0 248 -91t90 -253q0 -107 -28.5 -205t-80.5 -175.5t-134 -124t-181 -46.5q-157 0 -247.5 91.5t-90.5 253.5zM340 930q0 -94 43.5 -147.5t126.5 -53.5q59 0 107 36t76 93t42.5 122.5t14.5 131.5 q0 94 -43.5 147.5t-126.5 53.5q-59 0 -107 -36t-76 -93t-42.5 -122.5t-14.5 -131.5zM397 0l1137 1446h203l-1137 -1446h-203zM1206 322q0 107 28.5 205t80.5 175.5t134 123.5t181 46q158 0 248 -91t90 -253q0 -107 -28.5 -205t-80.5 -175.5t-134 -124t-181 -46.5 q-157 0 -247.5 91.5t-90.5 253.5zM1382 334q0 -94 43.5 -147.5t126.5 -53.5q59 0 107 36t76 93t42.5 122.5t14.5 131.5q0 94 -43.5 147.5t-126.5 53.5q-59 0 -107 -36t-76 -93t-42.5 -122.5t-14.5 -131.5z" />
<glyph unicode="&#x26;" horiz-adv-x="1423" d="M94 358q0 77 23.5 142.5t60 112t93.5 87.5t110.5 68t124.5 55q-88 141 -88 275q0 157 115 263.5t282 106.5q157 0 255.5 -86.5t98.5 -214.5q0 -49 -12 -92.5t-32 -77.5t-52 -65t-64 -53.5t-77 -45t-83 -38.5t-89 -35l274 -381q133 168 176 399h191q-68 -318 -266 -538 l116 -160l-137 -103l-106 148q-197 -148 -430 -148q-208 0 -346 105t-138 276zM285 385q0 -108 87.5 -174t227.5 -66q165 0 311 111l-319 442q-56 -22 -97 -42t-83 -48.5t-68 -59t-42.5 -72.5t-16.5 -91zM604 1098q0 -99 68 -213q75 27 123.5 49.5t96.5 54.5t71.5 71.5 t23.5 88.5q0 65 -49 110.5t-123 45.5q-86 0 -148.5 -60t-62.5 -147z" />
<glyph unicode="'" horiz-adv-x="421" d="M203 889l129 612h176l-129 -612h-176z" />
<glyph unicode="(" horiz-adv-x="720" d="M98 354q0 346 196 657t521 468l53 -166q-265 -125 -423 -387t-158 -549q0 -198 68.5 -348.5t193.5 -225.5l-115 -125q-162 101 -249 272.5t-87 403.5z" />
<glyph unicode=")" horiz-adv-x="720" d="M-121 -156q177 83 310.5 234t202.5 333t69 369q0 198 -68.5 348.5t-193.5 225.5l114 125q162 -101 249 -272.5t87 -403.5q0 -346 -196 -657t-521 -468z" />
<glyph unicode="*" horiz-adv-x="933" d="M184 1049l324 71l-240 183l84 145l209 -254l31 307h168l-107 -327l262 129l84 -148l-321 -72l237 -180l-84 -147l-208 254l-31 -308h-168l104 326l-260 -127z" />
<glyph unicode="+" horiz-adv-x="1146" d="M111 555l36 172h381l84 395h181l-84 -395h381l-37 -172h-381l-84 -395h-180l84 395h-381z" />
<glyph unicode="," d="M-57 -299l184 612h231l-260 -612h-155z" />
<glyph unicode="-" horiz-adv-x="966" d="M109 428l32 172h717l-33 -172h-716z" />
<glyph unicode="." d="M39 102q0 65 41.5 106.5t101.5 41.5q58 0 92.5 -32.5t34.5 -82.5q0 -68 -40.5 -107.5t-106.5 -39.5q-55 0 -89 32t-34 82z" />
<glyph unicode="/" horiz-adv-x="702" d="M-217 -258l919 1759h195l-920 -1759h-194z" />
<glyph unicode="0" horiz-adv-x="1474" d="M150 565q0 139 31 270.5t92.5 244.5t146 198t200 133.5t246.5 48.5q260 0 405.5 -151.5t145.5 -417.5q0 -140 -31.5 -273t-94 -247.5t-149 -200.5t-202.5 -135t-248 -49q-253 0 -397.5 156.5t-144.5 422.5zM346 575q0 -195 94.5 -303t266.5 -108q120 0 220 63.5 t163 166.5t97 229.5t34 257.5q0 197 -96.5 299t-270.5 102q-121 0 -219.5 -61.5t-160.5 -163.5t-95 -226t-33 -256z" />
<glyph unicode="1" horiz-adv-x="819" d="M193 1208l595 252h54l-312 -1460h-194l254 1194l-373 -156z" />
<glyph unicode="2" horiz-adv-x="1216" d="M-10 0l30 150l293 198q274 185 360 251q208 160 278 297q46 89 46 185q0 95 -73.5 152t-206.5 57q-123 0 -215.5 -49.5t-157.5 -163.5l-125 129q64 120 199 191t323 71q95 0 175 -23t143 -69t99 -122t36 -175q0 -72 -18 -139t-45 -122t-78.5 -115t-98.5 -105 t-126.5 -104.5t-139.5 -101t-160 -107.5l-168 -111h670l-37 -174h-1003z" />
<glyph unicode="3" horiz-adv-x="1222" d="M12 281l183 79q32 -98 126.5 -152t231.5 -54q155 0 254.5 89.5t99.5 229.5q0 124 -96 190t-233 66q-91 0 -168 -29l-66 119l543 453h-578l37 174h897l-29 -135l-542 -430q199 -18 315.5 -112.5t116.5 -262.5q0 -237 -152.5 -383t-398.5 -146q-196 0 -346 78.5t-195 225.5 z" />
<glyph unicode="4" horiz-adv-x="1271" d="M37 303l31 137l665 1006h230l-650 -977h492l84 395h186l-84 -395h209l-37 -166h-207l-65 -303h-186l65 303h-733z" />
<glyph unicode="5" horiz-adv-x="1222" d="M8 281l180 77q34 -95 127 -149.5t232 -54.5q159 0 260.5 99t101.5 241q0 141 -96.5 207.5t-247.5 66.5q-191 0 -348 -127l-98 27l233 778h871l-37 -174h-699l-114 -385q101 57 260 57q74 0 142.5 -16.5t128.5 -52t105 -86t71 -123.5t26 -160q0 -109 -40.5 -206 t-112.5 -168.5t-176.5 -113t-227.5 -41.5q-127 0 -235.5 33t-190.5 103t-115 168z" />
<glyph unicode="6" horiz-adv-x="1329" d="M121 434q0 68 14 134.5t36.5 124.5t62.5 120t79 112.5t101 111t113 106t129.5 108t137 106t148.5 109.5l182 -98q-290 -185 -516 -405q72 20 146 20q211 0 339 -124.5t128 -311.5q0 -161 -75.5 -291.5t-208 -204.5t-296.5 -74q-147 0 -264.5 53.5t-186.5 158.5t-69 245z M317 444q0 -126 90.5 -207t245.5 -81q164 0 266.5 105.5t102.5 266.5q0 125 -89.5 205t-242.5 80q-166 0 -269.5 -104.5t-103.5 -264.5z" />
<glyph unicode="7" horiz-adv-x="1124" d="M82 0l895 1272h-723l37 174h969l-29 -137l-914 -1309h-235z" />
<glyph unicode="8" horiz-adv-x="1271" d="M72 360q0 173 95.5 284t266.5 153q-81 45 -124.5 114t-43.5 148q0 185 138 296t348 111q213 0 350 -94.5t137 -259.5q0 -138 -77 -233t-210 -134q94 -55 146.5 -136t52.5 -175q0 -212 -143 -333t-392 -121q-150 0 -272 43.5t-197 131.5t-75 205zM270 393 q0 -116 100 -175.5t251 -59.5q153 0 243 74t90 202q0 82 -46.5 138t-119 80t-165.5 24q-152 0 -252.5 -78t-100.5 -205zM459 1057q0 -92 78 -147.5t223 -55.5q128 0 206 63t78 170q0 100 -77.5 150.5t-202.5 50.5q-137 0 -221 -62.5t-84 -168.5z" />
<glyph unicode="9" horiz-adv-x="1331" d="M199 899q0 161 75 291t207.5 204t296.5 74q147 0 264.5 -53.5t186.5 -158t69 -244.5q0 -68 -14 -134.5t-36.5 -124.5t-62.5 -120t-79 -112.5t-101 -111t-113 -106t-129.5 -108t-137 -106t-148.5 -109.5l-182 98q290 185 516 405q-72 -20 -145 -20q-211 0 -339 124.5 t-128 311.5zM397 918q0 -125 89.5 -205t242.5 -80q166 0 269.5 104t103.5 264q0 126 -90.5 207.5t-245.5 81.5q-164 0 -266.5 -105.5t-102.5 -266.5z" />
<glyph unicode=":" d="M39 102q0 65 41.5 106.5t101.5 41.5q58 0 92.5 -32.5t34.5 -82.5q0 -68 -40.5 -107.5t-106.5 -39.5q-55 0 -89 32t-34 82zM207 895q0 65 41.5 106t101.5 41q58 0 92.5 -32t34.5 -82q0 -68 -41 -108t-106 -40q-55 0 -89 32.5t-34 82.5z" />
<glyph unicode=";" horiz-adv-x="532" d="M-57 -299l184 612h231l-260 -612h-155zM207 895q0 65 41.5 106t101.5 41q58 0 92.5 -32t34.5 -82q0 -68 -41 -108t-106 -40q-55 0 -89 32.5t-34 82.5z" />
<glyph unicode="&#x3c;" horiz-adv-x="1044" d="M92 559l37 164l936 385l-41 -203l-688 -278l571 -281l-39 -172z" />
<glyph unicode="=" horiz-adv-x="1105" d="M59 299l35 172h899l-35 -172h-899zM168 809l35 172h899l-35 -172h-899z" />
<glyph unicode="&#x3e;" horiz-adv-x="1044" d="M35 174l41 203l688 278l-571 281l38 172l777 -385l-37 -164z" />
<glyph unicode="?" horiz-adv-x="1050" d="M168 1159q74 152 200 229.5t279 77.5q186 0 300 -93t114 -253q0 -73 -31.5 -144.5t-80.5 -129t-109 -111t-118 -98t-105 -83t-73 -73t-20 -61.5h-159q-5 52 19.5 102t68 91.5t97.5 83.5t108.5 85.5t100.5 88.5t74.5 102.5t28.5 118.5q0 94 -65.5 146t-165.5 52 q-102 0 -185 -58.5t-118 -156.5zM276 102q0 65 42 106.5t102 41.5q58 0 92.5 -32.5t34.5 -82.5q0 -68 -41 -107.5t-107 -39.5q-55 0 -89 32t-34 82z" />
<glyph unicode="@" horiz-adv-x="1736" d="M90 426q0 185 65 347.5t177.5 279t271 183.5t338.5 67q209 0 372 -80.5t255 -230t92 -343.5q0 -232 -111 -383t-301 -151q-112 0 -183 54t-85 144q-86 -102 -203 -102q-110 0 -182 77.5t-72 196.5q0 149 96.5 260t229.5 111q141 0 190 -123l21 109h176l-78 -426 q-27 -156 107 -156q70 0 121 56t74.5 138t23.5 177q0 153 -75 269t-200 175.5t-280 59.5q-190 0 -342.5 -91t-237 -248t-84.5 -350q0 -158 81.5 -282t219 -190t305.5 -66q158 0 269 51l28 -162q-138 -53 -315 -53q-217 0 -390.5 84t-273.5 240.5t-100 357.5zM700 498 q0 -59 35.5 -95t102.5 -36q72 0 120 58t48 144q0 60 -35.5 96.5t-98.5 36.5q-74 0 -123 -58t-49 -146z" />
<glyph unicode="A" horiz-adv-x="1333" d="M-92 0l848 1446h221l231 -1446h-198l-54 350h-618l-203 -350h-227zM442 532h488l-103 682z" />
<glyph unicode="B" horiz-adv-x="1259" d="M70 0l307 1446h461q101 0 178 -27t121.5 -73.5t66 -102.5t21.5 -119q0 -163 -95.5 -262t-261.5 -133q131 -29 200 -106.5t69 -190.5q0 -118 -39.5 -202.5t-116.5 -134.5t-180 -72.5t-240 -22.5h-491zM309 180h248q89 0 153 11.5t116.5 39.5t79 81.5t26.5 131.5 q0 94 -72 142.5t-209 48.5h-245zM444 815h226q178 0 265 64.5t87 216.5q0 170 -279 170h-204z" />
<glyph unicode="C" horiz-adv-x="1560" d="M162 627q0 178 58 333t161 267t252.5 176.5t324.5 64.5q211 0 374 -102t222 -281l-206 -69q-37 127 -144 198.5t-262 71.5q-127 0 -235.5 -50t-183 -136t-116.5 -204t-42 -251q0 -221 129.5 -353t351.5 -132q316 0 471 299l158 -97q-109 -197 -271.5 -291t-396.5 -94 q-185 0 -330 76t-230 225t-85 349z" />
<glyph unicode="D" horiz-adv-x="1478" d="M70 0l307 1446h366q198 0 348 -68t236 -203.5t86 -322.5q0 -174 -56 -326.5t-163.5 -270.5t-279 -186.5t-386.5 -68.5h-458zM309 180h260q151 0 274.5 54t202.5 146t121.5 210t42.5 250q0 197 -120.5 311.5t-307.5 114.5h-243z" />
<glyph unicode="E" horiz-adv-x="1157" d="M70 0l307 1446h856l-39 -180h-655l-95 -451h572l-39 -180h-571l-97 -455h674l-39 -180h-874z" />
<glyph unicode="F" horiz-adv-x="1097" d="M70 0l307 1446h837l-38 -180h-637l-95 -451h572l-39 -180h-571l-136 -635h-200z" />
<glyph unicode="G" horiz-adv-x="1650" d="M160 627q0 177 63 333t172.5 267.5t264 176t329.5 64.5q212 0 380.5 -102.5t227.5 -280.5l-206 -69q-37 125 -149.5 197.5t-268.5 72.5q-170 0 -310.5 -85t-220.5 -232t-80 -324q0 -219 137.5 -352t360.5 -133q207 0 336 112t184 310h-518l37 180h717l-19 -115 q-143 -670 -776 -670q-138 0 -258 44.5t-210 126t-141.5 205.5t-51.5 274z" />
<glyph unicode="H" horiz-adv-x="1472" d="M70 0l307 1446h201l-134 -631h715l133 631h201l-307 -1446h-201l135 635h-714l-136 -635h-200z" />
<glyph unicode="I" horiz-adv-x="577" d="M80 0l307 1446h201l-307 -1446h-201z" />
<glyph unicode="J" horiz-adv-x="1101" d="M14 303l185 70q47 -213 266 -213q69 0 117.5 21t80.5 67t51 99.5t38 137.5l202 961h201l-207 -977q-18 -87 -42.5 -157t-63.5 -134t-89.5 -107t-122.5 -68.5t-161 -25.5q-95 0 -179 28.5t-141 75.5t-92.5 104.5t-42.5 117.5z" />
<glyph unicode="K" horiz-adv-x="1320" d="M70 0l307 1446h201l-142 -664l707 664h284l-768 -715l521 -731h-236l-520 723l-154 -723h-200z" />
<glyph unicode="L" horiz-adv-x="1114" d="M70 0l307 1446h201l-269 -1266h668l-39 -180h-868z" />
<glyph unicode="M" horiz-adv-x="1800" d="M70 0l307 1446h198l302 -979l743 979h201l-308 -1446h-200l215 1016l-625 -821h-141l-264 880l-228 -1075h-200z" />
<glyph unicode="N" horiz-adv-x="1488" d="M70 0l307 1446h180l518 -1100l234 1100h200l-307 -1446h-180l-518 1102l-234 -1102h-200z" />
<glyph unicode="O" horiz-adv-x="1724" d="M158 618q0 173 64 329.5t173 271t262.5 182t325.5 67.5q295 0 484.5 -179t189.5 -464q0 -171 -64.5 -327.5t-174 -270.5t-263 -182t-324.5 -68q-295 0 -484 178t-189 463zM360 635q0 -211 134 -343t354 -132q169 0 309.5 90.5t218.5 239t78 319.5q0 210 -135 343.5 t-352 133.5q-126 0 -239.5 -52t-193.5 -140t-127 -208t-47 -251z" />
<glyph unicode="P" horiz-adv-x="1232" d="M70 0l307 1446h432q214 0 330 -87t116 -253q0 -117 -32 -212t-98 -169.5t-179.5 -116t-265.5 -41.5h-289l-121 -567h-200zM430 748h256q367 0 367 337q0 85 -72.5 133t-210.5 48h-231z" />
<glyph unicode="Q" horiz-adv-x="1724" d="M158 618q0 173 64 329.5t173 271t262.5 182t325.5 67.5q295 0 484.5 -179t189.5 -464q0 -180 -69 -340.5t-193 -279.5l90 -166l-170 -86l-68 139q-188 -115 -416 -115q-295 0 -484 178t-189 463zM360 635q0 -211 134 -343t354 -132q158 0 293 80l-230 428l164 90 l209 -400q80 90 125 207.5t45 243.5q0 210 -135 343.5t-352 133.5q-126 0 -239.5 -52t-193.5 -140t-127 -208t-47 -251z" />
<glyph unicode="R" horiz-adv-x="1310" d="M70 0l307 1446h452q203 0 310.5 -93.5t107.5 -244.5q0 -125 -42 -225t-136 -171t-231 -91l333 -621h-223l-311 588h-242l-125 -588h-200zM434 768h248q186 0 274 80t88 246q0 172 -256 172h-249z" />
<glyph unicode="S" horiz-adv-x="1173" d="M23 295l188 70q35 -101 131.5 -153t224.5 -52q135 0 216 71t81 191q0 75 -64.5 118.5t-215.5 90.5q-67 21 -117 41t-101.5 51.5t-84.5 68t-53.5 88.5t-20.5 115q0 209 137.5 341t351.5 132q101 0 194 -31t168 -97t105 -156l-190 -74q-32 85 -105 130.5t-180 45.5 q-126 0 -203 -76t-77 -192q0 -37 13.5 -66t33.5 -49t61 -40t78 -33t102 -33q86 -27 147 -55.5t114.5 -69.5t80.5 -97.5t27 -128.5q0 -212 -138.5 -340.5t-361.5 -128.5q-198 0 -341.5 80.5t-200.5 237.5z" />
<glyph unicode="T" horiz-adv-x="1204" d="M225 1266l39 180h1073l-39 -180h-436l-268 -1266h-201l269 1266h-437z" />
<glyph unicode="U" horiz-adv-x="1421" d="M155 372q-6 41 -6 84q0 87 23 185l170 805h201l-172 -815q-21 -95 -21 -170q0 -115 48 -185q79 -116 302 -116q166 0 255 98t132 301l187 887h201l-193 -914q-60 -275 -207.5 -415t-398.5 -140q-158 0 -272 48.5t-173 136.5t-76 210z" />
<glyph unicode="V" horiz-adv-x="1284" d="M215 1446h199l159 -1196l666 1196h227l-821 -1446h-221z" />
<glyph unicode="W" horiz-adv-x="1953" d="M215 1446h197l57 -1172l604 1172h203l90 -1167l551 1167h219l-709 -1446h-208l-97 1147l-604 -1147h-209z" />
<glyph unicode="X" horiz-adv-x="1284" d="M-78 0l647 768l-297 678h215l230 -541l442 541h258l-598 -713l326 -733h-215l-256 596l-494 -596h-258z" />
<glyph unicode="Y" horiz-adv-x="1224" d="M207 1446h209l231 -678l518 678h250l-694 -887l-119 -559h-201l119 565z" />
<glyph unicode="Z" horiz-adv-x="1165" d="M-29 0l33 152l957 1114h-695l39 180h969l-31 -150l-956 -1116h764l-39 -180h-1041z" />
<glyph unicode="[" horiz-adv-x="686" d="M-2 -301l373 1747h473l-37 -166h-283l-303 -1415h287l-37 -166h-473z" />
<glyph unicode="\" horiz-adv-x="702" d="M223 1501h172l197 -1759h-174z" />
<glyph unicode="]" horiz-adv-x="686" d="M-133 -301l37 166h282l303 1415h-286l37 166h473l-373 -1747h-473z" />
<glyph unicode="^" horiz-adv-x="1114" d="M166 774l526 672h127l240 -672h-182l-154 436l-338 -436h-219z" />
<glyph unicode="_" horiz-adv-x="921" d="M-186 -274l34 172h961l-35 -172h-960z" />
<glyph unicode="`" horiz-adv-x="696" d="M381 1501h192l95 -317h-152z" />
<glyph unicode="a" horiz-adv-x="1269" d="M90 453q0 257 148.5 427.5t373.5 170.5q284 0 392 -228l43 205h188l-217 -1028h-189l29 135q-123 -158 -328 -158q-187 0 -313.5 134t-126.5 342zM279 469q0 -139 83 -231.5t218 -92.5q83 0 152.5 34.5t114.5 92t70 132t25 155.5q0 140 -80 232t-215 92 q-110 0 -195.5 -59t-129 -152.5t-43.5 -202.5z" />
<glyph unicode="b" horiz-adv-x="1277" d="M43 0l319 1501h189l-129 -608q58 74 146.5 116t191.5 42q193 0 310.5 -132t117.5 -344q0 -169 -66 -305.5t-185 -214.5t-267 -78q-150 0 -248.5 62t-147.5 166l-43 -205h-188zM336 469q0 -140 82 -232t217 -92q110 0 194.5 59t127 152.5t42.5 202.5q0 140 -81 232 t-216 92q-110 0 -195 -59t-128 -152.5t-43 -202.5z" />
<glyph unicode="c" horiz-adv-x="1118" d="M84 436q0 165 75.5 306t209.5 225t295 84q153 0 265 -70t161 -203l-185 -65q-70 170 -250 170q-110 0 -199.5 -63t-136.5 -160.5t-47 -206.5q0 -138 80.5 -223t216.5 -85q191 0 297 187l158 -94q-80 -132 -200.5 -196.5t-262.5 -64.5q-216 0 -346.5 127.5t-130.5 331.5z " />
<glyph unicode="d" horiz-adv-x="1269" d="M90 453q0 169 65.5 305.5t184 214.5t266.5 78q150 0 248 -62t147 -166l146 678h188l-319 -1501h-189l29 135q-58 -75 -143.5 -116.5t-188.5 -41.5q-186 0 -310 133.5t-124 342.5zM279 469q0 -140 79.5 -232t214.5 -92q110 0 195.5 59t128.5 152.5t43 202.5q0 140 -82 232 t-217 92q-83 0 -152.5 -34.5t-114.5 -92t-70 -132t-25 -155.5z" />
<glyph unicode="e" horiz-adv-x="1202" d="M84 434q0 125 44 238.5t120 197t185 132.5t233 49q209 0 332.5 -124t123.5 -321q0 -76 -16 -170h-838q5 -133 91.5 -212t244.5 -79q184 0 285 150l155 -92q-162 -226 -456 -226q-144 0 -257.5 53.5t-180 158.5t-66.5 245zM289 596h655q-2 126 -79 206.5t-210 80.5 t-230.5 -80t-135.5 -207z" />
<glyph unicode="f" horiz-adv-x="745" d="M115 0l182 862h-182l37 166h180l30 141q37 179 129 267t250 88q33 0 90.5 -8t81.5 -17l-34 -164q-59 23 -148 23q-73 0 -116 -47.5t-72 -182.5l-21 -100h285l-37 -166h-285l-182 -862h-188z" />
<glyph unicode="g" horiz-adv-x="1271" d="M2 -180l188 74q81 -150 314 -150q273 0 344 332l16 82q-58 -75 -144.5 -116.5t-189.5 -41.5q-187 0 -311.5 130.5t-124.5 338.5q0 256 146 419t372 163q150 0 247.5 -62t146.5 -166l43 205h188l-201 -942q-26 -123 -66.5 -213.5t-105 -159t-160 -103t-221.5 -34.5 q-162 0 -292.5 63.5t-188.5 180.5zM283 485q0 -139 80.5 -228t216.5 -89q167 0 265.5 112t98.5 279q0 140 -81 232t-216 92q-166 0 -265 -115t-99 -283z" />
<glyph unicode="h" horiz-adv-x="1208" d="M43 0l319 1501h189l-135 -631q66 87 158.5 134t199.5 47q97 0 169.5 -37t110 -100.5t49.5 -148.5q4 -29 4 -60q0 -58 -15 -121l-125 -584h-189l121 541q17 79 17 139q0 205 -195 205q-144 0 -244.5 -105.5t-138.5 -281.5l-107 -498h-188z" />
<glyph unicode="i" d="M55 0l217 1028h189l-217 -1028h-189zM309 1335q0 56 42.5 94.5t97.5 38.5q51 0 82.5 -30.5t31.5 -75.5q0 -56 -42.5 -95.5t-98.5 -39.5q-50 0 -81.5 31t-31.5 77z" />
<glyph unicode="j" horiz-adv-x="520" d="M-283 -399l35 161q75 -20 133 -20q64 0 100 41.5t60 153.5l231 1091h189l-240 -1128q-34 -165 -112 -244.5t-234 -79.5q-77 0 -162 25zM313 1335q0 56 42.5 94.5t97.5 38.5q51 0 82.5 -30.5t31.5 -75.5q0 -56 -42.5 -95.5t-98.5 -39.5q-50 0 -81.5 31t-31.5 77z" />
<glyph unicode="k" horiz-adv-x="1089" d="M43 0l319 1501h189l-197 -928l518 455h265l-588 -506l412 -522h-216l-405 510l-109 -510h-188z" />
<glyph unicode="l" d="M55 0l318 1501h188l-317 -1501h-189z" />
<glyph unicode="m" horiz-adv-x="1814" d="M43 0l219 1028h189l-29 -139q118 162 295 162q249 0 309 -193q154 193 358 193q199 0 280 -125q51 -79 52 -195q0 -67 -18 -147l-125 -584h-189l123 571q14 64 14 115q0 70 -25 118q-43 84 -173 83q-111 0 -190.5 -84.5t-106.5 -216.5l-123 -586h-188l121 571 q14 66 14 119q0 70 -24 116q-42 81 -177 81q-109 0 -187.5 -86t-107.5 -223l-123 -578h-188z" />
<glyph unicode="n" horiz-adv-x="1198" d="M43 0l219 1028h189l-33 -158q66 87 159.5 134t200.5 47q196 0 273 -125q48 -78 47 -191q0 -69 -17 -151l-125 -584h-188l121 541q18 84 18 146q0 71 -23 115q-44 83 -167 83q-143 0 -240.5 -104.5t-138.5 -282.5l-107 -498h-188z" />
<glyph unicode="o" horiz-adv-x="1253" d="M84 438q0 170 79 311t215.5 221.5t301.5 80.5q219 0 354 -129.5t135 -331.5q0 -170 -79 -311t-215.5 -221.5t-301.5 -80.5q-219 0 -354 129t-135 332zM272 455q0 -137 87 -223.5t229 -86.5q111 0 202.5 60.5t141 158.5t49.5 209q0 137 -87.5 223.5t-227.5 86.5 q-166 0 -280 -125t-114 -303z" />
<glyph unicode="p" horiz-adv-x="1277" d="M-43 -401l303 1429h189l-29 -135q57 74 147.5 116t194.5 42q192 0 309 -132t117 -344q0 -169 -65.5 -305.5t-184 -214.5t-266.5 -78q-150 0 -249.5 62t-148.5 166l-129 -606h-188zM336 469q0 -139 83 -231.5t218 -92.5q83 0 152.5 34.5t114.5 92t70 132t25 155.5 q0 140 -79.5 232t-214.5 92q-110 0 -196 -59t-129.5 -152.5t-43.5 -202.5z" />
<glyph unicode="q" horiz-adv-x="1269" d="M90 453q0 169 66 305.5t185 214.5t267 78q150 0 248.5 -62t147.5 -166l43 205h188l-303 -1429h-189l115 536q-58 -75 -143.5 -116.5t-188.5 -41.5q-187 0 -311.5 133.5t-124.5 342.5zM279 469q0 -140 80.5 -232t215.5 -92q110 0 195.5 59t128.5 152.5t43 202.5 q0 140 -82 232t-217 92q-110 0 -194.5 -59t-127 -152.5t-42.5 -202.5z" />
<glyph unicode="r" horiz-adv-x="770" d="M43 0l219 1028h189l-33 -156q130 179 334 179q38 0 90 -9l-41 -186q-53 16 -117 16q-123 0 -214 -95t-124 -247l-115 -530h-188z" />
<glyph unicode="s" horiz-adv-x="972" d="M2 252l184 55q61 -162 301 -162q89 0 140 42.5t51 113.5q0 46 -47 77t-170 68q-156 46 -235 114.5t-79 172.5q0 144 110.5 231t279.5 87q137 0 246 -55.5t153 -161.5l-182 -62q-25 54 -80 82.5t-156 28.5q-85 0 -135.5 -35.5t-50.5 -99.5q0 -42 46.5 -70.5t164.5 -75.5 l82.5 -33t68.5 -30.5t60.5 -33t44.5 -34.5t36 -42.5t19 -50t8 -61.5q0 -155 -115.5 -247.5t-295.5 -92.5q-102 0 -191.5 28.5t-160.5 92.5t-97 154z" />
<glyph unicode="t" horiz-adv-x="761" d="M115 862l35 166h182l59 279h189l-60 -279h277l-35 -166h-277l-114 -530q-9 -41 -9 -72q0 -46 20 -72q32 -42 138 -41q54 0 96 11l-34 -166q-28 -8 -82 -8q-200 0 -278 86q-52 58 -53 158q0 49 13 108l113 526h-180z" />
<glyph unicode="u" horiz-adv-x="1177" d="M97 263q-4 28 -4 56q0 60 16 125l124 584h189l-121 -541q-18 -84 -19 -146q0 -71 24 -115q44 -83 167 -83q141 0 239 105t136 282l106 498h189l-219 -1028h-189l37 158q-139 -181 -352 -181q-97 0 -168.5 37t-107.5 100.5t-47 148.5z" />
<glyph unicode="v" horiz-adv-x="1083" d="M139 1028h195l137 -819l471 819h219l-616 -1028h-207z" />
<glyph unicode="w" horiz-adv-x="1540" d="M139 1028h187l41 -776l419 776h185l71 -788l367 788h209l-516 -1028h-193l-80 762l-417 -762h-193z" />
<glyph unicode="x" horiz-adv-x="1060" d="M-88 0l498 543l-267 485h209l193 -375l329 375h254l-477 -512l281 -516h-207l-209 406l-352 -406h-252z" />
<glyph unicode="y" horiz-adv-x="1083" d="M115 -401l233 391l-207 1038h193l141 -827l467 827h219l-829 -1429h-217z" />
<glyph unicode="z" horiz-adv-x="991" d="M-10 0l26 125l672 737h-512l35 166h780l-26 -125l-670 -737h549l-35 -166h-819z" />
<glyph unicode="{" horiz-adv-x="759" d="M10 492l33 159h39q91 0 133 37.5t61 128.5l72 336q34 157 116.5 225t237.5 68h216l-37 -166h-158q-84 0 -129 -36t-62 -116l-67 -309q-28 -130 -80.5 -189t-144.5 -77q70 -29 101.5 -97.5t8.5 -181.5l-51 -247q-14 -72 21 -117t94 -45h168l-37 -166h-154 q-166 0 -238.5 85.5t-39.5 250.5l59 289q14 68 -18.5 118t-116.5 50h-27z" />
<glyph unicode="|" horiz-adv-x="567" d="M0 -401l434 2048h180l-434 -2048h-180z" />
<glyph unicode="}" horiz-adv-x="759" d="M-133 -301l37 166h157q84 0 129 35.5t62 115.5l67 310q28 130 81 189t145 77q-155 63 -111 278l51 248q14 72 -21 117t-93 45h-168l37 166h153q166 0 239 -85.5t40 -250.5l-60 -289q-14 -68 19 -118t117 -50h26l-33 -159h-39q-91 0 -133 -37.5t-61 -128.5l-72 -336 q-34 -157 -116.5 -225t-237.5 -68h-215z" />
<glyph unicode="~" horiz-adv-x="1220" d="M139 594q48 107 130.5 165t172.5 58q54 0 113 -26.5t102 -58.5t96 -58.5t97 -26.5q64 0 103 29.5t77 85.5l105 -74q-98 -219 -297 -219q-58 0 -120 27t-105 59t-95 59t-94 27q-61 0 -103 -31.5t-79 -89.5z" />
<glyph unicode="&#xa1;" horiz-adv-x="518" d="M-53 -401l258 1028h147l-178 -1028h-227zM211 909q0 68 41 108t106 40q55 0 89 -32.5t34 -82.5q0 -65 -41.5 -106t-101.5 -41q-58 0 -92.5 32t-34.5 82z" />
<glyph unicode="&#xa2;" horiz-adv-x="1118" d="M131 653q0 167 71 306t201.5 221t292.5 82q80 0 164 -23l111 207h149l-141 -260q108 -73 156 -197l-185 -63q-28 62 -61 92l-352 -653q35 -9 73 -9q192 0 299 183l160 -90q-158 -261 -467 -261q-77 0 -151 19l-109 -203h-149l137 254q-96 60 -147.5 162.5t-51.5 232.5z M319 670q0 -162 99 -248l356 661q-50 11 -86 11q-110 0 -196 -61t-129.5 -156.5t-43.5 -206.5z" />
<glyph unicode="&#xa3;" horiz-adv-x="1220" d="M-31 0l39 180h182l89 414h-164l37 166h161l47 221q47 228 183 357.5t329 129.5q164 0 274 -79.5t138 -210.5l-166 -84q-20 95 -79 143.5t-177 48.5q-237 0 -303 -319l-45 -207h461l-37 -166h-459l-88 -414h692l-39 -180h-1075z" />
<glyph unicode="&#xa4;" horiz-adv-x="1171" d="M31 330l180 149q-43 79 -43 180q0 210 147 357l-96 123l129 100l101 -125q102 51 221 51q155 0 264 -73l188 155l109 -123l-189 -155q45 -82 45 -185q0 -201 -141 -352l98 -123l-131 -102l-98 127q-110 -58 -231 -58q-154 0 -265 78l-180 -147zM344 680q0 -105 68 -172.5 t188 -67.5q132 0 221.5 98t89.5 228q0 102 -69.5 168.5t-190.5 66.5q-126 0 -216.5 -96t-90.5 -225z" />
<glyph unicode="&#xa5;" horiz-adv-x="1224" d="M121 285l33 147h338l28 133l-16 47h-314l33 148h228l-244 686h209l231 -678l518 678h250l-536 -686h229l-33 -148h-313l-41 -53l-27 -127h344l-32 -147h-342l-62 -285h-201l60 285h-340z" />
<glyph unicode="&#xa6;" horiz-adv-x="567" d="M0 -401l174 819h180l-174 -819h-180zM260 827l174 820h180l-174 -820h-180z" />
<glyph unicode="&#xa7;" horiz-adv-x="1122" d="M6 2l184 57q58 -161 279 -161q107 0 174.5 52.5t67.5 139.5q0 64 -57.5 105t-180.5 84q-67 24 -117 49t-95 61t-69 85t-24 110q0 125 67.5 216t180.5 132q-111 83 -111 213q0 166 116 272.5t294 106.5q156 0 265.5 -66t139.5 -166l-182 -61q-64 127 -227 127 q-96 0 -157.5 -56t-61.5 -141q0 -64 55 -101.5t178 -80.5q145 -51 222 -120t77 -181q0 -132 -67.5 -219.5t-184.5 -122.5q123 -80 123 -219q0 -173 -119 -280t-307 -107q-110 0 -202.5 28t-163 90.5t-97.5 153.5zM348 612q0 -66 50.5 -108t164.5 -80q136 2 208.5 52 t72.5 167q0 65 -55 112.5t-183 86.5q-12 3 -22 8q-108 -9 -172 -74.5t-64 -163.5z" />
<glyph unicode="&#xa8;" horiz-adv-x="696" d="M211 1337q0 57 39.5 93t95.5 36q50 0 80.5 -29.5t30.5 -74.5q0 -59 -40.5 -96t-97.5 -37q-50 0 -79 30.5t-29 77.5zM594 1337q0 57 39.5 93t95.5 36q50 0 80.5 -29.5t30.5 -74.5q0 -59 -40.5 -96t-97.5 -37q-50 0 -79 30.5t-29 77.5z" />
<glyph unicode="&#xa9;" horiz-adv-x="1728" d="M158 618q0 137 38 264.5t110.5 233t171 185t227 123.5t270.5 44q200 0 357 -84t242 -230t85 -327q0 -137 -38 -264.5t-110.5 -233t-171 -185t-227 -123.5t-270.5 -44q-200 0 -357 84t-242 230t-85 327zM303 635q0 -154 70.5 -272.5t195 -182t283.5 -63.5 q140 0 263.5 56.5t210 151t137 221.5t50.5 265q0 233 -153.5 375.5t-394.5 142.5q-186 0 -339 -96t-238 -255t-85 -343zM516 662q0 184 131 319t314 135q124 0 212.5 -54.5t122.5 -148.5l-166 -61q-23 50 -69 80.5t-111 30.5q-107 0 -184.5 -86.5t-77.5 -198.5 q0 -91 59 -147t156 -56q132 0 205 129l131 -88q-54 -99 -145 -146.5t-201 -47.5q-169 0 -273 95t-104 245z" />
<glyph unicode="&#xaa;" horiz-adv-x="870" d="M195 1075q0 165 106 274t262 109q94 0 151 -36.5t83 -84.5l22 109h156l-137 -658h-156l23 95q-80 -105 -224 -105q-138 0 -212 84.5t-74 212.5zM365 1085q0 -78 44 -125t132 -47q95 0 157 71.5t62 166.5q0 77 -45.5 124.5t-134.5 47.5q-96 0 -155.5 -69t-59.5 -169z" />
<glyph unicode="&#xab;" horiz-adv-x="1097" d="M55 506l402 477l143 -98l-342 -410l139 -346l-143 -98zM553 506l401 477l144 -98l-342 -410l139 -346l-143 -98z" />
<glyph unicode="&#xac;" horiz-adv-x="1083" d="M141 698l37 172h879l-103 -471h-186l61 299h-688z" />
<glyph unicode="&#xad;" horiz-adv-x="966" d="M109 428l32 172h717l-33 -172h-716z" />
<glyph unicode="&#xae;" horiz-adv-x="1058" d="M184 954q0 216 141 365t355 149q187 0 298.5 -107t111.5 -274q0 -140 -64 -257.5t-178 -186t-254 -68.5q-187 0 -298.5 106.5t-111.5 272.5zM252 965q0 -145 93.5 -236.5t256.5 -91.5q119 0 216.5 62.5t150.5 164t53 217.5q0 143 -93 234.5t-257 91.5q-119 0 -216.5 -63 t-150.5 -163.5t-53 -215.5zM412 788l98 472h182q75 0 114.5 -32t39.5 -87q0 -58 -31.5 -101t-87.5 -53l82 -199h-111l-67 175h-82l-37 -175h-100zM565 1040h82q42 0 69 23t27 59q0 29 -20.5 44.5t-54.5 15.5h-74z" />
<glyph unicode="&#xaf;" horiz-adv-x="696" d="M231 1268l33 149h553l-33 -149h-553z" />
<glyph unicode="&#xb0;" horiz-adv-x="892" d="M219 1130q0 167 107 280.5t278 113.5q159 0 253.5 -92.5t94.5 -221.5q0 -166 -107 -279.5t-278 -113.5q-159 0 -253.5 92t-94.5 221zM389 1139q0 -72 49 -118t133 -46q93 0 152 65.5t59 161.5q0 72 -49 118t-133 46q-93 0 -152 -65.5t-59 -161.5z" />
<glyph unicode="&#xb1;" horiz-adv-x="1146" d="M-6 0l37 172h940l-37 -172h-940zM152 739l36 172h381l84 396h181l-84 -396h378l-36 -172h-379l-84 -395h-180l83 395h-380z" />
<glyph unicode="&#xb2;" horiz-adv-x="737" d="M115 774l24 119l226 151q145 98 223 183.5t78 169.5q0 49 -34 72.5t-91 23.5q-53 0 -101 -27t-80 -77l-118 104q49 67 134 110.5t187 43.5q127 0 204 -66t77 -184q0 -107 -72 -203.5t-240 -202.5l-96 -61h328l-33 -156h-616z" />
<glyph unicode="&#xb3;" horiz-adv-x="747" d="M115 903l137 98q27 -42 78.5 -68t115.5 -26q71 0 121.5 45.5t50.5 118.5q0 59 -43 93t-116 34q-50 0 -82 -16l-39 75l264 216h-330l31 151h569l-24 -121l-252 -207q87 -20 141 -80t54 -149q0 -137 -98 -226t-247 -89q-103 0 -194.5 39t-136.5 112z" />
<glyph unicode="&#xb4;" horiz-adv-x="696" d="M303 1184l225 317h220l-273 -317h-172z" />
<glyph unicode="&#xb5;" horiz-adv-x="1161" d="M-88 -401l303 1429h188l-114 -541q-37 -178 8 -261t168 -83q132 0 230.5 106.5t135.5 280.5l107 498h188l-219 -1028h-188l37 158q-132 -181 -326 -181q-69 0 -130.5 27t-98.5 72l-101 -477h-188z" />
<glyph unicode="&#xb6;" horiz-adv-x="964" d="M193 961q0 142 73 253.5t198 171.5t279 60h232l-393 -1847h-189l223 1050h-34q-185 0 -287 83t-102 229z" />
<glyph unicode="&#xb7;" d="M123 498q0 65 41.5 106t101.5 41q58 0 92.5 -32.5t34.5 -82.5q0 -68 -40.5 -107.5t-106.5 -39.5q-55 0 -89 32.5t-34 82.5z" />
<glyph unicode="&#xb8;" horiz-adv-x="696" d="M-80 -438l31 141q92 -47 184 -47q43 0 68.5 21.5t25.5 56.5q0 30 -32.5 51.5t-102.5 21.5h-35l52 234h151l-33 -150q78 -10 124 -55t46 -110q0 -98 -66 -154.5t-183 -56.5q-133 0 -230 47z" />
<glyph unicode="&#xb9;" horiz-adv-x="589" d="M236 1491l399 143h57l-184 -860h-172l137 639l-217 -76z" />
<glyph unicode="&#xba;" horiz-adv-x="845" d="M195 1067q0 170 101 280.5t267 110.5q157 0 250.5 -83t93.5 -208q0 -170 -101 -280.5t-267 -110.5q-157 0 -250.5 83t-93.5 208zM360 1085q0 -72 50 -116.5t133 -44.5q91 0 144.5 62.5t53.5 162.5q0 73 -49.5 117.5t-132.5 44.5q-91 0 -145 -63t-54 -163z" />
<glyph unicode="&#xbb;" horiz-adv-x="1097" d="M-4 129l342 410l-139 346l143 98l199 -475l-402 -477zM494 129l342 410l-140 346l144 98l198 -475l-401 -477z" />
<glyph unicode="&#xbc;" horiz-adv-x="1708" d="M174 0l1137 1446h202l-1136 -1446h-203zM199 1313l399 143h57l-184 -860h-172l137 639l-217 -76zM883 158l28 135l365 557h197l-361 -555h242l55 252h158l-54 -252h105l-31 -137h-104l-33 -158h-158l33 158h-442z" />
<glyph unicode="&#xbd;" horiz-adv-x="1744" d="M174 0l1137 1446h202l-1136 -1446h-203zM199 1313l399 143h57l-184 -860h-172l137 639l-217 -76zM958 0l25 119l225 151q145 98 223 183.5t78 169.5q0 49 -34 72.5t-91 23.5q-53 0 -100.5 -27.5t-79.5 -77.5l-119 105q48 67 133.5 110t188.5 43q127 0 204 -65.5 t77 -183.5q0 -107 -72 -203.5t-240 -202.5l-96 -61h328l-33 -156h-617z" />
<glyph unicode="&#xbe;" horiz-adv-x="1835" d="M78 725l137 98q27 -42 79 -68t116 -26q71 0 121.5 45.5t50.5 118.5q0 59 -43.5 93t-116.5 34q-50 0 -82 -16l-39 75l264 215h-329l30 152h570l-25 -121l-252 -207q87 -20 141 -80t54 -149q0 -137 -98 -226.5t-246 -89.5q-103 0 -195 39.5t-137 112.5zM301 0l1137 1446 h202l-1136 -1446h-203zM1010 158l28 135l365 557h196l-360 -555h242l55 252h158l-54 -252h105l-31 -137h-104l-33 -158h-158l33 158h-442z" />
<glyph unicode="&#xbf;" horiz-adv-x="968" d="M-8 -78q0 73 31 144.5t80.5 129t109 111t117.5 98.5t105 83.5t73 73t20 61.5h160q5 -52 -19.5 -102t-68.5 -91.5t-97.5 -83.5t-108.5 -85.5t-100.5 -88.5t-74.5 -102.5t-29 -118.5q0 -94 66 -146.5t166 -52.5q102 0 185 58.5t118 156.5l160 -84q-74 -152 -200 -229.5 t-279 -77.5q-186 0 -300 93t-114 253zM506 907q0 68 41 108t106 40q55 0 89 -32.5t34 -82.5q0 -65 -41.5 -106t-101.5 -41q-58 0 -92.5 32t-34.5 82z" />
<glyph unicode="&#xc0;" horiz-adv-x="1333" d="M-92 0l848 1446h221l231 -1446h-198l-54 350h-618l-203 -350h-227zM442 532h488l-103 682zM672 1866h196l99 -301h-152z" />
<glyph unicode="&#xc1;" horiz-adv-x="1333" d="M-92 0l848 1446h221l231 -1446h-198l-54 350h-618l-203 -350h-227zM442 532h488l-103 682zM805 1565l229 301h221l-280 -301h-170z" />
<glyph unicode="&#xc2;" horiz-adv-x="1333" d="M-92 0l848 1446h221l231 -1446h-198l-54 350h-618l-203 -350h-227zM442 532h488l-103 682zM559 1565l315 301h150l182 -301h-166l-110 178l-187 -178h-184z" />
<glyph unicode="&#xc3;" horiz-adv-x="1333" d="M-92 0l848 1446h221l231 -1446h-198l-54 350h-618l-203 -350h-227zM442 532h488l-103 682zM567 1577q19 125 77.5 192.5t156.5 67.5q35 0 65.5 -12.5t52 -30.5t40.5 -36.5t41 -31t44 -12.5q61 0 84 115h146q-19 -125 -77.5 -192.5t-156.5 -67.5q-35 0 -65.5 12.5 t-51.5 30.5t-40 36.5t-41 31t-45 12.5q-61 0 -84 -115h-146z" />
<glyph unicode="&#xc4;" horiz-adv-x="1333" d="M-92 0l848 1446h221l231 -1446h-198l-54 350h-618l-203 -350h-227zM442 532h488l-103 682zM600 1702q0 53 40 90t95 37q50 0 80.5 -29t30.5 -74q0 -55 -40.5 -93t-96.5 -38q-50 0 -79.5 30t-29.5 77zM981 1702q0 53 40 90t95 37q50 0 80.5 -29t30.5 -74q0 -55 -40.5 -93 t-96.5 -38q-50 0 -79.5 30t-29.5 77z" />
<glyph unicode="&#xc5;" horiz-adv-x="1333" d="M-92 0l848 1446h221l231 -1446h-198l-54 350h-618l-203 -350h-227zM442 532h488l-103 682zM690 1704q0 106 72.5 175t175.5 69q100 0 160.5 -52t60.5 -135q0 -106 -71.5 -174.5t-174.5 -68.5q-100 0 -161.5 52t-61.5 134zM807 1714q0 -41 30 -67.5t76 -26.5 q54 0 91.5 37.5t37.5 91.5q0 42 -29.5 69t-76.5 27q-52 0 -90.5 -36.5t-38.5 -94.5z" />
<glyph unicode="&#xc6;" horiz-adv-x="1923" d="M-92 0l1104 1446h987l-39 -180h-657l-95 -451h574l-39 -180h-574l-96 -455h676l-39 -180h-872l71 338h-510l-249 -338h-242zM535 520h413l158 746h-6z" />
<glyph unicode="&#xc7;" horiz-adv-x="1560" d="M162 627q0 178 58 333t161 267t252.5 176.5t324.5 64.5q211 0 374 -102t222 -281l-206 -69q-37 127 -144 198.5t-262 71.5q-127 0 -235.5 -50t-183 -136t-116.5 -204t-42 -251q0 -221 129.5 -353t351.5 -132q316 0 471 299l158 -97q-108 -194 -267 -288t-387 -97l-18 -86 q78 -10 124 -55t46 -110q0 -98 -66 -154.5t-184 -56.5q-132 0 -229 47l30 141q92 -47 185 -47q43 0 68.5 21.5t25.5 56.5q0 30 -32.5 51.5t-102.5 21.5h-35l39 183q-229 39 -369.5 207t-140.5 430z" />
<glyph unicode="&#xc8;" horiz-adv-x="1157" d="M70 0l307 1446h856l-39 -180h-655l-95 -451h572l-39 -180h-571l-97 -455h674l-39 -180h-874zM612 1866h197l98 -301h-151z" />
<glyph unicode="&#xc9;" horiz-adv-x="1157" d="M70 0l307 1446h856l-39 -180h-655l-95 -451h572l-39 -180h-571l-97 -455h674l-39 -180h-874zM745 1565l230 301h221l-281 -301h-170z" />
<glyph unicode="&#xca;" horiz-adv-x="1157" d="M70 0l307 1446h856l-39 -180h-655l-95 -451h572l-39 -180h-571l-97 -455h674l-39 -180h-874zM500 1565l315 301h150l182 -301h-166l-111 178l-186 -178h-184z" />
<glyph unicode="&#xcb;" horiz-adv-x="1157" d="M70 0l307 1446h856l-39 -180h-655l-95 -451h572l-39 -180h-571l-97 -455h674l-39 -180h-874zM541 1702q0 53 40 90t95 37q50 0 80 -29t30 -74q0 -55 -40.5 -93t-96.5 -38q-50 0 -79 30t-29 77zM922 1702q0 53 40 90t95 37q50 0 80 -29t30 -74q0 -55 -40.5 -93t-96.5 -38 q-50 0 -79 30t-29 77z" />
<glyph unicode="&#xcc;" horiz-adv-x="577" d="M80 0l307 1446h201l-307 -1446h-201zM293 1866h196l99 -301h-152z" />
<glyph unicode="&#xcd;" horiz-adv-x="577" d="M80 0l307 1446h201l-307 -1446h-201zM426 1565l229 301h222l-281 -301h-170z" />
<glyph unicode="&#xce;" horiz-adv-x="577" d="M80 0l307 1446h201l-307 -1446h-201zM180 1565l316 301h149l182 -301h-165l-111 178l-186 -178h-185z" />
<glyph unicode="&#xcf;" horiz-adv-x="577" d="M80 0l307 1446h201l-307 -1446h-201zM221 1702q0 53 40 90t95 37q50 0 80.5 -29t30.5 -74q0 -55 -40.5 -93t-96.5 -38q-50 0 -79.5 30t-29.5 77zM602 1702q0 53 40 90t95 37q50 0 80.5 -29t30.5 -74q0 -55 -40.5 -93t-96.5 -38q-50 0 -79.5 30t-29.5 77z" />
<glyph unicode="&#xd0;" horiz-adv-x="1519" d="M25 637l36 166h220l137 643h366q198 0 348 -68t236 -203.5t86 -322.5q0 -174 -56 -326.5t-163.5 -270.5t-279 -186.5t-386.5 -68.5h-458l135 637h-221zM350 180h260q151 0 274.5 54t202.5 146t121.5 210t42.5 250q0 197 -120.5 311.5t-307.5 114.5h-243l-99 -463h398 l-37 -166h-396z" />
<glyph unicode="&#xd1;" horiz-adv-x="1488" d="M70 0l307 1446h180l518 -1100l234 1100h200l-307 -1446h-180l-518 1102l-234 -1102h-200zM637 1577q19 125 77.5 192.5t155.5 67.5q43 0 80 -19t59 -42.5t50 -42.5t55 -19q61 0 84 115h145q-19 -125 -77.5 -192.5t-155.5 -67.5q-35 0 -65.5 12.5t-51.5 30.5t-40.5 36.5 t-41.5 31t-45 12.5q-61 0 -84 -115h-145z" />
<glyph unicode="&#xd2;" horiz-adv-x="1724" d="M158 618q0 173 64 329.5t173 271t262.5 182t325.5 67.5q295 0 484.5 -179t189.5 -464q0 -171 -64.5 -327.5t-174 -270.5t-263 -182t-324.5 -68q-295 0 -484 178t-189 463zM360 635q0 -211 134 -343t354 -132q169 0 309.5 90.5t218.5 239t78 319.5q0 210 -135 343.5 t-352 133.5q-126 0 -239.5 -52t-193.5 -140t-127 -208t-47 -251zM821 1866h197l98 -301h-151z" />
<glyph unicode="&#xd3;" horiz-adv-x="1724" d="M158 618q0 173 64 329.5t173 271t262.5 182t325.5 67.5q295 0 484.5 -179t189.5 -464q0 -171 -64.5 -327.5t-174 -270.5t-263 -182t-324.5 -68q-295 0 -484 178t-189 463zM360 635q0 -211 134 -343t354 -132q169 0 309.5 90.5t218.5 239t78 319.5q0 210 -135 343.5 t-352 133.5q-126 0 -239.5 -52t-193.5 -140t-127 -208t-47 -251zM954 1565l230 301h221l-281 -301h-170z" />
<glyph unicode="&#xd4;" horiz-adv-x="1724" d="M158 618q0 173 64 329.5t173 271t262.5 182t325.5 67.5q295 0 484.5 -179t189.5 -464q0 -171 -64.5 -327.5t-174 -270.5t-263 -182t-324.5 -68q-295 0 -484 178t-189 463zM360 635q0 -211 134 -343t354 -132q169 0 309.5 90.5t218.5 239t78 319.5q0 210 -135 343.5 t-352 133.5q-126 0 -239.5 -52t-193.5 -140t-127 -208t-47 -251zM709 1565l315 301h150l182 -301h-166l-111 178l-186 -178h-184z" />
<glyph unicode="&#xd5;" horiz-adv-x="1724" d="M158 618q0 173 64 329.5t173 271t262.5 182t325.5 67.5q295 0 484.5 -179t189.5 -464q0 -171 -64.5 -327.5t-174 -270.5t-263 -182t-324.5 -68q-295 0 -484 178t-189 463zM360 635q0 -211 134 -343t354 -132q169 0 309.5 90.5t218.5 239t78 319.5q0 210 -135 343.5 t-352 133.5q-126 0 -239.5 -52t-193.5 -140t-127 -208t-47 -251zM717 1577q19 125 77.5 192.5t155.5 67.5q43 0 80 -19t59 -42.5t50 -42.5t55 -19q61 0 84 115h145q-19 -125 -77.5 -192.5t-155.5 -67.5q-35 0 -65.5 12.5t-51.5 30.5t-40.5 36.5t-41.5 31t-45 12.5 q-61 0 -84 -115h-145z" />
<glyph unicode="&#xd6;" horiz-adv-x="1724" d="M158 618q0 173 64 329.5t173 271t262.5 182t325.5 67.5q295 0 484.5 -179t189.5 -464q0 -171 -64.5 -327.5t-174 -270.5t-263 -182t-324.5 -68q-295 0 -484 178t-189 463zM360 635q0 -211 134 -343t354 -132q169 0 309.5 90.5t218.5 239t78 319.5q0 210 -135 343.5 t-352 133.5q-126 0 -239.5 -52t-193.5 -140t-127 -208t-47 -251zM750 1702q0 53 40 90t95 37q50 0 80 -29t30 -74q0 -55 -40.5 -93t-96.5 -38q-50 0 -79 30t-29 77zM1130 1702q0 53 40.5 90t95.5 37q50 0 80 -29t30 -74q0 -55 -40.5 -93t-96.5 -38q-50 0 -79.5 30t-29.5 77z " />
<glyph unicode="&#xd7;" horiz-adv-x="1150" d="M55 293l434 364l-264 349l131 108l262 -346l416 350l117 -125l-428 -360l260 -344l-131 -109l-260 342l-420 -354z" />
<glyph unicode="&#xd8;" horiz-adv-x="1724" d="M72 -57l229 260q-143 173 -143 415q0 173 64 329.5t173 271t262.5 182t325.5 67.5q199 0 358 -86l91 103h221l-178 -203q182 -179 182 -457q0 -171 -64.5 -327.5t-174 -270.5t-263 -182t-324.5 -68q-233 0 -405 115l-133 -149h-221zM360 635q0 -156 78 -277l770 873 q-104 55 -241 55q-126 0 -239.5 -52t-193.5 -140t-127 -208t-47 -251zM557 242q121 -82 291 -82q169 0 309.5 90.5t218.5 239t78 319.5q0 190 -115 321z" />
<glyph unicode="&#xd9;" horiz-adv-x="1421" d="M155 371.5q-17 122.5 17 269.5l170 805h201l-172 -815q-52 -239 27 -355t302 -116q166 0 255 98t132 301l187 887h201l-193 -914q-60 -275 -207.5 -415t-398.5 -140q-158 0 -272 48.5t-173 136t-76 210zM715 1866h196l99 -301h-152z" />
<glyph unicode="&#xda;" horiz-adv-x="1421" d="M155 371.5q-17 122.5 17 269.5l170 805h201l-172 -815q-52 -239 27 -355t302 -116q166 0 255 98t132 301l187 887h201l-193 -914q-60 -275 -207.5 -415t-398.5 -140q-158 0 -272 48.5t-173 136t-76 210zM848 1565l229 301h221l-280 -301h-170z" />
<glyph unicode="&#xdb;" horiz-adv-x="1421" d="M155 371.5q-17 122.5 17 269.5l170 805h201l-172 -815q-52 -239 27 -355t302 -116q166 0 255 98t132 301l187 887h201l-193 -914q-60 -275 -207.5 -415t-398.5 -140q-158 0 -272 48.5t-173 136t-76 210zM602 1565l316 301h149l182 -301h-166l-110 178l-187 -178h-184z " />
<glyph unicode="&#xdc;" horiz-adv-x="1421" d="M155 371.5q-17 122.5 17 269.5l170 805h201l-172 -815q-52 -239 27 -355t302 -116q166 0 255 98t132 301l187 887h201l-193 -914q-60 -275 -207.5 -415t-398.5 -140q-158 0 -272 48.5t-173 136t-76 210zM643 1702q0 53 40 90t95 37q50 0 80.5 -29t30.5 -74 q0 -55 -40.5 -93t-96.5 -38q-50 0 -79.5 30t-29.5 77zM1024 1702q0 53 40 90t95 37q50 0 80.5 -29t30.5 -74q0 -55 -40.5 -93t-96.5 -38q-50 0 -79.5 30t-29.5 77z" />
<glyph unicode="&#xdd;" horiz-adv-x="1224" d="M207 1446h209l231 -678l518 678h250l-694 -887l-119 -559h-201l119 565zM729 1565l229 301h222l-281 -301h-170z" />
<glyph unicode="&#xde;" horiz-adv-x="1232" d="M70 0l307 1446h201l-56 -264h232q214 0 330 -87t116 -253q0 -117 -32 -212t-98 -169.5t-179.5 -116t-265.5 -41.5h-291l-64 -303h-200zM373 483h258q366 0 366 338q0 85 -72 132.5t-210 47.5h-232z" />
<glyph unicode="&#xdf;" horiz-adv-x="1239" d="M115 0l182 862h-182l37 166h180l30 141q37 179 129 267t250 88q33 0 90.5 -8t81.5 -17l-34 -164q-59 23 -148 23q-73 0 -116 -47.5t-72 -182.5l-21 -100h668l-31 -139l-393 -418q143 -12 235.5 -113.5t92.5 -242.5q0 -242 -139 -386.5t-392 -144.5q-156 0 -274 54l84 159 q82 -45 198 -45q161 0 247.5 101.5t86.5 255.5q0 107 -66 166t-173 59q-49 0 -111 -12l-59 77l424 463h-435l-182 -862h-188z" />
<glyph unicode="&#xe0;" horiz-adv-x="1269" d="M90 453q0 257 148.5 427.5t373.5 170.5q284 0 392 -228l43 205h188l-217 -1028h-189l29 135q-123 -158 -328 -158q-187 0 -313.5 134t-126.5 342zM279 469q0 -139 83 -231.5t218 -92.5q83 0 152.5 34.5t114.5 92t70 132t25 155.5q0 140 -80 232t-215 92 q-110 0 -195.5 -59t-129 -152.5t-43.5 -202.5zM575 1501h193l94 -317h-151z" />
<glyph unicode="&#xe1;" horiz-adv-x="1269" d="M90 453q0 257 148.5 427.5t373.5 170.5q284 0 392 -228l43 205h188l-217 -1028h-189l29 135q-123 -158 -328 -158q-187 0 -313.5 134t-126.5 342zM279 469q0 -139 83 -231.5t218 -92.5q83 0 152.5 34.5t114.5 92t70 132t25 155.5q0 140 -80 232t-215 92 q-110 0 -195.5 -59t-129 -152.5t-43.5 -202.5zM700 1184l226 317h219l-273 -317h-172z" />
<glyph unicode="&#xe2;" horiz-adv-x="1269" d="M90 453q0 257 148.5 427.5t373.5 170.5q284 0 392 -228l43 205h188l-217 -1028h-189l29 135q-123 -158 -328 -158q-187 0 -313.5 134t-126.5 342zM279 469q0 -139 83 -231.5t218 -92.5q83 0 152.5 34.5t114.5 92t70 132t25 155.5q0 140 -80 232t-215 92 q-110 0 -195.5 -59t-129 -152.5t-43.5 -202.5zM449 1184l329 317h150l196 -317h-163l-119 190l-201 -190h-192z" />
<glyph unicode="&#xe3;" horiz-adv-x="1269" d="M90 453q0 257 148.5 427.5t373.5 170.5q284 0 392 -228l43 205h188l-217 -1028h-189l29 135q-123 -158 -328 -158q-187 0 -313.5 134t-126.5 342zM279 469q0 -139 83 -231.5t218 -92.5q83 0 152.5 34.5t114.5 92t70 132t25 155.5q0 140 -80 232t-215 92 q-110 0 -195.5 -59t-129 -152.5t-43.5 -202.5zM463 1196q19 125 77.5 192.5t155.5 67.5q43 0 80 -19t59 -42.5t50 -42.5t55 -19q61 0 84 115h145q-19 -125 -77.5 -192.5t-155.5 -67.5q-35 0 -65.5 12.5t-51.5 31t-40.5 36.5t-41.5 30.5t-45 12.5q-61 0 -84 -115h-145z" />
<glyph unicode="&#xe4;" horiz-adv-x="1269" d="M90 453q0 257 148.5 427.5t373.5 170.5q284 0 392 -228l43 205h188l-217 -1028h-189l29 135q-123 -158 -328 -158q-187 0 -313.5 134t-126.5 342zM279 469q0 -139 83 -231.5t218 -92.5q83 0 152.5 34.5t114.5 92t70 132t25 155.5q0 140 -80 232t-215 92 q-110 0 -195.5 -59t-129 -152.5t-43.5 -202.5zM496 1337q0 57 39.5 93t95.5 36q50 0 80 -29.5t30 -74.5q0 -59 -40 -96t-97 -37q-50 0 -79 30.5t-29 77.5zM879 1337q0 57 39.5 93t95.5 36q50 0 80 -29.5t30 -74.5q0 -59 -40 -96t-97 -37q-50 0 -79 30.5t-29 77.5z" />
<glyph unicode="&#xe5;" horiz-adv-x="1269" d="M90 453q0 257 148.5 427.5t373.5 170.5q284 0 392 -228l43 205h188l-217 -1028h-189l29 135q-123 -158 -328 -158q-187 0 -313.5 134t-126.5 342zM279 469q0 -139 83 -231.5t218 -92.5q83 0 152.5 34.5t114.5 92t70 132t25 155.5q0 140 -80 232t-215 92 q-110 0 -195.5 -59t-129 -152.5t-43.5 -202.5zM594 1360q0 106 72.5 175t175.5 69q100 0 160.5 -52t60.5 -135q0 -106 -71.5 -174.5t-174.5 -68.5q-100 0 -161.5 52t-61.5 134zM711 1370q0 -41 30 -67.5t76 -26.5q54 0 91.5 37.5t37.5 91.5q0 42 -29.5 69t-76.5 27 q-52 0 -90.5 -36.5t-38.5 -94.5z" />
<glyph unicode="&#xe6;" horiz-adv-x="1875" d="M20 293q0 167 109.5 270t284.5 103q110 0 214.5 -37t145.5 -88l17 77q29 135 -39 200t-203 65q-157 0 -256 -115l-156 90q68 88 182 140.5t252 52.5q126 0 220.5 -46t140.5 -131q162 177 405 177q210 0 334.5 -124t124.5 -321q0 -76 -16 -170h-840q5 -133 91.5 -212 t244.5 -79q184 0 285 150l155 -92q-162 -226 -456 -226q-141 0 -250.5 53.5t-171.5 151.5q-130 -205 -389 -205q-180 0 -304.5 84t-124.5 232zM207 313q0 -81 65.5 -124.5t178.5 -43.5q114 0 188.5 57.5t97.5 162.5q-33 72 -118 106.5t-187 34.5q-225 0 -225 -193zM961 596 h657q-2 127 -79 207t-212 80q-133 0 -230.5 -80t-135.5 -207z" />
<glyph unicode="&#xe7;" horiz-adv-x="1118" d="M84 436q0 165 75.5 306t209.5 225t295 84q153 0 265 -70t161 -203l-185 -65q-70 170 -250 170q-110 0 -199.5 -63t-136.5 -160.5t-47 -206.5q0 -138 80.5 -223t216.5 -85q191 0 297 187l158 -94q-80 -130 -199 -194.5t-260 -66.5l-18 -86q78 -10 124 -55t46 -110 q0 -98 -66 -154.5t-184 -56.5q-132 0 -229 47l30 141q92 -47 185 -47q43 0 68.5 21.5t25.5 56.5q0 30 -32.5 51.5t-102.5 21.5h-35l41 187q-156 40 -245 157.5t-89 284.5z" />
<glyph unicode="&#xe8;" horiz-adv-x="1202" d="M84 434q0 125 44 238.5t120 197t185 132.5t233 49q209 0 332.5 -124t123.5 -321q0 -76 -16 -170h-838q5 -133 91.5 -212t244.5 -79q184 0 285 150l155 -92q-162 -226 -456 -226q-144 0 -257.5 53.5t-180 158.5t-66.5 245zM289 596h655q-2 126 -79 206.5t-210 80.5 t-230.5 -80t-135.5 -207zM504 1501h192l95 -317h-152z" />
<glyph unicode="&#xe9;" horiz-adv-x="1202" d="M84 434q0 125 44 238.5t120 197t185 132.5t233 49q209 0 332.5 -124t123.5 -321q0 -76 -16 -170h-838q5 -133 91.5 -212t244.5 -79q184 0 285 150l155 -92q-162 -226 -456 -226q-144 0 -257.5 53.5t-180 158.5t-66.5 245zM289 596h655q-2 126 -79 206.5t-210 80.5 t-230.5 -80t-135.5 -207zM629 1184l225 317h219l-272 -317h-172z" />
<glyph unicode="&#xea;" horiz-adv-x="1202" d="M84 434q0 125 44 238.5t120 197t185 132.5t233 49q209 0 332.5 -124t123.5 -321q0 -76 -16 -170h-838q5 -133 91.5 -212t244.5 -79q184 0 285 150l155 -92q-162 -226 -456 -226q-144 0 -257.5 53.5t-180 158.5t-66.5 245zM289 596h655q-2 126 -79 206.5t-210 80.5 t-230.5 -80t-135.5 -207zM377 1184l330 317h149l197 -317h-164l-119 190l-201 -190h-192z" />
<glyph unicode="&#xeb;" horiz-adv-x="1202" d="M84 434q0 125 44 238.5t120 197t185 132.5t233 49q209 0 332.5 -124t123.5 -321q0 -76 -16 -170h-838q5 -133 91.5 -212t244.5 -79q184 0 285 150l155 -92q-162 -226 -456 -226q-144 0 -257.5 53.5t-180 158.5t-66.5 245zM289 596h655q-2 126 -79 206.5t-210 80.5 t-230.5 -80t-135.5 -207zM424 1337q0 57 39.5 93t95.5 36q50 0 80.5 -29.5t30.5 -74.5q0 -59 -40.5 -96t-97.5 -37q-50 0 -79 30.5t-29 77.5zM807 1337q0 57 39.5 93t95.5 36q50 0 80.5 -29.5t30.5 -74.5q0 -59 -40.5 -96t-97.5 -37q-50 0 -79 30.5t-29 77.5z" />
<glyph unicode="&#xec;" d="M55 0l217 1028h189l-217 -1028h-189zM203 1501h188l86 -317h-153z" />
<glyph unicode="&#xed;" d="M55 0l217 1028h189l-217 -1028h-189zM313 1184l217 317h213l-258 -317h-172z" />
<glyph unicode="&#xee;" d="M55 0l217 1028h189l-217 -1028h-189zM133 1184l252 317h143l119 -317h-143l-66 182l-141 -182h-164z" />
<glyph unicode="&#xef;" d="M55 0l217 1028h189l-217 -1028h-189zM143 1337q0 53 40.5 91t95.5 38q50 0 80 -29.5t30 -74.5q0 -55 -40.5 -94t-96.5 -39q-50 0 -79.5 30.5t-29.5 77.5zM485 1337q0 53 40.5 91t95.5 38q50 0 80 -29.5t30 -74.5q0 -55 -40.5 -94t-96.5 -39q-50 0 -79.5 30.5t-29.5 77.5z " />
<glyph unicode="&#xf0;" horiz-adv-x="1249" d="M84 438q0 155 74.5 290.5t205 217.5t283.5 82q249 0 361 -199q-21 158 -199 377l-285 -127l-35 156l213 94q-72 79 -120 127l127 100q85 -82 153 -155l344 151l39 -153l-280 -125q215 -287 215 -594q0 -136 -41.5 -261.5t-117 -224t-193.5 -158t-261 -59.5 q-217 0 -350 126t-133 335zM272 453q0 -134 85 -221t225 -87q166 0 285.5 126t119.5 296q0 134 -88 215.5t-231 81.5q-170 0 -283 -121t-113 -290z" />
<glyph unicode="&#xf1;" horiz-adv-x="1198" d="M43 0l219 1028h189l-33 -158q66 87 159.5 134t200.5 47q196 0 273 -125t30 -342l-125 -584h-188l121 541q39 178 -5 261t-167 83q-143 0 -240.5 -104.5t-138.5 -282.5l-107 -498h-188zM430 1196q19 125 77.5 192.5t156.5 67.5q35 0 65.5 -12.5t52 -31t40.5 -36.5 t41 -30.5t44 -12.5q61 0 84 115h146q-19 -125 -77.5 -192.5t-156.5 -67.5q-35 0 -65.5 12.5t-51.5 31t-40.5 36.5t-41.5 30.5t-45 12.5q-61 0 -84 -115h-145z" />
<glyph unicode="&#xf2;" horiz-adv-x="1253" d="M84 438q0 170 79 311t215.5 221.5t301.5 80.5q219 0 354 -129.5t135 -331.5q0 -170 -79 -311t-215.5 -221.5t-301.5 -80.5q-219 0 -354 129t-135 332zM272 455q0 -137 87 -223.5t229 -86.5q111 0 202.5 60.5t141 158.5t49.5 209q0 137 -87.5 223.5t-227.5 86.5 q-166 0 -280 -125t-114 -303zM535 1493h192l94 -317h-151z" />
<glyph unicode="&#xf3;" horiz-adv-x="1253" d="M84 438q0 170 79 311t215.5 221.5t301.5 80.5q219 0 354 -129.5t135 -331.5q0 -170 -79 -311t-215.5 -221.5t-301.5 -80.5q-219 0 -354 129t-135 332zM272 455q0 -137 87 -223.5t229 -86.5q111 0 202.5 60.5t141 158.5t49.5 209q0 137 -87.5 223.5t-227.5 86.5 q-166 0 -280 -125t-114 -303zM659 1176l226 317h219l-273 -317h-172z" />
<glyph unicode="&#xf4;" horiz-adv-x="1253" d="M84 438q0 170 79 311t215.5 221.5t301.5 80.5q219 0 354 -129.5t135 -331.5q0 -170 -79 -311t-215.5 -221.5t-301.5 -80.5q-219 0 -354 129t-135 332zM272 455q0 -137 87 -223.5t229 -86.5q111 0 202.5 60.5t141 158.5t49.5 209q0 137 -87.5 223.5t-227.5 86.5 q-166 0 -280 -125t-114 -303zM408 1176l329 317h150l196 -317h-163l-119 190l-201 -190h-192z" />
<glyph unicode="&#xf5;" horiz-adv-x="1253" d="M84 438q0 170 79 311t215.5 221.5t301.5 80.5q219 0 354 -129.5t135 -331.5q0 -170 -79 -311t-215.5 -221.5t-301.5 -80.5q-219 0 -354 129t-135 332zM272 455q0 -137 87 -223.5t229 -86.5q111 0 202.5 60.5t141 158.5t49.5 209q0 137 -87.5 223.5t-227.5 86.5 q-166 0 -280 -125t-114 -303zM422 1188q19 125 77.5 192.5t155.5 67.5q43 0 80 -19t59 -42.5t50 -42.5t55 -19q61 0 84 115h145q-19 -125 -77.5 -192.5t-155.5 -67.5q-35 0 -65.5 12.5t-51.5 31t-40.5 36.5t-41.5 30.5t-45 12.5q-61 0 -84 -115h-145z" />
<glyph unicode="&#xf6;" horiz-adv-x="1253" d="M84 438q0 170 79 311t215.5 221.5t301.5 80.5q219 0 354 -129.5t135 -331.5q0 -170 -79 -311t-215.5 -221.5t-301.5 -80.5q-219 0 -354 129t-135 332zM272 455q0 -137 87 -223.5t229 -86.5q111 0 202.5 60.5t141 158.5t49.5 209q0 137 -87.5 223.5t-227.5 86.5 q-166 0 -280 -125t-114 -303zM455 1329q0 57 39.5 93t95.5 36q50 0 80 -29.5t30 -74.5q0 -59 -40 -96t-97 -37q-50 0 -79 30.5t-29 77.5zM838 1329q0 57 39.5 93t95.5 36q50 0 80 -29.5t30 -74.5q0 -59 -40 -96t-97 -37q-50 0 -79 30.5t-29 77.5z" />
<glyph unicode="&#xf7;" horiz-adv-x="1105" d="M113 555l34 172h900l-35 -172h-899zM328 231q0 65 41.5 106.5t101.5 41.5q58 0 92.5 -32.5t34.5 -82.5q0 -68 -40.5 -107.5t-106.5 -39.5q-55 0 -89 32t-34 82zM494 1018q0 65 41.5 106t101.5 41q58 0 92.5 -32t34.5 -82q0 -68 -41 -108t-107 -40q-55 0 -88.5 32.5 t-33.5 82.5z" />
<glyph unicode="&#xf8;" horiz-adv-x="1253" d="M12 -59l178 196q-106 125 -106 301q0 170 79 311t215.5 221.5t301.5 80.5q150 0 270 -68l103 115h204l-190 -213q102 -121 102 -295q0 -170 -79 -311t-215.5 -221.5t-301.5 -80.5q-148 0 -264 64l-90 -100h-207zM272 455q0 -100 47 -174l506 565q-67 37 -159 37 q-166 0 -280 -125t-114 -303zM432 180q68 -35 156 -35q111 0 202.5 60.5t141 158.5t49.5 209q0 99 -43 166z" />
<glyph unicode="&#xf9;" horiz-adv-x="1177" d="M97 263q-11 85 12 181l124 584h189l-121 -541q-39 -178 5 -261t167 -83q141 0 239 105t136 282l106 498h189l-219 -1028h-189l37 158q-139 -181 -352 -181q-97 0 -168.5 37t-107.5 100.5t-47 148.5zM502 1501h192l94 -317h-151z" />
<glyph unicode="&#xfa;" horiz-adv-x="1177" d="M97 263q-11 85 12 181l124 584h189l-121 -541q-39 -178 5 -261t167 -83q141 0 239 105t136 282l106 498h189l-219 -1028h-189l37 158q-139 -181 -352 -181q-97 0 -168.5 37t-107.5 100.5t-47 148.5zM627 1184l225 317h219l-272 -317h-172z" />
<glyph unicode="&#xfb;" horiz-adv-x="1177" d="M97 263q-11 85 12 181l124 584h189l-121 -541q-39 -178 5 -261t167 -83q141 0 239 105t136 282l106 498h189l-219 -1028h-189l37 158q-139 -181 -352 -181q-97 0 -168.5 37t-107.5 100.5t-47 148.5zM375 1184l330 317h149l197 -317h-164l-119 190l-201 -190h-192z" />
<glyph unicode="&#xfc;" horiz-adv-x="1177" d="M97 263q-11 85 12 181l124 584h189l-121 -541q-39 -178 5 -261t167 -83q141 0 239 105t136 282l106 498h189l-219 -1028h-189l37 158q-139 -181 -352 -181q-97 0 -168.5 37t-107.5 100.5t-47 148.5zM422 1337q0 57 39.5 93t95.5 36q50 0 80.5 -29.5t30.5 -74.5 q0 -59 -40.5 -96t-97.5 -37q-50 0 -79 30.5t-29 77.5zM805 1337q0 57 39.5 93t95.5 36q50 0 80.5 -29.5t30.5 -74.5q0 -59 -40.5 -96t-97.5 -37q-50 0 -79 30.5t-29 77.5z" />
<glyph unicode="&#xfd;" horiz-adv-x="1083" d="M115 -401l233 391l-207 1038h193l141 -827l467 827h219l-829 -1429h-217zM586 1184l225 317h219l-272 -317h-172z" />
<glyph unicode="&#xfe;" horiz-adv-x="1277" d="M-43 -401l403 1902h189l-129 -608q58 75 144.5 116.5t189.5 41.5q193 0 313.5 -132.5t120.5 -343.5q0 -169 -68 -306t-188 -214.5t-268 -77.5q-282 0 -390 228l-129 -606h-188zM336 469q0 -140 79 -232t214 -92q111 0 196.5 59t129.5 152.5t44 202.5q0 139 -83.5 231.5 t-219.5 92.5q-83 0 -152.5 -34.5t-114 -92t-69 -132t-24.5 -155.5z" />
<glyph unicode="&#xff;" horiz-adv-x="1083" d="M115 -401l233 391l-207 1038h193l141 -827l467 827h219l-829 -1429h-217zM381 1337q0 57 39.5 93t95.5 36q50 0 80.5 -29.5t30.5 -74.5q0 -59 -40.5 -96t-97.5 -37q-50 0 -79 30.5t-29 77.5zM764 1337q0 57 39.5 93t95.5 36q50 0 80.5 -29.5t30.5 -74.5q0 -59 -40.5 -96 t-97.5 -37q-50 0 -79 30.5t-29 77.5z" />
<glyph unicode="&#x152;" horiz-adv-x="1882" d="M160 627q0 177 61.5 329.5t169.5 260t260 168.5t328 61h131h135h713l-39 -180h-647l-94 -451h563l-39 -180h-563l-97 -455h666l-39 -180h-866q-107 3 -203.5 30t-177 79.5t-139 126t-91 173.5t-32.5 218zM362 645q0 -210 131 -332.5t349 -130.5l229 1082h-108 q-128 0 -239.5 -46.5t-191 -128t-125 -197t-45.5 -247.5z" />
<glyph unicode="&#x153;" horiz-adv-x="2097" d="M86 438q0 171 76.5 311.5t211 221t298.5 80.5q148 0 258.5 -65.5t167.5 -180.5q77 115 197 180.5t266 65.5q209 0 332.5 -124t123.5 -321q0 -76 -16 -170h-838q5 -133 91.5 -212t244.5 -79q184 0 285 150l155 -92q-162 -226 -456 -226q-154 0 -272.5 63.5t-176.5 178.5 q-76 -112 -196.5 -177t-262.5 -65q-219 0 -354 129t-135 332zM274 455q0 -137 87 -223.5t229 -86.5q111 0 200 60.5t136 158t47 209.5q0 137 -87.5 223.5t-228.5 86.5q-165 0 -274 -124.5t-109 -303.5zM1184 596h655q-2 126 -79 206.5t-210 80.5t-230.5 -80t-135.5 -207z " />
<glyph unicode="&#x178;" horiz-adv-x="1224" d="M207 1446h209l231 -678l518 678h250l-694 -887l-119 -559h-201l119 565zM524 1702q0 53 40 90t95 37q50 0 80.5 -29t30.5 -74q0 -55 -40.5 -93t-96.5 -38q-50 0 -79.5 30t-29.5 77zM905 1702q0 53 40 90t95 37q50 0 80.5 -29t30.5 -74q0 -55 -40.5 -93t-96.5 -38 q-50 0 -79.5 30t-29.5 77z" />
<glyph unicode="&#x2c6;" horiz-adv-x="696" d="M154 1184l329 317h150l196 -317h-163l-119 190l-201 -190h-192z" />
<glyph unicode="&#x2dc;" horiz-adv-x="696" d="M166 1196q19 125 77.5 192.5t155.5 67.5q43 0 80 -19t59 -42.5t50 -42.5t55 -19q61 0 84 115h145q-19 -125 -77.5 -192.5t-155.5 -67.5q-35 0 -65.5 12.5t-51.5 31t-40.5 36.5t-41.5 30.5t-45 12.5q-61 0 -84 -115h-145z" />
<glyph unicode="&#x2000;" horiz-adv-x="974" />
<glyph unicode="&#x2001;" horiz-adv-x="1948" />
<glyph unicode="&#x2002;" horiz-adv-x="974" />
<glyph unicode="&#x2003;" horiz-adv-x="1948" />
<glyph unicode="&#x2004;" horiz-adv-x="649" />
<glyph unicode="&#x2005;" horiz-adv-x="487" />
<glyph unicode="&#x2006;" horiz-adv-x="324" />
<glyph unicode="&#x2007;" horiz-adv-x="324" />
<glyph unicode="&#x2008;" horiz-adv-x="243" />
<glyph unicode="&#x2009;" horiz-adv-x="389" />
<glyph unicode="&#x200a;" horiz-adv-x="108" />
<glyph unicode="&#x2010;" horiz-adv-x="966" d="M109 428l32 172h717l-33 -172h-716z" />
<glyph unicode="&#x2011;" horiz-adv-x="966" d="M109 428l32 172h717l-33 -172h-716z" />
<glyph unicode="&#x2012;" horiz-adv-x="966" d="M109 428l32 172h717l-33 -172h-716z" />
<glyph unicode="&#x2013;" horiz-adv-x="1249" d="M88 428l33 172h1040l-33 -172h-1040z" />
<glyph unicode="&#x2014;" horiz-adv-x="2007" d="M86 428l35 172h1800l-35 -172h-1800z" />
<glyph unicode="&#x2018;" d="M195 889l262 612h153l-184 -612h-231z" />
<glyph unicode="&#x2019;" d="M195 889l184 612h231l-262 -612h-153z" />
<glyph unicode="&#x201a;" d="M-57 -299l184 612h231l-260 -612h-155z" />
<glyph unicode="&#x201c;" horiz-adv-x="929" d="M195 889l260 612h151l-178 -612h-233zM612 889l260 612h152l-178 -612h-234z" />
<glyph unicode="&#x201d;" horiz-adv-x="929" d="M195 889l178 612h233l-260 -612h-151zM612 889l179 612h233l-260 -612h-152z" />
<glyph unicode="&#x201e;" horiz-adv-x="929" d="M-57 -299l178 612h233l-260 -612h-151zM360 -299l179 612h233l-260 -612h-152z" />
<glyph unicode="&#x2022;" horiz-adv-x="788" d="M123 481q0 129 83.5 212t203.5 83q115 0 184.5 -64.5t69.5 -164.5q0 -136 -82 -215.5t-213 -79.5q-109 0 -177.5 65t-68.5 164z" />
<glyph unicode="&#x2026;" horiz-adv-x="1548" d="M39 102q0 65 41.5 106.5t101.5 41.5q58 0 92.5 -32.5t34.5 -82.5q0 -68 -40.5 -107.5t-106.5 -39.5q-55 0 -89 32t-34 82zM555 102q0 65 41.5 106.5t101.5 41.5q58 0 92.5 -32.5t34.5 -82.5q0 -68 -40.5 -107.5t-106.5 -39.5q-55 0 -89 32t-34 82zM1071 102 q0 65 41.5 106.5t101.5 41.5q58 0 92.5 -32.5t34.5 -82.5q0 -68 -40.5 -107.5t-106.5 -39.5q-55 0 -89 32t-34 82z" />
<glyph unicode="&#x202f;" horiz-adv-x="389" />
<glyph unicode="&#x2039;" horiz-adv-x="600" d="M55 506l402 477l143 -98l-342 -410l139 -346l-143 -98z" />
<glyph unicode="&#x203a;" horiz-adv-x="600" d="M-4 129l342 410l-139 346l143 98l199 -475l-402 -477z" />
<glyph unicode="&#x205f;" horiz-adv-x="487" />
<glyph unicode="&#x20ac;" horiz-adv-x="1404" d="M72 487l32 148h136q7 101 26 180h-125l33 148h135q88 229 260.5 366t397.5 137q164 0 296.5 -73t186.5 -203l-168 -82q-36 85 -120.5 134.5t-203.5 49.5q-153 0 -267.5 -89t-178.5 -240h532l-32 -148h-547q-22 -90 -25 -180h535l-33 -148h-496q21 -178 112.5 -255.5 t250.5 -77.5q116 0 209.5 55t146.5 151l129 -112q-78 -128 -214 -198t-292 -70q-232 0 -379 138.5t-167 368.5h-170z" />
<glyph unicode="&#x2122;" horiz-adv-x="1468" d="M221 1317l29 129h516l-29 -129h-184l-111 -522h-147l111 522h-185zM741 795l140 651h172l102 -342l258 342h182l-139 -651h-137l94 442l-256 -317h-74l-104 344l-100 -469h-138z" />
<glyph unicode="&#x25fc;" horiz-adv-x="1024" d="M0 0v1024h1024v-1024h-1024z" />
</font>
</defs>
</svg>
