<?xml version="1.0" standalone="no"?>
<!DOCTYPE svg PUBLIC "-//W3C//DTD SVG 1.1//EN" "http://www.w3.org/Graphics/SVG/1.1/DTD/svg11.dtd" >
<svg xmlns="http://www.w3.org/2000/svg" xmlns:xlink="http://www.w3.org/1999/xlink" version="1.1">
<metadata></metadata>
<defs>
<font id="zabal_demoblack_italic" horiz-adv-x="575" >
<font-face units-per-em="2048" ascent="1638" descent="-410" />
<missing-glyph horiz-adv-x="413" />
<glyph unicode="&#xfb01;" horiz-adv-x="1353" d="M842 1032l-64 -295h-203l-159 -737h-344l157 737h-149l63 295h148l31 139q40 182 140.5 267.5t272.5 85.5q48 0 115 -9t102 -20l-59 -254q-50 16 -117 16q-53 0 -78.5 -30t-42.5 -115l-16 -80h203zM1255 1513q82 0 132.5 -46.5t50.5 -116.5q0 -84 -64 -144.5t-151 -60.5 q-80 0 -130.5 48t-50.5 118q0 85 63.5 143.5t149.5 58.5zM1133 0h-355l221 1032h353z" />
<glyph unicode="&#xfb02;" horiz-adv-x="1341" d="M842 1032l-64 -295h-203l-159 -737h-344l157 737h-149l63 295h148l31 139q40 182 140.5 267.5t272.5 85.5q48 0 115 -9t102 -20l-59 -254q-50 16 -117 16q-53 0 -78.5 -30t-42.5 -115l-16 -80h203zM772 0l320 1501h354l-320 -1501h-354z" />
<glyph horiz-adv-x="0" />
<glyph horiz-adv-x="682" />
<glyph horiz-adv-x="0" />
<glyph horiz-adv-x="0" />
<glyph unicode="&#xd;" horiz-adv-x="681" />
<glyph unicode=" "  horiz-adv-x="413" />
<glyph unicode="&#x09;" horiz-adv-x="413" />
<glyph unicode="&#xa0;" horiz-adv-x="413" />
<glyph unicode="!" d="M428 512h-276l151 934h377zM201 -18q-86 0 -138.5 50t-52.5 126q0 99 64 164t157 65q89 0 142 -49t53 -127q0 -97 -62 -163t-163 -66z" />
<glyph unicode="&#x22;" horiz-adv-x="942" d="M461 807h-307l147 694h307zM913 807h-307l148 694h307z" />
<glyph unicode="#" horiz-adv-x="1503" d="M1585 1096l-49 -240h-291l-123 -287h246l-51 -239h-299l-141 -330h-281l141 330h-223l-143 -330h-281l143 330h-233l53 239h283l125 287h-242l49 240h295l152 350h280l-151 -350h223l152 350h280l-151 -350h237zM616 569h226l123 287h-224z" />
<glyph unicode="$" horiz-adv-x="1183" d="M829 1133l-61 -297q77 -26 136 -58t107 -76t73.5 -102.5t25.5 -130.5q0 -225 -151.5 -357t-393.5 -132h-43l-35 -164h-161l39 184q-128 29 -229 93t-156 159l292 184q64 -101 154 -145l63 297q-152 60 -233.5 149t-81.5 228q0 144 71 259t194 178.5t274 63.5h26l35 164 h162l-39 -186q119 -30 203 -98.5t114 -165.5l-305 -152q-26 58 -80 105zM676 1184q-71 0 -119.5 -45t-48.5 -121q0 -43 26.5 -73t81.5 -54l64 293h-4zM639 530l-57 -270q67 3 109 43.5t42 102.5q0 45 -21.5 72.5t-72.5 51.5z" />
<glyph unicode="%" horiz-adv-x="2222" d="M518 557q-176 0 -273.5 92.5t-97.5 261.5q0 150 51 274.5t155.5 203.5t244.5 79q175 0 273 -92.5t98 -261.5q0 -150 -51.5 -275t-156 -203.5t-243.5 -78.5zM760 0h-332l1120 1446h336zM532 813q37 0 66.5 27t46 68.5t25 86t8.5 86.5q0 131 -94 131q-38 0 -67.5 -27 t-46.5 -69t-25.5 -87t-8.5 -87q0 -129 96 -129zM1712 -23q-176 0 -273.5 92.5t-97.5 262.5q0 150 51 274.5t155.5 203.5t244.5 79q175 0 273 -92.5t98 -261.5q0 -150 -51.5 -275.5t-156 -204t-243.5 -78.5zM1726 233q37 0 66.5 27t46 69t25 86.5t8.5 86.5q0 131 -94 131 q-38 0 -67.5 -27t-46.5 -69t-25.5 -87.5t-8.5 -87.5q0 -129 96 -129z" />
<glyph unicode="&#x26;" horiz-adv-x="1423" d="M1100 764h330q-73 -291 -248 -494l102 -137l-217 -174l-98 131q-190 -113 -408 -113t-362 108t-144 286q0 91 30 165t86 126.5t116.5 88t142.5 68.5q-84 134 -84 252q0 117 63.5 209t166 140t223.5 48q177 0 282 -84.5t105 -232.5q0 -52 -13.5 -98.5t-39.5 -84.5t-57 -69 t-75 -60t-84 -50.5t-92 -45.5l179 -237q70 115 96 258zM655 1079q0 -71 45 -157q94 37 143.5 81t49.5 107q0 43 -31 68.5t-82 25.5t-88 -36.5t-37 -88.5zM618 258q104 0 189 49l-238 320q-83 -46 -127.5 -95t-44.5 -114q0 -71 60.5 -115.5t160.5 -44.5z" />
<glyph unicode="'" horiz-adv-x="489" d="M461 807h-307l147 694h307z" />
<glyph unicode="(" horiz-adv-x="813" d="M651 -180l-205 -203q-383 261 -383 748q0 232 100 456t278 403.5t409 291.5l100 -279q-243 -136 -387.5 -363.5t-144.5 -480.5q0 -369 233 -573z" />
<glyph unicode=")" horiz-adv-x="813" d="M-14 -383l-101 281q243 134 388 362t145 481q0 370 -236 574l205 201q383 -255 383 -748q0 -350 -216.5 -664.5t-567.5 -486.5z" />
<glyph unicode="*" horiz-adv-x="919" d="M887 1331l123 -211l-322 -45l236 -149l-121 -213l-182 268v-289h-246l129 309l-225 -139l-121 211l321 45l-235 150l121 211l180 -262l2 284h244l-132 -311z" />
<glyph unicode="+" horiz-adv-x="1163" d="M797 799h354l-64 -299h-352l-78 -363h-313l78 363h-354l63 299h352l78 362h313z" />
<glyph unicode="," d="M172 -301h-264l184 694h377z" />
<glyph unicode="-" horiz-adv-x="884" d="M776 365h-729l59 299h730z" />
<glyph unicode="." d="M201 -18q-86 0 -138.5 50t-52.5 126q0 99 64 164t157 65q89 0 142 -49t53 -127q0 -97 -62 -163t-163 -66z" />
<glyph unicode="/" horiz-adv-x="835" d="M117 -258h-350l931 1759h357z" />
<glyph unicode="0" horiz-adv-x="1452" d="M696 -14q-276 0 -430.5 153t-154.5 426q0 179 51 340.5t143.5 285t234 196.5t310.5 73q275 0 428.5 -151t153.5 -424q0 -180 -50.5 -342t-143 -286t-233 -197.5t-309.5 -73.5zM717 311q85 0 154.5 49t112 128.5t65 174t22.5 191.5q0 135 -61 208t-181 73 q-86 0 -156 -48.5t-113 -127.5t-66 -172t-23 -189q0 -138 63 -212.5t183 -74.5z" />
<glyph unicode="1" horiz-adv-x="872" d="M639 0h-352l217 1018l-291 -113l-41 299l684 256h94z" />
<glyph unicode="2" horiz-adv-x="1228" d="M676 340l-31 -18h459l-68 -322h-1052l53 246l270 176q123 81 217.5 153.5t172.5 149t119.5 150t41.5 139.5t-44 104.5t-120 38.5q-175 0 -276 -192l-228 225q66 115 209 195.5t342 80.5q101 0 186.5 -24.5t152.5 -74.5t105 -132.5t38 -190.5q0 -129 -46 -236t-168 -224.5 t-333 -243.5z" />
<glyph unicode="3" horiz-adv-x="1214" d="M332 1446h932l-54 -256l-460 -320q177 -20 280 -111.5t103 -254.5q0 -160 -77.5 -280.5t-211.5 -183.5t-305 -63q-192 0 -350.5 66.5t-225.5 198.5l311 188q38 -71 112.5 -110t170.5 -39q100 0 161.5 55.5t61.5 142.5q0 77 -65.5 123.5t-171.5 46.5q-79 0 -148 -31 l-102 195l409 313h-438z" />
<glyph unicode="4" horiz-adv-x="1300" d="M1108 555h154l-64 -301h-156l-53 -254h-334l54 254h-699l53 248l621 944h414l-590 -891h266l68 317h334z" />
<glyph unicode="5" horiz-adv-x="1228" d="M1266 1446l-68 -320h-606l-64 -221q80 25 158 25q132 0 236 -42.5t168.5 -133.5t64.5 -219q0 -249 -162.5 -403.5t-417.5 -154.5q-203 0 -364 74.5t-236 218.5l297 174q41 -77 116 -118t173 -41q105 0 172.5 60t67.5 153q0 83 -64 129.5t-172 46.5q-129 0 -256 -88 l-188 47l235 813h910z" />
<glyph unicode="6" horiz-adv-x="1312" d="M768 973q205 0 337 -120t132 -316q0 -248 -160 -404t-415 -156q-258 0 -418 137t-160 369q0 110 39.5 220t108.5 209t170.5 199.5t216 189t255.5 180.5l388 -148q-305 -182 -502 -360h8zM651 285q105 0 170.5 66.5t65.5 172.5q0 86 -59 139.5t-160 53.5q-106 0 -172 -70 t-66 -172q0 -83 60.5 -136.5t160.5 -53.5z" />
<glyph unicode="7" horiz-adv-x="1142" d="M199 1120l69 326h1020l-53 -250l-823 -1196h-424l780 1120h-569z" />
<glyph unicode="8" horiz-adv-x="1282" d="M1004 737q91 -52 139.5 -132t48.5 -175q0 -140 -76 -244t-207 -156.5t-299 -52.5q-116 0 -217.5 25t-180 72.5t-124 124t-45.5 172.5q0 150 90 254.5t238 152.5q-80 46 -123 114.5t-43 149.5q0 192 152.5 309t387.5 117q113 0 208 -23t167.5 -67.5t113 -115.5t40.5 -162 q0 -130 -73.5 -223.5t-196.5 -139.5zM737 1184q-87 0 -147 -45t-60 -117q0 -61 53.5 -98t143.5 -37q85 0 144 46.5t59 117.5q0 61 -54 97t-139 36zM627 283q101 0 164 48.5t63 131.5q0 73 -63.5 116.5t-165.5 43.5q-100 0 -167 -53t-67 -134q0 -71 65.5 -112t170.5 -41z" />
<glyph unicode="9" horiz-adv-x="1312" d="M739 1468q258 0 418 -136.5t160 -368.5q0 -110 -40 -220t-108.5 -209t-170.5 -199.5t-216.5 -189t-255.5 -180.5l-387 148q305 182 502 360h-8q-205 0 -337 120t-132 316q0 248 159.5 403.5t415.5 155.5zM733 729q106 0 172 70t66 172q0 83 -60.5 136.5t-160.5 53.5 q-107 0 -171.5 -66.5t-64.5 -172.5q0 -86 58.5 -139.5t160.5 -53.5z" />
<glyph unicode=":" horiz-adv-x="577" d="M342 645q-86 0 -138 49.5t-52 126.5q0 99 64 164.5t157 65.5q89 0 141.5 -49.5t52.5 -127.5q0 -97 -62 -163t-163 -66zM201 -18q-86 0 -138.5 50t-52.5 126q0 99 64 164t157 65q89 0 142 -49t53 -127q0 -97 -62 -163t-163 -66z" />
<glyph unicode=";" d="M346 645q-88 0 -140 49.5t-52 126.5q0 99 65 164.5t158 65.5q88 0 141 -49.5t53 -127.5q0 -97 -62 -163t-163 -66zM176 -301h-264l184 694h375z" />
<glyph unicode="&#x3c;" horiz-adv-x="1019" d="M119 803l968 395l-69 -350l-580 -223l486 -224l-70 -299l-801 396z" />
<glyph unicode="=" horiz-adv-x="1089" d="M1071 762h-944l59 301h944zM961 236h-945l62 299h942z" />
<glyph unicode="&#x3e;" horiz-adv-x="1019" d="M154 901l69 297l801 -395l-66 -305l-968 -396l69 351l582 223z" />
<glyph unicode="?" horiz-adv-x="1040" d="M655 504h-313q-2 58 40 117t102.5 109t121 98.5t103.5 103t43 104.5q0 62 -37.5 93.5t-96.5 31.5q-60 0 -120.5 -38t-98.5 -122l-231 181q63 121 194.5 200.5t296.5 79.5q199 0 319 -92.5t120 -259.5q0 -65 -22 -125t-58.5 -107t-80.5 -89.5t-90 -79.5t-85.5 -70 t-68.5 -68t-38 -67zM428 -18q-88 0 -140 49.5t-52 126.5q0 99 65 164t158 65q89 0 141.5 -49t52.5 -127q0 -97 -62 -163t-163 -66z" />
<glyph unicode="@" horiz-adv-x="1730" d="M926 1333q218 0 390.5 -79.5t273 -232.5t100.5 -355q0 -161 -52 -291.5t-157 -210.5t-246 -80q-136 0 -211.5 65.5t-81.5 165.5q-70 -98 -182 -98q-108 0 -177 74.5t-69 195.5q0 152 94.5 266.5t227.5 114.5q104 0 149 -71l16 55h252l-88 -420q-13 -64 10 -95.5t74 -31.5 q42 0 76.5 31t55 80.5t31.5 105.5t11 111q0 141 -70 243.5t-185.5 152.5t-260.5 50q-174 0 -305.5 -79t-201.5 -219t-70 -320q0 -151 78 -260t211.5 -163t306.5 -54q81 0 139 20l39 -246q-80 -24 -197 -24q-247 0 -437 81t-299.5 240.5t-109.5 376.5q0 195 64 362.5 t177.5 286t274.5 185.5t349 67zM848 428q50 0 78 46.5t28 105.5q0 79 -86 79q-52 0 -80 -45t-28 -106q0 -38 22.5 -59t65.5 -21z" />
<glyph unicode="A" horiz-adv-x="1396" d="M1282 0h-356l-25 268h-463l-139 -268h-405l794 1446h416zM874 575l-38 478l-242 -478h280z" />
<glyph unicode="B" horiz-adv-x="1280" d="M950 733q118 -34 179 -109.5t61 -185.5q0 -235 -155.5 -336.5t-459.5 -101.5h-561l308 1446h530q113 0 198 -26.5t134.5 -73t73.5 -103.5t24 -123q0 -160 -87.5 -256t-244.5 -131zM766 1143h-143l-58 -279h150q117 0 165 43t48 131q0 48 -41.5 76.5t-120.5 28.5zM444 305 h162q215 0 215 160q0 58 -40 86.5t-132 28.5h-145z" />
<glyph unicode="C" horiz-adv-x="1517" d="M776 -23q-193 0 -341.5 73.5t-235 220t-86.5 345.5q0 176 60 333t165.5 271.5t257.5 181t328 66.5q233 0 401.5 -101.5t224.5 -287.5l-352 -145q-25 93 -104 148t-195 55q-95 0 -174.5 -40t-132.5 -108t-82 -156.5t-29 -185.5q0 -155 88 -246.5t254 -91.5q240 0 357 254 l280 -194q-114 -197 -282 -294.5t-402 -97.5z" />
<glyph unicode="D" horiz-adv-x="1449" d="M526 0h-512l308 1446h436q308 0 490 -159t182 -435q0 -139 -34.5 -264.5t-108 -233.5t-178.5 -186.5t-254.5 -123t-328.5 -44.5zM616 1120l-167 -794h147q110 0 199.5 40.5t146 109.5t87 158t30.5 189q0 142 -80.5 219.5t-218.5 77.5h-144z" />
<glyph unicode="E" horiz-adv-x="1165" d="M979 0h-965l308 1446h950l-70 -326h-592l-51 -243h506l-66 -312h-505l-52 -239h609z" />
<glyph unicode="F" horiz-adv-x="1087" d="M379 0h-365l308 1446h915l-72 -332h-549l-53 -258h477l-69 -330h-479z" />
<glyph unicode="G" horiz-adv-x="1613" d="M795 541l61 286h764l-18 -149q-27 -180 -96.5 -315t-175 -219t-239.5 -125.5t-296 -41.5q-144 0 -268.5 43t-217 123t-145.5 202t-53 271q0 235 106.5 430t297 308.5t425.5 113.5q154 0 284 -44t224.5 -133t132.5 -212l-354 -145q-25 91 -109 147t-200 56 q-127 0 -229 -69t-156 -180.5t-54 -240.5q0 -153 98 -246.5t267 -93.5q136 0 227 60.5t125 173.5h-401z" />
<glyph unicode="H" horiz-adv-x="1452" d="M379 0h-365l308 1446h366l-119 -559h473l119 559h367l-307 -1446h-369l119 553h-473z" />
<glyph unicode="I" horiz-adv-x="634" d="M395 0h-377l310 1446h377z" />
<glyph unicode="J" horiz-adv-x="1118" d="M467 -23q-171 0 -305 76t-199 207l291 186q26 -70 78.5 -106.5t122.5 -36.5q80 0 127 52.5t73 172.5l197 918h365l-197 -930q-59 -282 -199 -410.5t-354 -128.5z" />
<glyph unicode="K" horiz-adv-x="1370" d="M1042 1446h474l-613 -729l350 -717h-405l-320 707l-149 -707h-365l308 1446h364l-131 -621z" />
<glyph unicode="L" horiz-adv-x="1081" d="M928 0h-914l308 1446h366l-235 -1106h546z" />
<glyph unicode="M" horiz-adv-x="1796" d="M373 0h-359l308 1446h432l164 -762l520 762h432l-307 -1446h-359l172 805l-430 -633h-239l-150 692z" />
<glyph unicode="N" horiz-adv-x="1472" d="M373 0h-359l308 1446h356l330 -842l180 842h358l-307 -1446h-356l-330 842z" />
<glyph unicode="O" horiz-adv-x="1669" d="M813 -23q-204 0 -363 80t-248 227t-89 339q0 234 109 427.5t301 305.5t425 112q201 0 359 -78.5t248 -225.5t90 -339q0 -176 -63.5 -333t-173.5 -270t-265 -179t-330 -66zM838 309q97 0 180 39.5t139 106.5t87.5 156t31.5 188q0 155 -98.5 246.5t-255.5 91.5 q-128 0 -229.5 -66.5t-156.5 -176.5t-55 -241q0 -155 95.5 -249.5t261.5 -94.5z" />
<glyph unicode="P" horiz-adv-x="1243" d="M379 0h-365l308 1446h505q236 0 349.5 -97.5t113.5 -265.5q0 -276 -155 -432.5t-451 -156.5h-199zM621 1126l-70 -323h149q220 0 220 203q0 59 -39.5 89.5t-130.5 30.5h-129z" />
<glyph unicode="Q" horiz-adv-x="1669" d="M1645 825q0 -179 -63 -334.5t-179 -271.5l92 -164l-252 -145l-76 143q-164 -76 -354 -76q-204 0 -363 80t-248 227t-89 339q0 234 109 427.5t301 305.5t425 112q201 0 359 -78.5t248 -225.5t90 -339zM481 653q0 -155 95.5 -249.5t261.5 -94.5q69 0 131 21l-170 329 l243 142l148 -301q86 131 86 299q0 155 -98.5 246.5t-255.5 91.5q-128 0 -229.5 -66.5t-156.5 -176.5t-55 -241z" />
<glyph unicode="R" horiz-adv-x="1329" d="M1282 1085q0 -164 -79 -289.5t-238 -177.5l262 -618h-391l-209 528h-135l-113 -528h-365l308 1446h497q231 0 347 -93t116 -268zM760 1126h-142l-67 -317h137q219 0 219 211q0 106 -147 106z" />
<glyph unicode="S" horiz-adv-x="1181" d="M565 -20q-189 0 -349.5 70t-235.5 202l305 186q42 -80 115 -115.5t157 -35.5q77 0 125.5 34t48.5 99q0 44 -46 80t-148 71q-84 30 -146.5 63.5t-113.5 80.5t-77 109.5t-26 140.5q0 144 71 259t194 178.5t274 63.5q185 0 322.5 -76.5t178.5 -209.5l-315 -164 q-56 141 -207 141q-71 0 -114 -41.5t-43 -114.5q0 -52 50.5 -88t172.5 -73q165 -54 257.5 -142.5t92.5 -228.5q0 -225 -150.5 -357t-392.5 -132z" />
<glyph unicode="T" horiz-adv-x="1220" d="M684 0h-365l236 1114h-385l72 332h1134l-71 -332h-385z" />
<glyph unicode="U" horiz-adv-x="1388" d="M680 -23q-330 0 -474.5 175t-80.5 477l174 817h365l-177 -840q-32 -152 14 -224.5t189 -72.5q108 0 161.5 63t80.5 189l190 885h365l-199 -932q-115 -537 -608 -537z" />
<glyph unicode="V" horiz-adv-x="1351" d="M639 430l487 1016h420l-764 -1446h-430l-149 1446h377z" />
<glyph unicode="W" horiz-adv-x="2021" d="M1401 522l395 924h422l-698 -1446h-371l-62 834l-432 -834h-370l-82 1446h381l6 -950l461 950h319z" />
<glyph unicode="X" horiz-adv-x="1376" d="M352 0h-454l604 786l-260 660h383l147 -430l299 430h455l-547 -709l278 -737h-383l-172 483z" />
<glyph unicode="Y" horiz-adv-x="1327" d="M737 0h-364l108 512l-280 934h383l129 -559l360 559h451l-676 -932z" />
<glyph unicode="Z" horiz-adv-x="1200" d="M279 1446h1046l-57 -270l-729 -844h581l-71 -332h-1094l57 270l729 844h-534z" />
<glyph unicode="[" horiz-adv-x="724" d="M514 -350h-577l391 1839h577l-63 -295h-236l-266 -1251h238z" />
<glyph unicode="\" horiz-adv-x="835" d="M514 1501l229 -1759h-315l-227 1759h313z" />
<glyph unicode="]" horiz-adv-x="724" d="M420 -350h-578l64 293h235l267 1251h-238l63 295h578z" />
<glyph unicode="^" horiz-adv-x="1169" d="M479 709h-381l570 737h229l256 -737h-319l-105 358z" />
<glyph unicode="_" horiz-adv-x="937" d="M770 -371h-975l60 299h974z" />
<glyph unicode="`" horiz-adv-x="821" d="M786 1141h-266l-143 360h330z" />
<glyph unicode="a" horiz-adv-x="1226" d="M401 -23q-160 0 -255 116.5t-95 320.5q0 95 20.5 187.5t63 174.5t101.5 144t141 98.5t176 36.5q109 0 189.5 -44.5t121.5 -131.5l33 153h344l-221 -1032h-342l33 141q-131 -164 -310 -164zM569 283q107 0 169.5 79.5t62.5 200.5q0 85 -47.5 136t-128.5 51 q-104 0 -169 -78t-65 -195q0 -88 47.5 -141t130.5 -53z" />
<glyph unicode="b" horiz-adv-x="1232" d="M682 -23q-107 0 -190 44.5t-123 130.5l-33 -152h-344l319 1501h344l-120 -565q128 119 278 119q171 0 271 -117t100 -320q0 -120 -34.5 -234t-97 -205t-159 -146.5t-211.5 -55.5zM610 283q102 0 167 77t65 195q0 86 -47.5 140.5t-128.5 54.5q-103 0 -167.5 -81 t-64.5 -200q0 -85 49 -135.5t127 -50.5z" />
<glyph unicode="c" horiz-adv-x="1099" d="M565 -23q-228 0 -370 126.5t-142 334.5q0 174 74 314.5t209 221.5t307 81q163 0 287.5 -77.5t175.5 -199.5l-320 -135q-46 107 -159 107q-109 0 -171.5 -79.5t-62.5 -197.5q0 -88 49 -140t138 -52q124 0 200 149l254 -186q-150 -267 -469 -267z" />
<glyph unicode="d" horiz-adv-x="1226" d="M399 -23q-158 0 -253 117t-95 320q0 95 20.5 187.5t63 174.5t101 144t140 98.5t175.5 36.5q109 0 189.5 -44.5t121.5 -131.5l133 622h344l-319 -1501h-344l33 141q-72 -90 -147 -127t-163 -37zM569 283q106 0 168 79.5t62 200.5q0 85 -47.5 136t-126.5 51 q-105 0 -169.5 -77.5t-64.5 -195.5q0 -88 46.5 -141t131.5 -53z" />
<glyph unicode="e" horiz-adv-x="1169" d="M1106 610q0 -104 -29 -190h-686q8 -74 65 -117t160 -43q126 0 242 98l182 -204q-149 -177 -440 -177q-240 0 -391.5 135t-151.5 339q0 172 65.5 307.5t197 216t311.5 80.5q216 0 345.5 -124t129.5 -321zM621 799q-80 0 -133.5 -45.5t-77.5 -122.5h374q-13 168 -163 168z " />
<glyph unicode="f" horiz-adv-x="778" d="M776 1257q-53 0 -78.5 -30t-42.5 -115l-16 -80h203l-64 -295h-203l-159 -737h-344l157 737h-149l63 295h148l31 139q40 182 140.5 267.5t272.5 85.5q48 0 115 -9t102 -20l-59 -254q-50 16 -117 16z" />
<glyph unicode="g" horiz-adv-x="1228" d="M444 -424q-184 0 -312 60t-181 167l295 150q66 -103 221 -103q86 0 143.5 49.5t77.5 145.5l23 113q-66 -77 -133.5 -112.5t-153.5 -35.5q-167 0 -267 115.5t-100 318.5q0 120 33 229t94 194.5t157 136.5t214 51q108 0 189 -45t122 -131l31 153h344l-199 -932 q-58 -268 -201.5 -396t-396.5 -128zM575 313q105 0 165.5 66.5t60.5 183.5q0 84 -49 135.5t-125 51.5q-103 0 -166.5 -64.5t-63.5 -177.5q0 -86 49.5 -140.5t128.5 -54.5z" />
<glyph unicode="h" horiz-adv-x="1200" d="M336 0h-344l319 1501h346l-129 -602q124 156 320 156q186 0 255.5 -129t22.5 -351l-125 -575h-344l113 524q49 228 -108 228q-166 0 -218 -238z" />
<glyph unicode="i" d="M444 1145q-80 0 -130 47.5t-50 118.5q0 85 63.5 143.5t149.5 58.5q82 0 132 -46.5t50 -116.5q0 -84 -64 -144.5t-151 -60.5zM354 0h-354l221 1032h352z" />
<glyph unicode="j" horiz-adv-x="569" d="M440 1145q-80 0 -130 47.5t-50 118.5q0 85 63.5 143.5t149.5 58.5q82 0 132 -46.5t50 -116.5q0 -84 -64 -144.5t-151 -60.5zM-82 -424q-100 0 -207 29l68 264q40 -14 90 -14q55 0 84.5 36t48.5 127l217 1014h352l-229 -1081q-39 -181 -145.5 -278t-278.5 -97z" />
<glyph unicode="k" horiz-adv-x="1150" d="M817 1032h440l-477 -504l273 -528h-369l-246 485l-102 -485h-344l319 1501h344l-190 -897z" />
<glyph unicode="l" horiz-adv-x="563" d="M348 0h-354l319 1501h355z" />
<glyph unicode="m" horiz-adv-x="1785" d="M1407 1055q202 0 277 -127t26 -353l-123 -575h-344l113 524q12 67 11 117.5t-29 80.5t-83 30q-65 0 -111 -54.5t-67 -148.5l-116 -549h-345l113 526q48 228 -98 228q-64 0 -109.5 -54.5t-66.5 -146.5l-117 -553h-344l219 1032h338l-23 -102q119 125 271 125 q213 0 264 -160q155 160 344 160z" />
<glyph unicode="n" horiz-adv-x="1191" d="M338 0h-344l219 1032h338l-29 -133q59 73 147 114.5t189 41.5q184 0 245.5 -126t12.5 -354l-125 -575h-344l115 524q25 116 0.5 172t-100.5 56q-78 0 -132.5 -60t-80.5 -178z" />
<glyph unicode="o" horiz-adv-x="1218" d="M563 -23q-221 0 -365.5 128.5t-144.5 336.5q0 130 46.5 244t126.5 195t191.5 127.5t237.5 46.5q222 0 366 -128t144 -337q0 -128 -46.5 -242t-126 -195.5t-191.5 -128.5t-238 -47zM586 283q109 0 175 80.5t66 195.5q0 87 -52.5 139t-143.5 52q-106 0 -173 -80.5 t-67 -196.5q0 -85 53 -137.5t142 -52.5z" />
<glyph unicode="p" horiz-adv-x="1234" d="M252 -401h-344l303 1433h344l-20 -96q125 119 278 119q176 0 273.5 -116t97.5 -321q0 -96 -20.5 -188.5t-63 -174.5t-101.5 -144t-141 -98t-176 -36q-108 0 -190.5 44.5t-122.5 130.5zM610 283q106 0 169 76.5t63 195.5q0 87 -46 141t-130 54q-107 0 -169.5 -80.5 t-62.5 -200.5q0 -86 47 -136t129 -50z" />
<glyph unicode="q" horiz-adv-x="1226" d="M936 -401h-344l119 542q-72 -90 -147 -127t-163 -37q-159 0 -255.5 117t-96.5 320q0 95 21 187.5t64 174.5t102 144t141 98.5t176 36.5q109 0 189.5 -44.5t121.5 -131.5l33 153h344zM571 283q106 0 168 79.5t62 200.5q0 85 -47.5 136t-126.5 51q-106 0 -171 -77.5 t-65 -195.5q0 -88 47.5 -141t132.5 -53z" />
<glyph unicode="r" horiz-adv-x="813" d="M338 0h-344l219 1032h338l-29 -133q120 156 283 156q36 0 80 -11l-86 -354q-79 23 -140 23q-92 0 -144 -61.5t-79 -186.5z" />
<glyph unicode="s" horiz-adv-x="983" d="M446 -23q-352 0 -477 230l254 141q39 -60 98.5 -90.5t127.5 -30.5q44 0 73 21t29 57q0 28 -34 50.5t-124 54.5q-61 21 -107 43.5t-91.5 56.5t-70 82.5t-24.5 107.5q0 156 121 255.5t303 99.5q137 0 262.5 -53t182.5 -150l-264 -150q-60 91 -181 91q-43 0 -71.5 -17.5 t-28.5 -52.5q0 -32 66 -65q29 -14 108 -46q148 -59 218.5 -121t70.5 -165q0 -162 -121 -255.5t-320 -93.5z" />
<glyph unicode="t" horiz-adv-x="817" d="M803 737h-232l-67 -311q-18 -89 5.5 -130.5t100.5 -41.5q44 0 97 16l-45 -268q-67 -22 -152 -22q-229 0 -315.5 102.5t-40.5 312.5l73 342h-147l63 295h148l51 240h344l-51 -240h229z" />
<glyph unicode="u" horiz-adv-x="1175" d="M334 -23q-93 0 -157 34.5t-93.5 97.5t-34 151t20.5 195l125 577h344l-113 -526q-26 -116 -4 -171.5t100 -55.5q161 0 213 237l107 516h344l-217 -1032h-340l30 131q-128 -154 -325 -154z" />
<glyph unicode="v" horiz-adv-x="1138" d="M524 373l312 659h407l-598 -1032h-364l-164 1032h356z" />
<glyph unicode="w" horiz-adv-x="1599" d="M1081 446l240 586h381l-506 -1032h-330l-41 598l-307 -598h-330l-71 1032h342l-6 -626l319 626h277z" />
<glyph unicode="x" horiz-adv-x="1128" d="M315 0h-419l432 557l-207 475h358l107 -311l207 311h424l-418 -526l215 -506h-357l-120 317z" />
<glyph unicode="y" horiz-adv-x="1138" d="M520 340l316 692h405l-799 -1433h-370l227 403l-180 1030h354z" />
<glyph unicode="z" horiz-adv-x="1001" d="M182 1032h844l-43 -203l-491 -536h409l-63 -293h-887l43 201l489 536h-364z" />
<glyph unicode="{" horiz-adv-x="802" d="M768 1489h215l-63 -295h-134q-111 0 -139 -127l-43 -205q-32 -145 -100.5 -217.5t-194.5 -99.5q92 -42 135 -123.5t21 -198.5l-29 -151q-11 -58 13 -93.5t77 -35.5h129l-63 -293h-109q-100 0 -176.5 20t-122.5 55t-73.5 83t-29.5 105t9 120l45 221q17 80 -16 132t-103 52 h-28l53 256h33q83 0 127.5 46.5t64.5 138.5l51 235q43 203 145 289t306 86z" />
<glyph unicode="|" horiz-adv-x="598" d="M264 -401h-319l434 2048h319z" />
<glyph unicode="}" horiz-adv-x="802" d="M807 698h29l-54 -256h-32q-83 0 -128 -46t-65 -138l-51 -235q-43 -202 -145 -287.5t-306 -85.5h-213l64 293h131q111 0 139 127l43 204q32 145 100.5 218.5t194.5 99.5q-92 42 -135 123t-21 198l29 152q11 58 -13 93.5t-77 35.5h-127l63 295h107q100 0 176.5 -20 t122.5 -55.5t73.5 -84t29.5 -105.5t-9 -120l-45 -221q-17 -80 16 -132.5t103 -52.5z" />
<glyph unicode="~" horiz-adv-x="1183" d="M213 487l-117 117q60 137 155.5 207t207.5 70q49 0 94 -16.5t80 -39.5t68 -46t71 -39.5t76 -16.5q59 0 99.5 25t78.5 67l119 -115q-56 -139 -145 -211.5t-195 -72.5q-56 0 -115 25.5t-101.5 56.5t-96.5 56.5t-101 25.5q-57 0 -98 -25t-80 -68z" />
<glyph unicode="&#xa1;" d="M379 1063q86 0 138 -49.5t52 -126.5q0 -99 -64 -164.5t-157 -65.5q-89 0 -141.5 49.5t-52.5 127.5q0 97 62 163t163 66zM152 532h274l-152 -933h-374z" />
<glyph unicode="&#xa2;" horiz-adv-x="1091" d="M621 467q149 0 221 168l231 -166q-140 -279 -475 -279q-82 0 -156 19l-112 -209h-166l143 264q-99 61 -153 163.5t-54 238.5q0 126 44.5 237.5t121.5 191t185 125.5t231 46q76 0 154 -19l106 199h168l-139 -258q109 -72 159 -184l-290 -123q-14 23 -19 30l-237 -442 q12 -2 37 -2zM408 682q0 -87 47 -143l241 448q-10 2 -30 2q-115 0 -186.5 -88.5t-71.5 -218.5z" />
<glyph unicode="&#xa3;" horiz-adv-x="1239" d="M973 571h-393l-56 -264h627l-64 -307h-1134l65 307h156l55 264h-149l59 273h148l30 141q49 233 193.5 358t351.5 125q170 0 293 -70t178 -204l-297 -164q-18 56 -59 84.5t-119 28.5q-82 0 -130.5 -52t-70.5 -155l-20 -92h393z" />
<glyph unicode="&#xa4;" horiz-adv-x="1159" d="M1231 1081l-172 -141q35 -72 35 -162q0 -194 -127 -334l88 -112l-176 -144l-97 125q-95 -39 -198 -39q-135 0 -242 58l-186 -154l-142 178l170 140q-34 72 -34 163q0 200 135 345l-92 116l174 144l106 -136q94 33 186 33q138 0 242 -55l189 154zM444 688q0 -65 43.5 -104 t116.5 -39q86 0 140.5 61t54.5 146q0 64 -44 102.5t-118 38.5q-78 0 -135.5 -59t-57.5 -146z" />
<glyph unicode="&#xa5;" horiz-adv-x="1327" d="M1073 1446h451l-516 -711h200l-37 -176h-290l-33 -45l-17 -72h316l-39 -176h-313l-58 -266h-364l57 266h-315l39 176h313l14 70l-14 47h-291l39 176h199l-213 711h383l129 -559z" />
<glyph unicode="&#xa6;" horiz-adv-x="598" d="M524 827h-319l174 820h319zM264 -401h-319l174 819h319z" />
<glyph unicode="&#xa7;" horiz-adv-x="1112" d="M774 989q80 -34 130.5 -62.5t89.5 -65.5t56 -82.5t17 -106.5q0 -115 -65.5 -206.5t-170.5 -135.5q91 -88 91 -217q0 -181 -121 -298.5t-336 -117.5q-179 0 -317.5 61t-208.5 179l294 174q34 -62 93.5 -93.5t132.5 -31.5q61 0 100 24.5t39 69.5q0 38 -39 64t-149 75 q-155 70 -226 141.5t-71 184.5q0 119 67 208.5t176 125.5q-106 83 -106 227q0 174 130 296t329 122q171 0 292.5 -68t169.5 -186l-294 -152q-52 117 -168 117q-52 0 -87.5 -28.5t-35.5 -76.5q0 -40 40 -67t148 -74zM391 606q0 -47 51.5 -83.5t188.5 -82.5q60 7 105.5 46 t45.5 106q0 40 -43.5 81t-152.5 89q-82 -3 -138.5 -49t-56.5 -107z" />
<glyph unicode="&#xa8;" horiz-adv-x="821" d="M342 1155q-76 0 -121 45.5t-45 110.5q0 82 58 136t139 54q75 0 121.5 -42.5t46.5 -108.5q0 -82 -59 -138.5t-140 -56.5zM791 1155q-74 0 -119 45.5t-45 110.5q0 82 57.5 136t138.5 54q74 0 121 -43t47 -108q0 -82 -59.5 -138.5t-140.5 -56.5z" />
<glyph unicode="&#xa9;" horiz-adv-x="1638" d="M797 -23q-150 0 -278.5 50t-217 136t-138.5 205t-50 255q0 171 60.5 325.5t166.5 269.5t260 182.5t332 67.5q150 0 278 -49.5t215.5 -136t137 -205t49.5 -254.5q0 -171 -60 -325.5t-165 -269.5t-258.5 -183t-331.5 -68zM805 139q135 0 255 54t203.5 144.5t132 212 t48.5 253.5q0 224 -145.5 364t-376.5 140q-134 0 -254 -54t-204.5 -144.5t-133.5 -212t-49 -253.5q0 -224 146.5 -364t377.5 -140zM850 311q-185 0 -290 95t-105 251q0 195 130 331t322 136q136 0 235 -59.5t128 -149.5l-252 -104q-40 72 -119 72q-74 0 -124 -55.5 t-50 -139.5q0 -58 37.5 -96.5t99.5 -38.5q91 0 152 98l196 -137q-111 -203 -360 -203z" />
<glyph unicode="&#xaa;" horiz-adv-x="899" d="M426 721q-117 0 -186.5 84.5t-69.5 218.5q0 186 101.5 312t263.5 126q138 0 204 -108l19 92h278l-149 -711h-279l21 88q-35 -46 -88.5 -74t-114.5 -28zM553 946q63 0 105 49.5t42 124.5q0 53 -29.5 84t-86.5 31q-69 0 -110.5 -51t-41.5 -121q0 -54 31 -85.5t90 -31.5z " />
<glyph unicode="&#xab;" horiz-adv-x="1226" d="M518 139l-268 -135l-223 512l440 510l221 -201l-309 -346zM1071 139l-268 -135l-225 512l442 510l219 -201l-307 -346z" />
<glyph unicode="&#xac;" horiz-adv-x="1177" d="M1067 326h-332l72 344h-703l64 299h1034z" />
<glyph unicode="&#xad;" horiz-adv-x="884" d="M776 365h-729l59 299h730z" />
<glyph unicode="&#xae;" horiz-adv-x="1009" d="M651 1468q190 0 303 -107t113 -274q0 -142 -64 -259t-178.5 -185t-255.5 -68q-190 0 -301.5 107.5t-111.5 275.5q0 218 141 364t354 146zM580 668q110 0 200.5 57t139.5 150t49 200q0 133 -87 217t-241 84q-109 0 -198 -56t-138 -149t-49 -202q0 -134 86 -217.5 t238 -83.5zM836 1145q0 -53 -28 -91t-79 -50l68 -207h-150l-51 164h-49l-35 -164h-147l98 467h219q73 0 113.5 -34.5t40.5 -84.5zM631 1149h-51l-21 -98h53q34 0 53 16.5t19 42.5q0 39 -53 39z" />
<glyph unicode="&#xaf;" horiz-adv-x="821" d="M868 1188h-630l55 254h631z" />
<glyph unicode="&#xb0;" horiz-adv-x="909" d="M561 756q-175 0 -276 96.5t-101 243.5q0 119 51 215.5t150.5 154.5t228.5 58q175 0 276 -96.5t101 -243.5q0 -182 -118.5 -305t-311.5 -123zM575 991q68 0 113 48.5t45 119.5q0 57 -34 92t-99 35q-69 0 -113.5 -47.5t-44.5 -118.5q0 -57 34 -93t99 -36z" />
<glyph unicode="&#xb1;" horiz-adv-x="1163" d="M928 1397l-74 -346h350l-63 -301h-350l-74 -347h-316l74 347h-352l63 301h353l73 346h316zM981 0h-1018l64 299h1017z" />
<glyph unicode="&#xb2;" horiz-adv-x="786" d="M903 1413q0 -236 -266 -389h207l-53 -250h-672l37 187l192 118q135 81 193.5 139t58.5 117q0 76 -82 76q-79 0 -153 -80l-136 185q61 64 154 105.5t203 41.5q149 0 233 -65t84 -185z" />
<glyph unicode="&#xb3;" horiz-adv-x="786" d="M313 1640h609l-41 -200l-195 -164q75 -22 117.5 -78.5t42.5 -134.5q0 -144 -102 -227.5t-261 -83.5q-271 0 -381 174l199 149q24 -41 66 -62.5t92 -21.5q44 0 73 27t29 72q0 37 -24.5 57t-67.5 20q-37 0 -76 -20l-55 106l186 156h-258z" />
<glyph unicode="&#xb4;" horiz-adv-x="821" d="M580 1141h-297l229 360h369z" />
<glyph unicode="&#xb5;" horiz-adv-x="1171" d="M731 516l107 516h344l-217 -1032h-340l24 102q-47 -60 -94 -92.5t-106 -32.5q-75 0 -127 52l-93 -430h-344l305 1433h345l-113 -526q-24 -114 5 -170.5t105 -56.5q147 0 199 237z" />
<glyph unicode="&#xb6;" horiz-adv-x="1058" d="M1128 1446l-393 -1847h-362l209 976h-25q-192 0 -298.5 89t-106.5 247q0 233 164 384t411 151h401z" />
<glyph unicode="&#xb7;" d="M270 313q-86 0 -138 49.5t-52 124.5q0 100 64 166t157 66q89 0 142 -49t53 -127q0 -97 -62.5 -163.5t-163.5 -66.5z" />
<glyph unicode="&#xb8;" horiz-adv-x="821" d="M203 -506q-65 0 -139 13t-123 38l41 199q86 -39 163 -39q38 0 59 17t21 47q0 25 -26 41t-76 16h-21l45 211h215l-30 -139q81 -19 124.5 -64.5t43.5 -109.5q0 -110 -82 -170t-215 -60z" />
<glyph unicode="&#xb9;" horiz-adv-x="659" d="M629 774h-305l112 531l-174 -58l-35 244l490 164h98z" />
<glyph unicode="&#xba;" horiz-adv-x="901" d="M555 733q-179 0 -281 87.5t-102 230.5q0 183 116.5 297t303.5 114q179 0 281 -88t102 -231q0 -182 -116.5 -296t-303.5 -114zM561 961q67 0 107.5 42t40.5 113q0 53 -32.5 85t-90.5 32q-67 0 -107.5 -42.5t-40.5 -113.5q0 -53 32.5 -84.5t90.5 -31.5z" />
<glyph unicode="&#xbb;" horiz-adv-x="1226" d="M647 516l-440 -512l-221 201l309 346l-139 342l268 133zM1200 516l-442 -512l-219 201l307 346l-139 342l268 133z" />
<glyph unicode="&#xbc;" horiz-adv-x="1894" d="M588 580h-305l112 530l-174 -57l-35 243l490 164h98zM227 0l1121 1446h335l-1124 -1446h-332zM1759 352h70l-47 -219h-70l-29 -133h-264l29 133h-428l43 203l328 530h313l-309 -514h129l45 211h235z" />
<glyph unicode="&#xbd;" horiz-adv-x="1947" d="M588 580h-305l112 530l-174 -57l-35 243l490 164h98zM227 0l1121 1446h335l-1124 -1446h-332zM1901 639q0 -235 -267 -389h207l-53 -250h-672l37 186l193 119q134 81 192.5 139t58.5 117q0 76 -81 76q-80 0 -154 -80l-135 184q61 64 153.5 106t202.5 42q149 0 233.5 -65 t84.5 -185z" />
<glyph unicode="&#xbe;" horiz-adv-x="2013" d="M805 868q0 -144 -102 -227.5t-261 -83.5q-271 0 -381 174l199 150q24 -41 66 -62.5t92 -21.5q44 0 73 26.5t29 71.5q0 37 -24.5 57.5t-67.5 20.5q-36 0 -76 -21l-55 107l186 155h-258l47 232h609l-41 -201l-195 -164q75 -22 117.5 -78.5t42.5 -134.5zM346 0l1120 1446 h336l-1124 -1446h-332zM1878 352h70l-47 -219h-70l-29 -133h-264l29 133h-428l43 203l327 530h314l-310 -514h129l46 211h235z" />
<glyph unicode="&#xbf;" horiz-adv-x="899" d="M602 1063q86 0 138.5 -50t52.5 -126q0 -100 -64 -165t-158 -65q-90 0 -142 49t-52 128q0 97 62 163t163 66zM387 535h311q2 -58 -39.5 -117.5t-101.5 -109.5t-120.5 -99t-103 -103.5t-42.5 -105.5q0 -60 37 -91.5t96 -31.5q61 0 121 37.5t98 122.5l231 -180 q-63 -122 -194.5 -201.5t-296.5 -79.5q-199 0 -319.5 92t-120.5 258q0 66 22 126.5t58.5 107.5t80.5 90t90 80t86 70t69 68t38 67z" />
<glyph unicode="&#xc0;" horiz-adv-x="1396" d="M971 1896l82 -356h-277l-129 356h324zM1282 0h-356l-25 268h-463l-139 -268h-405l794 1446h416zM874 575l-38 478l-242 -478h280z" />
<glyph unicode="&#xc1;" horiz-adv-x="1396" d="M991 1896h359l-291 -356h-299zM-106 0l794 1446h416l178 -1446h-356l-25 268h-463l-139 -268h-405zM874 575l-38 478l-242 -478h280z" />
<glyph unicode="&#xc2;" horiz-adv-x="1396" d="M1020 1540l-68 170l-141 -170h-315l327 356h301l181 -356h-285zM-106 0l794 1446h416l178 -1446h-356l-25 268h-463l-139 -268h-405zM874 575l-38 478l-242 -478h280z" />
<glyph unicode="&#xc3;" horiz-adv-x="1396" d="M848 1642q-45 0 -66 -86h-241q23 161 99.5 247.5t193.5 86.5q43 0 81 -15t59.5 -33t45.5 -33t43 -15q26 0 40.5 21.5t24.5 62.5h242q-23 -161 -98.5 -246.5t-192.5 -85.5q-43 0 -81 15t-59.5 33t-46 33t-44.5 15zM-106 0l794 1446h416l178 -1446h-356l-25 268h-463 l-139 -268h-405zM874 575l-38 478l-242 -478h280z" />
<glyph unicode="&#xc4;" horiz-adv-x="1396" d="M692 1544q-75 0 -120.5 44.5t-45.5 109.5q0 82 58.5 137t138.5 55q75 0 122.5 -43.5t47.5 -109.5q0 -79 -60.5 -136t-140.5 -57zM1176 1890q74 0 120.5 -43.5t46.5 -109.5q0 -79 -60 -136t-140 -57q-75 0 -120.5 44.5t-45.5 109.5q0 82 59 137t140 55zM-106 0l794 1446 h416l178 -1446h-356l-25 268h-463l-139 -268h-405zM874 575l-38 478l-242 -478h280z" />
<glyph unicode="&#xc5;" horiz-adv-x="1396" d="M936 1520q-109 0 -173.5 56.5t-64.5 147.5q0 111 80 184.5t195 73.5q109 0 176.5 -57t67.5 -147q0 -111 -82.5 -184.5t-198.5 -73.5zM963 1837q-40 0 -69.5 -28.5t-29.5 -67.5q0 -33 24 -52.5t64 -19.5t69.5 28t29.5 66q0 34 -24 54t-64 20zM1282 0h-356l-25 268h-463 l-139 -268h-405l794 1446h416zM874 575l-38 478l-242 -478h280z" />
<glyph unicode="&#xc6;" horiz-adv-x="1951" d="M2060 1446l-71 -326h-592l-51 -243h505l-65 -312h-508l-49 -239h608l-70 -326h-958l55 264h-389l-151 -264h-430l958 1446h1208zM1038 1133l-374 -560h266l119 560h-11z" />
<glyph unicode="&#xc7;" horiz-adv-x="1517" d="M823 309q240 0 357 254l280 -194q-216 -375 -641 -392l-16 -79q79 -19 123.5 -65t44.5 -109q0 -110 -82.5 -170t-216.5 -60q-63 0 -137.5 13t-124.5 38l43 199q86 -39 161 -39q38 0 60 17.5t22 46.5q0 25 -26 41t-76 16h-21l35 168q-227 44 -361 206t-134 416 q0 176 60 333t165.5 271.5t257.5 181t328 66.5q233 0 401.5 -101.5t224.5 -287.5l-352 -145q-25 93 -104 148t-195 55q-95 0 -174.5 -40t-132.5 -108t-82 -156.5t-29 -185.5q0 -155 88 -246.5t254 -91.5z" />
<glyph unicode="&#xc8;" horiz-adv-x="1165" d="M954 1540h-276l-129 356h323zM979 0h-965l308 1446h950l-70 -326h-592l-51 -243h506l-66 -312h-505l-52 -239h609z" />
<glyph unicode="&#xc9;" horiz-adv-x="1165" d="M961 1540h-299l231 356h358zM979 0h-965l308 1446h950l-70 -326h-592l-51 -243h506l-66 -312h-505l-52 -239h609z" />
<glyph unicode="&#xca;" horiz-adv-x="1165" d="M922 1540l-68 170l-141 -170h-316l328 356h301l180 -356h-284zM1272 1446l-70 -326h-592l-51 -243h506l-66 -312h-505l-52 -239h609l-72 -326h-965l308 1446h950z" />
<glyph unicode="&#xcb;" horiz-adv-x="1165" d="M594 1544q-75 0 -120.5 44.5t-45.5 109.5q0 82 58.5 137t138.5 55q75 0 122.5 -43.5t47.5 -109.5q0 -79 -60.5 -136t-140.5 -57zM1044 1544q-74 0 -119.5 44.5t-45.5 109.5q0 82 58.5 137t139.5 55q74 0 121 -44t47 -109q0 -79 -60.5 -136t-140.5 -57zM979 0h-965 l308 1446h950l-70 -326h-592l-51 -243h506l-66 -312h-505l-52 -239h609z" />
<glyph unicode="&#xcc;" horiz-adv-x="634" d="M674 1540h-277l-129 356h324zM395 0h-377l310 1446h377z" />
<glyph unicode="&#xcd;" horiz-adv-x="634" d="M680 1540h-299l231 356h359zM395 0h-377l310 1446h377z" />
<glyph unicode="&#xce;" horiz-adv-x="634" d="M641 1540l-68 170l-141 -170h-315l327 356h301l181 -356h-285zM395 0h-377l310 1446h377z" />
<glyph unicode="&#xcf;" horiz-adv-x="634" d="M313 1544q-75 0 -120.5 44.5t-45.5 109.5q0 82 58.5 137t138.5 55q75 0 122.5 -43.5t47.5 -109.5q0 -79 -60.5 -136t-140.5 -57zM764 1544q-75 0 -120.5 44.5t-45.5 109.5q0 82 59 137t140 55q74 0 121 -44t47 -109q0 -79 -60.5 -136t-140.5 -57zM395 0h-377l310 1446 h377z" />
<glyph unicode="&#xd0;" horiz-adv-x="1490" d="M362 1446h437q308 0 489.5 -159t181.5 -435q0 -139 -34.5 -264.5t-107.5 -233.5t-178 -186.5t-254.5 -123t-328.5 -44.5h-512l121 573h-168l66 297h166zM489 326h148q110 0 199.5 40.5t146 109.5t87 158t30.5 189q0 142 -80.5 219.5t-218.5 77.5h-144l-53 -250h289 l-66 -297h-284z" />
<glyph unicode="&#xd1;" horiz-adv-x="1472" d="M1120 1546q-43 0 -81 15t-59.5 33t-46 33t-44.5 15q-45 0 -66 -86h-241q23 161 99 247.5t193 86.5q43 0 81 -15t60 -33t46 -33t43 -15q26 0 40.5 21.5t24.5 62.5h242q-23 -161 -98.5 -246.5t-192.5 -85.5zM373 0h-359l308 1446h356l330 -842l180 842h358l-307 -1446h-356 l-330 842z" />
<glyph unicode="&#xd2;" horiz-adv-x="1669" d="M1176 1530h-277l-129 356h324zM813 -23q-204 0 -363 80t-248 227t-89 339q0 234 109 427.5t301 305.5t425 112q201 0 359 -78.5t248 -225.5t90 -339q0 -176 -63.5 -333t-173.5 -270t-265 -179t-330 -66zM838 309q97 0 180 39.5t139 106.5t87.5 156t31.5 188 q0 155 -98.5 246.5t-255.5 91.5q-128 0 -229.5 -66.5t-156.5 -176.5t-55 -241q0 -155 95.5 -249.5t261.5 -94.5z" />
<glyph unicode="&#xd3;" horiz-adv-x="1669" d="M1182 1530h-299l231 356h359zM813 -23q-204 0 -363 80t-248 227t-89 339q0 234 109 427.5t301 305.5t425 112q201 0 359 -78.5t248 -225.5t90 -339q0 -176 -63.5 -333t-173.5 -270t-265 -179t-330 -66zM838 309q97 0 180 39.5t139 106.5t87.5 156t31.5 188 q0 155 -98.5 246.5t-255.5 91.5q-128 0 -229.5 -66.5t-156.5 -176.5t-55 -241q0 -155 95.5 -249.5t261.5 -94.5z" />
<glyph unicode="&#xd4;" horiz-adv-x="1669" d="M1143 1530l-68 170l-141 -170h-316l328 356h301l180 -356h-284zM948 1468q201 0 359 -78.5t248 -225.5t90 -339q0 -176 -63.5 -333t-173.5 -270t-265 -179t-330 -66q-204 0 -363 80t-248 227t-89 339q0 234 109 427.5t301 305.5t425 112zM838 309q97 0 180 39.5 t139 106.5t87.5 156t31.5 188q0 155 -98.5 246.5t-255.5 91.5q-128 0 -229.5 -66.5t-156.5 -176.5t-55 -241q0 -155 95.5 -249.5t261.5 -94.5z" />
<glyph unicode="&#xd5;" horiz-adv-x="1669" d="M1202 1536q-43 0 -81 15t-59.5 33t-46 33t-44.5 15q-45 0 -66 -86h-241q23 161 99 247.5t193 86.5q43 0 81 -15t60 -33t46 -33t43 -15q26 0 40.5 21.5t24.5 62.5h242q-23 -161 -98.5 -246.5t-192.5 -85.5zM813 -23q-204 0 -363 80t-248 227t-89 339q0 234 109 427.5 t301 305.5t425 112q201 0 359 -78.5t248 -225.5t90 -339q0 -176 -63.5 -333t-173.5 -270t-265 -179t-330 -66zM838 309q97 0 180 39.5t139 106.5t87.5 156t31.5 188q0 155 -98.5 246.5t-255.5 91.5q-128 0 -229.5 -66.5t-156.5 -176.5t-55 -241q0 -155 95.5 -249.5 t261.5 -94.5z" />
<glyph unicode="&#xd6;" horiz-adv-x="1669" d="M815 1534q-75 0 -120.5 44.5t-45.5 109.5q0 82 58.5 137t138.5 55q75 0 122.5 -44t47.5 -110q0 -79 -60.5 -135.5t-140.5 -56.5zM1266 1534q-75 0 -120.5 44.5t-45.5 109.5q0 82 58.5 137t139.5 55q74 0 121 -44t47 -110q0 -79 -60 -135.5t-140 -56.5zM813 -23 q-204 0 -363 80t-248 227t-89 339q0 234 109 427.5t301 305.5t425 112q201 0 359 -78.5t248 -225.5t90 -339q0 -176 -63.5 -333t-173.5 -270t-265 -179t-330 -66zM838 309q97 0 180 39.5t139 106.5t87.5 156t31.5 188q0 155 -98.5 246.5t-255.5 91.5q-128 0 -229.5 -66.5 t-156.5 -176.5t-55 -241q0 -155 95.5 -249.5t261.5 -94.5z" />
<glyph unicode="&#xd7;" horiz-adv-x="1191" d="M1016 1174l196 -228l-376 -321l215 -287l-228 -193l-215 287l-379 -321l-196 227l395 336l-231 307l227 190l229 -305z" />
<glyph unicode="&#xd8;" horiz-adv-x="1669" d="M1374 1481h330l-207 -236q148 -175 148 -420q0 -176 -63.5 -333t-173.5 -270t-265 -179t-330 -66q-198 0 -360 78l-107 -121h-330l240 275q-143 165 -143 414q0 234 109 427.5t301 305.5t425 112q192 0 350 -73zM481 653q0 -82 31 -155l543 618q-62 21 -133 21 q-128 0 -229.5 -66.5t-156.5 -176.5t-55 -241zM1276 799q0 79 -33 157l-549 -624q71 -23 144 -23q97 0 180 39.5t139 106.5t87.5 156t31.5 188z" />
<glyph unicode="&#xd9;" horiz-adv-x="1388" d="M1051 1540h-277l-129 356h324zM680 -23q-330 0 -474.5 175t-80.5 477l174 817h365l-177 -840q-32 -152 14 -224.5t189 -72.5q108 0 161.5 63t80.5 189l190 885h365l-199 -932q-115 -537 -608 -537z" />
<glyph unicode="&#xda;" horiz-adv-x="1388" d="M1057 1540h-299l231 356h359zM680 -23q-330 0 -474.5 175t-80.5 477l174 817h365l-177 -840q-32 -152 14 -224.5t189 -72.5q108 0 161.5 63t80.5 189l190 885h365l-199 -932q-115 -537 -608 -537z" />
<glyph unicode="&#xdb;" horiz-adv-x="1388" d="M1018 1540l-68 170l-141 -170h-315l327 356h301l181 -356h-285zM932 561l190 885h365l-199 -932q-115 -537 -608 -537q-330 0 -474.5 175t-80.5 477l174 817h365l-177 -840q-32 -152 14 -224.5t189 -72.5q108 0 161.5 63t80.5 189z" />
<glyph unicode="&#xdc;" horiz-adv-x="1388" d="M688 1544q-75 0 -120.5 44.5t-45.5 109.5q0 82 58.5 137t138.5 55q75 0 122.5 -43.5t47.5 -109.5q0 -79 -60.5 -136t-140.5 -57zM1139 1544q-75 0 -120.5 44.5t-45.5 109.5q0 82 58.5 137t139.5 55q74 0 121 -44t47 -109q0 -79 -60 -136t-140 -57zM680 -23 q-330 0 -474.5 175t-80.5 477l174 817h365l-177 -840q-32 -152 14 -224.5t189 -72.5q108 0 161.5 63t80.5 189l190 885h365l-199 -932q-115 -537 -608 -537z" />
<glyph unicode="&#xdd;" horiz-adv-x="1327" d="M993 1540h-299l232 356h358zM737 0h-364l108 512l-280 934h383l129 -559l360 559h451l-676 -932z" />
<glyph unicode="&#xde;" horiz-adv-x="1243" d="M379 0h-365l308 1446h364l-49 -232h141q236 0 350.5 -97t114.5 -265q0 -276 -156 -434t-452 -158h-201zM569 895l-69 -324h151q219 0 219 203q0 59 -39 90t-131 31h-131z" />
<glyph unicode="&#xdf;" horiz-adv-x="1345" d="M1311 1032l-51 -250l-326 -338q133 -18 211 -102t78 -217q0 -250 -150 -395.5t-416 -145.5q-180 0 -286 47l135 291q79 -33 153 -33q111 0 167.5 61t56.5 156q0 66 -44.5 103t-123.5 37q-35 0 -90 -10l-66 180l297 321h-281l-159 -737h-344l157 737h-149l63 295h148 l31 139q40 182 140.5 267.5t272.5 85.5q48 0 115 -9t102 -20l-59 -254q-50 16 -117 16q-53 0 -78.5 -30t-42.5 -115l-16 -80h672z" />
<glyph unicode="&#xe0;" horiz-adv-x="1226" d="M899 1141h-266l-141 360h327zM401 -23q-160 0 -255 116.5t-95 320.5q0 95 20.5 187.5t63 174.5t101.5 144t141 98.5t176 36.5q109 0 189.5 -44.5t121.5 -131.5l33 153h344l-221 -1032h-342l33 141q-131 -164 -310 -164zM569 283q107 0 169.5 79.5t62.5 200.5 q0 85 -47.5 136t-128.5 51q-104 0 -169 -78t-65 -195q0 -88 47.5 -141t130.5 -53z" />
<glyph unicode="&#xe1;" horiz-adv-x="1226" d="M915 1141h-297l230 360h366zM401 -23q-160 0 -255 116.5t-95 320.5q0 95 20.5 187.5t63 174.5t101.5 144t141 98.5t176 36.5q109 0 189.5 -44.5t121.5 -131.5l33 153h344l-221 -1032h-342l33 141q-131 -164 -310 -164zM569 283q107 0 169.5 79.5t62.5 200.5 q0 85 -47.5 136t-128.5 51q-104 0 -169 -78t-65 -195q0 -88 47.5 -141t130.5 -53z" />
<glyph unicode="&#xe2;" horiz-adv-x="1226" d="M881 1141l-66 168l-139 -168h-314l326 360h303l178 -360h-288zM864 879l33 153h344l-221 -1032h-342l33 141q-131 -164 -310 -164q-160 0 -255 116.5t-95 320.5q0 95 20.5 187.5t63 174.5t101.5 144t141 98.5t176 36.5q109 0 189.5 -44.5t121.5 -131.5zM569 283 q107 0 169.5 79.5t62.5 200.5q0 85 -47.5 136t-128.5 51q-104 0 -169 -78t-65 -195q0 -88 47.5 -141t130.5 -53z" />
<glyph unicode="&#xe3;" horiz-adv-x="1226" d="M928 1151q-43 0 -81 14.5t-60 32.5t-46 32.5t-43 14.5q-46 0 -67 -84h-240q22 159 98 245.5t193 86.5q43 0 81 -15t59.5 -33t46 -33t44.5 -15q26 0 40 22t24 64h242q-22 -160 -97.5 -246t-193.5 -86zM401 -23q-160 0 -255 116.5t-95 320.5q0 95 20.5 187.5t63 174.5 t101.5 144t141 98.5t176 36.5q109 0 189.5 -44.5t121.5 -131.5l33 153h344l-221 -1032h-342l33 141q-131 -164 -310 -164zM569 283q107 0 169.5 79.5t62.5 200.5q0 85 -47.5 136t-128.5 51q-104 0 -169 -78t-65 -195q0 -88 47.5 -141t130.5 -53z" />
<glyph unicode="&#xe4;" horiz-adv-x="1226" d="M543 1155q-74 0 -119 45.5t-45 110.5q0 82 57 136t137 54q76 0 123 -43t47 -108q0 -82 -59.5 -138.5t-140.5 -56.5zM993 1155q-75 0 -120.5 45.5t-45.5 110.5q0 82 58 136t139 54q75 0 121.5 -42.5t46.5 -108.5q0 -82 -59 -138.5t-140 -56.5zM401 -23q-160 0 -255 116.5 t-95 320.5q0 95 20.5 187.5t63 174.5t101.5 144t141 98.5t176 36.5q109 0 189.5 -44.5t121.5 -131.5l33 153h344l-221 -1032h-342l33 141q-131 -164 -310 -164zM569 283q107 0 169.5 79.5t62.5 200.5q0 85 -47.5 136t-128.5 51q-104 0 -169 -78t-65 -195q0 -88 47.5 -141 t130.5 -53z" />
<glyph unicode="&#xe5;" horiz-adv-x="1226" d="M799 1139q-109 0 -176.5 57.5t-67.5 146.5q0 111 80 185t194 74q109 0 176.5 -58.5t67.5 -148.5q0 -111 -80 -183.5t-194 -72.5zM807 1284q42 0 70 29.5t28 66.5q0 34 -23.5 55t-62.5 21t-68.5 -28t-29.5 -68q0 -33 24 -54.5t62 -21.5zM401 -23q-160 0 -255 116.5 t-95 320.5q0 95 20.5 187.5t63 174.5t101.5 144t141 98.5t176 36.5q109 0 189.5 -44.5t121.5 -131.5l33 153h344l-221 -1032h-342l33 141q-131 -164 -310 -164zM569 283q107 0 169.5 79.5t62.5 200.5q0 85 -47.5 136t-128.5 51q-104 0 -169 -78t-65 -195q0 -88 47.5 -141 t130.5 -53z" />
<glyph unicode="&#xe6;" horiz-adv-x="1800" d="M1737 610q0 -105 -31 -190h-696q9 -73 71 -116.5t166 -43.5q124 0 240 98l182 -204q-149 -177 -438 -177q-259 0 -404 158q-134 -158 -366 -158q-125 0 -225 35t-163 110t-63 181q0 163 102.5 257.5t276.5 94.5q88 0 175 -24t136 -68l7 37q18 91 -32.5 139.5t-144.5 48.5 q-100 0 -221 -75l-149 207q73 64 176 99.5t211 35.5q232 0 348 -125q144 125 367 125q216 0 345.5 -124t129.5 -321zM1249 799q-80 0 -136.5 -45.5t-82.5 -122.5h385q-16 168 -166 168zM485 236q127 0 170 129q-64 79 -186 79q-64 0 -99.5 -27.5t-35.5 -80.5q0 -50 43 -75 t108 -25z" />
<glyph unicode="&#xe7;" horiz-adv-x="1099" d="M580 281q124 0 200 149l254 -186q-143 -254 -442 -267l-17 -79q79 -19 123.5 -65t44.5 -109q0 -110 -82.5 -170t-216.5 -60q-63 0 -137.5 13t-124.5 38l43 199q86 -39 162 -39q38 0 60 17.5t22 46.5q0 25 -26 41t-76 16h-21l37 176q-153 45 -241.5 159.5t-88.5 276.5 q0 174 74 314.5t209 221.5t307 81q163 0 287.5 -77.5t175.5 -199.5l-320 -135q-46 107 -159 107q-109 0 -171.5 -79.5t-62.5 -197.5q0 -88 49 -140t138 -52z" />
<glyph unicode="&#xe8;" horiz-adv-x="1169" d="M733 1501l80 -360h-266l-141 360h327zM1106 610q0 -104 -29 -190h-686q8 -74 65 -117t160 -43q126 0 242 98l182 -204q-149 -177 -440 -177q-240 0 -391.5 135t-151.5 339q0 172 65.5 307.5t197 216t311.5 80.5q216 0 345.5 -124t129.5 -321zM621 799q-80 0 -133.5 -45.5 t-77.5 -122.5h374q-13 168 -163 168z" />
<glyph unicode="&#xe9;" horiz-adv-x="1169" d="M760 1501h366l-299 -360h-297zM631 1055q216 0 345.5 -124t129.5 -321q0 -104 -29 -190h-686q8 -74 65 -117t160 -43q126 0 242 98l182 -204q-149 -177 -440 -177q-240 0 -391.5 135t-151.5 339q0 172 65.5 307.5t197 216t311.5 80.5zM621 799q-80 0 -133.5 -45.5 t-77.5 -122.5h374q-13 168 -163 168z" />
<glyph unicode="&#xea;" horiz-adv-x="1169" d="M795 1141l-66 168l-139 -168h-314l326 360h303l178 -360h-288zM1106 610q0 -104 -29 -190h-686q8 -74 65 -117t160 -43q126 0 242 98l182 -204q-149 -177 -440 -177q-240 0 -391.5 135t-151.5 339q0 172 65.5 307.5t197 216t311.5 80.5q216 0 345.5 -124t129.5 -321z M621 799q-80 0 -133.5 -45.5t-77.5 -122.5h374q-13 168 -163 168z" />
<glyph unicode="&#xeb;" horiz-adv-x="1169" d="M457 1155q-74 0 -119 45.5t-45 110.5q0 82 57 136t137 54q76 0 123 -43t47 -108q0 -82 -59.5 -138.5t-140.5 -56.5zM907 1155q-75 0 -120.5 45.5t-45.5 110.5q0 82 58 136t139 54q75 0 121.5 -42.5t46.5 -108.5q0 -82 -59 -138.5t-140 -56.5zM631 1055q216 0 345.5 -124 t129.5 -321q0 -104 -29 -190h-686q8 -74 65 -117t160 -43q126 0 242 98l182 -204q-149 -177 -440 -177q-240 0 -391.5 135t-151.5 339q0 172 65.5 307.5t197 216t311.5 80.5zM621 799q-80 0 -133.5 -45.5t-77.5 -122.5h374q-13 168 -163 168z" />
<glyph unicode="&#xec;" d="M559 1141h-274l-125 360h321zM354 0h-354l221 1032h352z" />
<glyph unicode="&#xed;" d="M547 1141h-297l227 360h359zM354 0h-354l221 1032h352z" />
<glyph unicode="&#xee;" d="M485 1141l-26 176l-103 -176h-276l266 360h279l114 -360h-254zM354 0h-354l221 1032h352z" />
<glyph unicode="&#xef;" d="M250 1155q-68 0 -107 44t-39 108q0 84 54 139t133 55q69 0 109 -41t40 -106q0 -82 -56 -140.5t-134 -58.5zM629 1155q-68 0 -107 44t-39 108q0 84 54 139t133 55q69 0 109 -41t40 -106q0 -82 -56 -140.5t-134 -58.5zM354 0h-354l221 1032h352z" />
<glyph unicode="&#xf0;" horiz-adv-x="1218" d="M1141 1548l78 -219l-234 -102q186 -284 186 -586q0 -104 -25 -201t-75.5 -181t-121.5 -147t-168.5 -99t-209.5 -36q-235 0 -375.5 125.5t-140.5 333.5q0 261 135.5 412t362.5 151q162 0 262 -81q-25 96 -115 223l-223 -99l-61 187l153 67q-78 83 -88 93l221 161 q97 -92 136 -135zM578 283q108 0 174.5 78t66.5 186q0 85 -51 134.5t-143 49.5q-105 0 -169.5 -70t-64.5 -186q0 -85 49 -138.5t138 -53.5z" />
<glyph unicode="&#xf1;" horiz-adv-x="1191" d="M899 1151q-43 0 -81 14.5t-59.5 32.5t-45.5 32.5t-43 14.5q-47 0 -68 -84h-240q22 159 98 245.5t193 86.5q55 0 99.5 -24t76.5 -48t56 -24q25 0 39 21.5t24 64.5h242q-22 -160 -97.5 -246t-193.5 -86zM338 0h-344l219 1032h338l-29 -133q59 73 147 114.5t189 41.5 q184 0 245.5 -126t12.5 -354l-125 -575h-344l115 524q25 116 0.5 172t-100.5 56q-78 0 -132.5 -60t-80.5 -178z" />
<glyph unicode="&#xf2;" horiz-adv-x="1218" d="M834 1133h-267l-141 360h328zM563 -23q-221 0 -365.5 128.5t-144.5 336.5q0 130 46.5 244t126.5 195t191.5 127.5t237.5 46.5q222 0 366 -128t144 -337q0 -128 -46.5 -242t-126 -195.5t-191.5 -128.5t-238 -47zM586 283q109 0 175 80.5t66 195.5q0 87 -52.5 139 t-143.5 52q-106 0 -173 -80.5t-67 -196.5q0 -85 53 -137.5t142 -52.5z" />
<glyph unicode="&#xf3;" horiz-adv-x="1218" d="M850 1133h-297l229 360h367zM563 -23q-221 0 -365.5 128.5t-144.5 336.5q0 130 46.5 244t126.5 195t191.5 127.5t237.5 46.5q222 0 366 -128t144 -337q0 -128 -46.5 -242t-126 -195.5t-191.5 -128.5t-238 -47zM586 283q109 0 175 80.5t66 195.5q0 87 -52.5 139t-143.5 52 q-106 0 -173 -80.5t-67 -196.5q0 -85 53 -137.5t142 -52.5z" />
<glyph unicode="&#xf4;" horiz-adv-x="1218" d="M815 1133l-65 167l-140 -167h-313l326 360h303l178 -360h-289zM655 1055q222 0 366 -128t144 -337q0 -128 -46.5 -242t-126 -195.5t-191.5 -128.5t-238 -47q-221 0 -365.5 128.5t-144.5 336.5q0 130 46.5 244t126.5 195t191.5 127.5t237.5 46.5zM586 283q109 0 175 80.5 t66 195.5q0 87 -52.5 139t-143.5 52q-106 0 -173 -80.5t-67 -196.5q0 -85 53 -137.5t142 -52.5z" />
<glyph unicode="&#xf5;" horiz-adv-x="1218" d="M862 1143q-43 0 -81 14.5t-59.5 32.5t-45.5 32.5t-43 14.5q-47 0 -68 -84h-239q22 159 97.5 245.5t192.5 86.5q55 0 99.5 -24t76.5 -48t56 -24q25 0 39 21.5t24 64.5h242q-22 -160 -97.5 -246t-193.5 -86zM563 -23q-221 0 -365.5 128.5t-144.5 336.5q0 130 46.5 244 t126.5 195t191.5 127.5t237.5 46.5q222 0 366 -128t144 -337q0 -128 -46.5 -242t-126 -195.5t-191.5 -128.5t-238 -47zM586 283q109 0 175 80.5t66 195.5q0 87 -52.5 139t-143.5 52q-106 0 -173 -80.5t-67 -196.5q0 -85 53 -137.5t142 -52.5z" />
<glyph unicode="&#xf6;" horiz-adv-x="1218" d="M477 1147q-74 0 -119 45.5t-45 110.5q0 82 57.5 136t137.5 54q75 0 122.5 -43.5t47.5 -108.5q0 -82 -60 -138t-141 -56zM928 1147q-76 0 -121 45.5t-45 110.5q0 82 57.5 136t138.5 54q75 0 121.5 -43t46.5 -109q0 -82 -58.5 -138t-139.5 -56zM563 -23 q-221 0 -365.5 128.5t-144.5 336.5q0 130 46.5 244t126.5 195t191.5 127.5t237.5 46.5q222 0 366 -128t144 -337q0 -128 -46.5 -242t-126 -195.5t-191.5 -128.5t-238 -47zM586 283q109 0 175 80.5t66 195.5q0 87 -52.5 139t-143.5 52q-106 0 -173 -80.5t-67 -196.5 q0 -85 53 -137.5t142 -52.5z" />
<glyph unicode="&#xf7;" horiz-adv-x="1089" d="M618 899q-80 0 -128 45.5t-48 116.5q0 92 59.5 152.5t145.5 60.5q82 0 131 -45.5t49 -118.5q0 -90 -58 -150.5t-151 -60.5zM1016 500h-944l59 299h944zM434 29q-80 0 -129 45.5t-49 115.5q0 92 59.5 151.5t147.5 59.5q82 0 130 -44t48 -117q0 -90 -57 -150.5t-150 -60.5z " />
<glyph unicode="&#xf8;" horiz-adv-x="1218" d="M985 1098h258l-186 -207q108 -120 108 -301q0 -128 -46.5 -242t-126 -195.5t-191.5 -128.5t-238 -47q-132 0 -241 50l-78 -86h-260l180 198q-111 124 -111 303q0 130 46.5 244t126.5 195t191.5 127.5t237.5 46.5q135 0 246 -51zM631 750q-106 0 -173 -80.5t-67 -196.5 q0 -40 12 -74l308 338q-37 13 -80 13zM586 283q109 0 175 80.5t66 195.5q0 35 -10 68l-303 -334q33 -10 72 -10z" />
<glyph unicode="&#xf9;" horiz-adv-x="1175" d="M846 1141h-266l-142 360h328zM334 -23q-93 0 -157 34.5t-93.5 97.5t-34 151t20.5 195l125 577h344l-113 -526q-26 -116 -4 -171.5t100 -55.5q161 0 213 237l107 516h344l-217 -1032h-340l30 131q-128 -154 -325 -154z" />
<glyph unicode="&#xfa;" horiz-adv-x="1175" d="M862 1141h-297l230 360h366zM334 -23q-93 0 -157 34.5t-93.5 97.5t-34 151t20.5 195l125 577h344l-113 -526q-26 -116 -4 -171.5t100 -55.5q161 0 213 237l107 516h344l-217 -1032h-340l30 131q-128 -154 -325 -154z" />
<glyph unicode="&#xfb;" horiz-adv-x="1175" d="M827 1141l-65 168l-139 -168h-314l326 360h303l178 -360h-289zM735 516l107 516h344l-217 -1032h-340l30 131q-128 -154 -325 -154q-93 0 -157 34.5t-93.5 97.5t-34 151t20.5 195l125 577h344l-113 -526q-26 -116 -4 -171.5t100 -55.5q161 0 213 237z" />
<glyph unicode="&#xfc;" horiz-adv-x="1175" d="M489 1155q-74 0 -118.5 45.5t-44.5 110.5q0 82 57 136t137 54q76 0 123 -43t47 -108q0 -82 -60 -138.5t-141 -56.5zM940 1155q-76 0 -121 45.5t-45 110.5q0 82 58 136t139 54q75 0 121.5 -42.5t46.5 -108.5q0 -82 -59 -138.5t-140 -56.5zM334 -23q-93 0 -157 34.5 t-93.5 97.5t-34 151t20.5 195l125 577h344l-113 -526q-26 -116 -4 -171.5t100 -55.5q161 0 213 237l107 516h344l-217 -1032h-340l30 131q-128 -154 -325 -154z" />
<glyph unicode="&#xfd;" horiz-adv-x="1138" d="M760 1501h366l-299 -360h-297zM520 340l316 692h405l-799 -1433h-370l227 403l-180 1030h354z" />
<glyph unicode="&#xfe;" horiz-adv-x="1232" d="M252 -401h-344l403 1902h344l-120 -565q64 61 128.5 90t145.5 29q177 0 275 -116t98 -321q0 -120 -34 -234t-95.5 -205t-159 -146.5t-213.5 -55.5q-109 0 -189.5 44.5t-121.5 130.5zM606 283q106 0 170 76.5t64 195.5q0 87 -47 141t-131 54q-105 0 -166.5 -80.5 t-61.5 -200.5q0 -86 46 -136t126 -50z" />
<glyph unicode="&#xff;" horiz-adv-x="1138" d="M455 1155q-74 0 -119 45.5t-45 110.5q0 82 57 136t137 54q76 0 123 -43t47 -108q0 -82 -59.5 -138.5t-140.5 -56.5zM905 1155q-75 0 -120.5 45.5t-45.5 110.5q0 82 58 136t139 54q75 0 121.5 -42.5t46.5 -108.5q0 -82 -59 -138.5t-140 -56.5zM520 340l316 692h405 l-799 -1433h-370l227 403l-180 1030h354z" />
<glyph unicode="&#x152;" horiz-adv-x="1892" d="M1999 1446l-70 -326h-588l-51 -243h500l-66 -312h-499l-49 -239h600l-70 -326h-961q-136 5 -251 47.5t-201 118t-134 191t-48 259.5q0 176 61.5 330t170 263.5t262.5 173t331 63.5h117h157h789zM479 647q0 -147 87 -229t249 -86l168 782h-72q-192 0 -312 -134.5 t-120 -332.5z" />
<glyph unicode="&#x153;" horiz-adv-x="1945" d="M1884 610q0 -98 -31 -190h-696q9 -73 71 -116.5t165 -43.5q125 0 241 98l183 -204q-149 -177 -441 -177q-130 0 -237 43.5t-178 120.5q-164 -164 -398 -164q-221 0 -365.5 128.5t-144.5 336.5q0 174 77 314t213 219.5t304 79.5q110 0 205.5 -38.5t161.5 -107.5 q152 146 395 146q215 0 345 -124t130 -321zM1397 799q-81 0 -138 -46t-83 -122h387q-16 168 -166 168zM586 283q109 0 171 80t62 196q0 87 -52.5 139t-143.5 52q-105 0 -168.5 -80t-63.5 -197q0 -85 53 -137.5t142 -52.5z" />
<glyph unicode="&#x178;" horiz-adv-x="1327" d="M625 1544q-75 0 -120.5 44.5t-45.5 109.5q0 82 58 137t138 55q75 0 122.5 -43.5t47.5 -109.5q0 -79 -60 -136t-140 -57zM1075 1544q-75 0 -120.5 44.5t-45.5 109.5q0 82 59 137t140 55q74 0 121 -44t47 -109q0 -79 -60.5 -136t-140.5 -57zM737 0h-364l108 512l-280 934 h383l129 -559l360 559h451l-676 -932z" />
<glyph unicode="&#x2c6;" horiz-adv-x="821" d="M768 1501l178 -360h-289l-65 168l-139 -168h-314l328 360h301z" />
<glyph unicode="&#x2dc;" horiz-adv-x="821" d="M705 1151q-54 0 -98.5 23.5t-76.5 47t-55 23.5q-46 0 -67 -84h-240q22 160 98 246t195 86q42 0 79.5 -15t59 -33t46 -33t44.5 -15q25 0 39.5 21.5t26.5 64.5h239q-22 -161 -97 -246.5t-193 -85.5z" />
<glyph unicode="&#x2000;" horiz-adv-x="991" />
<glyph unicode="&#x2001;" horiz-adv-x="1982" />
<glyph unicode="&#x2002;" horiz-adv-x="991" />
<glyph unicode="&#x2003;" horiz-adv-x="1982" />
<glyph unicode="&#x2004;" horiz-adv-x="660" />
<glyph unicode="&#x2005;" horiz-adv-x="495" />
<glyph unicode="&#x2006;" horiz-adv-x="330" />
<glyph unicode="&#x2007;" horiz-adv-x="330" />
<glyph unicode="&#x2008;" horiz-adv-x="247" />
<glyph unicode="&#x2009;" horiz-adv-x="396" />
<glyph unicode="&#x200a;" horiz-adv-x="110" />
<glyph unicode="&#x2010;" horiz-adv-x="884" d="M776 365h-729l59 299h730z" />
<glyph unicode="&#x2011;" horiz-adv-x="884" d="M776 365h-729l59 299h730z" />
<glyph unicode="&#x2012;" horiz-adv-x="884" d="M776 365h-729l59 299h730z" />
<glyph unicode="&#x2013;" horiz-adv-x="1222" d="M1118 365h-1075l59 299h1076z" />
<glyph unicode="&#x2014;" horiz-adv-x="2031" d="M1929 365h-1886l59 299h1887z" />
<glyph unicode="&#x2018;" d="M522 807h-379l295 694h264z" />
<glyph unicode="&#x2019;" d="M324 1501h381l-295 -694h-265z" />
<glyph unicode="&#x201a;" d="M172 -301h-264l184 694h377z" />
<glyph unicode="&#x201c;" horiz-adv-x="1054" d="M451 1501h262l-191 -694h-379zM920 1501h264l-193 -694h-379z" />
<glyph unicode="&#x201d;" horiz-adv-x="1054" d="M408 807h-263l191 694h379zM877 807h-263l191 694h379z" />
<glyph unicode="&#x201e;" horiz-adv-x="1054" d="M172 -301h-264l190 694h381zM641 -301h-264l190 694h381z" />
<glyph unicode="&#x2022;" horiz-adv-x="851" d="M399 172q-146 0 -234.5 84t-88.5 213q0 170 109 280.5t268 110.5q152 0 240.5 -82t88.5 -215q0 -166 -106 -278.5t-277 -112.5z" />
<glyph unicode="&#x2026;" horiz-adv-x="1726" d="M201 -18q-86 0 -138.5 50t-52.5 126q0 99 64 164t157 65q89 0 142 -49t53 -127q0 -97 -62 -163t-163 -66zM776 -18q-86 0 -138 49.5t-52 126.5q0 99 64 164t157 65q89 0 141.5 -49t52.5 -127q0 -97 -62 -163t-163 -66zM1352 -18q-86 0 -138.5 50t-52.5 126q0 99 64 164 t157 65q89 0 142 -49t53 -127q0 -97 -62 -163t-163 -66z" />
<glyph unicode="&#x202f;" horiz-adv-x="396" />
<glyph unicode="&#x2039;" horiz-adv-x="673" d="M518 139l-268 -135l-223 512l440 510l221 -201l-309 -346z" />
<glyph unicode="&#x203a;" horiz-adv-x="673" d="M647 516l-440 -512l-221 201l309 346l-139 342l268 133z" />
<glyph unicode="&#x205f;" horiz-adv-x="495" />
<glyph unicode="&#x20ac;" horiz-adv-x="1400" d="M840 297q151 0 241 154l234 -211q-90 -130 -229 -196.5t-291 -66.5q-243 0 -397.5 141.5t-174.5 379.5h-151l37 174h114q7 60 17 102h-109l37 176h121q90 232 269 375t411 143q179 0 309.5 -78.5t198.5 -222.5l-306 -153q-24 60 -81.5 97.5t-133.5 37.5q-180 0 -286 -199 h407l-37 -176h-434q-13 -76 -16 -102h428l-37 -174h-389q18 -107 81.5 -154t166.5 -47z" />
<glyph unicode="&#x2122;" horiz-adv-x="1464" d="M242 1446h540l-39 -176h-165l-99 -459h-203l99 459h-170zM1161 1155l201 291h237l-137 -635h-192l71 340l-174 -246h-106l-62 273l-77 -367h-193l135 635h234z" />
<glyph unicode="&#x25fc;" horiz-adv-x="1034" d="M0 1034h1034v-1034h-1034v1034z" />
</font>
</defs>
</svg>
