<?xml version="1.0" standalone="no"?>
<!DOCTYPE svg PUBLIC "-//W3C//DTD SVG 1.1//EN" "http://www.w3.org/Graphics/SVG/1.1/DTD/svg11.dtd" >
<svg xmlns="http://www.w3.org/2000/svg" xmlns:xlink="http://www.w3.org/1999/xlink" version="1.1">
<metadata></metadata>
<defs>
<font id="zabal_demolight_italic" horiz-adv-x="1269" >
<font-face units-per-em="2048" ascent="1638" descent="-410" />
<missing-glyph horiz-adv-x="454" />
<glyph unicode="&#xfb01;" horiz-adv-x="1153" d="M121 0l196 928h-194l20 96h195l37 176q33 157 111.5 239.5t228.5 82.5q85 0 151 -19l-20 -94q-65 18 -139 18q-103 0 -152.5 -58.5t-77.5 -188.5l-33 -156h314l-21 -96h-313l-199 -928h-104zM764 0l217 1024h104l-217 -1024h-104zM1020 1364q0 39 29 64.5t67 25.5 q34 0 55 -21t21 -53q0 -39 -29 -64.5t-67 -25.5q-34 0 -55 20t-21 54z" />
<glyph unicode="&#xfb02;" horiz-adv-x="1150" d="M121 0l196 928h-194l20 96h195l37 176q33 157 111.5 239.5t228.5 82.5q85 0 151 -19l-20 -94q-65 18 -139 18q-103 0 -152.5 -58.5t-77.5 -188.5l-33 -156h314l-21 -96h-313l-199 -928h-104zM764 0l317 1501h105l-318 -1501h-104z" />
<glyph horiz-adv-x="0" />
<glyph horiz-adv-x="682" />
<glyph horiz-adv-x="0" />
<glyph horiz-adv-x="0" />
<glyph unicode="&#xd;" horiz-adv-x="681" />
<glyph unicode=" "  horiz-adv-x="454" />
<glyph unicode="&#x09;" horiz-adv-x="454" />
<glyph unicode="&#xa0;" horiz-adv-x="454" />
<glyph unicode="!" horiz-adv-x="442" d="M37 66q0 44 29.5 72t70.5 28q37 0 59.5 -21t22.5 -55q0 -46 -28.5 -73t-71.5 -27q-37 0 -59.5 21t-22.5 55zM152 371l202 1075h135l-253 -1075h-84z" />
<glyph unicode="&#x22;" horiz-adv-x="677" d="M221 975l113 526h96l-111 -526h-98zM557 975l111 526h98l-113 -526h-96z" />
<glyph unicode="#" horiz-adv-x="1363" d="M18 403l19 91h303l195 452h-283l20 92h301l177 408h102l-176 -408h375l176 408h102l-176 -408h283l-19 -92h-303l-194 -452h280l-18 -91h-301l-174 -403h-103l174 403h-375l-174 -403h-102l174 403h-283zM442 494h375l195 452h-375z" />
<glyph unicode="$" horiz-adv-x="1161" d="M39 305l106 37q27 -104 110 -167.5t204 -84.5l127 596q-78 25 -134 51t-108.5 65.5t-80 95.5t-27.5 128q0 192 127.5 316t330.5 124q22 0 72 -4l35 168h84l-39 -182q107 -29 183.5 -93.5t107.5 -160.5l-107 -37q-49 144 -205 189l-125 -586q81 -29 137 -57t104 -67 t71.5 -91t23.5 -117q0 -202 -131 -325t-348 -123h-37l-35 -164h-86l37 174q-150 24 -255.5 104.5t-141.5 210.5zM348 1036q0 -52 19.5 -91t61 -68.5t84 -48.5t110.5 -42l120 576q-18 2 -57 2q-151 0 -244.5 -93t-93.5 -235zM541 82h24q162 0 261.5 93t99.5 241 q0 89 -64.5 144.5t-197.5 101.5z" />
<glyph unicode="%" horiz-adv-x="1966" d="M176 911q0 83 16.5 163t51 151t82.5 124.5t115.5 85t146.5 31.5q141 0 227 -91.5t86 -246.5q0 -84 -16.5 -164t-51 -151t-82.5 -124.5t-115.5 -84.5t-146.5 -31q-141 0 -227 91t-86 247zM274 920q0 -120 59 -189t165 -69q73 0 133 42t96.5 109t56 146.5t19.5 160.5 q0 119 -58 187.5t-163 68.5q-74 0 -134.5 -41.5t-97 -108.5t-56.5 -146t-20 -160zM395 0l1151 1446h115l-1149 -1446h-117zM1155 317q0 83 16.5 163t51 151t82.5 124.5t115.5 85t146.5 31.5q141 0 227 -91t86 -246q0 -84 -16.5 -164t-51 -151t-82.5 -124.5t-115.5 -84.5 t-146.5 -31q-141 0 -227 90.5t-86 246.5zM1253 326q0 -120 59 -189t165 -69q73 0 133 42t96.5 109t56 146.5t19.5 160.5q0 119 -58 187.5t-163 68.5q-74 0 -134.5 -41.5t-97 -108.5t-56.5 -146t-20 -160z" />
<glyph unicode="&#x26;" horiz-adv-x="1427" d="M94 354q0 78 26 143t65 110t102.5 86t119.5 66.5t136 55.5q-111 161 -111 299q0 151 110.5 251.5t268.5 100.5q151 0 240.5 -78t89.5 -196q0 -51 -14 -95.5t-35 -78t-58 -65.5t-71 -54t-86 -46t-91 -39t-98 -36l350 -487q192 202 244 495h107q-32 -169 -109 -316.5 t-186 -256.5l118 -168l-77 -59l-115 161q-210 -167 -455 -167q-201 0 -336 104.5t-135 269.5zM201 369q0 -132 110.5 -213.5t266.5 -81.5q208 0 387 149l-373 520q-51 -19 -87 -34t-80 -37t-73.5 -42.5t-60.5 -49t-49 -59t-29.5 -69.5t-11.5 -83zM537 1120q0 -128 100 -270 q65 23 104 38.5t92.5 40t84.5 48t61.5 54.5t44.5 69t14 82q0 84 -62.5 138t-168.5 54q-109 0 -189.5 -74t-80.5 -180z" />
<glyph unicode="'" horiz-adv-x="342" d="M221 975l113 526h96l-111 -526h-98z" />
<glyph unicode="(" horiz-adv-x="661" d="M94 342q0 225 83.5 446.5t241 401t359.5 270.5l31 -94q-181 -80 -321.5 -245t-213.5 -366t-73 -403q0 -199 70.5 -349t201.5 -220l-65 -72q-151 85 -232.5 248.5t-81.5 382.5z" />
<glyph unicode=")" horiz-adv-x="661" d="M-117 -195q180 79 321 243.5t214.5 366t73.5 402.5q0 200 -71 349.5t-202 219.5l66 74q151 -86 232 -249.5t81 -381.5q0 -225 -83.5 -446.5t-241 -401t-359.5 -270.5z" />
<glyph unicode="*" horiz-adv-x="864" d="M186 1040l324 93l-244 206l47 82l232 -247l49 327h96l-90 -338l289 121l47 -84l-322 -92l244 -207l-49 -82l-229 246l-52 -326h-94l90 338l-288 -121z" />
<glyph unicode="+" horiz-adv-x="1075" d="M106 590l23 98h395l88 414h101l-88 -414h397l-21 -98h-397l-88 -414h-100l88 414h-398z" />
<glyph unicode="," horiz-adv-x="442" d="M-57 -307l180 526h131l-221 -526h-90z" />
<glyph unicode="-" horiz-adv-x="870" d="M98 465l19 98h657l-20 -98h-656z" />
<glyph unicode="." horiz-adv-x="442" d="M37 66q0 44 29.5 72t70.5 28q37 0 59.5 -21t22.5 -55q0 -46 -28.5 -73t-71.5 -27q-37 0 -59.5 21t-22.5 55z" />
<glyph unicode="/" horiz-adv-x="628" d="M-188 -258l899 1759h110l-899 -1759h-110z" />
<glyph unicode="0" horiz-adv-x="1437" d="M154 555q0 137 30.5 269t90.5 246.5t143 201t195.5 136.5t240.5 50q248 0 385 -149t137 -410q0 -174 -49 -337t-137 -291t-222.5 -205.5t-293.5 -77.5q-246 0 -383 153t-137 414zM264 559q0 -223 108 -347t308 -124q136 0 249.5 70.5t185.5 186t111.5 257.5t39.5 291 q0 221 -109.5 343t-308.5 122q-110 0 -205 -45.5t-163.5 -123.5t-118 -180t-73.5 -217t-24 -233z" />
<glyph unicode="1" horiz-adv-x="765" d="M199 1233l553 221h26l-307 -1454h-111l279 1305l-426 -170z" />
<glyph unicode="2" horiz-adv-x="1181" d="M0 0l18 84l344 242q267 189 361 265q240 194 309 358q33 79 33 157q0 122 -93 191t-239 69q-286 0 -422 -225l-73 65q66 124 199 192t313 68q119 0 214 -39t153.5 -122.5t58.5 -200.5q0 -53 -13 -105.5t-33 -98.5t-56 -96.5t-69.5 -90.5t-88 -89.5t-96.5 -85 t-109.5 -85.5t-112.5 -82t-119 -84l-268 -187h795l-23 -100h-983z" />
<glyph unicode="3" horiz-adv-x="1187" d="M29 262l102 37q40 -106 151.5 -162.5t254.5 -56.5q183 0 299 113t116 284q0 76 -33 135t-89 94.5t-124.5 53.5t-144.5 18q-69 0 -149 -26l-41 63l635 531h-674l20 100h858l-18 -78l-610 -500q208 -2 343.5 -100.5t135.5 -275.5q0 -225 -147 -368.5t-384 -143.5 q-114 0 -214 30t-178.5 95t-108.5 157z" />
<glyph unicode="4" horiz-adv-x="1234" d="M53 330l17 78l686 1038h129l-676 -1020h616l93 434h102l-92 -434h229l-20 -96h-230l-69 -330h-105l72 330h-752z" />
<glyph unicode="5" horiz-adv-x="1179" d="M27 262l104 37q39 -106 143.5 -162.5t249.5 -56.5q125 0 222.5 56.5t148.5 150.5t51 207q0 83 -30 145.5t-82 99t-114.5 54.5t-135.5 18q-207 0 -363 -141l-51 16l231 760h813l-20 -100h-717l-158 -517q125 82 302 82q85 0 161.5 -25t138 -74t98 -130t36.5 -184 q0 -143 -66.5 -261t-189 -187.5t-277.5 -69.5q-176 0 -311.5 73t-183.5 209z" />
<glyph unicode="6" horiz-adv-x="1280" d="M117 418q0 68 15.5 136t39.5 127.5t66.5 124t83 116.5t103 114t113.5 108.5t126.5 108t129.5 103t136 102.5l106 -51q-198 -143 -349.5 -270.5t-264.5 -259.5q128 84 278 84q206 0 335.5 -118.5t129.5 -305.5q0 -155 -71.5 -282.5t-200.5 -201t-289 -73.5 q-218 0 -352.5 121.5t-134.5 316.5zM225 424q0 -146 104 -245t285 -99q193 0 317 129.5t124 318.5q0 153 -107 244.5t-278 91.5q-93 0 -176 -35t-142 -94.5t-93 -140.5t-34 -170z" />
<glyph unicode="7" horiz-adv-x="1095" d="M125 0l946 1346h-790l20 100h930l-17 -78l-958 -1368h-131z" />
<glyph unicode="8" horiz-adv-x="1259" d="M82 352q0 176 112.5 289.5t303.5 146.5q-99 42 -156 116t-57 167q0 181 130.5 288t340.5 107q129 0 231.5 -37t166 -114.5t63.5 -184.5q0 -145 -87.5 -242t-234.5 -130q108 -47 169.5 -135t61.5 -193q0 -207 -142 -328.5t-384 -121.5q-82 0 -157.5 15t-141.5 45.5 t-114.5 74t-76.5 104.5t-28 133zM193 369q0 -74 33.5 -130.5t92 -90.5t131.5 -51t158 -17q178 0 293 94t115 250q0 145 -106 221t-275 76q-120 0 -220.5 -43t-161 -124t-60.5 -185zM393 1073q0 -120 102.5 -186t262.5 -66q157 0 253.5 81t96.5 216q0 120 -99 184t-249 64 q-163 0 -265 -80.5t-102 -212.5z" />
<glyph unicode="9" horiz-adv-x="1282" d="M207 909q0 155 71.5 282.5t200.5 201t289 73.5q218 0 352.5 -121.5t134.5 -316.5q0 -68 -15.5 -136t-39.5 -127.5t-66.5 -124t-83 -116.5t-103 -114t-113.5 -108.5t-126.5 -108t-129.5 -103t-136 -102.5l-106 51q415 299 614 530q-128 -84 -278 -84q-206 0 -335.5 118.5 t-129.5 305.5zM317 918q0 -153 107 -244.5t278 -91.5q93 0 176 35t142 94.5t93 140.5t34 170q0 146 -104 245t-285 99q-193 0 -317 -129.5t-124 -318.5z" />
<glyph unicode=":" horiz-adv-x="442" d="M37 66q0 44 29.5 72t70.5 28q37 0 59.5 -21t22.5 -55q0 -46 -28.5 -73t-71.5 -27q-37 0 -59.5 21t-22.5 55zM223 938q0 44 29 72t70 28q36 0 58.5 -21.5t22.5 -55.5q0 -46 -28.5 -73.5t-71.5 -27.5q-37 0 -58.5 21.5t-21.5 56.5z" />
<glyph unicode=";" horiz-adv-x="448" d="M-57 -307l180 526h131l-221 -526h-90zM217 938q0 44 29.5 72t70.5 28q37 0 59.5 -21.5t22.5 -55.5q0 -46 -28.5 -73.5t-71.5 -27.5q-37 0 -59.5 21.5t-22.5 56.5z" />
<glyph unicode="&#x3c;" horiz-adv-x="980" d="M74 594l18 90l914 379l-23 -115l-772 -317l637 -318l-23 -98z" />
<glyph unicode="=" horiz-adv-x="1034" d="M57 346l19 96h852l-21 -96h-850zM162 831l18 99h852l-18 -99h-852z" />
<glyph unicode="&#x3e;" horiz-adv-x="980" d="M31 215l22 115l772 317l-637 318l21 98l754 -379l-21 -90z" />
<glyph unicode="?" horiz-adv-x="1034" d="M186 1186q67 137 189 207.5t268 70.5q178 0 288.5 -88t110.5 -241q0 -75 -32.5 -147.5t-84 -131t-113.5 -113.5t-124 -103.5t-112.5 -93t-80.5 -90t-28 -85.5h-92q-2 53 27.5 107t78.5 101t109 95t120 98.5t109.5 102.5t81 115t31.5 128q0 111 -80.5 178.5t-218.5 67.5 q-119 0 -214.5 -59.5t-139.5 -163.5zM295 66q0 44 29.5 72t70.5 28q37 0 59.5 -21t22.5 -55q0 -46 -28.5 -73t-71.5 -27q-37 0 -59.5 21t-22.5 55z" />
<glyph unicode="@" horiz-adv-x="1695" d="M98 422q0 233 106.5 427t296 307.5t421.5 113.5q197 0 353 -77t245.5 -220.5t89.5 -329.5q0 -141 -42.5 -256.5t-129 -186.5t-201.5 -71q-106 0 -166.5 56.5t-60.5 150.5q-44 -62 -107 -95.5t-133 -33.5q-118 0 -190 75.5t-72 192.5q0 149 97.5 260t234.5 111 q92 0 152.5 -47.5t76.5 -118.5l31 151h98l-82 -425q-17 -94 15 -142.5t110 -48.5q68 0 121.5 36.5t85 97t47.5 133t16 151.5q0 162 -80 286.5t-215.5 189.5t-302.5 65q-205 0 -369.5 -99.5t-255.5 -268.5t-91 -374q0 -172 88 -304.5t236.5 -202.5t332.5 -70q192 0 338 73 l20 -90q-174 -78 -368 -78q-211 0 -380.5 82t-267.5 233.5t-98 346.5zM608 485q0 -85 50.5 -137.5t142.5 -52.5q103 0 173 81.5t70 188.5q0 84 -52 137.5t-142 53.5q-102 0 -172 -80t-70 -191z" />
<glyph unicode="A" horiz-adv-x="1308" d="M-72 0l863 1446h124l248 -1446h-110l-66 395h-700l-232 -395h-127zM348 498h623l-140 821z" />
<glyph unicode="B" horiz-adv-x="1222" d="M78 0l307 1446h412q106 0 184.5 -25.5t122 -70.5t64 -98.5t20.5 -116.5q0 -173 -98.5 -275.5t-276.5 -132.5q133 -30 203.5 -110t70.5 -189q0 -225 -146.5 -326.5t-416.5 -101.5h-446zM211 102h317q82 0 147.5 9.5t122.5 33t95.5 60t60 93t21.5 130.5q0 118 -91.5 182 t-277.5 64h-274zM354 776h267q454 0 454 344q0 104 -77 163.5t-232 59.5h-291z" />
<glyph unicode="C" horiz-adv-x="1574" d="M172 623q0 172 58 326.5t160 268.5t250.5 181t320.5 67q206 0 359.5 -97.5t217.5 -272.5l-113 -37q-53 148 -178 226.5t-299 78.5q-145 0 -270.5 -59t-210.5 -159t-133.5 -233t-48.5 -280q0 -253 144.5 -402t395.5 -149q370 0 555 344l86 -55q-218 -391 -659 -391 q-289 0 -462 174t-173 469z" />
<glyph unicode="D" horiz-adv-x="1468" d="M78 0l307 1446h350q300 0 478 -161.5t178 -436.5q0 -135 -34.5 -258.5t-108.5 -231.5t-181 -187.5t-261.5 -125t-340.5 -45.5h-387zM211 102h278q157 0 288.5 40.5t223 110t155.5 164t94 202.5t30 225q0 229 -145 364t-390 135h-270z" />
<glyph unicode="E" horiz-adv-x="1132" d="M78 0l307 1446h823l-22 -103h-713l-119 -567h621l-23 -102h-620l-121 -572h735l-22 -102h-846z" />
<glyph unicode="F" horiz-adv-x="1048" d="M78 0l307 1446h793l-23 -103h-682l-119 -567h609l-23 -102h-608l-144 -674h-110z" />
<glyph unicode="G" horiz-adv-x="1654" d="M170 623q0 171 63 326.5t171 269t261.5 180.5t325.5 67q208 0 369.5 -98t224.5 -272l-115 -37q-51 146 -183 225.5t-308 79.5q-146 0 -276 -59t-221.5 -158.5t-145 -233.5t-53.5 -280q0 -250 156.5 -400.5t410.5 -150.5q236 0 396.5 140t226.5 403h-609l21 100h719 l-9 -47q-67 -340 -264 -519t-500 -179q-291 0 -476 175.5t-185 467.5z" />
<glyph unicode="H" horiz-adv-x="1435" d="M78 0l307 1446h111l-142 -670h842l141 670h111l-307 -1446h-111l144 674h-842l-144 -674h-110z" />
<glyph unicode="I" horiz-adv-x="509" d="M90 0l307 1446h113l-307 -1446h-113z" />
<glyph unicode="J" horiz-adv-x="1099" d="M27 293l102 37q34 -125 123.5 -187.5t218.5 -62.5q148 0 236 101.5t135 312.5l200 952h111l-203 -963q-26 -118 -64 -207t-95 -157.5t-138 -103.5t-184 -35q-173 0 -292 86t-150 227z" />
<glyph unicode="K" d="M78 0l307 1446h113l-146 -686l832 686h164l-863 -711l617 -735h-135l-621 737l-156 -737h-112z" />
<glyph unicode="L" horiz-adv-x="1081" d="M78 0l307 1446h111l-285 -1344h727l-23 -102h-837z" />
<glyph unicode="M" horiz-adv-x="1767" d="M78 0l307 1446h115l348 -1053l815 1053h115l-308 -1446h-108l258 1217l-754 -973h-82l-329 1005l-267 -1249h-110z" />
<glyph unicode="N" horiz-adv-x="1452" d="M78 0l307 1446h102l600 -1258l267 1258h110l-307 -1446h-102l-600 1257l-267 -1257h-110z" />
<glyph unicode="O" horiz-adv-x="1734" d="M170 623q0 171 62.5 326t170 268.5t260 181t324.5 67.5q195 0 347.5 -81t236.5 -227.5t84 -334.5q0 -169 -62.5 -323.5t-169.5 -269t-259.5 -182.5t-323.5 -68q-297 0 -483.5 179t-186.5 464zM283 631q0 -249 156 -399t413 -150q146 0 276 60.5t220.5 161t143 235 t52.5 278.5q0 245 -158 396t-411 151q-146 0 -275.5 -59.5t-220 -159t-143.5 -234t-53 -280.5z" />
<glyph unicode="P" horiz-adv-x="1185" d="M78 0l307 1446h395q209 0 316.5 -84.5t107.5 -247.5q0 -115 -33 -207.5t-100 -163t-179 -109t-261 -38.5h-316l-127 -596h-110zM338 696h303q226 0 338.5 106.5t112.5 299.5q0 121 -93 181t-260 60h-266z" />
<glyph unicode="Q" horiz-adv-x="1734" d="M170 623q0 171 62.5 326t170 268.5t260 181t324.5 67.5q195 0 347.5 -81t236.5 -227.5t84 -334.5q0 -190 -77 -359.5t-214 -289.5l92 -164l-94 -51l-82 152q-200 -131 -440 -131q-297 0 -483.5 179t-186.5 464zM283 631q0 -249 156 -399t413 -150q206 0 369 113l-256 464 l88 54l250 -455q114 105 177.5 251t63.5 308q0 245 -158 396t-411 151q-146 0 -275.5 -59.5t-220 -159t-143.5 -234t-53 -280.5z" />
<glyph unicode="R" horiz-adv-x="1259" d="M78 0l307 1446h389q208 0 315 -92.5t107 -237.5q0 -198 -115.5 -329t-332.5 -148l346 -639h-123l-336 623h-313l-132 -623h-112zM344 725h309q218 0 324 101t106 282q0 113 -86 174t-245 61h-277z" />
<glyph unicode="S" horiz-adv-x="1161" d="M39 305l106 37q22 -85 84.5 -145t148 -87.5t187.5 -27.5q162 0 260.5 91.5t98.5 238.5q0 52 -21 92t-66.5 72t-99.5 55.5t-137 50.5q-64 20 -111 39t-97.5 48.5t-82.5 64t-52.5 84t-20.5 108.5q0 192 127.5 316t330.5 124q159 0 280 -71.5t163 -200.5l-107 -37 q-35 101 -123.5 154t-220.5 53q-151 0 -244.5 -93t-93.5 -235q0 -45 16.5 -81.5t40.5 -60.5t68.5 -47t82 -37t99.5 -34q73 -25 124.5 -46.5t103.5 -52.5t83 -65.5t50.5 -82t19.5 -105.5q0 -200 -130.5 -322t-348.5 -122q-193 0 -334 84.5t-184 240.5z" />
<glyph unicode="T" horiz-adv-x="1181" d="M238 1343l22 103h1059l-23 -103h-473l-284 -1343h-113l287 1343h-475z" />
<glyph unicode="U" horiz-adv-x="1372" d="M150 361q-5 37 -5 77q0 88 23 189l174 819h111l-174 -825q-21 -101 -21 -183q0 -138 59 -222q95 -134 351 -134q188 0 297.5 115.5t156.5 339.5l193 909h110l-194 -924q-119 -542 -580 -542q-154 0 -263 46t-165.5 131t-72.5 204z" />
<glyph unicode="V" horiz-adv-x="1275" d="M236 1446h108l205 -1311l762 1311h127l-846 -1446h-125z" />
<glyph unicode="W" horiz-adv-x="1931" d="M236 1446h108l78 -1292l684 1292h117l123 -1290l626 1290h121l-711 -1446h-118l-127 1284l-684 -1284h-121z" />
<glyph unicode="X" horiz-adv-x="1236" d="M-53 0l655 758l-313 688h119l276 -610l526 610h144l-615 -709l334 -737h-119l-297 659l-567 -659h-143z" />
<glyph unicode="Y" horiz-adv-x="1198" d="M225 1446h117l287 -748l602 748h139l-700 -862l-125 -584h-111l123 586z" />
<glyph unicode="Z" horiz-adv-x="1155" d="M-16 0l18 84l1075 1259h-784l22 103h936l-16 -84l-1075 -1260h854l-23 -102h-1007z" />
<glyph unicode="[" horiz-adv-x="622" d="M4 -281l369 1727h413l-22 -94h-307l-328 -1538h309l-20 -95h-414z" />
<glyph unicode="\" horiz-adv-x="628" d="M227 1501h99l163 -1759h-98z" />
<glyph unicode="]" horiz-adv-x="622" d="M-133 -281l20 95h310l327 1538h-311l23 94h413l-368 -1727h-414z" />
<glyph unicode="^" horiz-adv-x="1069" d="M193 807l503 639h72l233 -639h-102l-184 508l-400 -508h-122z" />
<glyph unicode="_" horiz-adv-x="897" d="M-178 -236l18 97h938l-20 -97h-936z" />
<glyph unicode="`" horiz-adv-x="647" d="M399 1501h107l100 -295h-86z" />
<glyph unicode="a" d="M94 434q0 164 70.5 303.5t197 223t279.5 83.5q171 0 276.5 -85.5t139.5 -225.5l61 291h105l-217 -1024h-105l43 207q-68 -106 -172.5 -166.5t-232.5 -60.5q-201 0 -323 128.5t-122 325.5zM201 444q0 -161 96.5 -265.5t265.5 -104.5q130 0 235 70.5t161.5 184t56.5 242.5 q0 161 -98 269t-267 108q-129 0 -233.5 -72.5t-160.5 -187t-56 -244.5z" />
<glyph unicode="b" horiz-adv-x="1280" d="M55 0l320 1501h104l-143 -684q69 106 176.5 166.5t239.5 60.5q200 0 316 -128t116 -328q0 -163 -69 -302t-193.5 -222.5t-276.5 -83.5q-172 0 -280 85.5t-142 223.5l-63 -289h-105zM264 453q0 -163 99 -271t270 -108q129 0 232.5 72.5t158.5 187.5t55 246q0 160 -95 264 t-261 104q-132 0 -238.5 -70.5t-163.5 -183.5t-57 -241z" />
<glyph unicode="c" horiz-adv-x="1142" d="M94 438q0 121 44.5 232t120 193.5t182 131.5t225.5 49q155 0 260 -69t153 -195l-102 -35q-83 203 -318 203q-132 0 -238.5 -71.5t-164 -186.5t-57.5 -246q0 -160 97.5 -264t272.5 -104q229 0 357 207l88 -54q-76 -121 -190.5 -184t-256.5 -63q-217 0 -345 125t-128 331z " />
<glyph unicode="d" d="M94 434q0 164 68.5 303.5t193 223t277.5 83.5q171 0 279.5 -86t142.5 -225l166 768h104l-319 -1501h-105l43 207q-69 -106 -176.5 -166.5t-237.5 -60.5q-199 0 -317.5 128t-118.5 326zM201 444q0 -162 93 -266t261 -104q131 0 237.5 70.5t164 184t57.5 242.5 q0 161 -99.5 269t-269.5 108q-129 0 -232.5 -72.5t-157.5 -187t-54 -244.5z" />
<glyph unicode="e" horiz-adv-x="1204" d="M94 432q0 122 44 234t119 195.5t182.5 133t228.5 49.5q139 0 241.5 -59.5t153.5 -159.5t51 -225q0 -76 -10 -129h-907v-31q0 -170 106.5 -268t288.5 -98q223 0 356 198l86 -51q-163 -241 -450 -241q-217 0 -353.5 123.5t-136.5 328.5zM211 563h801q1 15 1 29 q0 150 -87 248q-95 108 -267 108q-165 0 -287.5 -109.5t-160.5 -275.5z" />
<glyph unicode="f" horiz-adv-x="696" d="M121 0l196 928h-194l20 96h195l37 176q33 157 111.5 239.5t228.5 82.5q85 0 151 -19l-20 -94q-65 18 -139 18q-103 0 -152.5 -58.5t-77.5 -188.5l-33 -156h314l-21 -96h-313l-199 -928h-104z" />
<glyph unicode="g" d="M31 -170l104 41q81 -199 359 -199q161 0 271.5 103.5t152.5 302.5l30 137q-68 -103 -174 -159t-239 -56q-199 0 -318 128t-119 325q0 121 40.5 229.5t111 188.5t171.5 126.5t216 46.5q172 0 279 -85.5t141 -225.5l63 291h105l-201 -942q-54 -252 -189 -378t-356 -126 q-168 0 -285 67t-163 185zM205 463q0 -160 93.5 -263.5t262.5 -103.5q197 0 326 139t129 336q0 161 -99 269t-268 108q-130 0 -233 -68.5t-157 -178.5t-54 -238z" />
<glyph unicode="h" horiz-adv-x="1183" d="M55 0l320 1501h104l-147 -694q66 105 174.5 171t236.5 66q189 0 273 -129q53 -83 54 -204q0 -69 -17 -150l-119 -561h-105l119 545q18 84 18 150q0 96 -37 155q-62 100 -212 100q-158 0 -281.5 -121.5t-169.5 -339.5l-106 -489h-105z" />
<glyph unicode="i" horiz-adv-x="456" d="M68 0l217 1024h104l-217 -1024h-104zM324 1364q0 39 29 64.5t67 25.5q34 0 55 -21t21 -53q0 -38 -29.5 -64t-67.5 -26q-34 0 -54.5 20t-20.5 54z" />
<glyph unicode="j" horiz-adv-x="456" d="M-289 -401l19 94q55 -21 123 -21q76 0 122.5 57t71.5 175l240 1120h104l-244 -1143q-31 -146 -101.5 -224.5t-197.5 -78.5q-79 0 -137 21zM326 1364q0 39 29 64.5t67 25.5q34 0 55 -21t21 -53q0 -38 -29.5 -64t-67.5 -26q-34 0 -54.5 20t-20.5 54z" />
<glyph unicode="k" horiz-adv-x="1048" d="M55 0l320 1501h104l-203 -956l633 479h154l-666 -500l494 -524h-125l-494 524l-112 -524h-105z" />
<glyph unicode="l" horiz-adv-x="456" d="M68 0l317 1501h104l-317 -1501h-104z" />
<glyph unicode="m" horiz-adv-x="1822" d="M55 0l219 1024h105l-41 -199q133 219 356 219q279 0 310 -253q62 114 165.5 183.5t225.5 69.5q196 0 272 -122q49 -78 49 -190q0 -64 -16 -138l-127 -594h-105l125 590q16 71 16 129q0 83 -33 138q-55 93 -208 93q-136 0 -236 -100t-143 -279l-119 -571h-106l125 588 q14 71 14 128q0 234 -244 234q-138 0 -240 -106.5t-143 -296.5l-114 -547h-107z" />
<glyph unicode="n" horiz-adv-x="1173" d="M55 0l219 1024h103l-45 -217q67 106 173.5 171.5t235.5 65.5q191 0 271 -126q50 -78 49 -195q0 -73 -19 -162l-118 -561h-105l119 545q18 85 18 152q0 95 -36 153q-61 100 -211 100q-157 0 -278 -121.5t-167 -339.5l-104 -489h-105z" />
<glyph unicode="o" horiz-adv-x="1257" d="M94 438q0 165 78 304.5t213.5 220.5t296.5 81q222 0 352.5 -129.5t130.5 -328.5q0 -166 -78 -305.5t-213 -220t-296 -80.5q-222 0 -353 129.5t-131 328.5zM199 446q0 -163 103.5 -267.5t283.5 -104.5q132 0 241.5 69.5t170.5 185t61 249.5q0 161 -103.5 265.5 t-281.5 104.5q-132 0 -241.5 -68t-171.5 -183t-62 -251z" />
<glyph unicode="p" horiz-adv-x="1280" d="M-31 -401l303 1425h105l-43 -207q69 105 181 166t243 61q200 0 313 -127.5t113 -328.5q0 -164 -67 -302.5t-190 -222t-276 -83.5q-173 0 -283.5 85.5t-144.5 223.5l-149 -690h-105zM264 453q0 -162 102.5 -270.5t272.5 -108.5q129 0 231.5 72.5t155.5 187.5t53 246 q0 161 -91.5 264.5t-258.5 103.5q-131 0 -239 -70.5t-167 -183.5t-59 -241z" />
<glyph unicode="q" d="M94 434q0 164 69 303.5t194 223t278 83.5q171 0 279.5 -86t142.5 -225l61 291h105l-303 -1425h-105l129 608q-68 -106 -175 -166.5t-237 -60.5q-199 0 -318.5 128.5t-119.5 325.5zM201 444q0 -161 94 -265.5t262 -104.5q131 0 237.5 70.5t164 184t57.5 242.5 q0 161 -99.5 269t-269.5 108q-129 0 -233 -72.5t-158.5 -187t-54.5 -244.5z" />
<glyph unicode="r" horiz-adv-x="710" d="M55 0l219 1024h105l-43 -203q140 223 373 223q64 0 82 -6l-23 -102q-36 8 -92 8q-151 0 -255.5 -111t-146.5 -303l-112 -530h-107z" />
<glyph unicode="s" horiz-adv-x="944" d="M18 233l103 31q29 -88 119.5 -139t218.5 -51q116 0 186 60.5t70 158.5q0 66 -57.5 105t-188.5 77q-54 15 -93.5 29.5t-82 37t-69.5 48.5t-44.5 63t-17.5 82q0 136 103 222.5t263 86.5q134 0 230.5 -51.5t132.5 -148.5l-100 -35q-57 139 -275 139q-110 0 -181 -57 t-71 -148q0 -35 17.5 -62t54 -47.5t72.5 -34.5t94 -33q7 -2 10 -3q80 -26 128.5 -47t93 -51t64 -69t19.5 -91q0 -147 -105 -236t-270 -89q-96 0 -182 27.5t-152 86t-90 139.5z" />
<glyph unicode="t" horiz-adv-x="735" d="M123 928l20 96h199l64 295h104l-64 -295h318l-21 -96h-317l-129 -606q-11 -53 -11 -94q0 -64 26 -96q44 -54 177 -54q44 0 84 8l-20 -96q-32 -4 -70 -4q-186 0 -257 83q-46 54 -46 147q0 50 13 110l129 602h-199z" />
<glyph unicode="u" horiz-adv-x="1159" d="M127 461l119 563h104l-119 -547q-18 -85 -18 -152q-1 -94 35 -152q60 -99 211 -99q156 0 277.5 121t166.5 337l105 492h104l-219 -1024h-105l48 215q-67 -106 -172 -170.5t-234 -64.5q-188 0 -269 128q-51 81 -51 201q0 70 17 152z" />
<glyph unicode="v" horiz-adv-x="1052" d="M147 1024h107l186 -901l561 901h123l-647 -1024h-110z" />
<glyph unicode="w" horiz-adv-x="1515" d="M147 1024h103l78 -872l483 872h111l100 -881l448 881h117l-534 -1024h-107l-106 879l-488 -879h-106z" />
<glyph unicode="x" horiz-adv-x="1038" d="M-63 0l518 537l-279 487h117l235 -422l404 422h143l-489 -504l301 -520h-117l-258 457l-434 -457h-141z" />
<glyph unicode="y" horiz-adv-x="1052" d="M117 -401l250 399l-220 1026h107l186 -907l561 907h123l-886 -1425h-121z" />
<glyph unicode="z" horiz-adv-x="970" d="M-14 0l16 72l782 856h-585l20 96h735l-14 -72l-784 -858h645l-21 -94h-794z" />
<glyph unicode="{" horiz-adv-x="694" d="M25 537l18 92h37q92 0 136 34t63 121l88 412q29 135 100 192.5t203 57.5h188l-20 -94h-162q-90 0 -138.5 -38.5t-68.5 -127.5l-86 -404q-23 -101 -68.5 -150t-126.5 -63q63 -26 91 -84t10 -145l-76 -356q-14 -70 26 -120t111 -50h162l-20 -95h-158q-125 0 -187 73.5 t-36 195.5l77 366q18 81 -20 132t-123 51h-20z" />
<glyph unicode="|" horiz-adv-x="503" d="M8 -401l434 2048h101l-432 -2048h-103z" />
<glyph unicode="}" horiz-adv-x="694" d="M-133 -281l20 95h162q91 0 139.5 38.5t67.5 127.5l86 403q23 102 68.5 150.5t126.5 62.5q-63 26 -91 84t-10 145l76 357q14 70 -25.5 120t-111.5 50h-162l23 94h155q125 0 187 -73t36 -195l-75 -367q-18 -81 20 -131.5t123 -50.5h18l-18 -92h-37q-90 0 -135 -34.5 t-64 -121.5l-88 -412q-29 -135 -100 -192.5t-203 -57.5h-188z" />
<glyph unicode="~" horiz-adv-x="1183" d="M147 590q43 94 109.5 146t153.5 52q47 0 94.5 -20t87 -49t78 -58t82.5 -49t86 -20q110 0 184 137l68 -41q-91 -196 -261 -196q-48 0 -96 20.5t-88 49.5t-79 58t-82.5 49.5t-84.5 20.5q-110 0 -186 -141z" />
<glyph unicode="&#xa1;" horiz-adv-x="442" d="M-43 -401l252 1075h86l-203 -1075h-135zM227 954q0 46 28.5 73.5t72.5 27.5q35 0 57.5 -21t22.5 -55q0 -44 -29 -72t-70 -28q-38 0 -60 20.5t-22 54.5z" />
<glyph unicode="&#xa2;" horiz-adv-x="1142" d="M141 657q0 164 69.5 302t198 221.5t289.5 83.5q104 0 189 -31l108 199h90l-127 -234q116 -69 166 -199l-102 -34q-39 92 -113 143l-434 -797q59 -18 131 -18q234 0 367 207l88 -49q-78 -126 -195 -189t-262 -63q-102 0 -176 26l-115 -209h-90l131 240q-103 57 -158 160 t-55 241zM248 666q0 -106 38.5 -190t114.5 -132l437 799q-64 24 -146 24q-99 0 -183.5 -41.5t-141 -111t-88 -160t-31.5 -188.5z" />
<glyph unicode="&#xa3;" horiz-adv-x="1196" d="M-41 0l23 102h211l108 514h-178l20 97h179l59 280q49 229 174.5 351t306.5 122q166 0 262.5 -80t122.5 -221l-96 -43q-21 119 -90.5 180.5t-206.5 61.5q-141 0 -233 -96.5t-132 -284.5l-57 -270h508l-20 -97h-508l-109 -514h750l-23 -102h-1071z" />
<glyph unicode="&#xa4;" horiz-adv-x="1177" d="M49 297l189 156q-60 94 -60 211q0 107 42.5 202.5t117.5 165.5l-96 125l71 60l99 -127q116 75 264 75q174 0 289 -100l190 156l64 -68l-193 -158q59 -92 59 -213q0 -104 -41 -199t-114 -165l102 -127l-74 -62l-100 129q-121 -79 -270 -79q-178 0 -291 102l-186 -152z M276 674q0 -131 86 -217t236 -86q165 0 277 120t112 283q0 129 -86.5 214t-236.5 85q-107 0 -197 -55.5t-140.5 -147t-50.5 -196.5z" />
<glyph unicode="&#xa5;" horiz-adv-x="1198" d="M143 295l19 86h352l43 205l-10 28h-336l20 88h281l-287 744h117l287 -748l602 748h139l-604 -744h285l-19 -88h-338l-24 -30l-43 -203h356l-20 -86h-355l-63 -295h-111l62 295h-353z" />
<glyph unicode="&#xa6;" horiz-adv-x="503" d="M8 -401l174 819h103l-174 -819h-103zM268 827l174 820h103l-174 -820h-103z" />
<glyph unicode="&#xa7;" horiz-adv-x="1075" d="M18 39l103 33q20 -110 108 -169t228 -59q130 0 210.5 70.5t80.5 183.5q0 81 -64.5 129t-202.5 95q-64 21 -111.5 44.5t-92 57.5t-68 81.5t-23.5 106.5q0 126 74 217t193 123q-138 79 -138 217q0 152 107.5 252.5t269.5 100.5q151 0 251.5 -65.5t127.5 -174.5l-102 -33 q-28 88 -101 133t-176 45q-120 0 -196 -70t-76 -177q0 -35 14 -63.5t33.5 -47.5t57 -39t66.5 -31.5t81 -29.5q72 -25 124 -50.5t95.5 -60.5t65.5 -80.5t22 -101.5q0 -133 -77.5 -221t-207.5 -115q158 -84 158 -227q0 -160 -113 -262.5t-286 -102.5q-76 0 -145.5 16.5 t-130 50t-103 91t-56.5 133.5zM289 625q0 -43 18 -77.5t55 -60.5t79.5 -45.5t105.5 -40.5l8 -2q145 -6 233.5 62t88.5 198q0 80 -66.5 133.5t-204.5 96.5l-35 12q-123 -1 -202.5 -80t-79.5 -196z" />
<glyph unicode="&#xa8;" horiz-adv-x="647" d="M252 1362q0 39 26.5 64.5t63.5 25.5q33 0 53.5 -19.5t20.5 -50.5q0 -39 -26.5 -64.5t-65.5 -25.5q-32 0 -52 19.5t-20 50.5zM598 1362q0 39 26.5 64.5t63.5 25.5q33 0 53.5 -19.5t20.5 -50.5q0 -39 -26.5 -64.5t-65.5 -25.5q-33 0 -52.5 19.5t-19.5 50.5z" />
<glyph unicode="&#xa9;" horiz-adv-x="1740" d="M168 616q0 170 61.5 326t168 271.5t260 184t327.5 68.5q300 0 489 -177.5t189 -459.5q0 -228 -104 -422t-292.5 -310.5t-420.5 -116.5q-297 0 -487.5 178t-190.5 458zM254 625q0 -253 167.5 -408.5t432.5 -155.5q152 0 287.5 62t230.5 165.5t150 242.5t55 290 q0 254 -167.5 408.5t-432.5 154.5q-152 0 -287.5 -62t-230.5 -166t-150 -242.5t-55 -288.5zM530 659q0 118 58 221.5t160 166.5t221 63t203 -53t120 -146l-96 -30q-28 63 -88.5 102t-144.5 39q-138 0 -236 -106.5t-98 -245.5q0 -112 74 -186t200 -74q170 0 260 149l74 -53 q-55 -90 -145 -138.5t-197 -48.5q-166 0 -265.5 97t-99.5 243z" />
<glyph unicode="&#xaa;" horiz-adv-x="817" d="M205 1094q0 157 99 261.5t247 104.5q98 0 163 -46.5t85 -115.5l30 148h89l-130 -619h-90l27 115q-40 -59 -103.5 -93t-144.5 -34q-124 0 -198 79.5t-74 199.5zM301 1102q0 -90 53.5 -148.5t153.5 -58.5q110 0 186 84t76 195q0 89 -56.5 147.5t-156.5 58.5 q-111 0 -183.5 -81t-72.5 -197z" />
<glyph unicode="&#xab;" horiz-adv-x="974" d="M66 508l393 457l84 -54l-363 -419l166 -386l-82 -53zM496 508l393 457l84 -54l-363 -419l166 -386l-82 -53z" />
<glyph unicode="&#xac;" horiz-adv-x="999" d="M135 721l21 98h819l-84 -387h-103l60 289h-713z" />
<glyph unicode="&#xad;" horiz-adv-x="870" d="M98 465l19 98h657l-20 -98h-656z" />
<glyph unicode="&#xae;" horiz-adv-x="989" d="M207 1006q0 191 127 325.5t315 134.5q164 0 266.5 -96.5t102.5 -247.5q0 -125 -58 -230.5t-161.5 -167.5t-227.5 -62q-164 0 -264 97t-100 247zM256 1014q0 -135 86.5 -220t235.5 -85q109 0 200 58t141 151.5t50 199.5q0 132 -88 216.5t-238 84.5q-109 0 -199 -57.5 t-139 -150t-49 -197.5zM420 854l92 428h143q68 0 104 -29.5t36 -76.5q0 -52 -32 -91.5t-89 -46.5l78 -184h-72l-70 168h-90l-35 -168h-65zM535 1077h83q53 0 81 23t28 65q0 62 -92 62h-70z" />
<glyph unicode="&#xaf;" horiz-adv-x="647" d="M236 1317l20 88h516l-18 -88h-518z" />
<glyph unicode="&#xb0;" horiz-adv-x="821" d="M238 1167q0 148 97.5 251.5t246.5 103.5q133 0 215 -78.5t82 -194.5q0 -149 -96.5 -251.5t-245.5 -102.5q-134 0 -216.5 78.5t-82.5 193.5zM334 1174q0 -85 56 -138t151 -53q103 0 173 76t70 184q0 84 -56 137.5t-150 53.5q-103 0 -173.5 -76t-70.5 -184z" />
<glyph unicode="&#xb1;" horiz-adv-x="1075" d="M-18 0l20 98h895l-23 -98h-892zM133 709l21 96h395l88 416h102l-88 -416h396l-21 -96h-395l-88 -416h-103l88 416h-395z" />
<glyph unicode="&#xb2;" horiz-adv-x="710" d="M125 774l16 70l215 153q90 64 149 111.5t112.5 102t79.5 106.5t26 104q0 62 -46.5 100t-125.5 38q-143 0 -221 -125l-70 57q97 156 305 156q119 0 187.5 -61.5t68.5 -158.5q0 -119 -91 -226t-277 -236l-148 -101h424l-18 -90h-586z" />
<glyph unicode="&#xb3;" horiz-adv-x="716" d="M119 911l82 50q26 -54 85.5 -85.5t135.5 -31.5q97 0 164 62.5t67 154.5q0 78 -50 121t-148 43q-55 0 -103 -21l-28 51l344 283h-385l18 88h526l-14 -72l-321 -262q112 -2 185 -63.5t73 -165.5q0 -133 -95 -220t-237 -87q-103 0 -183.5 41t-115.5 114z" />
<glyph unicode="&#xb4;" horiz-adv-x="647" d="M332 1206l221 295h123l-244 -295h-100z" />
<glyph unicode="&#xb5;" horiz-adv-x="1150" d="M-63 -401l303 1425h104l-117 -547q-43 -205 17.5 -304t210.5 -99q152 0 273.5 121.5t166.5 336.5l104 492h105l-219 -1024h-103l45 215q-66 -106 -166.5 -170.5t-226.5 -64.5q-102 0 -173.5 43.5t-102.5 126.5l-117 -551h-104z" />
<glyph unicode="&#xb6;" horiz-adv-x="903" d="M203 981q0 138 73 245t196.5 163.5t275.5 56.5h155l-393 -1847h-104l229 1079h-41q-185 0 -288 80.5t-103 222.5z" />
<glyph unicode="&#xb7;" horiz-adv-x="442" d="M131 502q0 45 28.5 72.5t69.5 27.5q37 0 59.5 -21.5t22.5 -56.5q0 -46 -28.5 -73t-71.5 -27q-37 0 -58.5 21.5t-21.5 56.5z" />
<glyph unicode="&#xb8;" horiz-adv-x="647" d="M-66 -401l19 82q84 -48 180 -48q57 0 88 28t31 75q0 39 -35 64.5t-98 25.5h-29l43 205h90l-33 -150q70 -6 114 -44.5t44 -102.5q0 -84 -54.5 -133.5t-156.5 -49.5q-115 0 -203 48z" />
<glyph unicode="&#xb9;" horiz-adv-x="518" d="M244 1499l350 133h29l-185 -858h-94l156 731l-246 -94z" />
<glyph unicode="&#xba;" horiz-adv-x="800" d="M205 1092q0 154 99 260t251 106q142 0 224.5 -79t82.5 -197q0 -155 -99.5 -261t-252.5 -106q-140 0 -222.5 79.5t-82.5 197.5zM299 1102q0 -89 58 -146t157 -57q109 0 181.5 79t72.5 193q0 89 -58 146t-157 57q-109 0 -181.5 -79t-72.5 -193z" />
<glyph unicode="&#xbb;" horiz-adv-x="974" d="M0 106l362 420l-165 385l82 54l198 -455l-393 -457zM430 106l363 420l-166 385l82 54l198 -455l-393 -457z" />
<glyph unicode="&#xbc;" horiz-adv-x="1533" d="M113 0l1151 1446h114l-1149 -1446h-116zM207 1319l350 133h29l-185 -858h-94l156 731l-246 -94zM764 184l14 76l387 592h111l-381 -586h332l57 275h90l-57 -275h125l-19 -82h-125l-38 -184h-91l39 184h-444z" />
<glyph unicode="&#xbd;" horiz-adv-x="1595" d="M113 0l1151 1446h114l-1149 -1446h-116zM207 1319l350 133h29l-185 -858h-94l156 731l-246 -94zM846 0l16 70l215 153q90 64 149 111.5t112.5 102t79.5 106.5t26 104q0 62 -46.5 99.5t-125.5 37.5q-143 0 -221 -125l-70 58q96 155 305 155q119 0 187.5 -61t68.5 -158 q0 -119 -91.5 -226.5t-276.5 -236.5l-148 -100h424l-18 -90h-586z" />
<glyph unicode="&#xbe;" horiz-adv-x="1683" d="M82 731l82 49q26 -54 85 -85t136 -31q97 0 164 62.5t67 154.5q0 78 -50 120.5t-148 42.5q-57 0 -103 -20l-28 51l344 283h-385l18 88h527l-15 -72l-321 -262q112 -2 185 -63.5t73 -165.5q0 -133 -95 -220.5t-237 -87.5q-102 0 -183 41.5t-116 114.5zM262 0l1151 1446h115 l-1149 -1446h-117zM913 184l15 76l387 592h110l-381 -586h332l58 275h90l-58 -275h125l-18 -82h-125l-39 -184h-90l39 184h-445z" />
<glyph unicode="&#xbf;" horiz-adv-x="901" d="M-4 -92q0 75 32.5 147.5t84 131t113.5 113.5t124 103.5t112.5 93t80.5 90t28 85.5h93q2 -53 -27.5 -107t-78.5 -101t-109 -95.5t-120.5 -99t-110 -102t-81 -115t-31.5 -128.5q0 -111 81 -178.5t219 -67.5q119 0 214.5 60t139.5 164l92 -45q-67 -137 -189 -208t-268 -71 q-178 0 -288.5 88.5t-110.5 241.5zM551 954q0 46 28.5 73.5t71.5 27.5q37 0 59.5 -21.5t22.5 -56.5q0 -44 -29 -72t-69 -28q-38 0 -61 21t-23 56z" />
<glyph unicode="&#xc0;" horiz-adv-x="1308" d="M-72 0l863 1446h124l248 -1446h-110l-66 395h-700l-232 -395h-127zM348 498h623l-140 821zM705 1841h108l109 -264h-88z" />
<glyph unicode="&#xc1;" horiz-adv-x="1308" d="M-72 0l863 1446h124l248 -1446h-110l-66 395h-700l-232 -395h-127zM348 498h623l-140 821zM836 1577l219 264h125l-246 -264h-98z" />
<glyph unicode="&#xc2;" horiz-adv-x="1308" d="M-72 0l863 1446h124l248 -1446h-110l-66 395h-700l-232 -395h-127zM348 498h623l-140 821zM592 1577l295 264h88l180 -264h-98l-135 195l-215 -195h-115z" />
<glyph unicode="&#xc3;" horiz-adv-x="1308" d="M-72 0l863 1446h124l248 -1446h-110l-66 395h-700l-232 -395h-127zM348 498h623l-140 821zM594 1593q14 102 63 159.5t129 57.5q34 0 63.5 -14.5t51 -35t41 -40.5t42.5 -34.5t48 -14.5q38 0 65.5 35.5t39.5 97.5h84q-14 -101 -64.5 -159t-128.5 -58q-34 0 -63.5 14.5 t-50.5 35.5t-40.5 42t-43 35.5t-48.5 14.5q-38 0 -65 -36t-39 -100h-84z" />
<glyph unicode="&#xc4;" horiz-adv-x="1308" d="M-72 0l863 1446h124l248 -1446h-110l-66 395h-700l-232 -395h-127zM348 498h623l-140 821zM645 1698q0 37 27 62.5t65 25.5q33 0 53.5 -19.5t20.5 -50.5q0 -38 -27 -64t-65 -26q-34 0 -54 20t-20 52zM991 1698q0 37 27 62.5t65 25.5q33 0 53.5 -19.5t20.5 -50.5 q0 -38 -27 -64t-65 -26q-34 0 -54 20t-20 52z" />
<glyph unicode="&#xc5;" horiz-adv-x="1308" d="M-72 0l863 1446h124l248 -1446h-110l-66 395h-700l-232 -395h-127zM348 498h623l-140 821zM709 1694q0 92 62.5 151.5t154.5 59.5q84 0 135 -45.5t51 -116.5q0 -91 -62 -152t-153 -61q-84 0 -136 46.5t-52 117.5zM780 1702q0 -46 34.5 -76.5t86.5 -30.5q57 0 98 41 t41 101q0 45 -33.5 74.5t-86.5 29.5q-57 0 -98.5 -39t-41.5 -100z" />
<glyph unicode="&#xc6;" horiz-adv-x="1906" d="M-61 0l1128 1446h915l-22 -103h-715l-119 -567h623l-23 -102h-622l-121 -572h735l-20 -102h-846l80 377h-567l-291 -377h-135zM442 479h512l183 864h-21z" />
<glyph unicode="&#xc7;" horiz-adv-x="1574" d="M172 623q0 172 58 326.5t160 268.5t250.5 181t320.5 67q206 0 359.5 -97.5t217.5 -272.5l-113 -37q-53 148 -178 226.5t-299 78.5q-145 0 -270.5 -59t-210.5 -159t-133.5 -233t-48.5 -280q0 -253 144.5 -402t395.5 -149q370 0 555 344l86 -55q-218 -391 -659 -391h-8 l-23 -99q72 -6 116 -44.5t44 -102.5q0 -84 -55 -133.5t-158 -49.5q-113 0 -201 48l17 82q88 -48 182 -48q57 0 88 28t31 75q0 39 -35 64.5t-98 25.5h-29l33 160q-248 28 -393.5 198.5t-145.5 438.5z" />
<glyph unicode="&#xc8;" horiz-adv-x="1132" d="M78 0l307 1446h823l-22 -103h-713l-119 -567h621l-23 -102h-620l-121 -572h735l-22 -102h-846zM649 1841h109l108 -264h-88z" />
<glyph unicode="&#xc9;" horiz-adv-x="1132" d="M78 0l307 1446h823l-22 -103h-713l-119 -567h621l-23 -102h-620l-121 -572h735l-22 -102h-846zM780 1577l219 264h125l-245 -264h-99z" />
<glyph unicode="&#xca;" horiz-adv-x="1132" d="M78 0l307 1446h823l-22 -103h-713l-119 -567h621l-23 -102h-620l-121 -572h735l-22 -102h-846zM537 1577l294 264h89l180 -264h-99l-135 195l-215 -195h-114z" />
<glyph unicode="&#xcb;" horiz-adv-x="1132" d="M78 0l307 1446h823l-22 -103h-713l-119 -567h621l-23 -102h-620l-121 -572h735l-22 -102h-846zM592 1698q0 37 27 62.5t65 25.5q33 0 53.5 -19.5t20.5 -50.5q0 -38 -27 -64t-65 -26q-34 0 -54 20t-20 52zM938 1698q0 37 27 62.5t65 25.5q33 0 53.5 -19.5t20.5 -50.5 q0 -38 -27 -64t-65 -26q-34 0 -54 20t-20 52z" />
<glyph unicode="&#xcc;" horiz-adv-x="509" d="M90 0l307 1446h113l-307 -1446h-113zM305 1841h109l108 -264h-88z" />
<glyph unicode="&#xcd;" horiz-adv-x="509" d="M90 0l307 1446h113l-307 -1446h-113zM436 1577l219 264h125l-245 -264h-99z" />
<glyph unicode="&#xce;" horiz-adv-x="509" d="M90 0l307 1446h113l-307 -1446h-113zM193 1577l294 264h88l181 -264h-99l-135 195l-215 -195h-114z" />
<glyph unicode="&#xcf;" horiz-adv-x="509" d="M90 0l307 1446h113l-307 -1446h-113zM246 1698q0 37 27 62.5t65 25.5q33 0 53.5 -19.5t20.5 -50.5q0 -38 -27 -64t-66 -26q-33 0 -53 20t-20 52zM592 1698q0 37 27 62.5t65 25.5q33 0 53.5 -19.5t20.5 -50.5q0 -38 -27 -64t-65 -26q-34 0 -54 20t-20 52z" />
<glyph unicode="&#xd0;" horiz-adv-x="1509" d="M33 674l20 96h230l143 676h350q300 0 478 -161.5t178 -436.5q0 -135 -34.5 -258.5t-108.5 -231.5t-181 -187.5t-261.5 -125t-340.5 -45.5h-387l143 674h-229zM252 102h278q157 0 288.5 40.5t223 110t155.5 164t94 202.5t30 225q0 229 -145 364t-390 135h-270l-123 -573 h479l-20 -96h-479z" />
<glyph unicode="&#xd1;" horiz-adv-x="1452" d="M78 0l307 1446h102l600 -1258l267 1258h110l-307 -1446h-102l-600 1257l-267 -1257h-110zM664 1593q14 102 63 159.5t129 57.5q34 0 63.5 -14.5t51 -35t41 -40.5t42.5 -34.5t48 -14.5q38 0 65 35.5t39 97.5h84q-14 -101 -64 -159t-128 -58q-34 0 -63.5 14.5t-50.5 35.5 t-40.5 42t-43 35.5t-48.5 14.5q-38 0 -65 -36t-39 -100h-84z" />
<glyph unicode="&#xd2;" horiz-adv-x="1734" d="M170 623q0 171 62.5 326t170 268.5t260 181t324.5 67.5q195 0 347.5 -81t236.5 -227.5t84 -334.5q0 -169 -62.5 -323.5t-169.5 -269t-259.5 -182.5t-323.5 -68q-297 0 -483.5 179t-186.5 464zM283 631q0 -249 156 -399t413 -150q146 0 276 60.5t220.5 161t143 235 t52.5 278.5q0 245 -158 396t-411 151q-146 0 -275.5 -59.5t-220 -159t-143.5 -234t-53 -280.5zM897 1833h109l108 -264h-88z" />
<glyph unicode="&#xd3;" horiz-adv-x="1734" d="M170 623q0 171 62.5 326t170 268.5t260 181t324.5 67.5q195 0 347.5 -81t236.5 -227.5t84 -334.5q0 -169 -62.5 -323.5t-169.5 -269t-259.5 -182.5t-323.5 -68q-297 0 -483.5 179t-186.5 464zM283 631q0 -249 156 -399t413 -150q146 0 276 60.5t220.5 161t143 235 t52.5 278.5q0 245 -158 396t-411 151q-146 0 -275.5 -59.5t-220 -159t-143.5 -234t-53 -280.5zM1030 1569l219 264h125l-246 -264h-98z" />
<glyph unicode="&#xd4;" horiz-adv-x="1734" d="M170 623q0 171 62.5 326t170 268.5t260 181t324.5 67.5q195 0 347.5 -81t236.5 -227.5t84 -334.5q0 -169 -62.5 -323.5t-169.5 -269t-259.5 -182.5t-323.5 -68q-297 0 -483.5 179t-186.5 464zM283 631q0 -249 156 -399t413 -150q146 0 276 60.5t220.5 161t143 235 t52.5 278.5q0 245 -158 396t-411 151q-146 0 -275.5 -59.5t-220 -159t-143.5 -234t-53 -280.5zM786 1569l295 264h88l181 -264h-99l-135 194l-215 -194h-115z" />
<glyph unicode="&#xd5;" horiz-adv-x="1734" d="M170 623q0 171 62.5 326t170 268.5t260 181t324.5 67.5q195 0 347.5 -81t236.5 -227.5t84 -334.5q0 -169 -62.5 -323.5t-169.5 -269t-259.5 -182.5t-323.5 -68q-297 0 -483.5 179t-186.5 464zM283 631q0 -249 156 -399t413 -150q146 0 276 60.5t220.5 161t143 235 t52.5 278.5q0 245 -158 396t-411 151q-146 0 -275.5 -59.5t-220 -159t-143.5 -234t-53 -280.5zM788 1585q14 102 63.5 159.5t129.5 57.5q34 0 63.5 -14.5t51 -35t41 -40.5t42.5 -34.5t48 -14.5q38 0 65 35.5t39 97.5h84q-14 -101 -64 -159t-128 -58q-34 0 -63.5 14.5 t-50.5 35.5t-40.5 41.5t-43 35t-48.5 14.5q-38 0 -65.5 -35.5t-39.5 -99.5h-84z" />
<glyph unicode="&#xd6;" horiz-adv-x="1734" d="M170 623q0 171 62.5 326t170 268.5t260 181t324.5 67.5q195 0 347.5 -81t236.5 -227.5t84 -334.5q0 -169 -62.5 -323.5t-169.5 -269t-259.5 -182.5t-323.5 -68q-297 0 -483.5 179t-186.5 464zM283 631q0 -249 156 -399t413 -150q146 0 276 60.5t220.5 161t143 235 t52.5 278.5q0 245 -158 396t-411 151q-146 0 -275.5 -59.5t-220 -159t-143.5 -234t-53 -280.5zM840 1690q0 37 27 62.5t65 25.5q33 0 53.5 -19.5t20.5 -50.5q0 -38 -27 -64t-66 -26q-33 0 -53 20t-20 52zM1186 1690q0 37 27 62.5t65 25.5q33 0 53.5 -19.5t20.5 -50.5 q0 -38 -27 -64t-65 -26q-34 0 -54 20t-20 52z" />
<glyph unicode="&#xd7;" horiz-adv-x="1032" d="M43 283l436 364l-274 357l76 61l274 -354l426 356l66 -72l-435 -362l273 -352l-76 -62l-270 352l-430 -358z" />
<glyph unicode="&#xd8;" horiz-adv-x="1734" d="M158 -63l196 223q-184 181 -184 463q0 171 62.5 326t170 268.5t260 181t324.5 67.5q234 0 408 -116l102 116h127l-156 -178q187 -178 187 -465q0 -169 -62.5 -323.5t-169.5 -269t-259.5 -182.5t-323.5 -68q-241 0 -412 120l-143 -163h-127zM283 631q0 -234 143 -387 l895 1022q-143 98 -346 98q-146 0 -275.5 -59.5t-220 -159t-143.5 -234t-53 -280.5zM500 182q142 -100 352 -100q146 0 276 60.5t220.5 161t143 235t52.5 278.5q0 238 -149 387z" />
<glyph unicode="&#xd9;" horiz-adv-x="1372" d="M149.5 361q-15.5 119 18.5 266l174 819h111l-174 -825q-57 -270 38 -404.5t351 -134.5q188 0 297.5 115.5t156.5 339.5l193 909h110l-194 -924q-119 -542 -580 -542q-154 0 -263 46t-166 131t-72.5 204zM735 1841h109l108 -264h-88z" />
<glyph unicode="&#xda;" horiz-adv-x="1372" d="M149.5 361q-15.5 119 18.5 266l174 819h111l-174 -825q-57 -270 38 -404.5t351 -134.5q188 0 297.5 115.5t156.5 339.5l193 909h110l-194 -924q-119 -542 -580 -542q-154 0 -263 46t-166 131t-72.5 204zM866 1577l219 264h125l-245 -264h-99z" />
<glyph unicode="&#xdb;" horiz-adv-x="1372" d="M149.5 361q-15.5 119 18.5 266l174 819h111l-174 -825q-57 -270 38 -404.5t351 -134.5q188 0 297.5 115.5t156.5 339.5l193 909h110l-194 -924q-119 -542 -580 -542q-154 0 -263 46t-166 131t-72.5 204zM623 1577l295 264h88l180 -264h-99l-135 195l-215 -195h-114z" />
<glyph unicode="&#xdc;" horiz-adv-x="1372" d="M149.5 361q-15.5 119 18.5 266l174 819h111l-174 -825q-57 -270 38 -404.5t351 -134.5q188 0 297.5 115.5t156.5 339.5l193 909h110l-194 -924q-119 -542 -580 -542q-154 0 -263 46t-166 131t-72.5 204zM678 1698q0 37 27 62.5t65 25.5q33 0 53.5 -19.5t20.5 -50.5 q0 -38 -27 -64t-65 -26q-34 0 -54 20t-20 52zM1024 1698q0 37 27 62.5t65 25.5q33 0 53.5 -19.5t20.5 -50.5q0 -38 -27 -64t-65 -26q-34 0 -54 20t-20 52z" />
<glyph unicode="&#xdd;" horiz-adv-x="1198" d="M225 1446h117l287 -748l602 748h139l-700 -862l-125 -584h-111l123 586zM768 1577l219 264h125l-246 -264h-98z" />
<glyph unicode="&#xde;" horiz-adv-x="1185" d="M78 0l307 1446h113l-60 -272h285q207 0 315.5 -85.5t108.5 -248.5q0 -114 -33 -206.5t-101 -163.5t-180 -109.5t-260 -38.5h-315l-68 -322h-112zM281 424h303q226 0 338 106t112 299q0 121 -93.5 181.5t-258.5 60.5h-264z" />
<glyph unicode="&#xdf;" horiz-adv-x="1173" d="M121 0l196 928h-194l20 96h195l37 176q33 157 111.5 239.5t228.5 82.5q85 0 151 -19l-20 -94q-65 18 -139 18q-103 0 -152.5 -58.5t-77.5 -188.5l-33 -156h686l-16 -78l-465 -493q171 0 272 -98.5t101 -262.5q0 -223 -135.5 -367.5t-368.5 -144.5q-71 0 -146 15t-126 40 l49 93q92 -50 227 -50q124 0 216 57.5t136 149t44 203.5q0 136 -80 209.5t-217 73.5q-45 0 -107 -15l-33 45l492 527h-549l-199 -928h-104z" />
<glyph unicode="&#xe0;" d="M94 434q0 164 70.5 303.5t197 223t279.5 83.5q171 0 276.5 -85.5t139.5 -225.5l61 291h105l-217 -1024h-105l43 207q-68 -106 -172.5 -166.5t-232.5 -60.5q-201 0 -323 128.5t-122 325.5zM201 444q0 -161 96.5 -265.5t265.5 -104.5q130 0 235 70.5t161.5 184t56.5 242.5 q0 161 -98 269t-267 108q-129 0 -233.5 -72.5t-160.5 -187t-56 -244.5zM612 1501h105l100 -295h-86z" />
<glyph unicode="&#xe1;" d="M94 434q0 164 70.5 303.5t197 223t279.5 83.5q171 0 276.5 -85.5t139.5 -225.5l61 291h105l-217 -1024h-105l43 207q-68 -106 -172.5 -166.5t-232.5 -60.5q-201 0 -323 128.5t-122 325.5zM201 444q0 -161 96.5 -265.5t265.5 -104.5q130 0 235 70.5t161.5 184t56.5 242.5 q0 161 -98 269t-267 108q-129 0 -233.5 -72.5t-160.5 -187t-56 -244.5zM725 1206l221 295h123l-244 -295h-100z" />
<glyph unicode="&#xe2;" d="M94 434q0 164 70.5 303.5t197 223t279.5 83.5q171 0 276.5 -85.5t139.5 -225.5l61 291h105l-217 -1024h-105l43 207q-68 -106 -172.5 -166.5t-232.5 -60.5q-201 0 -323 128.5t-122 325.5zM201 444q0 -161 96.5 -265.5t265.5 -104.5q130 0 235 70.5t161.5 184t56.5 242.5 q0 161 -98 269t-267 108q-129 0 -233.5 -72.5t-160.5 -187t-56 -244.5zM487 1206l306 295h88l182 -295h-96l-136 221l-229 -221h-115z" />
<glyph unicode="&#xe3;" d="M94 434q0 164 70.5 303.5t197 223t279.5 83.5q171 0 276.5 -85.5t139.5 -225.5l61 291h105l-217 -1024h-105l43 207q-68 -106 -172.5 -166.5t-232.5 -60.5q-201 0 -323 128.5t-122 325.5zM201 444q0 -161 96.5 -265.5t265.5 -104.5q130 0 235 70.5t161.5 184t56.5 242.5 q0 161 -98 269t-267 108q-129 0 -233.5 -72.5t-160.5 -187t-56 -244.5zM489 1235q14 102 64.5 159.5t130.5 57.5q41 0 76.5 -22t57.5 -48.5t52 -48.5t60 -22q36 0 63 36t39 99h86q-14 -102 -64 -159.5t-130 -57.5q-33 0 -62.5 14.5t-50.5 35t-41 40.5t-43.5 34.5t-48.5 14.5 q-36 0 -63.5 -35.5t-39.5 -97.5h-86z" />
<glyph unicode="&#xe4;" d="M94 434q0 164 70.5 303.5t197 223t279.5 83.5q171 0 276.5 -85.5t139.5 -225.5l61 291h105l-217 -1024h-105l43 207q-68 -106 -172.5 -166.5t-232.5 -60.5q-201 0 -323 128.5t-122 325.5zM201 444q0 -161 96.5 -265.5t265.5 -104.5q130 0 235 70.5t161.5 184t56.5 242.5 q0 161 -98 269t-267 108q-129 0 -233.5 -72.5t-160.5 -187t-56 -244.5zM549 1362q0 39 25.5 64.5t64.5 25.5q33 0 53.5 -19.5t20.5 -50.5q0 -39 -26.5 -64.5t-65.5 -25.5q-33 0 -52.5 19.5t-19.5 50.5zM893 1362q0 39 26.5 64.5t65.5 25.5q32 0 52 -19.5t20 -50.5 q0 -39 -26.5 -64.5t-63.5 -25.5q-33 0 -53.5 19.5t-20.5 50.5z" />
<glyph unicode="&#xe5;" d="M94 434q0 164 70.5 303.5t197 223t279.5 83.5q171 0 276.5 -85.5t139.5 -225.5l61 291h105l-217 -1024h-105l43 207q-68 -106 -172.5 -166.5t-232.5 -60.5q-201 0 -323 128.5t-122 325.5zM201 444q0 -161 96.5 -265.5t265.5 -104.5q130 0 235 70.5t161.5 184t56.5 242.5 q0 161 -98 269t-267 108q-129 0 -233.5 -72.5t-160.5 -187t-56 -244.5zM610 1356q0 93 62.5 153t154.5 60q83 0 136 -46.5t53 -117.5q0 -91 -62 -152t-153 -61q-83 0 -137 46.5t-54 117.5zM684 1364q0 -46 33.5 -76.5t85.5 -30.5q58 0 98.5 40.5t40.5 99.5q0 46 -33.5 76 t-85.5 30q-57 0 -98 -39t-41 -100z" />
<glyph unicode="&#xe6;" horiz-adv-x="1912" d="M37 283q0 167 108 270.5t279 103.5q119 0 232 -52t157 -130l23 117q35 168 -41 262t-238 94q-198 0 -309 -151l-86 49q67 93 172.5 145.5t232.5 52.5q144 0 241 -63t126 -176q77 111 193 175t253 64q205 0 325 -126t120 -318q0 -60 -13 -129h-897v-31q0 -170 103 -268 t282 -98q222 0 355 198l86 -51q-160 -241 -449 -241q-164 0 -281 74t-163 206q-128 -280 -412 -280q-176 0 -287.5 80.5t-111.5 222.5zM141 295q0 -103 79.5 -162t217.5 -59q260 0 348 286q-25 90 -126 147.5t-232 57.5t-209 -74t-78 -196zM930 563h792q8 169 -86.5 277 t-263.5 108q-161 0 -282.5 -110t-159.5 -275z" />
<glyph unicode="&#xe7;" horiz-adv-x="1142" d="M94 438q0 121 44.5 232t120 193.5t182 131.5t225.5 49q155 0 260 -69t153 -195l-102 -35q-83 203 -318 203q-132 0 -238.5 -71.5t-164 -186.5t-57.5 -246q0 -160 97.5 -264t272.5 -104q229 0 357 207l88 -54q-76 -121 -190.5 -184t-256.5 -63h-18l-23 -101 q72 -6 116 -44.5t44 -102.5q0 -84 -55 -133.5t-158 -49.5q-113 0 -201 48l17 82q88 -48 182 -48q57 0 88 28t31 75q0 39 -35 64.5t-98 25.5h-29l35 164q-172 29 -270.5 149t-98.5 299z" />
<glyph unicode="&#xe8;" horiz-adv-x="1204" d="M94 432q0 122 44 234t119 195.5t182.5 133t228.5 49.5q139 0 241.5 -59.5t153.5 -159.5t51 -225q0 -76 -10 -129h-907v-31q0 -170 106.5 -268t288.5 -98q223 0 356 198l86 -51q-163 -241 -450 -241q-217 0 -353.5 123.5t-136.5 328.5zM211 563h801q9 169 -86 277 t-267 108q-165 0 -287.5 -109.5t-160.5 -275.5zM555 1501h104l101 -295h-86z" />
<glyph unicode="&#xe9;" horiz-adv-x="1204" d="M94 432q0 122 44 234t119 195.5t182.5 133t228.5 49.5q139 0 241.5 -59.5t153.5 -159.5t51 -225q0 -76 -10 -129h-907v-31q0 -170 106.5 -268t288.5 -98q223 0 356 198l86 -51q-163 -241 -450 -241q-217 0 -353.5 123.5t-136.5 328.5zM211 563h801q9 169 -86 277 t-267 108q-165 0 -287.5 -109.5t-160.5 -275.5zM668 1206l221 295h123l-244 -295h-100z" />
<glyph unicode="&#xea;" horiz-adv-x="1204" d="M94 432q0 122 44 234t119 195.5t182.5 133t228.5 49.5q139 0 241.5 -59.5t153.5 -159.5t51 -225q0 -76 -10 -129h-907v-31q0 -170 106.5 -268t288.5 -98q223 0 356 198l86 -51q-163 -241 -450 -241q-217 0 -353.5 123.5t-136.5 328.5zM211 563h801q9 169 -86 277 t-267 108q-165 0 -287.5 -109.5t-160.5 -275.5zM430 1206l305 295h88l183 -295h-97l-135 221l-229 -221h-115z" />
<glyph unicode="&#xeb;" horiz-adv-x="1204" d="M94 432q0 122 44 234t119 195.5t182.5 133t228.5 49.5q139 0 241.5 -59.5t153.5 -159.5t51 -225q0 -76 -10 -129h-907v-31q0 -170 106.5 -268t288.5 -98q223 0 356 198l86 -51q-163 -241 -450 -241q-217 0 -353.5 123.5t-136.5 328.5zM211 563h801q9 169 -86 277 t-267 108q-165 0 -287.5 -109.5t-160.5 -275.5zM492 1362q0 39 25.5 64.5t64.5 25.5q33 0 53 -19.5t20 -50.5q0 -39 -26.5 -64.5t-65.5 -25.5q-33 0 -52 19.5t-19 50.5zM836 1362q0 39 26.5 64.5t65.5 25.5q32 0 51.5 -19.5t19.5 -50.5q0 -39 -26.5 -64.5t-63.5 -25.5 q-33 0 -53 19.5t-20 50.5z" />
<glyph unicode="&#xec;" horiz-adv-x="456" d="M68 0l217 1024h104l-217 -1024h-104zM217 1501h105l96 -295h-86z" />
<glyph unicode="&#xed;" horiz-adv-x="456" d="M68 0l217 1024h104l-217 -1024h-104zM324 1206l219 295h119l-238 -295h-100z" />
<glyph unicode="&#xee;" horiz-adv-x="456" d="M68 0l217 1024h104l-217 -1024h-104zM141 1206l246 295h86l123 -295h-86l-88 219l-182 -219h-99z" />
<glyph unicode="&#xef;" horiz-adv-x="456" d="M68 0l217 1024h104l-217 -1024h-104zM172 1362q0 37 27 63.5t65 26.5q32 0 53 -19.5t21 -48.5q0 -38 -27 -65t-65 -27q-33 0 -53.5 19.5t-20.5 50.5zM487 1362q0 37 27.5 63.5t65.5 26.5q33 0 53 -19t20 -49q0 -38 -27 -65t-65 -27q-33 0 -53.5 19.5t-20.5 50.5z" />
<glyph unicode="&#xf0;" horiz-adv-x="1257" d="M94 436q0 118 45.5 228t122.5 192t184 131t224 49q155 0 258.5 -70t152.5 -194q-31 250 -237 504l-320 -141l-22 88l280 123q-79 86 -141 143l72 61q89 -82 159 -164l310 136l22 -88l-270 -119q244 -311 244 -633q0 -140 -41.5 -267t-116.5 -224t-190 -154t-252 -57 q-218 0 -351 126t-133 330zM199 444q0 -161 103 -265.5t282 -104.5q103 0 195 44.5t154 115.5t98 160.5t36 180.5q0 161 -105.5 264t-285.5 103q-134 0 -244.5 -70t-171.5 -183.5t-61 -244.5z" />
<glyph unicode="&#xf1;" horiz-adv-x="1173" d="M55 0l219 1024h103l-45 -217q67 106 173.5 171.5t235.5 65.5q190 0 270.5 -126t30.5 -357l-118 -561h-105l119 545q43 206 -18 305.5t-211 99.5q-157 0 -278 -121.5t-167 -339.5l-104 -489h-105zM461 1235q14 102 64 159.5t130 57.5q41 0 76.5 -22t57.5 -48.5t52 -48.5 t60 -22q37 0 64 36t39 99h86q-14 -102 -64.5 -159.5t-130.5 -57.5q-33 0 -62.5 14.5t-50.5 35t-41 40.5t-43.5 34.5t-48.5 14.5q-36 0 -63 -35.5t-39 -97.5h-86z" />
<glyph unicode="&#xf2;" horiz-adv-x="1257" d="M94 438q0 165 78 304.5t213.5 220.5t296.5 81q222 0 352.5 -129.5t130.5 -328.5q0 -166 -78 -305.5t-213 -220t-296 -80.5q-222 0 -353 129.5t-131 328.5zM199 446q0 -163 103.5 -267.5t283.5 -104.5q132 0 241.5 69.5t170.5 185t61 249.5q0 161 -103.5 265.5 t-281.5 104.5q-132 0 -241.5 -68t-171.5 -183t-62 -251zM590 1493h104l101 -295h-86z" />
<glyph unicode="&#xf3;" horiz-adv-x="1257" d="M94 438q0 165 78 304.5t213.5 220.5t296.5 81q222 0 352.5 -129.5t130.5 -328.5q0 -166 -78 -305.5t-213 -220t-296 -80.5q-222 0 -353 129.5t-131 328.5zM199 446q0 -163 103.5 -267.5t283.5 -104.5q132 0 241.5 69.5t170.5 185t61 249.5q0 161 -103.5 265.5 t-281.5 104.5q-132 0 -241.5 -68t-171.5 -183t-62 -251zM700 1198l222 295h122l-243 -295h-101z" />
<glyph unicode="&#xf4;" horiz-adv-x="1257" d="M94 438q0 165 78 304.5t213.5 220.5t296.5 81q222 0 352.5 -129.5t130.5 -328.5q0 -166 -78 -305.5t-213 -220t-296 -80.5q-222 0 -353 129.5t-131 328.5zM199 446q0 -163 103.5 -267.5t283.5 -104.5q132 0 241.5 69.5t170.5 185t61 249.5q0 161 -103.5 265.5 t-281.5 104.5q-132 0 -241.5 -68t-171.5 -183t-62 -251zM463 1198l305 295h88l182 -295h-96l-135 221l-229 -221h-115z" />
<glyph unicode="&#xf5;" horiz-adv-x="1257" d="M94 438q0 165 78 304.5t213.5 220.5t296.5 81q222 0 352.5 -129.5t130.5 -328.5q0 -166 -78 -305.5t-213 -220t-296 -80.5q-222 0 -353 129.5t-131 328.5zM199 446q0 -163 103.5 -267.5t283.5 -104.5q132 0 241.5 69.5t170.5 185t61 249.5q0 161 -103.5 265.5 t-281.5 104.5q-132 0 -241.5 -68t-171.5 -183t-62 -251zM467 1227q14 102 64.5 159.5t130.5 57.5q33 0 62.5 -14.5t50.5 -35t40.5 -41.5t43 -35.5t48.5 -14.5q37 0 64 36t39 99h86q-14 -102 -64.5 -159.5t-130.5 -57.5q-33 0 -62.5 14.5t-50.5 35t-41 40.5t-43.5 34.5 t-48.5 14.5q-36 0 -63 -35.5t-39 -97.5h-86z" />
<glyph unicode="&#xf6;" horiz-adv-x="1257" d="M94 438q0 165 78 304.5t213.5 220.5t296.5 81q222 0 352.5 -129.5t130.5 -328.5q0 -166 -78 -305.5t-213 -220t-296 -80.5q-222 0 -353 129.5t-131 328.5zM199 446q0 -163 103.5 -267.5t283.5 -104.5q132 0 241.5 69.5t170.5 185t61 249.5q0 161 -103.5 265.5 t-281.5 104.5q-132 0 -241.5 -68t-171.5 -183t-62 -251zM526 1354q0 39 25.5 64.5t64.5 25.5q33 0 53.5 -19.5t20.5 -50.5q0 -39 -26.5 -64.5t-65.5 -25.5q-33 0 -52.5 19.5t-19.5 50.5zM870 1354q0 39 27 64.5t66 25.5q32 0 51.5 -19.5t19.5 -50.5q0 -39 -26.5 -64.5 t-63.5 -25.5q-33 0 -53.5 19.5t-20.5 50.5z" />
<glyph unicode="&#xf7;" horiz-adv-x="1034" d="M109 590l20 98h850l-18 -98h-852zM344 250q0 45 28.5 72.5t69.5 27.5q37 0 59.5 -21t22.5 -55q0 -46 -28.5 -73t-71.5 -27q-36 0 -58 21t-22 55zM502 1004q0 44 29 72t69 28q38 0 61 -21.5t23 -56.5q0 -46 -28.5 -73t-71.5 -27q-37 0 -59.5 21.5t-22.5 56.5z" />
<glyph unicode="&#xf8;" horiz-adv-x="1257" d="M43 -72l172 191q-121 127 -121 319q0 165 78 304.5t213.5 220.5t296.5 81q175 0 297 -83l133 145h119l-184 -205q118 -121 118 -315q0 -166 -78 -305.5t-213 -220t-296 -80.5q-171 0 -295 81l-121 -133h-119zM199 446q0 -147 88 -249l622 686q-97 65 -235 65 q-132 0 -241.5 -68t-171.5 -183t-62 -251zM352 137q99 -63 234 -63q132 0 241.5 69.5t170.5 185t61 249.5q0 150 -86 245z" />
<glyph unicode="&#xf9;" horiz-adv-x="1159" d="M127 461l119 563h104l-119 -547q-43 -205 17.5 -304t210.5 -99q156 0 277.5 121t166.5 337l105 492h104l-219 -1024h-105l48 215q-67 -106 -172 -170.5t-234 -64.5q-188 0 -269 128.5t-34 352.5zM549 1501h104l101 -295h-86z" />
<glyph unicode="&#xfa;" horiz-adv-x="1159" d="M127 461l119 563h104l-119 -547q-43 -205 17.5 -304t210.5 -99q156 0 277.5 121t166.5 337l105 492h104l-219 -1024h-105l48 215q-67 -106 -172 -170.5t-234 -64.5q-188 0 -269 128.5t-34 352.5zM662 1206l221 295h123l-244 -295h-100z" />
<glyph unicode="&#xfb;" horiz-adv-x="1159" d="M127 461l119 563h104l-119 -547q-43 -205 17.5 -304t210.5 -99q156 0 277.5 121t166.5 337l105 492h104l-219 -1024h-105l48 215q-67 -106 -172 -170.5t-234 -64.5q-188 0 -269 128.5t-34 352.5zM424 1206l305 295h88l182 -295h-96l-135 221l-229 -221h-115z" />
<glyph unicode="&#xfc;" horiz-adv-x="1159" d="M127 461l119 563h104l-119 -547q-43 -205 17.5 -304t210.5 -99q156 0 277.5 121t166.5 337l105 492h104l-219 -1024h-105l48 215q-67 -106 -172 -170.5t-234 -64.5q-188 0 -269 128.5t-34 352.5zM485 1362q0 39 25.5 64.5t64.5 25.5q33 0 53.5 -19.5t20.5 -50.5 q0 -39 -26.5 -64.5t-65.5 -25.5q-33 0 -52.5 19.5t-19.5 50.5zM829 1362q0 39 27 64.5t66 25.5q32 0 51.5 -19.5t19.5 -50.5q0 -39 -26.5 -64.5t-63.5 -25.5q-33 0 -53.5 19.5t-20.5 50.5z" />
<glyph unicode="&#xfd;" horiz-adv-x="1052" d="M117 -401l250 399l-220 1026h107l186 -907l561 907h123l-886 -1425h-121zM618 1206l222 295h123l-244 -295h-101z" />
<glyph unicode="&#xfe;" horiz-adv-x="1280" d="M-31 -401l406 1902h104l-145 -684q69 106 176.5 166.5t237.5 60.5q202 0 319 -128t117 -328q0 -163 -69.5 -302t-195 -222.5t-278.5 -83.5q-171 0 -277.5 85.5t-140.5 223.5l-149 -690h-105zM264 453q0 -163 98 -271t269 -108q129 0 233 72.5t159.5 187.5t55.5 246 q0 160 -95.5 264t-264.5 104q-130 0 -235.5 -70.5t-162.5 -183.5t-57 -241z" />
<glyph unicode="&#xff;" horiz-adv-x="1052" d="M117 -401l250 399l-220 1026h107l186 -907l561 907h123l-886 -1425h-121zM442 1362q0 39 25.5 64.5t64.5 25.5q33 0 53.5 -19.5t20.5 -50.5q0 -39 -26.5 -64.5t-65.5 -25.5q-33 0 -52.5 19.5t-19.5 50.5zM786 1362q0 39 27 64.5t66 25.5q32 0 51.5 -19.5t19.5 -50.5 q0 -39 -26.5 -64.5t-63.5 -25.5q-33 0 -53.5 19.5t-20.5 50.5z" />
<glyph unicode="&#x152;" horiz-adv-x="1863" d="M170 623q0 171 61.5 323.5t168 262t257.5 173.5t324 64h143h70h745l-22 -103h-705l-118 -567h610l-21 -102h-612l-121 -572h725l-22 -102h-836q-189 2 -334.5 75t-229 215t-83.5 333zM283 633q0 -247 151.5 -388t405.5 -143l262 1241h-133q-194 0 -352 -95t-246 -257.5 t-88 -357.5z" />
<glyph unicode="&#x153;" horiz-adv-x="2152" d="M96 438q0 166 75 305t207.5 220t293.5 81q175 0 296 -85.5t165 -227.5q73 142 201 227.5t284 85.5q206 0 326 -126t120 -318q0 -76 -10 -129h-893v-31q0 -170 102 -268t279 -98q119 0 204.5 50t151.5 148l87 -51q-163 -241 -451 -241q-170 0 -290 81t-163 224 q-74 -140 -205 -222.5t-292 -82.5q-222 0 -355 130t-133 328zM201 446q0 -162 105.5 -267t285.5 -105q100 0 187 41t147 109.5t94.5 161t34.5 192.5q0 161 -105.5 265.5t-285.5 104.5q-198 0 -330.5 -147t-132.5 -355zM1176 563h786q9 169 -86 277t-266 108 q-157 0 -277.5 -110t-156.5 -275z" />
<glyph unicode="&#x178;" horiz-adv-x="1198" d="M225 1446h117l287 -748l602 748h139l-700 -862l-125 -584h-111l123 586zM580 1698q0 37 27 62.5t65 25.5q33 0 53 -19.5t20 -50.5q0 -38 -27 -64t-65 -26q-33 0 -53 20t-20 52zM926 1698q0 37 27 62.5t65 25.5q33 0 53.5 -19.5t20.5 -50.5q0 -38 -27 -64t-66 -26 q-33 0 -53 20t-20 52z" />
<glyph unicode="&#x2c6;" horiz-adv-x="647" d="M184 1206l305 295h89l182 -295h-96l-136 221l-229 -221h-115z" />
<glyph unicode="&#x2dc;" horiz-adv-x="647" d="M186 1235q14 102 64.5 159.5t130.5 57.5q41 0 76.5 -22t57.5 -48.5t52 -48.5t60 -22q36 0 63 36t39 99h86q-14 -102 -64 -159.5t-130 -57.5q-33 0 -62.5 14.5t-50.5 35t-41 40.5t-43.5 34.5t-48.5 14.5q-38 0 -64.5 -35t-38.5 -98h-86z" />
<glyph unicode="&#x2000;" horiz-adv-x="952" />
<glyph unicode="&#x2001;" horiz-adv-x="1905" />
<glyph unicode="&#x2002;" horiz-adv-x="952" />
<glyph unicode="&#x2003;" horiz-adv-x="1905" />
<glyph unicode="&#x2004;" horiz-adv-x="635" />
<glyph unicode="&#x2005;" horiz-adv-x="476" />
<glyph unicode="&#x2006;" horiz-adv-x="317" />
<glyph unicode="&#x2007;" horiz-adv-x="317" />
<glyph unicode="&#x2008;" horiz-adv-x="238" />
<glyph unicode="&#x2009;" horiz-adv-x="381" />
<glyph unicode="&#x200a;" horiz-adv-x="105" />
<glyph unicode="&#x2010;" horiz-adv-x="870" d="M98 465l19 98h657l-20 -98h-656z" />
<glyph unicode="&#x2011;" horiz-adv-x="870" d="M98 465l19 98h657l-20 -98h-656z" />
<glyph unicode="&#x2012;" horiz-adv-x="870" d="M98 465l19 98h657l-20 -98h-656z" />
<glyph unicode="&#x2013;" horiz-adv-x="1163" d="M82 465l20 98h979l-18 -98h-981z" />
<glyph unicode="&#x2014;" horiz-adv-x="1968" d="M82 465l20 98h1786l-20 -98h-1786z" />
<glyph unicode="&#x2018;" horiz-adv-x="442" d="M225 975l221 526h91l-181 -526h-131z" />
<glyph unicode="&#x2019;" horiz-adv-x="442" d="M215 975l180 526h131l-223 -526h-88z" />
<glyph unicode="&#x201a;" horiz-adv-x="442" d="M-57 -307l180 526h131l-221 -526h-90z" />
<glyph unicode="&#x201c;" horiz-adv-x="780" d="M225 975l211 526h88l-168 -526h-131zM575 975l211 526h88l-167 -526h-132z" />
<glyph unicode="&#x201d;" horiz-adv-x="780" d="M215 975l168 526h131l-211 -526h-88zM565 975l168 526h131l-211 -526h-88z" />
<glyph unicode="&#x201e;" horiz-adv-x="780" d="M-57 -307l168 526h131l-211 -526h-88zM293 -307l168 526h131l-211 -526h-88z" />
<glyph unicode="&#x2022;" horiz-adv-x="653" d="M129 485q0 100 65 163t156 63q84 0 134.5 -47.5t50.5 -124.5q0 -103 -64.5 -164.5t-161.5 -61.5q-81 0 -130.5 47.5t-49.5 124.5z" />
<glyph unicode="&#x2026;" horiz-adv-x="1325" d="M37 66q0 44 29.5 72t70.5 28q37 0 59.5 -21t22.5 -55q0 -46 -28.5 -73t-71.5 -27q-37 0 -59.5 21t-22.5 55zM479 66q0 44 30 72t71 28q37 0 59.5 -21t22.5 -55q0 -46 -29 -73t-72 -27q-37 0 -59.5 21t-22.5 55zM920 66q0 44 29.5 72t70.5 28q37 0 59.5 -21t22.5 -55 q0 -46 -29 -73t-72 -27q-37 0 -59 21t-22 55z" />
<glyph unicode="&#x202f;" horiz-adv-x="381" />
<glyph unicode="&#x2039;" horiz-adv-x="544" d="M66 508l393 457l84 -54l-363 -419l166 -386l-82 -53z" />
<glyph unicode="&#x203a;" horiz-adv-x="544" d="M0 106l362 420l-165 385l82 54l198 -455l-393 -457z" />
<glyph unicode="&#x205f;" horiz-adv-x="476" />
<glyph unicode="&#x20ac;" horiz-adv-x="1417" d="M84 526l18 88h156q6 117 37 232h-143l20 88h150q86 238 257 385t396 147q160 0 286.5 -72.5t178.5 -193.5l-97 -45q-42 96 -141.5 153.5t-234.5 57.5q-183 0 -321.5 -119.5t-211.5 -312.5h588l-21 -88h-595q-31 -118 -37 -232h583l-18 -88h-565q10 -221 122.5 -333.5 t307.5 -112.5q131 0 241 59.5t170 163.5l74 -61q-74 -122 -209 -192t-289 -70q-235 0 -378.5 149t-151.5 397h-172z" />
<glyph unicode="&#x2122;" horiz-adv-x="1306" d="M221 1370l17 76h473l-17 -76h-194l-115 -532h-84l113 532h-193zM698 838l129 608h95l120 -363l283 363h102l-131 -608h-79l102 477l-272 -338h-48l-114 350l-107 -489h-80z" />
<glyph unicode="&#x25fc;" horiz-adv-x="1024" d="M0 0v1024h1024v-1024h-1024z" />
</font>
</defs>
</svg>
