<?xml version="1.0" standalone="no"?>
<!DOCTYPE svg PUBLIC "-//W3C//DTD SVG 1.1//EN" "http://www.w3.org/Graphics/SVG/1.1/DTD/svg11.dtd" >
<svg xmlns="http://www.w3.org/2000/svg" xmlns:xlink="http://www.w3.org/1999/xlink" version="1.1">
<metadata></metadata>
<defs>
<font id="zabal_demosemibold_italic" horiz-adv-x="530" >
<font-face units-per-em="2048" ascent="1638" descent="-410" />
<missing-glyph horiz-adv-x="468" />
<glyph unicode="&#xfb01;" horiz-adv-x="1284" d="M104 0l177 834h-175l44 194h172l30 141q39 180 132.5 267.5t254.5 87.5q38 0 98 -8.5t87 -18.5l-41 -184q-56 20 -142 20q-68 0 -106.5 -43t-65.5 -166l-20 -96h266l-43 -194h-264l-178 -834h-226zM797 0l217 1028h227l-217 -1028h-227zM1053 1329q0 63 46.5 106.5 t108.5 43.5q59 0 95 -34t36 -85q0 -64 -47.5 -109t-109.5 -45q-57 0 -93 35.5t-36 87.5z" />
<glyph unicode="&#xfb02;" horiz-adv-x="1280" d="M104 0l177 834h-175l44 194h172l30 141q39 180 132.5 267.5t254.5 87.5q38 0 98 -8.5t87 -18.5l-41 -184q-56 20 -142 20q-68 0 -106.5 -43t-65.5 -166l-20 -96h266l-43 -194h-264l-178 -834h-226zM795 0l317 1501h227l-317 -1501h-227z" />
<glyph horiz-adv-x="0" />
<glyph horiz-adv-x="682" />
<glyph horiz-adv-x="0" />
<glyph horiz-adv-x="0" />
<glyph unicode="&#xd;" horiz-adv-x="681" />
<glyph unicode=" "  horiz-adv-x="468" />
<glyph unicode="&#x09;" horiz-adv-x="468" />
<glyph unicode="&#xa0;" horiz-adv-x="468" />
<glyph unicode="!" horiz-adv-x="532" d="M33 115q0 73 47.5 120.5t114.5 47.5q65 0 104 -36.5t39 -92.5q0 -74 -47 -121t-119 -47q-63 0 -101 36t-38 93zM164 440l172 1006h262l-256 -1006h-178z" />
<glyph unicode="&#x22;" horiz-adv-x="839" d="M190 870l134 631h208l-133 -631h-209zM594 870l133 631h207l-133 -631h-207z" />
<glyph unicode="#" horiz-adv-x="1433" d="M8 360l37 175h291l156 360h-256l36 176h295l162 375h203l-162 -375h285l162 375h200l-162 -375h256l-36 -176h-295l-156 -360h262l-39 -175h-297l-155 -360h-203l156 360h-283l-156 -360h-203l156 360h-254zM539 535h284l156 360h-285z" />
<glyph unicode="$" horiz-adv-x="1175" d="M12 285l213 96q54 -133 207 -178l92 430q-74 27 -128.5 56t-101.5 71t-71 99t-24 128q0 212 141 346.5t360 134.5q29 0 43 -2l35 164h148l-41 -188q105 -32 182.5 -98.5t108.5 -161.5l-218 -92q-38 93 -118 137l-92 -432q76 -25 131.5 -53.5t102.5 -68.5t71 -94t24 -122 q0 -216 -142.5 -348t-369.5 -132h-33l-34 -161h-148l39 180q-134 29 -232.5 102t-144.5 187zM432 1018q0 -65 42.5 -104t135.5 -74l90 422h-14q-113 0 -183.5 -68.5t-70.5 -175.5zM575 184q117 3 189 68.5t72 169.5q0 60 -41 95.5t-133 68.5z" />
<glyph unicode="%" horiz-adv-x="2086" d="M160 915q0 108 28.5 207t81.5 176.5t136 123.5t184 46q161 0 252.5 -91.5t91.5 -254.5q0 -108 -28.5 -207t-81.5 -176.5t-136 -123.5t-184 -46q-161 0 -252.5 91.5t-91.5 254.5zM362 932q0 -86 38.5 -134t113.5 -48q54 0 97.5 33.5t68.5 87t38 113.5t13 120 q0 87 -38 135.5t-113 48.5q-54 0 -97.5 -33.5t-69 -87t-38.5 -114.5t-13 -121zM406 0l1132 1446h236l-1135 -1446h-233zM1241 324q0 108 28.5 207t81.5 176.5t136 123.5t184 46q161 0 252.5 -91.5t91.5 -255.5q0 -108 -28.5 -207t-81.5 -176.5t-136 -123.5t-184 -46 q-161 0 -252.5 91.5t-91.5 255.5zM1444 340q0 -87 38 -134.5t113 -47.5q54 0 97.5 33.5t68.5 87t38 113.5t13 120q0 87 -38 135.5t-113 48.5q-54 0 -97.5 -33.5t-68.5 -87t-38 -114t-13 -121.5z" />
<glyph unicode="&#x26;" horiz-adv-x="1423" d="M86 360q0 77 22.5 141.5t58 111t90.5 87t108 67.5t122 54q-86 140 -86 271q0 162 119.5 269t290.5 107q161 0 262 -86t101 -219q0 -67 -23 -123.5t-57.5 -96t-91 -76.5t-106 -60t-120.5 -51l252 -346q116 153 156 364h223q-72 -316 -260 -526l113 -156l-156 -119 l-105 144q-199 -140 -426 -140q-210 0 -348.5 105t-138.5 278zM311 393q0 -99 81 -160t212 -61q150 0 285 96l-303 414q-63 -26 -108 -51.5t-85.5 -60t-61 -79t-20.5 -98.5zM616 1094q0 -97 64 -201q67 25 112.5 47t88 51.5t63.5 67t21 82.5q0 59 -45 99t-113 40 q-77 0 -134 -54.5t-57 -131.5z" />
<glyph unicode="'" horiz-adv-x="438" d="M190 870l134 631h208l-133 -631h-209z" />
<glyph unicode="(" horiz-adv-x="743" d="M90 356q0 229 90 449t257 398.5t386 283.5l64 -193q-172 -84 -302.5 -230.5t-199 -323.5t-68.5 -359q0 -196 66.5 -345t189.5 -229l-137 -143q-167 107 -256.5 281t-89.5 411z" />
<glyph unicode=")" horiz-adv-x="743" d="M-119 -143q173 84 303 230.5t198.5 324t68.5 360.5q0 196 -66.5 344t-189.5 230l137 141q167 -106 256.5 -280.5t89.5 -411.5q0 -347 -201 -658.5t-532 -472.5z" />
<glyph unicode="*" horiz-adv-x="929" d="M178 1055l324 63l-240 176l92 162l205 -258l23 303h186l-113 -325l254 133l92 -162l-319 -66l236 -172l-93 -164l-204 259l-23 -304h-186l112 322l-254 -131z" />
<glyph unicode="+" horiz-adv-x="1150" d="M100 543l43 200h375l82 390h213l-84 -390h375l-43 -200h-373l-84 -389h-211l82 389h-375z" />
<glyph unicode="," d="M-66 -299l185 631h266l-268 -631h-183z" />
<glyph unicode="-" horiz-adv-x="948" d="M94 414l39 200h719l-39 -200h-719z" />
<glyph unicode="." d="M33 115q0 73 47.5 120.5t114.5 47.5q65 0 104 -36.5t39 -92.5q0 -74 -47 -121t-119 -47q-63 0 -101 36t-38 93z" />
<glyph unicode="/" horiz-adv-x="733" d="M-221 -258l923 1759h232l-924 -1759h-231z" />
<glyph unicode="0" horiz-adv-x="1468" d="M141 565q0 175 50 336t140 285.5t228 199t303 74.5q264 0 411.5 -151t147.5 -420q0 -141 -31.5 -274t-94.5 -246.5t-149 -199.5t-203 -134.5t-249 -48.5q-259 0 -406 156t-147 423zM375 582q0 -183 87 -283t247 -100q112 0 205 60t151 157.5t89.5 216t31.5 241.5 q0 183 -88 278t-250 95q-90 0 -168 -38t-133 -103t-94.5 -150.5t-58.5 -180.5t-19 -193z" />
<glyph unicode="1" horiz-adv-x="831" d="M188 1208l617 252h63l-311 -1460h-233l245 1153l-352 -145z" />
<glyph unicode="2" horiz-adv-x="1218" d="M-12 0l37 172l286 195q279 187 386 275q204 167 251 317q17 52 17 106q0 88 -67 141.5t-187 53.5q-233 0 -351 -209l-147 151q63 119 200.5 192.5t327.5 73.5q96 0 177.5 -23.5t145.5 -70t100 -124.5t36 -179q0 -79 -18.5 -149.5t-59 -136t-91 -123.5t-128 -121.5 t-154.5 -118t-186 -125.5l-137 -88h623l-45 -209h-1016z" />
<glyph unicode="3" horiz-adv-x="1220" d="M0 272l213 105q34 -92 124 -142.5t218 -50.5q141 0 231.5 82t90.5 209q0 113 -89 174.5t-219 61.5q-84 0 -163 -31l-74 137l512 420h-545l43 209h905l-35 -164l-522 -403q194 -18 307 -112t113 -261q0 -238 -155.5 -383.5t-405.5 -145.5q-194 0 -345.5 75.5t-203.5 219.5 z" />
<glyph unicode="4" horiz-adv-x="1277" d="M31 291l35 164l655 991h274l-635 -957h437l82 377h221l-82 -377h196l-43 -198h-194l-64 -291h-221l64 291h-725z" />
<glyph unicode="5" horiz-adv-x="1224" d="M0 279l209 100q36 -92 124.5 -143.5t217.5 -51.5q146 0 239 90t93 222q0 126 -88.5 187.5t-229.5 61.5q-178 0 -325 -116l-121 30l235 787h879l-45 -209h-676l-102 -346q93 49 235 49q75 0 143.5 -16.5t129 -51t105 -84t70 -120.5t25.5 -156q0 -150 -70 -271.5 t-199 -192.5t-294 -71q-128 0 -237.5 32.5t-194.5 101.5t-123 168z" />
<glyph unicode="6" horiz-adv-x="1325" d="M113 446q0 85 22.5 168t59 155t97.5 149t123.5 140t153 139t169 135t188.5 138l231 -110q-274 -172 -508 -389q55 10 109 10q209 0 338 -123.5t129 -312.5q0 -162 -75 -292t-207.5 -203t-297.5 -73q-233 0 -382.5 127t-149.5 342zM344 453q0 -117 83 -192t226 -75 q150 0 243 96t93 244q0 117 -81.5 191t-223.5 74q-152 0 -246 -95.5t-94 -242.5z" />
<glyph unicode="7" horiz-adv-x="1128" d="M59 0l867 1237h-684l43 209h981l-35 -164l-891 -1282h-281z" />
<glyph unicode="8" horiz-adv-x="1273" d="M66 362q0 167 93.5 277t256.5 154q-78 47 -121 115.5t-43 146.5q0 187 140.5 299t357.5 112q218 0 357.5 -94t139.5 -262q0 -135 -75.5 -229.5t-204.5 -137.5q92 -55 143 -136t51 -175q0 -211 -147.5 -331.5t-399.5 -120.5q-151 0 -274 43.5t-198.5 131.5t-75.5 207z M299 403q0 -105 92 -161t232 -56t223.5 68t83.5 186q0 110 -86.5 167t-220.5 57q-139 0 -231.5 -72t-92.5 -189zM475 1049q0 -84 72.5 -135.5t204.5 -51.5q118 0 192 59t74 158q0 90 -72 137.5t-188 47.5q-125 0 -204 -58.5t-79 -156.5z" />
<glyph unicode="9" horiz-adv-x="1327" d="M190 901q0 246 164 406.5t416 160.5q152 0 272 -55.5t190.5 -163t70.5 -250.5q0 -85 -22.5 -168t-59 -155t-98 -149t-123.5 -140t-153 -139t-169.5 -135t-188.5 -138l-231 111q274 172 508 389q-55 -10 -109 -10q-209 0 -338 123.5t-129 312.5zM426 920q0 -117 81.5 -191 t223.5 -74q151 0 245.5 96t94.5 242q0 117 -83.5 192t-225.5 75q-150 0 -243 -96t-93 -244z" />
<glyph unicode=":" d="M33 115q0 73 47.5 120.5t114.5 47.5q65 0 104 -36.5t39 -92.5q0 -74 -47 -121t-119 -47q-63 0 -101 36t-38 93zM195 877q0 74 46 120.5t115 46.5q65 0 103.5 -36t38.5 -93q0 -75 -46 -121t-120 -46q-62 0 -99.5 36.5t-37.5 92.5z" />
<glyph unicode=";" horiz-adv-x="542" d="M-66 -299l185 631h266l-268 -631h-183zM195 877q0 73 46.5 120t114.5 47q65 0 104.5 -36.5t39.5 -92.5q0 -75 -46 -121t-120 -46q-62 0 -100.5 36.5t-38.5 92.5z" />
<glyph unicode="&#x3c;" horiz-adv-x="1038" d="M84 545l43 196l944 387l-49 -237l-664 -264l553 -269l-47 -200z" />
<glyph unicode="=" horiz-adv-x="1101" d="M49 285l41 200h909l-41 -200h-909zM158 799l41 200h909l-41 -200h-909z" />
<glyph unicode="&#x3e;" horiz-adv-x="1038" d="M25 158l47 237l663 267l-551 266l45 200l783 -387l-43 -196z" />
<glyph unicode="?" horiz-adv-x="1048" d="M168 1165q71 144 198.5 221.5t282.5 77.5q189 0 304.5 -92t115.5 -254q0 -71 -29 -140t-75 -123.5t-102 -106t-111 -94t-100 -80t-72 -72t-25 -62.5h-197q-4 50 20.5 98t66.5 88.5t93.5 81t104 82t95.5 84.5t70.5 96t27.5 109q0 86 -59 133.5t-148 47.5q-93 0 -171 -53.5 t-114 -149.5zM266 115q0 74 47.5 121t116.5 47q64 0 102.5 -36.5t38.5 -92.5q0 -75 -45.5 -121.5t-119.5 -46.5q-62 0 -101 36.5t-39 92.5z" />
<glyph unicode="@" horiz-adv-x="1734" d="M84 428q0 187 64.5 351t177 281t271.5 184t341 67q211 0 376.5 -80.5t259 -231t93.5 -346.5q0 -154 -49 -277t-146 -196.5t-227 -73.5q-117 0 -189.5 58t-84.5 151q-81 -102 -197 -102q-110 0 -181 76.5t-71 195.5q0 150 95.5 261.5t228.5 111.5t182 -110l19 96h194 l-80 -424q-26 -150 101 -150q67 0 116 55.5t70.5 135.5t21.5 170q0 150 -73.5 263t-196.5 170.5t-276 57.5q-186 0 -333.5 -87.5t-228.5 -240.5t-81 -343q0 -118 47 -217.5t128.5 -166.5t192 -104t236.5 -37q140 0 237 43l31 -182q-121 -45 -287 -45q-224 0 -401 83.5 t-279 240.5t-102 362zM715 500q0 -54 32 -86.5t93 -32.5q66 0 109.5 55.5t43.5 134.5q0 55 -32 88t-89 33q-69 0 -113 -55.5t-44 -136.5z" />
<glyph unicode="A" horiz-adv-x="1347" d="M-96 0l835 1446h269l219 -1446h-238l-45 330h-584l-186 -330h-270zM479 543h436l-86 635z" />
<glyph unicode="B" horiz-adv-x="1263" d="M57 0l308 1446h477q104 0 182.5 -27t124 -73t68 -102t22.5 -120q0 -162 -94 -261t-258 -134q127 -29 194.5 -106t67.5 -189q0 -119 -40 -204t-118 -135t-182.5 -72.5t-243.5 -22.5h-508zM342 209h227q62 0 110 6t92 22.5t72.5 43t45 69t16.5 99.5q0 85 -64.5 129.5 t-189.5 44.5h-223zM473 827h207q163 0 241 59.5t78 194.5q0 156 -249 156h-191z" />
<glyph unicode="C" horiz-adv-x="1550" d="M150 625q0 237 100 429t283.5 303t416.5 111q216 0 380.5 -102t223.5 -283l-241 -88q-34 119 -135 187.5t-246 68.5q-159 0 -283 -81.5t-190 -219t-66 -305.5q0 -205 119.5 -327.5t327.5 -122.5q298 0 444 288l186 -118q-109 -198 -272.5 -293t-398.5 -95 q-186 0 -332 75.5t-231.5 224t-85.5 348.5z" />
<glyph unicode="D" horiz-adv-x="1472" d="M57 0l308 1446h383q302 0 485.5 -157.5t183.5 -436.5q0 -139 -34.5 -264.5t-107 -233t-176.5 -186t-250.5 -123.5t-320.5 -45h-471zM342 215h233q142 0 257.5 50.5t189.5 137t114 198t40 235.5q0 184 -112.5 289.5t-287.5 105.5h-219z" />
<glyph unicode="E" horiz-adv-x="1159" d="M57 0l308 1446h878l-47 -215h-641l-84 -402h557l-45 -211h-557l-86 -403h659l-47 -215h-895z" />
<glyph unicode="F" horiz-adv-x="1095" d="M57 0l308 1446h856l-47 -217h-617l-84 -404h549l-47 -217h-549l-129 -608h-240z" />
<glyph unicode="G" horiz-adv-x="1642" d="M147 625q0 176 63.5 332.5t173 268.5t264 177t329.5 65q219 0 388 -102t228 -283l-241 -88q-34 118 -139.5 187t-251.5 69q-161 0 -292 -81t-204.5 -220t-73.5 -305q0 -203 127.5 -326.5t337.5 -123.5q190 0 309.5 99t171.5 277h-491l43 207h729l-21 -123 q-64 -330 -258 -504t-524 -174q-139 0 -260.5 44t-212.5 125.5t-143 205t-52 273.5z" />
<glyph unicode="H" horiz-adv-x="1468" d="M57 0l308 1446h239l-131 -615h660l129 615h239l-307 -1446h-240l131 616h-657l-131 -616h-240z" />
<glyph unicode="I" horiz-adv-x="591" d="M66 0l307 1446h243l-309 -1446h-241z" />
<glyph unicode="J" horiz-adv-x="1105" d="M2 293l209 96q50 -194 252 -194q119 0 175 71.5t91 229.5l201 950h239l-204 -967q-25 -117 -63.5 -206t-97 -157t-143 -103.5t-192.5 -35.5q-183 0 -311 93.5t-156 222.5z" />
<glyph unicode="K" horiz-adv-x="1333" d="M57 0l308 1446h239l-139 -655l653 655h330l-727 -717l475 -729h-274l-471 721l-154 -721h-240z" />
<glyph unicode="L" horiz-adv-x="1105" d="M57 0l308 1446h239l-260 -1229h639l-47 -217h-879z" />
<glyph unicode="M" horiz-adv-x="1798" d="M57 0l308 1446h253l269 -928l690 928h256l-307 -1446h-240l205 967l-578 -779h-163l-238 838l-217 -1026h-238z" />
<glyph unicode="N" horiz-adv-x="1484" d="M57 0l308 1446h221l473 -1038l221 1038h238l-308 -1446h-221l-473 1040l-221 -1040h-238z" />
<glyph unicode="O" horiz-adv-x="1712" d="M147 618q0 173 64 330t173.5 271t263.5 181.5t327 67.5q195 0 349.5 -79.5t242.5 -227t88 -336.5q0 -173 -64.5 -329.5t-174 -270t-263.5 -181t-326 -67.5q-196 0 -350.5 79.5t-242 226t-87.5 335.5zM389 639q0 -197 125 -320.5t332 -123.5q160 0 290.5 85t202.5 225 t72 302q0 197 -126.5 320.5t-328.5 123.5q-159 0 -290 -83t-204 -223t-73 -306z" />
<glyph unicode="P" horiz-adv-x="1234" d="M57 0l308 1446h448q219 0 335 -90t116 -256q0 -121 -33.5 -219t-102 -173.5t-182.5 -117t-266 -41.5h-266l-117 -549h-240zM459 760h231q332 0 332 307q0 79 -64.5 122.5t-191.5 43.5h-209z" />
<glyph unicode="Q" horiz-adv-x="1712" d="M147 618q0 173 64 330t173.5 271t263.5 181.5t327 67.5q195 0 349.5 -79.5t242.5 -227t88 -336.5q0 -180 -67.5 -339t-188.5 -277l88 -166l-189 -100l-69 139q-184 -105 -402 -105q-196 0 -350.5 79.5t-242 226t-87.5 335.5zM389 639q0 -197 125 -320.5t332 -123.5 q139 0 256 63l-217 408l182 102l195 -377q71 84 110 192t39 224q0 197 -126.5 320.5t-328.5 123.5q-159 0 -290 -83t-204 -223t-73 -306z" />
<glyph unicode="R" horiz-adv-x="1314" d="M57 0l308 1446h462q210 0 319 -93t109 -251q0 -185 -97.5 -317t-289.5 -167l316 -618h-262l-289 573h-215l-121 -573h-240zM463 778h221q168 0 248 73.5t80 223.5q0 158 -230 158h-225z" />
<glyph unicode="S" horiz-adv-x="1175" d="M12 285l217 98q25 -65 77.5 -109.5t117.5 -64t141 -19.5q121 0 195 63t74 169q0 67 -60.5 108t-200.5 86q-67 22 -118 43.5t-101.5 53.5t-82.5 69.5t-52 89.5t-20 115q0 212 141 346.5t360 134.5q164 0 298 -75.5t178 -210.5l-222 -95q-63 168 -264 168 q-113 0 -182.5 -68t-69.5 -173q0 -77 62 -119t211 -88q85 -27 145.5 -56t113 -70.5t79 -98.5t26.5 -129q0 -216 -141 -346t-369 -130q-196 0 -344 78.5t-209 229.5z" />
<glyph unicode="T" horiz-adv-x="1208" d="M213 1229l45 217h1090l-48 -217h-423l-263 -1229h-239l262 1229h-424z" />
<glyph unicode="U" horiz-adv-x="1413" d="M146 369q-6 42 -6 88q0 86 22 182l170 807h239l-172 -821q-18 -86 -18 -155q1 -106 43 -170q70 -106 274 -105q152 0 233 90t120 274l186 887h240l-193 -918q-60 -272 -207.5 -411.5t-400.5 -139.5q-159 0 -274 48t-176.5 135t-79.5 209z" />
<glyph unicode="V" horiz-adv-x="1300" d="M213 1446h240l135 -1157l624 1157h273l-807 -1446h-270z" />
<glyph unicode="W" horiz-adv-x="1970" d="M213 1446h240l45 -1118l569 1118h231l76 -1114l514 1114h266l-704 -1446h-248l-88 1073l-563 -1073h-248z" />
<glyph unicode="X" horiz-adv-x="1306" d="M-84 0l637 772l-289 674h256l209 -514l410 514h305l-588 -713l315 -733h-253l-238 569l-459 -569h-305z" />
<glyph unicode="Y" horiz-adv-x="1249" d="M205 1446h250l209 -649l479 649h299l-690 -897l-117 -549h-240l117 553z" />
<glyph unicode="Z" horiz-adv-x="1173" d="M-33 0l39 180l903 1049h-657l47 217h987l-37 -178l-903 -1051h721l-47 -217h-1053z" />
<glyph unicode="[" horiz-adv-x="696" d="M-16 -313l376 1769h498l-43 -196h-270l-295 -1377h274l-43 -196h-497z" />
<glyph unicode="\" horiz-adv-x="733" d="M217 1501h207l203 -1759h-207z" />
<glyph unicode="]" horiz-adv-x="696" d="M-139 -313l43 196h272l295 1377h-276l43 196h497l-377 -1769h-497z" />
<glyph unicode="^" horiz-adv-x="1126" d="M150 758l536 688h152l243 -688h-215l-141 418l-317 -418h-258z" />
<glyph unicode="_" horiz-adv-x="925" d="M-190 -297l40 203h963l-41 -203h-962z" />
<glyph unicode="`" horiz-adv-x="724" d="M381 1501h223l92 -327h-180z" />
<glyph unicode="a" horiz-adv-x="1259" d="M82 444q0 166 64.5 304.5t183.5 220.5t268 82q140 0 233 -57.5t140 -157.5l41 192h225l-219 -1028h-225l30 137q-126 -160 -323 -160q-181 0 -299.5 129.5t-118.5 337.5zM305 471q0 -127 74.5 -210t198.5 -83q101 0 177.5 54t115 139.5t38.5 187.5q0 128 -72.5 210.5 t-195.5 82.5q-150 0 -243 -112t-93 -269z" />
<glyph unicode="b" horiz-adv-x="1267" d="M31 0l319 1501h225l-126 -598q123 148 323 148q188 0 301 -127.5t113 -337.5q0 -167 -64 -306t-182.5 -221t-267.5 -82q-139 0 -234 58t-141 158l-41 -193h-225zM358 469q0 -126 75 -208.5t196 -82.5q151 0 242.5 111t91.5 268q0 129 -73.5 212t-195.5 83 q-151 0 -243.5 -112.5t-92.5 -270.5z" />
<glyph unicode="c" horiz-adv-x="1114" d="M76 436q0 167 75 307.5t209.5 224t298.5 83.5q155 0 270.5 -71.5t164.5 -201.5l-217 -82q-63 156 -228 156q-102 0 -183 -57t-123 -146.5t-42 -191.5q0 -126 72.5 -202.5t197.5 -76.5q178 0 275 176l180 -114q-79 -133 -199 -198t-266 -65q-219 0 -352 127t-133 332z" />
<glyph unicode="d" horiz-adv-x="1259" d="M82 444q0 167 63 305t181 220t268 82q140 0 234 -57.5t141 -157.5l143 665h225l-319 -1501h-225l28 137q-126 -160 -325 -160q-180 0 -297 129t-117 338zM305 471q0 -128 72 -210.5t194 -82.5q102 0 180 53.5t117 139.5t39 188q0 127 -74 210t-196 83q-101 0 -178 -53.5 t-115.5 -139.5t-38.5 -188z" />
<glyph unicode="e" horiz-adv-x="1193" d="M78 438q0 126 42.5 238.5t117 195t183.5 131t236 48.5q211 0 336 -123.5t125 -319.5q0 -86 -18 -176h-803q5 -120 84 -190t225 -70q169 0 275 137l161 -119q-158 -213 -452 -213q-225 0 -368.5 126t-143.5 335zM317 604h590q-5 115 -72.5 186.5t-187.5 71.5t-207.5 -71.5 t-122.5 -186.5z" />
<glyph unicode="f" horiz-adv-x="753" d="M104 0l177 834h-175l44 194h172l30 141q39 180 132.5 267.5t254.5 87.5q38 0 98 -8.5t87 -18.5l-41 -184q-56 20 -142 20q-68 0 -106.5 -43t-65.5 -166l-20 -96h266l-43 -194h-264l-178 -834h-226z" />
<glyph unicode="g" horiz-adv-x="1261" d="M-10 -184l213 92q78 -139 293 -139q251 0 313 299l18 90q-124 -156 -321 -156q-183 0 -301.5 127t-118.5 334q0 167 64 301t181 210.5t267 76.5q140 0 234 -57.5t141 -157.5l41 192h225l-201 -938q-53 -256 -184.5 -385t-378.5 -129q-168 0 -298 62.5t-187 177.5z M309 492q0 -128 73.5 -208.5t197.5 -80.5q152 0 240.5 100.5t88.5 255.5q0 127 -72.5 210t-193.5 83q-153 0 -243.5 -102.5t-90.5 -257.5z" />
<glyph unicode="h" horiz-adv-x="1206" d="M31 0l319 1501h225l-133 -624q135 174 351 174q96 0 166.5 -36t106.5 -99.5t47 -149.5q3 -27 3 -55q0 -62 -16 -129l-125 -582h-225l118 537q16 74 16 130q0 187 -177 187q-129 0 -219 -94.5t-126 -257.5l-106 -502h-225z" />
<glyph unicode="i" d="M43 0l217 1028h227l-217 -1028h-227zM299 1329q0 63 47 106.5t109 43.5q59 0 95 -34t36 -85q0 -63 -47.5 -108.5t-110.5 -45.5q-57 0 -93 35.5t-36 87.5z" />
<glyph unicode="j" horiz-adv-x="532" d="M-285 -397l43 184q70 -18 123 -18q62 0 96.5 40t57.5 146l227 1073h227l-235 -1116q-35 -167 -121 -251.5t-246 -84.5q-85 0 -172 27zM301 1329q0 63 47 106.5t109 43.5q59 0 95 -34t36 -85q0 -63 -47.5 -108.5t-110.5 -45.5q-57 0 -93 35.5t-36 87.5z" />
<glyph unicode="k" horiz-adv-x="1103" d="M31 0l319 1501h225l-196 -921l481 448h305l-561 -504l379 -524h-252l-366 506l-109 -506h-225z" />
<glyph unicode="l" horiz-adv-x="526" d="M41 0l317 1501h228l-318 -1501h-227z" />
<glyph unicode="m" horiz-adv-x="1808" d="M31 0l219 1028h225l-29 -129q118 152 291 152q240 0 297 -185q155 185 357 185q199 0 278 -125q49 -78 49 -192q0 -69 -18 -152l-123 -582h-225l118 561q14 65 14 116q0 177 -177 177q-99 0 -171.5 -77t-97.5 -199l-120 -578h-226l119 561q13 67 13 120q0 19 -2 35 q-6 66 -50 103t-127 37q-99 0 -169.5 -79t-96.5 -206l-123 -571h-225z" />
<glyph unicode="n" horiz-adv-x="1196" d="M31 0l219 1028h225l-33 -151q65 83 157 128.5t198 45.5q194 0 267 -125q44 -76 44 -187q0 -71 -18 -157l-125 -582h-226l119 537q17 78 17 137q0 63 -20 103q-39 77 -150 77q-127 0 -214.5 -94t-125.5 -258l-109 -502h-225z" />
<glyph unicode="o" horiz-adv-x="1245" d="M76 440q0 170 79 310.5t216 220.5t303 80q220 0 357.5 -129t137.5 -332q0 -170 -79 -311t-216 -221.5t-303 -80.5q-221 0 -358 129t-137 334zM301 459q0 -125 78.5 -203t208.5 -78q102 0 185 55t127 144t44 192q0 125 -79.5 204t-207.5 79q-152 0 -254 -115t-102 -278z " />
<glyph unicode="p" horiz-adv-x="1267" d="M-55 -401l303 1429h225l-27 -125q59 71 144 109.5t184 38.5q188 0 300 -127.5t112 -337.5q0 -125 -37 -236.5t-103 -194t-162.5 -130.5t-209.5 -48q-141 0 -235.5 58t-141.5 158l-127 -594h-225zM358 469q0 -126 75 -208.5t198 -82.5q151 0 241.5 110.5t90.5 268.5 q0 129 -72.5 212t-194.5 83q-102 0 -180.5 -54t-118 -140.5t-39.5 -188.5z" />
<glyph unicode="q" horiz-adv-x="1259" d="M80 444q0 167 64 305t183 220t269 82q140 0 234 -57.5t141 -157.5l41 192h225l-303 -1429h-225l114 538q-126 -160 -325 -160q-181 0 -299.5 129.5t-118.5 337.5zM305 471q0 -127 73 -210t195 -83q102 0 180 53.5t117 139.5t39 188q0 127 -74 210t-196 83 q-151 0 -242.5 -111.5t-91.5 -269.5z" />
<glyph unicode="r" horiz-adv-x="780" d="M31 0l219 1028h225l-33 -149q127 172 322 172q43 0 88 -9l-51 -225q-59 17 -123 17q-116 0 -197.5 -87.5t-113.5 -232.5l-111 -514h-225z" />
<glyph unicode="s" horiz-adv-x="974" d="M-6 242l201 75q68 -153 284 -153q76 0 122 37.5t46 99.5q0 42 -43 71t-160 66q-148 46 -227.5 114t-79.5 173q0 147 112.5 236.5t285.5 89.5q137 0 249.5 -54.5t159.5 -158.5l-203 -82q-27 54 -79 80t-142 26q-75 0 -120.5 -32t-45.5 -89q0 -14 5.5 -25.5t20 -23.5 t27.5 -20.5t41.5 -22t47.5 -21.5t59 -24q71 -28 109.5 -45t84 -43.5t67.5 -52t37 -62t15 -82.5q0 -157 -116.5 -249.5t-302.5 -92.5q-160 0 -285 67t-170 198z" />
<glyph unicode="t" horiz-adv-x="774" d="M106 834l41 194h175l57 270h225l-57 -270h266l-41 -194h-268l-103 -480q-8 -39 -8 -69q1 -45 19 -71q30 -42 129 -42q46 0 96 12l-37 -190q-46 -12 -98 -12q-206 0 -286 90q-53 60 -53 164q0 52 13 114l103 484h-173z" />
<glyph unicode="u" horiz-adv-x="1177" d="M86 262q-3 24 -3 50q0 64 17 134l125 582h226l-121 -536q-17 -78 -16 -135q0 -64 20 -105q39 -76 151 -76q127 0 214.5 93.5t121.5 256.5l107 502h225l-219 -1028h-223l34 152q-136 -175 -346 -175q-96 0 -165.5 36.5t-103.5 99.5t-44 149z" />
<glyph unicode="v" horiz-adv-x="1095" d="M133 1028h234l116 -782l435 782h262l-611 -1028h-245z" />
<glyph unicode="w" horiz-adv-x="1554" d="M133 1028h223l31 -743l395 743h207l62 -743l338 743h249l-514 -1028h-225l-70 725l-393 -725h-225z" />
<glyph unicode="x" horiz-adv-x="1077" d="M-92 0l483 547l-254 481h246l172 -358l301 358h293l-463 -514l266 -514h-243l-189 385l-321 -385h-291z" />
<glyph unicode="y" horiz-adv-x="1095" d="M104 -401l232 393l-201 1036h232l116 -801l435 801h262l-822 -1429h-254z" />
<glyph unicode="z" horiz-adv-x="993" d="M-20 0l30 143l631 691h-479l43 194h794l-30 -141l-627 -690h516l-43 -197h-835z" />
<glyph unicode="{" horiz-adv-x="770" d="M4 479l39 183h37q89 0 132 39t62 130l66 314q37 167 125 239t254 72h215l-43 -196h-154q-76 0 -118.5 -35t-59.5 -111l-61 -285q-30 -135 -86.5 -197t-157.5 -81q76 -32 111 -104t12 -185l-45 -225q-13 -69 19 -111.5t89 -42.5h158l-43 -196h-141q-186 0 -264 90.5 t-44 257.5l58 272q13 71 -18.5 121.5t-112.5 50.5h-29z" />
<glyph unicode="|" horiz-adv-x="575" d="M-12 -401l434 2048h213l-434 -2048h-213z" />
<glyph unicode="}" horiz-adv-x="770" d="M-139 -313l43 196h151q78 0 120.5 35.5t57.5 110.5l62 284q30 133 87.5 196t156.5 81q-167 73 -123 291l47 225q13 68 -20 111t-91 43h-157l43 196h143q184 0 261.5 -90.5t43.5 -257.5l-55 -272q-15 -71 17.5 -121.5t113.5 -50.5h26l-36 -183h-39q-89 0 -131.5 -39 t-61.5 -131l-67 -311q-35 -168 -123 -240.5t-254 -72.5h-215z" />
<glyph unicode="~" horiz-adv-x="1212" d="M129 596q51 115 136 175t181 60q56 0 114 -26t99.5 -56.5t93.5 -56.5t97 -26q63 0 103 28t77 80l107 -84q-102 -233 -308 -233q-58 0 -118.5 26.5t-103.5 58.5t-95.5 58.5t-95.5 26.5q-105 0 -180 -115z" />
<glyph unicode="&#xa1;" horiz-adv-x="532" d="M-63 -401l256 1005h178l-172 -1005h-262zM197 891q0 75 45.5 121.5t119.5 46.5q62 0 101 -36.5t39 -92.5q0 -74 -47 -121t-115 -47q-65 0 -104 36.5t-39 92.5z" />
<glyph unicode="&#xa2;" horiz-adv-x="1112" d="M123 655q0 125 42.5 237.5t117 194t181 129.5t228.5 48q82 0 162 -23l111 205h153l-139 -260q108 -72 156 -193l-211 -78q-12 30 -50 78l-327 -604q30 -6 65 -6q184 0 281 178l178 -108q-155 -265 -471 -265q-77 0 -151 19l-109 -203h-154l138 256q-96 59 -148.5 161.5 t-52.5 233.5zM340 672q0 -143 86 -223l330 612q-31 8 -74 8q-153 0 -247.5 -117t-94.5 -280z" />
<glyph unicode="&#xa3;" horiz-adv-x="1224" d="M-35 0l45 211h176l80 377h-160l44 192h157l43 201q47 230 185 358.5t335 128.5q165 0 277.5 -77t148.5 -209l-196 -103q-20 84 -75.5 128t-162.5 44q-114 0 -181.5 -75t-98.5 -218l-39 -178h444l-41 -192h-444l-80 -377h678l-45 -211h-1090z" />
<glyph unicode="&#xa4;" horiz-adv-x="1169" d="M27 336l178 147q-41 80 -41 176q0 205 143 355l-94 121l139 110l101 -127q100 47 215 47q153 0 260 -69l186 153l117 -135l-184 -149q43 -79 43 -183q0 -98 -36.5 -188t-101.5 -158l95 -121l-142 -112l-98 125q-104 -52 -223 -52q-149 0 -258 72l-183 -147zM369 682 q0 -95 62 -156t171 -61q120 0 201.5 89t81.5 208q0 94 -63.5 153.5t-174.5 59.5q-115 0 -196.5 -87t-81.5 -206z" />
<glyph unicode="&#xa5;" horiz-adv-x="1249" d="M119 281l33 153h335l25 119l-16 47h-310l33 154h223l-237 692h250l209 -649l479 649h299l-533 -692h221l-32 -154h-307l-39 -51l-25 -115h336l-35 -153h-334l-59 -281h-240l60 281h-336z" />
<glyph unicode="&#xa6;" horiz-adv-x="575" d="M-12 -401l174 819h213l-174 -819h-213zM248 827l174 820h213l-174 -820h-213z" />
<glyph unicode="&#xa7;" horiz-adv-x="1120" d="M-10 -14l211 86q63 -154 266 -154q96 0 156.5 46.5t60.5 123.5q0 58 -52 94.5t-173 81.5q-70 26 -120 52.5t-94 63t-66.5 85.5t-22.5 110q0 123 67 214.5t178 130.5q-108 81 -108 217q0 168 118.5 277.5t301.5 109.5q160 0 272.5 -66.5t147.5 -171.5l-209 -82 q-61 125 -213 125q-86 0 -141.5 -49.5t-55.5 -126.5q0 -58 51.5 -92.5t171.5 -79.5q149 -55 223 -123t74 -182q0 -128 -66.5 -216t-179.5 -126q113 -86 113 -217q0 -176 -120 -286t-314 -110q-171 0 -300 67t-177 198zM358 610q0 -62 51.5 -102.5t172.5 -79.5q247 7 247 203 q0 59 -53.5 106t-179.5 88l-10 4q-102 -6 -165 -67.5t-63 -151.5z" />
<glyph unicode="&#xa8;" horiz-adv-x="724" d="M203 1331q0 63 43.5 103.5t105.5 40.5q56 0 90.5 -32.5t34.5 -82.5q0 -64 -44.5 -106t-106.5 -42q-57 0 -90 33.5t-33 85.5zM602 1331q0 63 44 103.5t106 40.5q56 0 89 -32t33 -83q0 -65 -44 -106.5t-107 -41.5q-56 0 -88.5 33.5t-32.5 85.5z" />
<glyph unicode="&#xa9;" horiz-adv-x="1708" d="M147 621q0 171 60.5 326t166 270t259.5 183t332 68q150 0 278.5 -49.5t217 -135t138.5 -204t50 -254.5q0 -171 -60.5 -326t-166 -270.5t-259.5 -183.5t-332 -68q-150 0 -278.5 49.5t-217 135.5t-138.5 204.5t-50 254.5zM297 637q0 -230 152.5 -372t392.5 -142 q184 0 335.5 95t235.5 252t84 339q0 230 -152 372t-391 142q-138 0 -261 -56t-209.5 -149.5t-136.5 -219t-50 -261.5zM502 659q0 123 59 228.5t162 168t225 62.5q126 0 217.5 -56t124.5 -149l-186 -71q-21 46 -64 74t-102 28q-100 0 -171 -79t-71 -185q0 -83 54 -134.5 t143 -51.5q125 0 192 120l148 -98q-109 -197 -350 -197q-173 0 -277 94.5t-104 245.5z" />
<glyph unicode="&#xaa;" horiz-adv-x="876" d="M188 1063q0 170 105.5 282.5t263.5 112.5q88 0 143.5 -34.5t81.5 -82.5l23 105h184l-139 -670h-184l20 92q-79 -104 -217 -104q-133 0 -207 85t-74 214zM381 1079q0 -71 40.5 -114t121.5 -43q88 0 145 66t57 155q0 72 -41.5 116t-121.5 44q-90 0 -145.5 -65t-55.5 -159z " />
<glyph unicode="&#xab;" horiz-adv-x="1128" d="M49 508l410 485l162 -123l-334 -393l139 -346l-172 -106zM559 508l412 485l159 -123l-333 -393l139 -346l-172 -106z" />
<glyph unicode="&#xac;" horiz-adv-x="1105" d="M133 692l43 201h916l-111 -510h-221l63 309h-690z" />
<glyph unicode="&#xad;" horiz-adv-x="948" d="M94 414l39 200h719l-39 -200h-719z" />
<glyph unicode="&#xae;" horiz-adv-x="1046" d="M178 954q0 142 63 259.5t177 186t256 68.5q187 0 298 -107t111 -274q0 -215 -141.5 -363.5t-353.5 -148.5q-187 0 -298.5 106.5t-111.5 272.5zM252 965q0 -142 91.5 -231t252.5 -89q88 0 166 35.5t132 95.5t85 139t31 164q0 141 -91.5 230.5t-254.5 89.5 q-117 0 -212.5 -61t-147.5 -160.5t-52 -212.5zM401 791l99 469h190q75 0 114.5 -32t39.5 -87t-30 -96.5t-85 -53.5l78 -200h-121l-63 172h-74l-37 -172h-111zM563 1042h76q40 0 65 21.5t25 56.5q0 27 -19.5 40.5t-50.5 13.5h-69z" />
<glyph unicode="&#xaf;" horiz-adv-x="724" d="M233 1249l37 174h572l-37 -174h-572z" />
<glyph unicode="&#xb0;" horiz-adv-x="897" d="M211 1122q0 170 109 286t286 116q163 0 260 -93.5t97 -226.5q0 -170 -110 -285.5t-288 -115.5q-163 0 -258.5 92.5t-95.5 226.5zM401 1135q0 -69 45 -112.5t125 -43.5q88 0 143.5 61.5t55.5 151.5q0 68 -45.5 112t-124.5 44q-88 0 -143.5 -61.5t-55.5 -151.5z" />
<glyph unicode="&#xb1;" horiz-adv-x="1150" d="M-14 0l43 203h958l-43 -203h-958zM145 741l43 203h373l82 383h213l-82 -383h373l-43 -203h-373l-82 -383h-211l82 383h-375z" />
<glyph unicode="&#xb2;" horiz-adv-x="749" d="M115 774l28 135l217 144q144 96 216.5 173t72.5 156q0 46 -30 69.5t-84 23.5q-49 0 -95.5 -26.5t-77.5 -74.5l-122 125q51 66 137.5 109t191.5 43q131 0 210 -66t79 -184q0 -110 -71.5 -208t-235.5 -198l-72 -43h303l-37 -178h-630z" />
<glyph unicode="&#xb3;" horiz-adv-x="755" d="M113 909l151 111q25 -42 74.5 -67t110.5 -25q65 0 110 40.5t45 106.5q0 55 -38 85t-105 30q-43 0 -80 -16l-43 81l246 203h-314l35 170h580l-29 -139l-240 -197q84 -21 135.5 -80.5t51.5 -146.5q0 -138 -98.5 -225.5t-249.5 -87.5q-108 0 -201.5 39.5t-140.5 117.5z" />
<glyph unicode="&#xb4;" horiz-adv-x="724" d="M299 1174l225 327h254l-278 -327h-201z" />
<glyph unicode="&#xb5;" horiz-adv-x="1163" d="M-94 -401l303 1429h225l-115 -536q-64 -316 162 -316q119 0 205.5 94.5t120.5 255.5l106 502h226l-217 -1028h-226l35 145q-126 -168 -297 -168q-61 0 -116 24t-89 65l-98 -467h-225z" />
<glyph unicode="&#xb6;" horiz-adv-x="987" d="M182 948q0 145 74 259.5t200.5 176.5t282.5 62h273l-394 -1847h-229l219 1032h-33q-186 0 -289.5 84t-103.5 233z" />
<glyph unicode="&#xb7;" d="M113 496q0 72 47 119t114 47q65 0 104.5 -36t39.5 -94q0 -75 -46 -120t-120 -45q-62 0 -100.5 36.5t-38.5 92.5z" />
<glyph unicode="&#xb8;" horiz-adv-x="724" d="M-76 -442l35 155q86 -45 178 -45q41 0 66.5 20t25.5 54q0 30 -31 50t-98 20h-30l49 227h168l-33 -145q77 -12 123.5 -58t46.5 -110q0 -101 -70 -158t-192 -57q-141 0 -238 47z" />
<glyph unicode="&#xb9;" horiz-adv-x="606" d="M233 1491l422 147h66l-184 -864h-203l131 612l-207 -69z" />
<glyph unicode="&#xba;" horiz-adv-x="858" d="M188 1063q0 172 105.5 283.5t275.5 111.5q163 0 259 -84t96 -213q0 -172 -105 -283.5t-276 -111.5q-162 0 -258.5 84t-96.5 213zM379 1083q0 -68 46 -109.5t122 -41.5q85 0 135.5 58.5t50.5 150.5q0 68 -46 109.5t-122 41.5q-85 0 -135.5 -58t-50.5 -151z" />
<glyph unicode="&#xbb;" horiz-adv-x="1128" d="M-6 147l334 394l-140 346l172 106l205 -483l-409 -485zM504 147l334 394l-140 346l174 106l205 -483l-411 -485z" />
<glyph unicode="&#xbc;" horiz-adv-x="1753" d="M186 0l1133 1446h235l-1134 -1446h-234zM195 1309l421 147h66l-184 -864h-203l131 612l-207 -69zM915 152l33 151l357 551h223l-346 -545h213l53 242h176l-51 -242h96l-35 -157h-96l-33 -152h-182l33 152h-441z" />
<glyph unicode="&#xbd;" horiz-adv-x="1792" d="M186 0l1133 1446h235l-1134 -1446h-234zM195 1309l421 147h66l-184 -864h-203l131 612l-207 -69zM995 0l29 135l217 144q144 96 216.5 173t72.5 156q0 46 -30.5 69t-84.5 23q-49 0 -95 -26t-77 -74l-123 125q51 66 138 109t192 43q131 0 210 -66t79 -184 q0 -110 -71.5 -208t-235.5 -198l-72 -43h303l-37 -178h-631z" />
<glyph unicode="&#xbe;" horiz-adv-x="1878" d="M74 727l151 111q25 -42 74.5 -67.5t110.5 -25.5q65 0 110 41t45 107q0 55 -38 85t-105 30q-41 0 -80 -17l-43 82l246 203h-314l35 170h580l-29 -139l-239 -197q84 -21 135 -80.5t51 -146.5q0 -138 -98.5 -226t-249.5 -88q-108 0 -201.5 40t-140.5 118zM311 0l1133 1446 h235l-1134 -1446h-234zM1040 152l33 151l357 551h223l-346 -545h213l53 242h176l-51 -242h96l-35 -157h-96l-33 -152h-182l33 152h-441z" />
<glyph unicode="&#xbf;" horiz-adv-x="952" d="M-20 -76q0 71 29 140t75.5 123.5t102.5 106t111 94t100.5 80t72.5 72t25 62.5h194q4 -50 -20 -98.5t-65.5 -89t-93 -81t-103.5 -82.5t-95 -84.5t-70.5 -95.5t-27.5 -108q0 -87 58.5 -134.5t148.5 -47.5q92 0 170.5 54.5t112.5 148.5l178 -107q-72 -146 -200 -223.5 t-284 -77.5q-188 0 -303.5 92.5t-115.5 255.5zM475 889q0 76 46 122t120 46q62 0 100.5 -36.5t38.5 -92.5q0 -74 -47 -121t-115 -47q-65 0 -104 36.5t-39 92.5z" />
<glyph unicode="&#xc0;" horiz-adv-x="1347" d="M-96 0l835 1446h269l219 -1446h-238l-45 330h-584l-186 -330h-270zM479 543h436l-86 635zM668 1874h225l94 -315h-180z" />
<glyph unicode="&#xc1;" horiz-adv-x="1347" d="M-96 0l835 1446h269l219 -1446h-238l-45 330h-584l-186 -330h-270zM479 543h436l-86 635zM793 1559l229 315h254l-283 -315h-200z" />
<glyph unicode="&#xc2;" horiz-adv-x="1347" d="M-96 0l835 1446h269l219 -1446h-238l-45 330h-584l-186 -330h-270zM479 543h436l-86 635zM543 1559l319 315h187l180 -315h-193l-100 180l-176 -180h-217z" />
<glyph unicode="&#xc3;" horiz-adv-x="1347" d="M-96 0l835 1446h269l219 -1446h-238l-45 330h-584l-186 -330h-270zM479 543h436l-86 635zM561 1573q21 133 83.5 204.5t164.5 71.5q35 0 66 -12t52.5 -29t40.5 -34t39.5 -29t41.5 -12q56 0 79 108h168q-19 -133 -81.5 -205.5t-163.5 -72.5q-35 0 -65.5 12t-52 29t-41 34 t-40.5 29t-43 12q-56 0 -80 -106h-168z" />
<glyph unicode="&#xc4;" horiz-adv-x="1347" d="M-96 0l835 1446h269l219 -1446h-238l-45 330h-584l-186 -330h-270zM479 543h436l-86 635zM582 1702q0 59 44 100t105 41q56 0 90.5 -32t34.5 -82q0 -61 -45 -103.5t-106 -42.5q-56 0 -89.5 33.5t-33.5 85.5zM979 1702q0 59 44 100t105 41q56 0 90.5 -32t34.5 -82 q0 -61 -44.5 -103.5t-106.5 -42.5q-56 0 -89.5 33.5t-33.5 85.5z" />
<glyph unicode="&#xc5;" horiz-adv-x="1347" d="M-96 0l835 1446h269l219 -1446h-238l-45 330h-584l-186 -330h-270zM479 543h436l-86 635zM692 1708q0 107 74 177.5t180 70.5q102 0 163.5 -53.5t61.5 -137.5q0 -107 -73 -177t-178 -70q-103 0 -165.5 53t-62.5 137zM819 1720q0 -39 29 -63.5t74 -24.5q51 0 86.5 35 t35.5 86q0 39 -28.5 64.5t-73.5 25.5q-49 0 -86 -34.5t-37 -88.5z" />
<glyph unicode="&#xc6;" horiz-adv-x="1929" d="M-96 0l1069 1446h1040l-47 -215h-641l-84 -402h557l-45 -211h-557l-86 -403h659l-45 -215h-893l68 322h-483l-226 -322h-286zM565 532h379l150 703h-9z" />
<glyph unicode="&#xc7;" horiz-adv-x="1550" d="M150 625q0 237 100 429t283.5 303t416.5 111q216 0 380.5 -102t223.5 -283l-241 -88q-34 119 -135 187.5t-246 68.5q-159 0 -283 -81.5t-190 -219t-66 -305.5q0 -205 119.5 -327.5t327.5 -122.5q298 0 444 288l186 -118q-106 -193 -264.5 -288.5t-384.5 -99.5l-18 -83 q77 -12 123.5 -58t46.5 -110q0 -101 -70 -158t-192 -57q-141 0 -238 47l35 155q86 -45 178 -45q43 0 67.5 20t24.5 54q0 30 -31 50t-96 20h-33l39 178q-229 41 -368 208.5t-139 426.5z" />
<glyph unicode="&#xc8;" horiz-adv-x="1159" d="M57 0l308 1446h878l-47 -215h-641l-84 -402h557l-45 -211h-557l-86 -403h659l-47 -215h-895zM598 1874h225l95 -315h-181z" />
<glyph unicode="&#xc9;" horiz-adv-x="1159" d="M57 0l308 1446h878l-47 -215h-641l-84 -402h557l-45 -211h-557l-86 -403h659l-47 -215h-895zM725 1559l229 315h254l-282 -315h-201z" />
<glyph unicode="&#xca;" horiz-adv-x="1159" d="M57 0l308 1446h878l-47 -215h-641l-84 -402h557l-45 -211h-557l-86 -403h659l-47 -215h-895zM475 1559l320 315h186l180 -315h-192l-101 180l-176 -180h-217z" />
<glyph unicode="&#xcb;" horiz-adv-x="1159" d="M57 0l308 1446h878l-47 -215h-641l-84 -402h557l-45 -211h-557l-86 -403h659l-47 -215h-895zM514 1702q0 59 44.5 100t105.5 41q56 0 90 -32t34 -82q0 -61 -45 -103.5t-106 -42.5q-56 0 -89.5 33.5t-33.5 85.5zM911 1702q0 59 44.5 100t105.5 41q56 0 90.5 -32t34.5 -82 q0 -61 -45 -103.5t-107 -42.5q-56 0 -89.5 33.5t-33.5 85.5z" />
<glyph unicode="&#xcc;" horiz-adv-x="591" d="M66 0l307 1446h243l-309 -1446h-241zM289 1874h225l94 -315h-180z" />
<glyph unicode="&#xcd;" horiz-adv-x="591" d="M66 0l307 1446h243l-309 -1446h-241zM416 1559l229 315h254l-283 -315h-200z" />
<glyph unicode="&#xce;" horiz-adv-x="591" d="M66 0l307 1446h243l-309 -1446h-241zM164 1559l319 315h187l180 -315h-193l-100 180l-176 -180h-217z" />
<glyph unicode="&#xcf;" horiz-adv-x="591" d="M66 0l307 1446h243l-309 -1446h-241zM203 1702q0 59 44 100t105 41q56 0 90.5 -32t34.5 -82q0 -61 -45 -103.5t-106 -42.5q-56 0 -89.5 33.5t-33.5 85.5zM600 1702q0 59 44.5 100t105.5 41q56 0 90 -32t34 -82q0 -61 -44.5 -103.5t-106.5 -42.5q-56 0 -89.5 33.5 t-33.5 85.5z" />
<glyph unicode="&#xd0;" horiz-adv-x="1513" d="M20 623l46 196h206l134 627h382q302 0 486 -157.5t184 -436.5q0 -139 -34.5 -264.5t-107 -233t-176.5 -186t-250.5 -123.5t-320.5 -45h-471l133 623h-211zM383 215h233q142 0 257.5 50.5t189.5 137t114 198t40 235.5q0 184 -112.5 289.5t-287.5 105.5h-219l-88 -412h373 l-43 -196h-371z" />
<glyph unicode="&#xd1;" horiz-adv-x="1484" d="M57 0l308 1446h221l473 -1038l221 1038h238l-308 -1446h-221l-473 1040l-221 -1040h-238zM623 1573q21 133 83 204.5t164 71.5q35 0 66 -12t52.5 -29t40.5 -34t39.5 -29t41.5 -12q57 0 80 108h168q-19 -133 -82 -205.5t-164 -72.5q-35 0 -65.5 12t-52 29t-41 34t-40.5 29 t-43 12q-55 0 -79 -106h-168z" />
<glyph unicode="&#xd2;" horiz-adv-x="1712" d="M147 618q0 173 64 330t173.5 271t263.5 181.5t327 67.5q195 0 349.5 -79.5t242.5 -227t88 -336.5q0 -173 -64.5 -329.5t-174 -270t-263.5 -181t-326 -67.5q-196 0 -350.5 79.5t-242 226t-87.5 335.5zM389 639q0 -197 125 -320.5t332 -123.5q160 0 290.5 85t202.5 225 t72 302q0 197 -126.5 320.5t-328.5 123.5q-159 0 -290 -83t-204 -223t-73 -306zM809 1872h225l94 -316h-180z" />
<glyph unicode="&#xd3;" horiz-adv-x="1712" d="M147 618q0 173 64 330t173.5 271t263.5 181.5t327 67.5q195 0 349.5 -79.5t242.5 -227t88 -336.5q0 -173 -64.5 -329.5t-174 -270t-263.5 -181t-326 -67.5q-196 0 -350.5 79.5t-242 226t-87.5 335.5zM389 639q0 -197 125 -320.5t332 -123.5q160 0 290.5 85t202.5 225 t72 302q0 197 -126.5 320.5t-328.5 123.5q-159 0 -290 -83t-204 -223t-73 -306zM936 1556l229 316h254l-282 -316h-201z" />
<glyph unicode="&#xd4;" horiz-adv-x="1712" d="M147 618q0 173 64 330t173.5 271t263.5 181.5t327 67.5q195 0 349.5 -79.5t242.5 -227t88 -336.5q0 -173 -64.5 -329.5t-174 -270t-263.5 -181t-326 -67.5q-196 0 -350.5 79.5t-242 226t-87.5 335.5zM389 639q0 -197 125 -320.5t332 -123.5q160 0 290.5 85t202.5 225 t72 302q0 197 -126.5 320.5t-328.5 123.5q-159 0 -290 -83t-204 -223t-73 -306zM686 1556l320 316h186l180 -316h-192l-101 181l-176 -181h-217z" />
<glyph unicode="&#xd5;" horiz-adv-x="1712" d="M147 618q0 173 64 330t173.5 271t263.5 181.5t327 67.5q195 0 349.5 -79.5t242.5 -227t88 -336.5q0 -173 -64.5 -329.5t-174 -270t-263.5 -181t-326 -67.5q-196 0 -350.5 79.5t-242 226t-87.5 335.5zM389 639q0 -197 125 -320.5t332 -123.5q160 0 290.5 85t202.5 225 t72 302q0 197 -126.5 320.5t-328.5 123.5q-159 0 -290 -83t-204 -223t-73 -306zM705 1571q21 133 83 204.5t164 71.5q35 0 66 -12t52.5 -29t40.5 -34t39.5 -29t41.5 -12q57 0 80 108h168q-19 -133 -82 -205.5t-164 -72.5q-35 0 -65.5 12t-52 29t-41 34t-40.5 29t-43 12 q-56 0 -80 -106h-167z" />
<glyph unicode="&#xd6;" horiz-adv-x="1712" d="M147 618q0 173 64 330t173.5 271t263.5 181.5t327 67.5q195 0 349.5 -79.5t242.5 -227t88 -336.5q0 -173 -64.5 -329.5t-174 -270t-263.5 -181t-326 -67.5q-196 0 -350.5 79.5t-242 226t-87.5 335.5zM389 639q0 -197 125 -320.5t332 -123.5q160 0 290.5 85t202.5 225 t72 302q0 197 -126.5 320.5t-328.5 123.5q-159 0 -290 -83t-204 -223t-73 -306zM725 1700q0 59 44 100t105 41q56 0 90.5 -32.5t34.5 -82.5q0 -61 -45 -103t-106 -42q-56 0 -89.5 33.5t-33.5 85.5zM1122 1700q0 59 44.5 100t105.5 41q56 0 90.5 -32.5t34.5 -82.5 q0 -61 -45 -103t-107 -42q-56 0 -89.5 33.5t-33.5 85.5z" />
<glyph unicode="&#xd7;" horiz-adv-x="1161" d="M49 303l426 359l-256 337l154 129l256 -337l401 339l135 -147l-415 -352l249 -330l-153 -129l-250 330l-410 -348z" />
<glyph unicode="&#xd8;" horiz-adv-x="1712" d="M59 -59l232 264q-144 170 -144 413q0 173 64 330t173.5 271t263.5 181.5t327 67.5q200 0 356 -84l88 101h246l-184 -211q83 -85 128.5 -200t45.5 -249q0 -173 -64.5 -329.5t-174 -270t-263.5 -181t-326 -67.5q-228 0 -395 107l-125 -143h-248zM389 639q0 -142 68 -248 l717 813q-96 47 -218 47q-159 0 -290 -83t-204 -223t-73 -306zM588 260q114 -65 258 -65q160 0 290.5 85t202.5 225t72 302q0 168 -92 283z" />
<glyph unicode="&#xd9;" horiz-adv-x="1413" d="M146 369q-18 122 16 270l170 807h239l-172 -821q-46 -219 24.5 -324.5t274.5 -105.5q152 0 233 90t120 274l186 887h240l-193 -918q-60 -272 -207.5 -411.5t-400.5 -139.5q-159 0 -274 48t-176.5 135t-79.5 209zM698 1874h226l94 -315h-180z" />
<glyph unicode="&#xda;" horiz-adv-x="1413" d="M146 369q-18 122 16 270l170 807h239l-172 -821q-46 -219 24.5 -324.5t274.5 -105.5q152 0 233 90t120 274l186 887h240l-193 -918q-60 -272 -207.5 -411.5t-400.5 -139.5q-159 0 -274 48t-176.5 135t-79.5 209zM825 1559l230 315h254l-283 -315h-201z" />
<glyph unicode="&#xdb;" horiz-adv-x="1413" d="M146 369q-18 122 16 270l170 807h239l-172 -821q-46 -219 24.5 -324.5t274.5 -105.5q152 0 233 90t120 274l186 887h240l-193 -918q-60 -272 -207.5 -411.5t-400.5 -139.5q-159 0 -274 48t-176.5 135t-79.5 209zM575 1559l320 315h186l181 -315h-193l-100 180l-176 -180 h-218z" />
<glyph unicode="&#xdc;" horiz-adv-x="1413" d="M146 369q-18 122 16 270l170 807h239l-172 -821q-46 -219 24.5 -324.5t274.5 -105.5q152 0 233 90t120 274l186 887h240l-193 -918q-60 -272 -207.5 -411.5t-400.5 -139.5q-159 0 -274 48t-176.5 135t-79.5 209zM614 1702q0 59 44.5 100t105.5 41q56 0 90.5 -32t34.5 -82 q0 -61 -45.5 -103.5t-106.5 -42.5q-56 0 -89.5 33.5t-33.5 85.5zM1012 1702q0 59 44 100t105 41q56 0 90.5 -32t34.5 -82q0 -61 -44.5 -103.5t-106.5 -42.5q-56 0 -89.5 33.5t-33.5 85.5z" />
<glyph unicode="&#xdd;" horiz-adv-x="1249" d="M205 1446h250l209 -649l479 649h299l-690 -897l-117 -549h-240l117 553zM721 1559l229 315h254l-282 -315h-201z" />
<glyph unicode="&#xde;" horiz-adv-x="1234" d="M57 0l308 1446h239l-55 -256h211q219 0 334.5 -89.5t115.5 -256.5q0 -121 -33.5 -219.5t-102 -173.5t-182.5 -116.5t-265 -41.5h-269l-61 -293h-240zM403 504h232q332 0 332 307q0 77 -64.5 121.5t-191.5 44.5h-207z" />
<glyph unicode="&#xdf;" horiz-adv-x="1263" d="M104 0l177 834h-175l44 194h172l30 141q39 180 132.5 267.5t254.5 87.5q38 0 98 -8.5t87 -18.5l-41 -184q-56 20 -142 20q-68 0 -106.5 -43t-65.5 -166l-20 -96h670l-35 -164l-379 -399q141 -13 230 -110.5t89 -237.5q0 -244 -141 -388.5t-397 -144.5q-164 0 -279 51 l96 191q80 -41 189 -41q150 0 228.5 92t78.5 232q0 98 -60 151t-161 53q-45 0 -107 -12l-61 102l395 431h-397l-178 -834h-226z" />
<glyph unicode="&#xe0;" horiz-adv-x="1259" d="M82 444q0 166 64.5 304.5t183.5 220.5t268 82q140 0 233 -57.5t140 -157.5l41 192h225l-219 -1028h-225l30 137q-126 -160 -323 -160q-181 0 -299.5 129.5t-118.5 337.5zM305 471q0 -127 74.5 -210t198.5 -83q101 0 177.5 54t115 139.5t38.5 187.5q0 128 -72.5 210.5 t-195.5 82.5q-150 0 -243 -112t-93 -269zM555 1501h225l90 -327h-178z" />
<glyph unicode="&#xe1;" horiz-adv-x="1259" d="M82 444q0 166 64.5 304.5t183.5 220.5t268 82q140 0 233 -57.5t140 -157.5l41 192h225l-219 -1028h-225l30 137q-126 -160 -323 -160q-181 0 -299.5 129.5t-118.5 337.5zM305 471q0 -127 74.5 -210t198.5 -83q101 0 177.5 54t115 139.5t38.5 187.5q0 128 -72.5 210.5 t-195.5 82.5q-150 0 -243 -112t-93 -269zM680 1174l227 327h254l-278 -327h-203z" />
<glyph unicode="&#xe2;" horiz-adv-x="1259" d="M82 444q0 166 64.5 304.5t183.5 220.5t268 82q140 0 233 -57.5t140 -157.5l41 192h225l-219 -1028h-225l30 137q-126 -160 -323 -160q-181 0 -299.5 129.5t-118.5 337.5zM305 471q0 -127 74.5 -210t198.5 -83q101 0 177.5 54t115 139.5t38.5 187.5q0 128 -72.5 210.5 t-195.5 82.5q-150 0 -243 -112t-93 -269zM428 1174l330 327h184l193 -327h-193l-106 188l-187 -188h-221z" />
<glyph unicode="&#xe3;" horiz-adv-x="1259" d="M82 444q0 166 64.5 304.5t183.5 220.5t268 82q140 0 233 -57.5t140 -157.5l41 192h225l-219 -1028h-225l30 137q-126 -160 -323 -160q-181 0 -299.5 129.5t-118.5 337.5zM305 471q0 -127 74.5 -210t198.5 -83q101 0 177.5 54t115 139.5t38.5 187.5q0 128 -72.5 210.5 t-195.5 82.5q-150 0 -243 -112t-93 -269zM446 1188q21 133 83.5 204.5t164.5 71.5q35 0 66 -12t52.5 -29t40.5 -34t39.5 -29t41.5 -12q57 0 80 108h168q-19 -132 -82 -204t-166 -72q-42 0 -79 18t-59 39t-49 39t-53 18q-58 0 -80 -106h-168z" />
<glyph unicode="&#xe4;" horiz-adv-x="1259" d="M82 444q0 166 64.5 304.5t183.5 220.5t268 82q140 0 233 -57.5t140 -157.5l41 192h225l-219 -1028h-225l30 137q-126 -160 -323 -160q-181 0 -299.5 129.5t-118.5 337.5zM305 471q0 -127 74.5 -210t198.5 -83q101 0 177.5 54t115 139.5t38.5 187.5q0 128 -72.5 210.5 t-195.5 82.5q-150 0 -243 -112t-93 -269zM467 1331q0 63 43.5 103.5t105.5 40.5q56 0 90.5 -32.5t34.5 -82.5q0 -64 -44.5 -106t-106.5 -42q-56 0 -89.5 33.5t-33.5 85.5zM866 1331q0 63 44 103.5t106 40.5q56 0 90.5 -32.5t34.5 -82.5q0 -64 -45.5 -106t-108.5 -42 q-56 0 -88.5 33.5t-32.5 85.5z" />
<glyph unicode="&#xe5;" horiz-adv-x="1259" d="M82 444q0 166 64.5 304.5t183.5 220.5t268 82q140 0 233 -57.5t140 -157.5l41 192h225l-219 -1028h-225l30 137q-126 -160 -323 -160q-181 0 -299.5 129.5t-118.5 337.5zM305 471q0 -127 74.5 -210t198.5 -83q101 0 177.5 54t115 139.5t38.5 187.5q0 128 -72.5 210.5 t-195.5 82.5q-150 0 -243 -112t-93 -269zM586 1356q0 107 74 177.5t180 70.5q103 0 165 -53.5t62 -139.5q0 -106 -74 -176t-180 -70q-102 0 -164.5 53.5t-62.5 137.5zM715 1368q0 -39 28.5 -64.5t71.5 -25.5q52 0 87.5 35.5t35.5 85.5q0 40 -28.5 66t-73.5 26 q-48 0 -84.5 -35t-36.5 -88z" />
<glyph unicode="&#xe6;" horiz-adv-x="1857" d="M18 295q0 167 107.5 268t282.5 101q104 0 205 -34.5t143 -82.5l14 67q26 126 -37 186t-188 60q-140 0 -248 -104l-154 116q69 82 180.5 130.5t241.5 48.5q123 0 216 -43t143 -121q154 164 395 164q212 0 337.5 -123t125.5 -320q0 -81 -19 -176h-807q6 -120 86.5 -190 t227.5 -70q166 0 274 137l162 -119q-161 -213 -453 -213q-139 0 -247.5 50t-171.5 143q-126 -193 -383 -193q-117 0 -213.5 35t-158 108.5t-61.5 174.5zM238 319q0 -74 60 -113.5t161 -39.5q102 0 169 51.5t89 147.5q-32 65 -108.5 96t-168.5 31q-202 0 -202 -173zM977 604 h594q-5 115 -73 186.5t-189 71.5t-209 -72t-123 -186z" />
<glyph unicode="&#xe7;" horiz-adv-x="1114" d="M76 436q0 167 75 307.5t209.5 224t298.5 83.5q155 0 270.5 -71.5t164.5 -201.5l-217 -82q-63 156 -228 156q-102 0 -183 -57t-123 -146.5t-42 -191.5q0 -126 72.5 -202.5t197.5 -76.5q178 0 275 176l180 -114q-77 -130 -194.5 -195t-260.5 -68l-18 -83q77 -12 123.5 -58 t46.5 -110q0 -101 -70 -158t-192 -57q-141 0 -238 47l35 155q86 -45 178 -45q43 0 67.5 20t24.5 54q0 30 -31 50t-96 20h-32l39 184q-154 40 -243 157.5t-89 282.5z" />
<glyph unicode="&#xe8;" horiz-adv-x="1193" d="M78 438q0 126 42.5 238.5t117 195t183.5 131t236 48.5q211 0 336 -123.5t125 -319.5q0 -86 -18 -176h-803q5 -120 84 -190t225 -70q169 0 275 137l161 -119q-158 -213 -452 -213q-225 0 -368.5 126t-143.5 335zM317 604h590q-5 115 -72.5 186.5t-187.5 71.5t-207.5 -71.5 t-122.5 -186.5zM479 1501h226l90 -327h-179z" />
<glyph unicode="&#xe9;" horiz-adv-x="1193" d="M78 438q0 126 42.5 238.5t117 195t183.5 131t236 48.5q211 0 336 -123.5t125 -319.5q0 -86 -18 -176h-803q5 -120 84 -190t225 -70q169 0 275 137l161 -119q-158 -213 -452 -213q-225 0 -368.5 126t-143.5 335zM317 604h590q-5 115 -72.5 186.5t-187.5 71.5t-207.5 -71.5 t-122.5 -186.5zM604 1174l227 327h254l-278 -327h-203z" />
<glyph unicode="&#xea;" horiz-adv-x="1193" d="M78 438q0 126 42.5 238.5t117 195t183.5 131t236 48.5q211 0 336 -123.5t125 -319.5q0 -86 -18 -176h-803q5 -120 84 -190t225 -70q169 0 275 137l161 -119q-158 -213 -452 -213q-225 0 -368.5 126t-143.5 335zM317 604h590q-5 115 -72.5 186.5t-187.5 71.5t-207.5 -71.5 t-122.5 -186.5zM352 1174l330 327h184l193 -327h-193l-106 188l-187 -188h-221z" />
<glyph unicode="&#xeb;" horiz-adv-x="1193" d="M78 438q0 126 42.5 238.5t117 195t183.5 131t236 48.5q211 0 336 -123.5t125 -319.5q0 -86 -18 -176h-803q5 -120 84 -190t225 -70q169 0 275 137l161 -119q-158 -213 -452 -213q-225 0 -368.5 126t-143.5 335zM317 604h590q-5 115 -72.5 186.5t-187.5 71.5t-207.5 -71.5 t-122.5 -186.5zM393 1331q0 63 44 103.5t106 40.5q56 0 90.5 -32.5t34.5 -82.5q0 -64 -45 -106t-107 -42q-56 0 -89.5 33.5t-33.5 85.5zM793 1331q0 63 43.5 103.5t105.5 40.5q56 0 90.5 -32.5t34.5 -82.5q0 -64 -45.5 -106t-108.5 -42q-56 0 -88 33.5t-32 85.5z" />
<glyph unicode="&#xec;" d="M43 0l217 1028h227l-217 -1028h-227zM193 1501h219l84 -327h-183z" />
<glyph unicode="&#xed;" d="M43 0l217 1028h227l-217 -1028h-227zM297 1174l221 327h248l-266 -327h-203z" />
<glyph unicode="&#xee;" d="M43 0l217 1028h227l-217 -1028h-227zM121 1174l256 327h176l117 -327h-170l-56 184l-133 -184h-190z" />
<glyph unicode="&#xef;" d="M43 0l217 1028h227l-217 -1028h-227zM133 1329q0 61 44.5 103.5t103.5 42.5q55 0 87.5 -32.5t32.5 -82.5q0 -61 -44.5 -104.5t-104.5 -43.5q-54 0 -86.5 33t-32.5 84zM485 1329q0 61 43.5 103.5t104.5 42.5q55 0 87 -32.5t32 -82.5q0 -61 -44 -104.5t-106 -43.5 q-54 0 -85.5 33t-31.5 84z" />
<glyph unicode="&#xf0;" horiz-adv-x="1241" d="M78 438q0 159 71.5 293.5t198.5 213.5t281 79q221 0 332 -164q-27 142 -170 324l-279 -123l-41 172l199 88q-37 43 -113 119l150 114q86 -82 147 -151l340 151l45 -172l-270 -118q209 -288 209 -592q0 -135 -41 -259t-116 -221.5t-192.5 -156t-259.5 -58.5 q-223 0 -357 126t-134 335zM301 457q0 -123 76 -201t205 -78q152 0 259 115.5t107 271.5q0 123 -79.5 197t-211.5 74q-154 0 -255 -110.5t-101 -268.5z" />
<glyph unicode="&#xf1;" horiz-adv-x="1196" d="M31 0l219 1028h225l-33 -151q65 83 157 128.5t198 45.5q194 0 267 -125t26 -344l-125 -582h-226l119 537q36 163 -3 240t-150 77q-127 0 -214.5 -94t-125.5 -258l-109 -502h-225zM414 1188q21 133 83.5 204.5t164.5 71.5q35 0 65.5 -12t52 -29t40.5 -34t39.5 -29 t41.5 -12q57 0 80 108h168q-19 -132 -82 -204t-166 -72q-42 0 -79 18t-58.5 39t-48.5 39t-53 18q-58 0 -80 -106h-168z" />
<glyph unicode="&#xf2;" horiz-adv-x="1245" d="M76 440q0 170 79 310.5t216 220.5t303 80q220 0 357.5 -129t137.5 -332q0 -170 -79 -311t-216 -221.5t-303 -80.5q-221 0 -358 129t-137 334zM301 459q0 -125 78.5 -203t208.5 -78q102 0 185 55t127 144t44 192q0 125 -79.5 204t-207.5 79q-152 0 -254 -115t-102 -278z M508 1493h225l90 -328h-178z" />
<glyph unicode="&#xf3;" horiz-adv-x="1245" d="M76 440q0 170 79 310.5t216 220.5t303 80q220 0 357.5 -129t137.5 -332q0 -170 -79 -311t-216 -221.5t-303 -80.5q-221 0 -358 129t-137 334zM301 459q0 -125 78.5 -203t208.5 -78q102 0 185 55t127 144t44 192q0 125 -79.5 204t-207.5 79q-152 0 -254 -115t-102 -278z M633 1165l227 328h254l-278 -328h-203z" />
<glyph unicode="&#xf4;" horiz-adv-x="1245" d="M76 440q0 170 79 310.5t216 220.5t303 80q220 0 357.5 -129t137.5 -332q0 -170 -79 -311t-216 -221.5t-303 -80.5q-221 0 -358 129t-137 334zM301 459q0 -125 78.5 -203t208.5 -78q102 0 185 55t127 144t44 192q0 125 -79.5 204t-207.5 79q-152 0 -254 -115t-102 -278z M381 1165l330 328h184l192 -328h-192l-107 189l-186 -189h-221z" />
<glyph unicode="&#xf5;" horiz-adv-x="1245" d="M76 440q0 170 79 310.5t216 220.5t303 80q220 0 357.5 -129t137.5 -332q0 -170 -79 -311t-216 -221.5t-303 -80.5q-221 0 -358 129t-137 334zM301 459q0 -125 78.5 -203t208.5 -78q102 0 185 55t127 144t44 192q0 125 -79.5 204t-207.5 79q-152 0 -254 -115t-102 -278z M399 1180q21 133 83.5 204.5t164.5 71.5q43 0 80.5 -18.5t59 -40t48.5 -40t52 -18.5q57 0 80 109h168q-19 -133 -82 -205t-166 -72q-42 0 -79 18t-59 39.5t-49 39.5t-53 18q-58 0 -80 -106h-168z" />
<glyph unicode="&#xf6;" horiz-adv-x="1245" d="M76 440q0 170 79 310.5t216 220.5t303 80q220 0 357.5 -129t137.5 -332q0 -170 -79 -311t-216 -221.5t-303 -80.5q-221 0 -358 129t-137 334zM301 459q0 -125 78.5 -203t208.5 -78q102 0 185 55t127 144t44 192q0 125 -79.5 204t-207.5 79q-152 0 -254 -115t-102 -278z M420 1323q0 63 43.5 103t105.5 40q56 0 90.5 -32t34.5 -82q0 -64 -44.5 -106t-106.5 -42q-56 0 -89.5 33.5t-33.5 85.5zM819 1323q0 63 44 103t106 40q56 0 90.5 -32t34.5 -82q0 -64 -45.5 -106t-108.5 -42q-56 0 -88.5 33.5t-32.5 85.5z" />
<glyph unicode="&#xf7;" horiz-adv-x="1101" d="M102 543l41 200h910l-41 -200h-910zM311 223q0 71 46 117.5t112 46.5q63 0 102 -36t39 -91q0 -74 -45.5 -119t-118.5 -45q-61 0 -98 35.5t-37 91.5zM481 1028q0 72 46.5 118t113.5 46q64 0 101.5 -35.5t37.5 -91.5q0 -73 -45 -118.5t-119 -45.5q-61 0 -98 36t-37 91z" />
<glyph unicode="&#xf8;" horiz-adv-x="1245" d="M6 -59l178 196q-108 123 -108 303q0 170 79 310.5t216 220.5t303 80q146 0 264 -62l98 109h217l-188 -211q104 -119 104 -297q0 -170 -79 -311t-216 -221.5t-303 -80.5q-146 0 -260 60l-86 -96h-219zM301 459q0 -89 37 -150l461 512q-64 31 -142 31q-152 0 -254 -115 t-102 -278zM451 207q63 -29 137 -29q102 0 185 55t127 144t44 192q0 82 -35 144z" />
<glyph unicode="&#xf9;" horiz-adv-x="1177" d="M85.5 262.5q-9.5 85.5 14.5 183.5l125 582h226l-121 -536q-35 -164 4 -240t151 -76q127 0 214.5 93.5t121.5 256.5l107 502h225l-219 -1028h-223l34 152q-136 -175 -346 -175q-96 0 -165.5 36.5t-104 100t-44 149zM485 1501h226l90 -327h-178z" />
<glyph unicode="&#xfa;" horiz-adv-x="1177" d="M85.5 262.5q-9.5 85.5 14.5 183.5l125 582h226l-121 -536q-35 -164 4 -240t151 -76q127 0 214.5 93.5t121.5 256.5l107 502h225l-219 -1028h-223l34 152q-136 -175 -346 -175q-96 0 -165.5 36.5t-104 100t-44 149zM610 1174l228 327h254l-279 -327h-203z" />
<glyph unicode="&#xfb;" horiz-adv-x="1177" d="M85.5 262.5q-9.5 85.5 14.5 183.5l125 582h226l-121 -536q-35 -164 4 -240t151 -76q127 0 214.5 93.5t121.5 256.5l107 502h225l-219 -1028h-223l34 152q-136 -175 -346 -175q-96 0 -165.5 36.5t-104 100t-44 149zM358 1174l330 327h184l193 -327h-193l-106 188 l-186 -188h-222z" />
<glyph unicode="&#xfc;" horiz-adv-x="1177" d="M85.5 262.5q-9.5 85.5 14.5 183.5l125 582h226l-121 -536q-35 -164 4 -240t151 -76q127 0 214.5 93.5t121.5 256.5l107 502h225l-219 -1028h-223l34 152q-136 -175 -346 -175q-96 0 -165.5 36.5t-104 100t-44 149zM399 1331q0 63 44 103.5t106 40.5q56 0 90.5 -32.5 t34.5 -82.5q0 -64 -45 -106t-107 -42q-56 0 -89.5 33.5t-33.5 85.5zM799 1331q0 63 43.5 103.5t105.5 40.5q56 0 90.5 -32.5t34.5 -82.5q0 -65 -45 -106.5t-108 -41.5q-56 0 -88.5 33.5t-32.5 85.5z" />
<glyph unicode="&#xfd;" horiz-adv-x="1095" d="M104 -401l232 393l-201 1036h232l116 -801l435 801h262l-822 -1429h-254zM571 1174l228 327h254l-279 -327h-203z" />
<glyph unicode="&#xfe;" horiz-adv-x="1267" d="M-55 -401l403 1902h225l-127 -598q123 148 320 148q190 0 305 -127.5t115 -337.5q0 -167 -65 -306t-184.5 -221t-268.5 -82q-271 0 -371 216l-127 -594h-225zM358 469q0 -127 71.5 -209t193.5 -82q101 0 180 53t119.5 139t40.5 187q0 128 -75.5 211.5t-199.5 83.5 q-101 0 -177.5 -54.5t-114.5 -140.5t-38 -188z" />
<glyph unicode="&#xff;" horiz-adv-x="1095" d="M104 -401l232 393l-201 1036h232l116 -801l435 801h262l-822 -1429h-254zM358 1331q0 63 44 103.5t106 40.5q56 0 90.5 -32.5t34.5 -82.5q0 -64 -45 -106t-107 -42q-56 0 -89.5 33.5t-33.5 85.5zM758 1331q0 63 43.5 103.5t105.5 40.5q56 0 90.5 -32.5t34.5 -82.5 q0 -65 -45 -106.5t-108 -41.5q-56 0 -88.5 33.5t-32.5 85.5z" />
<glyph unicode="&#x152;" horiz-adv-x="1884" d="M147 625q0 176 62 329t170 261t261 169.5t329 61.5h127h141h731l-47 -215h-633l-84 -402h549l-45 -211h-549l-86 -403h651l-47 -215h-889q-135 5 -250.5 47.5t-203 119t-137.5 194.5t-50 264zM391 645q0 -194 121 -308t324 -120l213 1012h-99q-161 0 -289 -75.5 t-199 -209t-71 -299.5z" />
<glyph unicode="&#x153;" horiz-adv-x="2062" d="M78 440q0 171 76.5 311t211.5 220t300 80q138 0 245 -57t168 -158q77 101 191.5 158t253.5 57q211 0 337 -123.5t126 -319.5q0 -71 -21 -176h-805q6 -120 86.5 -190t227.5 -70q166 0 274 137l162 -119q-161 -213 -453 -213q-149 0 -264 57.5t-178 162.5 q-78 -103 -193.5 -161.5t-249.5 -58.5q-221 0 -358 129t-137 334zM303 459q0 -125 78.5 -203t208.5 -78q152 0 249 116t97 275q0 125 -79.5 204t-207.5 79q-151 0 -248.5 -114.5t-97.5 -278.5zM1182 604h592q-5 115 -73 186.5t-188 71.5q-121 0 -208.5 -71.5t-122.5 -186.5z " />
<glyph unicode="&#x178;" horiz-adv-x="1249" d="M205 1446h250l209 -649l479 649h299l-690 -897l-117 -549h-240l117 553zM508 1702q0 59 44 100t105 41q56 0 90.5 -32t34.5 -82q0 -61 -45 -103.5t-106 -42.5q-56 0 -89.5 33.5t-33.5 85.5zM905 1702q0 59 44.5 100t105.5 41q56 0 90.5 -32t34.5 -82q0 -61 -45 -103.5 t-107 -42.5q-56 0 -89.5 33.5t-33.5 85.5z" />
<glyph unicode="&#x2c6;" horiz-adv-x="724" d="M150 1174l329 327h187l192 -327h-194l-107 188l-186 -188h-221z" />
<glyph unicode="&#x2dc;" horiz-adv-x="724" d="M166 1188q21 133 83.5 204.5t164.5 71.5q35 0 65.5 -12t52 -29t40.5 -34t39.5 -29t41.5 -12q57 0 80 108h168q-19 -132 -82 -204t-164 -72q-43 0 -80 18t-59 39t-49.5 39t-52.5 18q-58 0 -80 -106h-168z" />
<glyph unicode="&#x2000;" horiz-adv-x="978" />
<glyph unicode="&#x2001;" horiz-adv-x="1956" />
<glyph unicode="&#x2002;" horiz-adv-x="978" />
<glyph unicode="&#x2003;" horiz-adv-x="1956" />
<glyph unicode="&#x2004;" horiz-adv-x="652" />
<glyph unicode="&#x2005;" horiz-adv-x="489" />
<glyph unicode="&#x2006;" horiz-adv-x="326" />
<glyph unicode="&#x2007;" horiz-adv-x="326" />
<glyph unicode="&#x2008;" horiz-adv-x="244" />
<glyph unicode="&#x2009;" horiz-adv-x="391" />
<glyph unicode="&#x200a;" horiz-adv-x="108" />
<glyph unicode="&#x2010;" horiz-adv-x="948" d="M94 414l39 200h719l-39 -200h-719z" />
<glyph unicode="&#x2011;" horiz-adv-x="948" d="M94 414l39 200h719l-39 -200h-719z" />
<glyph unicode="&#x2012;" horiz-adv-x="948" d="M94 414l39 200h719l-39 -200h-719z" />
<glyph unicode="&#x2013;" horiz-adv-x="1243" d="M78 414l39 200h1048l-39 -200h-1048z" />
<glyph unicode="&#x2014;" horiz-adv-x="2013" d="M76 414l41 200h1820l-41 -200h-1820z" />
<glyph unicode="&#x2018;" d="M182 870l271 631h180l-184 -631h-267z" />
<glyph unicode="&#x2019;" d="M182 870l185 631h266l-271 -631h-180z" />
<glyph unicode="&#x201a;" d="M-66 -299l185 631h266l-268 -631h-183z" />
<glyph unicode="&#x201c;" horiz-adv-x="958" d="M182 870l271 631h178l-180 -631h-269zM612 870l271 631h178l-180 -631h-269z" />
<glyph unicode="&#x201d;" horiz-adv-x="958" d="M182 870l183 631h268l-273 -631h-178zM612 870l183 631h268l-272 -631h-179z" />
<glyph unicode="&#x201e;" horiz-adv-x="958" d="M-66 -299l181 631h268l-270 -631h-179zM365 -299l180 631h268l-270 -631h-178z" />
<glyph unicode="&#x2022;" horiz-adv-x="802" d="M109 477q0 142 91.5 233t221.5 91q125 0 199.5 -70.5t74.5 -179.5q0 -146 -88 -234t-231 -88q-120 0 -194 70.5t-74 177.5z" />
<glyph unicode="&#x2026;" horiz-adv-x="1591" d="M33 115q0 73 47.5 120.5t114.5 47.5q65 0 104 -36.5t39 -92.5q0 -74 -47 -121t-119 -47q-63 0 -101 36t-38 93zM563 115q0 73 47.5 120.5t114.5 47.5q65 0 104 -36.5t39 -92.5q0 -74 -47 -121t-119 -47q-63 0 -101 36t-38 93zM1094 115q0 74 47 121t114 47 q65 0 104.5 -36.5t39.5 -92.5q0 -74 -46.5 -121t-119.5 -47q-63 0 -101 36t-38 93z" />
<glyph unicode="&#x202f;" horiz-adv-x="391" />
<glyph unicode="&#x2039;" horiz-adv-x="618" d="M49 508l410 485l162 -123l-334 -393l139 -346l-172 -106z" />
<glyph unicode="&#x203a;" horiz-adv-x="618" d="M-6 147l334 394l-140 346l172 106l205 -483l-409 -485z" />
<glyph unicode="&#x205f;" horiz-adv-x="489" />
<glyph unicode="&#x20ac;" horiz-adv-x="1402" d="M72 489l34 154h130q5 74 22 162h-119l33 156h133q88 229 261.5 367t400.5 138q169 0 300 -74t189 -208l-201 -99q-33 78 -111 125t-186 47q-137 0 -241.5 -80t-167.5 -216h504l-35 -156h-520q-18 -79 -21 -162h508l-33 -154h-471q21 -162 105.5 -231.5t230.5 -69.5 q106 0 192 51.5t136 141.5l153 -135q-81 -129 -216.5 -197.5t-290.5 -68.5q-236 0 -384.5 138.5t-168.5 370.5h-166z" />
<glyph unicode="&#x2122;" horiz-adv-x="1466" d="M217 1307l31 139h522l-31 -139h-180l-108 -508h-160l106 508h-180zM739 799l138 647h186l92 -332l246 332h194l-137 -647h-151l90 422l-238 -306h-82l-92 330l-96 -446h-150z" />
<glyph unicode="&#x25fc;" horiz-adv-x="1024" d="M0 0v1024h1024v-1024h-1024z" />
</font>
</defs>
</svg>
