<?xml version="1.0" standalone="no"?>
<!DOCTYPE svg PUBLIC "-//W3C//DTD SVG 1.1//EN" "http://www.w3.org/Graphics/SVG/1.1/DTD/svg11.dtd" >
<svg xmlns="http://www.w3.org/2000/svg" xmlns:xlink="http://www.w3.org/1999/xlink" version="1.1">
<metadata></metadata>
<defs>
<font id="zabal_demoextralight" horiz-adv-x="1269" >
<font-face units-per-em="2048" ascent="1638" descent="-410" />
<missing-glyph horiz-adv-x="442" />
<glyph unicode="&#xfb01;" horiz-adv-x="1112" d="M233 1022v156q0 79 14 137.5t48 107.5t98 74t158 25q40 0 86 -4v-72q-34 6 -86 6q-76 0 -125.5 -19t-74.5 -58t-34.5 -86.5t-9.5 -117.5v-149h326v-70h-326v-952h-74v952h-200v70h200zM895 1448q30 0 50 -19t20 -49t-20 -49.5t-50 -19.5t-50 19.5t-20 49.5t20 49t50 19z M932 0h-74v1022h74v-1022z" />
<glyph unicode="&#xfb02;" horiz-adv-x="1112" d="M233 1022v156q0 79 14 137.5t48 107.5t98 74t158 25q40 0 86 -4v-72q-34 6 -86 6q-76 0 -125.5 -19t-74.5 -58t-34.5 -86.5t-9.5 -117.5v-149h326v-70h-326v-952h-74v952h-200v70h200zM858 0v1501h74v-1501h-74z" />
<glyph horiz-adv-x="0" />
<glyph horiz-adv-x="682" />
<glyph horiz-adv-x="0" />
<glyph horiz-adv-x="0" />
<glyph unicode="&#xd;" horiz-adv-x="681" />
<glyph unicode=" "  horiz-adv-x="442" />
<glyph unicode="&#x09;" horiz-adv-x="442" />
<glyph unicode="&#xa0;" horiz-adv-x="442" />
<glyph unicode="!" horiz-adv-x="415" d="M240 354h-64l-18 1092h100zM207 -10q-32 0 -53 19.5t-21 53.5t21 54t53 20q33 0 54.5 -20t21.5 -54t-21.5 -53.5t-54.5 -19.5z" />
<glyph unicode="&#x22;" horiz-adv-x="630" d="M193 1006h-70v495h70v-495zM510 1006h-70v495h70v-495z" />
<glyph unicode="#" horiz-adv-x="1347" d="M1307 1028v-67h-306l-104 -478h289v-67h-303l-90 -416h-72l90 416h-410l-90 -416h-71l90 416h-289v67h303l105 478h-287v67h303l90 418h72l-90 -418h409l90 418h72l-90 -418h289zM416 483h409l105 478h-410z" />
<glyph unicode="$" horiz-adv-x="1155" d="M1057 373q0 -176 -114 -281.5t-316 -111.5v-164h-64v166q-173 8 -299.5 89t-175.5 234l70 33q40 -133 148 -204t257 -79v647q-54 12 -92.5 22t-85.5 26.5t-79.5 35t-66 47t-53.5 62t-32.5 80t-12.5 102.5q0 173 111 281t309 108h10v164h64v-168q130 -15 226 -82.5 t145 -179.5l-70 -33q-41 94 -119 150.5t-182 71.5v-623q80 -19 139 -39.5t115 -52.5t91 -72t56 -98t21 -131zM223 1081q0 -46 10 -83t24.5 -64t42 -49t52.5 -36t66 -27.5t72 -21t81 -18.5v611h-8q-163 0 -251.5 -84t-88.5 -228zM627 688v-635q173 6 261.5 92t88.5 228 q0 72 -23 124.5t-71 88.5t-107.5 58.5t-148.5 43.5z" />
<glyph unicode="%" horiz-adv-x="1937" d="M428 573q-156 0 -253 120.5t-97 326.5q0 207 95.5 326.5t254.5 119.5q160 0 255 -119.5t95 -326.5t-96.5 -327t-253.5 -120zM582 0h-78l852 1446h78zM428 639q126 0 203.5 103t77.5 278q0 177 -77 279t-204 102t-204 -102t-77 -279q0 -175 77.5 -278t203.5 -103z M1509 -20q-156 0 -253 120t-97 326q0 207 95.5 326.5t254.5 119.5q160 0 255.5 -119.5t95.5 -326.5q0 -206 -96.5 -326t-254.5 -120zM1509 45q126 0 203.5 103t77.5 278q0 177 -77 279t-204 102t-203.5 -102t-76.5 -279q0 -175 77 -278t203 -103z" />
<glyph unicode="&#x26;" horiz-adv-x="1429" d="M1247 791h76q-3 -165 -53.5 -309t-141.5 -253l183 -192l-54 -49l-178 188q-196 -196 -477 -196q-208 0 -345.5 107.5t-137.5 281.5q0 54 14 102t42.5 87t61 71.5t80 63t87.5 52.5t96 48q-103 111 -151 191t-48 175q0 138 99.5 222.5t254.5 84.5q152 0 245 -83.5 t93 -213.5q0 -59 -22.5 -111.5t-54 -89t-87 -74.5t-99.5 -61.5t-114 -56.5l463 -493q162 208 168 508zM377 1155q0 -79 45 -150t145 -180q58 28 90.5 44.5t80.5 44.5t74.5 52t54 55.5t39.5 68t12 77.5q0 101 -71.5 165.5t-191.5 64.5q-123 0 -200.5 -66.5t-77.5 -175.5z M604 49q252 0 426 180l-483 514q-65 -32 -107.5 -55t-93.5 -59t-80.5 -70.5t-50 -83t-20.5 -102.5q0 -145 117.5 -234.5t291.5 -89.5z" />
<glyph unicode="'" horiz-adv-x="313" d="M193 1006h-70v495h70v-495z" />
<glyph unicode="(" horiz-adv-x="638" d="M602 -217l-35 -62q-213 103 -339 336t-126 531t126 530t339 334l35 -61q-195 -91 -308.5 -307t-113.5 -496q0 -281 113.5 -497.5t308.5 -307.5z" />
<glyph unicode=")" horiz-adv-x="638" d="M72 -279l-35 62q196 91 310 307t114 498q0 280 -114 496t-310 307l35 61q214 -102 339.5 -334t125.5 -530t-125.5 -531t-339.5 -336z" />
<glyph unicode="*" horiz-adv-x="841" d="M729 1346l35 -64l-297 -156l297 -159l-35 -60l-285 180l11 -335h-68l10 335l-286 -180l-35 62l299 157l-299 156l35 64l286 -181l-10 336h68l-11 -336z" />
<glyph unicode="+" horiz-adv-x="1048" d="M561 674h402v-72h-402v-422h-72v422h-403v72h403v422h72v-422z" />
<glyph unicode="," horiz-adv-x="415" d="M180 -309h-63l78 495h92z" />
<glyph unicode="-" horiz-adv-x="835" d="M737 479h-637v70h637v-70z" />
<glyph unicode="." horiz-adv-x="415" d="M207 -10q-32 0 -53 19.5t-21 53.5t21 54t53 20q33 0 54.5 -20t21.5 -54t-21.5 -53.5t-54.5 -19.5z" />
<glyph unicode="/" horiz-adv-x="604" d="M59 -258h-73l524 1759h74z" />
<glyph unicode="0" horiz-adv-x="1425" d="M713 -20q-267 0 -429.5 200.5t-162.5 542.5q0 345 161 544t431 199t431 -199t161 -544q0 -342 -162.5 -542.5t-429.5 -200.5zM713 53q235 0 373.5 179t138.5 491q0 315 -137.5 492.5t-374.5 177.5t-374.5 -177.5t-137.5 -492.5q0 -312 138.5 -491t373.5 -179z" />
<glyph unicode="1" horiz-adv-x="747" d="M559 0h-78v1352l-411 -176l-25 65l494 211h20v-1452z" />
<glyph unicode="2" horiz-adv-x="1167" d="M492 328l-263 -254h858v-74h-976v59l301 293q28 28 83 80q75 72 110.5 107t93.5 94.5t85.5 94t63.5 85.5t52 90.5t28 86.5t12 95q0 136 -93 222t-269 86q-149 0 -257.5 -57.5t-158.5 -170.5l-66 33q54 127 181.5 197.5t302.5 70.5q109 0 194.5 -30.5t138 -83t80 -119.5 t27.5 -143q0 -75 -24 -147.5t-60.5 -134t-105.5 -139.5t-132 -141t-166 -162q-26 -25 -40 -38z" />
<glyph unicode="3" horiz-adv-x="1175" d="M559 864q233 0 369.5 -114t136.5 -314q0 -207 -132 -331.5t-362 -124.5q-171 0 -299 70.5t-184 199.5l68 33q50 -111 159 -170.5t256 -59.5q192 0 303 102.5t111 280.5q0 175 -119.5 268t-316.5 93q-109 0 -178 -29l-41 47l561 557h-721v74h844v-57l-541 -529q62 4 86 4z " />
<glyph unicode="4" horiz-adv-x="1220" d="M926 410h239v-72h-239v-338h-74v338h-758v59l469 1049h86l-463 -1036h666v450h74v-450z" />
<glyph unicode="5" horiz-adv-x="1163" d="M569 903q225 0 354.5 -118t129.5 -336t-127.5 -343.5t-356.5 -125.5q-170 0 -297.5 70.5t-183.5 199.5l68 33q50 -111 158.5 -170.5t252.5 -59.5q192 0 300 103.5t108 292.5q0 192 -111.5 287t-302.5 95q-111 0 -194.5 -34t-176.5 -117l-36 14l71 752h793v-74h-725 l-55 -573q76 56 155 80t176 24z" />
<glyph unicode="6" horiz-adv-x="1263" d="M651 954q224 0 363 -137t139 -352q0 -98 -37.5 -186.5t-104 -154.5t-164 -105t-210.5 -39q-229 0 -371.5 143t-142.5 362q0 105 32 211.5t79.5 196t129 195t153.5 185t179 189.5l80 -24q-93 -97 -130 -136.5t-110.5 -122t-112 -135t-85.5 -126.5t-80 -146 q70 84 170.5 133t222.5 49zM637 53q194 0 315 120.5t121 291.5q0 186 -117 301t-313 115q-98 0 -181.5 -34.5t-139.5 -92.5t-87.5 -134t-31.5 -159q0 -80 31 -153.5t86 -130t137.5 -90.5t179.5 -34z" />
<glyph unicode="7" horiz-adv-x="1085" d="M106 1372v74h918v-57l-680 -1389h-86l674 1372h-826z" />
<glyph unicode="8" horiz-adv-x="1253" d="M827 776q152 -41 235 -142.5t83 -244.5q0 -185 -137.5 -297t-380.5 -112t-380.5 112t-137.5 297q0 143 82.5 244.5t234.5 142.5q-126 38 -194 124.5t-68 205.5q0 162 123.5 261t339.5 99t339.5 -99t123.5 -261q0 -119 -68.5 -205.5t-194.5 -124.5zM244 1100 q0 -134 102 -211.5t281 -77.5q178 0 280.5 77.5t102.5 211.5q0 135 -102 214t-281 79q-178 0 -280.5 -79.5t-102.5 -213.5zM627 53q203 0 321.5 92t118.5 248q0 158 -118 250t-322 92t-321.5 -92t-117.5 -250q0 -157 117.5 -248.5t321.5 -91.5z" />
<glyph unicode="9" horiz-adv-x="1263" d="M627 1466q229 0 371.5 -143t142.5 -362q0 -75 -16.5 -151.5t-42.5 -144t-70 -141.5t-88.5 -136t-108 -136.5t-117.5 -132.5t-129 -135l-82 24q91 95 130 136.5t111 123t111.5 135t86.5 127.5t80 146q-67 -85 -168 -134.5t-226 -49.5q-224 0 -362.5 137t-138.5 352 q0 98 37.5 186.5t104 154.5t164 105t210.5 39zM623 565q193 0 315.5 124t122.5 296q0 108 -51.5 200t-151.5 150t-229 58q-195 0 -317 -120.5t-122 -291.5q0 -186 118 -301t315 -115z" />
<glyph unicode=":" horiz-adv-x="415" d="M207 887q-32 0 -53 21t-21 55t21 53.5t53 19.5q33 0 54.5 -19.5t21.5 -53.5q0 -35 -21.5 -55.5t-54.5 -20.5zM207 -10q-32 0 -53 19.5t-21 53.5t21 54t53 20q33 0 54.5 -20t21.5 -54t-21.5 -53.5t-54.5 -19.5z" />
<glyph unicode=";" horiz-adv-x="417" d="M201 887q-32 0 -53 21t-21 55t21 53.5t53 19.5q33 0 54 -19.5t21 -53.5q0 -35 -21 -55.5t-54 -20.5zM180 -309h-63l78 495h92z" />
<glyph unicode="&#x3c;" horiz-adv-x="960" d="M47 670l827 377v-78l-731 -330l731 -332v-78l-827 377v64z" />
<glyph unicode="=" horiz-adv-x="1007" d="M922 840h-836v71h836v-71zM922 362h-836v72h836v-72z" />
<glyph unicode="&#x3e;" horiz-adv-x="960" d="M86 969v78l827 -377v-64l-827 -377v78l731 332z" />
<glyph unicode="?" horiz-adv-x="1009" d="M496 354h-68q0 90 41.5 173.5t100 149.5t117.5 129.5t100.5 139.5t41.5 154q0 130 -96 211.5t-254 81.5q-130 0 -225.5 -62t-132.5 -170l-72 27q48 135 165.5 206.5t266.5 71.5q117 0 212.5 -41t155.5 -124.5t60 -196.5q0 -66 -23 -127.5t-59 -111t-80.5 -98t-88.5 -95.5 t-80 -94.5t-59 -105.5t-23 -118zM473 -10q-33 0 -54.5 19.5t-21.5 53.5t21.5 54t54.5 20q32 0 54 -20t22 -54t-22 -53.5t-54 -19.5z" />
<glyph unicode="@" horiz-adv-x="1681" d="M1061 678v151h72v-434q0 -98 40.5 -147t110.5 -49q106 0 165.5 97.5t59.5 256.5q0 184 -83.5 330.5t-232.5 228.5t-337 82q-146 0 -273 -51t-217.5 -140t-142 -215.5t-51.5 -273.5q0 -196 92.5 -352t256 -243t368.5 -87q241 0 424 121l30 -62q-195 -127 -454 -127 q-226 0 -407 96.5t-282.5 268t-101.5 385.5t97 385.5t270.5 268t390.5 96.5q157 0 292 -53.5t230.5 -147t150 -226t54.5 -284.5q0 -187 -81 -302.5t-218 -115.5q-93 0 -152.5 59.5t-66.5 167.5q-34 -74 -101 -116.5t-151 -42.5q-129 0 -212 91.5t-83 227.5q0 137 82 228.5 t211 91.5q88 0 154 -45.5t96 -118.5zM825 268q103 0 169.5 73.5t66.5 180.5t-66.5 180.5t-169.5 73.5q-106 0 -170.5 -73.5t-64.5 -180.5t64.5 -180.5t170.5 -73.5z" />
<glyph unicode="A" horiz-adv-x="1298" d="M1255 0h-84l-157 410h-727l-160 -410h-82l559 1446h92zM985 485l-336 871l-334 -871h670z" />
<glyph unicode="B" horiz-adv-x="1210" d="M764 731q178 -27 258 -116.5t80 -239.5q0 -375 -471 -375h-441v1446h426q227 0 334 -96.5t107 -259.5q0 -137 -74 -230.5t-219 -128.5zM608 1372h-340v-610h291q197 0 307.5 78t110.5 243q0 146 -91.5 217.5t-277.5 71.5zM268 74h357q211 0 304 76t93 229q0 165 -110 236 t-347 71h-297v-612z" />
<glyph unicode="C" horiz-adv-x="1581" d="M860 -20q-214 0 -382 99t-258.5 268t-90.5 376t91 376t258 268t378 99q210 0 369.5 -99t238.5 -271l-71 -33q-69 153 -209 241.5t-328 88.5q-189 0 -337.5 -89t-228 -241t-79.5 -340q0 -189 78.5 -340.5t227.5 -240.5t343 -89q200 0 346.5 93t214.5 270l74 -33 q-80 -196 -247 -299.5t-388 -103.5z" />
<glyph unicode="D" horiz-adv-x="1464" d="M616 0h-426v1446h422q226 0 391.5 -95.5t248.5 -257.5t83 -370t-82 -370t-246.5 -257.5t-390.5 -95.5zM268 1372v-1298h350q204 0 349 85t215.5 230t70.5 334q0 141 -41.5 259t-120 205t-201 136t-276.5 49h-346z" />
<glyph unicode="E" horiz-adv-x="1124" d="M1026 0h-836v1446h811v-74h-733v-610h639v-76h-639v-612h758v-74z" />
<glyph unicode="F" horiz-adv-x="1030" d="M268 0h-78v1446h775v-74h-697v-610h623v-76h-623v-686z" />
<glyph unicode="G" horiz-adv-x="1656" d="M848 641v72h711v-11q-3 -338 -185 -530t-497 -192q-168 0 -309 57.5t-237 157.5t-149 236.5t-53 291.5q0 207 91 376t258 268t378 99q210 0 369.5 -99t238.5 -271l-71 -33q-69 153 -209 241.5t-328 88.5q-189 0 -337.5 -89t-228 -241t-79.5 -340q0 -141 46.5 -263.5 t131 -213t210.5 -142t278 -51.5q266 0 423.5 155t180.5 433h-633z" />
<glyph unicode="H" horiz-adv-x="1423" d="M268 0h-78v1446h78v-684h889v684h78v-1446h-78v686h-889v-686z" />
<glyph unicode="I" horiz-adv-x="483" d="M281 0h-78v1446h78v-1446z" />
<glyph unicode="J" horiz-adv-x="1097" d="M530 -20q-177 0 -290.5 79.5t-161.5 227.5l67 32q92 -266 383 -266q177 0 263 113t86 360v920h77v-920q0 -266 -101 -406t-323 -140z" />
<glyph unicode="K" horiz-adv-x="1251" d="M373 745l809 -745h-111l-803 739v-739h-78v1446h78v-694l742 694h110z" />
<glyph unicode="L" horiz-adv-x="1071" d="M1016 0h-826v1446h78v-1372h748v-74z" />
<glyph unicode="M" horiz-adv-x="1755" d="M268 0h-78v1446h84l603 -1081l604 1081h84v-1446h-78v1300l-582 -1038h-59l-578 1038v-1300z" />
<glyph unicode="N" horiz-adv-x="1439" d="M268 0h-78v1446h74l910 -1307v1307h77v-1446h-75l-908 1307v-1307z" />
<glyph unicode="O" horiz-adv-x="1736" d="M868 -20q-214 0 -383.5 99t-262.5 268t-93 376t93 376t262.5 268t383.5 99t384 -99t263 -268t93 -376t-93 -376t-263 -268t-384 -99zM868 53q193 0 345 89t233.5 241t81.5 340t-81.5 340t-233.5 241t-345 89q-192 0 -343 -89t-232.5 -241t-81.5 -340t81.5 -340 t232.5 -241t343 -89z" />
<glyph unicode="P" horiz-adv-x="1169" d="M268 0h-78v1446h431q237 0 344.5 -109t107.5 -301q0 -212 -122 -322t-345 -110h-338v-604zM268 1372v-692h332q393 0 393 356q0 172 -92 254t-289 82h-344z" />
<glyph unicode="Q" horiz-adv-x="1736" d="M1608 723q0 -145 -48 -274t-137 -230l168 -213l-61 -45l-158 205q-205 -186 -504 -186q-214 0 -383.5 99t-262.5 268t-93 376t93 376t262.5 268t383.5 99t384 -99t263 -268t93 -376zM211 723q0 -188 81.5 -340t232.5 -241t343 -89q267 0 453 168l-332 430l60 45l323 -420 q156 183 156 447q0 188 -81.5 340t-233.5 241t-345 89q-192 0 -343 -89t-232.5 -241t-81.5 -340z" />
<glyph unicode="R" horiz-adv-x="1241" d="M686 645l488 -645h-97l-479 635h-330v-635h-78v1446h406q121 0 210.5 -29t142 -83t77.5 -123.5t25 -157.5q0 -178 -95.5 -282t-269.5 -126zM588 1372h-320v-663h307q193 0 293.5 85.5t100.5 258.5q0 163 -92.5 241t-288.5 78z" />
<glyph unicode="S" horiz-adv-x="1155" d="M604 -20q-186 0 -325 81.5t-191 243.5l70 33q43 -142 162.5 -213.5t283.5 -71.5q183 0 278 87t95 233q0 62 -18.5 110t-50 81t-85 59t-110 43t-138.5 34q-56 12 -94.5 21.5t-87.5 26.5t-82 35.5t-68 46.5t-55.5 62t-33.5 81.5t-13 103.5q0 173 111 281t309 108 q157 0 273.5 -69.5t171.5 -196.5l-70 -33q-49 110 -146 168t-227 58q-163 0 -251.5 -84t-88.5 -228q0 -37 7 -69t16 -56t29 -45.5t36 -36t47 -28.5t50.5 -22t59.5 -18.5t61 -15t67 -14.5q88 -20 151 -40t125.5 -52.5t100 -73t61 -100.5t23.5 -137q0 -182 -120 -287.5 t-333 -105.5z" />
<glyph unicode="T" horiz-adv-x="1173" d="M625 0h-78v1372h-488v74h1055v-74h-489v-1372z" />
<glyph unicode="U" horiz-adv-x="1353" d="M678 -20q-535 0 -535 595v871h78v-868q0 -261 109.5 -393t347.5 -132t346.5 131.5t108.5 393.5v868h77v-871q0 -595 -532 -595z" />
<glyph unicode="V" horiz-adv-x="1271" d="M637 94l508 1352h84l-547 -1446h-90l-547 1446h82z" />
<glyph unicode="W" horiz-adv-x="1925" d="M1430 104l370 1342h80l-403 -1446h-91l-423 1335l-426 -1335h-88l-404 1446h80l371 -1342l422 1342h88z" />
<glyph unicode="X" horiz-adv-x="1220" d="M158 0h-95l498 745l-471 701h94l426 -635l426 635h94l-471 -698l498 -748h-94l-453 684z" />
<glyph unicode="Y" horiz-adv-x="1189" d="M633 0h-78v588l-520 858h90l469 -772l471 772h90l-522 -854v-592z" />
<glyph unicode="Z" horiz-adv-x="1150" d="M1047 1386l-848 -1312h895v-74h-996v61l846 1311h-825v74h928v-60z" />
<glyph unicode="[" horiz-adv-x="600" d="M567 -274h-393v1720h393v-68h-319v-1583h319v-69z" />
<glyph unicode="\" horiz-adv-x="604" d="M94 1501l524 -1759h-75l-525 1759h76z" />
<glyph unicode="]" horiz-adv-x="600" d="M426 -274h-393v69h319v1583h-319v68h393v-1720z" />
<glyph unicode="^" horiz-adv-x="1052" d="M219 819h-82l363 627h53l362 -627h-81l-308 535z" />
<glyph unicode="_" horiz-adv-x="888" d="M909 -223h-929v71h929v-71z" />
<glyph unicode="`" horiz-adv-x="630" d="M436 1214h-69l-174 287h81z" />
<glyph unicode="a" d="M592 -20q-146 0 -259.5 71.5t-174 191.5t-60.5 267q0 148 60 268.5t173.5 192t260.5 71.5q157 0 274.5 -81.5t169.5 -217.5v279h74v-1022h-74v276q-53 -134 -169.5 -215t-274.5 -81zM598 49q127 0 227.5 62.5t154.5 167t54 231.5q0 128 -54 233t-154.5 167.5t-227.5 62.5 q-190 0 -306 -133.5t-116 -329.5q0 -127 50.5 -231t148 -167t223.5 -63z" />
<glyph unicode="b" horiz-adv-x="1280" d="M688 -20q-158 0 -274.5 81t-169.5 215v-276h-74v1501h74v-758q52 136 169.5 217.5t274.5 81.5q146 0 259 -71.5t173 -192t60 -268.5q0 -147 -60 -267t-173 -191.5t-259 -71.5zM680 49q191 0 307.5 133t116.5 328q0 196 -116.5 329.5t-307.5 133.5q-127 0 -227.5 -62.5 t-154.5 -167.5t-54 -233q0 -127 54 -231.5t154.5 -167t227.5 -62.5z" />
<glyph unicode="c" horiz-adv-x="1150" d="M621 -20q-153 0 -273.5 72t-185 192.5t-64.5 265.5q0 146 64.5 267t185 193t273.5 72q145 0 258 -67.5t174 -186.5l-68 -30q-52 100 -147.5 157.5t-216.5 57.5q-199 0 -322 -133.5t-123 -329.5q0 -194 123 -327.5t322 -133.5q135 0 232 58.5t151 164.5l67 -30 q-61 -123 -177.5 -192.5t-272.5 -69.5z" />
<glyph unicode="d" d="M592 -20q-146 0 -259.5 71.5t-174 191.5t-60.5 267q0 148 60 268.5t173.5 192t260.5 71.5q157 0 274.5 -81.5t169.5 -217.5v758h74v-1501h-74v276q-53 -134 -169.5 -215t-274.5 -81zM598 49q127 0 228 62t155.5 167t54.5 232q0 195 -123 329t-315 134q-190 0 -306 -133.5 t-116 -329.5q0 -127 50.5 -231t148 -167t223.5 -63z" />
<glyph unicode="e" horiz-adv-x="1202" d="M1108 510q0 -19 -2 -27h-932q9 -188 129.5 -311t321.5 -123q262 0 376 217l68 -33q-131 -253 -444 -253q-160 0 -281 71.5t-183.5 191.5t-62.5 267q0 224 144.5 378t365.5 154q149 0 264 -71.5t175.5 -192t60.5 -268.5zM610 973q-181 0 -300.5 -120t-133.5 -302h856 q-12 184 -126.5 303t-295.5 119z" />
<glyph unicode="f" horiz-adv-x="677" d="M551 1452q-76 0 -125.5 -19t-74.5 -58t-34.5 -86.5t-9.5 -117.5v-149h326v-70h-326v-952h-74v952h-200v70h200v156q0 79 14 137.5t48 107.5t98 74t158 25q40 0 86 -4v-72q-34 6 -86 6z" />
<glyph unicode="g" d="M631 -422q-315 0 -447 254l70 33q114 -217 377 -217q195 0 300 112t105 318v215q-53 -132 -169.5 -212.5t-274.5 -80.5q-146 0 -259.5 70.5t-174 188.5t-60.5 263q0 144 60 261.5t173.5 188t260.5 70.5q156 0 273 -79t171 -211v270h74v-942q0 -234 -126.5 -368 t-352.5 -134zM598 70q192 0 314 130.5t122 321.5q0 124 -54 226.5t-154.5 163.5t-227.5 61q-126 0 -223.5 -61.5t-148 -163.5t-50.5 -226q0 -125 50.5 -227t148 -163.5t223.5 -61.5z" />
<glyph unicode="h" horiz-adv-x="1173" d="M244 0h-74v1501h74v-733q42 120 141.5 197t253.5 77q189 0 290 -110t101 -305v-627h-74v618q0 169 -82 262t-245 93q-181 0 -283 -124.5t-102 -350.5v-498z" />
<glyph unicode="i" horiz-adv-x="434" d="M217 1311q-30 0 -50 19.5t-20 49.5t20 49t50 19t50 -19t20 -49t-20 -49.5t-50 -19.5zM254 0h-74v1022h74v-1022z" />
<glyph unicode="j" horiz-adv-x="434" d="M217 1311q-30 0 -50 19.5t-20 49.5t20 49t50 19t50 -19t20 -49t-20 -49.5t-50 -19.5zM2 -422q-50 0 -96 8v72q45 -10 92 -10q96 0 139 61t43 191v1122h74v-1135q0 -146 -62 -227.5t-190 -81.5z" />
<glyph unicode="k" horiz-adv-x="1034" d="M340 532l637 -532h-105l-628 526v-526h-74v1501h74v-964l581 485h103z" />
<glyph unicode="l" horiz-adv-x="434" d="M254 0h-74v1501h74v-1501z" />
<glyph unicode="m" horiz-adv-x="1826" d="M1325 1042q171 0 263.5 -110.5t92.5 -304.5v-627h-73v618q0 169 -74.5 262t-220.5 93q-165 0 -257.5 -123t-92.5 -344v-506h-74v618q0 169 -75 262t-220 93q-166 0 -258 -124t-92 -351v-498h-74v1022h74v-254q41 122 130 198t232 76q139 0 226.5 -74t115.5 -208 q43 124 136.5 203t240.5 79z" />
<glyph unicode="n" horiz-adv-x="1163" d="M244 0h-74v1022h74v-254q42 120 139.5 197t251.5 77q185 0 285 -110.5t100 -304.5v-627h-74v618q0 169 -81.5 262t-239.5 93q-181 0 -281 -124t-100 -351v-498z" />
<glyph unicode="o" horiz-adv-x="1259" d="M631 -20q-155 0 -277.5 71.5t-189 192t-66.5 266.5q0 147 66.5 268t189 192.5t277.5 71.5q154 0 276 -71.5t188 -192.5t66 -268q0 -146 -66 -266.5t-188 -192t-276 -71.5zM631 49q201 0 327.5 133t126.5 328q0 128 -55.5 233t-160 167.5t-238.5 62.5q-203 0 -329 -133.5 t-126 -329.5q0 -127 55.5 -231.5t160 -167t239.5 -62.5z" />
<glyph unicode="p" horiz-adv-x="1280" d="M244 -401h-74v1423h74v-279q52 136 169.5 217.5t274.5 81.5q146 0 259 -71.5t173 -192t60 -268.5q0 -147 -60 -267t-173 -191.5t-259 -71.5q-158 0 -274.5 81t-169.5 215v-677zM680 49q191 0 307.5 133t116.5 328q0 196 -116.5 329.5t-307.5 133.5q-127 0 -227.5 -62.5 t-154.5 -167.5t-54 -233q0 -127 54 -231.5t154.5 -167t227.5 -62.5z" />
<glyph unicode="q" d="M1110 -401h-74v677q-53 -134 -169.5 -215t-274.5 -81q-146 0 -259.5 71.5t-174 191.5t-60.5 267q0 148 60 268.5t173.5 192t260.5 71.5q157 0 274.5 -81.5t169.5 -217.5v279h74v-1423zM598 49q127 0 228 62t155.5 167t54.5 232q0 195 -123 329t-315 134 q-190 0 -306 -133.5t-116 -329.5q0 -127 50.5 -231t148 -167t223.5 -63z" />
<glyph unicode="r" horiz-adv-x="688" d="M244 0h-74v1022h74v-258q42 124 138.5 201t252.5 77h27v-75q-10 2 -35 2q-184 0 -283.5 -126.5t-99.5 -357.5v-485z" />
<glyph unicode="s" horiz-adv-x="935" d="M506 -20q-151 0 -265.5 64t-154.5 181l66 31q34 -99 130.5 -153t223.5 -54q132 0 202 58t70 165q0 97 -69.5 143t-227.5 72q-42 7 -72.5 13t-69.5 17.5t-66.5 24.5t-56.5 33.5t-46.5 45t-29 59.5t-11.5 76q0 129 93 207.5t255 78.5q124 0 214 -49.5t134 -142.5l-67 -31 q-75 154 -281 154q-129 0 -201.5 -57.5t-72.5 -155.5q0 -42 16.5 -74.5t41 -52.5t66.5 -36t78.5 -24t92.5 -18q88 -14 148 -32.5t109.5 -50.5t73 -81t23.5 -119q0 -141 -92 -216.5t-254 -75.5z" />
<glyph unicode="t" horiz-adv-x="727" d="M522 55q70 0 133 19v-74q-55 -14 -139 -14q-80 0 -136 24t-85.5 68.5t-42 96.5t-12.5 120v657h-207v70h207v301h73v-301h336v-70h-336v-653q0 -124 47 -184t162 -60z" />
<glyph unicode="u" horiz-adv-x="1150" d="M528 -20q-185 0 -285 110.5t-100 306.5v625h74v-616q0 -170 81.5 -263.5t240.5 -93.5q181 0 280 124t99 351v498h73v-1022h-73v254q-43 -121 -139 -197.5t-251 -76.5z" />
<glyph unicode="v" horiz-adv-x="1042" d="M522 86l400 936h79l-438 -1022h-80l-442 1022h80z" />
<glyph unicode="w" horiz-adv-x="1507" d="M1104 106l287 916h75l-323 -1022h-74l-315 926l-316 -926h-76l-321 1022h78l284 -916l310 916h82z" />
<glyph unicode="x" horiz-adv-x="1032" d="M145 0h-92l410 528l-389 494h92l346 -438l338 438h94l-383 -492l418 -530h-92l-375 475z" />
<glyph unicode="y" horiz-adv-x="1042" d="M522 92l400 930h79l-610 -1423h-82l176 403l-444 1020h82z" />
<glyph unicode="z" horiz-adv-x="964" d="M834 969l-639 -899h684v-70h-785v53l639 899h-620v70h721v-53z" />
<glyph unicode="{" horiz-adv-x="671" d="M297 1206v-432q0 -147 -141 -188q66 -21 103.5 -69t37.5 -120v-432q0 -77 47 -123.5t125 -46.5h170v-69h-180q-109 0 -172.5 64t-63.5 173v436q0 70 -46.5 111t-121.5 41h-37v70h37q74 0 121 41.5t47 111.5v436q0 108 64 172t172 64h180v-68h-170q-78 0 -125 -47 t-47 -125z" />
<glyph unicode="|" horiz-adv-x="477" d="M276 -401h-73v2048h73v-2048z" />
<glyph unicode="}" horiz-adv-x="671" d="M616 621h37v-70h-37q-74 0 -120.5 -41t-46.5 -111v-436q0 -109 -63.5 -173t-172.5 -64h-180v69h170q79 0 125.5 46.5t46.5 123.5v432q0 72 37.5 120t103.5 69q-141 41 -141 188v432q0 78 -46.5 125t-125.5 47h-170v68h180q108 0 172 -64t64 -172v-436q0 -70 46.5 -111.5 t120.5 -41.5z" />
<glyph unicode="~" horiz-adv-x="1169" d="M190 518l-57 27q22 98 87.5 155.5t166.5 57.5q52 0 108.5 -26t98.5 -57t94.5 -57t95.5 -26q153 0 195 166l59 -25q-24 -99 -89 -156t-167 -57q-52 0 -108.5 26t-98.5 57t-94.5 57t-95.5 26q-150 0 -195 -168z" />
<glyph unicode="&#xa1;" horiz-adv-x="415" d="M207 1055q33 0 54.5 -20t21.5 -54t-21.5 -54t-54.5 -20q-32 0 -53 20t-21 54t21 54t53 20zM176 690h64l18 -1091h-100z" />
<glyph unicode="&#xa2;" horiz-adv-x="1150" d="M1004 496l67 -33q-61 -122 -178 -192t-272 -70q-83 0 -150 20l-68 -201h-65l74 222q-146 60 -230 192.5t-84 298.5q0 146 64.5 267.5t185 193.5t273.5 72q54 0 127 -15l59 174h67l-65 -194q165 -64 244 -219l-68 -31q-65 128 -199 182l-292 -874q66 -17 127 -17 q134 0 231.5 59t151.5 165zM176 733q0 -142 68.5 -256t189.5 -168l291 873q-49 12 -104 12q-199 0 -322 -133.5t-123 -327.5z" />
<glyph unicode="&#xa3;" horiz-adv-x="1187" d="M365 625v-551h770v-74h-1069v74h221v551h-185v71h185v256q0 249 108.5 381.5t304.5 132.5q297 0 396 -303l-64 -35q-44 129 -121 197t-206 68q-166 0 -253 -112.5t-87 -328.5v-256h524v-71h-524z" />
<glyph unicode="&#xa4;" horiz-adv-x="1179" d="M930 432l147 -145l-47 -49l-149 147q-117 -104 -293 -104q-169 0 -289 102l-147 -147l-48 49l146 145q-105 124 -105 293q0 168 103 293l-146 145l48 49l147 -147q120 102 291 102q170 0 293 -102l147 147l47 -49l-147 -147q102 -121 102 -291q0 -164 -100 -291zM217 723 q0 -160 101.5 -267.5t269.5 -107.5q169 0 271 107.5t102 267.5t-102 267.5t-271 107.5q-168 0 -269.5 -107.5t-101.5 -267.5z" />
<glyph unicode="&#xa5;" horiz-adv-x="1189" d="M1065 1446h90l-467 -764h305v-66h-346l-14 -24v-227h360v-68h-360v-297h-78v297h-358v68h358v223l-16 28h-342v66h301l-463 764h90l469 -772z" />
<glyph unicode="&#xa6;" horiz-adv-x="477" d="M276 827h-73v820h73v-820zM276 -401h-73v819h73v-819z" />
<glyph unicode="&#xa7;" horiz-adv-x="1058" d="M705 360q106 -41 161.5 -107t55.5 -175q0 -147 -99 -235.5t-276 -88.5q-149 0 -265 65.5t-161 200.5l67 31q37 -112 131 -169.5t226 -57.5q145 0 223 70t78 184q0 49 -16 87.5t-41.5 64.5t-70 47t-90 34.5t-112.5 28.5q-60 14 -103.5 28t-93 39t-80.5 56t-52 79.5 t-21 108.5q0 104 55 180.5t158 108.5q-197 80 -197 268q0 137 91.5 225.5t254.5 88.5q132 0 229 -57.5t138 -159.5l-68 -29q-40 87 -117 131.5t-178 44.5q-130 0 -202 -66t-72 -178q0 -36 9 -65.5t22 -51t38 -40t46.5 -30.5t58 -24t62.5 -19t69 -17q71 -16 122 -32t101 -42 t80 -58t49 -79.5t19 -108.5q0 -110 -59 -181.5t-170 -99.5zM242 662q0 -51 16.5 -90.5t41 -64.5t69 -45t82.5 -31t100 -25q4 -1 15 -4.5t18 -4.5q139 6 207.5 69t68.5 171q0 60 -20.5 102.5t-66.5 72t-101 48t-144 37.5q-12 2 -41 10q-116 -7 -180.5 -74.5t-64.5 -170.5z " />
<glyph unicode="&#xa8;" horiz-adv-x="630" d="M150 1313q-30 0 -49 18.5t-19 48.5t19 48t49 18t48.5 -18t18.5 -48t-18.5 -48.5t-48.5 -18.5zM481 1313q-28 0 -47.5 18.5t-19.5 48.5t19 48t48 18q30 0 49 -18t19 -48t-19 -48.5t-49 -18.5z" />
<glyph unicode="&#xa9;" horiz-adv-x="1744" d="M872 -20q-212 0 -382 95t-265.5 265t-95.5 383t95.5 383t265.5 265t382 95t382 -95t266 -265t96 -383t-96 -383t-266 -265t-382 -95zM872 41q194 0 349 87.5t242 243.5t87 351t-87 351t-242 243.5t-349 87.5q-145 0 -271 -51.5t-215 -141t-140 -216.5t-51 -273t51 -273 t140 -216.5t215 -141t271 -51.5zM889 319q-170 0 -278.5 114t-108.5 280q0 167 108.5 281t278.5 114q106 0 192 -50.5t131 -137.5l-63 -29q-36 68 -104.5 109.5t-155.5 41.5q-142 0 -230 -94.5t-88 -234.5q0 -138 88 -233t230 -95q95 0 164.5 42.5t107.5 119.5l62 -33 q-45 -92 -131.5 -143.5t-202.5 -51.5z" />
<glyph unicode="&#xaa;" horiz-adv-x="796" d="M379 829q-135 0 -219 90t-84 226q0 134 84.5 224.5t218.5 90.5q89 0 157.5 -42t98.5 -109v139h63v-606h-63v137q-32 -67 -100 -108.5t-156 -41.5zM389 889q109 0 178.5 73.5t69.5 182.5q0 107 -69.5 180.5t-178.5 73.5q-110 0 -178 -73.5t-68 -180.5q0 -108 68 -182 t178 -74z" />
<glyph unicode="&#xab;" horiz-adv-x="931" d="M434 98l-59 -39l-305 451l305 448l59 -38l-278 -410zM842 98l-62 -39l-303 451l303 448l62 -38l-281 -410z" />
<glyph unicode="&#xac;" horiz-adv-x="970" d="M885 442h-74v287h-725v72h799v-359z" />
<glyph unicode="&#xad;" horiz-adv-x="835" d="M737 479h-637v70h637v-70z" />
<glyph unicode="&#xae;" horiz-adv-x="964" d="M483 1466q169 0 278 -109t109 -276q0 -170 -109 -279.5t-278 -109.5q-170 0 -279.5 109.5t-109.5 279.5q0 168 109.5 276.5t279.5 108.5zM483 735q149 0 246.5 97.5t97.5 248.5q0 148 -97 246t-247 98q-151 0 -248.5 -97.5t-97.5 -246.5q0 -151 97 -248.5t249 -97.5z M633 1174q0 -49 -25 -79t-69 -38l118 -180h-63l-107 167h-86v-167h-53v413h152q68 0 100.5 -31t32.5 -85zM489 1243h-88v-151h84q95 0 95 79q0 72 -91 72z" />
<glyph unicode="&#xaf;" horiz-adv-x="630" d="M567 1335h-504v64h504v-64z" />
<glyph unicode="&#xb0;" horiz-adv-x="794" d="M397 922q-132 0 -217.5 85t-85.5 214q0 130 86 215.5t217 85.5q132 0 217.5 -85t85.5 -216q0 -129 -85.5 -214t-217.5 -85zM397 987q102 0 169 67t67 167q0 101 -66.5 168t-169.5 67q-101 0 -167 -66t-66 -167q0 -102 66 -169t167 -67z" />
<glyph unicode="&#xb1;" horiz-adv-x="1048" d="M561 1190v-422h402v-72h-402v-420h-72v420h-403v72h403v422h72zM963 0h-877v72h877v-72z" />
<glyph unicode="&#xb2;" horiz-adv-x="702" d="M319 983l-149 -143h479v-66h-579v53l178 174q164 159 209 214q81 97 86 182v14q0 75 -53 122.5t-146 47.5q-80 0 -138 -33t-85 -98l-62 35q30 73 106.5 117.5t182.5 44.5q127 0 195.5 -66t68.5 -168q0 -28 -4 -54.5t-18 -55t-23 -48.5t-36.5 -52.5t-40.5 -49t-52 -55.5 t-54.5 -53.5t-64.5 -61.5z" />
<glyph unicode="&#xb3;" horiz-adv-x="704" d="M334 1290q135 0 214 -71t79 -191q0 -125 -81.5 -199.5t-215.5 -74.5q-107 0 -183.5 42.5t-109.5 114.5l53 39q29 -61 92.5 -96t143.5 -35q105 0 168 57.5t63 153.5q0 95 -62.5 149t-168.5 54q-78 0 -117 -16l-31 38l311 306h-407v65h506v-53l-289 -285q10 2 35 2z" />
<glyph unicode="&#xb4;" horiz-adv-x="630" d="M262 1214h-69l161 287h82z" />
<glyph unicode="&#xb5;" horiz-adv-x="1144" d="M911 524v498h74v-1022h-74v254q-43 -121 -137.5 -197.5t-247.5 -76.5q-225 0 -317 165v-546h-74v1423h74v-616q0 -170 81 -263.5t240 -93.5q183 0 282 124t99 351z" />
<glyph unicode="&#xb6;" horiz-adv-x="882" d="M678 1446v-1847h-74v1087h-41q-215 0 -341 105.5t-126 285.5q0 169 123 269t330 100h129z" />
<glyph unicode="&#xb7;" horiz-adv-x="415" d="M207 438q-31 0 -52.5 20.5t-21.5 53.5q0 34 21 54t53 20q33 0 54.5 -20t21.5 -54q0 -33 -21.5 -53.5t-54.5 -20.5z" />
<glyph unicode="&#xb8;" horiz-adv-x="630" d="M303 -434q-103 0 -168 26v66q66 -31 166 -31q58 0 92.5 28t34.5 75q0 98 -152 98h-28v174h63v-123q79 -3 132 -42t53 -111q0 -76 -51.5 -118t-141.5 -42z" />
<glyph unicode="&#xb9;" horiz-adv-x="491" d="M362 774h-69v768l-236 -100l-22 61l307 129h20v-858z" />
<glyph unicode="&#xba;" horiz-adv-x="786" d="M395 827q-142 0 -230.5 91t-88.5 227q0 134 89 223.5t230 89.5q139 0 227.5 -89.5t88.5 -223.5q0 -137 -88.5 -227.5t-227.5 -90.5zM395 891q109 0 178.5 73.5t69.5 180.5q0 106 -69.5 178t-178.5 72q-112 0 -182 -72t-70 -178q0 -108 70.5 -181t181.5 -73z" />
<glyph unicode="&#xbb;" horiz-adv-x="931" d="M455 510l-303 -451l-62 39l281 412l-281 410l62 38zM862 510l-305 -451l-59 39l278 412l-278 410l59 38z" />
<glyph unicode="&#xbc;" horiz-adv-x="1472" d="M362 594h-69v768l-236 -100l-22 61l307 129h20v-858zM201 0l852 1446h77l-851 -1446h-78zM1300 256h134v-63h-134v-193h-65v193h-449v57l269 602h73l-264 -596h371v283h65v-283z" />
<glyph unicode="&#xbd;" horiz-adv-x="1540" d="M362 594h-69v768l-236 -100l-22 61l307 129h20v-858zM201 0l852 1446h77l-851 -1446h-78zM1159 209l-149 -143h479v-66h-580v53l178 174l1 1l1 1l1 1l1 1l1 1l1 1l1 1l1 1l1 1l1 1l1 1l1 1l1 1l1 1q159 154 205 212q76 96 76 184q0 76 -52.5 123t-145.5 47 q-80 0 -138 -33t-85 -98l-62 35q30 73 106.5 117t182.5 44q127 0 195.5 -65.5t68.5 -167.5q0 -28 -4 -54.5t-18 -55t-23 -48.5t-36.5 -52.5t-40.5 -49t-52 -55.5t-54.5 -53.5t-64.5 -61.5z" />
<glyph unicode="&#xbe;" horiz-adv-x="1630" d="M627 848q0 -125 -81.5 -200t-215.5 -75q-106 0 -183 43t-110 115l53 39q29 -61 92.5 -96t143.5 -35q105 0 168 57.5t63 153.5q0 95 -62.5 149t-168.5 54q-76 0 -117 -17l-31 39l311 305h-407v66h506v-53l-289 -285q10 2 35 2q135 0 214 -71t79 -191zM358 0l852 1446h78 l-852 -1446h-78zM1458 256h133v-63h-133v-193h-65v193h-449v57l268 602h74l-264 -596h371v283h65v-283z" />
<glyph unicode="&#xbf;" horiz-adv-x="878" d="M522 1055q33 0 54.5 -20t21.5 -54t-21.5 -54t-54.5 -20q-32 0 -52.5 20t-20.5 54t20.5 54t52.5 20zM512 688h70q0 -66 -22 -128.5t-57.5 -112.5t-78.5 -98.5t-86 -95.5t-78.5 -94t-57.5 -102.5t-22 -113.5q0 -130 96 -211.5t254 -81.5q130 0 226 62t133 169l72 -26 q-48 -135 -166 -207t-269 -72q-180 0 -303 97.5t-123 265.5q0 66 22.5 127.5t59 111t80.5 97.5t88 95t80.5 94.5t59 105.5t22.5 118z" />
<glyph unicode="&#xc0;" horiz-adv-x="1298" d="M518 1831l164 -250h-72l-180 250h88zM1255 0h-84l-157 410h-727l-160 -410h-82l559 1446h92zM985 485l-336 871l-334 -871h670z" />
<glyph unicode="&#xc1;" horiz-adv-x="1298" d="M782 1831h86l-178 -250h-72zM1255 0h-84l-157 410h-727l-160 -410h-82l559 1446h92zM985 485l-336 871l-334 -871h670z" />
<glyph unicode="&#xc2;" horiz-adv-x="1298" d="M836 1581l-185 201l-186 -201h-82l233 250h68l231 -250h-79zM1255 0h-84l-157 410h-727l-160 -410h-82l559 1446h92zM985 485l-336 871l-334 -871h670z" />
<glyph unicode="&#xc3;" horiz-adv-x="1298" d="M520 1737q-40 0 -63 -37.5t-23 -100.5h-63q0 93 38.5 148t104.5 55q35 0 66.5 -15t55.5 -37t46.5 -43.5t48 -36.5t51.5 -15q41 0 62.5 37t21.5 104h66q0 -93 -39.5 -147t-108.5 -54q-33 0 -64.5 14.5t-55 35.5t-46 42t-48 35.5t-50.5 14.5zM1255 0h-84l-157 410h-727 l-160 -410h-82l559 1446h92zM985 485l-336 871l-334 -871h670z" />
<glyph unicode="&#xc4;" horiz-adv-x="1298" d="M483 1636q-29 0 -48 19t-19 49t19 49t48 19q30 0 49 -19t19 -49t-19 -49t-49 -19zM815 1636q-29 0 -48 19t-19 49t19 49t48 19q30 0 49 -19t19 -49t-19 -49t-49 -19zM1255 0h-84l-157 410h-727l-160 -410h-82l559 1446h92zM985 485l-336 871l-334 -871h670z" />
<glyph unicode="&#xc5;" horiz-adv-x="1298" d="M653 1536q-83 0 -136.5 50t-53.5 128t53.5 128t136.5 50q80 0 132.5 -50t52.5 -128t-52.5 -128t-132.5 -50zM651 1841q-56 0 -93.5 -36t-37.5 -91q0 -56 37.5 -91.5t93.5 -35.5t92.5 35.5t36.5 91.5t-36 91.5t-93 35.5zM1255 0h-84l-157 410h-727l-160 -410h-82l559 1446 h92zM985 485l-336 871l-334 -871h670z" />
<glyph unicode="&#xc6;" horiz-adv-x="1900" d="M1042 686v-612h758v-74h-835v389h-594l-226 -389h-86l834 1446h885v-74h-736v-610h641v-76h-641zM934 1372l-518 -907h549v907h-31z" />
<glyph unicode="&#xc7;" horiz-adv-x="1581" d="M1421 416l74 -33q-78 -191 -238 -294t-374 -109v-101q80 -3 133 -42t53 -111q0 -76 -51.5 -118t-140.5 -42q-105 0 -170 26v66q66 -31 167 -31q58 0 91.5 28t33.5 75q0 98 -151 98h-29v152q-204 10 -362 111t-243 266t-85 366q0 207 91 376t258 268t378 99 q210 0 369.5 -99t238.5 -271l-71 -33q-69 153 -209 241.5t-328 88.5q-189 0 -337.5 -89t-228 -241t-79.5 -340q0 -189 78.5 -340.5t227.5 -240.5t343 -89q200 0 346.5 93t214.5 270z" />
<glyph unicode="&#xc8;" horiz-adv-x="1124" d="M629 1581h-72l-180 250h88zM1026 0h-836v1446h811v-74h-733v-610h639v-76h-639v-612h758v-74z" />
<glyph unicode="&#xc9;" horiz-adv-x="1124" d="M637 1581h-72l164 250h86zM1026 0h-836v1446h811v-74h-733v-610h639v-76h-639v-612h758v-74z" />
<glyph unicode="&#xca;" horiz-adv-x="1124" d="M782 1581l-184 201l-186 -201h-82l233 250h68l231 -250h-80zM268 686v-612h758v-74h-836v1446h811v-74h-733v-610h639v-76h-639z" />
<glyph unicode="&#xcb;" horiz-adv-x="1124" d="M432 1636q-30 0 -48.5 19t-18.5 49t18.5 49t48.5 19t49 -19t19 -49t-19 -49t-49 -19zM764 1636q-30 0 -49 19t-19 49t19 49t49 19t48.5 -19t18.5 -49t-18.5 -49t-48.5 -19zM1026 0h-836v1446h811v-74h-733v-610h639v-76h-639v-612h758v-74z" />
<glyph unicode="&#xcc;" horiz-adv-x="483" d="M274 1581h-71l-180 250h88zM281 0h-78v1446h78v-1446z" />
<glyph unicode="&#xcd;" horiz-adv-x="483" d="M283 1581h-72l164 250h86zM281 0h-78v1446h78v-1446z" />
<glyph unicode="&#xce;" horiz-adv-x="483" d="M209 1831h67l232 -250h-80l-184 201l-187 -201h-82zM281 0h-78v1446h78v-1446z" />
<glyph unicode="&#xcf;" horiz-adv-x="483" d="M78 1636q-30 0 -49 19t-19 49t19 49t49 19t48.5 -19t18.5 -49t-18.5 -49t-48.5 -19zM410 1636q-30 0 -49 19t-19 49t19 49t49 19t48.5 -19t18.5 -49t-18.5 -49t-48.5 -19zM281 0h-78v1446h78v-1446z" />
<glyph unicode="&#xd0;" horiz-adv-x="1505" d="M231 1446h422q226 0 391.5 -95.5t248.5 -257.5t83 -370t-82 -370t-246.5 -257.5t-390.5 -95.5h-426v686h-231v72h231v688zM309 74h350q204 0 349 85t215.5 230t70.5 334q0 141 -41.5 259t-120 205t-201 136t-276.5 49h-346v-614h510v-72h-510v-612z" />
<glyph unicode="&#xd1;" horiz-adv-x="1439" d="M854 1595q-33 0 -64.5 14.5t-55 35.5t-46 42t-48 35.5t-50.5 14.5q-40 0 -63 -37.5t-23 -100.5h-64q0 92 39 147.5t105 55.5q35 0 66.5 -15t55.5 -37t46.5 -43.5t48 -36.5t51.5 -15q41 0 62.5 37t21.5 104h65q0 -93 -39 -147t-108 -54zM268 0h-78v1446h74l910 -1307v1307 h77v-1446h-75l-908 1307v-1307z" />
<glyph unicode="&#xd2;" horiz-adv-x="1736" d="M901 1581h-72l-180 250h88zM868 -20q-214 0 -383.5 99t-262.5 268t-93 376t93 376t262.5 268t383.5 99t384 -99t263 -268t93 -376t-93 -376t-263 -268t-384 -99zM868 53q193 0 345 89t233.5 241t81.5 340t-81.5 340t-233.5 241t-345 89q-192 0 -343 -89t-232.5 -241 t-81.5 -340t81.5 -340t232.5 -241t343 -89z" />
<glyph unicode="&#xd3;" horiz-adv-x="1736" d="M909 1581h-71l163 250h86zM868 -20q-214 0 -383.5 99t-262.5 268t-93 376t93 376t262.5 268t383.5 99t384 -99t263 -268t93 -376t-93 -376t-263 -268t-384 -99zM868 53q193 0 345 89t233.5 241t81.5 340t-81.5 340t-233.5 241t-345 89q-192 0 -343 -89t-232.5 -241 t-81.5 -340t81.5 -340t232.5 -241t343 -89z" />
<glyph unicode="&#xd4;" horiz-adv-x="1736" d="M1055 1581l-185 201l-186 -201h-82l234 250h67l232 -250h-80zM868 1466q214 0 384 -99t263 -268t93 -376t-93 -376t-263 -268t-384 -99t-383.5 99t-262.5 268t-93 376t93 376t262.5 268t383.5 99zM868 53q193 0 345 89t233.5 241t81.5 340t-81.5 340t-233.5 241t-345 89 q-192 0 -343 -89t-232.5 -241t-81.5 -340t81.5 -340t232.5 -241t343 -89z" />
<glyph unicode="&#xd5;" horiz-adv-x="1736" d="M1004 1595q-41 0 -79.5 22t-64 49t-58.5 49t-63 22q-40 0 -63 -37.5t-23 -100.5h-63q0 93 38.5 148t104.5 55q35 0 66.5 -15t55.5 -37t46.5 -43.5t48 -36.5t51.5 -15q41 0 62.5 37t21.5 104h66q0 -93 -39 -147t-108 -54zM868 -20q-214 0 -383.5 99t-262.5 268t-93 376 t93 376t262.5 268t383.5 99t384 -99t263 -268t93 -376t-93 -376t-263 -268t-384 -99zM868 53q193 0 345 89t233.5 241t81.5 340t-81.5 340t-233.5 241t-345 89q-192 0 -343 -89t-232.5 -241t-81.5 -340t81.5 -340t232.5 -241t343 -89z" />
<glyph unicode="&#xd6;" horiz-adv-x="1736" d="M702 1636q-30 0 -48.5 19t-18.5 49t18.5 49t48.5 19t49 -19t19 -49t-19 -49t-49 -19zM1034 1636q-30 0 -48.5 19t-18.5 49t18.5 49t48.5 19t49 -19t19 -49t-19 -49t-49 -19zM868 -20q-214 0 -383.5 99t-262.5 268t-93 376t93 376t262.5 268t383.5 99t384 -99t263 -268 t93 -376t-93 -376t-263 -268t-384 -99zM868 53q193 0 345 89t233.5 241t81.5 340t-81.5 340t-233.5 241t-345 89q-192 0 -343 -89t-232.5 -241t-81.5 -340t81.5 -340t232.5 -241t343 -89z" />
<glyph unicode="&#xd7;" horiz-adv-x="991" d="M854 1047l51 -50l-358 -360l358 -358l-51 -52l-358 359l-359 -359l-51 52l358 358l-358 360l51 50l359 -359z" />
<glyph unicode="&#xd8;" horiz-adv-x="1736" d="M1417 1462l-94 -141q135 -102 210 -258t75 -340q0 -207 -93 -376t-263 -268t-384 -99q-205 0 -374 94l-93 -137h-84l117 174q-144 101 -224.5 261t-80.5 351q0 207 93 376t262.5 268t383.5 99q222 0 398 -106l67 102h84zM211 723q0 -171 69.5 -314.5t194.5 -234.5 l748 1124q-158 95 -355 95q-192 0 -343 -89t-232.5 -241t-81.5 -340zM868 53q193 0 345 89t233.5 241t81.5 340q0 164 -64.5 303t-181.5 231l-747 -1120q149 -84 333 -84z" />
<glyph unicode="&#xd9;" horiz-adv-x="1353" d="M711 1581h-72l-180 250h88zM678 -20q-535 0 -535 595v871h78v-868q0 -261 109.5 -393t347.5 -132t346.5 131.5t108.5 393.5v868h77v-871q0 -595 -532 -595z" />
<glyph unicode="&#xda;" horiz-adv-x="1353" d="M719 1581h-72l164 250h86zM678 -20q-535 0 -535 595v871h78v-868q0 -261 109.5 -393t347.5 -132t346.5 131.5t108.5 393.5v868h77v-871q0 -595 -532 -595z" />
<glyph unicode="&#xdb;" horiz-adv-x="1353" d="M864 1581l-184 201l-186 -201h-82l233 250h68l231 -250h-80zM1133 578v868h77v-871q0 -595 -532 -595q-535 0 -535 595v871h78v-868q0 -261 109.5 -393t347.5 -132t346.5 131.5t108.5 393.5z" />
<glyph unicode="&#xdc;" horiz-adv-x="1353" d="M512 1636q-30 0 -49 19t-19 49t19 49t49 19t49 -19t19 -49t-19 -49t-49 -19zM844 1636q-30 0 -49 19t-19 49t19 49t49 19t48.5 -19t18.5 -49t-18.5 -49t-48.5 -19zM678 -20q-535 0 -535 595v871h78v-868q0 -261 109.5 -393t347.5 -132t346.5 131.5t108.5 393.5v868h77 v-871q0 -595 -532 -595z" />
<glyph unicode="&#xdd;" horiz-adv-x="1189" d="M635 1581h-72l164 250h86zM633 0h-78v588l-520 858h90l469 -772l471 772h90l-522 -854v-592z" />
<glyph unicode="&#xde;" horiz-adv-x="1169" d="M268 0h-78v1446h78v-277h353q452 0 452 -407q0 -212 -122 -322t-345 -110h-338v-330zM268 1096v-693h332q393 0 393 359q0 171 -92 252.5t-289 81.5h-344z" />
<glyph unicode="&#xdf;" horiz-adv-x="1150" d="M698 459q187 0 295.5 -114.5t108.5 -311.5q0 -213 -122.5 -333t-330.5 -120q-135 0 -217 33l25 70q81 -33 190 -33q176 0 277.5 102t101.5 283q0 172 -92 265t-252 93q-72 0 -139 -24l-31 32l410 551h-615v-952h-74v952h-200v70h200v156q0 79 14 137.5t48 107.5t98 74 t158 25q40 0 86 -4v-72q-34 6 -86 6q-76 0 -125.5 -19t-74.5 -58t-34.5 -86.5t-9.5 -117.5v-149h709v-57l-385 -510q25 4 67 4z" />
<glyph unicode="&#xe0;" d="M641 1214h-70l-174 287h82zM592 -20q-146 0 -259.5 71.5t-174 191.5t-60.5 267q0 148 60 268.5t173.5 192t260.5 71.5q157 0 274.5 -81.5t169.5 -217.5v279h74v-1022h-74v276q-53 -134 -169.5 -215t-274.5 -81zM598 49q127 0 227.5 62.5t154.5 167t54 231.5 q0 128 -54 233t-154.5 167.5t-227.5 62.5q-190 0 -306 -133.5t-116 -329.5q0 -127 50.5 -231t148 -167t223.5 -63z" />
<glyph unicode="&#xe1;" d="M643 1214h-70l162 287h82zM592 -20q-146 0 -259.5 71.5t-174 191.5t-60.5 267q0 148 60 268.5t173.5 192t260.5 71.5q157 0 274.5 -81.5t169.5 -217.5v279h74v-1022h-74v276q-53 -134 -169.5 -215t-274.5 -81zM598 49q127 0 227.5 62.5t154.5 167t54 231.5q0 128 -54 233 t-154.5 167.5t-227.5 62.5q-190 0 -306 -133.5t-116 -329.5q0 -127 50.5 -231t148 -167t223.5 -63z" />
<glyph unicode="&#xe2;" d="M799 1214l-191 234l-190 -234h-80l237 287h66l236 -287h-78zM1036 743v279h74v-1022h-74v276q-53 -134 -169.5 -215t-274.5 -81q-146 0 -259.5 71.5t-174 191.5t-60.5 267q0 148 60 268.5t173.5 192t260.5 71.5q157 0 274.5 -81.5t169.5 -217.5zM598 49q127 0 227.5 62.5 t154.5 167t54 231.5q0 128 -54 233t-154.5 167.5t-227.5 62.5q-190 0 -306 -133.5t-116 -329.5q0 -127 50.5 -231t148 -167t223.5 -63z" />
<glyph unicode="&#xe3;" d="M743 1243q-41 0 -80 22t-64 48.5t-57.5 48.5t-62.5 22q-41 0 -64.5 -36.5t-23.5 -100.5h-63q0 93 39 148t106 55q35 0 66.5 -15t55.5 -36t46.5 -42.5t48 -36.5t51.5 -15q40 0 62 37t22 102h66q0 -93 -39.5 -147t-108.5 -54zM592 -20q-146 0 -259.5 71.5t-174 191.5 t-60.5 267q0 148 60 268.5t173.5 192t260.5 71.5q157 0 274.5 -81.5t169.5 -217.5v279h74v-1022h-74v276q-53 -134 -169.5 -215t-274.5 -81zM598 49q127 0 227.5 62.5t154.5 167t54 231.5q0 128 -54 233t-154.5 167.5t-227.5 62.5q-190 0 -306 -133.5t-116 -329.5 q0 -127 50.5 -231t148 -167t223.5 -63z" />
<glyph unicode="&#xe4;" d="M442 1313q-30 0 -48.5 18.5t-18.5 48.5t18.5 48t48.5 18t49 -18t19 -48t-19 -48.5t-49 -18.5zM774 1313q-30 0 -48.5 18.5t-18.5 48.5t18.5 48t48.5 18t49 -18t19 -48t-19 -48.5t-49 -18.5zM592 -20q-146 0 -259.5 71.5t-174 191.5t-60.5 267q0 148 60 268.5t173.5 192 t260.5 71.5q157 0 274.5 -81.5t169.5 -217.5v279h74v-1022h-74v276q-53 -134 -169.5 -215t-274.5 -81zM598 49q127 0 227.5 62.5t154.5 167t54 231.5q0 128 -54 233t-154.5 167.5t-227.5 62.5q-190 0 -306 -133.5t-116 -329.5q0 -127 50.5 -231t148 -167t223.5 -63z" />
<glyph unicode="&#xe5;" d="M608 1200q-82 0 -135 50t-53 128t53 128t135 50t134.5 -50t52.5 -128t-52.5 -128t-134.5 -50zM608 1251q56 0 92.5 35.5t36.5 91.5q0 55 -36.5 91t-92.5 36t-94.5 -36t-38.5 -91q0 -56 37.5 -91.5t95.5 -35.5zM592 -20q-146 0 -259.5 71.5t-174 191.5t-60.5 267 q0 148 60 268.5t173.5 192t260.5 71.5q157 0 274.5 -81.5t169.5 -217.5v279h74v-1022h-74v276q-53 -134 -169.5 -215t-274.5 -81zM598 49q127 0 227.5 62.5t154.5 167t54 231.5q0 128 -54 233t-154.5 167.5t-227.5 62.5q-190 0 -306 -133.5t-116 -329.5q0 -127 50.5 -231 t148 -167t223.5 -63z" />
<glyph unicode="&#xe6;" horiz-adv-x="1925" d="M1831 510q0 -5 -1 -14t-1 -13h-916q8 -191 123 -312.5t320 -121.5q255 0 366 217l68 -33q-61 -120 -170 -186.5t-264 -66.5q-174 0 -293.5 78t-175.5 214q-41 -139 -144 -215.5t-264 -76.5q-177 0 -288 91t-111 253q0 151 98 241t266 90q117 0 229.5 -44.5t168.5 -125.5 v133q0 172 -96 263.5t-242 91.5q-110 0 -190 -43.5t-126 -120.5l-67 31q55 95 154 148.5t229 53.5q138 0 247 -71.5t144 -212.5q57 131 172.5 207.5t271.5 76.5q144 0 257.5 -71.5t174 -192.5t60.5 -268zM1341 973q-185 0 -299.5 -119t-126.5 -303h840q-12 183 -125 302.5 t-289 119.5zM477 49q156 0 249.5 87t113.5 253q-35 84 -143 141.5t-242 57.5q-151 0 -225 -73.5t-74 -188.5q0 -130 86 -203.5t235 -73.5z" />
<glyph unicode="&#xe7;" horiz-adv-x="1150" d="M1004 272l67 -30q-58 -118 -168 -187t-258 -75v-101q80 -3 133 -42t53 -111q0 -76 -51.5 -118t-140.5 -42q-105 0 -170 26v66q66 -31 168 -31q58 0 91.5 28t33.5 75q0 98 -152 98h-28v154q-142 9 -253.5 82t-171 190t-59.5 256q0 146 64.5 267t185 193t273.5 72 q145 0 258 -67.5t174 -186.5l-68 -30q-52 100 -147.5 157.5t-216.5 57.5q-199 0 -322 -133.5t-123 -329.5q0 -194 123 -327.5t322 -133.5q135 0 232 58.5t151 164.5z" />
<glyph unicode="&#xe8;" horiz-adv-x="1202" d="M481 1501l162 -287h-70l-174 287h82zM1108 510q0 -19 -2 -27h-932q9 -188 129.5 -311t321.5 -123q262 0 376 217l68 -33q-131 -253 -444 -253q-160 0 -281 71.5t-183.5 191.5t-62.5 267q0 224 144.5 378t365.5 154q149 0 264 -71.5t175.5 -192t60.5 -268.5zM610 973 q-181 0 -300.5 -120t-133.5 -302h856q-12 184 -126.5 303t-295.5 119z" />
<glyph unicode="&#xe9;" horiz-adv-x="1202" d="M737 1501h82l-174 -287h-70zM1108 510q0 -19 -2 -27h-932q9 -188 129.5 -311t321.5 -123q262 0 376 217l68 -33q-131 -253 -444 -253q-160 0 -281 71.5t-183.5 191.5t-62.5 267q0 224 144.5 378t365.5 154q149 0 264 -71.5t175.5 -192t60.5 -268.5zM610 973 q-181 0 -300.5 -120t-133.5 -302h856q-12 184 -126.5 303t-295.5 119z" />
<glyph unicode="&#xea;" horiz-adv-x="1202" d="M801 1214l-191 234l-190 -234h-80l238 287h65l236 -287h-78zM1108 510q0 -19 -2 -27h-932q9 -188 129.5 -311t321.5 -123q262 0 376 217l68 -33q-131 -253 -444 -253q-160 0 -281 71.5t-183.5 191.5t-62.5 267q0 224 144.5 378t365.5 154q149 0 264 -71.5t175.5 -192 t60.5 -268.5zM610 973q-181 0 -300.5 -120t-133.5 -302h856q-12 184 -126.5 303t-295.5 119z" />
<glyph unicode="&#xeb;" horiz-adv-x="1202" d="M444 1313q-30 0 -48.5 18.5t-18.5 48.5t18.5 48t48.5 18t49 -18t19 -48t-19 -48.5t-49 -18.5zM776 1313q-30 0 -48.5 18.5t-18.5 48.5t18.5 48t48.5 18t49 -18t19 -48t-19 -48.5t-49 -18.5zM1108 510q0 -19 -2 -27h-932q9 -188 129.5 -311t321.5 -123q262 0 376 217 l68 -33q-131 -253 -444 -253q-160 0 -281 71.5t-183.5 191.5t-62.5 267q0 224 144.5 378t365.5 154q149 0 264 -71.5t175.5 -192t60.5 -268.5zM610 973q-181 0 -300.5 -120t-133.5 -302h856q-12 184 -126.5 303t-295.5 119z" />
<glyph unicode="&#xec;" horiz-adv-x="434" d="M258 1214h-70l-172 287h82zM254 0h-74v1022h74v-1022z" />
<glyph unicode="&#xed;" horiz-adv-x="434" d="M248 1214h-70l160 287h82zM254 0h-74v1022h74v-1022z" />
<glyph unicode="&#xee;" horiz-adv-x="434" d="M184 1501h66l184 -287h-69l-148 232l-145 -232h-72zM254 0h-74v1022h74v-1022z" />
<glyph unicode="&#xef;" horiz-adv-x="434" d="M63 1313q-30 0 -48.5 18.5t-18.5 48.5t18.5 48t48.5 18t49 -18t19 -48t-19 -48.5t-49 -18.5zM371 1313q-30 0 -49 18.5t-19 48.5t19 48t49 18t48.5 -18t18.5 -48t-18.5 -48.5t-48.5 -18.5zM254 0h-74v1022h74v-1022z" />
<glyph unicode="&#xf0;" horiz-adv-x="1259" d="M1030 1448l-250 -121q379 -362 379 -780q0 -256 -145.5 -411.5t-382.5 -155.5q-155 0 -277.5 71.5t-189 192t-66.5 266.5q0 145 66 265.5t187 191.5t272 71q141 0 253 -62.5t179 -176.5q-88 262 -342 495l-285 -139l-29 59l260 127q-79 69 -198 152l45 53 q107 -73 221 -172l274 133zM631 49q201 0 327.5 133t126.5 328q0 196 -126 327.5t-328 131.5t-328.5 -132.5t-126.5 -326.5q0 -127 55.5 -231.5t160 -167t239.5 -62.5z" />
<glyph unicode="&#xf1;" horiz-adv-x="1163" d="M731 1243q-41 0 -80 22t-64 48.5t-57.5 48.5t-62.5 22q-41 0 -64.5 -36.5t-23.5 -100.5h-64q0 93 39.5 148t106.5 55q35 0 66.5 -15t55.5 -36t46.5 -42.5t48 -36.5t51.5 -15q40 0 62 37t22 102h66q0 -93 -39.5 -147t-108.5 -54zM244 0h-74v1022h74v-254q42 120 139.5 197 t251.5 77q185 0 285 -110.5t100 -304.5v-627h-74v618q0 169 -81.5 262t-239.5 93q-181 0 -281 -124t-100 -351v-498z" />
<glyph unicode="&#xf2;" horiz-adv-x="1259" d="M664 1214h-70l-174 287h82zM631 -20q-155 0 -277.5 71.5t-189 192t-66.5 266.5q0 147 66.5 268t189 192.5t277.5 71.5q154 0 276 -71.5t188 -192.5t66 -268q0 -146 -66 -266.5t-188 -192t-276 -71.5zM631 49q201 0 327.5 133t126.5 328q0 128 -55.5 233t-160 167.5 t-238.5 62.5q-203 0 -329 -133.5t-126 -329.5q0 -127 55.5 -231.5t160 -167t239.5 -62.5z" />
<glyph unicode="&#xf3;" horiz-adv-x="1259" d="M666 1214h-70l162 287h82zM631 -20q-155 0 -277.5 71.5t-189 192t-66.5 266.5q0 147 66.5 268t189 192.5t277.5 71.5q154 0 276 -71.5t188 -192.5t66 -268q0 -146 -66 -266.5t-188 -192t-276 -71.5zM631 49q201 0 327.5 133t126.5 328q0 128 -55.5 233t-160 167.5 t-238.5 62.5q-203 0 -329 -133.5t-126 -329.5q0 -127 55.5 -231.5t160 -167t239.5 -62.5z" />
<glyph unicode="&#xf4;" horiz-adv-x="1259" d="M821 1214l-190 234l-191 -234h-80l238 287h66l235 -287h-78zM631 1042q154 0 276 -71.5t188 -192.5t66 -268q0 -146 -66 -266.5t-188 -192t-276 -71.5q-155 0 -277.5 71.5t-189 192t-66.5 266.5q0 147 66.5 268t189 192.5t277.5 71.5zM631 49q201 0 327.5 133t126.5 328 q0 128 -55.5 233t-160 167.5t-238.5 62.5q-203 0 -329 -133.5t-126 -329.5q0 -127 55.5 -231.5t160 -167t239.5 -62.5z" />
<glyph unicode="&#xf5;" horiz-adv-x="1259" d="M766 1243q-41 0 -80 22t-64 48.5t-57.5 48.5t-62.5 22q-41 0 -64.5 -36.5t-23.5 -100.5h-64q0 93 39.5 148t106.5 55q35 0 66.5 -15t55.5 -36t46.5 -42.5t48 -36.5t51.5 -15q40 0 62 37t22 102h65q0 -93 -39 -147t-108 -54zM631 -20q-155 0 -277.5 71.5t-189 192 t-66.5 266.5q0 147 66.5 268t189 192.5t277.5 71.5q154 0 276 -71.5t188 -192.5t66 -268q0 -146 -66 -266.5t-188 -192t-276 -71.5zM631 49q201 0 327.5 133t126.5 328q0 128 -55.5 233t-160 167.5t-238.5 62.5q-203 0 -329 -133.5t-126 -329.5q0 -127 55.5 -231.5t160 -167 t239.5 -62.5z" />
<glyph unicode="&#xf6;" horiz-adv-x="1259" d="M465 1313q-30 0 -49 18.5t-19 48.5t19 48t49 18t48.5 -18t18.5 -48t-18.5 -48.5t-48.5 -18.5zM797 1313q-30 0 -49 18.5t-19 48.5t19 48t49 18t48.5 -18t18.5 -48t-18.5 -48.5t-48.5 -18.5zM631 -20q-155 0 -277.5 71.5t-189 192t-66.5 266.5q0 147 66.5 268t189 192.5 t277.5 71.5q154 0 276 -71.5t188 -192.5t66 -268q0 -146 -66 -266.5t-188 -192t-276 -71.5zM631 49q201 0 327.5 133t126.5 328q0 128 -55.5 233t-160 167.5t-238.5 62.5q-203 0 -329 -133.5t-126 -329.5q0 -127 55.5 -231.5t160 -167t239.5 -62.5z" />
<glyph unicode="&#xf7;" horiz-adv-x="1007" d="M504 934q-31 0 -52.5 20.5t-21.5 53.5q0 34 21 54.5t53 20.5q33 0 54.5 -20.5t21.5 -54.5q0 -33 -21.5 -53.5t-54.5 -20.5zM922 602h-836v72h836v-72zM504 193q-32 0 -53 20.5t-21 54.5q0 33 21.5 53.5t52.5 20.5q33 0 54.5 -20.5t21.5 -53.5q0 -34 -21.5 -54.5 t-54.5 -20.5z" />
<glyph unicode="&#xf8;" horiz-adv-x="1259" d="M1090 1102l-121 -174q91 -72 141.5 -181.5t50.5 -236.5q0 -146 -66 -266.5t-188 -192t-276 -71.5q-153 0 -279 71l-92 -135h-80l119 170q-95 74 -148 185t-53 239q0 147 66.5 268t189 192.5t277.5 71.5q160 0 282 -75l95 135h82zM176 510q0 -111 43.5 -206.5 t122.5 -158.5l530 764q-106 64 -241 64q-203 0 -329 -133.5t-126 -329.5zM631 49q201 0 327.5 133t126.5 328q0 109 -41 202t-116 156l-533 -759q107 -60 236 -60z" />
<glyph unicode="&#xf9;" horiz-adv-x="1150" d="M602 1214h-70l-174 287h82zM528 -20q-185 0 -285 110.5t-100 306.5v625h74v-616q0 -170 81.5 -263.5t240.5 -93.5q181 0 280 124t99 351v498h73v-1022h-73v254q-43 -121 -139 -197.5t-251 -76.5z" />
<glyph unicode="&#xfa;" horiz-adv-x="1150" d="M604 1214h-69l161 287h82zM528 -20q-185 0 -285 110.5t-100 306.5v625h74v-616q0 -170 81.5 -263.5t240.5 -93.5q181 0 280 124t99 351v498h73v-1022h-73v254q-43 -121 -139 -197.5t-251 -76.5z" />
<glyph unicode="&#xfb;" horiz-adv-x="1150" d="M760 1214l-191 234l-190 -234h-80l238 287h65l236 -287h-78zM918 524v498h73v-1022h-73v254q-43 -121 -139 -197.5t-251 -76.5q-185 0 -285 110.5t-100 306.5v625h74v-616q0 -170 81.5 -263.5t240.5 -93.5q181 0 280 124t99 351z" />
<glyph unicode="&#xfc;" horiz-adv-x="1150" d="M403 1313q-30 0 -48.5 18.5t-18.5 48.5t18.5 48t48.5 18t49 -18t19 -48t-19 -48.5t-49 -18.5zM735 1313q-30 0 -48.5 18.5t-18.5 48.5t18.5 48t48.5 18t49 -18t19 -48t-19 -48.5t-49 -18.5zM528 -20q-185 0 -285 110.5t-100 306.5v625h74v-616q0 -170 81.5 -263.5 t240.5 -93.5q181 0 280 124t99 351v498h73v-1022h-73v254q-43 -121 -139 -197.5t-251 -76.5z" />
<glyph unicode="&#xfd;" horiz-adv-x="1042" d="M651 1501h82l-174 -287h-70zM522 92l400 930h79l-610 -1423h-82l176 403l-444 1020h82z" />
<glyph unicode="&#xfe;" horiz-adv-x="1280" d="M244 -401h-74v1902h74v-758q52 136 169.5 217.5t274.5 81.5q146 0 259 -71.5t173 -192t60 -268.5q0 -147 -60 -267t-173 -191.5t-259 -71.5q-158 0 -274.5 81t-169.5 215v-677zM680 49q191 0 307.5 133t116.5 328q0 196 -116.5 329.5t-307.5 133.5q-127 0 -227.5 -62.5 t-154.5 -167.5t-54 -233q0 -127 54 -231.5t154.5 -167t227.5 -62.5z" />
<glyph unicode="&#xff;" horiz-adv-x="1042" d="M356 1313q-30 0 -48.5 18.5t-18.5 48.5t18.5 48t48.5 18t49 -18t19 -48t-19 -48.5t-49 -18.5zM688 1313q-30 0 -48.5 18.5t-18.5 48.5t18.5 48t48.5 18t49 -18t19 -48t-19 -48.5t-49 -18.5zM522 92l400 930h79l-610 -1423h-82l176 403l-444 1020h82z" />
<glyph unicode="&#x152;" horiz-adv-x="1855" d="M999 686v-612h758v-74h-835q-179 0 -328 54t-251 149.5t-158 229t-56 290.5q0 152 53.5 283t152.5 229.5t250.5 154.5t336.5 56h813v-74h-736v-610h639v-76h-639zM211 723q0 -291 191 -469t520 -178v1294q-170 0 -306.5 -49.5t-224 -137t-134 -205t-46.5 -255.5z" />
<glyph unicode="&#x153;" horiz-adv-x="2172" d="M2077 510v-27h-916q8 -191 123 -312.5t320 -121.5q252 0 366 217l68 -33q-60 -119 -170 -186t-264 -67q-186 0 -310.5 89.5t-173.5 241.5q-55 -150 -184 -240.5t-305 -90.5q-155 0 -277.5 71.5t-189 192t-66.5 266.5q0 147 66.5 268t189 192.5t277.5 71.5 q176 0 305 -90.5t184 -242.5q53 152 175 242.5t292 90.5q144 0 257 -71.5t173 -192.5t60 -268zM631 49q201 0 327.5 133t126.5 328q0 128 -55.5 233t-160 167.5t-238.5 62.5q-203 0 -329 -133.5t-126 -329.5q0 -127 55.5 -231.5t160 -167t239.5 -62.5zM1589 973 q-186 0 -300.5 -119t-125.5 -303h838q-12 183 -124 302.5t-288 119.5z" />
<glyph unicode="&#x178;" horiz-adv-x="1189" d="M428 1636q-30 0 -49 19t-19 49t19 49t49 19t49 -19t19 -49t-19 -49t-49 -19zM760 1636q-30 0 -49 19t-19 49t19 49t49 19t48.5 -19t18.5 -49t-18.5 -49t-48.5 -19zM633 0h-78v588l-520 858h90l469 -772l471 772h90l-522 -854v-592z" />
<glyph unicode="&#x2c6;" horiz-adv-x="630" d="M348 1501l238 -287h-80l-191 234l-190 -234h-80l238 287h65z" />
<glyph unicode="&#x2dc;" horiz-adv-x="630" d="M449 1243q-41 0 -80 22t-64 48.5t-58 48.5t-63 22q-41 0 -63.5 -36t-22.5 -101h-65q0 93 39 148t106 55q35 0 66.5 -15t55.5 -36t46.5 -42.5t48 -36.5t51.5 -15q40 0 62 37t22 102h66q0 -93 -39 -147t-108 -54z" />
<glyph unicode="&#x2000;" horiz-adv-x="946" />
<glyph unicode="&#x2001;" horiz-adv-x="1892" />
<glyph unicode="&#x2002;" horiz-adv-x="946" />
<glyph unicode="&#x2003;" horiz-adv-x="1892" />
<glyph unicode="&#x2004;" horiz-adv-x="630" />
<glyph unicode="&#x2005;" horiz-adv-x="473" />
<glyph unicode="&#x2006;" horiz-adv-x="315" />
<glyph unicode="&#x2007;" horiz-adv-x="315" />
<glyph unicode="&#x2008;" horiz-adv-x="236" />
<glyph unicode="&#x2009;" horiz-adv-x="378" />
<glyph unicode="&#x200a;" horiz-adv-x="105" />
<glyph unicode="&#x2010;" horiz-adv-x="835" d="M737 479h-637v70h637v-70z" />
<glyph unicode="&#x2011;" horiz-adv-x="835" d="M737 479h-637v70h637v-70z" />
<glyph unicode="&#x2012;" horiz-adv-x="835" d="M737 479h-637v70h637v-70z" />
<glyph unicode="&#x2013;" horiz-adv-x="1132" d="M1047 479h-961v70h961v-70z" />
<glyph unicode="&#x2014;" horiz-adv-x="1955" d="M1870 479h-1784v70h1784v-70z" />
<glyph unicode="&#x2018;" horiz-adv-x="415" d="M221 1006h-92l107 495h63z" />
<glyph unicode="&#x2019;" horiz-adv-x="415" d="M195 1501h92l-109 -495h-61z" />
<glyph unicode="&#x201a;" horiz-adv-x="415" d="M180 -309h-63l78 495h92z" />
<glyph unicode="&#x201c;" horiz-adv-x="729" d="M215 1501h64l-58 -495h-92zM549 1501h63l-57 -495h-92z" />
<glyph unicode="&#x201d;" horiz-adv-x="729" d="M180 1006h-63l57 495h92zM512 1006h-61l55 495h92z" />
<glyph unicode="&#x201e;" horiz-adv-x="729" d="M180 -309h-63l57 495h92zM512 -309h-61l55 495h92z" />
<glyph unicode="&#x2022;" horiz-adv-x="604" d="M307 340q-76 0 -125 46t-49 126q0 79 49 124.5t125 45.5q75 0 123.5 -45.5t48.5 -124.5t-49 -125.5t-123 -46.5z" />
<glyph unicode="&#x2026;" horiz-adv-x="1245" d="M207 -10q-32 0 -53 19.5t-21 53.5t21 54t53 20q33 0 54.5 -20t21.5 -54t-21.5 -53.5t-54.5 -19.5zM623 -10q-32 0 -53 19.5t-21 53.5t21 54t53 20q33 0 54 -20t21 -54t-21 -53.5t-54 -19.5zM1038 -10q-32 0 -52.5 19.5t-20.5 53.5t20.5 54t52.5 20q33 0 54.5 -20 t21.5 -54t-21.5 -53.5t-54.5 -19.5z" />
<glyph unicode="&#x202f;" horiz-adv-x="378" />
<glyph unicode="&#x2039;" horiz-adv-x="524" d="M434 98l-59 -39l-305 451l305 448l59 -38l-278 -410z" />
<glyph unicode="&#x203a;" horiz-adv-x="524" d="M455 510l-303 -451l-62 39l281 412l-281 410l62 38z" />
<glyph unicode="&#x205f;" horiz-adv-x="473" />
<glyph unicode="&#x20ac;" horiz-adv-x="1423" d="M866 53q136 0 245.5 61.5t162.5 164.5l63 -39q-60 -119 -187.5 -189.5t-283.5 -70.5q-228 0 -384 150.5t-197 410.5h-203v67h194q-6 56 -6 115q0 71 9 135h-197v66h205q46 253 200 397.5t379 144.5q156 0 283.5 -70.5t187.5 -189.5l-63 -39q-53 103 -162.5 164.5 t-245.5 61.5q-189 0 -322 -124t-175 -345h555v-66h-566q-8 -57 -8 -135q0 -59 6 -115h568v-67h-559q41 -229 175 -358.5t326 -129.5z" />
<glyph unicode="&#x2122;" horiz-adv-x="1249" d="M231 1389h-196v57h457v-57h-199v-537h-62v537zM887 1077l209 369h73v-594h-61v502l-205 -357h-37l-194 344v-489h-62v594h68z" />
<glyph unicode="&#x25fc;" horiz-adv-x="1024" d="M0 1024h1024v-1024h-1024v1024z" />
</font>
</defs>
</svg>
