<?xml version="1.0" standalone="no"?>
<!DOCTYPE svg PUBLIC "-//W3C//DTD SVG 1.1//EN" "http://www.w3.org/Graphics/SVG/1.1/DTD/svg11.dtd" >
<svg xmlns="http://www.w3.org/2000/svg" xmlns:xlink="http://www.w3.org/1999/xlink" version="1.1">
<metadata></metadata>
<defs>
<font id="zabal_demosemibold" horiz-adv-x="1259" >
<font-face units-per-em="2048" ascent="1638" descent="-410" />
<missing-glyph horiz-adv-x="468" />
<glyph unicode="&#xfb01;" horiz-adv-x="1277" d="M39 834v194h176v105q0 199 92.5 295t288.5 96q73 0 119 -11l-2 -188q-54 8 -99 8q-49 0 -78 -7t-54 -30t-35.5 -69t-10.5 -121v-78h269v-194h-269v-834h-221v834h-176zM877 1346q0 57 40 95t101 38q60 0 99.5 -38t39.5 -95q0 -59 -39.5 -99.5t-99.5 -40.5 q-61 0 -101 40.5t-40 99.5zM905 0v1028h223v-1028h-223z" />
<glyph unicode="&#xfb02;" horiz-adv-x="1275" d="M39 834v194h176v105q0 199 92.5 295t288.5 96q73 0 119 -11l-2 -188q-54 8 -99 8q-49 0 -78 -7t-54 -30t-35.5 -69t-10.5 -121v-78h269v-194h-269v-834h-221v834h-176zM903 0v1501h223v-1501h-223z" />
<glyph horiz-adv-x="0" />
<glyph horiz-adv-x="682" />
<glyph horiz-adv-x="0" />
<glyph horiz-adv-x="0" />
<glyph unicode="&#xd;" horiz-adv-x="681" />
<glyph unicode=" "  horiz-adv-x="468" />
<glyph unicode="&#x09;" horiz-adv-x="468" />
<glyph unicode="&#xa0;" horiz-adv-x="468" />
<glyph unicode="!" horiz-adv-x="530" d="M113 137q0 63 43 104.5t108 41.5q66 0 110 -41.5t44 -104.5q0 -66 -44 -108.5t-110 -42.5q-65 0 -108 42.5t-43 108.5zM137 1446h256l-41 -1006h-174z" />
<glyph unicode="&#x22;" horiz-adv-x="839" d="M115 870v631h202v-631h-202zM522 870v631h203v-631h-203z" />
<glyph unicode="#" horiz-adv-x="1433" d="M41 360v175h293l78 360h-258v176h297l81 375h191l-82 -375h305l82 375h191l-82 -375h256v-176h-295l-78 -360h262v-175h-301l-78 -360h-190l78 360h-306l-77 -360h-191l78 360h-254zM524 535h305l78 360h-305z" />
<glyph unicode="$" horiz-adv-x="1175" d="M61 279l189 110q70 -165 258 -196v436q-73 17 -127.5 37t-109 53t-89.5 75.5t-56.5 105.5t-21.5 142q0 196 125.5 308t325.5 118v162h143v-172q128 -25 221.5 -94.5t139.5 -173.5l-191 -109q-57 120 -170 162v-430q92 -20 160.5 -48.5t126 -75t87.5 -118t30 -165.5 q0 -196 -119 -305.5t-332 -120.5v-164h-143v166q-166 19 -282 96t-165 201zM340 1049q0 -95 49 -138.5t166 -68.5v420q-100 -8 -157.5 -63t-57.5 -150zM651 186q215 22 215 215q0 85 -48 125.5t-167 71.5v-412z" />
<glyph unicode="%" horiz-adv-x="2086" d="M57 1020q0 214 106 331t279 117q174 0 277.5 -117t103.5 -331q0 -215 -104 -333t-277 -118t-279 117.5t-106 333.5zM260 1020q0 -124 49 -197t133 -73q82 0 130.5 73.5t48.5 196.5t-48.5 195.5t-130.5 72.5q-84 0 -133 -72.5t-49 -195.5zM514 0l846 1446h215l-848 -1446 h-213zM1264 428q0 214 106.5 331.5t278.5 117.5q174 0 277.5 -117.5t103.5 -331.5q0 -215 -104 -333t-277 -118t-279 117.5t-106 333.5zM1466 428q0 -123 49.5 -196.5t133.5 -73.5q82 0 130 73.5t48 196.5t-48 195.5t-130 72.5q-85 0 -134 -72.5t-49 -195.5z" />
<glyph unicode="&#x26;" horiz-adv-x="1423" d="M106 383q0 77 25.5 142t74 115t99.5 86t121 73q-154 177 -154 334q0 150 108.5 242.5t278.5 92.5q165 0 273 -95t108 -238q0 -69 -24 -126.5t-71 -102.5t-95.5 -77t-118.5 -67l313 -328q79 146 82 342h220q-15 -286 -158 -493l166 -174l-146 -138l-153 164 q-191 -158 -447 -158q-141 0 -253.5 46.5t-180.5 140t-68 219.5zM334 401q0 -111 82.5 -170t210.5 -59q167 0 293 104l-371 394q-104 -58 -159.5 -120t-55.5 -149zM489 1118q0 -53 29 -105.5t92 -121.5q110 55 167 107.5t57 123.5q0 69 -48 113.5t-122 44.5 q-75 0 -125 -46.5t-50 -115.5z" />
<glyph unicode="'" horiz-adv-x="434" d="M115 870v631h202v-631h-202z" />
<glyph unicode="(" horiz-adv-x="743" d="M98 578q0 306 140.5 542.5t386.5 366.5l100 -172q-187 -100 -293 -294t-106 -443q0 -252 106 -447.5t293 -294.5l-100 -172q-246 132 -386.5 369t-140.5 545z" />
<glyph unicode=")" horiz-adv-x="743" d="M18 -164q187 99 293.5 294.5t106.5 447.5q0 249 -106.5 442.5t-293.5 294.5l101 172q246 -130 386 -366t140 -543q0 -308 -140 -545t-386 -369z" />
<glyph unicode="*" horiz-adv-x="929" d="M63 979l302 121l-302 123l93 157l260 -196l-43 317h184l-43 -317l260 196l92 -159l-301 -121l301 -123l-92 -158l-258 197l41 -316h-184l41 316l-258 -197z" />
<glyph unicode="+" horiz-adv-x="1150" d="M94 543v200h377v390h207v-390h377v-200h-377v-389h-207v389h-377z" />
<glyph unicode="," horiz-adv-x="530" d="M106 -299l66 631h252l-145 -631h-173z" />
<glyph unicode="-" horiz-adv-x="948" d="M113 414v200h723v-200h-723z" />
<glyph unicode="." horiz-adv-x="530" d="M113 137q0 63 43 104.5t108 41.5q66 0 110 -41.5t44 -104.5q0 -66 -44 -108.5t-110 -42.5q-65 0 -108 42.5t-43 108.5z" />
<glyph unicode="/" horiz-adv-x="733" d="M-57 -258l567 1759h215l-567 -1759h-215z" />
<glyph unicode="0" horiz-adv-x="1468" d="M102 723q0 178 47 320t131.5 234.5t200 141.5t254.5 49q286 0 458.5 -195t172.5 -550q0 -173 -47 -314t-130.5 -235.5t-199.5 -145.5t-254 -51t-254.5 51t-200.5 145t-131 235.5t-47 314.5zM338 723q0 -250 108.5 -391.5t288.5 -141.5q181 0 288 141.5t107 391.5 q0 260 -106 396t-289 136q-182 0 -289.5 -136.5t-107.5 -395.5z" />
<glyph unicode="1" horiz-adv-x="831" d="M41 1208l563 252h64v-1460h-228v1174l-329 -152z" />
<glyph unicode="2" horiz-adv-x="1214" d="M66 1182q49 128 185 207t329 79q230 0 358.5 -110t128.5 -293q0 -61 -12 -117.5t-30.5 -104t-55.5 -101t-70.5 -94.5t-92 -97.5t-105 -98t-123.5 -108.5l-158 -135h688v-209h-1020v172l242 219q227 206 286 266q163 164 202 283q16 49 16 98q0 98 -70 160t-195 62 q-247 0 -321 -201z" />
<glyph unicode="3" horiz-adv-x="1220" d="M51 266l189 123q43 -98 132.5 -151.5t211.5 -53.5q142 0 225.5 72t83.5 195q0 124 -91.5 193t-246.5 69q-95 0 -170 -33l-98 137l438 420h-565v209h905v-164l-455 -395h6q241 0 375.5 -114t134.5 -327q0 -224 -145.5 -346.5t-392.5 -122.5q-199 0 -337.5 76t-199.5 213z " />
<glyph unicode="4" horiz-adv-x="1280" d="M78 291v164l444 991h250l-432 -957h461v377h217v-377h203v-198h-203v-291h-217v291h-723z" />
<glyph unicode="5" horiz-adv-x="1224" d="M51 266l187 123q45 -99 134 -152t214 -53q142 0 226.5 75t84.5 206q0 135 -88 205.5t-244 70.5q-87 0 -156 -24.5t-155 -87.5l-125 30l68 787h878v-209h-676l-32 -352q109 53 258 53q235 0 370 -122.5t135 -354.5q0 -234 -145 -359t-389 -125q-204 0 -345 76t-200 213z " />
<glyph unicode="6" horiz-adv-x="1325" d="M113 508q0 129 40 252t120.5 244t179.5 231.5t239 241.5l232 -82q-104 -100 -137 -132.5t-103 -104t-114 -124t-87 -110.5q114 57 248 57q223 0 361.5 -138.5t138.5 -355.5q0 -221 -154.5 -365.5t-402.5 -144.5q-253 0 -407 149t-154 382zM344 479q0 -119 90.5 -206 t235.5 -87q146 0 236.5 89t90.5 217q0 130 -90.5 214.5t-232.5 84.5q-148 0 -239 -91t-91 -221z" />
<glyph unicode="7" horiz-adv-x="1128" d="M86 1237v209h983v-164l-620 -1282h-252l602 1237h-713z" />
<glyph unicode="8" horiz-adv-x="1273" d="M86 406q0 124 65.5 218t182.5 146q-95 48 -147 128t-52 183q0 177 134.5 281t367.5 104q232 0 366 -103.5t134 -281.5q0 -103 -51 -183t-146 -128q119 -52 184.5 -146t65.5 -218q0 -198 -147 -312t-406 -114q-258 0 -404.5 114t-146.5 312zM317 424q0 -109 85.5 -172.5 t234.5 -63.5t234 64t85 172q0 111 -85 175.5t-234 64.5q-151 0 -235.5 -64.5t-84.5 -175.5zM362 1061q0 -92 73 -145.5t200 -53.5q128 0 202 53.5t74 145.5t-74 147.5t-200 55.5t-200.5 -55.5t-74.5 -147.5z" />
<glyph unicode="9" horiz-adv-x="1325" d="M94 958q0 221 154.5 365.5t402.5 144.5q254 0 407.5 -148.5t153.5 -381.5q0 -129 -40 -252t-120.5 -244t-179.5 -231.5t-239 -241.5l-232 82q104 100 137 132.5t103 104t114 124t87 110.5q-114 -57 -248 -57q-223 0 -361.5 138t-138.5 355zM326 954q0 -130 90.5 -214.5 t232.5 -84.5q149 0 240.5 91t91.5 221q0 119 -91 206t-235 87q-146 0 -237.5 -89t-91.5 -217z" />
<glyph unicode=":" horiz-adv-x="530" d="M113 137q0 63 43 104.5t108 41.5q66 0 110 -41.5t44 -104.5q0 -66 -44 -108.5t-110 -42.5q-65 0 -108 42.5t-43 108.5zM113 899q0 63 43 104t108 41q66 0 110 -41t44 -104q0 -66 -44 -108.5t-110 -42.5q-65 0 -108 42.5t-43 108.5z" />
<glyph unicode=";" horiz-adv-x="542" d="M109 -299l65 631h252l-143 -631h-174zM113 899q0 63 43.5 104t109.5 41t109 -41t43 -104q0 -66 -43 -108.5t-109 -42.5t-109.5 42.5t-43.5 108.5z" />
<glyph unicode="&#x3c;" horiz-adv-x="1038" d="M76 545v196l868 387v-221l-606 -264l606 -264v-221z" />
<glyph unicode="=" horiz-adv-x="1101" d="M94 285v200h914v-200h-914zM94 799v200h914v-200h-914z" />
<glyph unicode="&#x3e;" horiz-adv-x="1038" d="M94 158v221l606 264l-606 264v221l869 -387v-196z" />
<glyph unicode="?" horiz-adv-x="1032" d="M29 1159q51 146 177 225.5t290 79.5q123 0 225 -43.5t165.5 -131.5t63.5 -206q0 -64 -20 -122.5t-51.5 -104t-70 -88t-77.5 -81.5t-71 -77t-52.5 -82.5t-21.5 -89.5h-193q0 70 24 134.5t59.5 110t77.5 93.5t77.5 88t59.5 91t24 104q0 89 -65 145t-169 56 q-90 0 -159.5 -50t-100.5 -139zM348 137q0 63 43 104.5t109 41.5t109.5 -41.5t43.5 -104.5q0 -66 -43.5 -108.5t-109.5 -42.5t-109 42.5t-43 108.5z" />
<glyph unicode="@" horiz-adv-x="1734" d="M78 524q0 228 102.5 407.5t285.5 279.5t415 100q173 0 319 -57.5t246 -158.5t155.5 -240.5t55.5 -301.5q0 -204 -98.5 -325.5t-258.5 -121.5q-115 0 -188 56.5t-94 154.5q-67 -104 -195 -104q-120 0 -204 91t-84 233q0 141 81 231t195 90q115 0 178 -92v78h191v-395 q0 -179 116 -179q164 0 164 279q0 252 -158.5 412.5t-420.5 160.5q-171 0 -308.5 -74t-217 -211t-79.5 -313q0 -174 84.5 -311.5t227 -212t315.5 -74.5q190 0 314 70l67 -176q-71 -36 -173.5 -57t-205.5 -21q-237 0 -425.5 99.5t-295 278.5t-106.5 404zM727 537 q0 -70 35.5 -113t101.5 -43q61 0 97 42.5t36 113.5q0 70 -36 112.5t-97 42.5q-65 0 -101 -42.5t-36 -112.5z" />
<glyph unicode="A" horiz-adv-x="1347" d="M14 0l527 1446h268l526 -1446h-248l-116 330h-592l-117 -330h-248zM453 543h444l-223 649z" />
<glyph unicode="B" horiz-adv-x="1263" d="M166 0v1446h510q236 0 347.5 -97.5t111.5 -265.5q0 -126 -64.5 -214t-185.5 -128q147 -31 221 -117t74 -233q0 -85 -24.5 -152.5t-79 -123t-152 -85.5t-232.5 -30h-526zM399 209h250q159 0 224 48t65 159q0 115 -70.5 161t-218.5 46h-250v-414zM399 827h228 q129 0 197.5 48t68.5 165q0 106 -59 151.5t-207 45.5h-228v-410z" />
<glyph unicode="C" horiz-adv-x="1550" d="M104 723q0 162 57 301.5t156 236.5t236 152t293 55q217 0 386 -99.5t241 -270.5l-216 -109q-44 122 -155.5 192t-255.5 70q-214 0 -357 -148.5t-143 -379.5q0 -233 143.5 -380.5t366.5 -147.5q154 0 269 74t163 216l215 -100q-76 -198 -247 -303t-396 -105 q-162 0 -302 55t-240 152.5t-157 237t-57 301.5z" />
<glyph unicode="D" horiz-adv-x="1472" d="M166 0v1446h471q176 0 315.5 -53t230 -149t138 -228t47.5 -293q0 -160 -45.5 -292t-133.5 -228.5t-226 -149.5t-314 -53h-483zM399 215h252q123 0 215.5 37.5t148.5 106.5t83.5 160t27.5 204q0 233 -121.5 370.5t-365.5 137.5h-240v-1016z" />
<glyph unicode="E" horiz-adv-x="1159" d="M166 0v1446h881v-215h-648v-402h562v-211h-562v-403h664v-215h-897z" />
<glyph unicode="F" horiz-adv-x="1095" d="M166 0v1446h856v-217h-623v-404h555v-217h-555v-608h-233z" />
<glyph unicode="G" horiz-adv-x="1642" d="M104 723q0 162 57 301.5t156 236.5t236 152t293 55q215 0 383.5 -98.5t243.5 -267.5l-218 -107q-44 120 -155 188t-254 68q-214 0 -357 -148.5t-143 -379.5q0 -234 143 -381t377 -147q192 0 308 101t151 275h-483v207h727v-49q0 -346 -187 -549t-516 -203 q-221 0 -394.5 94t-270.5 264.5t-97 387.5z" />
<glyph unicode="H" horiz-adv-x="1468" d="M166 0v1446h233v-615h668v615h236v-1446h-236v616h-668v-616h-233z" />
<glyph unicode="I" horiz-adv-x="585" d="M174 0v1446h238v-1446h-238z" />
<glyph unicode="J" horiz-adv-x="1105" d="M49 279l189 116q39 -101 106.5 -150.5t171.5 -49.5q127 0 174 78t47 245v928h236v-920q0 -130 -21 -226t-70 -171t-136.5 -113.5t-213.5 -38.5q-185 0 -306 80t-177 222z" />
<glyph unicode="K" horiz-adv-x="1331" d="M166 0v1446h233v-658l555 658h297l-577 -686l633 -760h-303l-605 719v-719h-233z" />
<glyph unicode="L" horiz-adv-x="1105" d="M166 0v1446h233v-1229h648v-217h-881z" />
<glyph unicode="M" horiz-adv-x="1798" d="M166 0v1446h254l481 -944l477 944h256v-1446h-233v1001l-420 -813h-164l-418 813v-1001h-233z" />
<glyph unicode="N" horiz-adv-x="1484" d="M166 0v1446h221l700 -1022v1022h234v-1446h-223l-699 1022v-1022h-233z" />
<glyph unicode="O" horiz-adv-x="1712" d="M104 723q0 216 99.5 387t270.5 264.5t382 93.5t382 -93.5t270.5 -264.5t99.5 -387t-99.5 -387t-270.5 -265t-382 -94t-382 94t-270.5 265t-99.5 387zM346 723q0 -231 145.5 -379.5t364.5 -148.5t363.5 148.5t144.5 379.5t-144.5 379.5t-363.5 148.5t-364.5 -148.5 t-145.5 -379.5z" />
<glyph unicode="P" horiz-adv-x="1234" d="M166 0v1446h528q463 0 463 -438q0 -223 -123 -341t-350 -118h-285v-549h-233zM399 760h246q140 0 205 53t65 191q0 128 -58.5 178.5t-209.5 50.5h-248v-473z" />
<glyph unicode="Q" horiz-adv-x="1712" d="M104 723q0 216 99.5 387t270.5 264.5t382 93.5t382 -93.5t270.5 -264.5t99.5 -387q0 -265 -148 -459l144 -192l-172 -125l-123 170q-199 -140 -453 -140q-211 0 -382 94t-270.5 265t-99.5 387zM346 723q0 -231 145.5 -379.5t364.5 -148.5q169 0 297 92l-268 358l170 123 l237 -328q72 128 72 283q0 231 -144.5 379.5t-363.5 148.5t-364.5 -148.5t-145.5 -379.5z" />
<glyph unicode="R" horiz-adv-x="1314" d="M166 0v1446h510q240 0 351.5 -112.5t111.5 -313.5q0 -166 -76 -268.5t-217 -133.5l448 -618h-286l-414 573h-195v-573h-233zM399 778h228q65 0 111 9.5t84 34.5t56.5 72.5t18.5 117.5q0 128 -61.5 174.5t-206.5 46.5h-230v-455z" />
<glyph unicode="S" horiz-adv-x="1175" d="M61 276l193 117q86 -203 344 -203q126 0 194 53t68 158q0 50 -15.5 83.5t-55 57t-88.5 38t-136 32.5q-84 18 -143.5 36.5t-123.5 52t-103.5 77t-65 111t-25.5 153.5q0 200 132 313t339 113q173 0 300.5 -74.5t185.5 -203.5l-197 -115q-85 180 -282 180q-109 0 -172.5 -54 t-63.5 -154q0 -39 7.5 -68.5t27 -51.5t41 -36.5t62.5 -27.5t77 -21t98 -19q80 -15 142 -35t120.5 -53t96.5 -76t61 -107t23 -144q0 -208 -131.5 -319.5t-366.5 -111.5q-202 0 -344.5 79t-198.5 220z" />
<glyph unicode="T" horiz-adv-x="1208" d="M59 1229v217h1090v-217h-428v-1229h-234v1229h-428z" />
<glyph unicode="U" horiz-adv-x="1413" d="M133 588v858h236v-848q0 -203 76.5 -303t261.5 -100t262.5 100t77.5 303v848h233v-858q0 -611 -573 -611q-574 0 -574 611z" />
<glyph unicode="V" horiz-adv-x="1300" d="M14 1446h252l385 -1170l383 1170h252l-500 -1446h-270z" />
<glyph unicode="W" horiz-adv-x="1970" d="M14 1446h248l285 -1141l321 1141h232l323 -1141l285 1141h248l-397 -1446h-248l-326 1079l-326 -1079h-247z" />
<glyph unicode="X" horiz-adv-x="1306" d="M25 0l473 752l-435 694h277l313 -520l314 520h276l-434 -692l471 -754h-274l-355 578l-350 -578h-276z" />
<glyph unicode="Y" horiz-adv-x="1249" d="M6 1446h273l346 -658l346 658h272l-504 -901v-545h-233v547z" />
<glyph unicode="Z" horiz-adv-x="1173" d="M76 0v180l706 1049h-682v217h990v-178l-707 -1051h747v-217h-1054z" />
<glyph unicode="[" horiz-adv-x="696" d="M160 -313v1769h497v-196h-278v-1377h278v-196h-497z" />
<glyph unicode="\" horiz-adv-x="733" d="M8 1501h215l568 -1759h-216z" />
<glyph unicode="]" horiz-adv-x="696" d="M37 -117h278v1377h-278v196h498v-1769h-498v196z" />
<glyph unicode="^" horiz-adv-x="1126" d="M98 758l389 688h152l391 -688h-233l-234 422l-231 -422h-234z" />
<glyph unicode="_" horiz-adv-x="925" d="M-20 -94h966v-203h-966v203z" />
<glyph unicode="`" horiz-adv-x="724" d="M160 1501h246l157 -327h-192z" />
<glyph unicode="a" d="M78 514q0 238 133.5 387.5t347.5 149.5q120 0 208.5 -49.5t139.5 -139.5v166h221v-1028h-221v166q-52 -88 -141 -138.5t-209 -50.5q-211 0 -345 150t-134 387zM303 514q0 -149 85 -242.5t220 -93.5q131 0 216 93t85 243q0 151 -85 244.5t-216 93.5q-135 0 -220 -94.5 t-85 -243.5z" />
<glyph unicode="b" horiz-adv-x="1267" d="M139 0v1501h221v-639q51 90 139.5 139.5t207.5 49.5q215 0 349 -149.5t134 -387.5t-134.5 -387.5t-346.5 -149.5q-119 0 -208.5 50.5t-140.5 138.5v-166h-221zM358 514q0 -151 84.5 -243.5t216.5 -92.5q134 0 220 93.5t86 242.5t-86 243.5t-220 94.5q-132 0 -216.5 -93.5 t-84.5 -244.5z" />
<glyph unicode="c" horiz-adv-x="1114" d="M78 514q0 156 70.5 279t193.5 190.5t274 67.5q153 0 273 -68t180 -190l-195 -101q-38 75 -106 117.5t-152 42.5q-135 0 -224 -94.5t-89 -243.5q0 -148 89.5 -242t225.5 -94q91 0 162 43t109 131l196 -94q-61 -141 -184 -211t-280 -70q-153 0 -277 67.5t-195 190.5 t-71 279z" />
<glyph unicode="d" d="M78 514q0 238 133.5 387.5t347.5 149.5q120 0 208.5 -49.5t139.5 -139.5v639h221v-1501h-221v166q-52 -88 -141 -138.5t-209 -50.5q-211 0 -345 150t-134 387zM303 514q0 -149 85 -242.5t220 -93.5q131 0 216 93t85 243q0 151 -85 244.5t-216 93.5q-135 0 -220 -94.5 t-85 -243.5z" />
<glyph unicode="e" horiz-adv-x="1193" d="M78 514q0 236 150 386.5t382 150.5q229 0 370.5 -148t141.5 -389q0 -1 -6 -82h-811q19 -119 106 -189.5t226 -70.5q188 0 278 137l185 -100q-64 -114 -188.5 -173t-278.5 -59q-252 0 -403.5 149t-151.5 388zM305 604h600q-20 120 -97 189t-194 69q-120 0 -203.5 -70.5 t-105.5 -187.5z" />
<glyph unicode="f" horiz-adv-x="753" d="M39 834v194h176v105q0 199 92.5 295t288.5 96q73 0 119 -11l-2 -188q-54 8 -99 8q-49 0 -78 -7t-54 -30t-35.5 -69t-10.5 -121v-78h269v-194h-269v-834h-221v834h-176z" />
<glyph unicode="g" d="M78 528q0 231 134 377t347 146q120 0 209 -47.5t139 -133.5v158h221v-938q0 -243 -137.5 -378.5t-380.5 -135.5q-341 0 -471 240l195 92q43 -72 107.5 -105.5t162.5 -33.5q149 0 226 75.5t77 223.5v116q-51 -85 -140 -133.5t-210 -48.5q-211 0 -345 147t-134 379z M303 526q0 -145 85 -236t220 -91q131 0 216 90.5t85 236.5t-85 236t-216 90q-135 0 -220 -90.5t-85 -235.5z" />
<glyph unicode="h" horiz-adv-x="1206" d="M139 0v1501h221v-633q51 91 141 137t201 46q186 0 284.5 -111t98.5 -328v-612h-219v575q0 144 -56.5 211.5t-172.5 67.5q-124 0 -200.5 -88t-76.5 -221v-545h-221z" />
<glyph unicode="i" horiz-adv-x="524" d="M123 1346q0 57 40 95t101 38q60 0 99.5 -38t39.5 -95q0 -59 -39.5 -99.5t-99.5 -40.5q-61 0 -101 40.5t-40 99.5zM152 0v1028h223v-1028h-223z" />
<glyph unicode="j" horiz-adv-x="524" d="M-96 -414l2 191q62 -8 98 -8q79 0 113.5 42t34.5 160v1057h223v-1079q0 -180 -86 -276.5t-258 -96.5q-75 0 -127 10zM123 1346q0 57 40 95t101 38q60 0 99.5 -38t39.5 -95q0 -59 -39.5 -99.5t-99.5 -40.5q-61 0 -101 40.5t-40 99.5z" />
<glyph unicode="k" horiz-adv-x="1103" d="M139 0v1501h221v-930l414 457h277l-453 -483l494 -545h-279l-453 508v-508h-221z" />
<glyph unicode="l" horiz-adv-x="522" d="M150 0v1501h223v-1501h-223z" />
<glyph unicode="m" horiz-adv-x="1806" d="M139 0v1028h219v-162q48 92 130 138.5t184 46.5q224 0 305 -193q129 193 350 193q176 0 267.5 -111t91.5 -328v-612h-222v575q0 143 -48.5 211t-151.5 68q-106 0 -174 -83.5t-68 -195.5v-575h-219v575q0 142 -49.5 210.5t-151.5 68.5q-108 0 -175 -88t-67 -221v-545h-221 z" />
<glyph unicode="n" horiz-adv-x="1196" d="M139 0v1028h219v-162q51 92 140 138.5t200 46.5q182 0 279.5 -111.5t97.5 -327.5v-612h-219v575q0 143 -55.5 211t-169.5 68q-122 0 -196.5 -88t-74.5 -221v-545h-221z" />
<glyph unicode="o" horiz-adv-x="1245" d="M78 514q0 155 72 278.5t196.5 191t276.5 67.5q233 0 388.5 -151t155.5 -386t-155.5 -386t-388.5 -151q-152 0 -276.5 67.5t-196.5 191t-72 278.5zM303 514q0 -148 91 -242t229 -94t229.5 94t91.5 242t-91.5 243t-229.5 95t-229 -95t-91 -243z" />
<glyph unicode="p" horiz-adv-x="1267" d="M139 -401v1429h221v-166q51 90 139.5 139.5t207.5 49.5q215 0 349 -149.5t134 -387.5t-134.5 -387.5t-346.5 -149.5q-119 0 -208.5 50.5t-140.5 138.5v-567h-221zM358 514q0 -151 84.5 -243.5t216.5 -92.5q134 0 220 93.5t86 242.5t-86 243.5t-220 94.5 q-132 0 -216.5 -93.5t-84.5 -244.5z" />
<glyph unicode="q" d="M78 514q0 238 133.5 387.5t347.5 149.5q120 0 208.5 -49.5t139.5 -139.5v166h221v-1429h-221v567q-52 -88 -141 -138.5t-209 -50.5q-211 0 -345 150t-134 387zM303 514q0 -149 85 -242.5t220 -93.5q131 0 216 93t85 243q0 151 -85 244.5t-216 93.5q-135 0 -220 -94.5 t-85 -243.5z" />
<glyph unicode="r" horiz-adv-x="780" d="M139 0v1028h219v-182q50 103 137 154t199 51q31 0 45 -2l-2 -230q-49 6 -94 6q-129 0 -206 -96t-77 -244v-485h-221z" />
<glyph unicode="s" horiz-adv-x="974" d="M51 231l182 95q87 -162 283 -162q93 0 135.5 31t42.5 100q0 55 -47 84.5t-182 52.5q-178 32 -271.5 100.5t-93.5 200.5q0 157 111.5 237.5t282.5 80.5q145 0 249 -53.5t156 -149.5l-182 -100q-34 58 -84 86t-133 28q-85 0 -133 -30t-48 -91q0 -50 51 -78t169 -49 q96 -16 160.5 -36t117 -55t77 -88.5t24.5 -129.5q0 -162 -103 -245t-303 -83q-172 0 -290.5 67.5t-170.5 186.5z" />
<glyph unicode="t" horiz-adv-x="774" d="M39 834v194h178v270h221v-270h271v-194h-271v-488q0 -92 30.5 -130t106.5 -38q71 0 134 23l2 -193q-24 -11 -76.5 -18.5t-99.5 -7.5q-91 0 -154.5 25t-98.5 73t-50 105.5t-15 133.5v515h-178z" />
<glyph unicode="u" horiz-adv-x="1177" d="M113 424v604h221v-567q0 -285 229 -285q124 0 193 87t69 222v543h219v-1028h-219v162q-102 -185 -329 -185q-184 0 -283.5 114.5t-99.5 332.5z" />
<glyph unicode="v" horiz-adv-x="1095" d="M25 1028h245l283 -795l274 795h244l-393 -1028h-244z" />
<glyph unicode="w" horiz-adv-x="1554" d="M25 1028h233l186 -762l230 762h207l231 -764l184 764h234l-297 -1028h-225l-230 731l-231 -731h-225z" />
<glyph unicode="x" horiz-adv-x="1077" d="M16 0l367 535l-354 493h266l242 -360l237 360h266l-352 -496l373 -532h-264l-262 387l-254 -387h-265z" />
<glyph unicode="y" horiz-adv-x="1095" d="M27 1028h245l283 -786l272 786h244l-541 -1429h-237l160 395z" />
<glyph unicode="z" horiz-adv-x="993" d="M90 0v143l504 691h-500v194h797v-141l-504 -690h539v-197h-836z" />
<glyph unicode="{" horiz-adv-x="770" d="M12 479v183h37q78 0 118 44.5t40 124.5v314q0 144 81.5 227.5t229.5 83.5h215v-196h-168q-63 0 -100 -40t-37 -106v-276q0 -213 -186 -269q186 -56 186 -268v-272q0 -66 37 -106t100 -40h168v-196h-215q-148 0 -229.5 83.5t-81.5 229.5v307q0 80 -40 126t-118 46h-37z " />
<glyph unicode="|" horiz-adv-x="567" d="M180 -401v2048h209v-2048h-209z" />
<glyph unicode="}" horiz-adv-x="770" d="M37 -117h168q63 0 100 40t37 106v272q0 212 186 268q-186 56 -186 269v276q0 66 -37 106t-100 40h-168v196h215q147 0 228 -83.5t81 -227.5v-314q0 -79 41 -124t119 -45h37v-183h-37q-78 0 -119 -46t-41 -126v-307q0 -146 -80.5 -229.5t-228.5 -83.5h-215v196z" />
<glyph unicode="~" horiz-adv-x="1212" d="M113 547q27 129 109.5 198.5t199.5 69.5q53 0 109 -21t95.5 -45.5t87 -45.5t85.5 -21q39 0 68.5 10t50 31t32.5 40t27 50l123 -74q-29 -129 -111.5 -197.5t-200.5 -68.5q-53 0 -108.5 21t-94.5 45.5t-86 45.5t-85 21q-71 0 -110.5 -34t-70.5 -99z" />
<glyph unicode="&#xa1;" horiz-adv-x="530" d="M113 907q0 66 43 109t108 43q66 0 110 -43t44 -109q0 -63 -44 -104t-110 -41q-65 0 -108 41t-43 104zM137 -401l41 1005h174l41 -1005h-256z" />
<glyph unicode="&#xa2;" horiz-adv-x="1112" d="M78 725q0 156 70.5 279.5t193 191.5t272.5 68q48 0 95 -9l61 191h141l-73 -227q155 -67 229 -215l-190 -95q-38 74 -103 115l-209 -637q32 -4 53 -4q92 0 163.5 43.5t109.5 132.5l192 -90q-60 -140 -184.5 -210.5t-280.5 -70.5q-46 0 -114 11l-64 -195h-141l78 236 q-138 64 -218.5 191.5t-80.5 293.5zM295 725q0 -95 38.5 -170.5t106.5 -120.5l207 633q-10 2 -31 2q-138 0 -229.5 -96.5t-91.5 -247.5z" />
<glyph unicode="&#xa3;" horiz-adv-x="1224" d="M74 0v211h178v377h-160v192h160v152q0 249 124.5 392.5t342.5 143.5q157 0 270.5 -74t165.5 -204l-174 -119q-33 89 -90.5 134.5t-155.5 45.5q-132 0 -192 -82t-60 -237v-152h449v-192h-449v-377h682v-211h-1091z" />
<glyph unicode="&#xa4;" horiz-adv-x="1169" d="M63 328l140 139q-74 113 -74 254q0 145 76 254l-142 141l127 125l144 -141q111 65 248 65q143 0 252 -67l145 143l125 -125l-141 -141q73 -112 73 -254t-71 -252l139 -141l-125 -125l-141 141q-112 -70 -256 -70q-138 0 -252 68l-140 -139zM334 721q0 -110 68 -183 t180 -73q115 0 182 72.5t67 183.5t-67 183.5t-182 72.5q-112 0 -180 -73t-68 -183z" />
<glyph unicode="&#xa5;" horiz-adv-x="1249" d="M6 1446h273l346 -658l346 658h272l-387 -692h223v-154h-309l-31 -55v-111h340v-153h-340v-281h-233v281h-336v153h336v113l-29 53h-307v154h221z" />
<glyph unicode="&#xa6;" horiz-adv-x="567" d="M180 -401v819h209v-819h-209zM180 827v820h209v-820h-209z" />
<glyph unicode="&#xa7;" horiz-adv-x="1120" d="M102 -25l191 105q77 -162 274 -162q101 0 160 43t59 117t-60.5 111.5t-197.5 70.5q-57 14 -99.5 27.5t-89 33.5t-79 45.5t-59.5 59t-40.5 78.5t-13.5 100q0 92 40.5 166.5t115.5 118.5q-156 95 -156 278q0 160 108.5 258.5t295.5 98.5q156 0 270.5 -65t149.5 -165 l-185 -100q-77 135 -225 135q-86 0 -138 -44t-52 -118q0 -33 12.5 -58.5t31.5 -43t55.5 -32.5t70 -24.5t90.5 -23.5q69 -16 120.5 -33t101.5 -44.5t81.5 -62t50.5 -85.5t19 -115q0 -193 -164 -278q170 -90 170 -283q0 -167 -115 -265t-317 -98q-180 0 -302.5 68.5 t-173.5 185.5zM350 639q0 -88 58.5 -129t220.5 -76q83 13 125.5 58.5t42.5 115.5q0 81 -57.5 126.5t-215.5 76.5q-8 1 -21 4t-18 4q-61 -19 -98 -69t-37 -111z" />
<glyph unicode="&#xa8;" horiz-adv-x="724" d="M29 1346q0 54 38.5 91.5t96.5 37.5t96.5 -37.5t38.5 -91.5q0 -57 -38.5 -95.5t-96.5 -38.5t-96.5 38.5t-38.5 95.5zM426 1346q0 54 39 91.5t96 37.5t96 -37.5t39 -91.5q0 -56 -39 -95t-96 -39t-96 39t-39 95z" />
<glyph unicode="&#xa9;" horiz-adv-x="1708" d="M104 723q0 213 96.5 383.5t268 266t385.5 95.5t385.5 -95.5t268 -266t96.5 -383.5t-96.5 -383.5t-268 -266.5t-385.5 -96t-385.5 96t-268 266.5t-96.5 383.5zM254 723q0 -261 169.5 -430.5t430.5 -169.5q171 0 307.5 77t213.5 214t77 309t-77 309t-213.5 214t-307.5 77 q-261 0 -430.5 -169.5t-169.5 -430.5zM467 719q0 177 113.5 288t285.5 111q117 0 209 -51.5t135 -140.5l-168 -88q-26 48 -71 77t-101 29q-90 0 -149 -63t-59 -162t59.5 -162t150.5 -63q128 0 181 120l168 -86q-43 -105 -136.5 -157t-214.5 -52q-176 0 -289.5 111.5 t-113.5 288.5z" />
<glyph unicode="&#xaa;" horiz-adv-x="872" d="M61 1112q0 151 94 248.5t236 97.5q138 0 219 -98v86h178v-670h-178v88q-84 -100 -219 -100q-143 0 -236.5 98.5t-93.5 249.5zM250 1112q0 -84 50 -137t134 -53q81 0 130.5 52.5t49.5 137.5t-49.5 138t-130.5 53q-84 0 -134 -52.5t-50 -138.5z" />
<glyph unicode="&#xab;" horiz-adv-x="1128" d="M49 508l332 485l166 -114l-254 -371l254 -369l-166 -114zM561 508l330 485l166 -114l-252 -371l252 -369l-166 -114z" />
<glyph unicode="&#xac;" horiz-adv-x="1105" d="M94 692v201h918v-510h-219v309h-699z" />
<glyph unicode="&#xad;" horiz-adv-x="948" d="M113 414v200h723v-200h-723z" />
<glyph unicode="&#xae;" horiz-adv-x="1046" d="M72 1022q0 195 125.5 320.5t326.5 125.5t326 -125.5t125 -320.5q0 -196 -125.5 -321.5t-325.5 -125.5q-201 0 -326.5 125.5t-125.5 321.5zM145 1022q0 -164 105.5 -270.5t273.5 -106.5q166 0 271.5 106.5t105.5 270.5q0 163 -105 270t-272 107t-273 -107t-106 -270z M344 791v469h213q77 0 116.5 -38.5t39.5 -103.5q0 -97 -86 -123l123 -204h-132l-96 172h-69v-172h-109zM451 1042h73q35 0 55.5 17.5t20.5 50.5q0 31 -20 47.5t-54 16.5h-75v-132z" />
<glyph unicode="&#xaf;" horiz-adv-x="724" d="M78 1249v174h571v-174h-571z" />
<glyph unicode="&#xb0;" horiz-adv-x="897" d="M72 1161q0 157 107.5 260t271.5 103q162 0 268 -103t106 -260q0 -155 -105.5 -256.5t-268.5 -101.5q-165 0 -272 101t-107 257zM262 1163q0 -79 52.5 -131.5t136.5 -52.5q82 0 133 52t51 130q0 80 -51 133.5t-133 53.5q-84 0 -136.5 -53t-52.5 -132z" />
<glyph unicode="&#xb1;" horiz-adv-x="1150" d="M94 0v203h961v-203h-961zM94 741v203h377v383h207v-383h377v-203h-377v-383h-207v383h-377z" />
<glyph unicode="&#xb2;" horiz-adv-x="749" d="M31 1485q35 72 123 119t206 47q142 0 225 -68t83 -190q0 -100 -54 -175.5t-186 -185.5l-96 -80h358v-178h-639v135l180 160q88 77 129.5 117t74 90.5t32.5 95.5q0 98 -121 98q-117 0 -168 -96z" />
<glyph unicode="&#xb3;" horiz-adv-x="755" d="M29 899l127 125q27 -43 79.5 -69.5t116.5 -26.5q65 0 104.5 34t39.5 93q0 63 -40 99t-108 36q-63 0 -94 -16l-61 81l217 203h-328v170h575v-139l-196 -186q107 -17 171 -90.5t64 -180.5q0 -134 -91 -207t-236 -73q-124 0 -210 40.5t-130 106.5z" />
<glyph unicode="&#xb4;" horiz-adv-x="724" d="M160 1174l157 327h246l-211 -327h-192z" />
<glyph unicode="&#xb5;" horiz-adv-x="1163" d="M100 -401v1429h219v-567q0 -285 230 -285q124 0 193 87t69 222v543h221v-1028h-215v166q-91 -186 -291 -186q-131 0 -207 73v-454h-219z" />
<glyph unicode="&#xb6;" horiz-adv-x="987" d="M78 1049q0 182 125.5 289.5t337.5 107.5h272v-1847h-225v1032h-37q-218 0 -345.5 113t-127.5 305z" />
<glyph unicode="&#xb7;" horiz-adv-x="530" d="M113 516q0 64 43 105t108 41q66 0 110 -41t44 -105t-44 -106.5t-110 -42.5q-65 0 -108 42.5t-43 106.5z" />
<glyph unicode="&#xb8;" horiz-adv-x="724" d="M133 -305q114 -29 174 -29q90 0 90 68q0 35 -30.5 53t-108.5 18h-35v213h162v-116q95 -12 152 -61t57 -126q0 -97 -69 -150.5t-201 -53.5q-96 0 -191 28v156z" />
<glyph unicode="&#xb9;" horiz-adv-x="606" d="M27 1491l389 147h67v-864h-198v629l-199 -76z" />
<glyph unicode="&#xba;" horiz-adv-x="858" d="M61 1112q0 158 101.5 252t267.5 94q167 0 267 -94.5t100 -251.5t-100 -252.5t-267 -95.5t-268 95.5t-101 252.5zM252 1112q0 -80 50 -131t128 -51q79 0 128.5 51t49.5 131q0 81 -49 130.5t-129 49.5t-129 -49.5t-49 -130.5z" />
<glyph unicode="&#xbb;" horiz-adv-x="1128" d="M72 139l252 369l-252 371l166 114l329 -485l-329 -483zM582 139l254 369l-254 371l166 114l331 -485l-331 -483z" />
<glyph unicode="&#xbc;" horiz-adv-x="1753" d="M27 1309l389 147h67v-864h-198v629l-199 -76zM295 0l846 1446h215l-848 -1446h-213zM993 152v151l240 551h205l-234 -545h240v242h170v-242h98v-157h-98v-152h-178v152h-443z" />
<glyph unicode="&#xbd;" horiz-adv-x="1792" d="M27 1309l389 147h67v-864h-198v629l-199 -76zM295 0l846 1446h215l-848 -1446h-213zM1075 711q35 72 123.5 119t206.5 47q142 0 224.5 -68.5t82.5 -190.5q0 -100 -53.5 -175t-185.5 -185l-97 -80h359v-178h-639v135l180 160q129 113 182 176t53 127q0 98 -120 98 q-117 0 -168 -96z" />
<glyph unicode="&#xbe;" horiz-adv-x="1878" d="M29 717l127 125q27 -44 80 -70.5t116 -26.5q65 0 104.5 34t39.5 93q0 63 -40 99.5t-108 36.5q-61 0 -94 -17l-61 82l217 203h-328v170h575v-139l-196 -187q108 -17 171.5 -90t63.5 -180q0 -134 -91 -207.5t-236 -73.5q-123 0 -209 41t-131 107zM420 0l846 1446h215 l-848 -1446h-213zM1118 152v151l240 551h205l-234 -545h240v242h170v-242h98v-157h-98v-152h-178v152h-443z" />
<glyph unicode="&#xbf;" horiz-adv-x="952" d="M82 -43q0 64 20 123t51.5 105t70 88.5t77.5 81.5t71 77t52.5 82.5t21.5 89.5h193q0 -71 -24 -135.5t-59.5 -109.5t-77.5 -93t-77.5 -87.5t-59.5 -90.5t-24 -104q0 -91 64 -146t170 -55q89 0 158.5 49t99.5 137l192 -86q-51 -147 -176.5 -227t-289.5 -80 q-122 0 -223.5 43.5t-165.5 131.5t-64 206zM375 907q0 65 43.5 107.5t109.5 42.5t109 -42.5t43 -107.5q0 -64 -43 -105.5t-109 -41.5t-109.5 41.5t-43.5 105.5z" />
<glyph unicode="&#xc0;" horiz-adv-x="1347" d="M14 0l527 1446h268l526 -1446h-248l-116 330h-592l-117 -330h-248zM365 1874h249l162 -315h-196zM453 543h444l-223 649z" />
<glyph unicode="&#xc1;" horiz-adv-x="1347" d="M14 0l527 1446h268l526 -1446h-248l-116 330h-592l-117 -330h-248zM453 543h444l-223 649zM575 1559l162 315h250l-215 -315h-197z" />
<glyph unicode="&#xc2;" horiz-adv-x="1347" d="M14 0l527 1446h268l526 -1446h-248l-116 330h-592l-117 -330h-248zM332 1559l250 315h186l250 -315h-205l-137 180l-139 -180h-205zM453 543h444l-223 649z" />
<glyph unicode="&#xc3;" horiz-adv-x="1347" d="M14 0l527 1446h268l526 -1446h-248l-116 330h-592l-117 -330h-248zM336 1573q0 128 57 202t152 74q44 0 84.5 -18t65 -40t51.5 -40t47 -18q55 0 55 108h168q0 -129 -56 -203.5t-151 -74.5q-44 0 -84 18t-64 39t-51 39t-47 18q-59 0 -59 -104h-168zM453 543h444l-223 649z " />
<glyph unicode="&#xc4;" horiz-adv-x="1347" d="M14 0l527 1446h268l526 -1446h-248l-116 330h-592l-117 -330h-248zM342 1716q0 54 38.5 91.5t96.5 37.5t96.5 -37.5t38.5 -91.5q0 -57 -38.5 -96t-96.5 -39t-96.5 39t-38.5 96zM453 543h444l-223 649zM739 1716q0 53 39 91t96 38t96.5 -38t39.5 -91q0 -56 -39.5 -95.5 t-96.5 -39.5t-96 39.5t-39 95.5z" />
<glyph unicode="&#xc5;" horiz-adv-x="1347" d="M14 0l527 1446h268l526 -1446h-248l-116 330h-592l-117 -330h-248zM440 1737q0 96 67.5 157.5t170.5 61.5q102 0 167.5 -61.5t65.5 -157.5t-65.5 -157.5t-167.5 -61.5q-104 0 -171 61t-67 158zM453 543h444l-223 649zM567 1737q0 -47 31.5 -77t77.5 -30t77 30t31 77 q0 46 -30.5 76t-77.5 30q-45 0 -77 -30t-32 -76z" />
<glyph unicode="&#xc6;" horiz-adv-x="1929" d="M14 0l789 1446h1014v-215h-648v-402h564v-211h-564v-403h666v-215h-897v322h-489l-175 -322h-260zM561 532h377v703h-4z" />
<glyph unicode="&#xc7;" horiz-adv-x="1550" d="M104 723q0 162 57 301.5t156 236.5t236 152t293 55q217 0 386 -99.5t241 -270.5l-216 -109q-44 122 -155.5 192t-255.5 70q-214 0 -357 -148.5t-143 -379.5q0 -233 143.5 -380.5t366.5 -147.5q154 0 269 74t163 216l215 -100q-72 -185 -226 -289t-359 -116v-78 q95 -12 151.5 -61t56.5 -126q0 -97 -68.5 -150.5t-201.5 -53.5q-95 0 -190 28v156q114 -29 174 -29q92 0 92 68q0 35 -30.5 53t-110.5 18h-35v179q-289 34 -470.5 237t-181.5 502z" />
<glyph unicode="&#xc8;" horiz-adv-x="1159" d="M166 0v1446h881v-215h-648v-402h562v-211h-562v-403h664v-215h-897zM295 1874h250l162 -315h-197z" />
<glyph unicode="&#xc9;" horiz-adv-x="1159" d="M166 0v1446h881v-215h-648v-402h562v-211h-562v-403h664v-215h-897zM506 1559l162 315h250l-216 -315h-196z" />
<glyph unicode="&#xca;" horiz-adv-x="1159" d="M166 0v1446h881v-215h-648v-402h562v-211h-562v-403h664v-215h-897zM264 1559l250 315h186l250 -315h-205l-137 180l-139 -180h-205z" />
<glyph unicode="&#xcb;" horiz-adv-x="1159" d="M166 0v1446h881v-215h-648v-402h562v-211h-562v-403h664v-215h-897zM272 1716q0 54 39 91.5t97 37.5t96.5 -37.5t38.5 -91.5q0 -57 -38.5 -96t-96.5 -39t-97 39t-39 96zM670 1716q0 53 39 91t96 38t96 -38t39 -91q0 -56 -39 -95.5t-96 -39.5t-96 39.5t-39 95.5z" />
<glyph unicode="&#xcc;" horiz-adv-x="585" d="M-18 1874h249l162 -315h-196zM174 0v1446h238v-1446h-238z" />
<glyph unicode="&#xcd;" horiz-adv-x="585" d="M174 0v1446h238v-1446h-238zM193 1559l161 315h250l-215 -315h-196z" />
<glyph unicode="&#xce;" horiz-adv-x="585" d="M-49 1559l250 315h186l250 -315h-205l-137 180l-139 -180h-205zM174 0v1446h238v-1446h-238z" />
<glyph unicode="&#xcf;" horiz-adv-x="585" d="M-41 1716q0 54 38.5 91.5t96.5 37.5t96.5 -37.5t38.5 -91.5q0 -57 -38.5 -96t-96.5 -39t-96.5 39t-38.5 96zM174 0v1446h238v-1446h-238zM356 1716q0 53 39.5 91t96.5 38t96 -38t39 -91q0 -56 -39 -95.5t-96 -39.5t-96.5 39.5t-39.5 95.5z" />
<glyph unicode="&#xd0;" horiz-adv-x="1513" d="M-2 623v196h209v627h471q176 0 315.5 -53t230 -149t138 -228t47.5 -293q0 -160 -45.5 -292t-133.5 -228.5t-226 -149.5t-314 -53h-483v623h-209zM440 215h252q123 0 215.5 37.5t148.5 106.5t83.5 160t27.5 204q0 233 -121.5 370.5t-365.5 137.5h-240v-412h375v-196h-375 v-408z" />
<glyph unicode="&#xd1;" horiz-adv-x="1484" d="M166 0v1446h221l700 -1022v1022h234v-1446h-223l-699 1022v-1022h-233zM397 1573q0 128 57 202t152 74q44 0 84.5 -18t65 -40t51.5 -40t47 -18q55 0 55 108h168q0 -129 -56 -203.5t-151 -74.5q-44 0 -84 18t-63.5 39t-50.5 39t-47 18q-60 0 -60 -104h-168z" />
<glyph unicode="&#xd2;" horiz-adv-x="1712" d="M104 723q0 216 99.5 387t270.5 264.5t382 93.5t382 -93.5t270.5 -264.5t99.5 -387t-99.5 -387t-270.5 -265t-382 -94t-382 94t-270.5 265t-99.5 387zM346 723q0 -231 145.5 -379.5t364.5 -148.5t363.5 148.5t144.5 379.5t-144.5 379.5t-363.5 148.5t-364.5 -148.5 t-145.5 -379.5zM545 1874h250l161 -315h-196z" />
<glyph unicode="&#xd3;" horiz-adv-x="1712" d="M104 723q0 216 99.5 387t270.5 264.5t382 93.5t382 -93.5t270.5 -264.5t99.5 -387t-99.5 -387t-270.5 -265t-382 -94t-382 94t-270.5 265t-99.5 387zM346 723q0 -231 145.5 -379.5t364.5 -148.5t363.5 148.5t144.5 379.5t-144.5 379.5t-363.5 148.5t-364.5 -148.5 t-145.5 -379.5zM756 1559l162 315h249l-215 -315h-196z" />
<glyph unicode="&#xd4;" horiz-adv-x="1712" d="M104 723q0 216 99.5 387t270.5 264.5t382 93.5t382 -93.5t270.5 -264.5t99.5 -387t-99.5 -387t-270.5 -265t-382 -94t-382 94t-270.5 265t-99.5 387zM346 723q0 -231 145.5 -379.5t364.5 -148.5t363.5 148.5t144.5 379.5t-144.5 379.5t-363.5 148.5t-364.5 -148.5 t-145.5 -379.5zM512 1559l250 315h186l250 -315h-205l-137 180l-139 -180h-205z" />
<glyph unicode="&#xd5;" horiz-adv-x="1712" d="M104 723q0 216 99.5 387t270.5 264.5t382 93.5t382 -93.5t270.5 -264.5t99.5 -387t-99.5 -387t-270.5 -265t-382 -94t-382 94t-270.5 265t-99.5 387zM346 723q0 -231 145.5 -379.5t364.5 -148.5t363.5 148.5t144.5 379.5t-144.5 379.5t-363.5 148.5t-364.5 -148.5 t-145.5 -379.5zM516 1573q0 128 57 202t152 74q44 0 84.5 -18t65 -40t51.5 -40t47 -18q55 0 55 108h168q0 -129 -56 -203.5t-151 -74.5q-44 0 -84 18t-64 39t-51 39t-47 18q-59 0 -59 -104h-168z" />
<glyph unicode="&#xd6;" horiz-adv-x="1712" d="M104 723q0 216 99.5 387t270.5 264.5t382 93.5t382 -93.5t270.5 -264.5t99.5 -387t-99.5 -387t-270.5 -265t-382 -94t-382 94t-270.5 265t-99.5 387zM346 723q0 -231 145.5 -379.5t364.5 -148.5t363.5 148.5t144.5 379.5t-144.5 379.5t-363.5 148.5t-364.5 -148.5 t-145.5 -379.5zM522 1716q0 54 38.5 91.5t96.5 37.5t97 -37.5t39 -91.5q0 -57 -39 -96t-97 -39t-96.5 39t-38.5 96zM920 1716q0 53 39 91t96 38t96 -38t39 -91q0 -56 -39 -95.5t-96 -39.5t-96 39.5t-39 95.5z" />
<glyph unicode="&#xd7;" horiz-adv-x="1161" d="M94 301l344 342l-342 342l142 143l342 -342l344 342l141 -143l-342 -342l342 -342l-141 -143l-342 344l-344 -344z" />
<glyph unicode="&#xd8;" horiz-adv-x="1712" d="M104 723q0 216 99.5 387t270.5 264.5t382 93.5q193 0 350 -77l64 94h225l-133 -197q117 -102 181.5 -247t64.5 -318q0 -216 -99.5 -387t-270.5 -265t-382 -94q-185 0 -338 72l-74 -108h-223l141 206q-122 102 -190 250t-68 326zM346 723q0 -233 148 -381l585 860 q-101 49 -223 49q-219 0 -364.5 -148.5t-145.5 -379.5zM645 238q93 -43 211 -43q219 0 363.5 148.5t144.5 379.5q0 223 -135 371z" />
<glyph unicode="&#xd9;" horiz-adv-x="1413" d="M133 588v858h236v-848q0 -203 76.5 -303t261.5 -100t262.5 100t77.5 303v848h233v-858q0 -611 -573 -611q-574 0 -574 611zM395 1874h250l162 -315h-197z" />
<glyph unicode="&#xda;" horiz-adv-x="1413" d="M133 588v858h236v-848q0 -203 76.5 -303t261.5 -100t262.5 100t77.5 303v848h233v-858q0 -611 -573 -611q-574 0 -574 611zM606 1559l162 315h250l-215 -315h-197z" />
<glyph unicode="&#xdb;" horiz-adv-x="1413" d="M133 588v858h236v-848q0 -203 76.5 -303t261.5 -100t262.5 100t77.5 303v848h233v-858q0 -611 -573 -611q-574 0 -574 611zM365 1559l249 315h187l250 -315h-205l-137 180l-140 -180h-204z" />
<glyph unicode="&#xdc;" horiz-adv-x="1413" d="M133 588v858h236v-848q0 -203 76.5 -303t261.5 -100t262.5 100t77.5 303v848h233v-858q0 -611 -573 -611q-574 0 -574 611zM373 1716q0 54 38.5 91.5t96.5 37.5t96.5 -37.5t38.5 -91.5q0 -57 -38.5 -96t-96.5 -39t-96.5 39t-38.5 96zM770 1716q0 53 39 91t96 38t96 -38 t39 -91q0 -56 -39 -95.5t-96 -39.5t-96 39.5t-39 95.5z" />
<glyph unicode="&#xdd;" horiz-adv-x="1249" d="M6 1446h273l346 -658l346 658h272l-504 -901v-545h-233v547zM524 1559l162 315h250l-215 -315h-197z" />
<glyph unicode="&#xde;" horiz-adv-x="1234" d="M166 0v1446h233v-256h295q240 0 351.5 -115.5t111.5 -322.5q0 -223 -123 -341t-350 -118h-285v-293h-233zM399 504h246q140 0 205 53t65 191q0 128 -58.5 178.5t-209.5 50.5h-248v-473z" />
<glyph unicode="&#xdf;" horiz-adv-x="1263" d="M39 834v194h176v105q0 199 92.5 295t288.5 96q73 0 119 -11l-2 -188q-54 8 -99 8q-49 0 -78 -7t-54 -30t-35.5 -69t-10.5 -121v-78h686v-164l-295 -379q186 -3 292 -118t106 -318q0 -224 -139 -344.5t-369 -120.5q-118 0 -207 29l55 197q67 -25 158 -25q128 0 202 75.5 t74 205.5q0 121 -66 188.5t-185 67.5q-44 0 -119 -21l-82 102l319 431h-430v-834h-221v834h-176z" />
<glyph unicode="&#xe0;" d="M78 514q0 238 133.5 387.5t347.5 149.5q120 0 208.5 -49.5t139.5 -139.5v166h221v-1028h-221v166q-52 -88 -141 -138.5t-209 -50.5q-211 0 -345 150t-134 387zM303 514q0 -149 85 -242.5t220 -93.5q131 0 216 93t85 243q0 151 -85 244.5t-216 93.5q-135 0 -220 -94.5 t-85 -243.5zM309 1501h246l160 -327h-195z" />
<glyph unicode="&#xe1;" d="M78 514q0 238 133.5 387.5t347.5 149.5q120 0 208.5 -49.5t139.5 -139.5v166h221v-1028h-221v166q-52 -88 -141 -138.5t-209 -50.5q-211 0 -345 150t-134 387zM303 514q0 -149 85 -242.5t220 -93.5q131 0 216 93t85 243q0 151 -85 244.5t-216 93.5q-135 0 -220 -94.5 t-85 -243.5zM518 1174l158 327h248l-213 -327h-193z" />
<glyph unicode="&#xe2;" d="M78 514q0 238 133.5 387.5t347.5 149.5q120 0 208.5 -49.5t139.5 -139.5v166h221v-1028h-221v166q-52 -88 -141 -138.5t-209 -50.5q-211 0 -345 150t-134 387zM262 1174l260 327h187l260 -327h-209l-146 188l-145 -188h-207zM303 514q0 -149 85 -242.5t220 -93.5 q131 0 216 93t85 243q0 151 -85 244.5t-216 93.5q-135 0 -220 -94.5t-85 -243.5z" />
<glyph unicode="&#xe3;" d="M78 514q0 238 133.5 387.5t347.5 149.5q120 0 208.5 -49.5t139.5 -139.5v166h221v-1028h-221v166q-52 -88 -141 -138.5t-209 -50.5q-211 0 -345 150t-134 387zM279 1188q0 128 56.5 202t151.5 74q44 0 84.5 -18t65 -40t51.5 -40t47 -18q56 0 56 108h167q0 -128 -56 -203 t-150 -75q-44 0 -84 18t-64 40t-51 40t-47 18q-60 0 -60 -106h-167zM303 514q0 -149 85 -242.5t220 -93.5q131 0 216 93t85 243q0 151 -85 244.5t-216 93.5q-135 0 -220 -94.5t-85 -243.5z" />
<glyph unicode="&#xe4;" d="M78 514q0 238 133.5 387.5t347.5 149.5q120 0 208.5 -49.5t139.5 -139.5v166h221v-1028h-221v166q-52 -88 -141 -138.5t-209 -50.5q-211 0 -345 150t-134 387zM283 1346q0 54 38.5 91.5t96.5 37.5t96.5 -37.5t38.5 -91.5q0 -57 -38.5 -95.5t-96.5 -38.5t-96.5 38.5 t-38.5 95.5zM303 514q0 -149 85 -242.5t220 -93.5q131 0 216 93t85 243q0 151 -85 244.5t-216 93.5q-135 0 -220 -94.5t-85 -243.5zM680 1346q0 54 39 91.5t96 37.5t96 -37.5t39 -91.5q0 -56 -39 -95t-96 -39t-96 39t-39 95z" />
<glyph unicode="&#xe5;" d="M78 514q0 238 133.5 387.5t347.5 149.5q120 0 208.5 -49.5t139.5 -139.5v166h221v-1028h-221v166q-52 -88 -141 -138.5t-209 -50.5q-211 0 -345 150t-134 387zM303 514q0 -149 85 -242.5t220 -93.5q131 0 216 93t85 243q0 151 -85 244.5t-216 93.5q-135 0 -220 -94.5 t-85 -243.5zM379 1384q0 96 67 158t170 62q102 0 169 -62t67 -158t-67 -157.5t-169 -61.5q-104 0 -170.5 61t-66.5 158zM508 1384q0 -47 30 -76.5t76 -29.5t77.5 29.5t31.5 76.5q0 46 -31 76.5t-78 30.5q-45 0 -75.5 -30t-30.5 -77z" />
<glyph unicode="&#xe6;" horiz-adv-x="1857" d="M55 328q0 155 100 245.5t273 90.5q99 0 193 -27.5t137 -65.5v70q0 58 -20.5 101.5t-56 68.5t-78 37t-91.5 12q-160 0 -252 -102l-174 106q62 87 173.5 137t252.5 50q117 0 216.5 -42.5t156.5 -127.5q69 81 168.5 125.5t220.5 44.5q229 0 370.5 -148t141.5 -389 q0 -1 -6 -82h-811q19 -119 106 -189.5t225 -70.5q189 0 279 137l184 -100q-64 -114 -188.5 -173t-278.5 -59q-271 0 -415 175q-57 -82 -156 -128.5t-236 -46.5q-194 0 -314 91.5t-120 259.5zM272 334q0 -84 57.5 -126t155.5 -42q119 0 195.5 58.5t77.5 162.5q-33 45 -101 75 t-168 30q-217 0 -217 -158zM969 606h600q-22 120 -98.5 188t-192.5 68q-119 0 -203 -70t-106 -186z" />
<glyph unicode="&#xe7;" horiz-adv-x="1114" d="M78 514q0 156 70.5 279t193.5 190.5t274 67.5q153 0 273 -68t180 -190l-195 -101q-38 75 -106 117.5t-152 42.5q-135 0 -224 -94.5t-89 -243.5q0 -148 89.5 -242t225.5 -94q91 0 162 43t109 131l196 -94q-55 -126 -162 -195.5t-243 -82.5v-78q95 -12 152 -61t57 -126 q0 -97 -69 -150.5t-202 -53.5q-95 0 -190 28v156q114 -29 174 -29q92 0 92 68q0 35 -30.5 53t-110.5 18h-35v181q-195 33 -317.5 176.5t-122.5 351.5z" />
<glyph unicode="&#xe8;" horiz-adv-x="1193" d="M78 514q0 236 150 386.5t382 150.5q229 0 370.5 -148t141.5 -389q0 -1 -6 -82h-811q19 -119 106 -189.5t226 -70.5q188 0 278 137l185 -100q-64 -114 -188.5 -173t-278.5 -59q-252 0 -403.5 149t-151.5 388zM303 1501h246l160 -327h-195zM305 604h600q-20 120 -97 189 t-194 69q-120 0 -203.5 -70.5t-105.5 -187.5z" />
<glyph unicode="&#xe9;" horiz-adv-x="1193" d="M78 514q0 236 150 386.5t382 150.5q229 0 370.5 -148t141.5 -389q0 -1 -6 -82h-811q19 -119 106 -189.5t226 -70.5q188 0 278 137l185 -100q-64 -114 -188.5 -173t-278.5 -59q-252 0 -403.5 149t-151.5 388zM305 604h600q-20 120 -97 189t-194 69q-120 0 -203.5 -70.5 t-105.5 -187.5zM512 1174l158 327h248l-213 -327h-193z" />
<glyph unicode="&#xea;" horiz-adv-x="1193" d="M78 514q0 236 150 386.5t382 150.5q229 0 370.5 -148t141.5 -389q0 -1 -6 -82h-811q19 -119 106 -189.5t226 -70.5q188 0 278 137l185 -100q-64 -114 -188.5 -173t-278.5 -59q-252 0 -403.5 149t-151.5 388zM256 1174l260 327h186l261 -327h-209l-146 188l-145 -188h-207 zM305 604h600q-20 120 -97 189t-194 69q-120 0 -203.5 -70.5t-105.5 -187.5z" />
<glyph unicode="&#xeb;" horiz-adv-x="1193" d="M78 514q0 236 150 386.5t382 150.5q229 0 370.5 -148t141.5 -389q0 -1 -6 -82h-811q19 -119 106 -189.5t226 -70.5q188 0 278 137l185 -100q-64 -114 -188.5 -173t-278.5 -59q-252 0 -403.5 149t-151.5 388zM276 1346q0 54 39 91.5t97 37.5t96.5 -37.5t38.5 -91.5 q0 -57 -38.5 -95.5t-96.5 -38.5t-97 38.5t-39 95.5zM305 604h600q-20 120 -97 189t-194 69q-120 0 -203.5 -70.5t-105.5 -187.5zM674 1346q0 54 39 91.5t96 37.5t96 -37.5t39 -91.5q0 -56 -39 -95t-96 -39t-96 39t-39 95z" />
<glyph unicode="&#xec;" horiz-adv-x="524" d="M-18 1501h239l152 -327h-195zM152 0v1028h223v-1028h-223z" />
<glyph unicode="&#xed;" horiz-adv-x="524" d="M152 0v1028h223v-1028h-223zM154 1174l151 327h240l-197 -327h-194z" />
<glyph unicode="&#xee;" horiz-adv-x="524" d="M-10 1174l186 327h176l187 -327h-181l-96 184l-92 -184h-180zM152 0v1028h223v-1028h-223z" />
<glyph unicode="&#xef;" horiz-adv-x="524" d="M-45 1346q0 54 38 91.5t93 37.5q57 0 95 -37.5t38 -91.5q0 -57 -38 -95.5t-95 -38.5q-56 0 -93.5 38.5t-37.5 95.5zM152 0v1028h223v-1028h-223zM305 1346q0 54 38 91.5t93 37.5t93 -37.5t38 -91.5q0 -56 -38 -95t-93 -39t-93 39t-38 95z" />
<glyph unicode="&#xf0;" horiz-adv-x="1241" d="M78 506q0 148 68 267.5t181 185t246 65.5q182 0 299 -109q-57 121 -215 269l-251 -123l-74 158l182 88q-51 43 -149 116l137 133q120 -86 203 -155l282 137l76 -156l-221 -108q321 -325 321 -699q0 -145 -41 -259.5t-113.5 -188t-169.5 -112t-212 -38.5 q-235 0 -392 149.5t-157 379.5zM303 508q0 -144 91.5 -237t228.5 -93q138 0 229.5 94t91.5 242q0 146 -91 234t-230 88q-137 0 -228.5 -93t-91.5 -235z" />
<glyph unicode="&#xf1;" horiz-adv-x="1196" d="M139 0v1028h219v-162q51 92 140 138.5t200 46.5q182 0 279.5 -111.5t97.5 -327.5v-612h-219v575q0 143 -55.5 211t-169.5 68q-122 0 -196.5 -88t-74.5 -221v-545h-221zM270 1188q0 128 57 202t152 74q44 0 84.5 -18t65 -40t51.5 -40t47 -18q55 0 55 108h168 q0 -128 -56.5 -203t-150.5 -75q-44 0 -84 18t-63.5 40t-50.5 40t-47 18q-60 0 -60 -106h-168z" />
<glyph unicode="&#xf2;" horiz-adv-x="1245" d="M78 514q0 155 72 278.5t196.5 191t276.5 67.5q233 0 388.5 -151t155.5 -386t-155.5 -386t-388.5 -151q-152 0 -276.5 67.5t-196.5 191t-72 278.5zM303 514q0 -148 91 -242t229 -94t229.5 94t91.5 242t-91.5 243t-229.5 95t-229 -95t-91 -243zM315 1501h246l160 -327h-195 z" />
<glyph unicode="&#xf3;" horiz-adv-x="1245" d="M78 514q0 155 72 278.5t196.5 191t276.5 67.5q233 0 388.5 -151t155.5 -386t-155.5 -386t-388.5 -151q-152 0 -276.5 67.5t-196.5 191t-72 278.5zM303 514q0 -148 91 -242t229 -94t229.5 94t91.5 242t-91.5 243t-229.5 95t-229 -95t-91 -243zM524 1174l158 327h248 l-213 -327h-193z" />
<glyph unicode="&#xf4;" horiz-adv-x="1245" d="M78 514q0 155 72 278.5t196.5 191t276.5 67.5q233 0 388.5 -151t155.5 -386t-155.5 -386t-388.5 -151q-152 0 -276.5 67.5t-196.5 191t-72 278.5zM268 1174l260 327h187l260 -327h-209l-145 188l-146 -188h-207zM303 514q0 -148 91 -242t229 -94t229.5 94t91.5 242 t-91.5 243t-229.5 95t-229 -95t-91 -243z" />
<glyph unicode="&#xf5;" horiz-adv-x="1245" d="M78 514q0 155 72 278.5t196.5 191t276.5 67.5q233 0 388.5 -151t155.5 -386t-155.5 -386t-388.5 -151q-152 0 -276.5 67.5t-196.5 191t-72 278.5zM285 1188q0 128 57 202t152 74q44 0 84.5 -18t64.5 -40t51 -40t47 -18q56 0 56 108h168q0 -128 -56.5 -203t-150.5 -75 q-44 0 -84 18t-64 40t-51 40t-47 18q-59 0 -59 -106h-168zM303 514q0 -148 91 -242t229 -94t229.5 94t91.5 242t-91.5 243t-229.5 95t-229 -95t-91 -243z" />
<glyph unicode="&#xf6;" horiz-adv-x="1245" d="M78 514q0 155 72 278.5t196.5 191t276.5 67.5q233 0 388.5 -151t155.5 -386t-155.5 -386t-388.5 -151q-152 0 -276.5 67.5t-196.5 191t-72 278.5zM289 1346q0 54 38.5 91.5t96.5 37.5t96.5 -37.5t38.5 -91.5q0 -57 -38.5 -95.5t-96.5 -38.5t-96.5 38.5t-38.5 95.5z M303 514q0 -148 91 -242t229 -94t229.5 94t91.5 242t-91.5 243t-229.5 95t-229 -95t-91 -243zM686 1346q0 54 39 91.5t96 37.5t96 -37.5t39 -91.5q0 -56 -39 -95t-96 -39t-96 39t-39 95z" />
<glyph unicode="&#xf7;" horiz-adv-x="1101" d="M94 543v200h914v-200h-914zM401 244q0 63 42.5 103t107.5 40t107 -40t42 -103q0 -64 -42 -106t-107 -42t-107.5 42t-42.5 106zM401 1049q0 63 42.5 103t107.5 40t107 -40t42 -103q0 -64 -42 -106t-107 -42t-107.5 42t-42.5 106z" />
<glyph unicode="&#xf8;" horiz-adv-x="1245" d="M78 514q0 155 72 278.5t196.5 191t276.5 67.5q123 0 239 -50l62 89h196l-121 -179q80 -72 124 -174t44 -223q0 -235 -155.5 -386t-388.5 -151q-122 0 -226 43l-59 -88h-199l119 172q-85 74 -132.5 179t-47.5 231zM303 514q0 -140 80 -229l371 540q-66 27 -131 27 q-138 0 -229 -95t-91 -243zM508 199q53 -21 115 -21q138 0 229.5 94t91.5 242q0 124 -70 217z" />
<glyph unicode="&#xf9;" horiz-adv-x="1177" d="M113 424v604h221v-567q0 -285 229 -285q124 0 193 87t69 222v543h219v-1028h-219v162q-102 -185 -329 -185q-184 0 -283.5 114.5t-99.5 332.5zM272 1501h246l160 -327h-195z" />
<glyph unicode="&#xfa;" horiz-adv-x="1177" d="M113 424v604h221v-567q0 -285 229 -285q124 0 193 87t69 222v543h219v-1028h-219v162q-102 -185 -329 -185q-184 0 -283.5 114.5t-99.5 332.5zM481 1174l158 327h248l-213 -327h-193z" />
<glyph unicode="&#xfb;" horiz-adv-x="1177" d="M113 424v604h221v-567q0 -285 229 -285q124 0 193 87t69 222v543h219v-1028h-219v162q-102 -185 -329 -185q-184 0 -283.5 114.5t-99.5 332.5zM225 1174l260 327h187l260 -327h-209l-145 188l-146 -188h-207z" />
<glyph unicode="&#xfc;" horiz-adv-x="1177" d="M113 424v604h221v-567q0 -285 229 -285q124 0 193 87t69 222v543h219v-1028h-219v162q-102 -185 -329 -185q-184 0 -283.5 114.5t-99.5 332.5zM246 1346q0 54 38.5 91.5t96.5 37.5t96.5 -37.5t38.5 -91.5q0 -57 -38.5 -95.5t-96.5 -38.5t-96.5 38.5t-38.5 95.5zM643 1346 q0 54 39 91.5t96 37.5t96 -37.5t39 -91.5q0 -56 -39 -95t-96 -39t-96 39t-39 95z" />
<glyph unicode="&#xfd;" horiz-adv-x="1095" d="M27 1028h245l283 -786l272 786h244l-541 -1429h-237l160 395zM453 1174l157 327h248l-213 -327h-192z" />
<glyph unicode="&#xfe;" horiz-adv-x="1267" d="M139 -401v1902h221v-639q51 90 139.5 139.5t207.5 49.5q215 0 349 -149.5t134 -387.5t-134.5 -387.5t-346.5 -149.5q-119 0 -208.5 50.5t-140.5 138.5v-567h-221zM358 514q0 -151 84.5 -243.5t216.5 -92.5q134 0 220 93.5t86 242.5t-86 243.5t-220 94.5 q-132 0 -216.5 -93.5t-84.5 -244.5z" />
<glyph unicode="&#xff;" horiz-adv-x="1095" d="M27 1028h245l283 -786l272 786h244l-541 -1429h-237l160 395zM217 1346q0 54 38.5 91.5t96.5 37.5t96.5 -37.5t38.5 -91.5q0 -57 -38.5 -95.5t-96.5 -38.5t-96.5 38.5t-38.5 95.5zM614 1346q0 54 39.5 91.5t96.5 37.5t96 -37.5t39 -91.5q0 -56 -39 -95t-96 -39t-96.5 39 t-39.5 95z" />
<glyph unicode="&#x152;" horiz-adv-x="1884" d="M104 723q0 160 51.5 292.5t149 228.5t247 149t337.5 53h880v-215h-647v-402h564v-211h-564v-403h666v-215h-899q-364 0 -574.5 196.5t-210.5 526.5zM346 723q0 -234 141 -370t402 -136v1012q-271 0 -407 -136.5t-136 -369.5z" />
<glyph unicode="&#x153;" horiz-adv-x="2062" d="M78 514q0 155 72 278.5t196.5 191t276.5 67.5q138 0 250 -56.5t182 -158.5q67 102 176 158.5t246 56.5q229 0 370.5 -148t141.5 -389q0 -28 -4 -82h-814q19 -119 106.5 -189.5t227.5 -70.5q187 0 277 137l184 -100q-64 -115 -188 -173.5t-279 -58.5q-150 0 -263.5 55.5 t-180.5 157.5q-70 -101 -182 -157t-250 -56q-152 0 -276.5 67.5t-196.5 191t-72 278.5zM303 514q0 -148 91 -242t229 -94t229.5 94t91.5 242t-91.5 243t-229.5 95t-229 -95t-91 -243zM1174 606h598q-22 120 -98.5 188t-192.5 68q-118 0 -201.5 -70t-105.5 -186z" />
<glyph unicode="&#x178;" horiz-adv-x="1249" d="M6 1446h273l346 -658l346 658h272l-504 -901v-545h-233v547zM291 1716q0 54 38.5 91.5t96.5 37.5t96.5 -37.5t38.5 -91.5q0 -57 -38.5 -96t-96.5 -39t-96.5 39t-38.5 96zM688 1716q0 53 39 91t96 38t96 -38t39 -91q0 -56 -39 -95.5t-96 -39.5t-96 39.5t-39 95.5z" />
<glyph unicode="&#x2c6;" horiz-adv-x="724" d="M10 1174l260 327h187l260 -327h-207l-145 188l-148 -188h-207z" />
<glyph unicode="&#x2dc;" horiz-adv-x="724" d="M23 1188q0 128 56.5 202t151.5 74q44 0 84 -18t64.5 -40t52 -40t47.5 -18q56 0 56 108h167q0 -128 -56 -203t-150 -75q-44 0 -84 18t-64 40t-51 40t-47 18q-60 0 -60 -106h-167z" />
<glyph unicode="&#x2000;" horiz-adv-x="978" />
<glyph unicode="&#x2001;" horiz-adv-x="1956" />
<glyph unicode="&#x2002;" horiz-adv-x="978" />
<glyph unicode="&#x2003;" horiz-adv-x="1956" />
<glyph unicode="&#x2004;" horiz-adv-x="652" />
<glyph unicode="&#x2005;" horiz-adv-x="489" />
<glyph unicode="&#x2006;" horiz-adv-x="326" />
<glyph unicode="&#x2007;" horiz-adv-x="326" />
<glyph unicode="&#x2008;" horiz-adv-x="244" />
<glyph unicode="&#x2009;" horiz-adv-x="391" />
<glyph unicode="&#x200a;" horiz-adv-x="108" />
<glyph unicode="&#x2010;" horiz-adv-x="948" d="M113 414v200h723v-200h-723z" />
<glyph unicode="&#x2011;" horiz-adv-x="948" d="M113 414v200h723v-200h-723z" />
<glyph unicode="&#x2012;" horiz-adv-x="948" d="M113 414v200h723v-200h-723z" />
<glyph unicode="&#x2013;" horiz-adv-x="1243" d="M94 414v200h1055v-200h-1055z" />
<glyph unicode="&#x2014;" horiz-adv-x="2013" d="M94 414v200h1823v-200h-1823z" />
<glyph unicode="&#x2018;" horiz-adv-x="530" d="M106 870l144 631h174l-66 -631h-252z" />
<glyph unicode="&#x2019;" horiz-adv-x="530" d="M106 870l66 631h252l-145 -631h-173z" />
<glyph unicode="&#x201a;" horiz-adv-x="530" d="M106 -299l66 631h252l-145 -631h-173z" />
<glyph unicode="&#x201c;" horiz-adv-x="958" d="M106 870l125 631h172l-45 -631h-252zM555 870l125 631h172l-45 -631h-252z" />
<glyph unicode="&#x201d;" horiz-adv-x="958" d="M106 870l48 631h252l-127 -631h-173zM555 870l47 631h250l-125 -631h-172z" />
<glyph unicode="&#x201e;" horiz-adv-x="958" d="M106 -299l48 631h252l-127 -631h-173zM555 -299l47 631h250l-125 -631h-172z" />
<glyph unicode="&#x2022;" horiz-adv-x="802" d="M109 518q0 124 83 203.5t211 79.5t210.5 -79.5t82.5 -203.5q0 -126 -82.5 -207.5t-210.5 -81.5t-211 81.5t-83 207.5z" />
<glyph unicode="&#x2026;" horiz-adv-x="1591" d="M113 137q0 63 43 104.5t108 41.5q66 0 110 -41.5t44 -104.5q0 -66 -44 -108.5t-110 -42.5q-65 0 -108 42.5t-43 108.5zM643 137q0 63 43.5 104.5t108.5 41.5q66 0 109.5 -41.5t43.5 -104.5q0 -66 -43.5 -108.5t-109.5 -42.5q-65 0 -108.5 42.5t-43.5 108.5zM1174 137 q0 63 43 104.5t108 41.5q66 0 110 -41.5t44 -104.5q0 -66 -44 -108.5t-110 -42.5q-65 0 -108 42.5t-43 108.5z" />
<glyph unicode="&#x202f;" horiz-adv-x="391" />
<glyph unicode="&#x2039;" horiz-adv-x="618" d="M49 508l332 485l166 -114l-254 -371l254 -369l-166 -114z" />
<glyph unicode="&#x203a;" horiz-adv-x="618" d="M72 139l252 369l-252 371l166 114l329 -485l-329 -483z" />
<glyph unicode="&#x205f;" horiz-adv-x="489" />
<glyph unicode="&#x20ac;" horiz-adv-x="1402" d="M78 489v154h164q-2 27 -2 80q0 55 2 82h-164v156h188q56 236 214.5 370.5t383.5 134.5q159 0 293 -71.5t201 -202.5l-180 -115q-40 85 -119.5 132.5t-186.5 47.5q-130 0 -224 -75t-136 -221h444v-156h-473q0 -13 -1 -40t-1 -42q0 -55 2 -80h473v-154h-446 q42 -148 137 -224.5t225 -76.5q107 0 186.5 48.5t119.5 134.5l180 -117q-67 -131 -201 -202.5t-293 -71.5q-225 0 -384.5 136t-215.5 373h-186z" />
<glyph unicode="&#x2122;" horiz-adv-x="1466" d="M49 1307v139h522v-139h-182v-508h-158v508h-182zM678 799v647h186l170 -334l168 334h195v-647h-148v448l-174 -332h-82l-168 320v-436h-147z" />
<glyph unicode="&#x25fc;" horiz-adv-x="1024" d="M0 0v1024h1024v-1024h-1024z" />
</font>
</defs>
</svg>
