<svg width="106" height="31" viewBox="0 0 106 31" fill="none" xmlns="http://www.w3.org/2000/svg">
<path d="M27.4648 0.5H32.324V30.5H27.4648V0.5Z" fill="white"/>
<path d="M49.2278 20.9932C49.2278 25.641 45.425 26.0636 44.1574 26.0636C41.1997 26.0636 40.7771 23.3171 40.7771 21.8382V10.2185H35.918V21.627C35.918 24.3734 36.763 26.9086 38.4532 28.3875C39.9321 29.8664 41.8335 30.5002 44.1574 30.5002C45.8475 30.5002 47.9602 30.0777 49.2278 28.8101V30.5002H54.087V10.2185H49.2278V20.9932Z" fill="white"/>
<path d="M63.5913 2.82397H58.7322V10.2183H55.1406V14.8662H58.7322V30.5H63.5913V14.8662H67.1829V10.2183H63.5913V2.82397Z" fill="white"/>
<path d="M82.3935 24.3731C81.3372 25.2182 79.8583 25.852 78.3795 25.852C74.9992 25.852 72.6752 23.3168 72.6752 19.9365C72.6752 16.5562 74.9992 14.2323 78.3795 14.2323C79.8583 14.2323 81.3372 14.6548 82.3935 15.7111L83.0273 16.3449L86.4076 13.1759L85.5626 12.5421C83.6611 10.852 81.1259 9.79565 78.3795 9.79565C72.464 9.79565 68.0273 14.2323 68.0273 20.1478C68.0273 26.0633 72.464 30.4999 78.3795 30.4999C81.1259 30.4999 83.6611 29.4435 85.5626 27.7534L86.4076 27.1196L83.0273 23.7393L82.3935 24.3731Z" fill="white"/>
<path d="M103.519 11.9085C102.04 10.4296 100.561 9.79578 98.2375 9.79578C96.5474 9.79578 94.8572 10.2183 93.5896 11.4859V0.5H88.7305V30.5H93.5896V19.3028C93.5896 14.6549 96.7586 14.2324 98.0262 14.2324C100.984 14.2324 100.773 16.9789 100.773 18.4577V30.2887H105.632V18.669C105.632 15.9225 104.998 13.3873 103.519 11.9085Z" fill="white"/>
<path d="M78.1693 23.5281C80.0362 23.5281 81.5496 22.0147 81.5496 20.1479C81.5496 18.281 80.0362 16.7676 78.1693 16.7676C76.3025 16.7676 74.7891 18.281 74.7891 20.1479C74.7891 22.0147 76.3025 23.5281 78.1693 23.5281Z" fill="#EF4335"/>
<path d="M20.7042 23.1055C19.0141 24.7956 16.4789 25.8519 13.7324 25.8519C8.4507 25.8519 4.64789 21.6266 4.64789 15.9224C4.64789 10.2181 8.4507 5.99278 13.9437 5.99278C16.4789 5.99278 19.0141 7.04911 20.9155 8.95052L21.5493 9.58433L24.7183 6.41531L24.0845 5.78151C21.338 3.03503 17.7465 1.55616 13.9437 1.55616C5.91549 1.34489 0 7.68292 0 15.9224C0 24.1618 5.91549 30.4998 13.7324 30.4998C17.5352 30.4998 21.338 29.0209 23.8732 26.2745L24.507 25.6407L21.338 22.4717L20.7042 23.1055Z" fill="white"/>
</svg>
