<svg width="107" height="35" viewBox="0 0 107 35" fill="none" xmlns="http://www.w3.org/2000/svg">
<g clip-path="url(#clip0_177_623)">
<path d="M26.3752 12.446H13.8552V16.161H22.7352C22.2952 21.361 17.9622 23.593 13.8702 23.593C12.5739 23.5987 11.2894 23.3461 10.0917 22.8499C8.89412 22.3537 7.80733 21.624 6.89483 20.7032C5.98233 19.7824 5.2624 18.689 4.77708 17.487C4.29176 16.2849 4.05078 14.9982 4.06819 13.702C4.06819 8.07797 8.42219 3.74797 13.8822 3.74797C18.0942 3.74797 20.5762 6.43297 20.5762 6.43297L23.1762 3.73897C23.1762 3.73897 19.8362 0.0219727 13.7462 0.0219727C5.99119 0.0219727 -0.0078125 6.56697 -0.0078125 13.636C-0.0078125 20.563 5.63519 27.318 13.9422 27.318C21.2492 27.318 26.5982 22.312 26.5982 14.91C26.5982 13.348 26.3712 12.446 26.3712 12.446H26.3752Z" fill="#4885ED"/>
<path d="M36.6325 9.75491C31.4945 9.75491 27.8125 13.7719 27.8125 18.4549C27.8125 23.2089 31.3825 27.2999 36.6925 27.2999C41.4985 27.2999 45.4355 23.6269 45.4355 18.5569C45.4355 12.7569 40.8555 9.75391 36.6325 9.75391V9.75491ZM36.6825 13.2009C39.2085 13.2009 41.6025 15.2439 41.6025 18.5349C41.6025 21.7549 39.2185 23.8569 36.6705 23.8569C33.8705 23.8569 31.6705 21.6149 31.6705 18.5089C31.6705 15.4689 33.8505 13.2009 36.6905 13.2009H36.6825Z" fill="#DB3236"/>
<path d="M55.8161 9.75491C50.6781 9.75491 46.9961 13.7719 46.9961 18.4549C46.9961 23.2089 50.5661 27.2999 55.8761 27.2999C60.6821 27.2999 64.6191 23.6269 64.6191 18.5569C64.6191 12.7569 60.0391 9.75391 55.8161 9.75391V9.75491ZM55.8661 13.2009C58.3921 13.2009 60.7861 15.2439 60.7861 18.5349C60.7861 21.7549 58.4021 23.8569 55.8541 23.8569C53.0541 23.8569 50.8541 21.6149 50.8541 18.5089C50.8541 15.4689 53.0341 13.2009 55.8741 13.2009H55.8661Z" fill="#F4C20D"/>
<path d="M74.629 9.76514C69.913 9.76514 66.207 13.8951 66.207 18.5311C66.207 23.8111 70.504 27.3131 74.547 27.3131C77.047 27.3131 78.377 26.3201 79.347 25.1811V26.9111C79.347 29.9381 77.509 31.7511 74.735 31.7511C72.055 31.7511 70.711 29.7581 70.235 28.6281L66.863 30.0281C68.059 32.5581 70.467 35.1951 74.763 35.1951C79.463 35.1951 83.025 32.2421 83.025 26.0481V10.2921H79.361V11.7781C78.231 10.5581 76.683 9.76514 74.631 9.76514H74.629ZM74.969 13.2051C77.281 13.2051 79.655 15.1791 79.655 18.5501C79.655 21.9771 77.285 23.8651 74.918 23.8651C72.404 23.8651 70.065 21.8251 70.065 18.5821C70.065 15.2141 72.495 13.2041 74.969 13.2041V13.2051Z" fill="#4885ED"/>
<path d="M99.4017 9.74414C94.9537 9.74414 91.2188 13.2841 91.2188 18.5041C91.2188 24.0301 95.3817 27.3071 99.8187 27.3071C103.531 27.3071 105.819 25.2771 107.169 23.4571L104.136 21.4391C103.349 22.6591 102.033 23.8541 99.8377 23.8541C97.3717 23.8541 96.2377 22.5041 95.5347 21.1941L107.298 16.3141L106.698 14.8841C105.562 12.0841 102.911 9.74414 99.4027 9.74414H99.4017ZM99.5547 13.1181C101.158 13.1181 102.311 13.9701 102.801 14.9921L94.9447 18.2751C94.6047 15.7331 97.0147 13.1181 99.5447 13.1181H99.5547Z" fill="#DB3236"/>
<path d="M85.6016 26.7872H89.4656V0.930176H85.6016V26.7872Z" fill="#3CBA54"/>
</g>
<defs>
<clipPath id="clip0_177_623">
<rect width="107" height="35" fill="white"/>
</clipPath>
</defs>
</svg>
