<svg width="1005" height="240" viewBox="0 0 1005 240" fill="none" xmlns="http://www.w3.org/2000/svg">
<g clip-path="url(#clip0_1012_1272)">
<path d="M235.312 86.665C238.368 97.2586 240 108.422 240 120C240 174.729 203.402 220.885 153.335 235.312C103.294 220.833 66.6696 174.703 66.6696 120H66.6955C66.6955 149.449 90.5504 173.304 120 173.304C174.703 173.304 220.833 136.706 235.286 86.665H235.312Z" fill="url(#paint0_linear_1012_1272)"/>
<path d="M153.335 235.286C142.741 238.368 131.578 240 120 240C65.2968 240 19.1409 203.402 4.71399 153.361C19.1668 103.294 65.2968 66.6953 120 66.6953C90.5504 66.6953 66.6954 90.5503 66.6954 120H66.6695C66.6695 174.703 103.294 220.833 153.335 235.286Z" fill="url(#paint1_linear_1012_1272)"/>
<path d="M86.6393 4.71387C136.706 19.1667 173.305 65.2966 173.305 120C173.305 90.5503 149.45 66.6953 120 66.6953C65.2968 66.6953 19.1668 103.294 4.71401 153.361C1.63177 142.767 0 131.578 0 120C0 65.2966 36.5983 19.1408 86.6393 4.71387Z" fill="url(#paint2_linear_1012_1272)"/>
<path d="M235.312 86.6652C220.859 136.706 174.729 173.305 120.026 173.305C149.475 173.305 173.33 149.45 173.33 120C173.33 65.2968 136.732 19.1668 86.6652 4.71401C97.2588 1.63177 108.448 0 120.026 0C174.755 0 220.911 36.5983 235.338 86.6652H235.312Z" fill="url(#paint3_linear_1012_1272)"/>
</g>
<path d="M383.52 150.88H326.4V130.72H378.4V109.28H326.4V89.12H383.04V66.4H300V173.6H383.52V150.88Z" fill="white"/>
<path d="M442.08 64C429.44 64 419.2 67.2 411.36 73.28C403.52 79.36 399.68 87.52 399.68 97.76C399.68 114.08 409.28 124.48 428.48 128.8L450.88 133.6C454.4 134.4 456.96 135.52 458.56 137.12C460 138.72 460.8 140.64 460.8 143.2C460.8 146.4 459.36 149.12 456.48 151.2C453.6 153.12 449.76 154.24 444.96 154.24C442.4 154.24 439.52 153.76 436.64 152.96C433.76 152.16 431.04 150.56 428.8 148C426.4 145.44 424.8 142.24 423.84 138.4L396.64 143.68C397.28 148.64 399.04 153.12 401.76 157.28C404.32 161.44 407.84 164.8 412 167.68C416.16 170.4 420.96 172.48 426.4 173.92C431.84 175.36 437.44 176.16 443.52 176.16C449.44 176.16 455.04 175.36 460.48 173.92C465.76 172.32 470.4 170.08 474.56 167.2C478.72 164.32 481.92 160.64 484.16 156.16C486.4 151.68 487.68 146.88 487.68 141.44C487.68 133.12 485.12 126.24 480 121.12C474.88 116 467.68 112.32 458.24 110.24L436 105.28C432.8 104.64 430.56 103.52 429.28 101.92C428 100.32 427.36 98.56 427.36 96.32C427.36 93.12 428.64 90.56 431.36 88.48C433.92 86.4 437.44 85.44 441.76 85.44C446.24 85.44 450.24 86.72 453.76 89.28C457.28 91.84 459.52 95.68 460.48 100.48L486.4 95.2C484.32 85.44 479.36 77.76 471.52 72.32C463.52 66.88 453.76 64 442.08 64Z" fill="white"/>
<path d="M589.913 89.44V66.4H494.232V89.44H528.952V173.6H555.193V89.44H589.913Z" fill="white"/>
<path d="M700.104 66.4H673.864V108.16H628.744V66.4H602.344V173.6H628.744V131.2H673.864V173.6H700.104V66.4Z" fill="white"/>
<path d="M802.27 150.88H745.15V130.72H797.15V109.28H745.15V89.12H801.79V66.4H718.75V173.6H802.27V150.88Z" fill="white"/>
<path d="M908.35 89.44V66.4H812.67V89.44H847.39V173.6H873.63V89.44H908.35Z" fill="white"/>
<path d="M1004.3 150.88H947.181V130.72H999.181V109.28H947.181V89.12H1003.82V66.4H920.781V173.6H1004.3V150.88Z" fill="white"/>
<defs>
<linearGradient id="paint0_linear_1012_1272" x1="67.4207" y1="126.812" x2="209.229" y2="165.016" gradientUnits="userSpaceOnUse">
<stop stop-color="#AD0303"/>
<stop offset="1" stop-color="#AD0303" stop-opacity="0.1"/>
</linearGradient>
<linearGradient id="paint1_linear_1012_1272" x1="68.2754" y1="55.3247" x2="79.6201" y2="202.003" gradientUnits="userSpaceOnUse">
<stop stop-color="#1732C1"/>
<stop offset="1" stop-color="#1732C1" stop-opacity="0.1"/>
</linearGradient>
<linearGradient id="paint2_linear_1012_1272" x1="166.881" y1="74.6987" x2="40.3022" y2="79.2314" gradientUnits="userSpaceOnUse">
<stop stop-color="#AD0303"/>
<stop offset="1" stop-color="#AD0303" stop-opacity="0.1"/>
</linearGradient>
<linearGradient id="paint3_linear_1012_1272" x1="154.863" y1="176.387" x2="161.649" y2="31.0296" gradientUnits="userSpaceOnUse">
<stop stop-color="#1732C1"/>
<stop offset="1" stop-color="#1732C1" stop-opacity="0.1"/>
</linearGradient>
<clipPath id="clip0_1012_1272">
<rect width="240" height="240" fill="white"/>
</clipPath>
</defs>
</svg>
