<svg width="93" height="24" viewBox="0 0 93 24" fill="none" xmlns="http://www.w3.org/2000/svg">
<path d="M14.3734 23V17.688H5.66938V0.407999H0.069376V23H14.3734ZM28.1884 23.352C35.0364 23.352 40.1564 18.68 40.1564 11.704C40.1564 4.728 35.0364 0.0559998 28.1884 0.0559998C21.4684 0.0559998 16.2524 4.728 16.2524 11.704C16.2524 18.68 21.4684 23.352 28.1884 23.352ZM28.1884 18.168C24.5724 18.168 22.0124 15.512 22.0124 11.704C22.0124 7.896 24.5724 5.24 28.1884 5.24C31.9644 5.24 34.3644 7.896 34.3644 11.704C34.3644 15.512 31.9644 18.168 28.1884 18.168ZM54.4741 14.552H60.6501C60.0101 16.632 58.4741 18.2 55.1461 18.2C50.8901 18.2 48.7461 15.576 48.7461 11.704C48.7461 7.896 51.1461 5.24 54.7941 5.24C57.2261 5.24 58.9861 6.424 59.7541 8.28L64.7781 5.688C63.4021 2.296 59.7221 0.0559998 54.8581 0.0559998C47.8821 0.0559998 42.9861 4.728 42.9861 11.704C42.9861 18.68 47.8821 23.352 55.0821 23.352C62.2821 23.352 66.4101 18.712 66.4101 11.256V10.072H54.4741V14.552ZM80.7809 23.352C87.6289 23.352 92.7489 18.68 92.7489 11.704C92.7489 4.728 87.6289 0.0559998 80.7809 0.0559998C74.0609 0.0559998 68.8449 4.728 68.8449 11.704C68.8449 18.68 74.0609 23.352 80.7809 23.352ZM80.7809 18.168C77.1649 18.168 74.6049 15.512 74.6049 11.704C74.6049 7.896 77.1649 5.24 80.7809 5.24C84.5569 5.24 86.9569 7.896 86.9569 11.704C86.9569 15.512 84.5569 18.168 80.7809 18.168Z" fill="#142DA9"/>
</svg>
