<svg width="25" height="24" viewBox="0 0 25 24" fill="none" xmlns="http://www.w3.org/2000/svg">
<path d="M11.7361 3.81663C12.1029 3.07346 13.1627 3.07346 13.5295 3.81663L15.6066 8.02454C15.6794 8.17197 15.82 8.2742 15.9826 8.29798L20.629 8.97712C21.4489 9.09696 21.7757 10.1048 21.1821 10.683L17.8212 13.9565C17.7033 14.0714 17.6494 14.2369 17.6773 14.3992L18.4702 19.0226C18.6104 19.8396 17.7528 20.4626 17.0192 20.0767L12.8655 17.8924C12.7198 17.8158 12.5458 17.8158 12.4001 17.8924L8.24645 20.0767C7.51282 20.4626 6.65527 19.8396 6.79538 19.0226L7.58836 14.3992C7.61619 14.2369 7.56236 14.0714 7.44442 13.9565L4.08349 10.683C3.4899 10.1048 3.81668 9.09696 4.6366 8.97712L9.283 8.29798C9.44567 8.2742 9.58627 8.17197 9.65904 8.02455L11.7361 3.81663Z" fill="url(#paint0_linear_177_647)"/>
<defs>
<linearGradient id="paint0_linear_177_647" x1="12.6328" y1="2" x2="12.6328" y2="21.02" gradientUnits="userSpaceOnUse">
<stop stop-color="#FFF6A5"/>
<stop offset="1" stop-color="#D1BC00"/>
</linearGradient>
</defs>
</svg>
