<svg width="118" height="35" viewBox="0 0 118 35" fill="none" xmlns="http://www.w3.org/2000/svg">
<g clip-path="url(#clip0_181_697)">
<path d="M32.6878 22.1044C30.7843 22.1044 29.0007 21.2985 27.3802 19.9866L27.7748 18.1345L27.7919 18.0659C28.1433 16.094 29.258 12.7841 32.6878 12.7841C35.26 12.7841 37.3522 14.8763 37.3522 17.4485C37.3435 20.0122 35.2515 22.1044 32.6878 22.1044ZM32.6878 8.05981C28.3062 8.05981 24.9109 10.9065 23.5306 15.588C21.4212 12.4241 19.8263 8.62576 18.8919 5.42749H14.176V17.6972C14.176 20.1151 12.2039 22.087 9.78592 22.087C7.36794 22.087 5.39605 20.1151 5.39605 17.6972V5.42749H0.679741V17.6972C0.662584 22.7218 4.75255 26.8459 9.777 26.8459C14.8017 26.8459 18.8916 22.7218 18.8916 17.6972V15.6395C19.809 17.5514 20.9322 19.4806 22.2956 21.1956L19.4059 34.7769H24.2334L26.3254 24.9252C28.1602 26.0999 30.2696 26.8374 32.6876 26.8374C37.8577 26.8374 42.0678 22.6017 42.0678 17.4313C42.0678 12.2696 37.8577 8.05981 32.6876 8.05981H32.6878Z" fill="#6FDA44"/>
<path d="M56.4671 8.59158L59.5109 20.8613L62.8636 8.59158H66.8591L61.7061 26.3231H57.7104L54.5466 13.9761L51.3911 26.3144H47.3957L42.2422 8.58312H46.2379L49.5904 20.8528L52.6342 8.58312H56.4668V8.59181L56.4671 8.59158ZM76.4193 8.05995C71.232 8.05995 67.0307 12.2698 67.0307 17.4486C67.0307 22.6362 71.2405 26.8376 76.4193 26.8376C81.6069 26.8376 85.8167 22.6362 85.8167 17.4486C85.8167 12.2613 81.6069 8.05995 76.4193 8.05995ZM76.4193 22.9791C73.367 22.9791 70.8976 20.5097 70.8976 17.4573C70.8976 14.4048 73.3755 11.9356 76.4193 11.9356C79.4719 11.9356 81.9411 14.4048 81.9411 17.4573C81.9411 20.5012 79.4719 22.9791 76.4193 22.9791ZM97.229 12.5615C94.5454 12.5615 92.3761 14.7392 92.3761 17.4143V26.3144H88.3546V8.59158H92.3761V11.3181C92.3761 11.3181 94.0909 8.58289 97.6149 8.58289H98.8495V12.5615H97.229ZM110.725 16.7628C113.58 15.1508 115.518 12.0898 115.518 8.58289H111.496C111.496 11.541 109.096 13.9418 106.138 13.9418H105.597V0.0344238H101.576V26.3142H105.597V17.9631H106.078C106.472 17.9631 106.987 18.2205 107.218 18.5375L112.928 26.3144H117.747L110.725 16.7628Z" fill="white"/>
</g>
<defs>
<clipPath id="clip0_181_697">
<rect width="117.135" height="35" fill="white" transform="translate(0.632812)"/>
</clipPath>
</defs>
</svg>
